<?xml version="1.0" encoding="utf-8"?>
<svg xmlns="http://www.w3.org/2000/svg" id="mainSVG" pointer-events="all" width="165.001" height="77.943" EdgeLen="30" template="u4_15_tu" code="A2_0_3_0" copyright="Francis Hemsher, 2012">
	<polygon id="BorderPoly" fill="none" pointer-events="none" stroke="red" stroke-width="4" transform="" points="59.9998,25.981 29.9998,25.981 -4.57764e-005,25.9815 15,51.962 -4.57764e-005,77.9425 29.9998,77.9435 59.9998,77.9435 74.9998,51.962 105,51.962 120,77.9425 150.001,77.9425 165.001,51.9615 150,25.9805 120,25.981 105,-3.8147e-006 74.9998,-3.8147e-006"/>
	<g id="mainPolyG" transform=""><polygon id="mainPoly" fill="rgb(252, 194, 0)" stroke="black" onmouseover="setChange(evt)" onmouseout="unhiliteChange(evt)" onclick="changeMe(evt)" points="105,-3.8147e-006 74.9998,-3.8147e-006 59.9998,25.981 74.9998,51.962 105,51.962 120,25.981" seed="0"/><polygon fill="rgb(41, 171, 135)" stroke="black" stroke-width="1" onmouseover="setChange(evt)" onmouseout="unhiliteChange(evt)" onclick="changeMe(evt)" points="59.9998,25.981 29.9998,25.981 15,51.962 29.9998,77.9435 59.9998,77.9435 74.9998,51.962" seed="1"/><polygon fill="rgb(41, 171, 135)" stroke="black" stroke-width="1" onmouseover="setChange(evt)" onmouseout="unhiliteChange(evt)" onclick="changeMe(evt)" points="165.001,51.9615 150,25.9805 120,25.981 105,51.962 120,77.9425 150.001,77.9425" seed="2"/><polygon fill="rgb(147, 112, 219)" stroke="black" stroke-width="1" onmouseover="setChange(evt)" onmouseout="unhiliteChange(evt)" onclick="changeMe(evt)" points="15,51.962 29.9998,25.981 -4.57764e-005,25.9815" seed="3"/><polygon fill="rgb(147, 112, 219)" stroke="black" stroke-width="1" onmouseover="setChange(evt)" onmouseout="unhiliteChange(evt)" onclick="changeMe(evt)" points="29.9998,77.9435 15,51.962 -4.57764e-005,77.9425" seed="4"/></g>
</svg>
