<?xml version="1.0" encoding="utf-8"?>
<svg xmlns="http://www.w3.org/2000/svg" id="mainSVG" pointer-events="all" width="210.001" height="155.885" EdgeLen="30" template="u5_4_tu" code="A2_0_4_0" copyright="Francis Hemsher, 2012">
	<polygon id="BorderPoly" fill="none" pointer-events="none" stroke="red" stroke-width="4" transform="" points="195.002,-4.57764e-005 165.001,-4.57764e-005 150.001,25.9808 120.001,25.9808 105.001,51.9618 75.0005,51.9618 60.0005,77.9418 30.0005,77.9418 15.0005,103.923 0.000495911,129.904 30.0005,129.904 45.0005,155.885 60.0005,129.904 75.0005,103.923 105.001,103.924 120.001,77.9427 150.001,77.9427 165.001,51.9618 195.001,51.9618 210.002,25.9808"/>
	<g id="mainPolyG" transform=""><polygon id="mainPoly" fill="rgb(252, 194, 0)" stroke="black" onmouseover="setChange(evt)" onmouseout="unhiliteChange(evt)" onclick="changeMe(evt)" points="60.0005,77.9418 30.0005,77.9418 15.0005,103.923 30.0005,129.904 60.0005,129.904 75.0005,103.923" seed="0"/><polygon fill="rgb(147, 112, 219)" stroke="black" stroke-width="1" onmouseover="setChange(evt)" onmouseout="unhiliteChange(evt)" onclick="changeMe(evt)" points="30.0005,129.904 15.0005,103.923 0.000495911,129.904" seed="1"/><polygon fill="rgb(147, 112, 219)" stroke="black" stroke-width="1" onmouseover="setChange(evt)" onmouseout="unhiliteChange(evt)" onclick="changeMe(evt)" points="60.0005,129.904 30.0005,129.904 45.0005,155.885" seed="2"/><polygon fill="rgb(41, 171, 135)" stroke="black" stroke-width="1" onmouseover="setChange(evt)" onmouseout="unhiliteChange(evt)" onclick="changeMe(evt)" points="105.001,51.9618 75.0005,51.9618 60.0005,77.9418 75.0005,103.923 105.001,103.924 120.001,77.9427" seed="3"/><polygon fill="rgb(41, 171, 135)" stroke="black" stroke-width="1" onmouseover="setChange(evt)" onmouseout="unhiliteChange(evt)" onclick="changeMe(evt)" points="150.001,25.9808 120.001,25.9808 105.001,51.9618 120.001,77.9427 150.001,77.9427 165.001,51.9618" seed="4"/><polygon fill="rgb(41, 171, 135)" stroke="black" stroke-width="1" onmouseover="setChange(evt)" onmouseout="unhiliteChange(evt)" onclick="changeMe(evt)" points="195.002,-4.57764e-005 165.001,-4.57764e-005 150.001,25.9808 165.001,51.9618 195.001,51.9618 210.002,25.9808" seed="5"/></g>
</svg>
