<?xml version="1.0" encoding="utf-8" ?>
<svg xmlns="http://www.w3.org/2000/svg" id="mainSVG" pointer-events="all" onkeyup="attachKey(evt)" width="88.978" height="103.924" EdgeLen="30" template="A2_2_1_R"  code="A2_2_1_R">
<polygon id="BorderPoly" fill="none" pointer-events="none" stroke="red" stroke-width="4" transform="" points="58.978,7.765 30,-3.8147e-006 15,25.981 0,51.962 15,77.943 30,103.924 45,77.943 60.001,51.962 88.978,59.726 73.978,33.7455" />
<g id="mainPolyG" transform=""><polygon id="mainPoly" fill="rgb(252, 194, 0)" stroke="black" onmouseover="setChange(evt)" onmouseout="unhiliteChange(evt)" onclick="changeMe(evt)" points="45,25.981 15,25.981 0,51.962 15,77.943 45,77.943 60,51.962" seed="0" /><polygon fill="rgb(147, 112, 219)" stroke="black" stroke-width="1" onmouseover="setChange(evt)" onmouseout="unhiliteChange(evt)" onclick="changeMe(evt)" points="45,25.981 30,-3.8147e-006 15,25.981" seed="1" /><polygon fill="rgb(147, 112, 219)" stroke="black" stroke-width="1" onmouseover="setChange(evt)" onmouseout="unhiliteChange(evt)" onclick="changeMe(evt)" points="45,77.943 15,77.943 30,103.924" seed="2" /><polygon fill="rgb(255, 0, 255)" stroke="black" stroke-width="1" onmouseover="setChange(evt)" onmouseout="unhiliteChange(evt)" onclick="changeMe(evt)" transform="" points="58.978,7.765 30,-3.8147e-006 45,25.981 73.978,33.7455" seed="3" /><polygon fill="rgb(255, 0, 255)" stroke="black" stroke-width="1" onmouseover="setChange(evt)" onmouseout="unhiliteChange(evt)" onclick="changeMe(evt)" transform="" points="73.978,33.7455 45,25.981 60.001,51.962 88.978,59.726" seed="4" /></g>
</svg>
