<?xml version="1.0" encoding="utf-8"?>
<svg xmlns="http://www.w3.org/2000/svg" id="mainSVG" pointer-events="all" width="178.923" height="201.962" EdgeLen="30" template="u2_1_tu" code="A2_6_3_1" copyright="Francis Hemsher, 2012">
	<polygon id="BorderPoly" fill="none" pointer-events="none" stroke="red" stroke-width="4"  points="40.9812,44.999 15.0002,59.999 0.000549316,85.981 4.57764e-005,115.981 15.0002,141.961 40.9812,156.961 40.9802,186.96 70.9812,186.962 96.9622,201.962 122.942,186.962 152.941,186.962 152.942,156.962 178.922,141.962 163.923,115.981 163.922,85.981 163.923,85.981 178.923,60.001 152.943,45 122.943,45 122.943,15 96.9622,0 70.9812,15 70.9812,45"/>
	<g id="mainPolyG" transform=""><polygon id="mainPoly" fill="rgb(252, 194, 0)" stroke="black" stroke-width="1" onmouseover="setChange(evt)" onmouseout="unhiliteChange(evt)" onclick="changeMe(evt)" points="70.9812,45 40.9812,44.999 15.0002,59.999 0.000549316,85.981 4.57764e-005,115.981 15.0002,141.961 40.9812,156.961 70.9812,156.962 96.9613,141.962 111.961,115.981 111.962,85.981 96.9622,60" seed="0"/><polygon fill="rgb(224, 176, 255)" stroke="black" stroke-width="1" onmouseover="setChange(evt)" onmouseout="unhiliteChange(evt)" onclick="changeMe(evt)" points="122.943,15 96.9622,0 70.9812,15 70.9812,45 96.9622,60 122.943,45" seed="1"/><polygon fill="rgb(224, 176, 255)" stroke="black" stroke-width="1" onmouseover="setChange(evt)" onmouseout="unhiliteChange(evt)" onclick="changeMe(evt)" points="163.923,85.981 137.943,70.981 111.962,85.981 111.961,115.981 137.942,130.982 163.923,115.981" seed="2"/><polygon fill="rgb(224, 176, 255)" stroke="black" stroke-width="1" onmouseover="setChange(evt)" onmouseout="unhiliteChange(evt)" onclick="changeMe(evt)" points="122.942,156.962 96.9613,141.961 70.9812,156.962 70.9812,186.962 96.9622,201.962 122.942,186.962" seed="3"/><polygon fill="rgb(41, 171, 135)" stroke="black" stroke-width="1" onmouseover="setChange(evt)" onmouseout="unhiliteChange(evt)" onclick="changeMe(evt)" points="137.942,70.981 122.943,44.999 96.9622,60 111.962,85.981" seed="4"/><polygon fill="rgb(41, 171, 135)" stroke="black" stroke-width="1" onmouseover="setChange(evt)" onmouseout="unhiliteChange(evt)" onclick="changeMe(evt)" points="137.942,130.981 111.961,115.981 96.9613,141.962 122.942,156.961" seed="5"/><polygon fill="rgb(41, 171, 135)" stroke="black" stroke-width="1" onmouseover="setChange(evt)" onmouseout="unhiliteChange(evt)" onclick="changeMe(evt)" points="70.9802,156.962 40.9812,156.961 40.9802,186.96 70.9802,186.962" seed="6"/><polygon fill="rgb(147, 112, 219)" stroke="black" stroke-width="1" onmouseover="setChange(evt)" onmouseout="unhiliteChange(evt)" onclick="changeMe(evt)" points="152.943,45 122.943,44.999 137.942,70.981" seed="7"/><polygon fill="rgb(147, 112, 219)" stroke="black" stroke-width="1" onmouseover="setChange(evt)" onmouseout="unhiliteChange(evt)" onclick="changeMe(evt)" points="152.942,156.962 137.942,130.981 122.942,156.961" seed="8"/><polygon fill="rgb(41, 171, 135)" stroke="black" stroke-width="1" onmouseover="setChange(evt)" onmouseout="unhiliteChange(evt)" onclick="changeMe(evt)" points="178.923,60.001 152.942,45 137.942,70.981 163.922,85.981" seed="9"/><polygon fill="rgb(41, 171, 135)" stroke="black" stroke-width="1" onmouseover="setChange(evt)" onmouseout="unhiliteChange(evt)" onclick="changeMe(evt)" points="178.922,141.962 163.923,115.981 137.942,130.981 152.942,156.962" seed="10"/><polygon fill="rgb(41, 171, 135)" stroke="black" stroke-width="1" onmouseover="setChange(evt)" onmouseout="unhiliteChange(evt)" onclick="changeMe(evt)" points="152.941,156.962 122.942,156.961 122.941,186.96 152.941,186.962" seed="11"/></g>
</svg>
