<?xml version="1.0" encoding="utf-8"?>
<svg xmlns="http://www.w3.org/2000/svg" id="mainSVG" pointer-events="all" width="210.001" height="207.847" EdgeLen="30" template="u6_10_tu" code="A4_0_5_0" copyright="Francis Hemsher, 2012">
	<polygon id="BorderPoly" fill="none" pointer-events="none" stroke="red" stroke-width="4" transform="" points="195.001,0.00025177 165.001,0.00025177 150.001,25.9812 135.001,51.9622 120.001,77.9433 105.001,103.924 90.0008,129.905 59.9997,129.905 44.9997,155.885 14.9997,155.885 -0.00025177,181.866 14.9997,207.847 44.9997,207.847 59.9997,181.866 90.0008,181.866 105.001,155.886 135.001,155.886 150.001,129.905 165.001,103.924 180.001,77.9433 195.001,51.9622 210.001,25.9812"/>
	<g id="mainPolyG" transform=""><polygon id="mainPoly" fill="rgb(252, 194, 0)" stroke="black" onmouseover="setChange(evt)" onmouseout="unhiliteChange(evt)" onclick="changeMe(evt)" points="135.001,103.924 105.001,103.924 90.0008,129.905 105.001,155.886 135.001,155.886 150.001,129.905" seed="0"/><polygon fill="rgb(41, 171, 135)" stroke="black" stroke-width="1" onmouseover="setChange(evt)" onmouseout="unhiliteChange(evt)" onclick="changeMe(evt)" points="90.0008,129.905 59.9997,129.905 44.9997,155.885 59.9997,181.866 90.0008,181.866 105.001,155.886" seed="1"/><polygon fill="rgb(41, 171, 135)" stroke="black" stroke-width="1" onmouseover="setChange(evt)" onmouseout="unhiliteChange(evt)" onclick="changeMe(evt)" points="44.9997,155.885 14.9997,155.885 -0.00025177,181.866 14.9997,207.847 44.9997,207.847 59.9997,181.866" seed="2"/><polygon fill="rgb(147, 112, 219)" stroke="black" stroke-width="1" onmouseover="setChange(evt)" onmouseout="unhiliteChange(evt)" onclick="changeMe(evt)" points="135.001,103.924 120.001,77.9433 105.001,103.924" seed="3"/><polygon fill="rgb(147, 112, 219)" stroke="black" stroke-width="1" onmouseover="setChange(evt)" onmouseout="unhiliteChange(evt)" onclick="changeMe(evt)" points="165.001,103.924 135.001,103.924 150.001,129.905" seed="4"/><polygon fill="rgb(41, 171, 135)" stroke="black" stroke-width="1" onmouseover="setChange(evt)" onmouseout="unhiliteChange(evt)" onclick="changeMe(evt)" points="165.001,51.9622 135.001,51.9622 120.001,77.9433 135.001,103.924 165.001,103.924 180.001,77.9433" seed="5"/><polygon fill="rgb(147, 112, 219)" stroke="black" stroke-width="1" onmouseover="setChange(evt)" onmouseout="unhiliteChange(evt)" onclick="changeMe(evt)" points="165.001,51.9622 150.001,25.9812 135.001,51.9622" seed="6"/><polygon fill="rgb(147, 112, 219)" stroke="black" stroke-width="1" onmouseover="setChange(evt)" onmouseout="unhiliteChange(evt)" onclick="changeMe(evt)" points="195.001,51.9622 165.001,51.9622 180.001,77.9433" seed="7"/><polygon fill="rgb(41, 171, 135)" stroke="black" stroke-width="1" onmouseover="setChange(evt)" onmouseout="unhiliteChange(evt)" onclick="changeMe(evt)" points="195.001,0.00025177 165.001,0.00025177 150.001,25.9812 165.001,51.9622 195.001,51.9622 210.001,25.9812" seed="8"/></g>
</svg>
