<?xml version="1.0" encoding="utf-8"?>
<svg xmlns="http://www.w3.org/2000/svg" id="mainSVG" pointer-events="all" width="167.943" height="111.962" EdgeLen="30" template="u2_2_tu" code="A4_1_0_1" copyright="Francis Hemsher, 2012">
	<polygon id="BorderPoly" fill="none" pointer-events="none" stroke="red" stroke-width="4" transform="" points="152.943,0.000495911 126.963,15 96.9625,15.0005 70.9815,0.000495911 40.9805,-3.8147e-006 15.0005,15 0.000495911,40.981 -7.62939e-006,70.981 15,96.962 40.9805,111.962 70.9815,111.962 96.9615,96.962 111.961,70.981 137.943,55.981 167.943,55.981 152.943,30.0005"/>
	<g id="mainPolyG" transform=""><polygon id="mainPoly" fill="rgb(252, 194, 0)" stroke="black" stroke-width="1" onmouseover="setChange(evt)" onmouseout="unhiliteChange(evt)" onclick="changeMe(evt)" points="70.9815,0.000495911 40.9805,-3.8147e-006 15.0005,15 0.000495911,40.981 -7.62939e-006,70.981 15,96.962 40.9805,111.962 70.9815,111.962 96.9615,96.962 111.961,70.981 111.963,40.981 96.9625,15.0005" seed="0"/><polygon fill="rgb(224, 176, 255)" stroke="black" stroke-width="1" onmouseover="setChange(evt)" onmouseout="unhiliteChange(evt)" onclick="changeMe(evt)" points="111.963,40.981 126.963,15 96.9625,15.0005" seed="1"/><polygon fill="rgb(224, 176, 255)" stroke="black" stroke-width="1" onmouseover="setChange(evt)" onmouseout="unhiliteChange(evt)" onclick="changeMe(evt)" points="137.943,55.982 111.963,40.981 111.961,70.981" seed="2"/><polygon fill="rgb(41, 171, 135)" stroke="black" stroke-width="1" onmouseover="setChange(evt)" onmouseout="unhiliteChange(evt)" onclick="changeMe(evt)" points="152.943,30.0005 126.963,15 111.961,40.9805 137.943,55.981" seed="3"/><polygon fill="rgb(224, 176, 255)" stroke="black" stroke-width="1" onmouseover="setChange(evt)" onmouseout="unhiliteChange(evt)" onclick="changeMe(evt)" points="152.943,30.0005 152.943,0.000495911 126.963,15" seed="4"/><polygon fill="rgb(224, 176, 255)" stroke="black" stroke-width="1" onmouseover="setChange(evt)" onmouseout="unhiliteChange(evt)" onclick="changeMe(evt)" points="167.943,55.981 152.943,30.0005 137.943,55.981" seed="5"/></g>
</svg>
