<?xml version="1.0" encoding="utf-8"?>
<svg xmlns="http://www.w3.org/2000/svg" id="mainSVG" pointer-events="all" width="115.98" height="148.923" EdgeLen="30" template="u4_93_tu" code="A4_5_2_0" copyright="Francis Hemsher, 2012">
	<polygon id="BorderPoly" fill="none" pointer-events="none" stroke="red" stroke-width="4" transform="" points="14.9999,-4.57764e-005 15.0005,30.0003 -4.95911e-005,55.9812 14.9999,81.9622 29.9999,107.943 44.9997,133.924 74.9998,133.924 100.981,148.923 115.98,122.943 115.981,92.9433 100.981,66.9622 85.9807,40.9813 70.9807,15 44.9997,0.000450134"/><g id="mainPolyG" transform=""><polygon id="mainPoly" fill="rgb(252, 194, 0)" stroke="black" onmouseover="setChange(evt)" onmouseout="unhiliteChange(evt)" onclick="changeMe(evt)" points="74.9998,81.9622 44.9997,81.9622 29.9999,107.943 44.9997,133.924 74.9998,133.924 89.9998,107.943" seed="0"/><polygon fill="rgb(147, 112, 219)" stroke="black" stroke-width="1" onmouseover="setChange(evt)" onmouseout="unhiliteChange(evt)" onclick="changeMe(evt)" points="44.9997,81.9622 14.9999,81.9622 29.9999,107.943" seed="1"/><polygon fill="rgb(147, 112, 219)" stroke="black" stroke-width="1" onmouseover="setChange(evt)" onmouseout="unhiliteChange(evt)" onclick="changeMe(evt)" points="74.9998,81.9622 59.9997,55.9812 44.9997,81.9622" seed="2"/><polygon fill="rgb(41, 171, 135)" stroke="black" stroke-width="1" onmouseover="setChange(evt)" onmouseout="unhiliteChange(evt)" onclick="changeMe(evt)" points="44.9997,30.0003 14.9999,30.0003 -4.95911e-005,55.9812 14.9999,81.9622 44.9997,81.9622 59.9997,55.9812" seed="3"/><polygon fill="rgb(224, 176, 255)" stroke="black" stroke-width="1" onmouseover="setChange(evt)" onmouseout="unhiliteChange(evt)" onclick="changeMe(evt)" points="44.9997,0.000450134 14.9999,-4.57764e-005 15.0005,30.0003 44.9997,30.0003" seed="4"/><polygon fill="rgb(224, 176, 255)" stroke="black" stroke-width="1" onmouseover="setChange(evt)" onmouseout="unhiliteChange(evt)" onclick="changeMe(evt)" points="85.9807,40.9813 70.9807,15 45.0007,30.0003 59.9997,55.9812" seed="5"/><polygon fill="rgb(224, 176, 255)" stroke="black" stroke-width="1" onmouseover="setChange(evt)" onmouseout="unhiliteChange(evt)" onclick="changeMe(evt)" points="100.981,66.9622 85.9807,40.9813 59.9997,55.9812 74.9998,81.9622" seed="6"/><polygon fill="rgb(224, 176, 255)" stroke="black" stroke-width="1" onmouseover="setChange(evt)" onmouseout="unhiliteChange(evt)" onclick="changeMe(evt)" points="115.981,92.9433 100.981,66.9622 75.0007,81.9622 89.9998,107.943" seed="7"/><polygon fill="rgb(224, 176, 255)" stroke="black" stroke-width="1" onmouseover="setChange(evt)" onmouseout="unhiliteChange(evt)" onclick="changeMe(evt)" points="115.981,122.943 89.9998,107.943 74.9998,133.924 100.981,148.923" seed="8"/><polygon fill="rgb(147, 112, 219)" stroke="black" stroke-width="1" onmouseover="setChange(evt)" onmouseout="unhiliteChange(evt)" onclick="changeMe(evt)" points="70.9807,15.0005 44.9997,0.000450134 44.9997,30.0003" seed="9"/><polygon fill="rgb(147, 112, 219)" stroke="black" stroke-width="1" onmouseover="setChange(evt)" onmouseout="unhiliteChange(evt)" onclick="changeMe(evt)" points="115.98,122.943 115.981,92.9433 89.9998,107.943" seed="10"/></g></svg>
