<?xml version="1.0" encoding="utf-8"?>
<svg xmlns="http://www.w3.org/2000/svg" id="mainSVG" pointer-events="all" width="105.001" height="233.828" EdgeLen="30" template="u6_38_tu" code="A6_0_7_0" copyright="Francis Hemsher, 2012">
	<polygon id="BorderPoly" fill="none" pointer-events="none" stroke="red" stroke-width="4" transform="" points="44.9995,0 14.9995,0 -4.57764e-005,25.981 15,51.962 -4.57764e-005,77.943 15,103.923 -4.57764e-005,129.904 15,155.885 -4.57764e-005,181.867 15,207.848 45,207.848 59.9998,233.828 90.0008,233.828 105,207.848 89.9998,181.867 105,155.885 89.9998,129.904 105,103.923 89.9998,77.943 105.001,51.962 90.0008,25.981 59.9998,25.981"/>
	<g id="mainPolyG" transform=""><polygon id="mainPoly" fill="rgb(252, 194, 0)" stroke="black" onmouseover="setChange(evt)" onmouseout="unhiliteChange(evt)" onclick="changeMe(evt)" points="45,51.962 15,51.962 -4.57764e-005,77.943 15,103.923 45,103.923 59.9998,77.943" seed="0"/><polygon fill="rgb(41, 171, 135)" stroke="black" stroke-width="1" onmouseover="setChange(evt)" onmouseout="unhiliteChange(evt)" onclick="changeMe(evt)" points="45,103.923 15,103.923 -4.57764e-005,129.904 15,155.885 45,155.885 59.9998,129.904" seed="1"/><polygon fill="rgb(41, 171, 135)" stroke="black" stroke-width="1" onmouseover="setChange(evt)" onmouseout="unhiliteChange(evt)" onclick="changeMe(evt)" points="45,155.885 15,155.885 -4.57764e-005,181.867 15,207.848 45,207.848 59.9998,181.867" seed="2"/><polygon fill="rgb(41, 171, 135)" stroke="black" stroke-width="1" onmouseover="setChange(evt)" onmouseout="unhiliteChange(evt)" onclick="changeMe(evt)" points="90.0008,25.981 59.9998,25.981 45,51.962 59.9998,77.943 90.0008,77.943 105.001,51.962" seed="3"/><polygon fill="rgb(41, 171, 135)" stroke="black" stroke-width="1" onmouseover="setChange(evt)" onmouseout="unhiliteChange(evt)" onclick="changeMe(evt)" points="89.9998,77.943 59.9998,77.943 45,103.923 59.9998,129.904 90.0008,129.904 105,103.923" seed="4"/><polygon fill="rgb(41, 171, 135)" stroke="black" stroke-width="1" onmouseover="setChange(evt)" onmouseout="unhiliteChange(evt)" onclick="changeMe(evt)" points="89.9998,129.904 59.9998,129.904 45,155.885 60.0008,181.866 90.0008,181.866 105,155.885" seed="5"/><polygon fill="rgb(41, 171, 135)" stroke="black" stroke-width="1" onmouseover="setChange(evt)" onmouseout="unhiliteChange(evt)" onclick="changeMe(evt)" points="89.9998,181.867 59.9998,181.867 45,207.848 59.9998,233.828 90.0008,233.828 105,207.848" seed="6"/><polygon fill="rgb(147, 112, 219)" stroke="black" stroke-width="1" onmouseover="setChange(evt)" onmouseout="unhiliteChange(evt)" onclick="changeMe(evt)" points="45,51.962 30,25.981 15,51.962" seed="7"/><polygon fill="rgb(147, 112, 219)" stroke="black" stroke-width="1" onmouseover="setChange(evt)" onmouseout="unhiliteChange(evt)" onclick="changeMe(evt)" points="29.9995,25.981 -4.57764e-005,25.981 15,51.962" seed="8"/><polygon fill="rgb(147, 112, 219)" stroke="black" stroke-width="1" onmouseover="setChange(evt)" onmouseout="unhiliteChange(evt)" onclick="changeMe(evt)" points="29.9995,25.981 14.9995,0 -0.000545502,25.981" seed="9"/><polygon fill="rgb(147, 112, 219)" stroke="black" stroke-width="1" onmouseover="setChange(evt)" onmouseout="unhiliteChange(evt)" onclick="changeMe(evt)" points="44.9995,0 14.9995,0 29.9995,25.981" seed="10"/><polygon fill="rgb(147, 112, 219)" stroke="black" stroke-width="1" onmouseover="setChange(evt)" onmouseout="unhiliteChange(evt)" onclick="changeMe(evt)" points="59.9998,25.981 44.9995,0 29.9995,25.981" seed="11"/><polygon fill="rgb(147, 112, 219)" stroke="black" stroke-width="1" onmouseover="setChange(evt)" onmouseout="unhiliteChange(evt)" onclick="changeMe(evt)" points="59.9998,25.981 29.9995,25.981 44.9995,51.962" seed="12"/></g>
</svg>
