<?xml version="1.0" encoding="utf-8"?>
<svg xmlns="http://www.w3.org/2000/svg" id="mainSVG" pointer-events="all" width="200" height="200" EdgeLen="30" template="u4_1_tu" code="A6_0_11_0" copyright="Francis Hemsher, 2012">
	<polygon id="BorderPoly" fill="none" pointer-events="none" stroke="red" stroke-width="4" transform="" points="90.0003,25.9819 60.0003,25.9819 45.0003,51.9629 15.0003,51.9629 -4.57764e-005,77.9429 15.0003,103.924 0.000549316,129.905 15.0003,155.886 45.0003,155.886 60.0003,181.867 90.0003,181.867 105,207.848 135,207.848 150,181.867 180.003,181.865 195.003,155.884 180.003,129.903 195.002,103.922 180.002,77.9419 195.001,51.9599 180,25.9799 150,25.9799 135,-7.62939e-005 105,0.000923157"/><g id="mainPolyG" transform=""><polygon id="mainPoly" fill="rgb(237, 28, 36)" stroke="black" onmouseover="setChange(evt)" onmouseout="unhiliteChange(evt)" onclick="changeMe(evt)" points="90.0003,129.905 60.0003,129.905 45.0003,155.886 60.0003,181.867 90.0003,181.867 105,155.886" seed="0"/><polygon fill="rgb(237, 28, 36)" stroke="black" stroke-width="1" onmouseover="setChange(evt)" onmouseout="unhiliteChange(evt)" onclick="changeMe(evt)" points="45.0003,103.924 15.0003,103.924 0.000549316,129.905 15.0003,155.886 45.0003,155.886 60.0003,129.905" seed="1"/><polygon fill="rgb(237, 28, 36)" stroke="black" stroke-width="1" onmouseover="setChange(evt)" onmouseout="unhiliteChange(evt)" onclick="changeMe(evt)" points="45.0003,51.9629 15.0003,51.9629 -4.57764e-005,77.9429 15.0003,103.924 45.0003,103.924 60.0003,77.9429" seed="2"/><polygon fill="rgb(237, 28, 36)" stroke="black" stroke-width="1" onmouseover="setChange(evt)" onmouseout="unhiliteChange(evt)" onclick="changeMe(evt)" points="90.0003,25.9819 60.0003,25.9819 45.0003,51.9619 60.0003,77.9429 90.0003,77.9429 105.001,51.9619" seed="3"/><polygon fill="rgb(11, 218, 81)" stroke="black" stroke-width="1" onmouseover="setChange(evt)" onmouseout="unhiliteChange(evt)" onclick="changeMe(evt)" points="150,25.9799 135,-7.62939e-005 105,0.000923157 90.0003,25.9819 105.001,51.9619 135.001,51.9619" seed="4"/><polygon fill="rgb(11, 218, 81)" stroke="black" stroke-width="1" onmouseover="setChange(evt)" onmouseout="unhiliteChange(evt)" onclick="changeMe(evt)" points="195.001,51.9599 180,25.9799 150,25.9799 135.001,51.9619 150.001,77.9419 180.002,77.9419" seed="5"/><polygon fill="rgb(11, 218, 81)" stroke="black" stroke-width="1" onmouseover="setChange(evt)" onmouseout="unhiliteChange(evt)" onclick="changeMe(evt)" points="195.002,103.922 180.002,77.9419 150.002,77.9419 135.002,103.923 150.003,129.904 180.003,129.903" seed="6"/><polygon fill="rgb(11, 218, 81)" stroke="black" stroke-width="1" onmouseover="setChange(evt)" onmouseout="unhiliteChange(evt)" onclick="changeMe(evt)" points="195.003,155.884 180.003,129.903 150.003,129.904 135.003,155.885 150.003,181.865 180.003,181.865" seed="7"/><polygon fill="rgb(11, 218, 81)" stroke="black" stroke-width="1" onmouseover="setChange(evt)" onmouseout="unhiliteChange(evt)" onclick="changeMe(evt)" points="135,155.886 105,155.886 90.0003,181.867 105,207.848 135,207.848 150,181.867" seed="8"/><polygon fill="rgb(237, 28, 36)" stroke="black" stroke-width="1" onmouseover="setChange(evt)" onmouseout="unhiliteChange(evt)" onclick="changeMe(evt)" points="150.001,77.9419 135.001,51.9619 105.001,51.9619 90.0013,77.9429 105.001,103.924 135.001,103.923" seed="9"/><polygon fill="rgb(237, 28, 36)" stroke="black" stroke-width="1" onmouseover="setChange(evt)" onmouseout="unhiliteChange(evt)" onclick="changeMe(evt)" points="150.002,129.904 135.001,103.923 105.001,103.924 90.0023,129.905 105.002,155.885 135.003,155.885" seed="10"/><polygon fill="rgb(147, 112, 219)" stroke="black" stroke-width="1" onmouseover="setChange(evt)" onmouseout="unhiliteChange(evt)" onclick="changeMe(evt)" points="75.0003,103.924 60.0003,77.9429 45.0003,103.924" seed="11"/><polygon fill="rgb(147, 112, 219)" stroke="black" stroke-width="1" onmouseover="setChange(evt)" onmouseout="unhiliteChange(evt)" onclick="changeMe(evt)" points="90.0003,77.9429 60.0003,77.9429 75.0003,103.924" seed="12"/><polygon fill="rgb(147, 112, 219)" stroke="black" stroke-width="1" onmouseover="setChange(evt)" onmouseout="unhiliteChange(evt)" onclick="changeMe(evt)" points="105.001,103.924 90.0013,77.9429 75.0013,103.923" seed="13"/><polygon fill="rgb(147, 112, 219)" stroke="black" stroke-width="1" onmouseover="setChange(evt)" onmouseout="unhiliteChange(evt)" onclick="changeMe(evt)" points="90.0023,129.905 105.001,103.924 75.0013,103.924" seed="14"/><polygon fill="rgb(147, 112, 219)" stroke="black" stroke-width="1" onmouseover="setChange(evt)" onmouseout="unhiliteChange(evt)" onclick="changeMe(evt)" points="90.0003,129.905 75.0003,103.925 60.0003,129.905" seed="15"/><polygon fill="rgb(147, 112, 219)" stroke="black" stroke-width="1" onmouseover="setChange(evt)" onmouseout="unhiliteChange(evt)" onclick="changeMe(evt)" points="75.0003,103.925 45.0003,103.924 60.0003,129.905" seed="16"/></g></svg>
