<?xml version="1.0" encoding="utf-8"?>
<svg xmlns="http://www.w3.org/2000/svg" id="mainSVG" pointer-events="all" width="150.001" height="207.846" EdgeLen="30" template="u4_14_tu" code="A6_0_8_0" copyright="Francis Hemsher, 2012">
	<polygon id="BorderPoly" fill="none" pointer-events="none" stroke="red" stroke-width="4" transform="" points="15.0005,-0.00025177 0,25.9808 15,51.9617 0,77.9418 15.0005,103.923 0.000495911,129.904 15.0005,155.885 45.0005,155.885 60.0005,181.866 90.0005,181.866 105.001,207.847 135.001,207.847 150.001,181.866 135.001,155.885 149.999,129.907 134.999,103.925 150.001,77.9447 135.001,51.9628 105.001,51.9628 90.0005,25.9818 60.0005,25.9808 45.0005,-0.00025177"/>
	<g id="mainPolyG" transform=""><polygon id="mainPoly" fill="rgb(252, 194, 0)" stroke="black" onmouseover="setChange(evt)" onmouseout="unhiliteChange(evt)" onclick="changeMe(evt)" points="135.001,155.885 105.001,155.885 90.0005,181.866 105.001,207.847 135.001,207.847 150.001,181.866" seed="0"/><polygon fill="rgb(41, 171, 135)" stroke="black" stroke-width="1" onmouseover="setChange(evt)" onmouseout="unhiliteChange(evt)" onclick="changeMe(evt)" points="90.0005,129.904 60.0005,129.904 45.0005,155.885 60.0005,181.866 90.0005,181.866 105.001,155.885" seed="1"/><polygon fill="rgb(41, 171, 135)" stroke="black" stroke-width="1" onmouseover="setChange(evt)" onmouseout="unhiliteChange(evt)" onclick="changeMe(evt)" points="45.0005,103.923 15.0005,103.923 0.000495911,129.904 15.0005,155.885 45.0005,155.885 60.0005,129.904" seed="2"/><polygon fill="rgb(41, 171, 135)" stroke="black" stroke-width="1" onmouseover="setChange(evt)" onmouseout="unhiliteChange(evt)" onclick="changeMe(evt)" points="45.0005,51.9617 15,51.9617 0,77.9418 15.0005,103.923 45.0005,103.923 60.0005,77.9418" seed="3"/><polygon fill="rgb(41, 171, 135)" stroke="black" stroke-width="1" onmouseover="setChange(evt)" onmouseout="unhiliteChange(evt)" onclick="changeMe(evt)" points="45.0005,-0.00025177 15.0005,-0.00025177 0,25.9808 15,51.9617 45.0005,51.9617 60.0005,25.9808" seed="4"/><polygon fill="rgb(41, 171, 135)" stroke="black" stroke-width="1" onmouseover="setChange(evt)" onmouseout="unhiliteChange(evt)" onclick="changeMe(evt)" points="90.0005,25.9818 60.0005,25.9808 45.0005,51.9617 59.9995,77.9427 90.0005,77.9427 105.001,51.9628" seed="5"/><polygon fill="rgb(41, 171, 135)" stroke="black" stroke-width="1" onmouseover="setChange(evt)" onmouseout="unhiliteChange(evt)" onclick="changeMe(evt)" points="135.001,51.9628 105.001,51.9628 90.0005,77.9427 104.999,103.924 134.999,103.925 150.001,77.9447" seed="6"/><polygon fill="rgb(41, 171, 135)" stroke="black" stroke-width="1" onmouseover="setChange(evt)" onmouseout="unhiliteChange(evt)" onclick="changeMe(evt)" points="134.999,103.925 104.999,103.924 89.9995,129.905 104.998,155.886 134.998,155.887 149.999,129.907" seed="7"/><polygon fill="rgb(147, 112, 219)" stroke="black" stroke-width="1" onmouseover="setChange(evt)" onmouseout="unhiliteChange(evt)" onclick="changeMe(evt)" points="75.0005,103.923 60.0005,77.9418 45.0005,103.923" seed="8"/><polygon fill="rgb(147, 112, 219)" stroke="black" stroke-width="1" onmouseover="setChange(evt)" onmouseout="unhiliteChange(evt)" onclick="changeMe(evt)" points="90.0005,77.9427 60.0005,77.9427 74.9995,103.924" seed="9"/><polygon fill="rgb(147, 112, 219)" stroke="black" stroke-width="1" onmouseover="setChange(evt)" onmouseout="unhiliteChange(evt)" onclick="changeMe(evt)" points="75.0005,103.923 45.0005,103.923 60.0005,129.904" seed="10"/><polygon fill="rgb(147, 112, 219)" stroke="black" stroke-width="1" onmouseover="setChange(evt)" onmouseout="unhiliteChange(evt)" onclick="changeMe(evt)" points="90.0005,129.904 75.0005,103.923 60.0005,129.904" seed="11"/><polygon fill="rgb(147, 112, 219)" stroke="black" stroke-width="1" onmouseover="setChange(evt)" onmouseout="unhiliteChange(evt)" onclick="changeMe(evt)" points="105.001,103.923 75.0005,103.923 90.0005,129.904" seed="12"/><polygon fill="rgb(147, 112, 219)" stroke="black" stroke-width="1" onmouseover="setChange(evt)" onmouseout="unhiliteChange(evt)" onclick="changeMe(evt)" points="105.001,103.923 90.0005,77.9427 75.0005,103.923" seed="13"/></g>
</svg>
