<?xml version="1.0" encoding="utf-8"?>
<svg xmlns="http://www.w3.org/2000/svg" id="mainSVG" pointer-events="all" width="286.868" height="298.924" EdgeLen="30" template="u4_28_tu" code="A6_15_7_2" copyright="Francis Hemsher, 2012">
	<polygon id="BorderPoly" fill="none" pointer-events="none" stroke="red" stroke-width="4" transform="" points="92.9467,1.52588e-005 66.9657,15 51.9657,40.98 51.9648,70.98 25.9837,85.98 40.9828,111.961 40.9828,141.96 25.9818,167.942 0.000747681,182.941 -0.000244141,212.941 25.9818,227.942 40.9818,253.923 40.9798,283.923 66.9608,298.923 92.9427,283.923 122.943,283.923 148.924,298.924 174.905,283.924 174.905,253.923 189.905,227.942 215.886,212.944 245.887,212.943 245.888,182.943 271.868,167.943 286.868,141.962 286.869,111.962 271.869,85.982 245.888,70.982 215.888,70.981 189.907,85.981 163.927,70.982 163.927,40.982 148.927,15.001 122.947,1.52588e-005"/>
	<g id="mainPolyG" transform=""><polygon id="mainPoly" fill="rgb(252, 194, 0)" stroke="black" onmouseover="setChange(evt)" onmouseout="unhiliteChange(evt)" onclick="changeMe(evt)" points="245.888,70.982 215.888,70.981 189.907,85.981 174.907,111.962 174.907,141.962 189.907,167.943 215.888,182.943 245.888,182.943 271.868,167.943 286.868,141.962 286.869,111.962 271.869,85.982" seed="0"/><polygon fill="rgb(224, 176, 255)" stroke="black" stroke-width="1" onmouseover="setChange(evt)" onmouseout="unhiliteChange(evt)" onclick="changeMe(evt)" points="189.907,85.981 163.927,70.982 148.926,96.962 174.908,111.962" seed="1"/><polygon fill="rgb(219, 112, 147)" stroke="black" stroke-width="1" onmouseover="setChange(evt)" onmouseout="unhiliteChange(evt)" onclick="changeMe(evt)" points="122.947,1.52588e-005 92.9467,1.52588e-005 66.9657,15 51.9657,40.98 51.9648,70.98 66.9648,96.961 92.9447,111.962 122.945,111.962 148.926,96.962 163.927,70.982 163.927,40.982 148.927,15.001" seed="2"/><polygon fill="rgb(224, 176, 255)" stroke="black" stroke-width="1" onmouseover="setChange(evt)" onmouseout="unhiliteChange(evt)" onclick="changeMe(evt)" points="66.9637,96.96 51.9648,70.98 25.9837,85.98 40.9828,111.961" seed="3"/><polygon fill="rgb(224, 176, 255)" stroke="black" stroke-width="1" onmouseover="setChange(evt)" onmouseout="unhiliteChange(evt)" onclick="changeMe(evt)" points="122.945,111.962 92.9447,111.962 92.9447,141.961 122.945,141.962" seed="4"/><polygon fill="rgb(41, 171, 135)" stroke="black" stroke-width="1" onmouseover="setChange(evt)" onmouseout="unhiliteChange(evt)" onclick="changeMe(evt)" points="92.9458,111.962 66.9648,96.961 40.9837,111.96 40.9828,141.96 66.9628,156.961 92.9438,141.962" seed="5"/><polygon fill="rgb(41, 171, 135)" stroke="black" stroke-width="1" onmouseover="setChange(evt)" onmouseout="unhiliteChange(evt)" onclick="changeMe(evt)" points="174.907,111.962 148.926,96.962 122.945,111.962 122.945,141.962 148.926,156.963 174.907,141.963" seed="6"/><polygon fill="rgb(224, 176, 255)" stroke="black" stroke-width="1" onmouseover="setChange(evt)" onmouseout="unhiliteChange(evt)" onclick="changeMe(evt)" points="122.945,141.962 92.9447,141.961 92.9438,171.961 122.944,171.962" seed="7"/><polygon fill="rgb(41, 171, 135)" stroke="black" stroke-width="1" onmouseover="setChange(evt)" onmouseout="unhiliteChange(evt)" onclick="changeMe(evt)" points="122.944,171.962 92.9438,171.961 77.9427,197.942 92.9427,223.923 122.943,223.924 137.943,197.943" seed="8"/><polygon fill="rgb(224, 176, 255)" stroke="black" stroke-width="1" onmouseover="setChange(evt)" onmouseout="unhiliteChange(evt)" onclick="changeMe(evt)" points="92.9427,171.961 66.9628,156.961 51.9628,182.942 77.9427,197.942" seed="9"/><polygon fill="rgb(224, 176, 255)" stroke="black" stroke-width="1" onmouseover="setChange(evt)" onmouseout="unhiliteChange(evt)" onclick="changeMe(evt)" points="66.9628,156.961 40.9818,141.961 25.9818,167.942 51.9628,182.942" seed="10"/><polygon fill="rgb(224, 176, 255)" stroke="black" stroke-width="1" onmouseover="setChange(evt)" onmouseout="unhiliteChange(evt)" onclick="changeMe(evt)" points="163.924,182.943 148.925,156.962 122.944,171.962 137.943,197.943" seed="11"/><polygon fill="rgb(224, 176, 255)" stroke="black" stroke-width="1" onmouseover="setChange(evt)" onmouseout="unhiliteChange(evt)" onclick="changeMe(evt)" points="189.905,167.944 174.906,141.963 148.925,156.962 163.924,182.943" seed="12"/><polygon fill="rgb(224, 176, 255)" stroke="black" stroke-width="1" onmouseover="setChange(evt)" onmouseout="unhiliteChange(evt)" onclick="changeMe(evt)" points="163.924,212.943 137.943,197.943 122.943,223.923 148.924,238.924" seed="13"/><polygon fill="rgb(224, 176, 255)" stroke="black" stroke-width="1" onmouseover="setChange(evt)" onmouseout="unhiliteChange(evt)" onclick="changeMe(evt)" points="189.905,227.942 163.924,212.943 148.924,238.924 174.905,253.923" seed="14"/><polygon fill="rgb(224, 176, 255)" stroke="black" stroke-width="1" onmouseover="setChange(evt)" onmouseout="unhiliteChange(evt)" onclick="changeMe(evt)" points="122.943,223.924 92.9438,223.923 92.9427,253.923 122.943,253.923" seed="15"/><polygon fill="rgb(224, 176, 255)" stroke="black" stroke-width="1" onmouseover="setChange(evt)" onmouseout="unhiliteChange(evt)" onclick="changeMe(evt)" points="122.942,253.923 92.9427,253.923 92.9427,283.923 122.943,283.923" seed="16"/><polygon fill="rgb(224, 176, 255)" stroke="black" stroke-width="1" onmouseover="setChange(evt)" onmouseout="unhiliteChange(evt)" onclick="changeMe(evt)" points="92.9427,223.923 77.9438,197.943 51.9617,212.942 66.9617,238.923" seed="17"/><polygon fill="rgb(224, 176, 255)" stroke="black" stroke-width="1" onmouseover="setChange(evt)" onmouseout="unhiliteChange(evt)" onclick="changeMe(evt)" points="66.9617,238.923 51.9617,212.942 25.9818,227.942 40.9818,253.923" seed="18"/><polygon fill="rgb(147, 112, 219)" stroke="black" stroke-width="1" onmouseover="setChange(evt)" onmouseout="unhiliteChange(evt)" onclick="changeMe(evt)" points="92.9427,171.962 92.9438,141.962 66.9628,156.961" seed="19"/><polygon fill="rgb(147, 112, 219)" stroke="black" stroke-width="1" onmouseover="setChange(evt)" onmouseout="unhiliteChange(evt)" onclick="changeMe(evt)" points="148.925,156.962 122.945,141.962 122.944,171.962" seed="20"/><polygon fill="rgb(147, 112, 219)" stroke="black" stroke-width="1" onmouseover="setChange(evt)" onmouseout="unhiliteChange(evt)" onclick="changeMe(evt)" points="77.9427,197.942 51.9628,182.942 51.9617,212.942" seed="21"/><polygon fill="rgb(147, 112, 219)" stroke="black" stroke-width="1" onmouseover="setChange(evt)" onmouseout="unhiliteChange(evt)" onclick="changeMe(evt)" points="163.924,212.943 163.924,182.943 137.943,197.943" seed="22"/><polygon fill="rgb(147, 112, 219)" stroke="black" stroke-width="1" onmouseover="setChange(evt)" onmouseout="unhiliteChange(evt)" onclick="changeMe(evt)" points="148.924,238.923 122.943,223.923 122.943,253.923" seed="23"/><polygon fill="rgb(147, 112, 219)" stroke="black" stroke-width="1" onmouseover="setChange(evt)" onmouseout="unhiliteChange(evt)" onclick="changeMe(evt)" points="92.9427,253.923 92.9427,223.923 66.9617,238.923" seed="24"/><polygon fill="rgb(41, 171, 135)" stroke="black" stroke-width="1" onmouseover="setChange(evt)" onmouseout="unhiliteChange(evt)" onclick="changeMe(evt)" points="51.9628,182.942 25.9818,167.942 0.000747681,182.941 -0.000244141,212.941 25.9807,227.942 51.9617,212.942" seed="25"/><polygon fill="rgb(41, 171, 135)" stroke="black" stroke-width="1" onmouseover="setChange(evt)" onmouseout="unhiliteChange(evt)" onclick="changeMe(evt)" points="92.9427,253.923 66.9617,238.923 40.9807,253.922 40.9798,283.923 66.9608,298.923 92.9418,283.923" seed="26"/><polygon fill="rgb(41, 171, 135)" stroke="black" stroke-width="1" onmouseover="setChange(evt)" onmouseout="unhiliteChange(evt)" onclick="changeMe(evt)" points="174.905,253.923 148.924,238.923 122.943,253.923 122.943,283.924 148.924,298.924 174.905,283.924" seed="27"/><polygon fill="rgb(41, 171, 135)" stroke="black" stroke-width="1" onmouseover="setChange(evt)" onmouseout="unhiliteChange(evt)" onclick="changeMe(evt)" points="215.886,182.944 189.905,167.944 163.924,182.943 163.924,212.943 189.905,227.944 215.886,212.944" seed="28"/><polygon fill="rgb(224, 176, 255)" stroke="black" stroke-width="1" onmouseover="setChange(evt)" onmouseout="unhiliteChange(evt)" onclick="changeMe(evt)" points="245.887,182.943 215.888,182.943 215.887,212.942 245.887,212.943" seed="29"/></g>
</svg>
