<?xml version="1.0" encoding="utf-8"?>
<svg xmlns="http://www.w3.org/2000/svg" id="mainSVG" pointer-events="all" width="152.943" height="152.943" EdgeLen="30" template="u3_9_tu" code="A6_2_0_1" copyright="Francis Hemsher, 2012">
	<polygon id="BorderPoly" fill="none" pointer-events="none" stroke="red" stroke-width="4" transform="" points="40.9808,25.9808 15.0005,40.9808 0.000457764,66.9618 -4.57764e-005,96.9618 15,122.942 40.9808,137.942 70.9808,137.943 96.9618,152.943 122.942,137.942 137.942,111.962 137.943,81.9618 152.943,55.9808 126.962,40.9808 96.9618,40.9808 70.9808,25.9808 55.9818,-4.57764e-005"/>
	<g id="mainPolyG" transform=""><polygon id="mainPoly" fill="rgb(252, 194, 0)" stroke="black" onmouseover="setChange(evt)" onmouseout="unhiliteChange(evt)" onclick="changeMe(evt)" points="70.9808,25.9808 40.9808,25.9808 15.0005,40.9808 0.000457764,66.9618 -4.57764e-005,96.9618 15,122.942 40.9808,137.942 70.9808,137.943 96.9618,122.943 111.962,96.9618 111.962,66.9618 96.9618,40.9808" seed="0"/><polygon fill="rgb(224, 176, 255)" stroke="black" stroke-width="1" onmouseover="setChange(evt)" onmouseout="unhiliteChange(evt)" onclick="changeMe(evt)" points="70.9808,25.9808 55.9818,-4.57764e-005 40.9808,25.9808" seed="1"/><polygon fill="rgb(224, 176, 255)" stroke="black" stroke-width="1" onmouseover="setChange(evt)" onmouseout="unhiliteChange(evt)" onclick="changeMe(evt)" points="111.962,66.9618 126.962,40.9808 96.9618,40.9808" seed="2"/><polygon fill="rgb(224, 176, 255)" stroke="black" stroke-width="1" onmouseover="setChange(evt)" onmouseout="unhiliteChange(evt)" onclick="changeMe(evt)" points="137.943,81.9618 111.962,66.9618 111.962,96.9618" seed="3"/><polygon fill="rgb(224, 176, 255)" stroke="black" stroke-width="1" onmouseover="setChange(evt)" onmouseout="unhiliteChange(evt)" onclick="changeMe(evt)" points="96.9618,152.943 96.9618,122.943 70.9808,137.943" seed="4"/><polygon fill="rgb(41, 171, 135)" stroke="black" stroke-width="1" onmouseover="setChange(evt)" onmouseout="unhiliteChange(evt)" onclick="changeMe(evt)" points="152.943,55.9808 126.962,40.9808 111.962,66.9608 137.943,81.9618" seed="5"/><polygon fill="rgb(41, 171, 135)" stroke="black" stroke-width="1" onmouseover="setChange(evt)" onmouseout="unhiliteChange(evt)" onclick="changeMe(evt)" points="137.943,111.962 111.961,96.9618 96.9618,122.943 122.942,137.942" seed="6"/><polygon fill="rgb(224, 176, 255)" stroke="black" stroke-width="1" onmouseover="setChange(evt)" onmouseout="unhiliteChange(evt)" onclick="changeMe(evt)" points="137.942,111.962 137.943,81.9618 111.962,96.9618" seed="7"/><polygon fill="rgb(224, 176, 255)" stroke="black" stroke-width="1" onmouseover="setChange(evt)" onmouseout="unhiliteChange(evt)" onclick="changeMe(evt)" points="122.942,137.942 96.9608,122.943 96.9618,152.942" seed="8"/></g>
</svg>
