<?xml version="1.0" encoding="utf-8"?>
<svg xmlns="http://www.w3.org/2000/svg" id="mainSVG" pointer-events="all" width="190.982" height="144.904" EdgeLen="30" template="u4_86_tu" code="A6_2_3_0" copyright="Francis Hemsher, 2012">
	<polygon id="BorderPoly" fill="none" pointer-events="none" stroke="red" stroke-width="4" transform="" points="105.001,15 90.0002,40.9807 60.0002,40.9807 45.0002,66.9617 15.0002,66.9617 4.57764e-005,92.9427 15.0002,118.924 30.0002,144.905 45.0002,118.924 75.0002,118.924 90.0002,92.9427 120,92.9427 135,66.9617 165,66.9617 190.981,51.9617 175.981,25.9815 160.981,4.57764e-005 135,15"/>
	<g id="mainPolyG" transform=""><polygon id="mainPoly" fill="rgb(252, 194, 0)" stroke="black" onmouseover="setChange(evt)" onmouseout="unhiliteChange(evt)" onclick="changeMe(evt)" points="45.0002,66.9617 15.0002,66.9617 4.57764e-005,92.9427 15.0002,118.924 45.0002,118.924 60.0002,92.9427" seed="0"/><polygon fill="rgb(41, 171, 135)" stroke="black" stroke-width="1" onmouseover="setChange(evt)" onmouseout="unhiliteChange(evt)" onclick="changeMe(evt)" points="90.0002,40.9807 60.0002,40.9807 45.0002,66.9617 60.0002,92.9427 90.0002,92.9427 105,66.9617" seed="1"/><polygon fill="rgb(41, 171, 135)" stroke="black" stroke-width="1" onmouseover="setChange(evt)" onmouseout="unhiliteChange(evt)" onclick="changeMe(evt)" points="135,15 105.001,15 90.0002,40.9807 105,66.9617 135,66.9617 150,40.9807" seed="2"/><polygon fill="rgb(147, 112, 219)" stroke="black" stroke-width="1" onmouseover="setChange(evt)" onmouseout="unhiliteChange(evt)" onclick="changeMe(evt)" points="45.0002,118.924 15.0002,118.924 30.0002,144.905" seed="3"/><polygon fill="rgb(147, 112, 219)" stroke="black" stroke-width="1" onmouseover="setChange(evt)" onmouseout="unhiliteChange(evt)" onclick="changeMe(evt)" points="75.0002,118.924 60.0002,92.9427 45.0002,118.924" seed="4"/><polygon fill="rgb(147, 112, 219)" stroke="black" stroke-width="1" onmouseover="setChange(evt)" onmouseout="unhiliteChange(evt)" onclick="changeMe(evt)" points="90.0002,92.9427 60.0002,92.9427 75.0002,118.924" seed="5"/><polygon fill="rgb(147, 112, 219)" stroke="black" stroke-width="1" onmouseover="setChange(evt)" onmouseout="unhiliteChange(evt)" onclick="changeMe(evt)" points="120,92.9427 105,66.9617 90.0002,92.9427" seed="6"/><polygon fill="rgb(147, 112, 219)" stroke="black" stroke-width="1" onmouseover="setChange(evt)" onmouseout="unhiliteChange(evt)" onclick="changeMe(evt)" points="135,66.9617 105,66.9617 120,92.9427" seed="7"/><polygon fill="rgb(147, 112, 219)" stroke="black" stroke-width="1" onmouseover="setChange(evt)" onmouseout="unhiliteChange(evt)" onclick="changeMe(evt)" points="165,66.9617 150,40.9807 135,66.9617" seed="8"/><polygon fill="rgb(224, 176, 255)" stroke="black" stroke-width="1" onmouseover="setChange(evt)" onmouseout="unhiliteChange(evt)" onclick="changeMe(evt)" points="175.981,25.9815 160.981,4.57764e-005 135.001,15 150,40.9807" seed="9"/><polygon fill="rgb(224, 176, 255)" stroke="black" stroke-width="1" onmouseover="setChange(evt)" onmouseout="unhiliteChange(evt)" onclick="changeMe(evt)" points="190.981,51.9617 175.981,25.981 150,40.9807 165,66.9617" seed="10"/></g>
</svg>
