<?xml version="1.0" encoding="utf-8"?>
<svg xmlns="http://www.w3.org/2000/svg" id="mainSVG" pointer-events="all" width="105.002" height="211.866" EdgeLen="30" template="u5_16_tu" code="A6_3_5_0" copyright="Francis Hemsher, 2012">
	<polygon id="BorderPoly" fill="none" pointer-events="none" stroke="red" stroke-width="4" transform="" points="59.9993,0.000747681 45,25.9817 14.9995,25.9817 -4.57764e-005,51.9627 15.002,77.9437 0.00155258,103.924 0.00105286,133.924 15.001,159.905 0.00105286,185.886 15.001,211.867 45.001,211.867 60.0013,185.886 90.0013,185.886 105.001,159.905 90.0003,133.924 90.0013,103.924 105,77.9428 90.0003,51.9618 105,25.9808 89.9993,-0.00025177"/>
	<g id="mainPolyG" transform=""><polygon id="mainPoly" fill="rgb(252, 194, 0)" stroke="black" onmouseover="setChange(evt)" onmouseout="unhiliteChange(evt)" onclick="changeMe(evt)" points="45.001,159.905 15.001,159.905 0.00105286,185.886 15.001,211.867 45.001,211.867 60.0013,185.886" seed="0"/><polygon fill="rgb(41, 171, 135)" stroke="black" stroke-width="1" onmouseover="setChange(evt)" onmouseout="unhiliteChange(evt)" onclick="changeMe(evt)" points="90.0013,133.924 60.0013,133.924 45.001,159.905 60.0013,185.886 90.0013,185.886 105.001,159.905" seed="1"/><polygon fill="rgb(224, 176, 255)" stroke="black" stroke-width="1" onmouseover="setChange(evt)" onmouseout="unhiliteChange(evt)" onclick="changeMe(evt)" points="90.0003,133.924 90.0013,103.924 60.0013,103.925 60.0013,133.924" seed="2"/><polygon fill="rgb(224, 176, 255)" stroke="black" stroke-width="1" onmouseover="setChange(evt)" onmouseout="unhiliteChange(evt)" onclick="changeMe(evt)" points="60.0013,103.925 30.0014,103.925 30.001,133.925 60.0013,133.924" seed="3"/><polygon fill="rgb(224, 176, 255)" stroke="black" stroke-width="1" onmouseover="setChange(evt)" onmouseout="unhiliteChange(evt)" onclick="changeMe(evt)" points="30.0014,103.925 0.00155258,103.924 0.00155258,133.924 30.001,133.925" seed="4"/><polygon fill="rgb(41, 171, 135)" stroke="black" stroke-width="1" onmouseover="setChange(evt)" onmouseout="unhiliteChange(evt)" onclick="changeMe(evt)" points="105,77.9428 90.0003,51.9618 60.0003,51.9627 45.0005,77.9437 60.0013,103.925 90.0013,103.924" seed="5"/><polygon fill="rgb(41, 171, 135)" stroke="black" stroke-width="1" onmouseover="setChange(evt)" onmouseout="unhiliteChange(evt)" onclick="changeMe(evt)" points="105,25.9808 89.9993,-0.00025177 59.9993,0.000747681 45,25.9817 60.0003,51.9627 90.0003,51.9618" seed="6"/><polygon fill="rgb(41, 171, 135)" stroke="black" stroke-width="1" onmouseover="setChange(evt)" onmouseout="unhiliteChange(evt)" onclick="changeMe(evt)" points="60.0003,51.9627 45,25.9817 14.9995,25.9817 -4.57764e-005,51.9627 15.0005,77.9437 45,77.9428" seed="7"/><polygon fill="rgb(147, 112, 219)" stroke="black" stroke-width="1" onmouseover="setChange(evt)" onmouseout="unhiliteChange(evt)" onclick="changeMe(evt)" points="45.001,159.905 30.001,133.924 15.001,159.905" seed="8"/><polygon fill="rgb(147, 112, 219)" stroke="black" stroke-width="1" onmouseover="setChange(evt)" onmouseout="unhiliteChange(evt)" onclick="changeMe(evt)" points="60.0013,133.924 30.001,133.924 45.001,159.904" seed="9"/><polygon fill="rgb(147, 112, 219)" stroke="black" stroke-width="1" onmouseover="setChange(evt)" onmouseout="unhiliteChange(evt)" onclick="changeMe(evt)" points="30.0005,133.924 0.00105286,133.924 15.001,159.905" seed="10"/><polygon fill="rgb(147, 112, 219)" stroke="black" stroke-width="1" onmouseover="setChange(evt)" onmouseout="unhiliteChange(evt)" onclick="changeMe(evt)" points="30.0014,103.925 15.002,77.9437 0.00155258,103.924" seed="11"/><polygon fill="rgb(147, 112, 219)" stroke="black" stroke-width="1" onmouseover="setChange(evt)" onmouseout="unhiliteChange(evt)" onclick="changeMe(evt)" points="45.002,77.9448 15.002,77.9437 30.0014,103.925" seed="12"/><polygon fill="rgb(147, 112, 219)" stroke="black" stroke-width="1" onmouseover="setChange(evt)" onmouseout="unhiliteChange(evt)" onclick="changeMe(evt)" points="60.0013,103.926 45.002,77.9448 30.0014,103.925" seed="13"/></g>
</svg>
