<?xml version="1.0" encoding="utf-8"?>
<svg xmlns="http://www.w3.org/2000/svg" id="mainSVG" pointer-events="all" height="180" width="250" EdgeLen="30" template="u3_6_tu" code="A6_3_1_1" copyright="Francis Hemsher, 2012">
	<polygon id="BorderPoly" fill="none" pointer-events="none" stroke="red" stroke-width="4" transform="" points="122.943,4.57764e-005 96.9615,15 70.9815,0.000549316 55.9805,25.9812 55.9805,25.9812 29.9995,40.9812 0.00050354,40.9812 7.62939e-006,70.9813 29.9995,70.9813 29.9995,70.9813 55.9805,85.9813 55.9805,85.9813 70.9805,111.962 70.9795,141.961 96.9615,156.961 122.943,141.961 122.943,111.961 152.943,111.962 178.923,96.9622 193.923,70.9813 193.923,40.9812 178.923,15.0005 152.943,0.000549316"/><g id="mainPolyG" transform=""><polygon id="mainPoly" fill="rgb(227, 38, 54)" stroke="none" stroke-width="1" onmouseover="setChange(evt)" onmouseout="unhiliteChange(evt)" onclick="changeMe(evt)" points="152.943,0.000549316 122.943,4.57764e-005 96.9615,15 81.9615,40.9812 81.9605,70.9813 96.9605,96.9613 122.943,111.961 152.943,111.962 178.923,96.9622 193.923,70.9813 193.923,40.9812 178.923,15.0005" seed="0"/><polygon fill="rgb(224, 176, 255)" stroke="black" stroke-width="1" onmouseover="setChange(evt)" onmouseout="unhiliteChange(evt)" onclick="changeMe(evt)" points="96.9615,15 70.9815,0.000549316 55.9805,25.9812 81.9615,40.9812" seed="1"/><polygon fill="rgb(224, 176, 255)" stroke="black" stroke-width="1" onmouseover="setChange(evt)" onmouseout="unhiliteChange(evt)" onclick="changeMe(evt)" points="96.9605,96.9613 81.9605,70.9813 55.9805,85.9813 70.9805,111.962" seed="2"/><polygon fill="rgb(147, 112, 219)" stroke="black" stroke-width="1" onmouseover="setChange(evt)" onmouseout="unhiliteChange(evt)" onclick="changeMe(evt)" points="81.9605,70.9813 81.9615,40.9812 55.9805,55.9802" seed="3"/><polygon fill="rgb(147, 112, 219)" stroke="black" stroke-width="1" onmouseover="setChange(evt)" onmouseout="unhiliteChange(evt)" onclick="changeMe(evt)" points="81.9615,40.9812 55.9805,25.9812 55.9805,55.9813" seed="4"/><polygon fill="rgb(147, 112, 219)" stroke="black" stroke-width="1" onmouseover="setChange(evt)" onmouseout="unhiliteChange(evt)" onclick="changeMe(evt)" points="55.9805,55.9813 55.9805,25.9812 29.9995,40.9812" seed="5"/><polygon fill="rgb(147, 112, 219)" stroke="black" stroke-width="1" onmouseover="setChange(evt)" onmouseout="unhiliteChange(evt)" onclick="changeMe(evt)" points="55.9805,55.9813 29.9995,40.9812 29.9995,70.9813" seed="6"/><polygon fill="rgb(147, 112, 219)" stroke="black" stroke-width="1" onmouseover="setChange(evt)" onmouseout="unhiliteChange(evt)" onclick="changeMe(evt)" points="55.9805,85.9813 55.9805,55.9813 29.9995,70.9813" seed="7"/><polygon fill="rgb(147, 112, 219)" stroke="black" stroke-width="1" onmouseover="setChange(evt)" onmouseout="unhiliteChange(evt)" onclick="changeMe(evt)" points="81.9605,70.9813 55.9805,55.9813 55.9805,85.9813" seed="8"/><polygon fill="rgb(224, 176, 255)" stroke="black" stroke-width="1" onmouseover="setChange(evt)" onmouseout="unhiliteChange(evt)" onclick="changeMe(evt)" points="29.9995,40.9812 0.00050354,40.9812 7.62939e-006,70.9813 29.9995,70.9813" seed="9"/><polygon fill="rgb(48, 213, 200)" stroke="black" stroke-width="1" onmouseover="setChange(evt)" onmouseout="unhiliteChange(evt)" onclick="changeMe(evt)" points="122.943,111.961 96.9605,96.9613 70.9805,111.961 70.9795,141.961 96.9615,156.961 122.943,141.961" seed="10"/></g></svg>
