<?xml version="1.0" encoding="utf-8"?>
<svg xmlns="http://www.w3.org/2000/svg" id="mainSVG" pointer-events="all" width="105.002" height="185.885" EdgeLen="30" template="u4_3_tu" code="A6_3_4_0" copyright="Francis Hemsher, 2012">
	<polygon id="BorderPoly" fill="none" pointer-events="none" stroke="red" stroke-width="4" transform="" points="15,25.9812 4.95911e-005,51.9632 15.0005,77.9432 15.0005,107.943 0.000450134,133.924 15.001,159.905 45.001,159.904 60.0012,185.885 90.0013,185.885 105.001,159.904 90.0013,133.923 104.999,107.944 105.001,77.9412 90.0003,51.9612 105,25.9802 90.0003,2.28882e-005 60.0002,0.00012207 45,25.9812"/>
	<g id="mainPolyG" transform=""><polygon id="mainPoly" fill="rgb(252, 194, 0)" stroke="black" onmouseover="setChange(evt)" onmouseout="unhiliteChange(evt)" onclick="changeMe(evt)" points="90.0013,133.923 60.0012,133.923 45.001,159.904 60.0012,185.885 90.0013,185.885 105.001,159.904" seed="0"/><polygon fill="rgb(41, 171, 135)" stroke="black" stroke-width="1" onmouseover="setChange(evt)" onmouseout="unhiliteChange(evt)" onclick="changeMe(evt)" points="45.001,107.943 15.0005,107.943 0.000450134,133.924 15.001,159.905 45.001,159.904 60.0012,133.923" seed="1"/><polygon fill="rgb(224, 176, 255)" stroke="black" stroke-width="1" onmouseover="setChange(evt)" onmouseout="unhiliteChange(evt)" onclick="changeMe(evt)" points="45,107.943 45.0005,77.9432 15.0005,77.9432 15.0005,107.943" seed="2"/><polygon fill="rgb(41, 171, 135)" stroke="black" stroke-width="1" onmouseover="setChange(evt)" onmouseout="unhiliteChange(evt)" onclick="changeMe(evt)" points="60.0002,51.9612 45,25.9812 15,25.9812 4.95911e-005,51.9632 15.0005,77.9432 45.0005,77.9432" seed="3"/><polygon fill="rgb(41, 171, 135)" stroke="black" stroke-width="1" onmouseover="setChange(evt)" onmouseout="unhiliteChange(evt)" onclick="changeMe(evt)" points="105,25.9802 90.0003,2.28882e-005 60.0002,0.00012207 45,25.9812 60.0002,51.9612 90.0003,51.9612" seed="4"/><polygon fill="rgb(224, 176, 255)" stroke="black" stroke-width="1" onmouseover="setChange(evt)" onmouseout="unhiliteChange(evt)" onclick="changeMe(evt)" points="75.0002,77.9432 45.0005,77.9432 45,107.943 74.9993,107.943" seed="5"/><polygon fill="rgb(224, 176, 255)" stroke="black" stroke-width="1" onmouseover="setChange(evt)" onmouseout="unhiliteChange(evt)" onclick="changeMe(evt)" points="105,77.9442 75.0002,77.9432 74.9993,107.943 104.999,107.944" seed="6"/><polygon fill="rgb(147, 112, 219)" stroke="black" stroke-width="1" onmouseover="setChange(evt)" onmouseout="unhiliteChange(evt)" onclick="changeMe(evt)" points="75.0013,77.9422 60.0002,51.9612 45.0005,77.9422" seed="7"/><polygon fill="rgb(147, 112, 219)" stroke="black" stroke-width="1" onmouseover="setChange(evt)" onmouseout="unhiliteChange(evt)" onclick="changeMe(evt)" points="75.0013,77.9422 90.0003,51.9602 60.0002,51.9612" seed="8"/><polygon fill="rgb(147, 112, 219)" stroke="black" stroke-width="1" onmouseover="setChange(evt)" onmouseout="unhiliteChange(evt)" onclick="changeMe(evt)" points="105.001,77.9412 90.0003,51.9602 75.0013,77.9422" seed="9"/><polygon fill="rgb(147, 112, 219)" stroke="black" stroke-width="1" onmouseover="setChange(evt)" onmouseout="unhiliteChange(evt)" onclick="changeMe(evt)" points="75.0013,107.943 45.001,107.943 60.0012,133.923" seed="10"/><polygon fill="rgb(147, 112, 219)" stroke="black" stroke-width="1" onmouseover="setChange(evt)" onmouseout="unhiliteChange(evt)" onclick="changeMe(evt)" points="90.0003,133.923 75.0013,107.943 60.0012,133.923" seed="11"/><polygon fill="rgb(147, 112, 219)" stroke="black" stroke-width="1" onmouseover="setChange(evt)" onmouseout="unhiliteChange(evt)" onclick="changeMe(evt)" points="104.999,107.944 74.9993,107.943 89.9982,133.924" seed="12"/></g>
</svg>
