<?xml version="1.0" encoding="utf-8"?>
<svg xmlns="http://www.w3.org/2000/svg" id="mainSVG" pointer-events="all" width="105.001" height="263.828" EdgeLen="30" template="u6_37_tu" code="A6_3_7_0" copyright="Francis Hemsher, 2012">
	<polygon id="BorderPoly" fill="none" pointer-events="none" stroke="red" stroke-width="4" transform="" points="90.0005,-0.000244141 60.0005,0.000747681 45.0005,25.9818 15,25.9808 15.0005,55.9808 -3.8147e-006,81.9618 15,107.943 -3.8147e-006,133.924 15,159.905 -3.8147e-006,185.886 15,211.867 -3.8147e-006,237.848 15,263.829 45,263.829 60.0005,237.848 90.0005,237.847 105.001,211.867 90.0005,185.886 105.001,159.905 90.0005,133.924 105.001,107.943 90.0005,81.9618 105.001,55.9818 105.001,25.9818"/>
	<g id="mainPolyG" transform=""><polygon id="mainPoly" fill="rgb(252, 194, 0)" stroke="black" onmouseover="setChange(evt)" onmouseout="unhiliteChange(evt)" onclick="changeMe(evt)" points="45,55.9808 15,55.9808 -3.8147e-006,81.9618 15,107.943 45,107.943 60.0005,81.9618" seed="0"/><polygon fill="rgb(41, 171, 135)" stroke="black" stroke-width="1" onmouseover="setChange(evt)" onmouseout="unhiliteChange(evt)" onclick="changeMe(evt)" points="45,107.943 15,107.943 -3.8147e-006,133.924 15,159.905 45,159.905 60.0005,133.924" seed="1"/><polygon fill="rgb(41, 171, 135)" stroke="black" stroke-width="1" onmouseover="setChange(evt)" onmouseout="unhiliteChange(evt)" onclick="changeMe(evt)" points="45,159.905 15,159.905 -3.8147e-006,185.886 15,211.867 45,211.867 60.0005,185.886" seed="2"/><polygon fill="rgb(41, 171, 135)" stroke="black" stroke-width="1" onmouseover="setChange(evt)" onmouseout="unhiliteChange(evt)" onclick="changeMe(evt)" points="45,211.867 15,211.867 -3.8147e-006,237.848 15,263.829 45,263.829 60.0005,237.848" seed="3"/><polygon fill="rgb(41, 171, 135)" stroke="black" stroke-width="1" onmouseover="setChange(evt)" onmouseout="unhiliteChange(evt)" onclick="changeMe(evt)" points="90.0005,81.9618 60.0005,81.9618 45,107.943 60.0005,133.923 90.0005,133.923 105.001,107.943" seed="4"/><polygon fill="rgb(41, 171, 135)" stroke="black" stroke-width="1" onmouseover="setChange(evt)" onmouseout="unhiliteChange(evt)" onclick="changeMe(evt)" points="90.0005,133.924 60.0005,133.924 45,159.905 60.0005,185.885 90.0005,185.885 105.001,159.905" seed="5"/><polygon fill="rgb(41, 171, 135)" stroke="black" stroke-width="1" onmouseover="setChange(evt)" onmouseout="unhiliteChange(evt)" onclick="changeMe(evt)" points="90.0005,185.886 60.0005,185.886 45,211.867 60.0005,237.847 90.0005,237.847 105.001,211.867" seed="6"/><polygon fill="rgb(147, 112, 219)" stroke="black" stroke-width="1" onmouseover="setChange(evt)" onmouseout="unhiliteChange(evt)" onclick="changeMe(evt)" points="75.0005,55.9808 45.0005,55.9808 60.0005,81.9618" seed="7"/><polygon fill="rgb(147, 112, 219)" stroke="black" stroke-width="1" onmouseover="setChange(evt)" onmouseout="unhiliteChange(evt)" onclick="changeMe(evt)" points="90.0005,81.9618 75.0005,55.9808 60.0005,81.9618" seed="8"/><polygon fill="rgb(147, 112, 219)" stroke="black" stroke-width="1" onmouseover="setChange(evt)" onmouseout="unhiliteChange(evt)" onclick="changeMe(evt)" points="105.001,55.9818 75.0005,55.9808 90.0005,81.9618" seed="9"/><polygon fill="rgb(224, 176, 255)" stroke="black" stroke-width="1" onmouseover="setChange(evt)" onmouseout="unhiliteChange(evt)" onclick="changeMe(evt)" points="45,25.9808 15,25.9808 15.0005,55.9808 45,55.9808" seed="10"/><polygon fill="rgb(224, 176, 255)" stroke="black" stroke-width="1" onmouseover="setChange(evt)" onmouseout="unhiliteChange(evt)" onclick="changeMe(evt)" points="75.0005,55.9808 75.0005,25.9808 45.0005,25.9818 45.0005,55.9808" seed="11"/><polygon fill="rgb(224, 176, 255)" stroke="black" stroke-width="1" onmouseover="setChange(evt)" onmouseout="unhiliteChange(evt)" onclick="changeMe(evt)" points="105.001,25.9818 75.0015,25.9818 75.0005,55.9808 105.001,55.9818" seed="12"/><polygon fill="rgb(147, 112, 219)" stroke="black" stroke-width="1" onmouseover="setChange(evt)" onmouseout="unhiliteChange(evt)" onclick="changeMe(evt)" points="75.0005,25.9808 60.0005,0.000747681 45.0005,25.9818" seed="13"/><polygon fill="rgb(147, 112, 219)" stroke="black" stroke-width="1" onmouseover="setChange(evt)" onmouseout="unhiliteChange(evt)" onclick="changeMe(evt)" points="105.001,25.9818 90.0005,0.000747681 75.0015,25.9818" seed="14"/><polygon fill="rgb(147, 112, 219)" stroke="black" stroke-width="1" onmouseover="setChange(evt)" onmouseout="unhiliteChange(evt)" onclick="changeMe(evt)" points="75.0005,25.9808 90.0005,-0.000244141 60.0005,0.000747681" seed="15"/></g>
</svg>
