<?xml version="1.0" encoding="utf-8"?>
<svg xmlns="http://www.w3.org/2000/svg" id="mainSVG" pointer-events="all" width="150.001" height="237.847" EdgeLen="30" template="u5_1_tu" code="A6_3_6_0" copyright="Francis Hemsher, 2012">
	<polygon id="BorderPoly" fill="none" pointer-events="none" stroke="red" stroke-width="4" transform="" points="90.0035,0.00050354 60.0035,0.00050354 45.0025,25.9805 15.003,25.9795 0.00250244,51.9605 15.002,77.9415 45.0015,77.9425 60.0005,103.924 60.0005,133.923 45.0005,159.905 15,159.905 7.62939e-006,185.885 15.0005,211.867 45.0005,211.866 60.0005,237.848 90.0005,237.848 105.001,211.866 90.0005,185.885 105.001,159.905 135.001,159.904 150,133.926 150.001,103.927 135.003,77.9455 105.003,77.9435 90.0025,51.9635 105.003,25.9815"/>
	<g id="mainPolyG" transform=""><polygon id="mainPoly" fill="rgb(252, 194, 0)" stroke="black" onmouseover="setChange(evt)" onmouseout="unhiliteChange(evt)" onclick="changeMe(evt)" points="90.0005,185.885 60.0005,185.885 45.0005,211.866 60.0005,237.848 90.0005,237.848 105.001,211.866" seed="0"/><polygon fill="rgb(41, 171, 135)" stroke="black" stroke-width="1" onmouseover="setChange(evt)" onmouseout="unhiliteChange(evt)" onclick="changeMe(evt)" points="45.0005,159.905 15,159.905 7.62939e-006,185.885 15.0005,211.867 45.0005,211.866 60.0005,185.885" seed="1"/><polygon fill="rgb(41, 171, 135)" stroke="black" stroke-width="1" onmouseover="setChange(evt)" onmouseout="unhiliteChange(evt)" onclick="changeMe(evt)" points="90.0005,133.924 60.0005,133.923 45.0005,159.905 60.0005,185.885 90.0005,185.885 105.001,159.905" seed="2"/><polygon fill="rgb(224, 176, 255)" stroke="black" stroke-width="1" onmouseover="setChange(evt)" onmouseout="unhiliteChange(evt)" onclick="changeMe(evt)" points="90.0005,103.925 60.0005,103.924 60.0005,133.923 90.0005,133.924" seed="3"/><polygon fill="rgb(41, 171, 135)" stroke="black" stroke-width="1" onmouseover="setChange(evt)" onmouseout="unhiliteChange(evt)" onclick="changeMe(evt)" points="90.0025,51.9635 60.0025,51.9615 45.0015,77.9425 60.0005,103.924 90.0005,103.925 105.003,77.9435" seed="4"/><polygon fill="rgb(41, 171, 135)" stroke="black" stroke-width="1" onmouseover="setChange(evt)" onmouseout="unhiliteChange(evt)" onclick="changeMe(evt)" points="45.0025,25.9805 15.003,25.9795 0.00250244,51.9605 15.002,77.9415 45.0015,77.9425 60.0025,51.9615" seed="5"/><polygon fill="rgb(224, 176, 255)" stroke="black" stroke-width="1" onmouseover="setChange(evt)" onmouseout="unhiliteChange(evt)" onclick="changeMe(evt)" points="120.001,103.925 90.0005,103.925 90.0005,133.924 120.001,133.926" seed="6"/><polygon fill="rgb(224, 176, 255)" stroke="black" stroke-width="1" onmouseover="setChange(evt)" onmouseout="unhiliteChange(evt)" onclick="changeMe(evt)" points="150,133.926 150.001,103.925 120.001,103.925 120.001,133.926" seed="7"/><polygon fill="rgb(147, 112, 219)" stroke="black" stroke-width="1" onmouseover="setChange(evt)" onmouseout="unhiliteChange(evt)" onclick="changeMe(evt)" points="120.001,103.925 105.003,77.9445 90.0005,103.925" seed="8"/><polygon fill="rgb(147, 112, 219)" stroke="black" stroke-width="1" onmouseover="setChange(evt)" onmouseout="unhiliteChange(evt)" onclick="changeMe(evt)" points="135.003,77.9455 105.003,77.9445 120.001,103.927" seed="9"/><polygon fill="rgb(147, 112, 219)" stroke="black" stroke-width="1" onmouseover="setChange(evt)" onmouseout="unhiliteChange(evt)" onclick="changeMe(evt)" points="150.001,103.927 135.003,77.9465 120.001,103.927" seed="10"/><polygon fill="rgb(147, 112, 219)" stroke="black" stroke-width="1" onmouseover="setChange(evt)" onmouseout="unhiliteChange(evt)" onclick="changeMe(evt)" points="105.001,159.905 120.001,133.922 90.0005,133.924" seed="11"/><polygon fill="rgb(147, 112, 219)" stroke="black" stroke-width="1" onmouseover="setChange(evt)" onmouseout="unhiliteChange(evt)" onclick="changeMe(evt)" points="150,133.926 120,133.926 135,159.906" seed="12"/><polygon fill="rgb(147, 112, 219)" stroke="black" stroke-width="1" onmouseover="setChange(evt)" onmouseout="unhiliteChange(evt)" onclick="changeMe(evt)" points="135.001,159.904 120.001,133.922 105.001,159.905" seed="13"/><polygon fill="rgb(41, 171, 135)" stroke="black" stroke-width="1" onmouseover="setChange(evt)" onmouseout="unhiliteChange(evt)" onclick="changeMe(evt)" points="90.0035,0.00050354 60.0035,0.00050354 45.0025,25.9805 60.0025,51.9615 90.0025,51.9615 105.003,25.9815" seed="14"/></g>
</svg>
