<?xml version="1.0" encoding="utf-8"?>
<svg xmlns="http://www.w3.org/2000/svg" id="mainSVG" pointer-events="all" width="105.001" height="141.962" EdgeLen="30" template="u5_92_tu" code="A6_9_1_0" copyright="Francis Hemsher, 2012">
	<polygon id="BorderPoly" fill="none" pointer-events="none" stroke="red" stroke-width="4" transform="" points="60.0007,4.57764e-005 30.0005,4.57764e-005 0.000549316,4.57764e-005 15.0005,25.9806 0.000549316,51.9613 0.00104904,81.9613 4.95911e-005,111.961 4.95911e-005,141.96 30.002,141.96 59.9997,141.961 89.9997,141.961 89.9997,111.961 90.0008,81.9622 90.0008,51.9622 105.001,25.981 90.0008,4.57764e-005"/>
	<g id="mainPolyG" transform=""><polygon id="mainPoly" fill="rgb(252, 194, 0)" stroke="black" onmouseover="setChange(evt)" onmouseout="unhiliteChange(evt)" onclick="changeMe(evt)" points="90.0008,4.57764e-005 60.0007,4.57764e-005 45.0005,25.981 60.0007,51.9622 90.0008,51.9622 105.001,25.981" seed="0"/><polygon fill="rgb(147, 112, 219)" stroke="black" stroke-width="1" onmouseover="setChange(evt)" onmouseout="unhiliteChange(evt)" onclick="changeMe(evt)" points="60.0007,4.57764e-005 30.0005,4.57764e-005 45.0005,25.9806" seed="1"/><polygon fill="rgb(147, 112, 219)" stroke="black" stroke-width="1" onmouseover="setChange(evt)" onmouseout="unhiliteChange(evt)" onclick="changeMe(evt)" points="45.0005,25.9806 30.0005,4.57764e-005 15.0005,25.9806" seed="2"/><polygon fill="rgb(147, 112, 219)" stroke="black" stroke-width="1" onmouseover="setChange(evt)" onmouseout="unhiliteChange(evt)" onclick="changeMe(evt)" points="45.0005,25.9806 15.0005,25.9806 30.0005,51.9613" seed="3"/><polygon fill="rgb(147, 112, 219)" stroke="black" stroke-width="1" onmouseover="setChange(evt)" onmouseout="unhiliteChange(evt)" onclick="changeMe(evt)" points="60.0007,51.9613 45.0005,25.9806 30.001,51.9613" seed="4"/><polygon fill="rgb(147, 112, 219)" stroke="black" stroke-width="1" onmouseover="setChange(evt)" onmouseout="unhiliteChange(evt)" onclick="changeMe(evt)" points="30.0005,4.57764e-005 0.000549316,4.57764e-005 15.0005,25.9806" seed="5"/><polygon fill="rgb(147, 112, 219)" stroke="black" stroke-width="1" onmouseover="setChange(evt)" onmouseout="unhiliteChange(evt)" onclick="changeMe(evt)" points="30.0005,51.9613 15.0005,25.981 0.000549316,51.9613" seed="6"/><polygon fill="rgb(224, 176, 255)" stroke="black" stroke-width="1" onmouseover="setChange(evt)" onmouseout="unhiliteChange(evt)" onclick="changeMe(evt)" points="30,51.9613 0.000549316,51.9613 0.000549316,81.9613 30.0005,81.9613" seed="7"/><polygon fill="rgb(224, 176, 255)" stroke="black" stroke-width="1" onmouseover="setChange(evt)" onmouseout="unhiliteChange(evt)" onclick="changeMe(evt)" points="60.0017,81.9613 60.0007,51.9613 30.001,51.9613 30.0015,81.9613" seed="8"/><polygon fill="rgb(224, 176, 255)" stroke="black" stroke-width="1" onmouseover="setChange(evt)" onmouseout="unhiliteChange(evt)" onclick="changeMe(evt)" points="89.9997,51.9622 60.0007,51.9622 60.0007,81.9613 90.0008,81.9622" seed="9"/><polygon fill="rgb(224, 176, 255)" stroke="black" stroke-width="1" onmouseover="setChange(evt)" onmouseout="unhiliteChange(evt)" onclick="changeMe(evt)" points="30.0005,81.9613 0.00104904,81.9613 4.95911e-005,111.961 30,111.961" seed="10"/><polygon fill="rgb(224, 176, 255)" stroke="black" stroke-width="1" onmouseover="setChange(evt)" onmouseout="unhiliteChange(evt)" onclick="changeMe(evt)" points="60.0017,81.9613 30.002,81.9613 30.0015,111.961 60.0017,111.96" seed="11"/><polygon fill="rgb(224, 176, 255)" stroke="black" stroke-width="1" onmouseover="setChange(evt)" onmouseout="unhiliteChange(evt)" onclick="changeMe(evt)" points="90.0008,81.9622 60.0007,81.9613 59.9997,111.961 89.9997,111.961" seed="12"/><polygon fill="rgb(224, 176, 255)" stroke="black" stroke-width="1" onmouseover="setChange(evt)" onmouseout="unhiliteChange(evt)" onclick="changeMe(evt)" points="29.9995,111.961 4.95911e-005,111.961 4.95911e-005,141.96 30,141.961" seed="13"/><polygon fill="rgb(224, 176, 255)" stroke="black" stroke-width="1" onmouseover="setChange(evt)" onmouseout="unhiliteChange(evt)" onclick="changeMe(evt)" points="60.0017,141.96 60.0007,111.96 30.0015,111.961 30.002,141.96" seed="14"/><polygon fill="rgb(224, 176, 255)" stroke="black" stroke-width="1" onmouseover="setChange(evt)" onmouseout="unhiliteChange(evt)" onclick="changeMe(evt)" points="89.9997,111.961 59.9997,111.961 59.9997,141.961 89.9997,141.961" seed="15"/></g>
</svg>
