<?xml version="1.0" encoding="utf-8"?>
<svg xmlns="http://www.w3.org/2000/svg" id="mainSVG" pointer-events="all" width="193.922" height="141.962" EdgeLen="30" template="u4_36_tu" code="A8_3_0_1" copyright="Francis Hemsher, 2012">
	<polygon id="BorderPoly" fill="none" pointer-events="none" stroke="red" stroke-width="4" transform="" points="40.981,4.57764e-005 15.001,15 0.000495911,40.9812 -7.62939e-006,70.9813 15,96.9613 40.981,111.961 70.981,111.962 96.962,126.962 122.943,141.961 122.942,111.961 137.942,85.9813 163.923,70.9822 193.922,70.9833 178.923,45.0013 152.943,30.0013 126.963,15.001 96.962,15.0005 70.981,0.000549316"/>
	<g id="mainPolyG" transform=""><polygon id="mainPoly" fill="rgb(252, 194, 0)" stroke="black" onmouseover="setChange(evt)" onmouseout="unhiliteChange(evt)" onclick="changeMe(evt)" points="70.981,0.000549316 40.981,4.57764e-005 15.001,15 0.000495911,40.9812 -7.62939e-006,70.9813 15,96.9613 40.981,111.961 70.981,111.962 96.962,96.9622 111.962,70.9813 111.962,40.9812 96.962,15.0005" seed="0"/><polygon fill="rgb(224, 176, 255)" stroke="black" stroke-width="1" onmouseover="setChange(evt)" onmouseout="unhiliteChange(evt)" onclick="changeMe(evt)" points="137.943,85.9813 111.961,70.9813 96.962,96.9622 122.942,111.961" seed="1"/><polygon fill="rgb(147, 112, 219)" stroke="black" stroke-width="1" onmouseover="setChange(evt)" onmouseout="unhiliteChange(evt)" onclick="changeMe(evt)" points="137.943,55.9812 111.962,40.9812 111.962,70.9813" seed="2"/><polygon fill="rgb(147, 112, 219)" stroke="black" stroke-width="1" onmouseover="setChange(evt)" onmouseout="unhiliteChange(evt)" onclick="changeMe(evt)" points="96.962,126.962 96.962,96.9622 70.981,111.962" seed="3"/><polygon fill="rgb(147, 112, 219)" stroke="black" stroke-width="1" onmouseover="setChange(evt)" onmouseout="unhiliteChange(evt)" onclick="changeMe(evt)" points="122.942,111.961 96.962,96.9622 96.962,126.962" seed="4"/><polygon fill="rgb(147, 112, 219)" stroke="black" stroke-width="1" onmouseover="setChange(evt)" onmouseout="unhiliteChange(evt)" onclick="changeMe(evt)" points="137.942,85.9813 137.943,55.9812 111.962,70.9813" seed="5"/><polygon fill="rgb(147, 112, 219)" stroke="black" stroke-width="1" onmouseover="setChange(evt)" onmouseout="unhiliteChange(evt)" onclick="changeMe(evt)" points="163.923,70.9822 137.943,55.9812 137.942,85.9813" seed="6"/><polygon fill="rgb(147, 112, 219)" stroke="black" stroke-width="1" onmouseover="setChange(evt)" onmouseout="unhiliteChange(evt)" onclick="changeMe(evt)" points="122.943,141.961 122.942,111.961 96.962,126.962" seed="7"/><polygon fill="rgb(224, 176, 255)" stroke="black" stroke-width="1" onmouseover="setChange(evt)" onmouseout="unhiliteChange(evt)" onclick="changeMe(evt)" points="152.943,30.0013 126.963,15.001 111.962,40.9812 137.942,55.9812" seed="8"/><polygon fill="rgb(224, 176, 255)" stroke="black" stroke-width="1" onmouseover="setChange(evt)" onmouseout="unhiliteChange(evt)" onclick="changeMe(evt)" points="178.923,45.0013 152.943,30.0013 137.943,55.9812 163.923,70.9822" seed="9"/><polygon fill="rgb(147, 112, 219)" stroke="black" stroke-width="1" onmouseover="setChange(evt)" onmouseout="unhiliteChange(evt)" onclick="changeMe(evt)" points="126.963,15.001 96.963,15 111.962,40.9812" seed="10"/><polygon fill="rgb(147, 112, 219)" stroke="black" stroke-width="1" onmouseover="setChange(evt)" onmouseout="unhiliteChange(evt)" onclick="changeMe(evt)" points="193.922,70.9833 178.923,45.0013 163.923,70.9822" seed="11"/></g>
</svg>
