<?xml version="1.0" encoding="utf-8" ?>

		<svg xmlns="http://www.w3.org/2000/svg" id="mainSVG" pointer-events="all" onkeyup="attachKey(evt)" width="186.743" height="132.902" EdgeLen="30" template="A8_4_2_R">

		<polygon id="BorderPoly" fill="none" pointer-events="none" stroke="red" stroke-width="4" transform="" points="156.743,0.000450134 126.743,4.57764e-005 118.979,28.9781 88.9785,28.9781 73.9785,54.9582 43.9785,54.9582 28.9785,80.9392 -7.62939e-006,73.1742 15.0005,99.1553 30.0005,125.136 58.9785,132.901 73.9785,106.92 103.979,106.92 118.979,80.9392 148.979,80.9392 156.743,51.9622 186.743,51.9622 171.743,25.981" />
		<g id="mainPolyG" transform=""><polygon id="mainPoly" fill="rgb(252, 194, 0)" stroke="black" onmouseover="setChange(evt)" onmouseout="unhiliteChange(evt)" onclick="changeMe(evt)" points="73.9785,54.9582 43.9785,54.9582 28.9785,80.9392 43.9785,106.92 73.9785,106.92 88.9785,80.9392" seed="0" /><polygon fill="rgb(41, 171, 135)" stroke="black" stroke-width="1" onmouseover="setChange(evt)" onmouseout="unhiliteChange(evt)" onclick="changeMe(evt)" points="118.979,28.9781 88.9785,28.9781 73.9785,54.9582 88.9785,80.9392 118.979,80.9392 133.979,54.9593" seed="1" /><polygon fill="rgb(147, 112, 219)" stroke="black" stroke-width="1" onmouseover="setChange(evt)" onmouseout="unhiliteChange(evt)" onclick="changeMe(evt)" points="73.9785,106.92 43.9785,106.92 58.9785,132.901" seed="2" /><polygon fill="rgb(147, 112, 219)" stroke="black" stroke-width="1" onmouseover="setChange(evt)" onmouseout="unhiliteChange(evt)" onclick="changeMe(evt)" points="103.979,106.92 88.9785,80.9403 73.9785,106.92" seed="3" /><polygon fill="rgb(147, 112, 219)" stroke="black" stroke-width="1" onmouseover="setChange(evt)" onmouseout="unhiliteChange(evt)" onclick="changeMe(evt)" points="118.979,80.9392 88.9785,80.9392 103.979,106.92" seed="4" /><polygon fill="rgb(147, 112, 219)" stroke="black" stroke-width="1" onmouseover="setChange(evt)" onmouseout="unhiliteChange(evt)" onclick="changeMe(evt)" points="148.979,80.9403 133.979,54.9593 118.979,80.9392" seed="5" /><polygon fill="rgb(91, 146, 229)" stroke="black" stroke-width="1" onmouseover="setChange(evt)" onmouseout="unhiliteChange(evt)" onclick="changeMe(evt)" transform="" points="28.9785,80.9392 -7.62939e-006,73.1742 15.0005,99.1553 43.9785,106.92" seed="6" /><polygon fill="rgb(91, 146, 229)" stroke="black" stroke-width="1" onmouseover="setChange(evt)" onmouseout="unhiliteChange(evt)" onclick="changeMe(evt)" transform="" points="43.9785,106.92 15.0005,99.1553 30.0005,125.136 58.9785,132.901" seed="7" /><polygon fill="rgb(91, 146, 229)" stroke="black" stroke-width="1" onmouseover="setChange(evt)" onmouseout="unhiliteChange(evt)" onclick="changeMe(evt)" transform="" points="141.743,25.981 126.743,4.57764e-005 118.979,28.9781 133.979,54.9593" seed="8" /><polygon fill="rgb(91, 146, 229)" stroke="black" stroke-width="1" onmouseover="setChange(evt)" onmouseout="unhiliteChange(evt)" onclick="changeMe(evt)" transform="" points="156.743,51.9622 141.743,25.981 133.979,54.9593 148.979,80.9392" seed="9" /><polygon fill="rgb(147, 112, 219)" stroke="black" stroke-width="1" onmouseover="setChange(evt)" onmouseout="unhiliteChange(evt)" onclick="changeMe(evt)" points="156.743,0.000450134 126.743,4.57764e-005 141.743,25.981" seed="10" /><polygon fill="rgb(147, 112, 219)" stroke="black" stroke-width="1" onmouseover="setChange(evt)" onmouseout="unhiliteChange(evt)" onclick="changeMe(evt)" points="171.743,25.981 141.743,25.981 156.743,51.9622" seed="11" /><polygon fill="rgb(147, 112, 219)" stroke="black" stroke-width="1" onmouseover="setChange(evt)" onmouseout="unhiliteChange(evt)" onclick="changeMe(evt)" points="171.743,25.9815 156.743,0.000450134 141.742,25.981" seed="12" /><polygon fill="rgb(147, 112, 219)" stroke="black" stroke-width="1" onmouseover="setChange(evt)" onmouseout="unhiliteChange(evt)" onclick="changeMe(evt)" points="186.743,51.9622 171.743,25.981 156.743,51.9622" seed="13" /></g>


		</svg>
