<?xml version="1.0" encoding="utf-8"?>
<svg xmlns="http://www.w3.org/2000/svg" id="mainSVG" pointer-events="all" width="238.923" height="111.964" EdgeLen="30" template="u6_109_tu" code="A10_6_1_1" copyright="Francis Hemsher, 2012">
	<polygon id="BorderPoly" fill="none" pointer-events="none" stroke="red" stroke-width="4" transform="" points="197.943,0.00204468 167.944,0.00104523 141.961,15.0005 111.962,15 85.981,0.000549316 55.981,0 29.9999,15 0,15 15,40.9808 15,70.9808 0,96.9618 29.9999,96.9618 55.981,111.962 85.981,111.962 111.961,96.9618 141.961,96.9618 167.939,111.963 197.941,111.964 223.921,96.9638 238.922,70.9837 238.923,40.9837 223.923,15.0025"/>
	<g id="mainPolyG" transform=""><polygon id="mainPoly" fill="rgb(252, 194, 0)" stroke="black" onmouseover="setChange(evt)" onmouseout="unhiliteChange(evt)" onclick="changeMe(evt)" points="85.9809,0.00050354 55.9809,3.27418e-011 29.9999,15 14.9999,40.9808 14.9999,70.9808 29.9999,96.9618 55.9809,111.962 85.9809,111.962 111.961,96.9618 126.961,70.9808 126.962,40.9808 111.962,15.0005" seed="0"/><polygon fill="rgb(147, 112, 219)" stroke="black" stroke-width="1" onmouseover="setChange(evt)" onmouseout="unhiliteChange(evt)" onclick="changeMe(evt)" points="29.9999,15 -0.0001297,15 14.9999,40.9808" seed="1"/><polygon fill="rgb(147, 112, 219)" stroke="black" stroke-width="1" onmouseover="setChange(evt)" onmouseout="unhiliteChange(evt)" onclick="changeMe(evt)" points="29.9999,96.9618 14.9999,70.9808 -0.0001297,96.9618" seed="2"/><polygon fill="rgb(147, 112, 219)" stroke="black" stroke-width="1" onmouseover="setChange(evt)" onmouseout="unhiliteChange(evt)" onclick="changeMe(evt)" points="141.961,15 111.962,15 126.962,40.9808" seed="3"/><polygon fill="rgb(147, 112, 219)" stroke="black" stroke-width="1" onmouseover="setChange(evt)" onmouseout="unhiliteChange(evt)" onclick="changeMe(evt)" points="141.961,96.9618 126.961,70.9808 111.961,96.9618" seed="4"/><polygon fill="rgb(224, 176, 255)" stroke="black" stroke-width="1" onmouseover="setChange(evt)" onmouseout="unhiliteChange(evt)" onclick="changeMe(evt)" points="156.961,40.9818 126.962,40.9818 126.961,70.9808 156.96,70.9817" seed="5"/><polygon fill="rgb(41, 171, 135)" stroke="black" stroke-width="1" onmouseover="setChange(evt)" onmouseout="unhiliteChange(evt)" onclick="changeMe(evt)" points="208.923,40.9827 182.943,25.9826 156.961,40.9818 156.96,70.9817 182.941,85.9827 208.922,70.9827" seed="6"/><polygon fill="rgb(224, 176, 255)" stroke="black" stroke-width="1" onmouseover="setChange(evt)" onmouseout="unhiliteChange(evt)" onclick="changeMe(evt)" points="182.943,25.9826 167.944,0.000999454 141.962,15 156.961,40.9808" seed="7"/><polygon fill="rgb(224, 176, 255)" stroke="black" stroke-width="1" onmouseover="setChange(evt)" onmouseout="unhiliteChange(evt)" onclick="changeMe(evt)" points="223.923,15.0025 197.943,0.0019989 182.943,25.983 208.923,40.9827" seed="8"/><polygon fill="rgb(224, 176, 255)" stroke="black" stroke-width="1" onmouseover="setChange(evt)" onmouseout="unhiliteChange(evt)" onclick="changeMe(evt)" points="238.923,40.9837 208.923,40.9837 208.922,70.9827 238.922,70.9837" seed="9"/><polygon fill="rgb(224, 176, 255)" stroke="black" stroke-width="1" onmouseover="setChange(evt)" onmouseout="unhiliteChange(evt)" onclick="changeMe(evt)" points="223.921,96.9638 208.922,70.9827 182.941,85.9827 197.941,111.964" seed="10"/><polygon fill="rgb(224, 176, 255)" stroke="black" stroke-width="1" onmouseover="setChange(evt)" onmouseout="unhiliteChange(evt)" onclick="changeMe(evt)" points="182.941,85.9827 156.96,70.9817 141.959,96.9618 167.939,111.963" seed="11"/><polygon fill="rgb(147, 112, 219)" stroke="black" stroke-width="1" onmouseover="setChange(evt)" onmouseout="unhiliteChange(evt)" onclick="changeMe(evt)" points="197.939,111.964 182.941,85.9827 167.939,111.963" seed="12"/><polygon fill="rgb(147, 112, 219)" stroke="black" stroke-width="1" onmouseover="setChange(evt)" onmouseout="unhiliteChange(evt)" onclick="changeMe(evt)" points="156.96,70.9817 126.96,70.9808 141.96,96.9618" seed="13"/><polygon fill="rgb(147, 112, 219)" stroke="black" stroke-width="1" onmouseover="setChange(evt)" onmouseout="unhiliteChange(evt)" onclick="changeMe(evt)" points="156.961,40.9818 141.961,15.0005 126.962,40.9818" seed="14"/><polygon fill="rgb(147, 112, 219)" stroke="black" stroke-width="1" onmouseover="setChange(evt)" onmouseout="unhiliteChange(evt)" onclick="changeMe(evt)" points="197.944,0.00250244 167.944,0.000999454 182.943,25.9826" seed="15"/><polygon fill="rgb(147, 112, 219)" stroke="black" stroke-width="1" onmouseover="setChange(evt)" onmouseout="unhiliteChange(evt)" onclick="changeMe(evt)" points="238.923,40.9837 223.923,15.0025 208.923,40.9827" seed="16"/><polygon fill="rgb(147, 112, 219)" stroke="black" stroke-width="1" onmouseover="setChange(evt)" onmouseout="unhiliteChange(evt)" onclick="changeMe(evt)" points="238.922,70.9837 208.922,70.9827 223.921,96.9647" seed="17"/></g>
</svg>
