<svg xmlns="http://www.w3.org/2000/svg" id="mainSVG" pointer-events="all" width="186.961" height="107.942" EdgeLen="30" template="u4_92_tu" code="A10_4_1_0" copyright="Francis Hemsher, 2012">
	<polygon id="BorderPoly" fill="none" pointer-events="none" stroke="red" stroke-width="4" transform="" points="40.9805,15 25.9805,40.981 0,55.9808 29.9995,107.943 55.9805,92.9428 70.9805,66.9618 100.98,66.9618 126.962,51.9618 186.961,51.9628 156.962,0.00105667 96.9615,-4.57764e-005 70.9815,15.0005 70.9805,15"/>
	<g id="mainPolyG" transform=""><polygon id="mainPoly" fill="rgb(252, 194, 0)" stroke="none" stroke-width="1" onmouseover="setChange(evt)" onmouseout="unhiliteChange(evt)" onclick="changeMe(evt)" points="85.9805,40.981 70.9805,15 40.9805,15 25.9805,40.981 40.9805,66.9618 70.9805,66.9618" seed="0"/><polygon fill="rgb(224, 176, 255)" stroke="black" stroke-width="1" onmouseover="setChange(evt)" onmouseout="unhiliteChange(evt)" onclick="changeMe(evt)" points="25.9805,40.981 40.9795,66.9618 14.9995,81.9618 0,55.9808" seed="1"/><polygon fill="rgb(41, 171, 135)" stroke="black" stroke-width="1" onmouseover="setChange(evt)" onmouseout="unhiliteChange(evt)" onclick="changeMe(evt)" points="55.9805,92.9428 40.9805,66.9618 70.9805,66.9618" seed="2"/><polygon fill="rgb(224, 176, 255)" stroke="black" stroke-width="1" onmouseover="setChange(evt)" onmouseout="unhiliteChange(evt)" onclick="changeMe(evt)" points="29.9995,107.943 55.9805,92.9428 40.9805,66.9618 14.9995,81.9618" seed="3"/><polygon fill="rgb(41, 171, 135)" stroke="black" stroke-width="1" onmouseover="setChange(evt)" onmouseout="unhiliteChange(evt)" onclick="changeMe(evt)" points="100.98,66.9618 70.9805,66.9618 85.9805,40.981" seed="4"/><polygon fill="rgb(224, 176, 255)" stroke="black" stroke-width="1" onmouseover="setChange(evt)" onmouseout="unhiliteChange(evt)" onclick="changeMe(evt)" points="111.96,25.9815 85.9805,40.981 70.9815,15.0005 96.9615,-4.57764e-005" seed="5"/><polygon fill="rgb(224, 176, 255)" stroke="black" stroke-width="1" onmouseover="setChange(evt)" onmouseout="unhiliteChange(evt)" onclick="changeMe(evt)" points="126.962,51.9618 111.96,25.981 85.9805,40.981 100.98,66.9618" seed="6"/><polygon fill="rgb(41, 171, 135)" stroke="black" stroke-width="1" onmouseover="setChange(evt)" onmouseout="unhiliteChange(evt)" onclick="changeMe(evt)" points="126.962,0.000453949 96.9615,-4.57764e-005 111.96,25.981" seed="7"/><polygon fill="rgb(0, 255, 0)" stroke="black" stroke-width="1" onmouseover="setChange(evt)" onmouseout="unhiliteChange(evt)" onclick="changeMe(evt)" points="141.96,25.9815 111.96,25.981 126.962,0.000453949" seed="8"/><polygon fill="rgb(0, 255, 0)" stroke="black" stroke-width="1" onmouseover="setChange(evt)" onmouseout="unhiliteChange(evt)" onclick="changeMe(evt)" points="126.96,51.9618 141.96,25.9815 111.96,25.981" seed="9"/><polygon fill="rgb(0, 255, 0)" stroke="black" stroke-width="1" onmouseover="setChange(evt)" onmouseout="unhiliteChange(evt)" onclick="changeMe(evt)" points="156.962,0.00105667 126.962,0.000453949 141.96,25.9815" seed="10"/><polygon fill="rgb(0, 255, 0)" stroke="black" stroke-width="1" onmouseover="setChange(evt)" onmouseout="unhiliteChange(evt)" onclick="changeMe(evt)" points="171.961,25.982 141.96,25.9815 156.962,0.00105667" seed="11"/><polygon fill="rgb(0, 255, 0)" stroke="black" stroke-width="1" onmouseover="setChange(evt)" onmouseout="unhiliteChange(evt)" onclick="changeMe(evt)" points="156.96,51.9618 171.961,25.982 141.96,25.9815" seed="12"/><polygon fill="rgb(0, 255, 0)" stroke="black" stroke-width="1" onmouseover="setChange(evt)" onmouseout="unhiliteChange(evt)" onclick="changeMe(evt)" points="156.96,51.9628 126.96,51.9618 141.962,25.981" seed="13"/><polygon fill="rgb(41, 171, 135)" stroke="black" stroke-width="1" onmouseover="setChange(evt)" onmouseout="unhiliteChange(evt)" onclick="changeMe(evt)" points="186.961,51.9628 156.96,51.9618 171.961,25.9815" seed="14"/></g>
</svg>
