<?xml version="1.0" encoding="utf-8"?>
<svg xmlns="http://www.w3.org/2000/svg" id="mainSVG" pointer-events="all" width="208.922" height="253.925" EdgeLen="30" template="u6_106_tu" code="A10_3_0_2" copyright="Francis Hemsher, 2012">
	<polygon id="BorderPoly" fill="none" pointer-events="none" stroke="red" stroke-width="4" transform="" points="152.94,0.000999454 126.96,15.001 96.961,15.002 96.962,45.002 70.98,60.002 55.98,85.983 55.981,115.983 40.981,141.963 15.001,156.963 0.000991821,182.944 0,212.944 15,238.924 40.981,253.924 70.981,253.925 96.962,238.925 126.962,238.925 111.962,212.944 111.962,182.944 126.962,156.963 152.943,141.963 167.943,115.982 167.943,85.982 182.942,60.001 208.922,44.999 208.921,14.998 182.94,0"/>
	<g id="mainPolyG" transform=""><polygon id="mainPoly" fill="rgb(252, 194, 0)" stroke="black" onmouseover="setChange(evt)" onmouseout="unhiliteChange(evt)" onclick="changeMe(evt)" points="70.981,141.963 40.981,141.963 15.001,156.963 0.00099945,182.944 4.54747e-012,212.944 15,238.924 40.981,253.924 70.981,253.925 96.962,238.925 111.962,212.944 111.962,182.944 96.962,156.963" seed="0"/><polygon fill="rgb(0, 128, 128)" stroke="black" stroke-width="1" onmouseover="setChange(evt)" onmouseout="unhiliteChange(evt)" onclick="changeMe(evt)" points="152.942,60.0006 126.961,45.0006 96.962,45.0016 70.98,60.0016 55.98,85.9826 55.981,115.983 70.981,141.963 96.962,156.963 126.962,156.963 152.943,141.963 167.943,115.982 167.943,85.9816" seed="1"/><polygon fill="rgb(147, 112, 219)" stroke="black" stroke-width="1" onmouseover="setChange(evt)" onmouseout="unhiliteChange(evt)" onclick="changeMe(evt)" points="70.981,141.963 55.982,115.982 40.981,141.963" seed="2"/><polygon fill="rgb(147, 112, 219)" stroke="black" stroke-width="1" onmouseover="setChange(evt)" onmouseout="unhiliteChange(evt)" onclick="changeMe(evt)" points="126.962,156.963 96.962,156.963 111.962,182.944" seed="3"/><polygon fill="rgb(147, 112, 219)" stroke="black" stroke-width="1" onmouseover="setChange(evt)" onmouseout="unhiliteChange(evt)" onclick="changeMe(evt)" points="126.962,238.925 111.961,212.944 96.962,238.925" seed="4"/><polygon fill="rgb(147, 112, 219)" stroke="black" stroke-width="1" onmouseover="setChange(evt)" onmouseout="unhiliteChange(evt)" onclick="changeMe(evt)" points="167.942,85.9816 182.942,60.0006 152.942,60.0006" seed="5"/><polygon fill="rgb(147, 112, 219)" stroke="black" stroke-width="1" onmouseover="setChange(evt)" onmouseout="unhiliteChange(evt)" onclick="changeMe(evt)" points="152.941,60.0016 152.941,30.0006 126.961,45.0006" seed="6"/><polygon fill="rgb(147, 112, 219)" stroke="black" stroke-width="1" onmouseover="setChange(evt)" onmouseout="unhiliteChange(evt)" onclick="changeMe(evt)" points="152.941,30.0006 126.96,15.0006 126.961,45.0006" seed="7"/><polygon fill="rgb(147, 112, 219)" stroke="black" stroke-width="1" onmouseover="setChange(evt)" onmouseout="unhiliteChange(evt)" onclick="changeMe(evt)" points="152.941,30.0006 152.94,0.000572208 126.96,15.0006" seed="8"/><polygon fill="rgb(224, 176, 255)" stroke="black" stroke-width="1" onmouseover="setChange(evt)" onmouseout="unhiliteChange(evt)" onclick="changeMe(evt)" points="126.962,45.0006 126.961,15.0006 96.961,15.0016 96.962,45.0016" seed="9"/><polygon fill="rgb(224, 176, 255)" stroke="black" stroke-width="1" onmouseover="setChange(evt)" onmouseout="unhiliteChange(evt)" onclick="changeMe(evt)" points="182.941,29.9986 182.94,-0.000427246 152.94,0.000572208 152.941,30.0006" seed="10"/><polygon fill="rgb(224, 176, 255)" stroke="black" stroke-width="1" onmouseover="setChange(evt)" onmouseout="unhiliteChange(evt)" onclick="changeMe(evt)" points="182.941,60.0006 182.941,30.0006 152.941,30.0016 152.941,60.0016" seed="11"/><polygon fill="rgb(147, 112, 219)" stroke="black" stroke-width="1" onmouseover="setChange(evt)" onmouseout="unhiliteChange(evt)" onclick="changeMe(evt)" points="208.921,14.9976 182.94,-0.000427246 182.941,29.9986" seed="12"/><polygon fill="rgb(147, 112, 219)" stroke="black" stroke-width="1" onmouseover="setChange(evt)" onmouseout="unhiliteChange(evt)" onclick="changeMe(evt)" points="208.922,45.0006 182.941,30.0006 182.941,60.0006" seed="13"/><polygon fill="rgb(147, 112, 219)" stroke="black" stroke-width="1" onmouseover="setChange(evt)" onmouseout="unhiliteChange(evt)" onclick="changeMe(evt)" points="208.922,44.9986 208.921,14.9976 182.941,29.9986" seed="14"/></g>
</svg>
