<?xml version="1.0" encoding="utf-8" ?>

		<svg xmlns="http://www.w3.org/2000/svg" id="mainSVG" pointer-events="all" onkeyup="attachKey(evt)" width="171.743" height="161.88" EdgeLen="30" template="A12_9_2_R">

		<polygon id="BorderPoly" fill="none" pointer-events="none" stroke="red" stroke-width="4" transform="" points="45.0005,0.000495911 15.0005,0 -7.62939e-006,25.981 15.0005,51.962 44.9995,51.962 23.7865,73.176 38.7875,99.156 23.7875,125.137 31.5525,154.115 46.5525,128.134 76.5525,128.134 91.5525,154.115 120.53,161.878 150.529,161.88 165.529,135.899 150.529,109.918 171.743,88.705 141.742,88.705 126.742,62.725 118.979,33.747 88.9785,33.747 60.0005,25.982" />
		<g id="mainPolyG" transform=""><polygon id="mainPoly" fill="rgb(252, 194, 0)" stroke="black" onmouseover="setChange(evt)" onmouseout="unhiliteChange(evt)" onclick="changeMe(evt)" points="150.529,109.918 120.529,109.918 105.529,135.899 120.529,161.88 150.529,161.88 165.529,135.899" seed="0" /><polygon fill="rgb(91, 146, 229)" stroke="black" stroke-width="1" onmouseover="setChange(evt)" onmouseout="unhiliteChange(evt)" onclick="changeMe(evt)" transform="" points="171.743,88.705 141.742,88.705 120.529,109.918 150.529,109.918" seed="1" /><polygon fill="rgb(147, 112, 219)" stroke="black" stroke-width="1" onmouseover="setChange(evt)" onmouseout="unhiliteChange(evt)" onclick="changeMe(evt)" points="120.529,109.918 90.5295,109.918 105.529,135.899" seed="2" /><polygon fill="rgb(91, 146, 229)" stroke="black" stroke-width="1" onmouseover="setChange(evt)" onmouseout="unhiliteChange(evt)" onclick="changeMe(evt)" transform="" points="141.743,88.705 111.743,88.705 90.5295,109.918 120.529,109.918" seed="3" /><polygon fill="rgb(147, 112, 219)" stroke="black" stroke-width="1" onmouseover="setChange(evt)" onmouseout="unhiliteChange(evt)" onclick="changeMe(evt)" points="111.743,88.705 82.7655,80.94 90.5295,109.918" seed="4" /><polygon fill="rgb(147, 112, 219)" stroke="black" stroke-width="1" onmouseover="setChange(evt)" onmouseout="unhiliteChange(evt)" onclick="changeMe(evt)" points="90.5295,109.918 82.7645,80.94 61.5515,102.153" seed="5" /><polygon fill="rgb(147, 112, 219)" stroke="black" stroke-width="1" onmouseover="setChange(evt)" onmouseout="unhiliteChange(evt)" onclick="changeMe(evt)" points="111.742,88.705 103.979,59.727 82.7655,80.94" seed="6" /><polygon fill="rgb(147, 112, 219)" stroke="black" stroke-width="1" onmouseover="setChange(evt)" onmouseout="unhiliteChange(evt)" onclick="changeMe(evt)" points="103.979,59.727 75.0005,51.962 82.7655,80.94" seed="7" /><polygon fill="rgb(147, 112, 219)" stroke="black" stroke-width="1" onmouseover="setChange(evt)" onmouseout="unhiliteChange(evt)" onclick="changeMe(evt)" points="82.7645,80.94 53.7865,73.176 61.5515,102.153" seed="8" /><polygon fill="rgb(147, 112, 219)" stroke="black" stroke-width="1" onmouseover="setChange(evt)" onmouseout="unhiliteChange(evt)" onclick="changeMe(evt)" points="82.7635,80.94 74.9995,51.962 53.7865,73.176" seed="9" /><polygon fill="rgb(91, 146, 229)" stroke="black" stroke-width="1" onmouseover="setChange(evt)" onmouseout="unhiliteChange(evt)" onclick="changeMe(evt)" transform="" points="126.742,62.725 118.979,33.747 103.979,59.727 111.742,88.705" seed="10" /><polygon fill="rgb(91, 146, 229)" stroke="black" stroke-width="1" onmouseover="setChange(evt)" onmouseout="unhiliteChange(evt)" onclick="changeMe(evt)" transform="" points="88.9785,33.747 60.0005,25.982 75.0005,51.962 103.979,59.727" seed="11" /><polygon fill="rgb(91, 146, 229)" stroke="black" stroke-width="1" onmouseover="setChange(evt)" onmouseout="unhiliteChange(evt)" onclick="changeMe(evt)" transform="" points="74.9995,51.962 44.9995,51.962 23.7865,73.176 53.7865,73.176" seed="12" /><polygon fill="rgb(91, 146, 229)" stroke="black" stroke-width="1" onmouseover="setChange(evt)" onmouseout="unhiliteChange(evt)" onclick="changeMe(evt)" transform="" points="61.5515,102.153 53.7865,73.175 38.7875,99.156 46.5525,128.134" seed="13" /><polygon fill="rgb(91, 146, 229)" stroke="black" stroke-width="1" onmouseover="setChange(evt)" onmouseout="unhiliteChange(evt)" onclick="changeMe(evt)" transform="" points="90.5295,109.918 61.5515,102.153 76.5525,128.134 105.529,135.898" seed="14" /><polygon fill="rgb(147, 112, 219)" stroke="black" stroke-width="1" onmouseover="setChange(evt)" onmouseout="unhiliteChange(evt)" onclick="changeMe(evt)" points="141.742,88.706 126.742,62.725 111.742,88.705" seed="15" /><polygon fill="rgb(147, 112, 219)" stroke="black" stroke-width="1" onmouseover="setChange(evt)" onmouseout="unhiliteChange(evt)" onclick="changeMe(evt)" points="103.979,59.727 118.979,33.746 88.9785,33.747" seed="16" /><polygon fill="rgb(147, 112, 219)" stroke="black" stroke-width="1" onmouseover="setChange(evt)" onmouseout="unhiliteChange(evt)" onclick="changeMe(evt)" points="75.0005,51.962 60.0005,25.982 45.0005,51.962" seed="17" /><polygon fill="rgb(147, 112, 219)" stroke="black" stroke-width="1" onmouseover="setChange(evt)" onmouseout="unhiliteChange(evt)" onclick="changeMe(evt)" points="53.7865,73.176 23.7865,73.176 38.7865,99.156" seed="18" /><polygon fill="rgb(147, 112, 219)" stroke="black" stroke-width="1" onmouseover="setChange(evt)" onmouseout="unhiliteChange(evt)" onclick="changeMe(evt)" points="76.5525,128.134 61.5515,102.153 46.5525,128.134" seed="19" /><polygon fill="rgb(41, 171, 135)" stroke="black" stroke-width="1" onmouseover="setChange(evt)" onmouseout="unhiliteChange(evt)" onclick="changeMe(evt)" points="45.0005,0.000495911 15.0005,0 -7.62939e-006,25.981 15.0005,51.962 45.0005,51.962 60.0005,25.982" seed="20" /><polygon fill="rgb(91, 146, 229)" stroke="black" stroke-width="1" onmouseover="setChange(evt)" onmouseout="unhiliteChange(evt)" onclick="changeMe(evt)" transform="" points="105.529,135.898 76.5515,128.134 91.5525,154.115 120.53,161.878" seed="21" /><polygon fill="rgb(91, 146, 229)" stroke="black" stroke-width="1" onmouseover="setChange(evt)" onmouseout="unhiliteChange(evt)" onclick="changeMe(evt)" transform="" points="46.5525,128.134 38.7875,99.156 23.7875,125.137 31.5525,154.115" seed="22" /></g>


		</svg>
