<?xml version="1.0" encoding="utf-8" ?>

		<svg xmlns="http://www.w3.org/2000/svg" id="mainSVG" pointer-events="all" onkeyup="attachKey(evt)" width="102.153" height="147.955" EdgeLen="30" template="A12_6_0_R">

		<polygon id="BorderPoly" fill="none" pointer-events="none" stroke="red" stroke-width="4" transform="" points="54.9585,0 54.9585,30.0005 25.9805,37.7645 0,52.7655 25.981,67.7645 18.2165,96.7425 18.2155,126.741 39.4285,147.955 65.4095,132.955 94.3885,125.191 94.3875,95.1915 94.3885,65.1915 102.153,36.2135 76.1715,21.213" />
		<g id="mainPolyG" transform=""><polygon id="mainPoly" fill="rgb(252, 194, 0)" stroke="black" onmouseover="setChange(evt)" onmouseout="unhiliteChange(evt)" onclick="changeMe(evt)" points="94.3875,95.1915 68.4065,80.1915 68.4065,110.191" seed="0" /><polygon fill="rgb(91, 146, 229)" stroke="black" stroke-width="1" onmouseover="setChange(evt)" onmouseout="unhiliteChange(evt)" onclick="changeMe(evt)" transform="" points="68.4065,80.1915 47.194,58.9775 47.194,88.9785 68.4065,110.191" seed="1" /><polygon fill="rgb(91, 146, 229)" stroke="black" stroke-width="1" onmouseover="setChange(evt)" onmouseout="unhiliteChange(evt)" onclick="changeMe(evt)" transform="" points="47.194,58.9785 25.9805,37.7645 25.981,67.7645 47.194,88.9785" seed="2" /><polygon fill="rgb(147, 112, 219)" stroke="black" stroke-width="1" onmouseover="setChange(evt)" onmouseout="unhiliteChange(evt)" onclick="changeMe(evt)" points="25.981,67.7645 25.9805,37.7645 0,52.7655" seed="3" /><polygon fill="rgb(147, 112, 219)" stroke="black" stroke-width="1" onmouseover="setChange(evt)" onmouseout="unhiliteChange(evt)" onclick="changeMe(evt)" points="47.194,58.9785 54.9585,30.0005 25.9805,37.7645" seed="4" /><polygon fill="rgb(147, 112, 219)" stroke="black" stroke-width="1" onmouseover="setChange(evt)" onmouseout="unhiliteChange(evt)" onclick="changeMe(evt)" points="68.4065,80.1915 76.1715,51.2135 47.194,58.9775" seed="5" /><polygon fill="rgb(147, 112, 219)" stroke="black" stroke-width="1" onmouseover="setChange(evt)" onmouseout="unhiliteChange(evt)" onclick="changeMe(evt)" points="76.1715,51.2135 54.9585,30.0005 47.194,58.9785" seed="6" /><polygon fill="rgb(147, 112, 219)" stroke="black" stroke-width="1" onmouseover="setChange(evt)" onmouseout="unhiliteChange(evt)" onclick="changeMe(evt)" points="68.4065,110.191 47.1935,88.9775 39.429,117.955" seed="7" /><polygon fill="rgb(147, 112, 219)" stroke="black" stroke-width="1" onmouseover="setChange(evt)" onmouseout="unhiliteChange(evt)" onclick="changeMe(evt)" points="47.1935,88.9785 25.981,67.7645 18.2165,96.7425" seed="8" /><polygon fill="rgb(147, 112, 219)" stroke="black" stroke-width="1" onmouseover="setChange(evt)" onmouseout="unhiliteChange(evt)" onclick="changeMe(evt)" points="39.429,117.956 47.1935,88.9785 18.2155,96.7425" seed="9" /><polygon fill="rgb(91, 146, 229)" stroke="black" stroke-width="1" onmouseover="setChange(evt)" onmouseout="unhiliteChange(evt)" onclick="changeMe(evt)" transform="" points="76.1715,21.213 54.9585,-1.09139e-011 54.9585,30.0005 76.1715,51.2135" seed="10" /><polygon fill="rgb(147, 112, 219)" stroke="black" stroke-width="1" onmouseover="setChange(evt)" onmouseout="unhiliteChange(evt)" onclick="changeMe(evt)" points="102.153,36.2135 76.1715,21.213 76.1715,51.2135" seed="11" /><polygon fill="rgb(91, 146, 229)" stroke="black" stroke-width="1" onmouseover="setChange(evt)" onmouseout="unhiliteChange(evt)" onclick="changeMe(evt)" transform="" points="94.3885,65.1915 102.153,36.2135 76.1725,51.2135 68.4065,80.1915" seed="12" /><polygon fill="rgb(147, 112, 219)" stroke="black" stroke-width="1" onmouseover="setChange(evt)" onmouseout="unhiliteChange(evt)" onclick="changeMe(evt)" points="94.3875,95.1915 94.3885,65.1915 68.4065,80.1915" seed="13" /><polygon fill="rgb(147, 112, 219)" stroke="black" stroke-width="1" onmouseover="setChange(evt)" onmouseout="unhiliteChange(evt)" onclick="changeMe(evt)" points="94.3885,125.191 94.3885,95.1905 68.4065,110.191" seed="14" /><polygon fill="rgb(91, 146, 229)" stroke="black" stroke-width="1" onmouseover="setChange(evt)" onmouseout="unhiliteChange(evt)" onclick="changeMe(evt)" transform="" points="94.3875,125.191 68.4065,110.191 39.429,117.955 65.4095,132.955" seed="15" /><polygon fill="rgb(147, 112, 219)" stroke="black" stroke-width="1" onmouseover="setChange(evt)" onmouseout="unhiliteChange(evt)" onclick="changeMe(evt)" points="65.4095,132.955 39.429,117.955 39.4285,147.955" seed="16" /><polygon fill="rgb(91, 146, 229)" stroke="black" stroke-width="1" onmouseover="setChange(evt)" onmouseout="unhiliteChange(evt)" onclick="changeMe(evt)" transform="" points="39.429,117.955 18.216,96.7415 18.2155,126.741 39.4285,147.955" seed="17" /></g>


		</svg>
