<?xml version="1.0" encoding="utf-8"?>
<svg xmlns="http://www.w3.org/2000/svg" id="mainSVG" pointer-events="all" width="182.941" height="268.924" EdgeLen="30" template="u6_107_tu" code="A12_4_0_2" copyright="Francis Hemsher, 2012">
	<polygon id="BorderPoly" fill="none" pointer-events="none" stroke="red" stroke-width="4" transform="" points="182.941,14.9993 152.941,14.9993 126.96,0.000259399 96.9602,0.00125122 70.9802,15.0023 70.9802,45.0003 70.9802,75.0003 55.9802,100.981 55.9822,130.981 40.9812,156.961 15.0002,171.961 0.000541687,197.942 4.57764e-005,227.942 15.0002,253.923 40.9812,268.923 70.9812,268.923 96.9613,253.923 126.961,253.923 111.961,227.942 111.962,197.942 126.962,171.962 152.943,156.962 167.942,130.98 167.942,100.981 182.941,75.0003 182.941,45.0003"/><g id="mainPolyG" transform=""><polygon id="mainPoly" fill="rgb(252, 194, 0)" stroke="black" onmouseover="setChange(evt)" onmouseout="unhiliteChange(evt)" onclick="changeMe(evt)" points="70.9812,156.962 40.9812,156.961 15.0002,171.961 0.000541687,197.942 4.57764e-005,227.942 15.0002,253.923 40.9812,268.923 70.9812,268.923 96.9613,253.923 111.961,227.942 111.962,197.942 96.9622,171.962" seed="0"/><polygon fill="rgb(0, 128, 128)" stroke="black" stroke-width="1" onmouseover="setChange(evt)" onmouseout="unhiliteChange(evt)" onclick="changeMe(evt)" points="152.942,75.0003 126.961,60.0003 96.9613,60.0003 70.9802,75.0003 55.9802,100.981 55.9812,130.981 70.9812,156.962 96.9622,171.962 126.962,171.962 152.943,156.962 167.942,130.98 167.942,100.981" seed="1"/><polygon fill="rgb(147, 112, 219)" stroke="black" stroke-width="1" onmouseover="setChange(evt)" onmouseout="unhiliteChange(evt)" onclick="changeMe(evt)" points="70.9812,156.962 55.9822,130.981 40.9812,156.961" seed="2"/><polygon fill="rgb(147, 112, 219)" stroke="black" stroke-width="1" onmouseover="setChange(evt)" onmouseout="unhiliteChange(evt)" onclick="changeMe(evt)" points="126.962,171.961 96.9622,171.961 111.962,197.942" seed="3"/><polygon fill="rgb(147, 112, 219)" stroke="black" stroke-width="1" onmouseover="setChange(evt)" onmouseout="unhiliteChange(evt)" onclick="changeMe(evt)" points="126.961,253.923 111.961,227.942 96.9613,253.923" seed="4"/><polygon fill="rgb(147, 112, 219)" stroke="black" stroke-width="1" onmouseover="setChange(evt)" onmouseout="unhiliteChange(evt)" onclick="changeMe(evt)" points="96.9613,60.0013 70.9802,45.0003 70.9802,75.0003" seed="5"/><polygon fill="rgb(224, 176, 255)" stroke="black" stroke-width="1" onmouseover="setChange(evt)" onmouseout="unhiliteChange(evt)" onclick="changeMe(evt)" points="126.961,60.0003 126.961,30.0003 96.9613,30.0013 96.9613,60.0003" seed="6"/><polygon fill="rgb(224, 176, 255)" stroke="black" stroke-width="1" onmouseover="setChange(evt)" onmouseout="unhiliteChange(evt)" onclick="changeMe(evt)" points="126.961,30.0003 126.96,0.000259399 96.9602,0.00125122 96.9613,30.0013" seed="7"/><polygon fill="rgb(147, 112, 219)" stroke="black" stroke-width="1" onmouseover="setChange(evt)" onmouseout="unhiliteChange(evt)" onclick="changeMe(evt)" points="96.9613,60.0013 96.9613,30.0013 70.9802,45.0013" seed="8"/><polygon fill="rgb(147, 112, 219)" stroke="black" stroke-width="1" onmouseover="setChange(evt)" onmouseout="unhiliteChange(evt)" onclick="changeMe(evt)" points="96.9613,30.0013 96.9602,0.00125122 70.9802,15.0023" seed="9"/><polygon fill="rgb(147, 112, 219)" stroke="black" stroke-width="1" onmouseover="setChange(evt)" onmouseout="unhiliteChange(evt)" onclick="changeMe(evt)" points="96.9613,30.0013 70.9802,15.0023 70.9812,45.0023" seed="10"/><polygon fill="rgb(147, 112, 219)" stroke="black" stroke-width="1" onmouseover="setChange(evt)" onmouseout="unhiliteChange(evt)" onclick="changeMe(evt)" points="152.941,14.9993 126.96,0.000259399 126.961,30.0003" seed="11"/><polygon fill="rgb(147, 112, 219)" stroke="black" stroke-width="1" onmouseover="setChange(evt)" onmouseout="unhiliteChange(evt)" onclick="changeMe(evt)" points="152.941,45.0003 126.961,30.0003 126.961,60.0003" seed="12"/><polygon fill="rgb(147, 112, 219)" stroke="black" stroke-width="1" onmouseover="setChange(evt)" onmouseout="unhiliteChange(evt)" onclick="changeMe(evt)" points="152.942,44.9993 152.941,14.9993 126.961,30.0003" seed="13"/><polygon fill="rgb(147, 112, 219)" stroke="black" stroke-width="1" onmouseover="setChange(evt)" onmouseout="unhiliteChange(evt)" onclick="changeMe(evt)" points="152.941,75.0003 152.941,45.0003 126.96,60.0003" seed="14"/><polygon fill="rgb(224, 176, 255)" stroke="black" stroke-width="1" onmouseover="setChange(evt)" onmouseout="unhiliteChange(evt)" onclick="changeMe(evt)" points="182.941,75.0003 182.941,45.0003 152.941,45.0003 152.941,75.0003" seed="15"/><polygon fill="rgb(224, 176, 255)" stroke="black" stroke-width="1" onmouseover="setChange(evt)" onmouseout="unhiliteChange(evt)" onclick="changeMe(evt)" points="182.942,44.9993 182.941,14.9993 152.941,14.9993 152.942,44.9993" seed="16"/><polygon fill="rgb(147, 112, 219)" stroke="black" stroke-width="1" onmouseover="setChange(evt)" onmouseout="unhiliteChange(evt)" onclick="changeMe(evt)" points="167.942,100.981 182.942,74.9993 152.942,75.0003" seed="17"/></g></svg>
