<?xml version="1.0" encoding="utf-8"?>
<svg xmlns="http://www.w3.org/2000/svg" id="mainSVG" pointer-events="all" width="223.923" height="208.924" EdgeLen="30" template="u3_7_tu" code="A12_6_1_2" copyright="Francis Hemsher, 2012">
	<polygon id="BorderPoly" fill="none" pointer-events="none" stroke="red" stroke-width="4" transform="" points="40.9822,-0.00025177 15.0012,14.9997 0.000244141,40.9798 0.000244141,70.9798 14.9992,96.9617 40.9792,111.962 55.9792,137.943 55.9792,167.943 40.9782,193.922 70.9782,193.924 96.9593,208.924 126.959,208.925 152.94,193.925 182.94,193.926 167.941,167.945 167.941,137.945 182.942,111.963 208.923,96.9628 223.923,70.9818 223.923,40.9818 208.923,15.0017 182.942,0.00174713 152.942,0.000747681 126.962,15.0007 96.9622,15.0007 70.9822,-0.00025177"/><g id="mainPolyG" transform=""><polygon id="mainPoly" fill="rgb(252, 194, 0)" stroke="black" onmouseover="setChange(evt)" onmouseout="unhiliteChange(evt)" onclick="changeMe(evt)" points="182.942,0.00174713 152.942,0.000747681 126.962,15.0007 111.962,40.9818 111.961,70.9818 126.961,96.9628 152.942,111.963 182.942,111.963 208.923,96.9628 223.923,70.9818 223.923,40.9818 208.923,15.0017" seed="0"/><polygon fill="rgb(41, 171, 135)" stroke="black" stroke-width="1" onmouseover="setChange(evt)" onmouseout="unhiliteChange(evt)" onclick="changeMe(evt)" points="70.9822,-0.00025177 40.9822,-0.00025177 15.0012,14.9997 0.000244141,40.9798 0.000244141,70.9798 14.9992,96.9617 40.9792,111.962 70.9802,111.962 96.9613,96.9628 111.961,70.9818 111.962,40.9818 96.9622,15.0007" seed="1"/><polygon fill="rgb(219, 112, 147)" stroke="black" stroke-width="1" onmouseover="setChange(evt)" onmouseout="unhiliteChange(evt)" onclick="changeMe(evt)" points="126.962,15.0017 96.9622,15.0007 111.962,40.9818" seed="2"/><polygon fill="rgb(219, 112, 147)" stroke="black" stroke-width="1" onmouseover="setChange(evt)" onmouseout="unhiliteChange(evt)" onclick="changeMe(evt)" points="126.961,96.9628 111.961,70.9818 96.9613,96.9628" seed="3"/><polygon fill="rgb(147, 112, 219)" stroke="black" stroke-width="1" onmouseover="setChange(evt)" onmouseout="unhiliteChange(evt)" onclick="changeMe(evt)" points="111.96,122.944 96.9613,96.9628 70.9802,111.962 85.9792,137.943" seed="4"/><polygon fill="rgb(147, 112, 219)" stroke="black" stroke-width="1" onmouseover="setChange(evt)" onmouseout="unhiliteChange(evt)" onclick="changeMe(evt)" points="152.942,111.962 126.961,96.9628 111.962,122.943 137.942,137.944" seed="5"/><polygon fill="rgb(224, 176, 255)" stroke="black" stroke-width="1" onmouseover="setChange(evt)" onmouseout="unhiliteChange(evt)" onclick="changeMe(evt)" points="137.941,137.944 111.96,122.944 85.9792,137.943 85.9792,167.943 111.959,182.944 137.941,167.944" seed="6"/><polygon fill="rgb(147, 112, 219)" stroke="black" stroke-width="1" onmouseover="setChange(evt)" onmouseout="unhiliteChange(evt)" onclick="changeMe(evt)" points="85.9792,137.944 55.9792,137.943 55.9792,167.943 85.9792,167.943" seed="7"/><polygon fill="rgb(147, 112, 219)" stroke="black" stroke-width="1" onmouseover="setChange(evt)" onmouseout="unhiliteChange(evt)" onclick="changeMe(evt)" points="111.959,182.944 85.9792,167.943 70.9782,193.924 96.9593,208.924" seed="8"/><polygon fill="rgb(147, 112, 219)" stroke="black" stroke-width="1" onmouseover="setChange(evt)" onmouseout="unhiliteChange(evt)" onclick="changeMe(evt)" points="152.94,193.925 137.941,167.944 111.959,182.943 126.959,208.925" seed="9"/><polygon fill="rgb(147, 112, 219)" stroke="black" stroke-width="1" onmouseover="setChange(evt)" onmouseout="unhiliteChange(evt)" onclick="changeMe(evt)" points="167.941,137.945 137.941,137.944 137.941,167.944 167.941,167.945" seed="10"/><polygon fill="rgb(219, 112, 147)" stroke="black" stroke-width="1" onmouseover="setChange(evt)" onmouseout="unhiliteChange(evt)" onclick="changeMe(evt)" points="85.9792,137.944 70.9802,111.963 55.9792,137.943" seed="11"/><polygon fill="rgb(219, 112, 147)" stroke="black" stroke-width="1" onmouseover="setChange(evt)" onmouseout="unhiliteChange(evt)" onclick="changeMe(evt)" points="126.961,96.9628 96.9613,96.9628 111.96,122.944" seed="12"/><polygon fill="rgb(219, 112, 147)" stroke="black" stroke-width="1" onmouseover="setChange(evt)" onmouseout="unhiliteChange(evt)" onclick="changeMe(evt)" points="85.9792,167.943 55.9802,167.942 70.9782,193.924" seed="13"/><polygon fill="rgb(219, 112, 147)" stroke="black" stroke-width="1" onmouseover="setChange(evt)" onmouseout="unhiliteChange(evt)" onclick="changeMe(evt)" points="126.958,208.925 111.959,182.943 96.9582,208.923" seed="14"/><polygon fill="rgb(219, 112, 147)" stroke="black" stroke-width="1" onmouseover="setChange(evt)" onmouseout="unhiliteChange(evt)" onclick="changeMe(evt)" points="167.941,167.945 137.941,167.944 152.94,193.925" seed="15"/><polygon fill="rgb(219, 112, 147)" stroke="black" stroke-width="1" onmouseover="setChange(evt)" onmouseout="unhiliteChange(evt)" onclick="changeMe(evt)" points="167.942,137.943 152.942,111.962 137.943,137.943" seed="16"/><polygon fill="rgb(219, 112, 147)" stroke="black" stroke-width="1" onmouseover="setChange(evt)" onmouseout="unhiliteChange(evt)" onclick="changeMe(evt)" points="70.9792,111.962 40.9802,111.961 55.9792,137.943" seed="17"/><polygon fill="rgb(219, 112, 147)" stroke="black" stroke-width="1" onmouseover="setChange(evt)" onmouseout="unhiliteChange(evt)" onclick="changeMe(evt)" points="167.942,137.943 182.942,111.962 152.942,111.962" seed="18"/><polygon fill="rgb(219, 112, 147)" stroke="black" stroke-width="1" onmouseover="setChange(evt)" onmouseout="unhiliteChange(evt)" onclick="changeMe(evt)" points="70.9782,193.924 55.9802,167.942 40.9782,193.922" seed="19"/><polygon fill="rgb(219, 112, 147)" stroke="black" stroke-width="1" onmouseover="setChange(evt)" onmouseout="unhiliteChange(evt)" onclick="changeMe(evt)" points="182.94,193.926 167.941,167.945 152.94,193.925" seed="20"/></g></svg>
