<?xml version="1.0" encoding="utf-8"?>
<svg xmlns="http://www.w3.org/2000/svg" id="mainSVG" pointer-events="all" width="286.866" height="324.905" EdgeLen="30" template="u6_92_tu" code="A12_18_8_3" copyright="Francis Hemsher, 2012">
	<polygon id="BorderPoly" fill="none" pointer-events="none" stroke="red" stroke-width="4" transform="" points="234.904,0.00149536 219.905,25.9815 193.924,40.9825 163.924,40.9815 137.942,25.9815 122.943,0.00050354 96.9639,15.0015 70.9828,0.00050354 40.9828,-0.00050354 15.0018,14.9995 0.000854492,40.9795 0.000854492,70.9795 14.9998,96.9615 40.9798,111.962 40.9809,141.963 14.9998,156.963 0.000854492,182.943 -0.000152588,212.943 14.9998,238.924 40.9809,253.924 40.9798,283.924 70.9809,283.924 96.9619,298.924 122.941,283.922 137.94,309.904 163.92,324.904 193.92,324.904 219.902,309.906 234.902,283.925 260.88,298.929 286.862,283.93 286.864,253.93 260.884,238.928 245.886,212.943 245.885,182.943 260.885,156.963 286.866,141.963 286.867,111.963 260.886,96.9625 245.886,70.9815 245.885,40.9815 260.885,15.0015"/>
	<g id="mainPolyG" transform=""><polygon id="mainPoly" fill="rgb(252, 194, 0)" stroke="black" onmouseover="setChange(evt)" onmouseout="unhiliteChange(evt)" onclick="changeMe(evt)" points="193.924,70.9825 163.924,70.9815 137.943,85.9815 122.943,111.963 122.943,141.963 137.943,167.943 163.924,182.943 193.924,182.943 219.904,167.943 234.904,141.963 234.905,111.963 219.905,85.9825" seed="0"/><polygon fill="rgb(224, 176, 255)" stroke="black" stroke-width="1" onmouseover="setChange(evt)" onmouseout="unhiliteChange(evt)" onclick="changeMe(evt)" points="193.924,40.9825 163.924,40.9815 163.924,70.9815 193.924,70.9825" seed="1"/><polygon fill="rgb(224, 176, 255)" stroke="black" stroke-width="1" onmouseover="setChange(evt)" onmouseout="unhiliteChange(evt)" onclick="changeMe(evt)" points="260.885,96.9625 245.886,70.9815 219.905,85.9825 234.905,111.963" seed="2"/><polygon fill="rgb(224, 176, 255)" stroke="black" stroke-width="1" onmouseover="setChange(evt)" onmouseout="unhiliteChange(evt)" onclick="changeMe(evt)" points="260.885,156.963 234.904,141.963 219.904,167.943 245.885,182.943" seed="3"/><polygon fill="rgb(224, 176, 255)" stroke="black" stroke-width="1" onmouseover="setChange(evt)" onmouseout="unhiliteChange(evt)" onclick="changeMe(evt)" points="193.923,182.943 163.924,182.943 163.923,212.942 193.923,212.943" seed="4"/><polygon fill="rgb(224, 176, 255)" stroke="black" stroke-width="1" onmouseover="setChange(evt)" onmouseout="unhiliteChange(evt)" onclick="changeMe(evt)" points="137.943,167.943 122.943,141.963 96.9619,156.963 111.962,182.943" seed="5"/><polygon fill="rgb(224, 176, 255)" stroke="black" stroke-width="1" onmouseover="setChange(evt)" onmouseout="unhiliteChange(evt)" onclick="changeMe(evt)" points="137.943,85.9815 111.963,70.9825 96.9619,96.9625 122.944,111.963" seed="6"/><polygon fill="rgb(41, 171, 135)" stroke="black" stroke-width="1" onmouseover="setChange(evt)" onmouseout="unhiliteChange(evt)" onclick="changeMe(evt)" points="163.924,40.9815 137.942,25.9815 111.962,40.9815 111.962,70.9815 137.943,85.9815 163.924,70.9815" seed="7"/><polygon fill="rgb(41, 171, 135)" stroke="black" stroke-width="1" onmouseover="setChange(evt)" onmouseout="unhiliteChange(evt)" onclick="changeMe(evt)" points="245.885,40.9815 219.905,25.9815 193.924,40.9815 193.924,70.9825 219.905,85.9825 245.885,70.9825" seed="8"/><polygon fill="rgb(41, 171, 135)" stroke="black" stroke-width="1" onmouseover="setChange(evt)" onmouseout="unhiliteChange(evt)" onclick="changeMe(evt)" points="286.867,111.963 260.886,96.9625 234.905,111.963 234.904,141.963 260.885,156.963 286.866,141.963" seed="9"/><polygon fill="rgb(41, 171, 135)" stroke="black" stroke-width="1" onmouseover="setChange(evt)" onmouseout="unhiliteChange(evt)" onclick="changeMe(evt)" points="245.886,182.943 219.904,167.943 193.924,182.943 193.924,212.943 219.905,227.943 245.886,212.943" seed="10"/><polygon fill="rgb(41, 171, 135)" stroke="black" stroke-width="1" onmouseover="setChange(evt)" onmouseout="unhiliteChange(evt)" onclick="changeMe(evt)" points="163.924,182.943 137.943,167.943 111.962,182.943 111.962,212.943 137.943,227.943 163.923,212.943" seed="11"/><polygon fill="rgb(41, 171, 135)" stroke="black" stroke-width="1" onmouseover="setChange(evt)" onmouseout="unhiliteChange(evt)" onclick="changeMe(evt)" points="122.943,111.963 96.9628,96.9615 70.9809,111.962 70.9809,141.962 96.9608,156.962 122.943,141.963" seed="12"/><polygon fill="rgb(0, 128, 128)" stroke="black" stroke-width="1" onmouseover="setChange(evt)" onmouseout="unhiliteChange(evt)" onclick="changeMe(evt)" points="70.9828,0.00050354 40.9828,-0.00050354 15.0018,14.9995 0.000854492,40.9795 0.000854492,70.9795 14.9998,96.9615 40.9798,111.962 70.9809,111.962 96.9619,96.9625 111.963,70.9825 111.963,40.9815 96.9639,15.0015" seed="13"/><polygon fill="rgb(0, 128, 128)" stroke="black" stroke-width="1" onmouseover="setChange(evt)" onmouseout="unhiliteChange(evt)" onclick="changeMe(evt)" points="70.9818,141.963 40.9809,141.963 14.9998,156.963 0.000854492,182.943 -0.000152588,212.943 14.9998,238.924 40.9809,253.924 70.9809,253.925 96.9619,238.925 111.962,212.943 111.962,182.943 96.9619,156.963" seed="14"/><polygon fill="rgb(224, 176, 255)" stroke="black" stroke-width="1" onmouseover="setChange(evt)" onmouseout="unhiliteChange(evt)" onclick="changeMe(evt)" points="193.923,212.943 163.924,212.942 163.922,242.942 193.922,242.943" seed="15"/><polygon fill="rgb(147, 112, 219)" stroke="black" stroke-width="1" onmouseover="setChange(evt)" onmouseout="unhiliteChange(evt)" onclick="changeMe(evt)" points="193.922,242.943 163.922,242.942 178.922,268.924" seed="16"/><polygon fill="rgb(147, 112, 219)" stroke="black" stroke-width="1" onmouseover="setChange(evt)" onmouseout="unhiliteChange(evt)" onclick="changeMe(evt)" points="178.922,268.924 163.922,242.942 148.922,268.922" seed="17"/><polygon fill="rgb(147, 112, 219)" stroke="black" stroke-width="1" onmouseover="setChange(evt)" onmouseout="unhiliteChange(evt)" onclick="changeMe(evt)" points="178.922,268.924 148.922,268.922 163.921,294.904" seed="18"/><polygon fill="rgb(147, 112, 219)" stroke="black" stroke-width="1" onmouseover="setChange(evt)" onmouseout="unhiliteChange(evt)" onclick="changeMe(evt)" points="193.921,294.904 178.922,268.924 163.921,294.904" seed="19"/><polygon fill="rgb(147, 112, 219)" stroke="black" stroke-width="1" onmouseover="setChange(evt)" onmouseout="unhiliteChange(evt)" onclick="changeMe(evt)" points="208.922,268.925 178.922,268.924 193.921,294.904" seed="20"/><polygon fill="rgb(147, 112, 219)" stroke="black" stroke-width="1" onmouseover="setChange(evt)" onmouseout="unhiliteChange(evt)" onclick="changeMe(evt)" points="208.922,268.925 193.923,242.943 178.922,268.924" seed="21"/><polygon fill="rgb(224, 176, 255)" stroke="black" stroke-width="1" onmouseover="setChange(evt)" onmouseout="unhiliteChange(evt)" onclick="changeMe(evt)" points="163.922,242.942 137.942,227.942 122.941,253.923 148.922,268.922" seed="22"/><polygon fill="rgb(224, 176, 255)" stroke="black" stroke-width="1" onmouseover="setChange(evt)" onmouseout="unhiliteChange(evt)" onclick="changeMe(evt)" points="163.921,294.904 148.922,268.922 122.941,283.922 137.94,309.904" seed="23"/><polygon fill="rgb(224, 176, 255)" stroke="black" stroke-width="1" onmouseover="setChange(evt)" onmouseout="unhiliteChange(evt)" onclick="changeMe(evt)" points="193.921,294.904 163.921,294.904 163.92,324.904 193.92,324.904" seed="24"/><polygon fill="rgb(224, 176, 255)" stroke="black" stroke-width="1" onmouseover="setChange(evt)" onmouseout="unhiliteChange(evt)" onclick="changeMe(evt)" points="234.902,283.925 208.922,268.925 193.921,294.904 219.902,309.906" seed="25"/><polygon fill="rgb(224, 176, 255)" stroke="black" stroke-width="1" onmouseover="setChange(evt)" onmouseout="unhiliteChange(evt)" onclick="changeMe(evt)" points="234.903,253.926 219.904,227.945 193.923,242.943 208.922,268.925" seed="26"/><polygon fill="rgb(224, 176, 255)" stroke="black" stroke-width="1" onmouseover="setChange(evt)" onmouseout="unhiliteChange(evt)" onclick="changeMe(evt)" points="70.9798,111.962 40.9798,111.962 40.9798,141.962 70.9798,141.962" seed="27"/><polygon fill="rgb(224, 176, 255)" stroke="black" stroke-width="1" onmouseover="setChange(evt)" onmouseout="unhiliteChange(evt)" onclick="changeMe(evt)" points="70.9809,253.925 40.9809,253.924 40.9798,283.924 70.9809,283.924" seed="28"/><polygon fill="rgb(224, 176, 255)" stroke="black" stroke-width="1" onmouseover="setChange(evt)" onmouseout="unhiliteChange(evt)" onclick="changeMe(evt)" points="137.942,25.9815 122.943,0.00050354 96.9619,15.0015 111.962,40.9815" seed="29"/><polygon fill="rgb(224, 176, 255)" stroke="black" stroke-width="1" onmouseover="setChange(evt)" onmouseout="unhiliteChange(evt)" onclick="changeMe(evt)" points="260.885,15.0015 234.904,0.00149536 219.905,25.9815 245.885,40.9815" seed="30"/><polygon fill="rgb(224, 176, 255)" stroke="black" stroke-width="1" onmouseover="setChange(evt)" onmouseout="unhiliteChange(evt)" onclick="changeMe(evt)" points="260.884,238.928 245.886,212.946 219.904,227.945 234.902,253.925" seed="31"/><polygon fill="rgb(41, 171, 135)" stroke="black" stroke-width="1" onmouseover="setChange(evt)" onmouseout="unhiliteChange(evt)" onclick="changeMe(evt)" points="286.864,253.93 260.884,238.928 234.902,253.925 234.9,283.925 260.88,298.929 286.862,283.93" seed="32"/><polygon fill="rgb(147, 112, 219)" stroke="black" stroke-width="1" onmouseover="setChange(evt)" onmouseout="unhiliteChange(evt)" onclick="changeMe(evt)" points="163.924,242.943 163.923,212.943 137.943,227.943" seed="33"/><polygon fill="rgb(147, 112, 219)" stroke="black" stroke-width="1" onmouseover="setChange(evt)" onmouseout="unhiliteChange(evt)" onclick="changeMe(evt)" points="219.905,227.943 193.924,212.943 193.924,242.943" seed="34"/><polygon fill="rgb(147, 112, 219)" stroke="black" stroke-width="1" onmouseover="setChange(evt)" onmouseout="unhiliteChange(evt)" onclick="changeMe(evt)" points="234.901,283.927 234.903,253.926 208.922,268.925" seed="35"/><polygon fill="rgb(147, 112, 219)" stroke="black" stroke-width="1" onmouseover="setChange(evt)" onmouseout="unhiliteChange(evt)" onclick="changeMe(evt)" points="219.901,309.906 193.921,294.904 193.919,324.904" seed="36"/><polygon fill="rgb(147, 112, 219)" stroke="black" stroke-width="1" onmouseover="setChange(evt)" onmouseout="unhiliteChange(evt)" onclick="changeMe(evt)" points="163.92,324.904 163.921,294.904 137.94,309.903" seed="37"/><polygon fill="rgb(147, 112, 219)" stroke="black" stroke-width="1" onmouseover="setChange(evt)" onmouseout="unhiliteChange(evt)" onclick="changeMe(evt)" points="148.922,268.922 122.941,253.923 122.941,283.922" seed="38"/><polygon fill="rgb(41, 171, 135)" stroke="black" stroke-width="1" onmouseover="setChange(evt)" onmouseout="unhiliteChange(evt)" onclick="changeMe(evt)" points="122.943,253.925 96.9619,238.925 70.9809,253.925 70.9809,283.924 96.9619,298.924 122.943,283.924" seed="39"/><polygon fill="rgb(224, 176, 255)" stroke="black" stroke-width="1" onmouseover="setChange(evt)" onmouseout="unhiliteChange(evt)" onclick="changeMe(evt)" points="137.943,227.945 111.962,212.943 96.9619,238.925 122.942,253.925" seed="40"/></g>
</svg>
