<?xml version="1.0" encoding="utf-8"?>
<svg xmlns="http://www.w3.org/2000/svg" id="mainSVG" pointer-events="all" width="141.963" height="178.924" EdgeLen="30" template="u5_287_tu" code="A12_4_0_1" copyright="Francis Hemsher, 2012">
	<polygon id="BorderPoly" fill="none" pointer-events="none" stroke="red" stroke-width="4" transform="" points="55.9815,15.001 30.0015,-7.62939e-006 0.000991821,-7.62939e-006 14.9995,25.982 14.9995,55.982 -7.62939e-006,81.962 30.0005,81.962 15,107.943 14.9995,137.943 29.9995,163.923 55.9805,178.923 85.9805,178.924 111.961,163.924 126.961,137.943 126.961,107.943 111.961,81.962 141.961,81.962 126.961,55.982 126.961,25.982 141.964,0.0039978 111.962,0.00199127 85.9815,15.001"/>
	<g id="mainPolyG" transform=""><polygon id="mainPoly" fill="rgb(252, 194, 0)" stroke="black" onmouseover="setChange(evt)" onmouseout="unhiliteChange(evt)" onclick="changeMe(evt)" points="85.9805,66.962 55.9805,66.962 30.0005,81.962 15,107.943 14.9995,137.943 29.9995,163.923 55.9805,178.923 85.9805,178.924 111.961,163.924 126.961,137.943 126.961,107.943 111.961,81.962" seed="0"/><polygon fill="rgb(224, 176, 255)" stroke="black" stroke-width="1" onmouseover="setChange(evt)" onmouseout="unhiliteChange(evt)" onclick="changeMe(evt)" points="55.9805,66.962 40.9805,40.982 14.9995,55.982 30.0005,81.962" seed="1"/><polygon fill="rgb(224, 176, 255)" stroke="black" stroke-width="1" onmouseover="setChange(evt)" onmouseout="unhiliteChange(evt)" onclick="changeMe(evt)" points="126.961,55.982 100.98,40.982 85.9805,66.963 111.961,81.962" seed="2"/><polygon fill="rgb(147, 112, 219)" stroke="black" stroke-width="1" onmouseover="setChange(evt)" onmouseout="unhiliteChange(evt)" onclick="changeMe(evt)" points="85.9805,66.962 70.9815,40.982 55.9805,66.962" seed="3"/><polygon fill="rgb(147, 112, 219)" stroke="black" stroke-width="1" onmouseover="setChange(evt)" onmouseout="unhiliteChange(evt)" onclick="changeMe(evt)" points="70.9815,40.982 40.9815,40.981 55.9805,66.962" seed="4"/><polygon fill="rgb(147, 112, 219)" stroke="black" stroke-width="1" onmouseover="setChange(evt)" onmouseout="unhiliteChange(evt)" onclick="changeMe(evt)" points="70.9815,40.982 55.9815,15.001 40.9815,40.981" seed="5"/><polygon fill="rgb(147, 112, 219)" stroke="black" stroke-width="1" onmouseover="setChange(evt)" onmouseout="unhiliteChange(evt)" onclick="changeMe(evt)" points="85.9815,15.001 55.9815,15.001 70.9805,40.982" seed="6"/><polygon fill="rgb(147, 112, 219)" stroke="black" stroke-width="1" onmouseover="setChange(evt)" onmouseout="unhiliteChange(evt)" onclick="changeMe(evt)" points="100.98,40.983 85.9815,15.002 70.9805,40.982" seed="7"/><polygon fill="rgb(147, 112, 219)" stroke="black" stroke-width="1" onmouseover="setChange(evt)" onmouseout="unhiliteChange(evt)" onclick="changeMe(evt)" points="100.98,40.983 70.9805,40.982 85.9795,66.964" seed="8"/><polygon fill="rgb(147, 112, 219)" stroke="black" stroke-width="1" onmouseover="setChange(evt)" onmouseout="unhiliteChange(evt)" onclick="changeMe(evt)" points="40.9805,40.982 14.9995,25.982 14.9995,55.982" seed="9"/><polygon fill="rgb(147, 112, 219)" stroke="black" stroke-width="1" onmouseover="setChange(evt)" onmouseout="unhiliteChange(evt)" onclick="changeMe(evt)" points="126.961,55.982 126.961,25.982 100.98,40.982" seed="10"/><polygon fill="rgb(224, 176, 255)" stroke="black" stroke-width="1" onmouseover="setChange(evt)" onmouseout="unhiliteChange(evt)" onclick="changeMe(evt)" points="55.9825,15.001 30.0015,-7.62939e-006 15.001,25.981 40.9815,40.981" seed="11"/><polygon fill="rgb(224, 176, 255)" stroke="black" stroke-width="1" onmouseover="setChange(evt)" onmouseout="unhiliteChange(evt)" onclick="changeMe(evt)" points="126.962,25.984 111.962,0.00199127 85.9815,15.002 100.98,40.983" seed="12"/><polygon fill="rgb(147, 112, 219)" stroke="black" stroke-width="1" onmouseover="setChange(evt)" onmouseout="unhiliteChange(evt)" onclick="changeMe(evt)" points="30.0015,-7.62939e-006 0.000991821,-7.62939e-006 15.001,25.981" seed="13"/><polygon fill="rgb(147, 112, 219)" stroke="black" stroke-width="1" onmouseover="setChange(evt)" onmouseout="unhiliteChange(evt)" onclick="changeMe(evt)" points="141.964,0.0039978 111.964,0.00299072 126.962,25.984" seed="14"/><polygon fill="rgb(147, 112, 219)" stroke="black" stroke-width="1" onmouseover="setChange(evt)" onmouseout="unhiliteChange(evt)" onclick="changeMe(evt)" points="30.0005,81.962 14.9995,55.982 -7.62939e-006,81.962" seed="15"/><polygon fill="rgb(147, 112, 219)" stroke="black" stroke-width="1" onmouseover="setChange(evt)" onmouseout="unhiliteChange(evt)" onclick="changeMe(evt)" points="141.961,81.962 126.961,55.982 111.961,81.963" seed="16"/></g>
</svg>
