<?xml version="1.0" encoding="utf-8" ?>

		<svg xmlns="http://www.w3.org/2000/svg" id="mainSVG" pointer-events="all" onkeyup="attachKey(evt)" width="147.955" height="198.313" EdgeLen="30" template="A12_8_2_R" >

		<polygon id="BorderPoly" fill="none" pointer-events="none" stroke="red" stroke-width="4" transform="" points="52.7645,0.000495911 22.7645,0 15,28.9785 7.62939e-006,54.9595 21.2135,76.1725 36.2125,102.153 65.1915,94.3885 50.1905,120.369 65.1905,146.35 80.1895,172.332 95.1895,198.313 125.19,198.314 140.19,172.332 147.955,143.354 132.956,117.373 117.957,91.3925 102.957,65.4105 117.957,39.4295 88.9775,47.1945 73.9775,21.2135" />
		<g id="mainPolyG" transform=""><polygon id="mainPoly" fill="rgb(252, 194, 0)" stroke="black" onmouseover="setChange(evt)" onmouseout="unhiliteChange(evt)" onclick="changeMe(evt)" points="73.9775,21.2135 43.9775,21.2135 28.9775,47.1945 43.9775,73.1755 73.9775,73.1755 88.9775,47.1945" seed="0" /><polygon fill="rgb(91, 146, 229)" stroke="black" stroke-width="1" onmouseover="setChange(evt)" onmouseout="unhiliteChange(evt)" onclick="changeMe(evt)" transform="" points="52.7645,0.000495911 22.7645,0 43.9775,21.2135 73.9775,21.2135" seed="1" /><polygon fill="rgb(91, 146, 229)" stroke="black" stroke-width="1" onmouseover="setChange(evt)" onmouseout="unhiliteChange(evt)" onclick="changeMe(evt)" transform="" points="28.9775,47.1945 43.9775,21.2135 15,28.9785 7.62939e-006,54.9595" seed="2" /><polygon fill="rgb(91, 146, 229)" stroke="black" stroke-width="1" onmouseover="setChange(evt)" onmouseout="unhiliteChange(evt)" onclick="changeMe(evt)" transform="" points="43.9775,73.1755 28.9775,47.1945 21.2135,76.1725 36.2125,102.153" seed="3" /><polygon fill="rgb(91, 146, 229)" stroke="black" stroke-width="1" onmouseover="setChange(evt)" onmouseout="unhiliteChange(evt)" onclick="changeMe(evt)" transform="" points="73.9775,73.1755 43.9775,73.1755 65.1915,94.3885 95.1915,94.3895" seed="4" /><polygon fill="rgb(91, 146, 229)" stroke="black" stroke-width="1" onmouseover="setChange(evt)" onmouseout="unhiliteChange(evt)" onclick="changeMe(evt)" transform="" points="102.957,65.4105 117.957,39.4295 88.9775,47.1945 73.9775,73.1755" seed="5" /><polygon fill="rgb(147, 112, 219)" stroke="black" stroke-width="1" onmouseover="setChange(evt)" onmouseout="unhiliteChange(evt)" onclick="changeMe(evt)" points="95.1915,94.3885 102.957,65.4105 73.9785,73.1755" seed="6" /><polygon fill="rgb(147, 112, 219)" stroke="black" stroke-width="1" onmouseover="setChange(evt)" onmouseout="unhiliteChange(evt)" onclick="changeMe(evt)" points="43.9775,21.2135 22.765,0.000495911 15,28.9785" seed="7" /><polygon fill="rgb(147, 112, 219)" stroke="black" stroke-width="1" onmouseover="setChange(evt)" onmouseout="unhiliteChange(evt)" onclick="changeMe(evt)" points="21.214,76.1725 28.9775,47.1945 0.00050354,54.9595" seed="8" /><polygon fill="rgb(147, 112, 219)" stroke="black" stroke-width="1" onmouseover="setChange(evt)" onmouseout="unhiliteChange(evt)" onclick="changeMe(evt)" points="65.1905,94.3895 43.9775,73.1755 36.2125,102.153" seed="9" /><polygon fill="rgb(147, 112, 219)" stroke="black" stroke-width="1" onmouseover="setChange(evt)" onmouseout="unhiliteChange(evt)" onclick="changeMe(evt)" points="95.1915,94.3895 65.1915,94.3885 80.1905,120.369" seed="10" /><polygon fill="rgb(147, 112, 219)" stroke="black" stroke-width="1" onmouseover="setChange(evt)" onmouseout="unhiliteChange(evt)" onclick="changeMe(evt)" points="110.191,120.37 95.1915,94.3895 80.1905,120.369" seed="11" /><polygon fill="rgb(147, 112, 219)" stroke="black" stroke-width="1" onmouseover="setChange(evt)" onmouseout="unhiliteChange(evt)" onclick="changeMe(evt)" points="80.1905,120.369 65.1915,94.3885 50.1905,120.369" seed="12" /><polygon fill="rgb(147, 112, 219)" stroke="black" stroke-width="1" onmouseover="setChange(evt)" onmouseout="unhiliteChange(evt)" onclick="changeMe(evt)" points="80.1905,120.369 50.1905,120.369 65.1905,146.35" seed="13" /><polygon fill="rgb(41, 171, 135)" stroke="black" stroke-width="1" onmouseover="setChange(evt)" onmouseout="unhiliteChange(evt)" onclick="changeMe(evt)" points="110.191,120.37 80.1905,120.369 65.1905,146.35 80.1895,172.332 110.19,172.332 125.191,146.352" seed="14" /><polygon fill="rgb(91, 146, 229)" stroke="black" stroke-width="1" onmouseover="setChange(evt)" onmouseout="unhiliteChange(evt)" onclick="changeMe(evt)" transform="" points="117.957,91.3925 102.957,65.4115 95.1915,94.3895 110.191,120.37" seed="15" /><polygon fill="rgb(91, 146, 229)" stroke="black" stroke-width="1" onmouseover="setChange(evt)" onmouseout="unhiliteChange(evt)" onclick="changeMe(evt)" transform="" points="132.956,117.373 117.957,91.3925 110.191,120.37 125.191,146.352" seed="16" /><polygon fill="rgb(147, 112, 219)" stroke="black" stroke-width="1" onmouseover="setChange(evt)" onmouseout="unhiliteChange(evt)" onclick="changeMe(evt)" points="110.19,172.332 80.1895,172.332 95.1895,198.313" seed="17" /><polygon fill="rgb(147, 112, 219)" stroke="black" stroke-width="1" onmouseover="setChange(evt)" onmouseout="unhiliteChange(evt)" onclick="changeMe(evt)" points="140.19,172.332 125.191,146.352 110.19,172.332" seed="18" /><polygon fill="rgb(147, 112, 219)" stroke="black" stroke-width="1" onmouseover="setChange(evt)" onmouseout="unhiliteChange(evt)" onclick="changeMe(evt)" points="125.19,198.314 110.19,172.332 95.1895,198.313" seed="19" /><polygon fill="rgb(147, 112, 219)" stroke="black" stroke-width="1" onmouseover="setChange(evt)" onmouseout="unhiliteChange(evt)" onclick="changeMe(evt)" points="140.19,172.332 110.19,172.332 125.19,198.314" seed="20" /><polygon fill="rgb(91, 146, 229)" stroke="black" stroke-width="1" onmouseover="setChange(evt)" onmouseout="unhiliteChange(evt)" onclick="changeMe(evt)" transform="" points="147.955,143.354 132.956,117.373 125.191,146.352 140.19,172.333" seed="21" /></g>


		</svg>
