<svg xmlns="http://www.w3.org/2000/svg" id="mainSVG" pointer-events="all" width="312.846" height="298.923" EdgeLen="30" template="u4_25_tu" code="A12_21_8_1" copyright="Francis Hemsher, 2012">
	<polygon id="BorderPoly" fill="none" pointer-events="none" stroke="red" stroke-width="4" transform="" points="66.9637,0.000244141 40.9828,14.9992 25.9828,40.9802 25.9828,70.9802 40.9818,96.9612 66.9617,111.961 66.9617,141.961 66.9617,141.961 40.9808,156.961 15.0007,141.961 -0.000244141,167.942 25.9808,182.942 25.9808,212.942 -0.000244141,227.942 14.9998,253.922 14.9998,283.922 40.9808,298.922 66.9617,283.922 96.9617,283.923 122.943,298.923 148.923,283.923 148.923,253.923 163.923,227.942 163.923,227.943 189.903,212.942 189.904,212.943 219.902,212.943 245.882,227.944 271.865,212.946 271.865,182.945 245.885,167.944 260.885,141.963 286.867,156.964 312.847,141.964 312.847,111.964 286.867,96.9652 271.867,70.9822 245.886,85.9822 219.906,70.9812 189.906,70.9812 163.925,85.9822 137.945,70.9812 137.945,40.9812 122.944,14.9992 96.9637,0.000244141"/><g id="mainPolyG" transform=""><polygon id="mainPoly" fill="rgb(252, 194, 0)" stroke="none" stroke-width="1" onmouseover="setChange(evt)" onmouseout="unhiliteChange(evt)" onclick="changeMe(evt)" points="137.942,212.942 137.943,182.942 122.943,156.961 96.9617,141.961 66.9617,141.961 40.9808,156.961 25.9808,182.942 25.9808,212.942 40.9808,238.922 66.9617,253.922 96.9617,253.923 122.942,238.923" seed="0"/><polygon fill="rgb(41, 171, 135)" stroke="black" stroke-width="1" onmouseover="setChange(evt)" onmouseout="unhiliteChange(evt)" onclick="changeMe(evt)" points="122.943,96.9612 148.924,111.961 148.924,141.961 122.943,156.961 96.9617,141.961 96.9617,111.961" seed="1"/><polygon fill="rgb(41, 171, 135)" stroke="black" stroke-width="1" onmouseover="setChange(evt)" onmouseout="unhiliteChange(evt)" onclick="changeMe(evt)" points="189.904,182.943 189.904,212.943 163.923,227.943 137.942,212.942 137.943,182.942 163.924,167.942" seed="2"/><polygon fill="rgb(41, 171, 135)" stroke="black" stroke-width="1" onmouseover="setChange(evt)" onmouseout="unhiliteChange(evt)" onclick="changeMe(evt)" points="148.923,283.923 122.943,298.923 96.9617,283.923 96.9617,253.923 122.942,238.922 148.923,253.923" seed="3"/><polygon fill="rgb(41, 171, 135)" stroke="black" stroke-width="1" onmouseover="setChange(evt)" onmouseout="unhiliteChange(evt)" onclick="changeMe(evt)" points="40.9808,298.922 14.9998,283.922 14.9998,253.922 40.9808,238.922 66.9617,253.922 66.9617,283.922" seed="4"/><polygon fill="rgb(224, 176, 255)" stroke="black" stroke-width="1" onmouseover="setChange(evt)" onmouseout="unhiliteChange(evt)" onclick="changeMe(evt)" points="96.9617,111.962 96.9617,141.961 66.9617,141.961 66.9617,111.961" seed="5"/><polygon fill="rgb(224, 176, 255)" stroke="black" stroke-width="1" onmouseover="setChange(evt)" onmouseout="unhiliteChange(evt)" onclick="changeMe(evt)" points="163.923,167.942 137.943,182.942 122.943,156.961 148.924,141.961" seed="6"/><polygon fill="rgb(224, 176, 255)" stroke="black" stroke-width="1" onmouseover="setChange(evt)" onmouseout="unhiliteChange(evt)" onclick="changeMe(evt)" points="148.923,253.922 122.942,238.923 137.942,212.942 163.923,227.942" seed="7"/><polygon fill="rgb(224, 176, 255)" stroke="black" stroke-width="1" onmouseover="setChange(evt)" onmouseout="unhiliteChange(evt)" onclick="changeMe(evt)" points="66.9608,283.922 66.9617,253.922 96.9608,253.923 96.9608,283.923" seed="8"/><polygon fill="rgb(224, 176, 255)" stroke="black" stroke-width="1" onmouseover="setChange(evt)" onmouseout="unhiliteChange(evt)" onclick="changeMe(evt)" points="-0.000244141,227.942 25.9808,212.942 40.9808,238.922 14.9998,253.923" seed="9"/><polygon fill="rgb(224, 176, 255)" stroke="black" stroke-width="1" onmouseover="setChange(evt)" onmouseout="unhiliteChange(evt)" onclick="changeMe(evt)" points="15.0007,141.961 40.9808,156.961 25.9818,182.942 -0.000244141,167.942" seed="10"/><polygon fill="rgb(224, 176, 255)" stroke="black" stroke-width="1" onmouseover="setChange(evt)" onmouseout="unhiliteChange(evt)" onclick="changeMe(evt)" points="66.9628,81.9612 66.9617,111.961 96.9617,111.962 96.9628,81.9622" seed="11"/><polygon fill="rgb(41, 171, 135)" stroke="black" stroke-width="1" onmouseover="setChange(evt)" onmouseout="unhiliteChange(evt)" onclick="changeMe(evt)" points="51.9637,55.9802 66.9637,29.9992 96.9637,30.0002 111.964,55.9812 96.9628,81.9622 66.9628,81.9612" seed="12"/><polygon fill="rgb(224, 176, 255)" stroke="black" stroke-width="1" onmouseover="setChange(evt)" onmouseout="unhiliteChange(evt)" onclick="changeMe(evt)" points="51.9637,55.9802 25.9828,70.9802 40.9818,96.9612 66.9628,81.9612" seed="13"/><polygon fill="rgb(224, 176, 255)" stroke="black" stroke-width="1" onmouseover="setChange(evt)" onmouseout="unhiliteChange(evt)" onclick="changeMe(evt)" points="66.9628,30.0002 40.9828,14.9992 25.9828,40.9802 51.9637,55.9802" seed="14"/><polygon fill="rgb(224, 176, 255)" stroke="black" stroke-width="1" onmouseover="setChange(evt)" onmouseout="unhiliteChange(evt)" onclick="changeMe(evt)" points="96.9628,30.0002 96.9637,0.000244141 66.9637,0.000244141 66.9637,29.9992" seed="15"/><polygon fill="rgb(224, 176, 255)" stroke="black" stroke-width="1" onmouseover="setChange(evt)" onmouseout="unhiliteChange(evt)" onclick="changeMe(evt)" points="111.963,55.9812 137.945,40.9812 122.944,14.9992 96.9637,30.0002" seed="16"/><polygon fill="rgb(224, 176, 255)" stroke="black" stroke-width="1" onmouseover="setChange(evt)" onmouseout="unhiliteChange(evt)" onclick="changeMe(evt)" points="96.9637,81.9612 122.944,96.9622 137.945,70.9812 111.964,55.9812" seed="17"/><polygon fill="rgb(147, 112, 219)" stroke="black" stroke-width="1" onmouseover="setChange(evt)" onmouseout="unhiliteChange(evt)" onclick="changeMe(evt)" points="122.944,15.0002 96.9628,30.0002 96.9637,0.000244141" seed="18"/><polygon fill="rgb(147, 112, 219)" stroke="black" stroke-width="1" onmouseover="setChange(evt)" onmouseout="unhiliteChange(evt)" onclick="changeMe(evt)" points="137.944,70.9812 111.963,55.9812 137.944,40.9812" seed="19"/><polygon fill="rgb(147, 112, 219)" stroke="black" stroke-width="1" onmouseover="setChange(evt)" onmouseout="unhiliteChange(evt)" onclick="changeMe(evt)" points="96.9628,111.962 96.9637,81.9612 122.944,96.9622" seed="20"/><polygon fill="rgb(147, 112, 219)" stroke="black" stroke-width="1" onmouseover="setChange(evt)" onmouseout="unhiliteChange(evt)" onclick="changeMe(evt)" points="66.9628,111.961 40.9818,96.9612 66.9628,81.9612" seed="21"/><polygon fill="rgb(147, 112, 219)" stroke="black" stroke-width="1" onmouseover="setChange(evt)" onmouseout="unhiliteChange(evt)" onclick="changeMe(evt)" points="25.9828,70.9802 25.9828,40.9802 51.9637,55.9802" seed="22"/><polygon fill="rgb(147, 112, 219)" stroke="black" stroke-width="1" onmouseover="setChange(evt)" onmouseout="unhiliteChange(evt)" onclick="changeMe(evt)" points="40.9828,14.9992 66.9637,0.000244141 66.9637,30.0002" seed="23"/><polygon fill="rgb(224, 176, 255)" stroke="black" stroke-width="1" onmouseover="setChange(evt)" onmouseout="unhiliteChange(evt)" onclick="changeMe(evt)" points="148.924,111.962 122.944,96.9622 137.944,70.9822 163.925,85.9822" seed="24"/><polygon fill="rgb(224, 176, 255)" stroke="black" stroke-width="1" onmouseover="setChange(evt)" onmouseout="unhiliteChange(evt)" onclick="changeMe(evt)" points="189.905,100.983 163.925,85.9822 148.924,111.962 174.904,126.964" seed="25"/><polygon fill="rgb(147, 112, 219)" stroke="black" stroke-width="1" onmouseover="setChange(evt)" onmouseout="unhiliteChange(evt)" onclick="changeMe(evt)" points="174.904,126.961 148.924,111.961 148.924,141.961" seed="26"/><polygon fill="rgb(224, 176, 255)" stroke="black" stroke-width="1" onmouseover="setChange(evt)" onmouseout="unhiliteChange(evt)" onclick="changeMe(evt)" points="174.905,126.961 148.924,141.961 163.923,167.942 189.904,152.942" seed="27"/><polygon fill="rgb(41, 171, 135)" stroke="black" stroke-width="1" onmouseover="setChange(evt)" onmouseout="unhiliteChange(evt)" onclick="changeMe(evt)" points="219.905,100.981 234.905,126.963 219.905,152.943 189.904,152.942 174.905,126.961 189.905,100.981" seed="28"/><polygon fill="rgb(224, 176, 255)" stroke="black" stroke-width="1" onmouseover="setChange(evt)" onmouseout="unhiliteChange(evt)" onclick="changeMe(evt)" points="219.905,100.981 219.906,70.9812 189.906,70.9812 189.905,100.981" seed="29"/><polygon fill="rgb(224, 176, 255)" stroke="black" stroke-width="1" onmouseover="setChange(evt)" onmouseout="unhiliteChange(evt)" onclick="changeMe(evt)" points="234.905,126.962 260.886,111.963 245.886,85.9822 219.905,100.981" seed="30"/><polygon fill="rgb(224, 176, 255)" stroke="black" stroke-width="1" onmouseover="setChange(evt)" onmouseout="unhiliteChange(evt)" onclick="changeMe(evt)" points="219.904,152.943 245.885,167.944 260.885,141.963 234.905,126.963" seed="31"/><polygon fill="rgb(224, 176, 255)" stroke="black" stroke-width="1" onmouseover="setChange(evt)" onmouseout="unhiliteChange(evt)" onclick="changeMe(evt)" points="189.905,152.942 189.904,182.942 219.904,182.943 219.905,152.943" seed="32"/><polygon fill="rgb(147, 112, 219)" stroke="black" stroke-width="1" onmouseover="setChange(evt)" onmouseout="unhiliteChange(evt)" onclick="changeMe(evt)" points="189.906,70.9832 189.905,100.983 163.925,85.9822" seed="33"/><polygon fill="rgb(147, 112, 219)" stroke="black" stroke-width="1" onmouseover="setChange(evt)" onmouseout="unhiliteChange(evt)" onclick="changeMe(evt)" points="245.886,85.9822 219.905,100.981 219.906,70.9812" seed="34"/><polygon fill="rgb(147, 112, 219)" stroke="black" stroke-width="1" onmouseover="setChange(evt)" onmouseout="unhiliteChange(evt)" onclick="changeMe(evt)" points="260.885,141.963 234.905,126.962 260.886,111.962" seed="35"/><polygon fill="rgb(147, 112, 219)" stroke="black" stroke-width="1" onmouseover="setChange(evt)" onmouseout="unhiliteChange(evt)" onclick="changeMe(evt)" points="219.904,182.942 219.904,152.943 245.885,167.944" seed="36"/><polygon fill="rgb(147, 112, 219)" stroke="black" stroke-width="1" onmouseover="setChange(evt)" onmouseout="unhiliteChange(evt)" onclick="changeMe(evt)" points="163.924,167.941 189.905,152.942 189.904,182.942" seed="37"/><polygon fill="rgb(224, 176, 255)" stroke="black" stroke-width="1" onmouseover="setChange(evt)" onmouseout="unhiliteChange(evt)" onclick="changeMe(evt)" points="271.867,70.9822 286.867,96.9652 260.886,111.963 245.886,85.9842" seed="38"/><polygon fill="rgb(41, 171, 135)" stroke="black" stroke-width="1" onmouseover="setChange(evt)" onmouseout="unhiliteChange(evt)" onclick="changeMe(evt)" points="312.847,111.964 286.867,96.9632 260.886,111.962 260.885,141.962 286.867,156.964 312.847,141.964" seed="39"/><polygon fill="rgb(41, 171, 135)" stroke="black" stroke-width="1" onmouseover="setChange(evt)" onmouseout="unhiliteChange(evt)" onclick="changeMe(evt)" points="271.865,212.946 271.865,182.945 245.885,167.944 219.903,182.943 219.902,212.943 245.882,227.944" seed="40"/><polygon fill="rgb(224, 176, 255)" stroke="black" stroke-width="1" onmouseover="setChange(evt)" onmouseout="unhiliteChange(evt)" onclick="changeMe(evt)" points="189.903,212.942 189.904,182.942 219.903,182.943 219.903,212.943" seed="41"/></g></svg>
