<svg xmlns="http://www.w3.org/2000/svg" id="mainSVG" pointer-events="all" width="200" height="200" EdgeLen="30" template="u4_7_tu" code="A12_0_7_0" copyright="Francis Hemsher, 2012">
	<polygon id="BorderPoly" fill="none" pointer-events="none" stroke="red" stroke-width="4" transform="" points="15,-0.00025177 7.62939e-006,25.9808 15,51.9617 0.00050354,77.9427 15.0005,103.923 7.62939e-006,129.904 14.9995,155.885 45.0005,155.886 60.0005,181.866 90.0005,181.866 105.001,207.847 135.001,207.847 150.001,181.866 135.001,155.885 150.001,129.904 135.001,103.924 135.001,103.924 150.001,77.9427 135.001,51.9617 105.001,51.9617 90.0005,25.9818 59.9995,25.9808 44.9995,-0.00025177"/><g id="mainPolyG" transform=""><polygon id="mainPoly" fill="rgb(224, 176, 255)" stroke="none" stroke-width="1" onmouseover="setChange(evt)" onmouseout="unhiliteChange(evt)" onclick="changeMe(evt)" points="105.001,103.924 90.0005,77.9427 60.0005,77.9427 45.0005,103.924 60.0005,129.905 90.0005,129.905" seed="0"/><polygon fill="rgb(224, 176, 255)" stroke="black" stroke-width="1" onmouseover="setChange(evt)" onmouseout="unhiliteChange(evt)" onclick="changeMe(evt)" points="45.0005,51.9617 60.0005,77.9427 45.0005,103.924 15.0005,103.923 0.00050354,77.9427 15,51.9617" seed="1"/><polygon fill="rgb(224, 176, 255)" stroke="black" stroke-width="1" onmouseover="setChange(evt)" onmouseout="unhiliteChange(evt)" onclick="changeMe(evt)" points="7.62939e-006,25.9808 15,51.9617 44.9995,51.9617 59.9995,25.9808 44.9995,-0.00025177 15,-0.00025177" seed="2"/><polygon fill="rgb(224, 176, 255)" stroke="black" stroke-width="1" onmouseover="setChange(evt)" onmouseout="unhiliteChange(evt)" onclick="changeMe(evt)" points="45.0005,155.886 60.0005,129.905 90.0005,129.905 105.001,155.886 90.0005,181.866 60.0005,181.866" seed="3"/><polygon fill="rgb(224, 176, 255)" stroke="black" stroke-width="1" onmouseover="setChange(evt)" onmouseout="unhiliteChange(evt)" onclick="changeMe(evt)" points="135.001,103.924 105.001,103.924 90.0005,77.9427 105.001,51.9617 135.001,51.9617 150.001,77.9427" seed="4"/><polygon fill="rgb(252, 194, 0)" stroke="black" stroke-width="1" onmouseover="setChange(evt)" onmouseout="unhiliteChange(evt)" onclick="changeMe(evt)" points="105.001,155.885 90.0005,129.905 105.001,103.924 135.001,103.924 150.001,129.904 135.001,155.885" seed="5"/><polygon fill="rgb(224, 176, 255)" stroke="black" stroke-width="1" onmouseover="setChange(evt)" onmouseout="unhiliteChange(evt)" onclick="changeMe(evt)" points="150.001,181.866 135.001,155.885 105.001,155.885 90.0005,181.866 105.001,207.847 135.001,207.847" seed="6"/><polygon fill="rgb(41, 171, 135)" stroke="black" stroke-width="1" onmouseover="setChange(evt)" onmouseout="unhiliteChange(evt)" onclick="changeMe(evt)" points="75.0005,51.9617 90.0005,77.9427 60.0005,77.9427" seed="7"/><polygon fill="rgb(41, 171, 135)" stroke="black" stroke-width="1" onmouseover="setChange(evt)" onmouseout="unhiliteChange(evt)" onclick="changeMe(evt)" points="75.0005,51.9617 45.0005,51.9617 60.0005,77.9427" seed="8"/><polygon fill="rgb(41, 171, 135)" stroke="black" stroke-width="1" onmouseover="setChange(evt)" onmouseout="unhiliteChange(evt)" onclick="changeMe(evt)" points="60.0005,25.9818 75.0005,51.9617 45.0005,51.9617" seed="9"/><polygon fill="rgb(41, 171, 135)" stroke="black" stroke-width="1" onmouseover="setChange(evt)" onmouseout="unhiliteChange(evt)" onclick="changeMe(evt)" points="90.0005,25.9818 60.0005,25.9818 75.0005,51.9617" seed="10"/><polygon fill="rgb(41, 171, 135)" stroke="black" stroke-width="1" onmouseover="setChange(evt)" onmouseout="unhiliteChange(evt)" onclick="changeMe(evt)" points="105,51.9617 75.0005,51.9617 90.0005,25.9818" seed="11"/><polygon fill="rgb(41, 171, 135)" stroke="black" stroke-width="1" onmouseover="setChange(evt)" onmouseout="unhiliteChange(evt)" onclick="changeMe(evt)" points="89.9995,77.9427 105,51.9617 74.9995,51.9617" seed="12"/><polygon fill="rgb(41, 171, 135)" stroke="black" stroke-width="1" onmouseover="setChange(evt)" onmouseout="unhiliteChange(evt)" onclick="changeMe(evt)" points="29.9995,129.904 45.0005,103.924 15.0005,103.923" seed="13"/><polygon fill="rgb(41, 171, 135)" stroke="black" stroke-width="1" onmouseover="setChange(evt)" onmouseout="unhiliteChange(evt)" onclick="changeMe(evt)" points="30.0005,129.904 45.0005,103.924 60.0005,129.905" seed="14"/><polygon fill="rgb(41, 171, 135)" stroke="black" stroke-width="1" onmouseover="setChange(evt)" onmouseout="unhiliteChange(evt)" onclick="changeMe(evt)" points="7.62939e-006,129.904 15.0005,103.923 29.9995,129.904" seed="15"/><polygon fill="rgb(41, 171, 135)" stroke="black" stroke-width="1" onmouseover="setChange(evt)" onmouseout="unhiliteChange(evt)" onclick="changeMe(evt)" points="14.9995,155.885 29.9995,129.904 7.62939e-006,129.904" seed="16"/><polygon fill="rgb(41, 171, 135)" stroke="black" stroke-width="1" onmouseover="setChange(evt)" onmouseout="unhiliteChange(evt)" onclick="changeMe(evt)" points="44.9995,155.885 14.9995,155.885 29.9995,129.904" seed="17"/><polygon fill="rgb(41, 171, 135)" stroke="black" stroke-width="1" onmouseover="setChange(evt)" onmouseout="unhiliteChange(evt)" onclick="changeMe(evt)" points="44.9995,155.885 60.0005,129.905 30.0005,129.904" seed="18"/></g></svg>
