<?xml version="1.0" encoding="utf-8"?>
<svg xmlns="http://www.w3.org/2000/svg" id="mainSVG" pointer-events="all" width="260.886" height="343.925" EdgeLen="30" template="u5_37_tu" code="A12_15_6_2" copyright="Francis Hemsher, 2012">
	<polygon id="BorderPoly" fill="none" pointer-events="none" stroke="red" stroke-width="4" transform="" points="66.967,14.9985 66.966,44.9985 40.986,59.9955 25.984,85.9755 25.982,115.976 0,130.974 14.999,156.963 15,186.964 0,212.944 25.981,227.944 25.98,257.944 40.98,283.925 66.961,298.925 66.961,328.924 96.961,328.925 122.943,343.925 148.923,328.925 148.922,298.925 163.922,272.945 189.904,257.945 189.904,227.945 219.903,227.946 245.884,212.946 260.885,186.966 260.886,156.966 245.886,130.985 219.906,115.984 189.906,115.984 189.907,85.9825 163.927,70.9815 148.927,45.0005 148.928,15.0005 122.948,-0.000457764 96.967,14.9995"/>
	<g id="mainPolyG" transform=""><polygon id="mainPoly" fill="rgb(252, 194, 0)" stroke="black" onmouseover="setChange(evt)" onmouseout="unhiliteChange(evt)" onclick="changeMe(evt)" points="96.961,186.964 66.961,186.963 40.981,201.963 25.981,227.944 25.98,257.944 40.98,283.925 66.961,298.925 96.961,298.925 122.942,283.925 137.942,257.944 137.942,227.944 122.942,201.964" seed="0"/><polygon fill="rgb(224, 176, 255)" stroke="black" stroke-width="1" onmouseover="setChange(evt)" onmouseout="unhiliteChange(evt)" onclick="changeMe(evt)" points="40.981,201.963 15,186.964 0,212.944 25.981,227.944" seed="1"/><polygon fill="rgb(224, 176, 255)" stroke="black" stroke-width="1" onmouseover="setChange(evt)" onmouseout="unhiliteChange(evt)" onclick="changeMe(evt)" points="96.962,156.964 66.962,156.963 66.962,186.963 96.961,186.964" seed="2"/><polygon fill="rgb(224, 176, 255)" stroke="black" stroke-width="1" onmouseover="setChange(evt)" onmouseout="unhiliteChange(evt)" onclick="changeMe(evt)" points="163.923,212.944 148.923,186.963 122.942,201.964 137.942,227.944" seed="3"/><polygon fill="rgb(224, 176, 255)" stroke="black" stroke-width="1" onmouseover="setChange(evt)" onmouseout="unhiliteChange(evt)" onclick="changeMe(evt)" points="163.923,272.944 137.941,257.944 122.942,283.925 148.922,298.925" seed="4"/><polygon fill="rgb(224, 176, 255)" stroke="black" stroke-width="1" onmouseover="setChange(evt)" onmouseout="unhiliteChange(evt)" onclick="changeMe(evt)" points="96.961,298.925 66.961,298.925 66.961,328.924 96.961,328.925" seed="5"/><polygon fill="rgb(41, 171, 135)" stroke="black" stroke-width="1" onmouseover="setChange(evt)" onmouseout="unhiliteChange(evt)" onclick="changeMe(evt)" points="66.961,156.963 40.98,141.963 14.999,156.963 14.999,186.963 40.981,201.963 66.961,186.963" seed="6"/><polygon fill="rgb(41, 171, 135)" stroke="black" stroke-width="1" onmouseover="setChange(evt)" onmouseout="unhiliteChange(evt)" onclick="changeMe(evt)" points="148.923,156.963 122.942,141.964 96.962,156.964 96.961,186.964 122.942,201.964 148.923,186.964" seed="7"/><polygon fill="rgb(41, 171, 135)" stroke="black" stroke-width="1" onmouseover="setChange(evt)" onmouseout="unhiliteChange(evt)" onclick="changeMe(evt)" points="189.904,227.945 163.924,212.945 137.942,227.944 137.942,257.944 163.922,272.945 189.904,257.945" seed="8"/><polygon fill="rgb(41, 171, 135)" stroke="black" stroke-width="1" onmouseover="setChange(evt)" onmouseout="unhiliteChange(evt)" onclick="changeMe(evt)" points="148.923,298.925 122.942,283.925 96.961,298.925 96.961,328.925 122.943,343.925 148.923,328.925" seed="9"/><polygon fill="rgb(0, 128, 128)" stroke="black" stroke-width="1" onmouseover="setChange(evt)" onmouseout="unhiliteChange(evt)" onclick="changeMe(evt)" points="219.906,115.984 189.906,115.984 163.924,130.983 148.924,156.964 148.923,186.963 163.923,212.944 189.903,227.945 219.903,227.946 245.884,212.946 260.885,186.966 260.886,156.966 245.886,130.985" seed="10"/><polygon fill="rgb(224, 176, 255)" stroke="black" stroke-width="1" onmouseover="setChange(evt)" onmouseout="unhiliteChange(evt)" onclick="changeMe(evt)" points="163.924,130.983 137.944,115.982 122.943,141.963 148.924,156.963" seed="11"/><polygon fill="rgb(41, 171, 135)" stroke="black" stroke-width="1" onmouseover="setChange(evt)" onmouseout="unhiliteChange(evt)" onclick="changeMe(evt)" points="189.907,85.9825 163.927,70.9815 137.945,85.9815 137.945,115.981 163.924,130.983 189.906,115.984" seed="12"/><polygon fill="rgb(224, 176, 255)" stroke="black" stroke-width="1" onmouseover="setChange(evt)" onmouseout="unhiliteChange(evt)" onclick="changeMe(evt)" points="163.927,70.9825 148.927,45.0005 122.946,60.0005 137.945,85.9815" seed="13"/><polygon fill="rgb(41, 171, 135)" stroke="black" stroke-width="1" onmouseover="setChange(evt)" onmouseout="unhiliteChange(evt)" onclick="changeMe(evt)" points="148.928,15.0005 122.948,-0.000457764 96.967,14.9995 96.966,44.9995 122.946,59.9995 148.927,45.0005" seed="14"/><polygon fill="rgb(224, 176, 255)" stroke="black" stroke-width="1" onmouseover="setChange(evt)" onmouseout="unhiliteChange(evt)" onclick="changeMe(evt)" points="96.967,14.9995 66.967,14.9985 66.966,44.9985 96.966,44.9995" seed="15"/><polygon fill="rgb(224, 176, 255)" stroke="black" stroke-width="1" onmouseover="setChange(evt)" onmouseout="unhiliteChange(evt)" onclick="changeMe(evt)" points="96.963,126.964 66.963,126.964 66.962,156.963 96.961,156.964" seed="16"/><polygon fill="rgb(224, 176, 255)" stroke="black" stroke-width="1" onmouseover="setChange(evt)" onmouseout="unhiliteChange(evt)" onclick="changeMe(evt)" points="137.943,115.983 111.963,100.982 96.963,126.963 122.943,141.963" seed="17"/><polygon fill="rgb(224, 176, 255)" stroke="black" stroke-width="1" onmouseover="setChange(evt)" onmouseout="unhiliteChange(evt)" onclick="changeMe(evt)" points="137.945,85.9815 122.946,60.0005 96.965,74.9985 111.964,100.981" seed="18"/><polygon fill="rgb(224, 176, 255)" stroke="black" stroke-width="1" onmouseover="setChange(evt)" onmouseout="unhiliteChange(evt)" onclick="changeMe(evt)" points="96.966,44.9995 66.966,44.9985 66.965,74.9975 96.965,74.9995" seed="19"/><polygon fill="rgb(147, 112, 219)" stroke="black" stroke-width="1" onmouseover="setChange(evt)" onmouseout="unhiliteChange(evt)" onclick="changeMe(evt)" points="96.965,74.9995 66.965,74.9975 81.963,100.98" seed="20"/><polygon fill="rgb(147, 112, 219)" stroke="black" stroke-width="1" onmouseover="setChange(evt)" onmouseout="unhiliteChange(evt)" onclick="changeMe(evt)" points="111.963,100.981 96.965,74.9995 81.963,100.98" seed="21"/><polygon fill="rgb(147, 112, 219)" stroke="black" stroke-width="1" onmouseover="setChange(evt)" onmouseout="unhiliteChange(evt)" onclick="changeMe(evt)" points="111.963,100.981 81.963,100.98 96.962,126.961" seed="22"/><polygon fill="rgb(147, 112, 219)" stroke="black" stroke-width="1" onmouseover="setChange(evt)" onmouseout="unhiliteChange(evt)" onclick="changeMe(evt)" points="96.962,126.961 81.963,100.98 66.962,126.96" seed="23"/><polygon fill="rgb(147, 112, 219)" stroke="black" stroke-width="1" onmouseover="setChange(evt)" onmouseout="unhiliteChange(evt)" onclick="changeMe(evt)" points="81.963,100.98 51.963,100.978 66.962,126.96" seed="24"/><polygon fill="rgb(147, 112, 219)" stroke="black" stroke-width="1" onmouseover="setChange(evt)" onmouseout="unhiliteChange(evt)" onclick="changeMe(evt)" points="81.963,100.98 66.965,74.9975 51.963,100.978" seed="25"/><polygon fill="rgb(147, 112, 219)" stroke="black" stroke-width="1" onmouseover="setChange(evt)" onmouseout="unhiliteChange(evt)" onclick="changeMe(evt)" points="122.946,60.0005 96.966,44.9995 96.965,74.9995" seed="26"/><polygon fill="rgb(147, 112, 219)" stroke="black" stroke-width="1" onmouseover="setChange(evt)" onmouseout="unhiliteChange(evt)" onclick="changeMe(evt)" points="137.945,115.981 137.945,85.9815 111.964,100.981" seed="27"/><polygon fill="rgb(147, 112, 219)" stroke="black" stroke-width="1" onmouseover="setChange(evt)" onmouseout="unhiliteChange(evt)" onclick="changeMe(evt)" points="122.943,141.963 96.963,126.963 96.962,156.963" seed="28"/><polygon fill="rgb(224, 176, 255)" stroke="black" stroke-width="1" onmouseover="setChange(evt)" onmouseout="unhiliteChange(evt)" onclick="changeMe(evt)" points="66.965,74.9975 40.986,59.9955 25.984,85.9755 51.963,100.978" seed="29"/><polygon fill="rgb(224, 176, 255)" stroke="black" stroke-width="1" onmouseover="setChange(evt)" onmouseout="unhiliteChange(evt)" onclick="changeMe(evt)" points="66.961,126.96 51.963,100.978 25.982,115.976 40.98,141.958" seed="30"/><polygon fill="rgb(147, 112, 219)" stroke="black" stroke-width="1" onmouseover="setChange(evt)" onmouseout="unhiliteChange(evt)" onclick="changeMe(evt)" points="66.965,74.9975 66.966,44.9985 40.985,59.9975" seed="31"/><polygon fill="rgb(147, 112, 219)" stroke="black" stroke-width="1" onmouseover="setChange(evt)" onmouseout="unhiliteChange(evt)" onclick="changeMe(evt)" points="51.963,100.978 25.984,85.9755 25.981,115.976" seed="32"/><polygon fill="rgb(147, 112, 219)" stroke="black" stroke-width="1" onmouseover="setChange(evt)" onmouseout="unhiliteChange(evt)" onclick="changeMe(evt)" points="66.96,156.96 66.961,126.96 40.98,141.958" seed="33"/><polygon fill="rgb(224, 176, 255)" stroke="black" stroke-width="1" onmouseover="setChange(evt)" onmouseout="unhiliteChange(evt)" onclick="changeMe(evt)" points="40.98,141.958 25.982,115.976 0,130.974 14.998,156.956" seed="34"/></g>
</svg>
