<?xml version="1.0" encoding="utf-8"?>
<svg xmlns="http://www.w3.org/2000/svg" id="mainSVG" pointer-events="all" width="223.924" height="320.888" EdgeLen="30" template="u4_33_tu" code="A12_2_0_4" copyright="Francis Hemsher, 2012">
	<polygon id="BorderPoly" fill="none" pointer-events="none" stroke="red" stroke-width="4" transform="" points="96.966,15.0023 70.985,0.000259399 40.985,0.000259399 15.004,14.9993 0.00299072,40.9793 0.00199127,70.9793 15.001,96.9613 15.001,126.962 -7.62939e-006,152.942 30,152.942 55.981,167.944 70.98,193.925 70.981,223.925 55.981,249.906 55.98,279.906 70.98,305.887 96.961,320.887 126.961,320.887 152.942,305.887 167.942,279.906 167.942,249.906 152.942,223.926 152.942,193.926 167.943,167.946 193.923,152.946 223.923,152.946 208.923,126.966 208.923,96.9663 223.924,70.9853 223.924,40.9853 208.925,15.0043 182.944,0.0042572 152.944,0.00326538 126.964,15.0033"/>
	<g id="mainPolyG" transform=""><polygon id="mainPoly" fill="rgb(252, 194, 0)" stroke="black" onmouseover="setChange(evt)" onmouseout="unhiliteChange(evt)" onclick="changeMe(evt)" points="126.961,208.926 96.961,208.925 70.981,223.925 55.981,249.906 55.98,279.906 70.98,305.887 96.961,320.887 126.961,320.887 152.942,305.887 167.942,279.906 167.942,249.906 152.942,223.926" seed="0"/><polygon fill="rgb(139, 0, 139)" stroke="black" stroke-width="1" onmouseover="setChange(evt)" onmouseout="unhiliteChange(evt)" onclick="changeMe(evt)" points="126.962,96.9642 96.962,96.9642 70.981,111.963 55.981,137.944 55.981,167.944 70.98,193.925 96.961,208.925 126.961,208.926 152.942,193.926 167.943,167.946 167.943,137.945 152.943,111.965" seed="1"/><polygon fill="rgb(139, 0, 139)" stroke="black" stroke-width="1" onmouseover="setChange(evt)" onmouseout="unhiliteChange(evt)" onclick="changeMe(evt)" points="182.944,0.0042572 152.944,0.00326538 126.964,15.0033 111.962,40.9833 111.962,70.9843 126.962,96.9642 152.943,111.965 182.943,111.965 208.923,96.9663 223.924,70.9853 223.924,40.9853 208.925,15.0043" seed="2"/><polygon fill="rgb(139, 0, 139)" stroke="black" stroke-width="1" onmouseover="setChange(evt)" onmouseout="unhiliteChange(evt)" onclick="changeMe(evt)" points="70.985,0.000259399 40.985,0.000259399 15.004,14.9993 0.00299072,40.9793 0.00199127,70.9793 15.001,96.9613 40.982,111.962 70.981,111.963 96.962,96.9633 111.964,70.9833 111.965,40.9833 96.966,15.0023" seed="3"/><polygon fill="rgb(147, 112, 219)" stroke="black" stroke-width="1" onmouseover="setChange(evt)" onmouseout="unhiliteChange(evt)" onclick="changeMe(evt)" points="126.966,15.0033 96.965,15.0023 111.965,40.9833" seed="4"/><polygon fill="rgb(147, 112, 219)" stroke="black" stroke-width="1" onmouseover="setChange(evt)" onmouseout="unhiliteChange(evt)" onclick="changeMe(evt)" points="126.962,96.9653 111.964,70.9833 96.962,96.9633" seed="5"/><polygon fill="rgb(147, 112, 219)" stroke="black" stroke-width="1" onmouseover="setChange(evt)" onmouseout="unhiliteChange(evt)" onclick="changeMe(evt)" points="70.982,111.963 40.982,111.962 55.981,137.943" seed="6"/><polygon fill="rgb(147, 112, 219)" stroke="black" stroke-width="1" onmouseover="setChange(evt)" onmouseout="unhiliteChange(evt)" onclick="changeMe(evt)" points="182.943,111.965 152.943,111.965 167.943,137.946" seed="7"/><polygon fill="rgb(147, 112, 219)" stroke="black" stroke-width="1" onmouseover="setChange(evt)" onmouseout="unhiliteChange(evt)" onclick="changeMe(evt)" points="96.961,208.925 70.981,193.925 70.98,223.925" seed="8"/><polygon fill="rgb(147, 112, 219)" stroke="black" stroke-width="1" onmouseover="setChange(evt)" onmouseout="unhiliteChange(evt)" onclick="changeMe(evt)" points="152.941,223.926 152.942,193.926 126.961,208.926" seed="9"/><polygon fill="rgb(224, 176, 255)" stroke="black" stroke-width="1" onmouseover="setChange(evt)" onmouseout="unhiliteChange(evt)" onclick="changeMe(evt)" points="55.981,137.943 40.982,111.962 15.001,126.962 30,152.942" seed="10"/><polygon fill="rgb(224, 176, 255)" stroke="black" stroke-width="1" onmouseover="setChange(evt)" onmouseout="unhiliteChange(evt)" onclick="changeMe(evt)" points="208.923,126.966 182.943,111.965 167.943,137.945 193.923,152.946" seed="11"/><polygon fill="rgb(147, 112, 219)" stroke="black" stroke-width="1" onmouseover="setChange(evt)" onmouseout="unhiliteChange(evt)" onclick="changeMe(evt)" points="40.982,111.962 15.002,96.9613 15.001,126.961" seed="12"/><polygon fill="rgb(147, 112, 219)" stroke="black" stroke-width="1" onmouseover="setChange(evt)" onmouseout="unhiliteChange(evt)" onclick="changeMe(evt)" points="55.979,167.944 55.981,137.943 30,152.942" seed="13"/><polygon fill="rgb(147, 112, 219)" stroke="black" stroke-width="1" onmouseover="setChange(evt)" onmouseout="unhiliteChange(evt)" onclick="changeMe(evt)" points="30,152.943 15.001,126.962 -7.62939e-006,152.942" seed="14"/><polygon fill="rgb(147, 112, 219)" stroke="black" stroke-width="1" onmouseover="setChange(evt)" onmouseout="unhiliteChange(evt)" onclick="changeMe(evt)" points="208.923,126.966 208.923,96.9663 182.943,111.965" seed="15"/><polygon fill="rgb(147, 112, 219)" stroke="black" stroke-width="1" onmouseover="setChange(evt)" onmouseout="unhiliteChange(evt)" onclick="changeMe(evt)" points="193.923,152.946 167.943,137.945 167.942,167.945" seed="16"/><polygon fill="rgb(147, 112, 219)" stroke="black" stroke-width="1" onmouseover="setChange(evt)" onmouseout="unhiliteChange(evt)" onclick="changeMe(evt)" points="223.923,152.946 208.923,126.966 193.923,152.946" seed="17"/></g>
</svg>
