<?xml version="1.0" encoding="utf-8"?>
<svg xmlns="http://www.w3.org/2000/svg" id="mainSVG" pointer-events="all" width="327.848" height="324.905" EdgeLen="30" template="u6_97_tu" code="A12_24_10_2" copyright="Francis Hemsher, 2012">
	<polygon id="BorderPoly" fill="none" pointer-events="none" stroke="red" stroke-width="4" transform="" points="174.904,0.000762939 148.923,15.0008 133.924,40.9808 107.943,25.9808 81.962,40.9808 81.962,70.9808 66.962,96.9618 40.98,111.962 40.982,141.961 25.982,167.942 0,182.944 0.00100708,212.944 25.982,227.942 40.98,253.922 40.981,283.924 66.963,298.924 81.963,324.904 107.942,309.904 133.925,324.904 148.925,298.923 174.905,283.923 204.905,283.924 230.886,298.924 245.886,324.905 271.865,309.905 286.866,283.924 286.867,253.924 312.847,238.924 327.847,212.943 327.848,182.943 312.848,156.963 286.867,141.963 286.866,111.963 271.866,85.9808 245.886,70.9808 245.886,40.9808 230.886,15.0008 204.904,-0.000244141"/>
	<g id="mainPolyG" transform=""><polygon id="mainPoly" fill="rgb(252, 194, 0)" stroke="black" onmouseover="setChange(evt)" onmouseout="unhiliteChange(evt)" onclick="changeMe(evt)" points="286.867,141.963 256.867,141.962 230.886,156.962 215.886,182.943 215.886,212.943 230.886,238.924 256.867,253.924 286.867,253.924 312.847,238.924 327.847,212.943 327.848,182.943 312.848,156.963" seed="0"/><polygon fill="rgb(224, 176, 255)" stroke="black" stroke-width="1" onmouseover="setChange(evt)" onmouseout="unhiliteChange(evt)" onclick="changeMe(evt)" points="286.868,111.963 256.868,111.962 256.868,141.962 286.867,141.963" seed="1"/><polygon fill="rgb(224, 176, 255)" stroke="black" stroke-width="1" onmouseover="setChange(evt)" onmouseout="unhiliteChange(evt)" onclick="changeMe(evt)" points="230.886,156.962 204.906,141.962 189.905,167.943 215.887,182.943" seed="2"/><polygon fill="rgb(224, 176, 255)" stroke="black" stroke-width="1" onmouseover="setChange(evt)" onmouseout="unhiliteChange(evt)" onclick="changeMe(evt)" points="230.886,238.924 215.886,212.943 189.905,227.943 204.905,253.924" seed="3"/><polygon fill="rgb(41, 171, 135)" stroke="black" stroke-width="1" onmouseover="setChange(evt)" onmouseout="unhiliteChange(evt)" onclick="changeMe(evt)" points="256.867,111.962 230.886,96.9618 204.905,111.962 204.905,141.962 230.886,156.962 256.867,141.962" seed="4"/><polygon fill="rgb(41, 171, 135)" stroke="black" stroke-width="1" onmouseover="setChange(evt)" onmouseout="unhiliteChange(evt)" onclick="changeMe(evt)" points="215.886,182.943 189.905,167.943 163.925,182.943 163.924,212.943 189.904,227.943 215.886,212.943" seed="5"/><polygon fill="rgb(41, 171, 135)" stroke="black" stroke-width="1" onmouseover="setChange(evt)" onmouseout="unhiliteChange(evt)" onclick="changeMe(evt)" points="256.867,253.924 230.886,238.924 204.905,253.924 204.905,283.924 230.886,298.924 256.866,283.924" seed="6"/><polygon fill="rgb(0, 128, 128)" stroke="black" stroke-width="1" onmouseover="setChange(evt)" onmouseout="unhiliteChange(evt)" onclick="changeMe(evt)" points="230.886,15.0008 204.904,-0.000244141 174.904,0.000762939 148.923,15.0008 133.924,40.9808 133.924,70.9818 148.923,96.9618 174.905,111.962 204.905,111.962 230.886,96.9618 245.886,70.9808 245.886,40.9808" seed="7"/><polygon fill="rgb(224, 176, 255)" stroke="black" stroke-width="1" onmouseover="setChange(evt)" onmouseout="unhiliteChange(evt)" onclick="changeMe(evt)" points="204.904,111.962 174.905,111.962 174.905,141.962 204.905,141.962" seed="8"/><polygon fill="rgb(224, 176, 255)" stroke="black" stroke-width="1" onmouseover="setChange(evt)" onmouseout="unhiliteChange(evt)" onclick="changeMe(evt)" points="271.866,85.9808 245.886,70.9818 230.886,96.9618 256.866,111.962" seed="9"/><polygon fill="rgb(224, 176, 255)" stroke="black" stroke-width="1" onmouseover="setChange(evt)" onmouseout="unhiliteChange(evt)" onclick="changeMe(evt)" points="148.923,96.9618 133.924,70.9818 107.943,85.9808 122.942,111.962" seed="10"/><polygon fill="rgb(41, 171, 135)" stroke="black" stroke-width="1" onmouseover="setChange(evt)" onmouseout="unhiliteChange(evt)" onclick="changeMe(evt)" points="133.924,40.9808 107.943,25.9808 81.962,40.9808 81.962,70.9808 107.943,85.9808 133.924,70.9808" seed="11"/><polygon fill="rgb(41, 171, 135)" stroke="black" stroke-width="1" onmouseover="setChange(evt)" onmouseout="unhiliteChange(evt)" onclick="changeMe(evt)" points="174.904,111.962 148.923,96.9618 122.943,111.962 122.943,141.963 148.924,156.963 174.904,141.962" seed="12"/><polygon fill="rgb(224, 176, 255)" stroke="black" stroke-width="1" onmouseover="setChange(evt)" onmouseout="unhiliteChange(evt)" onclick="changeMe(evt)" points="107.943,85.9808 81.963,70.9818 66.962,96.9618 92.943,111.962" seed="13"/><polygon fill="rgb(147, 112, 219)" stroke="black" stroke-width="1" onmouseover="setChange(evt)" onmouseout="unhiliteChange(evt)" onclick="changeMe(evt)" points="148.924,156.963 122.943,141.963 122.943,171.963" seed="14"/><polygon fill="rgb(147, 112, 219)" stroke="black" stroke-width="1" onmouseover="setChange(evt)" onmouseout="unhiliteChange(evt)" onclick="changeMe(evt)" points="204.905,141.962 174.905,141.962 189.905,167.943" seed="15"/><polygon fill="rgb(224, 176, 255)" stroke="black" stroke-width="1" onmouseover="setChange(evt)" onmouseout="unhiliteChange(evt)" onclick="changeMe(evt)" points="189.904,167.942 174.905,141.962 148.925,156.962 163.924,182.943" seed="16"/><polygon fill="rgb(147, 112, 219)" stroke="black" stroke-width="1" onmouseover="setChange(evt)" onmouseout="unhiliteChange(evt)" onclick="changeMe(evt)" points="122.942,111.962 107.943,85.9808 92.943,111.962" seed="17"/><polygon fill="rgb(224, 176, 255)" stroke="black" stroke-width="1" onmouseover="setChange(evt)" onmouseout="unhiliteChange(evt)" onclick="changeMe(evt)" points="122.942,111.962 92.943,111.962 92.942,141.962 122.942,141.961" seed="18"/><polygon fill="rgb(224, 176, 255)" stroke="black" stroke-width="1" onmouseover="setChange(evt)" onmouseout="unhiliteChange(evt)" onclick="changeMe(evt)" points="122.943,171.961 122.942,141.961 92.942,141.962 92.943,171.961" seed="19"/><polygon fill="rgb(41, 171, 135)" stroke="black" stroke-width="1" onmouseover="setChange(evt)" onmouseout="unhiliteChange(evt)" onclick="changeMe(evt)" points="122.943,171.961 92.943,171.961 77.943,197.942 92.943,223.923 122.943,223.923 137.943,197.942" seed="20"/><polygon fill="rgb(224, 176, 255)" stroke="black" stroke-width="1" onmouseover="setChange(evt)" onmouseout="unhiliteChange(evt)" onclick="changeMe(evt)" points="92.943,171.961 66.963,156.962 51.962,182.942 77.943,197.942" seed="21"/><polygon fill="rgb(224, 176, 255)" stroke="black" stroke-width="1" onmouseover="setChange(evt)" onmouseout="unhiliteChange(evt)" onclick="changeMe(evt)" points="163.923,182.942 148.924,156.961 122.943,171.961 137.943,197.942" seed="22"/><polygon fill="rgb(224, 176, 255)" stroke="black" stroke-width="1" onmouseover="setChange(evt)" onmouseout="unhiliteChange(evt)" onclick="changeMe(evt)" points="163.924,212.942 137.943,197.942 122.943,223.923 148.923,238.923" seed="23"/><polygon fill="rgb(224, 176, 255)" stroke="black" stroke-width="1" onmouseover="setChange(evt)" onmouseout="unhiliteChange(evt)" onclick="changeMe(evt)" points="122.942,223.923 92.943,223.923 92.943,253.923 122.943,253.923" seed="24"/><polygon fill="rgb(224, 176, 255)" stroke="black" stroke-width="1" onmouseover="setChange(evt)" onmouseout="unhiliteChange(evt)" onclick="changeMe(evt)" points="92.942,223.923 77.943,197.942 51.963,212.942 66.962,238.923" seed="25"/><polygon fill="rgb(147, 112, 219)" stroke="black" stroke-width="1" onmouseover="setChange(evt)" onmouseout="unhiliteChange(evt)" onclick="changeMe(evt)" points="92.943,171.961 92.943,141.961 66.963,156.962" seed="26"/><polygon fill="rgb(147, 112, 219)" stroke="black" stroke-width="1" onmouseover="setChange(evt)" onmouseout="unhiliteChange(evt)" onclick="changeMe(evt)" points="77.943,197.942 51.962,182.942 51.963,212.942" seed="27"/><polygon fill="rgb(147, 112, 219)" stroke="black" stroke-width="1" onmouseover="setChange(evt)" onmouseout="unhiliteChange(evt)" onclick="changeMe(evt)" points="92.943,253.923 92.942,223.923 66.962,238.923" seed="28"/><polygon fill="rgb(147, 112, 219)" stroke="black" stroke-width="1" onmouseover="setChange(evt)" onmouseout="unhiliteChange(evt)" onclick="changeMe(evt)" points="148.923,238.923 122.942,223.923 122.943,253.923" seed="29"/><polygon fill="rgb(147, 112, 219)" stroke="black" stroke-width="1" onmouseover="setChange(evt)" onmouseout="unhiliteChange(evt)" onclick="changeMe(evt)" points="163.923,212.942 163.923,182.942 137.943,197.942" seed="30"/><polygon fill="rgb(224, 176, 255)" stroke="black" stroke-width="1" onmouseover="setChange(evt)" onmouseout="unhiliteChange(evt)" onclick="changeMe(evt)" points="66.963,156.962 40.982,141.961 25.982,167.942 51.962,182.942" seed="31"/><polygon fill="rgb(224, 176, 255)" stroke="black" stroke-width="1" onmouseover="setChange(evt)" onmouseout="unhiliteChange(evt)" onclick="changeMe(evt)" points="66.962,238.923 51.963,212.942 25.982,227.942 40.98,253.922" seed="32"/><polygon fill="rgb(224, 176, 255)" stroke="black" stroke-width="1" onmouseover="setChange(evt)" onmouseout="unhiliteChange(evt)" onclick="changeMe(evt)" points="122.943,253.923 92.943,253.923 92.942,283.923 122.942,283.923" seed="33"/><polygon fill="rgb(224, 176, 255)" stroke="black" stroke-width="1" onmouseover="setChange(evt)" onmouseout="unhiliteChange(evt)" onclick="changeMe(evt)" points="189.905,227.942 163.924,212.942 148.924,238.923 174.904,253.923" seed="34"/><polygon fill="rgb(41, 171, 135)" stroke="black" stroke-width="1" onmouseover="setChange(evt)" onmouseout="unhiliteChange(evt)" onclick="changeMe(evt)" points="92.942,111.961 66.961,96.9608 40.98,111.962 40.981,141.962 66.963,156.962 92.943,141.961" seed="35"/><polygon fill="rgb(41, 171, 135)" stroke="black" stroke-width="1" onmouseover="setChange(evt)" onmouseout="unhiliteChange(evt)" onclick="changeMe(evt)" points="51.962,182.942 25.98,167.943 0,182.944 0.00100708,212.944 25.982,227.943 51.963,212.942" seed="36"/><polygon fill="rgb(41, 171, 135)" stroke="black" stroke-width="1" onmouseover="setChange(evt)" onmouseout="unhiliteChange(evt)" onclick="changeMe(evt)" points="92.943,253.923 66.962,238.923 40.981,253.924 40.981,283.924 66.963,298.924 92.943,283.923" seed="37"/><polygon fill="rgb(41, 171, 135)" stroke="black" stroke-width="1" onmouseover="setChange(evt)" onmouseout="unhiliteChange(evt)" onclick="changeMe(evt)" points="174.905,253.923 148.923,238.923 122.943,253.923 122.943,283.923 148.925,298.923 174.905,283.923" seed="38"/><polygon fill="rgb(147, 112, 219)" stroke="black" stroke-width="1" onmouseover="setChange(evt)" onmouseout="unhiliteChange(evt)" onclick="changeMe(evt)" points="122.942,283.923 92.942,283.923 107.942,309.904" seed="39"/><polygon fill="rgb(224, 176, 255)" stroke="black" stroke-width="1" onmouseover="setChange(evt)" onmouseout="unhiliteChange(evt)" onclick="changeMe(evt)" points="107.944,309.903 92.943,283.923 66.963,298.923 81.963,324.904" seed="40"/><polygon fill="rgb(224, 176, 255)" stroke="black" stroke-width="1" onmouseover="setChange(evt)" onmouseout="unhiliteChange(evt)" onclick="changeMe(evt)" points="148.925,298.923 122.944,283.924 107.944,309.905 133.925,324.904" seed="41"/><polygon fill="rgb(224, 176, 255)" stroke="black" stroke-width="1" onmouseover="setChange(evt)" onmouseout="unhiliteChange(evt)" onclick="changeMe(evt)" points="204.904,253.923 174.905,253.923 174.905,283.923 204.905,283.923" seed="42"/><polygon fill="rgb(147, 112, 219)" stroke="black" stroke-width="1" onmouseover="setChange(evt)" onmouseout="unhiliteChange(evt)" onclick="changeMe(evt)" points="204.904,253.923 189.905,227.942 174.904,253.923" seed="43"/><polygon fill="rgb(147, 112, 219)" stroke="black" stroke-width="1" onmouseover="setChange(evt)" onmouseout="unhiliteChange(evt)" onclick="changeMe(evt)" points="286.866,111.963 271.866,85.9808 256.866,111.962" seed="44"/><polygon fill="rgb(224, 176, 255)" stroke="black" stroke-width="1" onmouseover="setChange(evt)" onmouseout="unhiliteChange(evt)" onclick="changeMe(evt)" points="286.866,253.924 256.867,253.924 256.866,283.923 286.866,283.924" seed="45"/><polygon fill="rgb(147, 112, 219)" stroke="black" stroke-width="1" onmouseover="setChange(evt)" onmouseout="unhiliteChange(evt)" onclick="changeMe(evt)" points="286.866,283.924 256.866,283.923 271.865,309.905" seed="46"/><polygon fill="rgb(224, 176, 255)" stroke="black" stroke-width="1" onmouseover="setChange(evt)" onmouseout="unhiliteChange(evt)" onclick="changeMe(evt)" points="271.866,309.904 256.866,283.924 230.886,298.924 245.886,324.905" seed="47"/></g>
</svg>
