<svg xmlns="http://www.w3.org/2000/svg" id="mainSVG" pointer-events="all" width="357.849" height="324.908" EdgeLen="30" template="u5_32_tu" code="A12_12_6_4" copyright="Francis Hemsher, 2012">
	<polygon id="BorderPoly" fill="none" pointer-events="none" stroke="red" stroke-width="4" transform="" points="40.9827,0.000228882 15.0017,14.9992 0.000747681,40.9792 -0.000259399,70.9792 14.9987,96.9612 40.9787,111.962 70.9787,111.963 70.9777,141.963 96.9597,156.964 111.958,182.946 111.958,212.946 96.9568,238.927 70.9767,253.928 70.9767,253.927 40.9767,253.927 40.9767,283.927 70.9767,283.927 96.9577,298.927 122.938,283.927 137.938,309.907 163.919,324.907 193.92,324.907 219.9,309.908 234.9,283.927 260.881,298.927 286.861,283.927 316.861,283.927 316.861,253.927 286.861,253.927 260.88,238.928 260.88,238.927 245.881,212.948 245.881,182.948 260.882,156.969 286.863,141.969 286.864,111.97 316.864,111.971 342.845,96.9732 357.847,70.9932 357.849,40.9932 342.85,15.0112 316.87,0.0102386 286.87,0.00823975 260.888,15.0062 234.908,0.00523376 219.907,25.9852 193.926,40.9832 163.924,40.9862 137.944,25.9842 122.945,0.00323486 96.9637,15.0022 70.9837,0.00123596"/><g id="mainPolyG" transform=""><polygon id="mainPoly" fill="rgb(252, 194, 0)" stroke="none" stroke-width="1" onmouseover="setChange(evt)" onmouseout="unhiliteChange(evt)" onclick="changeMe(evt)" points="234.9,283.927 234.9,253.927 219.9,227.947 193.919,212.947 163.919,212.946 137.938,227.946 122.938,253.927 122.938,283.927 137.938,309.907 163.919,324.907 193.92,324.907 219.9,309.908" seed="0"/><polygon fill="rgb(224, 176, 255)" stroke="black" stroke-width="1" onmouseover="setChange(evt)" onmouseout="unhiliteChange(evt)" onclick="changeMe(evt)" points="193.92,182.947 193.919,212.947 163.92,212.946 163.92,182.946" seed="1"/><polygon fill="rgb(219, 112, 147)" stroke="black" stroke-width="1" onmouseover="setChange(evt)" onmouseout="unhiliteChange(evt)" onclick="changeMe(evt)" points="234.902,141.968 234.903,111.967 219.904,85.9862 193.923,70.9862 163.923,70.9852 137.942,85.9842 122.941,111.964 122.94,141.965 137.939,167.945 163.92,182.946 193.92,182.947 219.901,167.948" seed="2"/><polygon fill="rgb(224, 176, 255)" stroke="black" stroke-width="1" onmouseover="setChange(evt)" onmouseout="unhiliteChange(evt)" onclick="changeMe(evt)" points="122.942,111.964 96.9608,96.9642 111.962,70.9842 137.942,85.9842" seed="3"/><polygon fill="rgb(224, 176, 255)" stroke="black" stroke-width="1" onmouseover="setChange(evt)" onmouseout="unhiliteChange(evt)" onclick="changeMe(evt)" points="219.904,85.9862 245.885,70.9872 260.884,96.9682 234.903,111.967" seed="4"/><polygon fill="rgb(219, 112, 147)" stroke="black" stroke-width="1" onmouseover="setChange(evt)" onmouseout="unhiliteChange(evt)" onclick="changeMe(evt)" points="111.963,40.9842 96.9637,15.0022 70.9837,0.00123596 40.9827,0.000228882 15.0017,14.9992 0.000747681,40.9792 -0.000259399,70.9792 14.9987,96.9612 40.9787,111.962 70.9787,111.963 96.9608,96.9642 111.962,70.9842" seed="5"/><polygon fill="rgb(219, 112, 147)" stroke="black" stroke-width="1" onmouseover="setChange(evt)" onmouseout="unhiliteChange(evt)" onclick="changeMe(evt)" points="286.864,111.97 316.864,111.971 342.845,96.9732 357.847,70.9932 357.849,40.9932 342.85,15.0112 316.87,0.0102386 286.87,0.00823975 260.888,15.0062 245.887,40.9872 245.885,70.9872 260.884,96.9682" seed="6"/><polygon fill="rgb(147, 112, 219)" stroke="black" stroke-width="1" onmouseover="setChange(evt)" onmouseout="unhiliteChange(evt)" onclick="changeMe(evt)" points="122.938,253.927 122.938,283.927 96.9577,298.927 70.9767,283.927 70.9767,253.927 96.9568,238.927" seed="7"/><polygon fill="rgb(147, 112, 219)" stroke="black" stroke-width="1" onmouseover="setChange(evt)" onmouseout="unhiliteChange(evt)" onclick="changeMe(evt)" points="234.9,283.927 234.9,253.927 260.88,238.927 286.861,253.927 286.861,283.927 260.881,298.927" seed="8"/><polygon fill="rgb(147, 112, 219)" stroke="black" stroke-width="1" onmouseover="setChange(evt)" onmouseout="unhiliteChange(evt)" onclick="changeMe(evt)" points="163.92,212.946 163.92,182.946 137.939,167.946 111.958,182.946 111.958,212.946 137.939,227.946" seed="9"/><polygon fill="rgb(147, 112, 219)" stroke="black" stroke-width="1" onmouseover="setChange(evt)" onmouseout="unhiliteChange(evt)" onclick="changeMe(evt)" points="193.92,182.947 193.919,212.947 219.9,227.948 245.881,212.948 245.881,182.948 219.901,167.947" seed="10"/><polygon fill="rgb(147, 112, 219)" stroke="black" stroke-width="1" onmouseover="setChange(evt)" onmouseout="unhiliteChange(evt)" onclick="changeMe(evt)" points="111.962,70.9842 111.963,40.9842 137.944,25.9842 163.924,40.9862 163.923,70.9862 137.942,85.9852" seed="11"/><polygon fill="rgb(147, 112, 219)" stroke="black" stroke-width="1" onmouseover="setChange(evt)" onmouseout="unhiliteChange(evt)" onclick="changeMe(evt)" points="245.887,40.9872 245.885,70.9872 219.904,85.9852 193.924,70.9832 193.926,40.9832 219.907,25.9852" seed="12"/><polygon fill="rgb(224, 176, 255)" stroke="black" stroke-width="1" onmouseover="setChange(evt)" onmouseout="unhiliteChange(evt)" onclick="changeMe(evt)" points="122.945,0.00323486 137.944,25.9852 111.963,40.9842 96.9637,15.0032" seed="13"/><polygon fill="rgb(224, 176, 255)" stroke="black" stroke-width="1" onmouseover="setChange(evt)" onmouseout="unhiliteChange(evt)" onclick="changeMe(evt)" points="219.907,25.9852 234.908,0.00523376 260.888,15.0062 245.887,40.9862" seed="14"/><polygon fill="rgb(224, 176, 255)" stroke="black" stroke-width="1" onmouseover="setChange(evt)" onmouseout="unhiliteChange(evt)" onclick="changeMe(evt)" points="163.924,40.9852 193.924,40.9862 193.923,70.9862 163.923,70.9852" seed="15"/><polygon fill="rgb(224, 176, 255)" stroke="black" stroke-width="1" onmouseover="setChange(evt)" onmouseout="unhiliteChange(evt)" onclick="changeMe(evt)" points="111.959,182.945 96.9597,156.964 122.94,141.965 137.94,167.945" seed="16"/><polygon fill="rgb(224, 176, 255)" stroke="black" stroke-width="1" onmouseover="setChange(evt)" onmouseout="unhiliteChange(evt)" onclick="changeMe(evt)" points="260.882,156.969 245.881,182.949 219.901,167.948 234.902,141.968" seed="17"/><polygon fill="rgb(224, 176, 255)" stroke="black" stroke-width="1" onmouseover="setChange(evt)" onmouseout="unhiliteChange(evt)" onclick="changeMe(evt)" points="40.9767,253.927 40.9767,283.927 70.9767,283.927 70.9767,253.928" seed="18"/><polygon fill="rgb(224, 176, 255)" stroke="black" stroke-width="1" onmouseover="setChange(evt)" onmouseout="unhiliteChange(evt)" onclick="changeMe(evt)" points="316.861,283.927 316.861,253.927 286.861,253.927 286.861,283.927" seed="19"/><polygon fill="rgb(224, 176, 255)" stroke="black" stroke-width="1" onmouseover="setChange(evt)" onmouseout="unhiliteChange(evt)" onclick="changeMe(evt)" points="96.9568,238.927 111.958,212.947 137.938,227.946 122.939,253.927" seed="20"/><polygon fill="rgb(224, 176, 255)" stroke="black" stroke-width="1" onmouseover="setChange(evt)" onmouseout="unhiliteChange(evt)" onclick="changeMe(evt)" points="245.881,212.947 260.88,238.928 234.9,253.927 219.9,227.947" seed="21"/><polygon fill="rgb(41, 171, 135)" stroke="black" stroke-width="1" onmouseover="setChange(evt)" onmouseout="unhiliteChange(evt)" onclick="changeMe(evt)" points="96.9587,126.964 70.9787,111.963 96.9608,96.9642" seed="22"/><polygon fill="rgb(41, 171, 135)" stroke="black" stroke-width="1" onmouseover="setChange(evt)" onmouseout="unhiliteChange(evt)" onclick="changeMe(evt)" points="122.941,111.965 96.9608,96.9642 96.9587,126.964" seed="23"/><polygon fill="rgb(41, 171, 135)" stroke="black" stroke-width="1" onmouseover="setChange(evt)" onmouseout="unhiliteChange(evt)" onclick="changeMe(evt)" points="122.939,141.965 96.9587,126.964 122.941,111.965" seed="24"/><polygon fill="rgb(41, 171, 135)" stroke="black" stroke-width="1" onmouseover="setChange(evt)" onmouseout="unhiliteChange(evt)" onclick="changeMe(evt)" points="70.9777,141.963 96.9587,126.964 70.9787,111.963" seed="25"/><polygon fill="rgb(41, 171, 135)" stroke="black" stroke-width="1" onmouseover="setChange(evt)" onmouseout="unhiliteChange(evt)" onclick="changeMe(evt)" points="96.9577,156.964 70.9777,141.963 96.9587,126.964" seed="26"/><polygon fill="rgb(41, 171, 135)" stroke="black" stroke-width="1" onmouseover="setChange(evt)" onmouseout="unhiliteChange(evt)" onclick="changeMe(evt)" points="122.939,141.966 96.9587,126.964 96.9577,156.964" seed="27"/><polygon fill="rgb(41, 171, 135)" stroke="black" stroke-width="1" onmouseover="setChange(evt)" onmouseout="unhiliteChange(evt)" onclick="changeMe(evt)" points="260.883,126.969 260.884,96.9682 234.902,111.967" seed="28"/><polygon fill="rgb(41, 171, 135)" stroke="black" stroke-width="1" onmouseover="setChange(evt)" onmouseout="unhiliteChange(evt)" onclick="changeMe(evt)" points="260.883,126.968 234.902,141.968 234.903,111.968" seed="29"/><polygon fill="rgb(41, 171, 135)" stroke="black" stroke-width="1" onmouseover="setChange(evt)" onmouseout="unhiliteChange(evt)" onclick="changeMe(evt)" points="260.883,156.968 260.883,126.968 234.902,141.968" seed="30"/><polygon fill="rgb(41, 171, 135)" stroke="black" stroke-width="1" onmouseover="setChange(evt)" onmouseout="unhiliteChange(evt)" onclick="changeMe(evt)" points="286.864,111.969 260.883,126.969 260.884,96.9692" seed="31"/><polygon fill="rgb(41, 171, 135)" stroke="black" stroke-width="1" onmouseover="setChange(evt)" onmouseout="unhiliteChange(evt)" onclick="changeMe(evt)" points="286.863,141.969 286.864,111.969 260.883,126.969" seed="32"/><polygon fill="rgb(41, 171, 135)" stroke="black" stroke-width="1" onmouseover="setChange(evt)" onmouseout="unhiliteChange(evt)" onclick="changeMe(evt)" points="260.882,156.969 260.883,126.969 286.863,141.969" seed="33"/></g></svg>
