<?xml version="1.0" encoding="utf-8" ?>

		<svg xmlns="http://www.w3.org/2000/svg" id="mainSVG" pointer-events="all" onkeyup="attachKey(evt)" width="170.721" height="183.093" EdgeLen="30" template="A14_12_3_R">

		<polygon id="BorderPoly" fill="none" pointer-events="none" stroke="red" stroke-width="4" transform="" points="60.5308,7.62939e-006 52.7658,28.9765 22.7658,28.9755 7.76495,54.9565 -4.57764e-005,83.9345 14.9998,109.918 -4.57764e-005,135.899 21.2128,157.112 36.2128,183.093 65.1918,175.329 95.1918,175.327 102.956,146.351 117.956,172.331 147.956,172.331 162.956,146.351 147.956,120.37 155.72,91.3915 170.721,65.4115 141.743,73.1755 126.744,47.1945 105.531,25.9805 75.5298,25.9805" />
		<g id="mainPolyG" transform=""><polygon id="mainPoly" fill="rgb(252, 194, 0)" stroke="black" onmouseover="setChange(evt)" onmouseout="unhiliteChange(evt)" onclick="changeMe(evt)" points="147.956,120.37 117.956,120.37 102.956,146.351 117.956,172.331 147.956,172.331 162.956,146.351" seed="0" /><polygon fill="rgb(91, 146, 229)" stroke="black" stroke-width="1" onmouseover="setChange(evt)" onmouseout="unhiliteChange(evt)" onclick="changeMe(evt)" transform="" points="126.743,99.1565 96.7428,99.1555 117.956,120.37 147.956,120.37" seed="1" /><polygon fill="rgb(91, 146, 229)" stroke="black" stroke-width="1" onmouseover="setChange(evt)" onmouseout="unhiliteChange(evt)" onclick="changeMe(evt)" transform="" points="96.7428,99.1565 66.7428,99.1555 87.9557,120.37 117.956,120.37" seed="2" /><polygon fill="rgb(147, 112, 219)" stroke="black" stroke-width="1" onmouseover="setChange(evt)" onmouseout="unhiliteChange(evt)" onclick="changeMe(evt)" points="147.956,120.368 155.72,91.3915 126.743,99.1565" seed="3" /><polygon fill="rgb(41, 171, 135)" stroke="black" stroke-width="1" onmouseover="setChange(evt)" onmouseout="unhiliteChange(evt)" onclick="changeMe(evt)" points="126.744,47.1945 96.7438,47.1935 81.7428,73.1745 96.7428,99.1555 126.743,99.1565 141.743,73.1755" seed="4" /><polygon fill="rgb(91, 146, 229)" stroke="black" stroke-width="1" onmouseover="setChange(evt)" onmouseout="unhiliteChange(evt)" onclick="changeMe(evt)" transform="" points="155.721,91.3915 170.721,65.4115 141.743,73.1755 126.743,99.1565" seed="5" /><polygon fill="rgb(91, 146, 229)" stroke="black" stroke-width="1" onmouseover="setChange(evt)" onmouseout="unhiliteChange(evt)" onclick="changeMe(evt)" transform="" points="105.531,25.9805 75.5298,25.9805 96.7438,47.1935 126.744,47.1945" seed="6" /><polygon fill="rgb(147, 112, 219)" stroke="black" stroke-width="1" onmouseover="setChange(evt)" onmouseout="unhiliteChange(evt)" onclick="changeMe(evt)" points="96.7428,99.1565 81.7428,73.1755 66.7428,99.1555" seed="7" /><polygon fill="rgb(147, 112, 219)" stroke="black" stroke-width="1" onmouseover="setChange(evt)" onmouseout="unhiliteChange(evt)" onclick="changeMe(evt)" points="96.7438,47.1935 75.5308,25.9805 67.7658,54.9585" seed="8" /><polygon fill="rgb(91, 146, 229)" stroke="black" stroke-width="1" onmouseover="setChange(evt)" onmouseout="unhiliteChange(evt)" onclick="changeMe(evt)" transform="" points="81.7428,73.1745 96.7438,47.1935 67.7658,54.9575 52.7648,80.9385" seed="9" /><polygon fill="rgb(41, 171, 135)" stroke="black" stroke-width="1" onmouseover="setChange(evt)" onmouseout="unhiliteChange(evt)" onclick="changeMe(evt)" points="52.7658,28.9765 22.7658,28.9755 7.76495,54.9565 22.7648,80.9375 52.7648,80.9385 67.7658,54.9575" seed="10" /><polygon fill="rgb(91, 146, 229)" stroke="black" stroke-width="1" onmouseover="setChange(evt)" onmouseout="unhiliteChange(evt)" onclick="changeMe(evt)" transform="" points="75.5308,25.9805 60.5308,7.62939e-006 52.7658,28.9775 67.7658,54.9585" seed="11" /><polygon fill="rgb(147, 112, 219)" stroke="black" stroke-width="1" onmouseover="setChange(evt)" onmouseout="unhiliteChange(evt)" onclick="changeMe(evt)" points="87.9557,120.368 66.7428,99.1555 58.9778,128.133" seed="12" /><polygon fill="rgb(147, 112, 219)" stroke="black" stroke-width="1" onmouseover="setChange(evt)" onmouseout="unhiliteChange(evt)" onclick="changeMe(evt)" points="58.9778,128.133 66.7428,99.1565 37.7648,106.921" seed="13" /><polygon fill="rgb(147, 112, 219)" stroke="black" stroke-width="1" onmouseover="setChange(evt)" onmouseout="unhiliteChange(evt)" onclick="changeMe(evt)" points="58.9778,128.133 37.7648,106.921 29.9998,135.899" seed="14" /><polygon fill="rgb(147, 112, 219)" stroke="black" stroke-width="1" onmouseover="setChange(evt)" onmouseout="unhiliteChange(evt)" onclick="changeMe(evt)" points="51.2128,157.112 58.9778,128.133 29.9998,135.899" seed="15" /><polygon fill="rgb(147, 112, 219)" stroke="black" stroke-width="1" onmouseover="setChange(evt)" onmouseout="unhiliteChange(evt)" onclick="changeMe(evt)" points="80.1908,149.348 58.9768,128.135 51.2128,157.112" seed="16" /><polygon fill="rgb(147, 112, 219)" stroke="black" stroke-width="1" onmouseover="setChange(evt)" onmouseout="unhiliteChange(evt)" onclick="changeMe(evt)" points="80.1918,149.347 87.9557,120.368 58.9778,128.133" seed="17" /><polygon fill="rgb(147, 112, 219)" stroke="black" stroke-width="1" onmouseover="setChange(evt)" onmouseout="unhiliteChange(evt)" onclick="changeMe(evt)" points="117.956,120.37 87.9557,120.37 102.956,146.35" seed="18" /><polygon fill="rgb(91, 146, 229)" stroke="black" stroke-width="1" onmouseover="setChange(evt)" onmouseout="unhiliteChange(evt)" onclick="changeMe(evt)" transform="" points="102.956,146.35 87.9557,120.368 80.1918,149.347 95.1918,175.327" seed="19" /><polygon fill="rgb(147, 112, 219)" stroke="black" stroke-width="1" onmouseover="setChange(evt)" onmouseout="unhiliteChange(evt)" onclick="changeMe(evt)" points="95.1918,175.327 80.1918,149.347 65.1918,175.329" seed="20" /><polygon fill="rgb(91, 146, 229)" stroke="black" stroke-width="1" onmouseover="setChange(evt)" onmouseout="unhiliteChange(evt)" onclick="changeMe(evt)" transform="" points="65.1908,175.329 80.1908,149.348 51.2128,157.112 36.2128,183.093" seed="21" /><polygon fill="rgb(147, 112, 219)" stroke="black" stroke-width="1" onmouseover="setChange(evt)" onmouseout="unhiliteChange(evt)" onclick="changeMe(evt)" points="51.2128,157.112 21.2128,157.112 36.2128,183.093" seed="22" /><polygon fill="rgb(91, 146, 229)" stroke="black" stroke-width="1" onmouseover="setChange(evt)" onmouseout="unhiliteChange(evt)" onclick="changeMe(evt)" transform="" points="29.9998,135.899 -4.57764e-005,135.899 21.2128,157.112 51.2128,157.112" seed="23" /><polygon fill="rgb(147, 112, 219)" stroke="black" stroke-width="1" onmouseover="setChange(evt)" onmouseout="unhiliteChange(evt)" onclick="changeMe(evt)" points="29.9998,135.899 14.9998,109.918 -4.57764e-005,135.899" seed="24" /><polygon fill="rgb(91, 146, 229)" stroke="black" stroke-width="1" onmouseover="setChange(evt)" onmouseout="unhiliteChange(evt)" onclick="changeMe(evt)" transform="" points="37.7648,106.921 22.7648,80.9395 14.9998,109.918 29.9998,135.899" seed="25" /><polygon fill="rgb(147, 112, 219)" stroke="black" stroke-width="1" onmouseover="setChange(evt)" onmouseout="unhiliteChange(evt)" onclick="changeMe(evt)" points="52.7648,80.9395 22.7648,80.9395 37.7648,106.921" seed="26" /><polygon fill="rgb(91, 146, 229)" stroke="black" stroke-width="1" onmouseover="setChange(evt)" onmouseout="unhiliteChange(evt)" onclick="changeMe(evt)" transform="" points="66.7428,99.1565 81.7428,73.1765 52.7648,80.9395 37.7648,106.921" seed="27" /><polygon fill="rgb(91, 146, 229)" stroke="black" stroke-width="1" onmouseover="setChange(evt)" onmouseout="unhiliteChange(evt)" onclick="changeMe(evt)" transform="" points="22.7648,80.9375 7.76495,54.9565 -4.57764e-005,83.9345 14.9998,109.916" seed="28" /></g>


		</svg>
