<?xml version="1.0" encoding="utf-8"?>
<svg xmlns="http://www.w3.org/2000/svg" id="mainSVG" pointer-events="all" width="163.923" height="231.962" EdgeLen="30" template="u6_102_tu" code="A14_6_2_1" copyright="Francis Hemsher, 2012">
	<polygon id="BorderPoly" fill="none" pointer-events="none" stroke="red" stroke-width="4" transform="" points="148.923,0.00025177 122.943,15.0003 96.9615,30.0012 66.9605,30.0003 40.9805,45.0003 15.0005,60.0003 7.62939e-006,85.9813 0.00100708,115.981 0.00150299,145.981 15,171.962 15,201.962 15,231.961 40.9805,216.961 66.9605,201.961 96.9605,201.962 122.943,186.961 148.923,171.961 163.923,145.981 163.923,115.981 163.923,85.9813 148.923,60.0003 148.923,30.0003"/>
	<g id="mainPolyG" transform=""><polygon id="mainPoly" fill="rgb(252, 194, 0)" stroke="black" onmouseover="setChange(evt)" onmouseout="unhiliteChange(evt)" onclick="changeMe(evt)" points="96.9615,60.0003 66.9615,60.0003 40.9805,75.0003 25.9805,100.981 25.9805,130.981 40.9805,156.961 66.9615,171.961 96.9615,171.962 122.943,156.962 137.943,130.981 137.943,100.981 122.943,75.0003" seed="0"/><polygon fill="rgb(224, 176, 255)" stroke="black" stroke-width="1" onmouseover="setChange(evt)" onmouseout="unhiliteChange(evt)" onclick="changeMe(evt)" points="96.9615,30.0012 66.9615,30.0003 66.9615,60.0003 96.9615,60.0003" seed="1"/><polygon fill="rgb(224, 176, 255)" stroke="black" stroke-width="1" onmouseover="setChange(evt)" onmouseout="unhiliteChange(evt)" onclick="changeMe(evt)" points="163.923,85.9813 148.923,60.0003 122.943,75.0003 137.943,100.981" seed="2"/><polygon fill="rgb(224, 176, 255)" stroke="black" stroke-width="1" onmouseover="setChange(evt)" onmouseout="unhiliteChange(evt)" onclick="changeMe(evt)" points="163.923,145.981 137.941,130.981 122.943,156.962 148.923,171.961" seed="3"/><polygon fill="rgb(224, 176, 255)" stroke="black" stroke-width="1" onmouseover="setChange(evt)" onmouseout="unhiliteChange(evt)" onclick="changeMe(evt)" points="96.9605,171.962 66.9615,171.961 66.9605,201.961 96.9605,201.962" seed="4"/><polygon fill="rgb(224, 176, 255)" stroke="black" stroke-width="1" onmouseover="setChange(evt)" onmouseout="unhiliteChange(evt)" onclick="changeMe(evt)" points="40.9805,156.961 25.9805,130.981 7.62939e-006,145.981 15,171.962" seed="5"/><polygon fill="rgb(224, 176, 255)" stroke="black" stroke-width="1" onmouseover="setChange(evt)" onmouseout="unhiliteChange(evt)" onclick="changeMe(evt)" points="40.9805,75.0003 15.0005,60.0003 7.62939e-006,85.9813 25.9815,100.981" seed="6"/><polygon fill="rgb(41, 171, 135)" stroke="black" stroke-width="1" onmouseover="setChange(evt)" onmouseout="unhiliteChange(evt)" onclick="changeMe(evt)" points="148.923,30.0003 122.943,15.0003 96.9615,30.0003 96.9615,60.0003 122.943,75.0003 148.923,60.0003" seed="7"/><polygon fill="rgb(41, 171, 135)" stroke="black" stroke-width="1" onmouseover="setChange(evt)" onmouseout="unhiliteChange(evt)" onclick="changeMe(evt)" points="66.9615,171.961 40.9805,156.961 15,171.961 15,201.962 40.9805,216.961 66.9605,201.961" seed="8"/><polygon fill="rgb(147, 112, 219)" stroke="black" stroke-width="1" onmouseover="setChange(evt)" onmouseout="unhiliteChange(evt)" onclick="changeMe(evt)" points="148.923,30.0003 148.923,0.00025177 122.943,15.0003" seed="9"/><polygon fill="rgb(147, 112, 219)" stroke="black" stroke-width="1" onmouseover="setChange(evt)" onmouseout="unhiliteChange(evt)" onclick="changeMe(evt)" points="40.9805,216.961 15,201.961 15,231.961" seed="10"/><polygon fill="rgb(147, 112, 219)" stroke="black" stroke-width="1" onmouseover="setChange(evt)" onmouseout="unhiliteChange(evt)" onclick="changeMe(evt)" points="66.9615,60.0003 40.9805,45.0003 40.9805,75.0003" seed="11"/><polygon fill="rgb(147, 112, 219)" stroke="black" stroke-width="1" onmouseover="setChange(evt)" onmouseout="unhiliteChange(evt)" onclick="changeMe(evt)" points="66.9615,60.0003 66.9605,30.0003 40.9805,45.0003" seed="12"/><polygon fill="rgb(147, 112, 219)" stroke="black" stroke-width="1" onmouseover="setChange(evt)" onmouseout="unhiliteChange(evt)" onclick="changeMe(evt)" points="40.9815,75.0003 40.9805,45.0003 15.0005,60.0003" seed="13"/><polygon fill="rgb(147, 112, 219)" stroke="black" stroke-width="1" onmouseover="setChange(evt)" onmouseout="unhiliteChange(evt)" onclick="changeMe(evt)" points="25.9815,100.981 7.62939e-006,85.9813 0.00100708,115.981" seed="14"/><polygon fill="rgb(147, 112, 219)" stroke="black" stroke-width="1" onmouseover="setChange(evt)" onmouseout="unhiliteChange(evt)" onclick="changeMe(evt)" points="25.9815,130.981 25.9805,100.981 0.00100708,115.981" seed="15"/><polygon fill="rgb(147, 112, 219)" stroke="black" stroke-width="1" onmouseover="setChange(evt)" onmouseout="unhiliteChange(evt)" onclick="changeMe(evt)" points="25.9815,130.981 0.00100708,115.981 0.00150299,145.981" seed="16"/><polygon fill="rgb(147, 112, 219)" stroke="black" stroke-width="1" onmouseover="setChange(evt)" onmouseout="unhiliteChange(evt)" onclick="changeMe(evt)" points="163.923,115.981 163.923,85.9813 137.943,100.981" seed="17"/><polygon fill="rgb(147, 112, 219)" stroke="black" stroke-width="1" onmouseover="setChange(evt)" onmouseout="unhiliteChange(evt)" onclick="changeMe(evt)" points="163.923,115.981 137.943,100.981 137.943,130.981" seed="18"/><polygon fill="rgb(147, 112, 219)" stroke="black" stroke-width="1" onmouseover="setChange(evt)" onmouseout="unhiliteChange(evt)" onclick="changeMe(evt)" points="163.923,145.981 163.923,115.981 137.943,130.981" seed="19"/><polygon fill="rgb(147, 112, 219)" stroke="black" stroke-width="1" onmouseover="setChange(evt)" onmouseout="unhiliteChange(evt)" onclick="changeMe(evt)" points="148.923,171.961 122.942,156.962 122.943,186.961" seed="20"/><polygon fill="rgb(147, 112, 219)" stroke="black" stroke-width="1" onmouseover="setChange(evt)" onmouseout="unhiliteChange(evt)" onclick="changeMe(evt)" points="122.943,186.962 122.942,156.962 96.9605,171.962" seed="21"/><polygon fill="rgb(147, 112, 219)" stroke="black" stroke-width="1" onmouseover="setChange(evt)" onmouseout="unhiliteChange(evt)" onclick="changeMe(evt)" points="122.943,186.962 96.9605,171.962 96.9615,201.962" seed="22"/></g>
</svg>
