<?xml version="1.0" encoding="utf-8"?>
<svg xmlns="http://www.w3.org/2000/svg" id="mainSVG" pointer-events="all" width="238.924" height="305.884" EdgeLen="30" template="u4_31_tu" code="A14_6_1_3" copyright="Francis Hemsher, 2012">
	<polygon id="BorderPoly" fill="none" pointer-events="none" stroke="red" stroke-width="4" transform="" points="96.962,-0.000244141 70.981,14.9998 55.981,40.9808 55.982,70.9808 40.981,96.9628 15,111.963 -7.62939e-006,137.944 0.000991821,167.944 15.001,193.925 40.982,208.924 55.982,234.904 55.981,264.904 70.981,290.884 96.962,305.884 126.962,305.885 152.943,290.885 167.943,264.904 167.943,234.905 182.943,208.924 208.923,193.923 238.924,193.923 223.923,167.942 223.924,137.942 238.924,111.962 208.924,111.962 182.943,96.9618 167.943,70.9808 167.943,40.9818 152.943,15.0007 126.962,-0.000244141"/>
	<g id="mainPolyG" transform=""><polygon id="mainPoly" fill="rgb(252, 194, 0)" stroke="black" onmouseover="setChange(evt)" onmouseout="unhiliteChange(evt)" onclick="changeMe(evt)" points="126.962,193.923 96.962,193.923 70.982,208.923 55.982,234.904 55.981,264.904 70.981,290.884 96.962,305.884 126.962,305.885 152.943,290.885 167.943,264.904 167.943,234.904 152.943,208.923" seed="0"/><polygon fill="rgb(219, 112, 147)" stroke="black" stroke-width="1" onmouseover="setChange(evt)" onmouseout="unhiliteChange(evt)" onclick="changeMe(evt)" points="182.943,96.9618 152.943,96.9618 126.962,111.962 111.962,137.943 111.962,167.943 126.962,193.923 152.943,208.923 182.943,208.924 208.923,193.923 223.923,167.942 223.924,137.942 208.924,111.962" seed="1"/><polygon fill="rgb(219, 112, 147)" stroke="black" stroke-width="1" onmouseover="setChange(evt)" onmouseout="unhiliteChange(evt)" onclick="changeMe(evt)" points="126.962,-0.000244141 96.962,-0.000244141 70.981,14.9998 55.981,40.9808 55.982,70.9808 70.982,96.9618 96.962,111.962 126.962,111.962 152.943,96.9618 167.943,70.9808 167.943,40.9818 152.943,15.0007" seed="2"/><polygon fill="rgb(147, 112, 219)" stroke="black" stroke-width="1" onmouseover="setChange(evt)" onmouseout="unhiliteChange(evt)" onclick="changeMe(evt)" points="182.943,208.924 152.943,208.923 167.943,234.905" seed="3"/><polygon fill="rgb(147, 112, 219)" stroke="black" stroke-width="1" onmouseover="setChange(evt)" onmouseout="unhiliteChange(evt)" onclick="changeMe(evt)" points="238.924,193.923 223.923,167.942 208.923,193.923" seed="4"/><polygon fill="rgb(147, 112, 219)" stroke="black" stroke-width="1" onmouseover="setChange(evt)" onmouseout="unhiliteChange(evt)" onclick="changeMe(evt)" points="238.924,111.962 208.924,111.962 223.924,137.942" seed="5"/><polygon fill="rgb(147, 112, 219)" stroke="black" stroke-width="1" onmouseover="setChange(evt)" onmouseout="unhiliteChange(evt)" onclick="changeMe(evt)" points="182.943,96.9618 167.943,70.9808 152.943,96.9618" seed="6"/><polygon fill="rgb(147, 112, 219)" stroke="black" stroke-width="1" onmouseover="setChange(evt)" onmouseout="unhiliteChange(evt)" onclick="changeMe(evt)" points="126.962,111.962 96.962,111.962 111.962,137.942" seed="7"/><polygon fill="rgb(147, 112, 219)" stroke="black" stroke-width="1" onmouseover="setChange(evt)" onmouseout="unhiliteChange(evt)" onclick="changeMe(evt)" points="126.962,193.923 111.962,167.943 96.962,193.923" seed="8"/><polygon fill="rgb(224, 176, 255)" stroke="black" stroke-width="1" onmouseover="setChange(evt)" onmouseout="unhiliteChange(evt)" onclick="changeMe(evt)" points="96.962,111.962 70.982,96.9618 55.983,122.943 81.963,137.943" seed="9"/><polygon fill="rgb(224, 176, 255)" stroke="black" stroke-width="1" onmouseover="setChange(evt)" onmouseout="unhiliteChange(evt)" onclick="changeMe(evt)" points="111.962,137.944 81.962,137.943 81.962,167.943 111.962,167.943" seed="10"/><polygon fill="rgb(224, 176, 255)" stroke="black" stroke-width="1" onmouseover="setChange(evt)" onmouseout="unhiliteChange(evt)" onclick="changeMe(evt)" points="96.962,193.923 81.962,167.942 55.981,182.942 70.982,208.923" seed="11"/><polygon fill="rgb(41, 171, 135)" stroke="black" stroke-width="1" onmouseover="setChange(evt)" onmouseout="unhiliteChange(evt)" onclick="changeMe(evt)" points="81.962,137.943 55.981,122.944 30,137.944 30.001,167.944 55.982,182.944 81.962,167.943" seed="12"/><polygon fill="rgb(224, 176, 255)" stroke="black" stroke-width="1" onmouseover="setChange(evt)" onmouseout="unhiliteChange(evt)" onclick="changeMe(evt)" points="55.981,122.944 40.981,96.9628 15,111.963 30,137.944" seed="13"/><polygon fill="rgb(224, 176, 255)" stroke="black" stroke-width="1" onmouseover="setChange(evt)" onmouseout="unhiliteChange(evt)" onclick="changeMe(evt)" points="30,137.944 -7.62939e-006,137.944 0.000991821,167.944 30.001,167.944" seed="14"/><polygon fill="rgb(224, 176, 255)" stroke="black" stroke-width="1" onmouseover="setChange(evt)" onmouseout="unhiliteChange(evt)" onclick="changeMe(evt)" points="55.982,182.944 30.001,167.944 15.001,193.925 40.982,208.924" seed="15"/><polygon fill="rgb(147, 112, 219)" stroke="black" stroke-width="1" onmouseover="setChange(evt)" onmouseout="unhiliteChange(evt)" onclick="changeMe(evt)" points="111.962,137.942 96.962,111.962 81.962,137.942" seed="16"/><polygon fill="rgb(147, 112, 219)" stroke="black" stroke-width="1" onmouseover="setChange(evt)" onmouseout="unhiliteChange(evt)" onclick="changeMe(evt)" points="111.962,167.943 81.962,167.943 96.962,193.923" seed="17"/><polygon fill="rgb(147, 112, 219)" stroke="black" stroke-width="1" onmouseover="setChange(evt)" onmouseout="unhiliteChange(evt)" onclick="changeMe(evt)" points="70.982,208.923 55.981,182.942 40.982,208.923" seed="18"/><polygon fill="rgb(147, 112, 219)" stroke="black" stroke-width="1" onmouseover="setChange(evt)" onmouseout="unhiliteChange(evt)" onclick="changeMe(evt)" points="30.001,167.944 0.000991821,167.944 15.001,193.925" seed="19"/><polygon fill="rgb(147, 112, 219)" stroke="black" stroke-width="1" onmouseover="setChange(evt)" onmouseout="unhiliteChange(evt)" onclick="changeMe(evt)" points="30,137.944 15,111.963 -7.62939e-006,137.944" seed="20"/><polygon fill="rgb(147, 112, 219)" stroke="black" stroke-width="1" onmouseover="setChange(evt)" onmouseout="unhiliteChange(evt)" onclick="changeMe(evt)" points="70.982,96.9638 40.981,96.9628 55.981,122.944" seed="21"/><polygon fill="rgb(147, 112, 219)" stroke="black" stroke-width="1" onmouseover="setChange(evt)" onmouseout="unhiliteChange(evt)" onclick="changeMe(evt)" points="70.981,96.9638 55.982,70.9828 40.981,96.9628" seed="22"/><polygon fill="rgb(147, 112, 219)" stroke="black" stroke-width="1" onmouseover="setChange(evt)" onmouseout="unhiliteChange(evt)" onclick="changeMe(evt)" points="55.982,234.903 70.982,208.923 40.982,208.923" seed="23"/></g>
</svg>
