<?xml version="1.0" encoding="utf-8" ?>

		<svg xmlns="http://www.w3.org/2000/svg" id="mainSVG" pointer-events="all" onkeyup="attachKey(evt)" width="148.978" height="132.9" EdgeLen="30" template="A14_6_2_R">

		<polygon id="BorderPoly" fill="none" pointer-events="none" stroke="red" stroke-width="4" transform="" points="140.191,7.76454 110.191,7.76454 80.191,7.76454 51.212,4.57764e-005 36.212,25.981 21.213,51.9607 0,73.1747 15,99.1557 29.999,125.136 58.977,132.901 88.977,132.9 118.977,132.901 133.978,106.92 148.978,80.9388 133.978,54.9577 118.978,28.977" />
		<g id="mainPolyG" transform=""><polygon id="mainPoly" fill="rgb(252, 194, 0)" stroke="black" onmouseover="setChange(evt)" onmouseout="unhiliteChange(evt)" onclick="changeMe(evt)" points="133.978,54.9577 103.978,54.9577 88.978,80.9388 103.978,106.92 133.978,106.92 148.978,80.9388" seed="0" /><polygon fill="rgb(147, 112, 219)" stroke="black" stroke-width="1" onmouseover="setChange(evt)" onmouseout="unhiliteChange(evt)" onclick="changeMe(evt)" points="103.978,54.9577 73.978,54.9577 88.978,80.9388" seed="1" /><polygon fill="rgb(147, 112, 219)" stroke="black" stroke-width="1" onmouseover="setChange(evt)" onmouseout="unhiliteChange(evt)" onclick="changeMe(evt)" points="103.977,106.92 88.978,80.9388 73.978,106.92" seed="2" /><polygon fill="rgb(41, 171, 135)" stroke="black" stroke-width="1" onmouseover="setChange(evt)" onmouseout="unhiliteChange(evt)" onclick="changeMe(evt)" points="73.978,54.9577 43.977,54.9577 28.977,80.9388 43.977,106.92 73.978,106.92 88.978,80.9388" seed="3" /><polygon fill="rgb(147, 112, 219)" stroke="black" stroke-width="1" onmouseover="setChange(evt)" onmouseout="unhiliteChange(evt)" onclick="changeMe(evt)" points="133.978,54.9577 118.978,28.977 103.978,54.9577" seed="4" /><polygon fill="rgb(147, 112, 219)" stroke="black" stroke-width="1" onmouseover="setChange(evt)" onmouseout="unhiliteChange(evt)" onclick="changeMe(evt)" points="118.977,28.9775 88.978,28.9775 103.978,54.9577" seed="5" /><polygon fill="rgb(147, 112, 219)" stroke="black" stroke-width="1" onmouseover="setChange(evt)" onmouseout="unhiliteChange(evt)" onclick="changeMe(evt)" points="103.978,54.9577 88.978,28.977 73.978,54.9577" seed="6" /><polygon fill="rgb(147, 112, 219)" stroke="black" stroke-width="1" onmouseover="setChange(evt)" onmouseout="unhiliteChange(evt)" onclick="changeMe(evt)" points="88.978,28.977 58.978,28.977 73.978,54.9577" seed="7" /><polygon fill="rgb(147, 112, 219)" stroke="black" stroke-width="1" onmouseover="setChange(evt)" onmouseout="unhiliteChange(evt)" onclick="changeMe(evt)" points="73.978,54.9577 58.978,28.977 43.978,54.9577" seed="8" /><polygon fill="rgb(147, 112, 219)" stroke="black" stroke-width="1" onmouseover="setChange(evt)" onmouseout="unhiliteChange(evt)" onclick="changeMe(evt)" points="73.977,106.92 43.977,106.92 58.977,132.901" seed="9" /><polygon fill="rgb(147, 112, 219)" stroke="black" stroke-width="1" onmouseover="setChange(evt)" onmouseout="unhiliteChange(evt)" onclick="changeMe(evt)" points="88.977,132.9 73.977,106.92 58.977,132.901" seed="10" /><polygon fill="rgb(147, 112, 219)" stroke="black" stroke-width="1" onmouseover="setChange(evt)" onmouseout="unhiliteChange(evt)" onclick="changeMe(evt)" points="103.977,106.92 73.977,106.92 88.977,132.901" seed="11" /><polygon fill="rgb(147, 112, 219)" stroke="black" stroke-width="1" onmouseover="setChange(evt)" onmouseout="unhiliteChange(evt)" onclick="changeMe(evt)" points="118.977,132.901 103.977,106.92 88.977,132.901" seed="12" /><polygon fill="rgb(147, 112, 219)" stroke="black" stroke-width="1" onmouseover="setChange(evt)" onmouseout="unhiliteChange(evt)" onclick="changeMe(evt)" points="133.978,106.92 103.978,106.92 118.978,132.901" seed="13" /><polygon fill="rgb(91, 146, 229)" stroke="black" stroke-width="1" onmouseover="setChange(evt)" onmouseout="unhiliteChange(evt)" onclick="changeMe(evt)" transform="" points="140.191,7.76454 110.191,7.76454 88.977,28.9775 118.977,28.9775" seed="14" /><polygon fill="rgb(91, 146, 229)" stroke="black" stroke-width="1" onmouseover="setChange(evt)" onmouseout="unhiliteChange(evt)" onclick="changeMe(evt)" transform="" points="88.977,28.9775 110.191,7.76405 80.191,7.76454 58.977,28.9775" seed="15" /><polygon fill="rgb(147, 112, 219)" stroke="black" stroke-width="1" onmouseover="setChange(evt)" onmouseout="unhiliteChange(evt)" onclick="changeMe(evt)" points="80.191,7.76454 51.212,4.57764e-005 58.977,28.978" seed="16" /><polygon fill="rgb(91, 146, 229)" stroke="black" stroke-width="1" onmouseover="setChange(evt)" onmouseout="unhiliteChange(evt)" onclick="changeMe(evt)" transform="" points="58.977,28.978 51.212,4.57764e-005 36.212,25.981 43.977,54.9587" seed="17" /><polygon fill="rgb(91, 146, 229)" stroke="black" stroke-width="1" onmouseover="setChange(evt)" onmouseout="unhiliteChange(evt)" onclick="changeMe(evt)" transform="" points="43.977,54.9577 36.213,25.98 21.213,51.9607 28.977,80.9388" seed="18" /><polygon fill="rgb(147, 112, 219)" stroke="black" stroke-width="1" onmouseover="setChange(evt)" onmouseout="unhiliteChange(evt)" onclick="changeMe(evt)" points="28.977,80.9388 21.213,51.9607 0,73.1747" seed="19" /><polygon fill="rgb(91, 146, 229)" stroke="black" stroke-width="1" onmouseover="setChange(evt)" onmouseout="unhiliteChange(evt)" onclick="changeMe(evt)" transform="" points="28.978,80.9388 0,73.1747 15,99.1557 43.978,106.92" seed="20" /><polygon fill="rgb(91, 146, 229)" stroke="black" stroke-width="1" onmouseover="setChange(evt)" onmouseout="unhiliteChange(evt)" onclick="changeMe(evt)" transform="" points="43.977,106.92 14.9995,99.1547 29.999,125.136 58.977,132.901" seed="21" /></g>


		</svg>
