<?xml version="1.0" encoding="utf-8" ?>

		<svg xmlns="http://www.w3.org/2000/svg" id="mainSVG" pointer-events="all" onkeyup="attachKey(evt)" width="268.979" height="103.924" EdgeLen="30" template="A14_2_3_R">

		<polygon id="BorderPoly" fill="none" pointer-events="none" stroke="red" stroke-width="4" transform="" points="238.979,4.57764e-005 208.979,4.57764e-005 178.978,4.57764e-005 163.978,25.9805 133.978,25.9805 118.979,51.9612 88.9775,51.9612 58.9775,51.9612 28.9775,51.9602 0.00050354,44.1955 15.0005,70.1762 30.0005,96.1572 58.9775,103.923 88.9775,103.923 118.979,103.923 148.978,103.923 163.978,77.9423 193.978,77.9423 208.978,51.9612 238.979,51.9622 268.979,51.9622 253.979,25.981" />
		<g id="mainPolyG" transform=""><polygon id="mainPoly" fill="rgb(252, 194, 0)" stroke="black" onmouseover="setChange(evt)" onmouseout="unhiliteChange(evt)" onclick="changeMe(evt)" points="163.978,25.9805 133.978,25.9805 118.979,51.9612 133.978,77.9423 163.978,77.9423 178.978,51.9612" seed="0" /><polygon fill="rgb(41, 171, 135)" stroke="black" stroke-width="1" onmouseover="setChange(evt)" onmouseout="unhiliteChange(evt)" onclick="changeMe(evt)" points="118.979,51.9612 88.9775,51.9612 73.9775,77.9423 88.9775,103.923 118.979,103.923 133.978,77.9423" seed="1" /><polygon fill="rgb(41, 171, 135)" stroke="black" stroke-width="1" onmouseover="setChange(evt)" onmouseout="unhiliteChange(evt)" onclick="changeMe(evt)" points="208.979,4.57764e-005 178.978,4.57764e-005 163.978,25.9805 178.978,51.9612 208.979,51.9612 223.979,25.981" seed="2" /><polygon fill="rgb(147, 112, 219)" stroke="black" stroke-width="1" onmouseover="setChange(evt)" onmouseout="unhiliteChange(evt)" onclick="changeMe(evt)" points="238.979,4.57764e-005 208.979,4.57764e-005 223.979,25.981" seed="3" /><polygon fill="rgb(147, 112, 219)" stroke="black" stroke-width="1" onmouseover="setChange(evt)" onmouseout="unhiliteChange(evt)" onclick="changeMe(evt)" points="253.979,25.981 238.979,4.57764e-005 223.979,25.981" seed="4" /><polygon fill="rgb(147, 112, 219)" stroke="black" stroke-width="1" onmouseover="setChange(evt)" onmouseout="unhiliteChange(evt)" onclick="changeMe(evt)" points="253.979,25.981 223.979,25.981 238.979,51.9622" seed="5" /><polygon fill="rgb(147, 112, 219)" stroke="black" stroke-width="1" onmouseover="setChange(evt)" onmouseout="unhiliteChange(evt)" onclick="changeMe(evt)" points="238.979,51.9622 223.979,25.981 208.978,51.9612" seed="6" /><polygon fill="rgb(147, 112, 219)" stroke="black" stroke-width="1" onmouseover="setChange(evt)" onmouseout="unhiliteChange(evt)" onclick="changeMe(evt)" points="268.979,51.9622 253.979,25.981 238.979,51.9622" seed="7" /><polygon fill="rgb(147, 112, 219)" stroke="black" stroke-width="1" onmouseover="setChange(evt)" onmouseout="unhiliteChange(evt)" onclick="changeMe(evt)" points="208.979,51.9612 178.979,51.9612 193.979,77.9423" seed="8" /><polygon fill="rgb(147, 112, 219)" stroke="black" stroke-width="1" onmouseover="setChange(evt)" onmouseout="unhiliteChange(evt)" onclick="changeMe(evt)" points="193.978,77.9423 178.978,51.9622 163.978,77.9423" seed="9" /><polygon fill="rgb(147, 112, 219)" stroke="black" stroke-width="1" onmouseover="setChange(evt)" onmouseout="unhiliteChange(evt)" onclick="changeMe(evt)" points="163.978,77.9423 133.978,77.9423 148.978,103.923" seed="10" /><polygon fill="rgb(147, 112, 219)" stroke="black" stroke-width="1" onmouseover="setChange(evt)" onmouseout="unhiliteChange(evt)" onclick="changeMe(evt)" points="148.978,103.923 133.978,77.9423 118.979,103.923" seed="11" /><polygon fill="rgb(147, 112, 219)" stroke="black" stroke-width="1" onmouseover="setChange(evt)" onmouseout="unhiliteChange(evt)" onclick="changeMe(evt)" points="88.9775,103.923 73.9775,77.9423 58.9775,103.923" seed="12" /><polygon fill="rgb(147, 112, 219)" stroke="black" stroke-width="1" onmouseover="setChange(evt)" onmouseout="unhiliteChange(evt)" onclick="changeMe(evt)" points="88.9785,51.9612 58.9775,51.9612 73.9775,77.9423" seed="13" /><polygon fill="rgb(147, 112, 219)" stroke="black" stroke-width="1" onmouseover="setChange(evt)" onmouseout="unhiliteChange(evt)" onclick="changeMe(evt)" points="73.9775,77.9423 58.9775,51.9612 43.9775,77.9412" seed="14" /><polygon fill="rgb(147, 112, 219)" stroke="black" stroke-width="1" onmouseover="setChange(evt)" onmouseout="unhiliteChange(evt)" onclick="changeMe(evt)" points="73.9775,77.9423 43.9775,77.9412 58.9775,103.922" seed="15" /><polygon fill="rgb(147, 112, 219)" stroke="black" stroke-width="1" onmouseover="setChange(evt)" onmouseout="unhiliteChange(evt)" onclick="changeMe(evt)" points="58.9775,51.9612 28.9775,51.9602 43.9775,77.9412" seed="16" /><polygon fill="rgb(91, 146, 229)" stroke="black" stroke-width="1" onmouseover="setChange(evt)" onmouseout="unhiliteChange(evt)" onclick="changeMe(evt)" transform="" points="43.9775,77.9412 15.0005,70.1762 30.0005,96.1572 58.9775,103.922" seed="17" /><polygon fill="rgb(91, 146, 229)" stroke="black" stroke-width="1" onmouseover="setChange(evt)" onmouseout="unhiliteChange(evt)" onclick="changeMe(evt)" transform="" points="28.9775,51.9602 0.00050354,44.1955 15.0005,70.1762 43.9775,77.9412" seed="18" /></g>


		</svg>
