<?xml version="1.0" encoding="utf-8" ?>

		<svg xmlns="http://www.w3.org/2000/svg" id="mainSVG" pointer-events="all" onkeyup="attachKey(evt)" width="231.513" height="212.654" EdgeLen="30" template="A14_15_7_R">

		<polygon id="BorderPoly" fill="none" pointer-events="none" stroke="red" stroke-width="4" transform="" points="128.445,0.00025177 102.465,15.0003 73.4865,22.7643 44.5085,30.5282 15.5295,38.2932 15.5295,68.2943 7.76451,97.2722 -0.000495911,126.249 21.2135,147.462 47.1945,162.462 39.4295,191.44 60.6425,212.653 89.6215,204.889 115.602,189.889 136.815,211.102 165.792,203.338 173.557,174.361 173.557,144.36 202.535,136.596 231.513,128.832 210.301,107.618 218.065,78.6422 192.085,63.6413 170.871,42.4272 178.637,13.4492 149.659,21.2132" />
		<g id="mainPolyG" transform=""><polygon id="mainPoly" fill="rgb(252, 194, 0)" stroke="black" onmouseover="setChange(evt)" onmouseout="unhiliteChange(evt)" onclick="changeMe(evt)" points="131.132,101.933 105.151,86.9332 79.1695,101.933 79.1695,131.933 105.151,146.933 131.132,131.933" seed="0" /><polygon fill="rgb(91, 146, 229)" stroke="black" stroke-width="1" onmouseover="setChange(evt)" onmouseout="unhiliteChange(evt)" onclick="changeMe(evt)" transform="" points="105.151,86.9332 112.916,57.9552 86.9345,72.9552 79.1695,101.933" seed="1" /><polygon fill="rgb(91, 146, 229)" stroke="black" stroke-width="1" onmouseover="setChange(evt)" onmouseout="unhiliteChange(evt)" onclick="changeMe(evt)" transform="" points="160.109,94.1693 134.129,79.1693 105.151,86.9332 131.132,101.933" seed="2" /><polygon fill="rgb(91, 146, 229)" stroke="black" stroke-width="1" onmouseover="setChange(evt)" onmouseout="unhiliteChange(evt)" onclick="changeMe(evt)" transform="" points="152.345,123.146 131.132,101.933 131.132,131.933 152.345,153.147" seed="3" /><polygon fill="rgb(91, 146, 229)" stroke="black" stroke-width="1" onmouseover="setChange(evt)" onmouseout="unhiliteChange(evt)" onclick="changeMe(evt)" transform="" points="123.367,160.911 131.132,131.933 105.151,146.933 97.3855,175.911" seed="4" /><polygon fill="rgb(91, 146, 229)" stroke="black" stroke-width="1" onmouseover="setChange(evt)" onmouseout="unhiliteChange(evt)" onclick="changeMe(evt)" transform="" points="105.151,146.933 79.1695,131.933 50.1915,139.698 76.1725,154.698" seed="5" /><polygon fill="rgb(91, 146, 229)" stroke="black" stroke-width="1" onmouseover="setChange(evt)" onmouseout="unhiliteChange(evt)" onclick="changeMe(evt)" transform="" points="79.1695,101.933 57.9565,80.7202 57.9565,110.72 79.1695,131.933" seed="6" /><polygon fill="rgb(147, 112, 219)" stroke="black" stroke-width="1" onmouseover="setChange(evt)" onmouseout="unhiliteChange(evt)" onclick="changeMe(evt)" points="134.129,79.1693 112.916,57.9552 105.151,86.9332" seed="7" /><polygon fill="rgb(147, 112, 219)" stroke="black" stroke-width="1" onmouseover="setChange(evt)" onmouseout="unhiliteChange(evt)" onclick="changeMe(evt)" points="152.345,123.146 160.109,94.1693 131.132,101.933" seed="8" /><polygon fill="rgb(147, 112, 219)" stroke="black" stroke-width="1" onmouseover="setChange(evt)" onmouseout="unhiliteChange(evt)" onclick="changeMe(evt)" points="152.345,153.147 131.132,131.934 123.367,160.911" seed="9" /><polygon fill="rgb(147, 112, 219)" stroke="black" stroke-width="1" onmouseover="setChange(evt)" onmouseout="unhiliteChange(evt)" onclick="changeMe(evt)" points="97.3855,175.911 105.151,146.933 76.1725,154.698" seed="10" /><polygon fill="rgb(147, 112, 219)" stroke="black" stroke-width="1" onmouseover="setChange(evt)" onmouseout="unhiliteChange(evt)" onclick="changeMe(evt)" points="79.1685,131.933 57.9555,110.72 50.1915,139.698" seed="11" /><polygon fill="rgb(147, 112, 219)" stroke="black" stroke-width="1" onmouseover="setChange(evt)" onmouseout="unhiliteChange(evt)" onclick="changeMe(evt)" points="79.1695,101.933 86.9345,72.9563 57.9565,80.7202" seed="12" /><polygon fill="rgb(41, 171, 135)" stroke="black" stroke-width="1" onmouseover="setChange(evt)" onmouseout="unhiliteChange(evt)" onclick="changeMe(evt)" points="94.6995,43.9782 73.4865,22.7643 44.5085,30.5282 36.7435,59.5062 57.9565,80.7202 86.9345,72.9563" seed="13" /><polygon fill="rgb(41, 171, 135)" stroke="black" stroke-width="1" onmouseover="setChange(evt)" onmouseout="unhiliteChange(evt)" onclick="changeMe(evt)" points="170.871,42.4272 149.659,21.2132 120.681,28.9772 112.916,57.9552 134.129,79.1693 163.107,71.4043" seed="14" /><polygon fill="rgb(41, 171, 135)" stroke="black" stroke-width="1" onmouseover="setChange(evt)" onmouseout="unhiliteChange(evt)" onclick="changeMe(evt)" points="210.301,107.618 189.087,86.4043 160.109,94.1693 152.345,123.146 173.557,144.36 202.535,136.596" seed="15" /><polygon fill="rgb(41, 171, 135)" stroke="black" stroke-width="1" onmouseover="setChange(evt)" onmouseout="unhiliteChange(evt)" onclick="changeMe(evt)" points="173.557,174.361 152.345,153.147 123.367,160.911 115.602,189.889 136.815,211.102 165.792,203.338" seed="16" /><polygon fill="rgb(41, 171, 135)" stroke="black" stroke-width="1" onmouseover="setChange(evt)" onmouseout="unhiliteChange(evt)" onclick="changeMe(evt)" points="97.3855,175.911 76.1725,154.698 47.1945,162.462 39.4295,191.44 60.6425,212.653 89.6215,204.889" seed="17" /><polygon fill="rgb(41, 171, 135)" stroke="black" stroke-width="1" onmouseover="setChange(evt)" onmouseout="unhiliteChange(evt)" onclick="changeMe(evt)" points="57.9555,110.72 36.7425,89.5072 7.76451,97.2722 -0.000495911,126.249 21.2135,147.462 50.1915,139.698" seed="18" /><polygon fill="rgb(91, 146, 229)" stroke="black" stroke-width="1" onmouseover="setChange(evt)" onmouseout="unhiliteChange(evt)" onclick="changeMe(evt)" transform="" points="76.1725,154.698 50.1915,139.698 21.2135,147.462 47.1945,162.462" seed="19" /><polygon fill="rgb(91, 146, 229)" stroke="black" stroke-width="1" onmouseover="setChange(evt)" onmouseout="unhiliteChange(evt)" onclick="changeMe(evt)" transform="" points="115.602,189.889 123.367,160.911 97.3855,175.911 89.6205,204.889" seed="20" /><polygon fill="rgb(91, 146, 229)" stroke="black" stroke-width="1" onmouseover="setChange(evt)" onmouseout="unhiliteChange(evt)" onclick="changeMe(evt)" transform="" points="173.557,144.36 152.345,123.146 152.344,153.146 173.557,174.36" seed="21" /><polygon fill="rgb(91, 146, 229)" stroke="black" stroke-width="1" onmouseover="setChange(evt)" onmouseout="unhiliteChange(evt)" onclick="changeMe(evt)" transform="" points="189.087,86.4043 163.107,71.4043 134.129,79.1693 160.109,94.1693" seed="22" /><polygon fill="rgb(91, 146, 229)" stroke="black" stroke-width="1" onmouseover="setChange(evt)" onmouseout="unhiliteChange(evt)" onclick="changeMe(evt)" transform="" points="112.916,57.9563 120.681,28.9782 94.6995,43.9782 86.9345,72.9563" seed="23" /><polygon fill="rgb(91, 146, 229)" stroke="black" stroke-width="1" onmouseover="setChange(evt)" onmouseout="unhiliteChange(evt)" onclick="changeMe(evt)" transform="" points="57.9555,80.7202 36.7425,59.5072 36.7425,89.5072 57.9555,110.72" seed="24" /><polygon fill="rgb(91, 146, 229)" stroke="black" stroke-width="1" onmouseover="setChange(evt)" onmouseout="unhiliteChange(evt)" onclick="changeMe(evt)" transform="" points="36.7425,59.5072 15.5295,38.2932 15.5295,68.2943 36.7425,89.5072" seed="25" /><polygon fill="rgb(147, 112, 219)" stroke="black" stroke-width="1" onmouseover="setChange(evt)" onmouseout="unhiliteChange(evt)" onclick="changeMe(evt)" points="36.7425,89.5072 15.5285,68.2943 7.76451,97.2722" seed="26" /><polygon fill="rgb(147, 112, 219)" stroke="black" stroke-width="1" onmouseover="setChange(evt)" onmouseout="unhiliteChange(evt)" onclick="changeMe(evt)" points="36.7425,59.5072 44.5075,30.5293 15.5295,38.2932" seed="27" /><polygon fill="rgb(91, 146, 229)" stroke="black" stroke-width="1" onmouseover="setChange(evt)" onmouseout="unhiliteChange(evt)" onclick="changeMe(evt)" transform="" points="120.681,28.9782 128.445,0.00025177 102.465,15.0003 94.6995,43.9782" seed="28" /><polygon fill="rgb(147, 112, 219)" stroke="black" stroke-width="1" onmouseover="setChange(evt)" onmouseout="unhiliteChange(evt)" onclick="changeMe(evt)" points="94.6995,43.9782 102.465,15.0003 73.4865,22.7643" seed="29" /><polygon fill="rgb(147, 112, 219)" stroke="black" stroke-width="1" onmouseover="setChange(evt)" onmouseout="unhiliteChange(evt)" onclick="changeMe(evt)" points="149.659,21.2132 128.445,0.00025177 120.681,28.9782" seed="30" /><polygon fill="rgb(147, 112, 219)" stroke="black" stroke-width="1" onmouseover="setChange(evt)" onmouseout="unhiliteChange(evt)" onclick="changeMe(evt)" points="192.085,63.6413 170.871,42.4272 163.107,71.4043" seed="31" /><polygon fill="rgb(91, 146, 229)" stroke="black" stroke-width="1" onmouseover="setChange(evt)" onmouseout="unhiliteChange(evt)" onclick="changeMe(evt)" transform="" points="218.065,78.6422 192.085,63.6413 163.107,71.4043 189.087,86.4052" seed="32" /><polygon fill="rgb(147, 112, 219)" stroke="black" stroke-width="1" onmouseover="setChange(evt)" onmouseout="unhiliteChange(evt)" onclick="changeMe(evt)" points="210.299,107.619 218.065,78.6422 189.086,86.4052" seed="33" /><polygon fill="rgb(147, 112, 219)" stroke="black" stroke-width="1" onmouseover="setChange(evt)" onmouseout="unhiliteChange(evt)" onclick="changeMe(evt)" points="170.871,42.4272 178.637,13.4492 149.659,21.2132" seed="34" /><polygon fill="rgb(147, 112, 219)" stroke="black" stroke-width="1" onmouseover="setChange(evt)" onmouseout="unhiliteChange(evt)" onclick="changeMe(evt)" points="231.513,128.832 210.301,107.618 202.535,136.596" seed="35" /></g>


		</svg>
