<svg xmlns="http://www.w3.org/2000/svg" id="mainSVG" pointer-events="all" width="82.5005" height="77.9425" EdgeLen="30" template="u4_111_tu" code="A14_0_6_0" copyright="Francis Hemsher, 2012">
	<polygon id="BorderPoly" fill="none" pointer-events="none" stroke="red" stroke-width="4" transform="" points="15.0002,1.52588e-005 15.0002,1.52588e-005 4.95911e-005,25.9806 7.50005,38.9711 4.95911e-005,51.9615 7.50005,64.9517 22.5002,64.9517 29.9997,77.9427 45.0003,77.9427 52.5005,64.9517 52.5005,64.9517 82.4997,64.9527 75.0007,51.962 82.5007,38.9716 75.0007,25.9811 82.5007,12.9906 67.5007,12.9906 60.0007,1.52588e-005"/><g id="mainPolyG" transform=""><polygon id="mainPoly" fill="rgb(224, 176, 255)" stroke="none" stroke-width="1" onmouseover="setChange(evt)" onmouseout="unhiliteChange(evt)" onclick="changeMe(evt)" points="30.0003,25.9806 22.5002,12.9901 7.50005,12.9901 4.95911e-005,25.9806 7.50005,38.9711 22.5002,38.9711" seed="0"/><polygon fill="rgb(224, 176, 255)" stroke="black" stroke-width="1" onmouseover="setChange(evt)" onmouseout="unhiliteChange(evt)" onclick="changeMe(evt)" points="4.95911e-005,51.9615 7.50005,38.9711 22.5002,38.9711 30.0003,51.9615 22.5002,64.9517 7.50005,64.9517" seed="1"/><polygon fill="rgb(224, 176, 255)" stroke="black" stroke-width="1" onmouseover="setChange(evt)" onmouseout="unhiliteChange(evt)" onclick="changeMe(evt)" points="45.0003,25.9806 30.0003,25.9806 22.5002,12.9901 30.0003,1.52588e-005 45.0003,1.52588e-005 52.5005,12.9906" seed="2"/><polygon fill="rgb(224, 176, 255)" stroke="black" stroke-width="1" onmouseover="setChange(evt)" onmouseout="unhiliteChange(evt)" onclick="changeMe(evt)" points="67.5007,12.9906 52.5005,12.9906 45.0003,25.9806 52.5005,38.9711 67.5007,38.9716 75.0007,25.9811" seed="3"/><polygon fill="rgb(224, 176, 255)" stroke="black" stroke-width="1" onmouseover="setChange(evt)" onmouseout="unhiliteChange(evt)" onclick="changeMe(evt)" points="45.0003,51.9615 52.5005,38.9711 67.5007,38.9716 75.0007,51.962 67.5007,64.9517 52.5005,64.9517" seed="4"/><polygon fill="rgb(224, 176, 255)" stroke="black" stroke-width="1" onmouseover="setChange(evt)" onmouseout="unhiliteChange(evt)" onclick="changeMe(evt)" points="45.0003,51.9615 30.0003,51.9615 22.5002,64.9517 29.9997,77.9427 45.0003,77.9427 52.5005,64.9517" seed="5"/><polygon fill="rgb(255, 186, 0)" stroke="black" stroke-width="1" onmouseover="setChange(evt)" onmouseout="unhiliteChange(evt)" onclick="changeMe(evt)" points="37.5003,38.9711 22.5002,38.9711 30.0003,25.9806" seed="6"/><polygon fill="rgb(255, 186, 0)" stroke="black" stroke-width="1" onmouseover="setChange(evt)" onmouseout="unhiliteChange(evt)" onclick="changeMe(evt)" points="37.5003,38.9711 45.0003,25.9806 30.0003,25.9806" seed="7"/><polygon fill="rgb(255, 186, 0)" stroke="black" stroke-width="1" onmouseover="setChange(evt)" onmouseout="unhiliteChange(evt)" onclick="changeMe(evt)" points="37.5003,38.9711 45.0003,25.9806 52.5005,38.9711" seed="8"/><polygon fill="rgb(255, 186, 0)" stroke="black" stroke-width="1" onmouseover="setChange(evt)" onmouseout="unhiliteChange(evt)" onclick="changeMe(evt)" points="37.5003,38.9711 45.0003,51.9615 52.5005,38.9711" seed="9"/><polygon fill="rgb(255, 186, 0)" stroke="black" stroke-width="1" onmouseover="setChange(evt)" onmouseout="unhiliteChange(evt)" onclick="changeMe(evt)" points="37.5003,38.9716 45.0003,51.9615 30.0003,51.9615" seed="10"/><polygon fill="rgb(255, 186, 0)" stroke="black" stroke-width="1" onmouseover="setChange(evt)" onmouseout="unhiliteChange(evt)" onclick="changeMe(evt)" points="37.5003,38.9711 22.5002,38.9711 30.0003,51.9615" seed="11"/><polygon fill="rgb(0, 255, 0)" stroke="black" stroke-width="1" onmouseover="setChange(evt)" onmouseout="unhiliteChange(evt)" onclick="changeMe(evt)" points="15.0002,1.52588e-005 22.5002,12.9901 7.50005,12.9901" seed="12"/><polygon fill="rgb(0, 255, 0)" stroke="black" stroke-width="1" onmouseover="setChange(evt)" onmouseout="unhiliteChange(evt)" onclick="changeMe(evt)" points="15.0002,1.52588e-005 22.5002,12.9901 30.0003,1.52588e-005" seed="13"/><polygon fill="rgb(0, 255, 0)" stroke="black" stroke-width="1" onmouseover="setChange(evt)" onmouseout="unhiliteChange(evt)" onclick="changeMe(evt)" points="60.0007,1.52588e-005 45.0003,1.52588e-005 52.5005,12.9906" seed="14"/><polygon fill="rgb(0, 255, 0)" stroke="black" stroke-width="1" onmouseover="setChange(evt)" onmouseout="unhiliteChange(evt)" onclick="changeMe(evt)" points="60.0007,1.52588e-005 67.5007,12.9906 52.5005,12.9906" seed="15"/><polygon fill="rgb(0, 255, 0)" stroke="black" stroke-width="1" onmouseover="setChange(evt)" onmouseout="unhiliteChange(evt)" onclick="changeMe(evt)" points="82.5007,12.9906 75.0007,25.9811 67.5007,12.9906" seed="16"/><polygon fill="rgb(0, 255, 0)" stroke="black" stroke-width="1" onmouseover="setChange(evt)" onmouseout="unhiliteChange(evt)" onclick="changeMe(evt)" points="82.5007,38.9716 67.5007,38.9716 75.0007,25.9811" seed="17"/><polygon fill="rgb(0, 255, 0)" stroke="black" stroke-width="1" onmouseover="setChange(evt)" onmouseout="unhiliteChange(evt)" onclick="changeMe(evt)" points="75.0007,51.962 82.5007,38.9716 67.5007,38.9716" seed="18"/><polygon fill="rgb(0, 255, 0)" stroke="black" stroke-width="1" onmouseover="setChange(evt)" onmouseout="unhiliteChange(evt)" onclick="changeMe(evt)" points="82.4997,64.9527 75.0007,51.962 67.4997,64.9517" seed="19"/></g></svg>
