<svg xmlns="http://www.w3.org/2000/svg" id="mainSVG" pointer-events="all" width="195.002" height="129.905" EdgeLen="30" template="u4_120_tu" code="A16_0_4_0" copyright="Francis Hemsher, 2012">
	<polygon id="BorderPoly" fill="none" pointer-events="none" stroke="red" stroke-width="4" transform="" points="150.001,1.52588e-005 135.001,25.981 45,25.981 3.05176e-005,103.923 30.001,103.924 45.001,129.905 135.001,129.905 195.002,25.9805 180.002,1.52588e-005"/><g id="mainPolyG" transform=""><polygon id="mainPoly" fill="rgb(224, 176, 255)" stroke="none" stroke-width="1" onmouseover="setChange(evt)" onmouseout="unhiliteChange(evt)" onclick="changeMe(evt)" points="165.001,77.9425 150.001,51.9615 120.001,51.9615 105.001,77.9425 120.001,103.924 150.001,103.924" seed="0"/><polygon fill="rgb(224, 176, 255)" stroke="black" stroke-width="1" onmouseover="setChange(evt)" onmouseout="unhiliteChange(evt)" onclick="changeMe(evt)" points="105.001,77.9425 75.001,77.9425 60.001,51.9615 75.001,25.981 105.001,25.981 120.001,51.9615" seed="1"/><polygon fill="rgb(41, 171, 135)" stroke="black" stroke-width="1" onmouseover="setChange(evt)" onmouseout="unhiliteChange(evt)" onclick="changeMe(evt)" points="90.002,103.923 105.001,77.9425 75.001,77.9425" seed="2"/><polygon fill="rgb(41, 171, 135)" stroke="black" stroke-width="1" onmouseover="setChange(evt)" onmouseout="unhiliteChange(evt)" onclick="changeMe(evt)" points="90.001,103.923 105.001,77.9425 120.001,103.924" seed="3"/><polygon fill="rgb(41, 171, 135)" stroke="black" stroke-width="1" onmouseover="setChange(evt)" onmouseout="unhiliteChange(evt)" onclick="changeMe(evt)" points="45.001,77.9425 75.001,77.9425 60.001,51.9625" seed="4"/><polygon fill="rgb(224, 176, 255)" stroke="black" stroke-width="1" onmouseover="setChange(evt)" onmouseout="unhiliteChange(evt)" onclick="changeMe(evt)" points="30.001,103.924 45.001,77.9425 75.001,77.9425 90.001,103.924 75.001,129.905 45.001,129.905" seed="5"/><polygon fill="rgb(41, 171, 135)" stroke="black" stroke-width="1" onmouseover="setChange(evt)" onmouseout="unhiliteChange(evt)" onclick="changeMe(evt)" points="105.001,129.904 120.001,103.924 90.001,103.923" seed="6"/><polygon fill="rgb(41, 171, 135)" stroke="black" stroke-width="1" onmouseover="setChange(evt)" onmouseout="unhiliteChange(evt)" onclick="changeMe(evt)" points="105.001,129.905 90.001,103.924 75.001,129.905" seed="7"/><polygon fill="rgb(41, 171, 135)" stroke="black" stroke-width="1" onmouseover="setChange(evt)" onmouseout="unhiliteChange(evt)" onclick="changeMe(evt)" points="135.001,129.905 120.001,103.924 150.001,103.924" seed="8"/><polygon fill="rgb(41, 171, 135)" stroke="black" stroke-width="1" onmouseover="setChange(evt)" onmouseout="unhiliteChange(evt)" onclick="changeMe(evt)" points="135.001,129.905 105.001,129.904 120.002,103.923" seed="9"/><polygon fill="rgb(41, 171, 135)" stroke="black" stroke-width="1" onmouseover="setChange(evt)" onmouseout="unhiliteChange(evt)" onclick="changeMe(evt)" points="180.001,51.9615 165.001,77.9425 150.001,51.9615" seed="10"/><polygon fill="rgb(41, 171, 135)" stroke="black" stroke-width="1" onmouseover="setChange(evt)" onmouseout="unhiliteChange(evt)" onclick="changeMe(evt)" points="135.001,25.981 150.001,51.9615 120.001,51.9615" seed="11"/><polygon fill="rgb(224, 176, 255)" stroke="black" stroke-width="1" onmouseover="setChange(evt)" onmouseout="unhiliteChange(evt)" onclick="changeMe(evt)" points="180.002,51.9615 195.002,25.9805 180.002,1.52588e-005 150.001,1.52588e-005 135.001,25.981 150.001,51.9615" seed="12"/><polygon fill="rgb(41, 171, 135)" stroke="black" stroke-width="1" onmouseover="setChange(evt)" onmouseout="unhiliteChange(evt)" onclick="changeMe(evt)" points="105.002,25.981 120.001,51.9615 135.001,25.981" seed="13"/><polygon fill="rgb(41, 171, 135)" stroke="black" stroke-width="1" onmouseover="setChange(evt)" onmouseout="unhiliteChange(evt)" onclick="changeMe(evt)" points="45,25.981 60.001,51.9615 75.001,25.981" seed="14"/><polygon fill="rgb(41, 171, 135)" stroke="black" stroke-width="1" onmouseover="setChange(evt)" onmouseout="unhiliteChange(evt)" onclick="changeMe(evt)" points="30,51.9615 45,25.981 60,51.9615" seed="15"/><polygon fill="rgb(41, 171, 135)" stroke="black" stroke-width="1" onmouseover="setChange(evt)" onmouseout="unhiliteChange(evt)" onclick="changeMe(evt)" points="45,77.9425 60,51.9615 30,51.9615" seed="16"/><polygon fill="rgb(41, 171, 135)" stroke="black" stroke-width="1" onmouseover="setChange(evt)" onmouseout="unhiliteChange(evt)" onclick="changeMe(evt)" points="15,77.9425 30,51.9615 45,77.9425" seed="17"/><polygon fill="rgb(41, 171, 135)" stroke="black" stroke-width="1" onmouseover="setChange(evt)" onmouseout="unhiliteChange(evt)" onclick="changeMe(evt)" points="30,103.924 45,77.9425 15,77.9425" seed="18"/><polygon fill="rgb(41, 171, 135)" stroke="black" stroke-width="1" onmouseover="setChange(evt)" onmouseout="unhiliteChange(evt)" onclick="changeMe(evt)" points="3.05176e-005,103.923 15,77.9425 30,103.924" seed="19"/></g><linearGradient id="gradient1" x1="0%" y1="100%" x2="100%" y2="0%"><stop stop-color="rgb(53,94,59)" stop-opacity="1" offset="0"/><stop stop-color="rgb(80,200,120)" stop-opacity="0.6" offset="0.5"/></linearGradient></svg>
