<?xml version="1.0" encoding="utf-8"?>
<svg xmlns="http://www.w3.org/2000/svg" id="mainSVG" pointer-events="all" width="446.771" height="309.903" EdgeLen="30" template="u6_81_tu" code="A18_30_11_1" copyright="Francis Hemsher, 2012">
	<polygon id="BorderPoly" fill="none" pointer-events="none" stroke="red" stroke-width="4" transform="" points="245.888,-0.000244141 230.886,25.9798 200.884,25.9787 174.903,40.9787 148.923,55.9787 122.944,70.9787 107.944,96.9608 77.9439,96.9588 51.9619,111.959 25.9809,126.96 -0.000137329,141.96 25.9809,156.96 51.9619,171.96 77.9419,186.959 107.943,186.96 122.943,212.941 148.923,227.941 174.904,242.941 200.884,257.94 185.883,283.921 200.883,309.902 230.883,309.903 245.883,283.922 271.867,268.922 297.844,253.922 323.826,238.922 353.826,238.923 368.827,212.942 394.808,197.941 420.787,182.94 446.768,167.941 431.769,141.963 446.771,115.978 420.789,100.978 394.808,85.9787 368.828,70.9787 353.827,44.9987 323.827,44.9987 297.847,29.9987 271.865,14.9987"/>
	<g id="mainPolyG" transform=""><polygon id="mainPoly" fill="rgb(252, 194, 0)" stroke="black" onmouseover="setChange(evt)" onmouseout="unhiliteChange(evt)" onclick="changeMe(evt)" points="230.885,85.9798 200.885,85.9787 174.905,100.979 159.905,126.96 159.904,156.96 174.904,182.941 200.885,197.941 230.885,197.941 256.865,182.941 271.865,156.96 271.866,126.96 256.866,100.98" seed="0"/><polygon fill="rgb(41, 171, 135)" stroke="black" stroke-width="1" onmouseover="setChange(evt)" onmouseout="unhiliteChange(evt)" onclick="changeMe(evt)" points="200.885,55.9787 174.903,40.9787 148.923,55.9787 148.923,85.9787 174.905,100.979 200.885,85.9787" seed="1"/><polygon fill="rgb(41, 171, 135)" stroke="black" stroke-width="1" onmouseover="setChange(evt)" onmouseout="unhiliteChange(evt)" onclick="changeMe(evt)" points="282.847,55.9787 256.866,40.9798 230.886,55.9798 230.885,85.9798 256.866,100.98 282.847,85.9798" seed="2"/><polygon fill="rgb(41, 171, 135)" stroke="black" stroke-width="1" onmouseover="setChange(evt)" onmouseout="unhiliteChange(evt)" onclick="changeMe(evt)" points="323.828,126.961 297.847,111.961 271.866,126.96 271.865,156.96 297.846,171.961 323.828,156.961" seed="3"/><polygon fill="rgb(41, 171, 135)" stroke="black" stroke-width="1" onmouseover="setChange(evt)" onmouseout="unhiliteChange(evt)" onclick="changeMe(evt)" points="282.847,197.941 256.865,182.941 230.885,197.941 230.885,227.941 256.867,242.941 282.847,227.941" seed="4"/><polygon fill="rgb(41, 171, 135)" stroke="black" stroke-width="1" onmouseover="setChange(evt)" onmouseout="unhiliteChange(evt)" onclick="changeMe(evt)" points="200.885,197.941 174.904,182.941 148.923,197.941 148.923,227.941 174.904,242.941 200.884,227.941" seed="5"/><polygon fill="rgb(41, 171, 135)" stroke="black" stroke-width="1" onmouseover="setChange(evt)" onmouseout="unhiliteChange(evt)" onclick="changeMe(evt)" points="159.905,126.96 133.924,111.96 107.943,126.96 107.942,156.96 133.922,171.96 159.904,156.96" seed="6"/><polygon fill="rgb(224, 176, 255)" stroke="black" stroke-width="1" onmouseover="setChange(evt)" onmouseout="unhiliteChange(evt)" onclick="changeMe(evt)" points="230.886,55.9798 200.886,55.9787 200.886,85.9787 230.885,85.9798" seed="7"/><polygon fill="rgb(224, 176, 255)" stroke="black" stroke-width="1" onmouseover="setChange(evt)" onmouseout="unhiliteChange(evt)" onclick="changeMe(evt)" points="297.847,111.96 282.847,85.9787 256.866,100.98 271.866,126.96" seed="8"/><polygon fill="rgb(224, 176, 255)" stroke="black" stroke-width="1" onmouseover="setChange(evt)" onmouseout="unhiliteChange(evt)" onclick="changeMe(evt)" points="297.847,171.96 271.865,156.96 256.865,182.941 282.846,197.941" seed="9"/><polygon fill="rgb(224, 176, 255)" stroke="black" stroke-width="1" onmouseover="setChange(evt)" onmouseout="unhiliteChange(evt)" onclick="changeMe(evt)" points="230.884,197.941 200.885,197.941 200.884,227.94 230.884,227.941" seed="10"/><polygon fill="rgb(224, 176, 255)" stroke="black" stroke-width="1" onmouseover="setChange(evt)" onmouseout="unhiliteChange(evt)" onclick="changeMe(evt)" points="174.904,182.941 159.904,156.96 133.923,171.96 148.923,197.941" seed="11"/><polygon fill="rgb(224, 176, 255)" stroke="black" stroke-width="1" onmouseover="setChange(evt)" onmouseout="unhiliteChange(evt)" onclick="changeMe(evt)" points="174.905,100.979 148.924,85.9798 133.923,111.96 159.905,126.96" seed="12"/><polygon fill="rgb(224, 176, 255)" stroke="black" stroke-width="1" onmouseover="setChange(evt)" onmouseout="unhiliteChange(evt)" onclick="changeMe(evt)" points="230.886,25.9798 200.886,25.9798 200.886,55.9787 230.885,55.9798" seed="13"/><polygon fill="rgb(224, 176, 255)" stroke="black" stroke-width="1" onmouseover="setChange(evt)" onmouseout="unhiliteChange(evt)" onclick="changeMe(evt)" points="323.828,96.9608 308.828,70.9798 282.847,85.9787 297.847,111.96" seed="14"/><polygon fill="rgb(224, 176, 255)" stroke="black" stroke-width="1" onmouseover="setChange(evt)" onmouseout="unhiliteChange(evt)" onclick="changeMe(evt)" points="323.826,186.961 297.847,171.96 282.846,197.94 308.826,212.941" seed="15"/><polygon fill="rgb(224, 176, 255)" stroke="black" stroke-width="1" onmouseover="setChange(evt)" onmouseout="unhiliteChange(evt)" onclick="changeMe(evt)" points="230.884,227.941 200.885,227.94 200.884,257.94 230.884,257.941" seed="16"/><polygon fill="rgb(224, 176, 255)" stroke="black" stroke-width="1" onmouseover="setChange(evt)" onmouseout="unhiliteChange(evt)" onclick="changeMe(evt)" points="148.923,197.941 133.923,171.961 107.943,186.96 122.943,212.941" seed="17"/><polygon fill="rgb(224, 176, 255)" stroke="black" stroke-width="1" onmouseover="setChange(evt)" onmouseout="unhiliteChange(evt)" onclick="changeMe(evt)" points="148.924,85.9798 122.944,70.9787 107.944,96.9597 133.923,111.96" seed="18"/><polygon fill="rgb(147, 112, 219)" stroke="black" stroke-width="1" onmouseover="setChange(evt)" onmouseout="unhiliteChange(evt)" onclick="changeMe(evt)" points="200.884,55.9787 200.884,25.9787 174.903,40.9787" seed="19"/><polygon fill="rgb(147, 112, 219)" stroke="black" stroke-width="1" onmouseover="setChange(evt)" onmouseout="unhiliteChange(evt)" onclick="changeMe(evt)" points="256.867,40.9808 230.886,25.9798 230.885,55.9798" seed="20"/><polygon fill="rgb(147, 112, 219)" stroke="black" stroke-width="1" onmouseover="setChange(evt)" onmouseout="unhiliteChange(evt)" onclick="changeMe(evt)" points="308.828,70.9787 282.847,55.9787 282.847,85.9787" seed="21"/><polygon fill="rgb(147, 112, 219)" stroke="black" stroke-width="1" onmouseover="setChange(evt)" onmouseout="unhiliteChange(evt)" onclick="changeMe(evt)" points="323.827,126.961 323.828,96.9597 297.847,111.96" seed="22"/><polygon fill="rgb(147, 112, 219)" stroke="black" stroke-width="1" onmouseover="setChange(evt)" onmouseout="unhiliteChange(evt)" onclick="changeMe(evt)" points="323.827,186.961 323.828,156.961 297.847,171.96" seed="23"/><polygon fill="rgb(147, 112, 219)" stroke="black" stroke-width="1" onmouseover="setChange(evt)" onmouseout="unhiliteChange(evt)" onclick="changeMe(evt)" points="308.826,212.941 282.846,197.94 282.845,227.94" seed="24"/><polygon fill="rgb(147, 112, 219)" stroke="black" stroke-width="1" onmouseover="setChange(evt)" onmouseout="unhiliteChange(evt)" onclick="changeMe(evt)" points="256.867,242.941 230.885,227.942 230.886,257.942" seed="25"/><polygon fill="rgb(147, 112, 219)" stroke="black" stroke-width="1" onmouseover="setChange(evt)" onmouseout="unhiliteChange(evt)" onclick="changeMe(evt)" points="200.884,257.941 200.884,227.941 174.903,242.941" seed="26"/><polygon fill="rgb(147, 112, 219)" stroke="black" stroke-width="1" onmouseover="setChange(evt)" onmouseout="unhiliteChange(evt)" onclick="changeMe(evt)" points="148.923,227.941 148.924,197.941 122.943,212.941" seed="27"/><polygon fill="rgb(147, 112, 219)" stroke="black" stroke-width="1" onmouseover="setChange(evt)" onmouseout="unhiliteChange(evt)" onclick="changeMe(evt)" points="133.922,171.96 107.942,156.96 107.942,186.96" seed="28"/><polygon fill="rgb(147, 112, 219)" stroke="black" stroke-width="1" onmouseover="setChange(evt)" onmouseout="unhiliteChange(evt)" onclick="changeMe(evt)" points="133.923,111.96 107.943,96.9597 107.943,126.96" seed="29"/><polygon fill="rgb(147, 112, 219)" stroke="black" stroke-width="1" onmouseover="setChange(evt)" onmouseout="unhiliteChange(evt)" onclick="changeMe(evt)" points="148.924,85.9798 148.925,55.9798 122.944,70.9787" seed="30"/><polygon fill="rgb(224, 176, 255)" stroke="black" stroke-width="1" onmouseover="setChange(evt)" onmouseout="unhiliteChange(evt)" onclick="changeMe(evt)" points="107.943,126.96 77.9419,126.959 77.9419,156.959 107.942,156.96" seed="31"/><polygon fill="rgb(224, 176, 255)" stroke="black" stroke-width="1" onmouseover="setChange(evt)" onmouseout="unhiliteChange(evt)" onclick="changeMe(evt)" points="107.944,96.9608 77.9439,96.9588 77.9429,126.959 107.943,126.96" seed="32"/><polygon fill="rgb(224, 176, 255)" stroke="black" stroke-width="1" onmouseover="setChange(evt)" onmouseout="unhiliteChange(evt)" onclick="changeMe(evt)" points="107.942,156.96 77.9419,156.959 77.9419,186.959 107.942,186.96" seed="33"/><polygon fill="rgb(41, 171, 135)" stroke="black" stroke-width="1" onmouseover="setChange(evt)" onmouseout="unhiliteChange(evt)" onclick="changeMe(evt)" points="77.9419,126.959 51.9619,111.959 25.9809,126.96 25.9809,156.96 51.9619,171.96 77.9419,156.959" seed="34"/><polygon fill="rgb(147, 112, 219)" stroke="black" stroke-width="1" onmouseover="setChange(evt)" onmouseout="unhiliteChange(evt)" onclick="changeMe(evt)" points="25.9809,156.96 25.9809,126.96 -0.000137329,141.96" seed="35"/><polygon fill="rgb(147, 112, 219)" stroke="black" stroke-width="1" onmouseover="setChange(evt)" onmouseout="unhiliteChange(evt)" onclick="changeMe(evt)" points="77.9419,126.959 77.9419,96.9588 51.9619,111.959" seed="36"/><polygon fill="rgb(147, 112, 219)" stroke="black" stroke-width="1" onmouseover="setChange(evt)" onmouseout="unhiliteChange(evt)" onclick="changeMe(evt)" points="77.9429,186.959 77.9419,156.959 51.9619,171.96" seed="37"/><polygon fill="rgb(224, 176, 255)" stroke="black" stroke-width="1" onmouseover="setChange(evt)" onmouseout="unhiliteChange(evt)" onclick="changeMe(evt)" points="297.847,29.9987 271.865,14.9987 256.866,40.9798 282.847,55.9787" seed="38"/><polygon fill="rgb(224, 176, 255)" stroke="black" stroke-width="1" onmouseover="setChange(evt)" onmouseout="unhiliteChange(evt)" onclick="changeMe(evt)" points="271.867,15.0007 245.888,-0.000244141 230.886,25.9798 256.867,40.9808" seed="39"/><polygon fill="rgb(224, 176, 255)" stroke="black" stroke-width="1" onmouseover="setChange(evt)" onmouseout="unhiliteChange(evt)" onclick="changeMe(evt)" points="323.827,44.9987 297.847,29.9978 282.847,55.9798 308.828,70.9787" seed="40"/><polygon fill="rgb(41, 171, 135)" stroke="black" stroke-width="1" onmouseover="setChange(evt)" onmouseout="unhiliteChange(evt)" onclick="changeMe(evt)" points="353.827,44.9987 323.827,44.9987 308.828,70.9798 323.828,96.9597 353.828,96.9597 368.828,70.9787" seed="41"/><polygon fill="rgb(224, 176, 255)" stroke="black" stroke-width="1" onmouseover="setChange(evt)" onmouseout="unhiliteChange(evt)" onclick="changeMe(evt)" points="353.827,96.9597 323.828,96.9597 323.827,126.959 353.827,126.96" seed="42"/><polygon fill="rgb(224, 176, 255)" stroke="black" stroke-width="1" onmouseover="setChange(evt)" onmouseout="unhiliteChange(evt)" onclick="changeMe(evt)" points="353.827,126.96 323.828,126.959 323.826,156.959 353.826,156.96" seed="43"/><polygon fill="rgb(224, 176, 255)" stroke="black" stroke-width="1" onmouseover="setChange(evt)" onmouseout="unhiliteChange(evt)" onclick="changeMe(evt)" points="353.826,156.96 323.826,156.959 323.826,186.959 353.826,186.96" seed="44"/><polygon fill="rgb(41, 171, 135)" stroke="black" stroke-width="1" onmouseover="setChange(evt)" onmouseout="unhiliteChange(evt)" onclick="changeMe(evt)" points="353.826,186.961 323.826,186.961 308.826,212.941 323.826,238.922 353.826,238.923 368.827,212.942" seed="45"/><polygon fill="rgb(224, 176, 255)" stroke="black" stroke-width="1" onmouseover="setChange(evt)" onmouseout="unhiliteChange(evt)" onclick="changeMe(evt)" points="323.825,238.922 308.826,212.941 282.845,227.94 297.844,253.922" seed="46"/><polygon fill="rgb(224, 176, 255)" stroke="black" stroke-width="1" onmouseover="setChange(evt)" onmouseout="unhiliteChange(evt)" onclick="changeMe(evt)" points="297.847,253.922 282.847,227.941 256.867,242.941 271.867,268.922" seed="47"/><polygon fill="rgb(224, 176, 255)" stroke="black" stroke-width="1" onmouseover="setChange(evt)" onmouseout="unhiliteChange(evt)" onclick="changeMe(evt)" points="271.867,268.922 256.866,242.942 230.886,257.942 245.886,283.922" seed="48"/><polygon fill="rgb(41, 171, 135)" stroke="black" stroke-width="1" onmouseover="setChange(evt)" onmouseout="unhiliteChange(evt)" onclick="changeMe(evt)" points="230.884,257.941 200.884,257.94 185.883,283.921 200.883,309.902 230.883,309.903 245.883,283.922" seed="49"/><polygon fill="rgb(224, 176, 255)" stroke="black" stroke-width="1" onmouseover="setChange(evt)" onmouseout="unhiliteChange(evt)" onclick="changeMe(evt)" points="394.808,85.9787 368.828,70.9787 353.828,96.9597 379.809,111.96" seed="50"/><polygon fill="rgb(224, 176, 255)" stroke="black" stroke-width="1" onmouseover="setChange(evt)" onmouseout="unhiliteChange(evt)" onclick="changeMe(evt)" points="420.789,100.978 394.808,85.9787 379.809,111.96 405.79,126.959" seed="51"/><polygon fill="rgb(224, 176, 255)" stroke="black" stroke-width="1" onmouseover="setChange(evt)" onmouseout="unhiliteChange(evt)" onclick="changeMe(evt)" points="446.771,115.978 420.789,100.978 405.79,126.959 431.771,141.959" seed="52"/><polygon fill="rgb(224, 176, 255)" stroke="black" stroke-width="1" onmouseover="setChange(evt)" onmouseout="unhiliteChange(evt)" onclick="changeMe(evt)" points="394.808,197.941 379.807,171.961 353.826,186.961 368.826,212.942" seed="53"/><polygon fill="rgb(224, 176, 255)" stroke="black" stroke-width="1" onmouseover="setChange(evt)" onmouseout="unhiliteChange(evt)" onclick="changeMe(evt)" points="420.787,182.94 405.787,156.96 379.807,171.961 394.808,197.941" seed="54"/><polygon fill="rgb(224, 176, 255)" stroke="black" stroke-width="1" onmouseover="setChange(evt)" onmouseout="unhiliteChange(evt)" onclick="changeMe(evt)" points="446.768,167.941 431.768,141.96 405.787,156.96 420.787,182.94" seed="55"/><polygon fill="rgb(41, 171, 135)" stroke="black" stroke-width="1" onmouseover="setChange(evt)" onmouseout="unhiliteChange(evt)" onclick="changeMe(evt)" points="405.789,126.962 379.808,111.96 353.827,126.96 353.826,156.96 379.807,171.96 405.788,156.962" seed="56"/><polygon fill="rgb(147, 112, 219)" stroke="black" stroke-width="1" onmouseover="setChange(evt)" onmouseout="unhiliteChange(evt)" onclick="changeMe(evt)" points="379.808,111.96 353.828,96.9597 353.827,126.96" seed="57"/><polygon fill="rgb(147, 112, 219)" stroke="black" stroke-width="1" onmouseover="setChange(evt)" onmouseout="unhiliteChange(evt)" onclick="changeMe(evt)" points="431.769,141.963 405.789,126.962 405.788,156.962" seed="58"/><polygon fill="rgb(147, 112, 219)" stroke="black" stroke-width="1" onmouseover="setChange(evt)" onmouseout="unhiliteChange(evt)" onclick="changeMe(evt)" points="379.807,171.96 353.826,156.96 353.826,186.96" seed="59"/></g>
</svg>
