<svg xmlns="http://www.w3.org/2000/svg" id="mainSVG" pointer-events="all" width="350.886" height="111.963" EdgeLen="30" template="u4_34_tu" code="A18_6_0_2" copyright="Francis Hemsher, 2012">
	<polygon id="BorderPoly" fill="none" pointer-events="none" stroke="red" stroke-width="4" transform="" points="55.9828,0 30.0018,15 0.00177002,14.9995 15.0018,40.9805 15.0008,70.9815 -0.000244141,96.9605 29.9998,96.9615 55.9808,111.961 85.9808,111.963 111.962,96.9625 141.963,96.9625 167.944,111.963 197.944,111.963 223.924,96.9625 253.924,96.9625 279.905,111.963 309.905,111.961 335.885,96.9615 350.885,70.9845 350.887,40.9845 335.887,15.003 309.906,0.00200272 279.906,0.00150299 253.925,15.001 223.925,15.0015 197.944,0.00150299 167.944,0.000999451 141.963,15.001 111.964,15.001 85.9828,0"/><g id="mainPolyG" transform=""><polygon id="mainPoly" fill="rgb(147, 112, 219)" stroke="none" stroke-width="1" onmouseover="setChange(evt)" onmouseout="unhiliteChange(evt)" onclick="changeMe(evt)" points="238.924,70.9825 238.925,40.982 223.925,15.0015 197.944,0.00150299 167.944,0.000999451 141.963,15.001 126.963,40.982 126.963,70.9825 141.963,96.9625 167.944,111.963 197.944,111.963 223.924,96.9625" seed="0"/><polygon fill="rgb(147, 112, 219)" stroke="black" stroke-width="1" onmouseover="setChange(evt)" onmouseout="unhiliteChange(evt)" onclick="changeMe(evt)" points="15.0018,40.9805 30.0018,15 55.9828,0 85.9828,0 111.964,15.001 126.963,40.982 126.963,70.9825 111.962,96.9625 85.9808,111.963 55.9808,111.961 29.9998,96.9615 15.0008,70.9815" seed="1"/><polygon fill="rgb(41, 171, 135)" stroke="black" stroke-width="1" onmouseover="setChange(evt)" onmouseout="unhiliteChange(evt)" onclick="changeMe(evt)" points="141.964,15.0015 111.964,15.001 126.963,40.982" seed="2"/><polygon fill="rgb(41, 171, 135)" stroke="black" stroke-width="1" onmouseover="setChange(evt)" onmouseout="unhiliteChange(evt)" onclick="changeMe(evt)" points="141.963,96.9625 126.963,70.9825 111.962,96.9625" seed="3"/><polygon fill="rgb(41, 171, 135)" stroke="black" stroke-width="1" onmouseover="setChange(evt)" onmouseout="unhiliteChange(evt)" onclick="changeMe(evt)" points="0.00177002,14.9995 15.0018,40.9805 30.0018,15" seed="4"/><polygon fill="rgb(41, 171, 135)" stroke="black" stroke-width="1" onmouseover="setChange(evt)" onmouseout="unhiliteChange(evt)" onclick="changeMe(evt)" points="-0.000244141,96.9605 29.9998,96.9615 15.0008,70.9805" seed="5"/><polygon fill="rgb(224, 176, 255)" stroke="black" stroke-width="1" onmouseover="setChange(evt)" onmouseout="unhiliteChange(evt)" onclick="changeMe(evt)" points="268.924,70.9825 238.924,70.9825 238.925,40.9825 268.925,40.9825" seed="6"/><polygon fill="rgb(41, 171, 135)" stroke="black" stroke-width="1" onmouseover="setChange(evt)" onmouseout="unhiliteChange(evt)" onclick="changeMe(evt)" points="253.925,15.001 238.925,40.982 223.925,15.0015" seed="7"/><polygon fill="rgb(41, 171, 135)" stroke="black" stroke-width="1" onmouseover="setChange(evt)" onmouseout="unhiliteChange(evt)" onclick="changeMe(evt)" points="253.925,15.0015 238.925,40.9825 268.925,40.9825" seed="8"/><polygon fill="rgb(41, 171, 135)" stroke="black" stroke-width="1" onmouseover="setChange(evt)" onmouseout="unhiliteChange(evt)" onclick="changeMe(evt)" points="253.924,96.9625 223.924,96.9625 238.924,70.9825" seed="9"/><polygon fill="rgb(41, 171, 135)" stroke="black" stroke-width="1" onmouseover="setChange(evt)" onmouseout="unhiliteChange(evt)" onclick="changeMe(evt)" points="268.924,70.9825 238.924,70.9825 253.924,96.9625" seed="10"/><polygon fill="rgb(224, 176, 255)" stroke="black" stroke-width="1" onmouseover="setChange(evt)" onmouseout="unhiliteChange(evt)" onclick="changeMe(evt)" points="279.905,111.963 253.924,96.9625 268.924,70.9825 294.905,85.9825" seed="11"/><polygon fill="rgb(224, 176, 255)" stroke="black" stroke-width="1" onmouseover="setChange(evt)" onmouseout="unhiliteChange(evt)" onclick="changeMe(evt)" points="294.906,25.983 268.925,40.9825 253.925,15.002 279.906,0.00150299" seed="12"/><polygon fill="rgb(41, 171, 135)" stroke="black" stroke-width="1" onmouseover="setChange(evt)" onmouseout="unhiliteChange(evt)" onclick="changeMe(evt)" points="309.906,0.00200272 279.906,0.00150299 294.905,25.9825" seed="13"/><polygon fill="rgb(41, 171, 135)" stroke="black" stroke-width="1" onmouseover="setChange(evt)" onmouseout="unhiliteChange(evt)" onclick="changeMe(evt)" points="294.905,55.9835 268.925,40.9825 268.924,70.9825" seed="14"/><polygon fill="rgb(41, 171, 135)" stroke="black" stroke-width="1" onmouseover="setChange(evt)" onmouseout="unhiliteChange(evt)" onclick="changeMe(evt)" points="294.905,55.9835 294.906,25.983 268.925,40.9825" seed="15"/><polygon fill="rgb(41, 171, 135)" stroke="black" stroke-width="1" onmouseover="setChange(evt)" onmouseout="unhiliteChange(evt)" onclick="changeMe(evt)" points="294.904,55.9815 268.924,70.9825 294.905,85.9815" seed="16"/><polygon fill="rgb(41, 171, 135)" stroke="black" stroke-width="1" onmouseover="setChange(evt)" onmouseout="unhiliteChange(evt)" onclick="changeMe(evt)" points="320.887,40.9835 294.905,55.9835 294.906,25.983" seed="17"/><polygon fill="rgb(41, 171, 135)" stroke="black" stroke-width="1" onmouseover="setChange(evt)" onmouseout="unhiliteChange(evt)" onclick="changeMe(evt)" points="320.885,70.9815 294.905,85.9815 294.904,55.9815" seed="18"/><polygon fill="rgb(41, 171, 135)" stroke="black" stroke-width="1" onmouseover="setChange(evt)" onmouseout="unhiliteChange(evt)" onclick="changeMe(evt)" points="320.886,70.9835 320.887,40.9835 294.906,55.9835" seed="19"/><polygon fill="rgb(224, 176, 255)" stroke="black" stroke-width="1" onmouseover="setChange(evt)" onmouseout="unhiliteChange(evt)" onclick="changeMe(evt)" points="350.885,70.9845 320.886,70.9835 320.887,40.984 350.887,40.9845" seed="20"/><polygon fill="rgb(224, 176, 255)" stroke="black" stroke-width="1" onmouseover="setChange(evt)" onmouseout="unhiliteChange(evt)" onclick="changeMe(evt)" points="335.885,96.9615 320.885,70.9815 294.905,85.9815 309.905,111.961" seed="21"/><polygon fill="rgb(224, 176, 255)" stroke="black" stroke-width="1" onmouseover="setChange(evt)" onmouseout="unhiliteChange(evt)" onclick="changeMe(evt)" points="309.906,0.00200272 294.906,25.983 320.886,40.983 335.887,15.003" seed="22"/><polygon fill="rgb(41, 171, 135)" stroke="black" stroke-width="1" onmouseover="setChange(evt)" onmouseout="unhiliteChange(evt)" onclick="changeMe(evt)" points="335.887,15.003 350.886,40.984 320.886,40.983" seed="23"/><polygon fill="rgb(41, 171, 135)" stroke="black" stroke-width="1" onmouseover="setChange(evt)" onmouseout="unhiliteChange(evt)" onclick="changeMe(evt)" points="320.885,70.9835 335.884,96.9655 350.885,70.9845" seed="24"/><polygon fill="rgb(41, 171, 135)" stroke="black" stroke-width="1" onmouseover="setChange(evt)" onmouseout="unhiliteChange(evt)" onclick="changeMe(evt)" points="309.905,111.961 279.905,111.963 294.905,85.9815" seed="25"/></g></svg>
