<?xml version="1.0" encoding="utf-8"?>
<svg xmlns="http://www.w3.org/2000/svg" id="mainSVG" pointer-events="all" width="357.847" height="298.924" EdgeLen="30" template="u6_93_tu" code="A18_18_7_3" copyright="Francis Hemsher, 2012">
	<polygon id="BorderPoly" fill="none" pointer-events="none" stroke="red" stroke-width="4" transform="" points="193.925,15.0013 163.925,15.0003 137.945,0.000259399 111.964,14.9993 111.963,45.0003 96.9634,70.9812 70.9814,85.9812 40.9814,85.9803 40.9814,115.98 15.0004,130.98 0.000411987,156.961 0.000411987,186.961 15.0004,212.942 40.9814,227.942 70.9814,227.941 70.9804,257.941 96.9614,272.942 111.961,298.923 137.942,283.923 163.923,298.923 193.923,298.923 219.903,283.923 245.884,298.923 260.884,272.942 286.865,257.943 286.865,227.943 316.865,227.943 342.846,212.943 357.846,186.963 357.847,156.963 342.846,130.982 316.867,115.981 316.867,85.9823 286.867,85.9812 260.886,70.9812 245.886,45.0003 245.888,15.0023 219.908,0.00125122"/>
	<g id="mainPolyG" transform=""><polygon id="mainPoly" fill="rgb(252, 194, 0)" stroke="black" onmouseover="setChange(evt)" onmouseout="unhiliteChange(evt)" onclick="changeMe(evt)" points="193.923,186.962 163.923,186.961 137.942,201.961 122.942,227.942 122.942,257.942 137.942,283.923 163.923,298.923 193.923,298.923 219.903,283.923 234.903,257.942 234.904,227.942 219.904,201.962" seed="0"/><polygon fill="rgb(147, 112, 219)" stroke="black" stroke-width="1" onmouseover="setChange(evt)" onmouseout="unhiliteChange(evt)" onclick="changeMe(evt)" points="122.942,257.942 122.942,227.942 96.9614,242.942" seed="1"/><polygon fill="rgb(147, 112, 219)" stroke="black" stroke-width="1" onmouseover="setChange(evt)" onmouseout="unhiliteChange(evt)" onclick="changeMe(evt)" points="122.943,227.942 96.9624,212.942 96.9614,242.942" seed="2"/><polygon fill="rgb(147, 112, 219)" stroke="black" stroke-width="1" onmouseover="setChange(evt)" onmouseout="unhiliteChange(evt)" onclick="changeMe(evt)" points="96.9614,242.942 96.9624,212.942 70.9814,227.941" seed="3"/><polygon fill="rgb(147, 112, 219)" stroke="black" stroke-width="1" onmouseover="setChange(evt)" onmouseout="unhiliteChange(evt)" onclick="changeMe(evt)" points="96.9614,242.942 70.9814,227.941 70.9804,257.941" seed="4"/><polygon fill="rgb(147, 112, 219)" stroke="black" stroke-width="1" onmouseover="setChange(evt)" onmouseout="unhiliteChange(evt)" onclick="changeMe(evt)" points="96.9614,272.942 96.9614,242.941 70.9804,257.941" seed="5"/><polygon fill="rgb(147, 112, 219)" stroke="black" stroke-width="1" onmouseover="setChange(evt)" onmouseout="unhiliteChange(evt)" onclick="changeMe(evt)" points="122.942,257.942 96.9614,242.941 96.9614,272.941" seed="6"/><polygon fill="rgb(147, 112, 219)" stroke="black" stroke-width="1" onmouseover="setChange(evt)" onmouseout="unhiliteChange(evt)" onclick="changeMe(evt)" points="260.884,242.943 234.904,227.942 234.903,257.942" seed="7"/><polygon fill="rgb(147, 112, 219)" stroke="black" stroke-width="1" onmouseover="setChange(evt)" onmouseout="unhiliteChange(evt)" onclick="changeMe(evt)" points="260.884,242.943 260.885,212.943 234.904,227.942" seed="8"/><polygon fill="rgb(147, 112, 219)" stroke="black" stroke-width="1" onmouseover="setChange(evt)" onmouseout="unhiliteChange(evt)" onclick="changeMe(evt)" points="286.865,227.943 260.885,212.943 260.884,242.943" seed="9"/><polygon fill="rgb(147, 112, 219)" stroke="black" stroke-width="1" onmouseover="setChange(evt)" onmouseout="unhiliteChange(evt)" onclick="changeMe(evt)" points="286.865,257.943 286.865,227.943 260.884,242.943" seed="10"/><polygon fill="rgb(147, 112, 219)" stroke="black" stroke-width="1" onmouseover="setChange(evt)" onmouseout="unhiliteChange(evt)" onclick="changeMe(evt)" points="286.865,257.943 260.884,242.943 260.884,272.943" seed="11"/><polygon fill="rgb(147, 112, 219)" stroke="black" stroke-width="1" onmouseover="setChange(evt)" onmouseout="unhiliteChange(evt)" onclick="changeMe(evt)" points="260.884,272.943 260.884,242.943 234.903,257.942" seed="12"/><polygon fill="rgb(224, 176, 255)" stroke="black" stroke-width="1" onmouseover="setChange(evt)" onmouseout="unhiliteChange(evt)" onclick="changeMe(evt)" points="193.923,156.962 163.923,156.961 163.923,186.961 193.923,186.962" seed="13"/><polygon fill="rgb(224, 176, 255)" stroke="black" stroke-width="1" onmouseover="setChange(evt)" onmouseout="unhiliteChange(evt)" onclick="changeMe(evt)" points="137.942,201.961 111.962,186.961 96.9614,212.942 122.943,227.942" seed="14"/><polygon fill="rgb(224, 176, 255)" stroke="black" stroke-width="1" onmouseover="setChange(evt)" onmouseout="unhiliteChange(evt)" onclick="changeMe(evt)" points="137.942,283.923 122.942,257.942 96.9614,272.942 111.961,298.923" seed="15"/><polygon fill="rgb(224, 176, 255)" stroke="black" stroke-width="1" onmouseover="setChange(evt)" onmouseout="unhiliteChange(evt)" onclick="changeMe(evt)" points="260.884,272.942 234.903,257.942 219.903,283.923 245.884,298.923" seed="16"/><polygon fill="rgb(224, 176, 255)" stroke="black" stroke-width="1" onmouseover="setChange(evt)" onmouseout="unhiliteChange(evt)" onclick="changeMe(evt)" points="260.884,212.942 245.885,186.961 219.904,201.962 234.904,227.942" seed="17"/><polygon fill="rgb(41, 171, 135)" stroke="black" stroke-width="1" onmouseover="setChange(evt)" onmouseout="unhiliteChange(evt)" onclick="changeMe(evt)" points="163.923,156.961 137.941,141.961 111.961,156.961 111.961,186.961 137.942,201.961 163.923,186.961" seed="18"/><polygon fill="rgb(41, 171, 135)" stroke="black" stroke-width="1" onmouseover="setChange(evt)" onmouseout="unhiliteChange(evt)" onclick="changeMe(evt)" points="245.884,156.961 219.904,141.962 193.923,156.962 193.923,186.962 219.904,201.962 245.884,186.962" seed="19"/><polygon fill="rgb(0, 128, 128)" stroke="black" stroke-width="1" onmouseover="setChange(evt)" onmouseout="unhiliteChange(evt)" onclick="changeMe(evt)" points="70.9814,115.98 40.9814,115.98 15.0004,130.98 0.000411987,156.961 0.000411987,186.961 15.0004,212.942 40.9814,227.942 70.9804,227.942 96.9614,212.942 111.962,186.961 111.962,156.962 96.9624,130.981" seed="20"/><polygon fill="rgb(0, 128, 128)" stroke="black" stroke-width="1" onmouseover="setChange(evt)" onmouseout="unhiliteChange(evt)" onclick="changeMe(evt)" points="316.867,115.981 286.866,115.981 260.885,130.981 245.885,156.961 245.885,186.961 260.884,212.942 286.865,227.943 316.865,227.943 342.846,212.943 357.846,186.963 357.847,156.963 342.846,130.982" seed="21"/><polygon fill="rgb(224, 176, 255)" stroke="black" stroke-width="1" onmouseover="setChange(evt)" onmouseout="unhiliteChange(evt)" onclick="changeMe(evt)" points="137.942,141.962 122.943,115.981 96.9624,130.981 111.962,156.962" seed="22"/><polygon fill="rgb(224, 176, 255)" stroke="black" stroke-width="1" onmouseover="setChange(evt)" onmouseout="unhiliteChange(evt)" onclick="changeMe(evt)" points="70.9814,85.9812 40.9814,85.9803 40.9814,115.98 70.9814,115.98" seed="23"/><polygon fill="rgb(224, 176, 255)" stroke="black" stroke-width="1" onmouseover="setChange(evt)" onmouseout="unhiliteChange(evt)" onclick="changeMe(evt)" points="316.867,85.9823 286.867,85.9812 286.867,115.981 316.867,115.981" seed="24"/><polygon fill="rgb(224, 176, 255)" stroke="black" stroke-width="1" onmouseover="setChange(evt)" onmouseout="unhiliteChange(evt)" onclick="changeMe(evt)" points="260.885,130.981 234.905,115.981 219.904,141.962 245.885,156.961" seed="25"/><polygon fill="rgb(224, 176, 255)" stroke="black" stroke-width="1" onmouseover="setChange(evt)" onmouseout="unhiliteChange(evt)" onclick="changeMe(evt)" points="193.924,126.962 163.924,126.962 163.923,156.961 193.923,156.962" seed="26"/><polygon fill="rgb(224, 176, 255)" stroke="black" stroke-width="1" onmouseover="setChange(evt)" onmouseout="unhiliteChange(evt)" onclick="changeMe(evt)" points="163.923,126.963 148.924,100.982 122.943,115.981 137.942,141.962" seed="27"/><polygon fill="rgb(224, 176, 255)" stroke="black" stroke-width="1" onmouseover="setChange(evt)" onmouseout="unhiliteChange(evt)" onclick="changeMe(evt)" points="234.904,115.981 208.924,100.981 193.923,126.962 219.904,141.962" seed="28"/><polygon fill="rgb(41, 171, 135)" stroke="black" stroke-width="1" onmouseover="setChange(evt)" onmouseout="unhiliteChange(evt)" onclick="changeMe(evt)" points="193.925,75.0003 163.925,75.0003 148.925,100.981 163.924,126.962 193.924,126.962 208.925,100.981" seed="29"/><polygon fill="rgb(224, 176, 255)" stroke="black" stroke-width="1" onmouseover="setChange(evt)" onmouseout="unhiliteChange(evt)" onclick="changeMe(evt)" points="234.906,85.9812 219.905,60.0003 193.925,75.0003 208.925,100.981" seed="30"/><polygon fill="rgb(224, 176, 255)" stroke="black" stroke-width="1" onmouseover="setChange(evt)" onmouseout="unhiliteChange(evt)" onclick="changeMe(evt)" points="260.886,70.9812 245.886,45.0003 219.905,60.0013 234.906,85.9812" seed="31"/><polygon fill="rgb(224, 176, 255)" stroke="black" stroke-width="1" onmouseover="setChange(evt)" onmouseout="unhiliteChange(evt)" onclick="changeMe(evt)" points="193.925,45.0003 163.925,45.0003 163.925,75.0003 193.924,75.0003" seed="32"/><polygon fill="rgb(224, 176, 255)" stroke="black" stroke-width="1" onmouseover="setChange(evt)" onmouseout="unhiliteChange(evt)" onclick="changeMe(evt)" points="193.925,15.0013 163.925,15.0003 163.926,45.0003 193.925,45.0003" seed="33"/><polygon fill="rgb(224, 176, 255)" stroke="black" stroke-width="1" onmouseover="setChange(evt)" onmouseout="unhiliteChange(evt)" onclick="changeMe(evt)" points="163.925,75.0003 137.944,60.0003 122.944,85.9812 148.925,100.981" seed="34"/><polygon fill="rgb(224, 176, 255)" stroke="black" stroke-width="1" onmouseover="setChange(evt)" onmouseout="unhiliteChange(evt)" onclick="changeMe(evt)" points="137.944,60.0003 111.963,45.0003 96.9634,70.9812 122.944,85.9812" seed="35"/><polygon fill="rgb(147, 112, 219)" stroke="black" stroke-width="1" onmouseover="setChange(evt)" onmouseout="unhiliteChange(evt)" onclick="changeMe(evt)" points="163.925,75.0003 163.925,45.0013 137.944,60.0003" seed="36"/><polygon fill="rgb(147, 112, 219)" stroke="black" stroke-width="1" onmouseover="setChange(evt)" onmouseout="unhiliteChange(evt)" onclick="changeMe(evt)" points="219.905,60.0013 193.925,45.0003 193.924,75.0003" seed="37"/><polygon fill="rgb(147, 112, 219)" stroke="black" stroke-width="1" onmouseover="setChange(evt)" onmouseout="unhiliteChange(evt)" onclick="changeMe(evt)" points="234.905,115.981 234.906,85.9812 208.925,100.981" seed="38"/><polygon fill="rgb(147, 112, 219)" stroke="black" stroke-width="1" onmouseover="setChange(evt)" onmouseout="unhiliteChange(evt)" onclick="changeMe(evt)" points="219.904,141.962 193.923,126.962 193.924,156.962" seed="39"/><polygon fill="rgb(147, 112, 219)" stroke="black" stroke-width="1" onmouseover="setChange(evt)" onmouseout="unhiliteChange(evt)" onclick="changeMe(evt)" points="163.923,156.962 163.924,126.962 137.943,141.961" seed="40"/><polygon fill="rgb(147, 112, 219)" stroke="black" stroke-width="1" onmouseover="setChange(evt)" onmouseout="unhiliteChange(evt)" onclick="changeMe(evt)" points="148.924,100.982 122.944,85.9803 122.943,115.981" seed="41"/><polygon fill="rgb(41, 171, 135)" stroke="black" stroke-width="1" onmouseover="setChange(evt)" onmouseout="unhiliteChange(evt)" onclick="changeMe(evt)" points="122.944,85.9812 96.9644,70.9803 70.9824,85.9803 70.9814,115.98 96.9624,130.98 122.943,115.981" seed="42"/><polygon fill="rgb(41, 171, 135)" stroke="black" stroke-width="1" onmouseover="setChange(evt)" onmouseout="unhiliteChange(evt)" onclick="changeMe(evt)" points="163.926,15.0013 137.945,0.000259399 111.964,14.9993 111.964,45.0003 137.944,60.0003 163.925,45.0013" seed="43"/><polygon fill="rgb(41, 171, 135)" stroke="black" stroke-width="1" onmouseover="setChange(evt)" onmouseout="unhiliteChange(evt)" onclick="changeMe(evt)" points="245.888,15.0023 219.908,0.00125122 193.927,15.0003 193.925,45.0003 219.905,60.0013 245.886,45.0023" seed="44"/><polygon fill="rgb(41, 171, 135)" stroke="black" stroke-width="1" onmouseover="setChange(evt)" onmouseout="unhiliteChange(evt)" onclick="changeMe(evt)" points="286.868,85.9823 260.887,70.9823 234.906,85.9812 234.905,115.981 260.886,130.982 286.867,115.982" seed="45"/></g>
</svg>
