<?xml version="1.0" encoding="utf-8"?>
<svg xmlns="http://www.w3.org/2000/svg" id="mainSVG" pointer-events="all" width="294.901" height="208.927" EdgeLen="30" template="u5_46_tu" code="A20_6_0_3" copyright="Francis Hemsher, 2012">
	<polygon id="BorderPoly" fill="none" pointer-events="none" stroke="red" stroke-width="4" transform="" points="96.964,15.0031 70.984,0.000999451 40.984,0 15.002,14.999 0.000991825,40.979 0,70.979 14.999,96.9601 40.98,111.962 55.979,137.943 55.978,167.944 70.978,193.925 96.958,208.925 126.958,208.925 152.939,193.926 182.94,193.926 208.921,208.926 238.921,208.927 264.901,193.927 294.901,193.927 279.901,167.946 279.902,137.946 264.902,111.965 238.921,96.965 223.923,70.9849 223.924,40.986 238.924,15.0051 208.924,15.0051 182.944,0.00400543 152.944,0.00300598 126.963,15.0031"/>
	<g id="mainPolyG" transform=""><polygon id="mainPoly" fill="rgb(252, 194, 0)" stroke="black" onmouseover="setChange(evt)" onmouseout="unhiliteChange(evt)" onclick="changeMe(evt)" points="238.921,96.9653 208.921,96.9653 182.94,111.965 167.94,137.946 167.94,167.946 182.94,193.926 208.921,208.926 238.921,208.927 264.901,193.927 279.901,167.946 279.902,137.946 264.902,111.965" seed="0"/><polygon fill="rgb(0, 128, 128)" stroke="black" stroke-width="1" onmouseover="setChange(evt)" onmouseout="unhiliteChange(evt)" onclick="changeMe(evt)" points="126.961,96.9645 96.9608,96.9633 70.9788,111.963 55.9788,137.943 55.9778,167.944 70.9778,193.925 96.9578,208.925 126.958,208.925 152.939,193.926 167.94,167.946 167.94,137.946 152.941,111.964" seed="1"/><polygon fill="rgb(0, 128, 128)" stroke="black" stroke-width="1" onmouseover="setChange(evt)" onmouseout="unhiliteChange(evt)" onclick="changeMe(evt)" points="182.944,0.00435638 152.944,0.00335693 126.963,15.0035 111.962,40.9835 111.961,70.9834 126.961,96.9645 152.941,111.965 182.941,111.965 208.922,96.9664 223.923,70.9853 223.924,40.9864 208.924,15.0055" seed="2"/><polygon fill="rgb(147, 112, 219)" stroke="black" stroke-width="1" onmouseover="setChange(evt)" onmouseout="unhiliteChange(evt)" onclick="changeMe(evt)" points="238.924,15.0055 208.924,15.0055 223.924,40.9864" seed="3"/><polygon fill="rgb(147, 112, 219)" stroke="black" stroke-width="1" onmouseover="setChange(evt)" onmouseout="unhiliteChange(evt)" onclick="changeMe(evt)" points="238.922,96.9673 223.923,70.9853 208.922,96.9664" seed="4"/><polygon fill="rgb(147, 112, 219)" stroke="black" stroke-width="1" onmouseover="setChange(evt)" onmouseout="unhiliteChange(evt)" onclick="changeMe(evt)" points="294.901,193.927 279.901,167.946 264.901,193.927" seed="5"/><polygon fill="rgb(147, 112, 219)" stroke="black" stroke-width="1" onmouseover="setChange(evt)" onmouseout="unhiliteChange(evt)" onclick="changeMe(evt)" points="182.941,111.965 152.941,111.965 167.94,137.946" seed="6"/><polygon fill="rgb(147, 112, 219)" stroke="black" stroke-width="1" onmouseover="setChange(evt)" onmouseout="unhiliteChange(evt)" onclick="changeMe(evt)" points="182.939,193.927 167.94,167.946 152.939,193.926" seed="7"/><polygon fill="rgb(147, 112, 219)" stroke="black" stroke-width="1" onmouseover="setChange(evt)" onmouseout="unhiliteChange(evt)" onclick="changeMe(evt)" points="126.961,96.9645 111.961,70.9834 96.9608,96.9633" seed="8"/><polygon fill="rgb(147, 112, 219)" stroke="black" stroke-width="1" onmouseover="setChange(evt)" onmouseout="unhiliteChange(evt)" onclick="changeMe(evt)" points="70.9798,111.963 40.9798,111.962 55.9788,137.943" seed="9"/><polygon fill="rgb(224, 176, 255)" stroke="black" stroke-width="1" onmouseover="setChange(evt)" onmouseout="unhiliteChange(evt)" onclick="changeMe(evt)" points="96.9598,96.9645 81.9598,70.9834 55.9798,85.9824 70.9788,111.963" seed="10"/><polygon fill="rgb(224, 176, 255)" stroke="black" stroke-width="1" onmouseover="setChange(evt)" onmouseout="unhiliteChange(evt)" onclick="changeMe(evt)" points="111.962,40.9835 81.9618,40.9835 81.9608,70.9824 111.961,70.9824" seed="11"/><polygon fill="rgb(147, 112, 219)" stroke="black" stroke-width="1" onmouseover="setChange(evt)" onmouseout="unhiliteChange(evt)" onclick="changeMe(evt)" points="111.961,70.9824 81.9608,70.9824 96.9608,96.9633" seed="12"/><polygon fill="rgb(147, 112, 219)" stroke="black" stroke-width="1" onmouseover="setChange(evt)" onmouseout="unhiliteChange(evt)" onclick="changeMe(evt)" points="81.9608,70.9824 81.9618,40.9835 55.9808,55.9814" seed="13"/><polygon fill="rgb(147, 112, 219)" stroke="black" stroke-width="1" onmouseover="setChange(evt)" onmouseout="unhiliteChange(evt)" onclick="changeMe(evt)" points="81.9618,40.9835 55.9818,25.9815 55.9808,55.9814" seed="14"/><polygon fill="rgb(147, 112, 219)" stroke="black" stroke-width="1" onmouseover="setChange(evt)" onmouseout="unhiliteChange(evt)" onclick="changeMe(evt)" points="55.9808,55.9814 55.9818,25.9825 30.0008,40.9814" seed="15"/><polygon fill="rgb(147, 112, 219)" stroke="black" stroke-width="1" onmouseover="setChange(evt)" onmouseout="unhiliteChange(evt)" onclick="changeMe(evt)" points="55.9808,55.9814 30.0008,40.9814 29.9998,70.9802" seed="16"/><polygon fill="rgb(147, 112, 219)" stroke="black" stroke-width="1" onmouseover="setChange(evt)" onmouseout="unhiliteChange(evt)" onclick="changeMe(evt)" points="55.9798,85.9814 55.9808,55.9814 29.9998,70.9802" seed="17"/><polygon fill="rgb(147, 112, 219)" stroke="black" stroke-width="1" onmouseover="setChange(evt)" onmouseout="unhiliteChange(evt)" onclick="changeMe(evt)" points="81.9608,70.9824 55.9808,55.9814 55.9798,85.9814" seed="18"/><polygon fill="rgb(224, 176, 255)" stroke="black" stroke-width="1" onmouseover="setChange(evt)" onmouseout="unhiliteChange(evt)" onclick="changeMe(evt)" points="30.0008,40.9814 0.00080872,40.9794 -0.000183105,70.9793 29.9998,70.9802" seed="19"/><polygon fill="rgb(224, 176, 255)" stroke="black" stroke-width="1" onmouseover="setChange(evt)" onmouseout="unhiliteChange(evt)" onclick="changeMe(evt)" points="55.9818,25.9825 40.9838,0.000350952 15.0018,14.9994 30.0008,40.9803" seed="20"/><polygon fill="rgb(224, 176, 255)" stroke="black" stroke-width="1" onmouseover="setChange(evt)" onmouseout="unhiliteChange(evt)" onclick="changeMe(evt)" points="96.9638,15.0035 70.9838,0.0013504 55.9818,25.9815 81.9618,40.9835" seed="21"/><polygon fill="rgb(224, 176, 255)" stroke="black" stroke-width="1" onmouseover="setChange(evt)" onmouseout="unhiliteChange(evt)" onclick="changeMe(evt)" points="55.9798,85.9814 29.9998,70.9802 14.9988,96.9604 40.9788,111.961" seed="22"/><polygon fill="rgb(147, 112, 219)" stroke="black" stroke-width="1" onmouseover="setChange(evt)" onmouseout="unhiliteChange(evt)" onclick="changeMe(evt)" points="111.962,40.9854 96.9628,15.0035 81.9618,40.9835" seed="23"/><polygon fill="rgb(147, 112, 219)" stroke="black" stroke-width="1" onmouseover="setChange(evt)" onmouseout="unhiliteChange(evt)" onclick="changeMe(evt)" points="70.9838,0.00234985 40.9838,0.000350952 55.9828,25.9825" seed="24"/><polygon fill="rgb(147, 112, 219)" stroke="black" stroke-width="1" onmouseover="setChange(evt)" onmouseout="unhiliteChange(evt)" onclick="changeMe(evt)" points="30.0008,40.9814 15.0018,14.9994 0.00080872,40.9794" seed="25"/><polygon fill="rgb(147, 112, 219)" stroke="black" stroke-width="1" onmouseover="setChange(evt)" onmouseout="unhiliteChange(evt)" onclick="changeMe(evt)" points="29.9998,70.9802 -0.000183105,70.9793 14.9988,96.9613" seed="26"/><polygon fill="rgb(147, 112, 219)" stroke="black" stroke-width="1" onmouseover="setChange(evt)" onmouseout="unhiliteChange(evt)" onclick="changeMe(evt)" points="70.9788,111.962 55.9798,85.9814 40.9788,111.962" seed="27"/><polygon fill="rgb(147, 112, 219)" stroke="black" stroke-width="1" onmouseover="setChange(evt)" onmouseout="unhiliteChange(evt)" onclick="changeMe(evt)" points="126.963,15.0055 96.9628,15.0035 111.962,40.9854" seed="28"/></g>
</svg>
