<?xml version="1.0" encoding="utf-8"?>
<svg xmlns="http://www.w3.org/2000/svg" id="mainSVG" pointer-events="all" width="361.865" height="335.885" EdgeLen="30" template="u6_108_tu" code="A20_3_0_7" copyright="Francis Hemsher, 2012">
	<polygon id="BorderPoly" fill="none" pointer-events="none" stroke="red" stroke-width="4" transform="" points="178.92,0.000999451 152.941,15.001 122.942,15.001 96.9608,30.002 81.9608,55.983 81.9618,85.983 66.9618,111.962 40.9808,126.962 25.9808,152.942 0,167.942 25.9808,182.942 40.9798,208.924 66.9608,223.924 81.9618,249.906 81.9618,279.905 96.9618,305.886 96.962,335.885 122.943,320.886 152.942,320.885 178.923,305.885 208.923,305.887 234.904,320.886 264.904,320.885 290.885,305.885 305.885,279.905 331.864,264.906 346.864,238.926 346.864,208.926 361.864,182.945 361.865,152.945 346.865,126.963 346.865,96.962 331.864,70.981 305.884,55.982 290.884,30.001 264.902,15.001 234.902,15 208.92,0"/><g id="mainPolyG" transform=""><polygon id="mainPoly" fill="rgb(252, 194, 0)" stroke="black" onmouseover="setChange(evt)" onmouseout="unhiliteChange(evt)" onclick="changeMe(evt)" points="208.923,111.963 178.923,111.963 152.942,126.963 137.942,152.944 137.941,182.944 152.941,208.924 178.923,223.924 208.923,223.924 234.903,208.924 249.903,182.944 249.903,152.944 234.903,126.963" seed="0"/><polygon fill="rgb(0, 128, 128)" stroke="black" stroke-width="1" onmouseover="setChange(evt)" onmouseout="unhiliteChange(evt)" onclick="changeMe(evt)" points="290.884,30.001 264.902,15.001 234.903,15.001 208.923,30.002 193.923,55.983 193.923,85.983 208.923,111.963 234.903,126.963 264.903,126.963 290.884,111.963 305.884,85.981 305.884,55.982" seed="1"/><polygon fill="rgb(0, 128, 128)" stroke="black" stroke-width="1" onmouseover="setChange(evt)" onmouseout="unhiliteChange(evt)" onclick="changeMe(evt)" points="178.921,30.001 152.941,15.001 122.942,15.001 96.9608,30.002 81.9608,55.983 81.9618,85.983 96.9608,111.963 122.942,126.963 152.941,126.963 178.923,111.963 193.923,85.982 193.923,55.981" seed="2"/><polygon fill="rgb(0, 128, 128)" stroke="black" stroke-width="1" onmouseover="setChange(evt)" onmouseout="unhiliteChange(evt)" onclick="changeMe(evt)" points="96.9618,111.962 66.9618,111.962 40.9808,126.962 25.9808,152.942 25.9808,182.942 40.9798,208.924 66.9608,223.924 96.9608,223.924 122.942,208.924 137.941,182.944 137.942,152.944 122.943,126.963" seed="3"/><polygon fill="rgb(0, 128, 128)" stroke="black" stroke-width="1" onmouseover="setChange(evt)" onmouseout="unhiliteChange(evt)" onclick="changeMe(evt)" points="152.941,208.924 122.942,208.924 96.9608,223.924 81.9618,249.906 81.9618,279.905 96.9618,305.886 122.943,320.886 152.942,320.885 178.923,305.885 193.923,279.905 193.923,249.905 178.923,223.924" seed="4"/><polygon fill="rgb(0, 128, 128)" stroke="black" stroke-width="1" onmouseover="setChange(evt)" onmouseout="unhiliteChange(evt)" onclick="changeMe(evt)" points="290.884,223.924 264.903,208.924 234.903,208.924 208.923,223.924 193.923,249.905 193.923,279.906 208.923,305.887 234.904,320.886 264.904,320.885 290.885,305.885 305.885,279.905 305.884,249.905" seed="5"/><polygon fill="rgb(0, 128, 128)" stroke="black" stroke-width="1" onmouseover="setChange(evt)" onmouseout="unhiliteChange(evt)" onclick="changeMe(evt)" points="320.885,111.963 290.885,111.963 264.904,126.963 249.903,152.944 249.903,182.944 264.902,208.924 290.884,223.925 320.884,223.926 346.864,208.926 361.864,182.945 361.865,152.945 346.865,126.963" seed="6"/><polygon fill="rgb(147, 112, 219)" stroke="black" stroke-width="1" onmouseover="setChange(evt)" onmouseout="unhiliteChange(evt)" onclick="changeMe(evt)" points="137.942,152.944 152.941,126.963 122.942,126.963" seed="7"/><polygon fill="rgb(147, 112, 219)" stroke="black" stroke-width="1" onmouseover="setChange(evt)" onmouseout="unhiliteChange(evt)" onclick="changeMe(evt)" points="208.923,111.963 193.923,85.982 178.923,111.963" seed="8"/><polygon fill="rgb(147, 112, 219)" stroke="black" stroke-width="1" onmouseover="setChange(evt)" onmouseout="unhiliteChange(evt)" onclick="changeMe(evt)" points="264.903,126.963 234.903,126.963 249.903,152.944" seed="9"/><polygon fill="rgb(147, 112, 219)" stroke="black" stroke-width="1" onmouseover="setChange(evt)" onmouseout="unhiliteChange(evt)" onclick="changeMe(evt)" points="264.903,208.924 249.902,182.944 234.903,208.924" seed="10"/><polygon fill="rgb(147, 112, 219)" stroke="black" stroke-width="1" onmouseover="setChange(evt)" onmouseout="unhiliteChange(evt)" onclick="changeMe(evt)" points="208.923,223.924 178.923,223.924 193.921,249.905" seed="11"/><polygon fill="rgb(147, 112, 219)" stroke="black" stroke-width="1" onmouseover="setChange(evt)" onmouseout="unhiliteChange(evt)" onclick="changeMe(evt)" points="152.941,208.924 137.941,182.944 122.942,208.924" seed="12"/><polygon fill="rgb(147, 112, 219)" stroke="black" stroke-width="1" onmouseover="setChange(evt)" onmouseout="unhiliteChange(evt)" onclick="changeMe(evt)" points="193.923,55.981 208.921,30 178.921,30.001" seed="13"/><polygon fill="rgb(147, 112, 219)" stroke="black" stroke-width="1" onmouseover="setChange(evt)" onmouseout="unhiliteChange(evt)" onclick="changeMe(evt)" points="320.884,111.962 305.884,85.981 290.884,111.963" seed="14"/><polygon fill="rgb(147, 112, 219)" stroke="black" stroke-width="1" onmouseover="setChange(evt)" onmouseout="unhiliteChange(evt)" onclick="changeMe(evt)" points="96.9608,111.963 81.9618,85.983 66.9608,111.963" seed="15"/><polygon fill="rgb(147, 112, 219)" stroke="black" stroke-width="1" onmouseover="setChange(evt)" onmouseout="unhiliteChange(evt)" onclick="changeMe(evt)" points="96.9608,223.924 66.9608,223.924 81.9598,249.905" seed="16"/><polygon fill="rgb(147, 112, 219)" stroke="black" stroke-width="1" onmouseover="setChange(evt)" onmouseout="unhiliteChange(evt)" onclick="changeMe(evt)" points="320.884,223.926 290.884,223.925 305.884,249.906" seed="17"/><polygon fill="rgb(224, 176, 255)" stroke="black" stroke-width="1" onmouseover="setChange(evt)" onmouseout="unhiliteChange(evt)" onclick="changeMe(evt)" points="208.921,30 208.92,0 178.92,0.000999451 178.921,30.001" seed="18"/><polygon fill="rgb(224, 176, 255)" stroke="black" stroke-width="1" onmouseover="setChange(evt)" onmouseout="unhiliteChange(evt)" onclick="changeMe(evt)" points="346.865,96.962 331.864,70.981 305.884,85.982 320.884,111.962" seed="19"/><polygon fill="rgb(224, 176, 255)" stroke="black" stroke-width="1" onmouseover="setChange(evt)" onmouseout="unhiliteChange(evt)" onclick="changeMe(evt)" points="346.864,238.926 320.884,223.926 305.884,249.906 331.864,264.906" seed="20"/><polygon fill="rgb(147, 112, 219)" stroke="black" stroke-width="1" onmouseover="setChange(evt)" onmouseout="unhiliteChange(evt)" onclick="changeMe(evt)" points="178.923,30.001 178.921,0.000999451 152.941,15.001" seed="21"/><polygon fill="rgb(147, 112, 219)" stroke="black" stroke-width="1" onmouseover="setChange(evt)" onmouseout="unhiliteChange(evt)" onclick="changeMe(evt)" points="234.902,15 208.92,0 208.921,30" seed="22"/><polygon fill="rgb(147, 112, 219)" stroke="black" stroke-width="1" onmouseover="setChange(evt)" onmouseout="unhiliteChange(evt)" onclick="changeMe(evt)" points="331.864,70.981 305.884,55.982 305.884,85.982" seed="23"/><polygon fill="rgb(147, 112, 219)" stroke="black" stroke-width="1" onmouseover="setChange(evt)" onmouseout="unhiliteChange(evt)" onclick="changeMe(evt)" points="346.865,126.962 346.865,96.962 320.884,111.962" seed="24"/><polygon fill="rgb(147, 112, 219)" stroke="black" stroke-width="1" onmouseover="setChange(evt)" onmouseout="unhiliteChange(evt)" onclick="changeMe(evt)" points="346.864,238.926 346.864,208.926 320.884,223.926" seed="25"/><polygon fill="rgb(147, 112, 219)" stroke="black" stroke-width="1" onmouseover="setChange(evt)" onmouseout="unhiliteChange(evt)" onclick="changeMe(evt)" points="331.865,264.904 305.884,249.905 305.885,279.905" seed="26"/><polygon fill="rgb(147, 112, 219)" stroke="black" stroke-width="1" onmouseover="setChange(evt)" onmouseout="unhiliteChange(evt)" onclick="changeMe(evt)" points="193.923,279.904 208.923,305.886 178.923,305.885" seed="27"/><polygon fill="rgb(147, 112, 219)" stroke="black" stroke-width="1" onmouseover="setChange(evt)" onmouseout="unhiliteChange(evt)" onclick="changeMe(evt)" points="25.9808,182.942 0,167.942 25.9808,152.942" seed="28"/><polygon fill="rgb(147, 112, 219)" stroke="black" stroke-width="1" onmouseover="setChange(evt)" onmouseout="unhiliteChange(evt)" onclick="changeMe(evt)" points="122.943,320.886 96.962,335.885 96.9618,305.886" seed="29"/></g></svg>
