<svg xmlns="http://www.w3.org/2000/svg" id="mainSVG" pointer-events="all" width="293.826" height="291.961" EdgeLen="30" template="u5_34_tu" code="A20_15_12_1" copyright="Francis Hemsher, 2012">
	<polygon id="BorderPoly" fill="none" pointer-events="none" stroke="red" stroke-width="4" transform="" points="92.942,15.0003 92.944,15.0003 15.001,60.0003 0.000991821,85.9803 -1.52588e-005,175.981 15.001,201.961 40.981,216.962 40.981,276.962 66.962,291.961 92.941,276.96 122.943,276.962 122.941,276.961 148.924,291.961 200.885,261.962 226.866,276.962 226.865,216.962 241.865,190.981 293.826,160.98 267.845,145.982 267.845,145.98 267.847,85.9823 241.866,70.9823 226.867,45.0013 226.868,15.0003 200.887,0.000259399 148.923,30.0003 122.944,15.0013"/><g id="mainPolyG" transform=""><polygon id="mainPoly" fill="rgb(252, 194, 0)" stroke="none" stroke-width="1" onmouseover="setChange(evt)" onmouseout="unhiliteChange(evt)" onclick="changeMe(evt)" points="163.923,145.981 163.923,115.981 148.923,90.0003 122.942,75.0003 92.942,75.0003 66.962,90.0003 51.962,115.981 51.962,145.981 66.962,171.961 92.942,186.961 122.942,186.962 148.923,171.962" seed="0"/><polygon fill="rgb(147, 112, 219)" stroke="black" stroke-width="1" onmouseover="setChange(evt)" onmouseout="unhiliteChange(evt)" onclick="changeMe(evt)" points="40.981,75.0003 40.981,45.0003 66.961,30.0003 92.942,45.0003 92.942,75.0003 66.962,90.0003" seed="1"/><polygon fill="rgb(147, 112, 219)" stroke="black" stroke-width="1" onmouseover="setChange(evt)" onmouseout="unhiliteChange(evt)" onclick="changeMe(evt)" points="122.943,45.0003 148.923,30.0003 174.904,45.0003 174.904,75.0003 148.923,90.0003 122.942,75.0003" seed="2"/><polygon fill="rgb(147, 112, 219)" stroke="black" stroke-width="1" onmouseover="setChange(evt)" onmouseout="unhiliteChange(evt)" onclick="changeMe(evt)" points="189.905,100.981 215.886,115.981 215.885,145.981 189.904,160.981 163.923,145.981 163.923,115.981" seed="3"/><polygon fill="rgb(147, 112, 219)" stroke="black" stroke-width="1" onmouseover="setChange(evt)" onmouseout="unhiliteChange(evt)" onclick="changeMe(evt)" points="174.905,186.962 174.905,216.962 148.924,231.962 122.942,216.962 122.942,186.962 148.923,171.962" seed="4"/><polygon fill="rgb(147, 112, 219)" stroke="black" stroke-width="1" onmouseover="setChange(evt)" onmouseout="unhiliteChange(evt)" onclick="changeMe(evt)" points="92.942,216.961 66.962,231.961 40.981,216.962 40.981,186.961 66.962,171.961 92.942,186.961" seed="5"/><polygon fill="rgb(147, 112, 219)" stroke="black" stroke-width="1" onmouseover="setChange(evt)" onmouseout="unhiliteChange(evt)" onclick="changeMe(evt)" points="25.98,160.98 -1.52588e-005,145.98 -1.52588e-005,115.98 25.981,100.98 51.962,115.981 51.962,145.981" seed="6"/><polygon fill="rgb(224, 176, 255)" stroke="black" stroke-width="1" onmouseover="setChange(evt)" onmouseout="unhiliteChange(evt)" onclick="changeMe(evt)" points="51.963,115.981 25.981,100.981 40.982,75.0003 66.962,90.0003" seed="7"/><polygon fill="rgb(224, 176, 255)" stroke="black" stroke-width="1" onmouseover="setChange(evt)" onmouseout="unhiliteChange(evt)" onclick="changeMe(evt)" points="92.943,75.0003 92.943,45.0003 122.943,45.0013 122.942,75.0003" seed="8"/><polygon fill="rgb(224, 176, 255)" stroke="black" stroke-width="1" onmouseover="setChange(evt)" onmouseout="unhiliteChange(evt)" onclick="changeMe(evt)" points="148.923,90.0003 174.905,75.0003 189.904,100.981 163.923,115.981" seed="9"/><polygon fill="rgb(224, 176, 255)" stroke="black" stroke-width="1" onmouseover="setChange(evt)" onmouseout="unhiliteChange(evt)" onclick="changeMe(evt)" points="163.923,145.981 189.904,160.981 174.904,186.961 148.923,171.962" seed="10"/><polygon fill="rgb(224, 176, 255)" stroke="black" stroke-width="1" onmouseover="setChange(evt)" onmouseout="unhiliteChange(evt)" onclick="changeMe(evt)" points="122.942,186.962 122.942,216.962 92.942,216.961 92.942,186.961" seed="11"/><polygon fill="rgb(224, 176, 255)" stroke="black" stroke-width="1" onmouseover="setChange(evt)" onmouseout="unhiliteChange(evt)" onclick="changeMe(evt)" points="66.962,171.961 40.981,186.962 25.981,160.981 51.962,145.981" seed="12"/><polygon fill="rgb(224, 176, 255)" stroke="black" stroke-width="1" onmouseover="setChange(evt)" onmouseout="unhiliteChange(evt)" onclick="changeMe(evt)" points="40.982,75.0013 15.001,60.0003 0.000991821,85.9803 25.981,100.981" seed="13"/><polygon fill="rgb(224, 176, 255)" stroke="black" stroke-width="1" onmouseover="setChange(evt)" onmouseout="unhiliteChange(evt)" onclick="changeMe(evt)" points="25.981,160.981 -1.52588e-005,175.981 15.001,201.961 40.981,186.962" seed="14"/><polygon fill="rgb(224, 176, 255)" stroke="black" stroke-width="1" onmouseover="setChange(evt)" onmouseout="unhiliteChange(evt)" onclick="changeMe(evt)" points="122.942,45.0013 122.944,15.0013 92.944,15.0003 92.943,45.0003" seed="15"/><polygon fill="rgb(224, 176, 255)" stroke="black" stroke-width="1" onmouseover="setChange(evt)" onmouseout="unhiliteChange(evt)" onclick="changeMe(evt)" points="189.904,100.981 215.885,85.9813 200.886,60.0003 174.905,75.0003" seed="16"/><polygon fill="rgb(224, 176, 255)" stroke="black" stroke-width="1" onmouseover="setChange(evt)" onmouseout="unhiliteChange(evt)" onclick="changeMe(evt)" points="200.886,60.0003 226.867,45.0013 241.866,70.9823 215.885,85.9813" seed="17"/><polygon fill="rgb(224, 176, 255)" stroke="black" stroke-width="1" onmouseover="setChange(evt)" onmouseout="unhiliteChange(evt)" onclick="changeMe(evt)" points="174.904,186.961 200.884,201.962 215.884,175.981 189.904,160.981" seed="18"/><polygon fill="rgb(224, 176, 255)" stroke="black" stroke-width="1" onmouseover="setChange(evt)" onmouseout="unhiliteChange(evt)" onclick="changeMe(evt)" points="215.884,175.981 241.865,190.981 226.865,216.962 200.884,201.962" seed="19"/><polygon fill="rgb(224, 176, 255)" stroke="black" stroke-width="1" onmouseover="setChange(evt)" onmouseout="unhiliteChange(evt)" onclick="changeMe(evt)" points="92.942,216.961 92.941,246.961 122.941,246.961 122.942,216.962" seed="20"/><polygon fill="rgb(224, 176, 255)" stroke="black" stroke-width="1" onmouseover="setChange(evt)" onmouseout="unhiliteChange(evt)" onclick="changeMe(evt)" points="122.941,246.961 122.941,276.961 92.941,276.96 92.941,246.961" seed="21"/><polygon fill="rgb(41, 171, 135)" stroke="black" stroke-width="1" onmouseover="setChange(evt)" onmouseout="unhiliteChange(evt)" onclick="changeMe(evt)" points="-1.52588e-005,175.98 25.98,160.98 -1.52588e-005,145.98" seed="22"/><polygon fill="rgb(41, 171, 135)" stroke="black" stroke-width="1" onmouseover="setChange(evt)" onmouseout="unhiliteChange(evt)" onclick="changeMe(evt)" points="0.000991821,115.98 0.000991821,85.9803 25.982,100.981" seed="23"/><polygon fill="rgb(41, 171, 135)" stroke="black" stroke-width="1" onmouseover="setChange(evt)" onmouseout="unhiliteChange(evt)" onclick="changeMe(evt)" points="40.983,45.0013 40.982,75.0013 15.001,60.0003" seed="24"/><polygon fill="rgb(41, 171, 135)" stroke="black" stroke-width="1" onmouseover="setChange(evt)" onmouseout="unhiliteChange(evt)" onclick="changeMe(evt)" points="92.942,15.0003 66.961,30.0003 92.942,44.9993" seed="25"/><polygon fill="rgb(41, 171, 135)" stroke="black" stroke-width="1" onmouseover="setChange(evt)" onmouseout="unhiliteChange(evt)" onclick="changeMe(evt)" points="148.923,30.0023 122.942,45.0013 122.944,15.0013" seed="26"/><polygon fill="rgb(41, 171, 135)" stroke="black" stroke-width="1" onmouseover="setChange(evt)" onmouseout="unhiliteChange(evt)" onclick="changeMe(evt)" points="200.885,60.0003 174.904,45.0003 174.904,75.0003" seed="27"/><polygon fill="rgb(41, 171, 135)" stroke="black" stroke-width="1" onmouseover="setChange(evt)" onmouseout="unhiliteChange(evt)" onclick="changeMe(evt)" points="40.981,216.962 15.001,201.961 40.982,186.961" seed="28"/><polygon fill="rgb(41, 171, 135)" stroke="black" stroke-width="1" onmouseover="setChange(evt)" onmouseout="unhiliteChange(evt)" onclick="changeMe(evt)" points="40.981,246.962 66.962,231.961 40.981,216.962" seed="29"/><polygon fill="rgb(41, 171, 135)" stroke="black" stroke-width="1" onmouseover="setChange(evt)" onmouseout="unhiliteChange(evt)" onclick="changeMe(evt)" points="92.942,246.961 92.942,216.961 66.962,231.961" seed="30"/><polygon fill="rgb(41, 171, 135)" stroke="black" stroke-width="1" onmouseover="setChange(evt)" onmouseout="unhiliteChange(evt)" onclick="changeMe(evt)" points="148.922,231.962 122.941,246.961 122.942,216.961" seed="31"/><polygon fill="rgb(41, 171, 135)" stroke="black" stroke-width="1" onmouseover="setChange(evt)" onmouseout="unhiliteChange(evt)" onclick="changeMe(evt)" points="174.905,246.962 174.905,216.962 148.924,231.962" seed="32"/><polygon fill="rgb(147, 112, 219)" stroke="black" stroke-width="1" onmouseover="setChange(evt)" onmouseout="unhiliteChange(evt)" onclick="changeMe(evt)" points="40.981,246.961 66.962,231.961 92.942,246.961 92.942,276.961 66.962,291.961 40.981,276.962" seed="33"/><polygon fill="rgb(147, 112, 219)" stroke="black" stroke-width="1" onmouseover="setChange(evt)" onmouseout="unhiliteChange(evt)" onclick="changeMe(evt)" points="122.944,246.962 148.924,231.962 174.905,246.962 174.905,276.962 148.924,291.961 122.943,276.962" seed="34"/><polygon fill="rgb(41, 171, 135)" stroke="black" stroke-width="1" onmouseover="setChange(evt)" onmouseout="unhiliteChange(evt)" onclick="changeMe(evt)" points="200.885,261.962 174.905,246.962 174.905,276.962" seed="35"/><polygon fill="rgb(147, 112, 219)" stroke="black" stroke-width="1" onmouseover="setChange(evt)" onmouseout="unhiliteChange(evt)" onclick="changeMe(evt)" points="226.866,246.962 200.886,261.962 174.905,246.962 174.905,216.962 200.885,201.962 226.866,216.962" seed="36"/><polygon fill="rgb(41, 171, 135)" stroke="black" stroke-width="1" onmouseover="setChange(evt)" onmouseout="unhiliteChange(evt)" onclick="changeMe(evt)" points="200.885,201.962 174.905,186.962 174.905,216.962" seed="37"/><polygon fill="rgb(41, 171, 135)" stroke="black" stroke-width="1" onmouseover="setChange(evt)" onmouseout="unhiliteChange(evt)" onclick="changeMe(evt)" points="215.885,145.982 215.884,175.981 189.904,160.98" seed="38"/><polygon fill="rgb(147, 112, 219)" stroke="black" stroke-width="1" onmouseover="setChange(evt)" onmouseout="unhiliteChange(evt)" onclick="changeMe(evt)" points="241.864,130.981 215.884,145.981 215.884,175.981 241.866,190.981 267.845,175.98 267.845,145.98" seed="39"/><polygon fill="rgb(41, 171, 135)" stroke="black" stroke-width="1" onmouseover="setChange(evt)" onmouseout="unhiliteChange(evt)" onclick="changeMe(evt)" points="241.866,130.982 215.886,115.981 215.885,145.981" seed="40"/><polygon fill="rgb(41, 171, 135)" stroke="black" stroke-width="1" onmouseover="setChange(evt)" onmouseout="unhiliteChange(evt)" onclick="changeMe(evt)" points="215.885,115.981 189.904,100.981 215.885,85.9813" seed="41"/><polygon fill="rgb(147, 112, 219)" stroke="black" stroke-width="1" onmouseover="setChange(evt)" onmouseout="unhiliteChange(evt)" onclick="changeMe(evt)" points="267.846,115.982 267.847,85.9823 241.866,70.9823 215.885,85.9813 215.884,115.982 241.865,130.982" seed="42"/><polygon fill="rgb(147, 112, 219)" stroke="black" stroke-width="1" onmouseover="setChange(evt)" onmouseout="unhiliteChange(evt)" onclick="changeMe(evt)" points="174.906,15.0003 174.905,45.0003 200.886,60.0003 226.867,45.0013 226.868,15.0003 200.887,0.000259399" seed="43"/><polygon fill="rgb(41, 171, 135)" stroke="black" stroke-width="1" onmouseover="setChange(evt)" onmouseout="unhiliteChange(evt)" onclick="changeMe(evt)" points="148.924,29.9993 174.906,15.0003 174.905,45.0003" seed="44"/><polygon fill="rgb(41, 171, 135)" stroke="black" stroke-width="1" onmouseover="setChange(evt)" onmouseout="unhiliteChange(evt)" onclick="changeMe(evt)" points="267.845,145.982 241.865,130.982 267.845,115.982" seed="45"/><polygon fill="rgb(41, 171, 135)" stroke="black" stroke-width="1" onmouseover="setChange(evt)" onmouseout="unhiliteChange(evt)" onclick="changeMe(evt)" points="293.826,160.98 267.845,175.98 267.845,145.98" seed="46"/><polygon fill="rgb(41, 171, 135)" stroke="black" stroke-width="1" onmouseover="setChange(evt)" onmouseout="unhiliteChange(evt)" onclick="changeMe(evt)" points="226.866,276.962 226.866,246.962 200.886,261.962" seed="47"/></g></svg>
