<?xml version="1.0" encoding="utf-8"?>
<svg xmlns="http://www.w3.org/2000/svg" id="mainSVG" pointer-events="all" width="308.826" height="306.961" EdgeLen="30" template="u6_83_tu" code="A20_18_12_1" copyright="Francis Hemsher, 2012">
	<polygon id="BorderPoly" fill="none" pointer-events="none" stroke="red" stroke-width="4" transform="" points="256.866,59.9995 226.866,59.9995 226.865,29.9995 200.884,14.9995 174.903,-0.00050354 174.904,29.9995 148.924,44.9995 122.945,30.0005 92.9447,29.9995 66.9617,44.9995 40.9807,59.9995 15.0007,74.9995 0.000747681,100.98 0.000747681,130.98 -0.000259399,160.98 0.000747681,190.98 15.0007,216.961 40.9818,231.961 66.9617,246.961 92.9417,261.961 92.9408,291.96 122.941,291.961 148.922,306.961 174.903,291.961 200.884,276.962 226.865,261.961 256.865,261.961 282.845,276.962 308.826,261.964 308.827,231.962 282.846,216.962 267.847,190.98 267.846,160.979 267.848,130.98 267.847,100.98 282.847,74.9995"/>
	<g id="mainPolyG" transform=""><polygon id="mainPoly" fill="rgb(252, 194, 0)" stroke="black" onmouseover="setChange(evt)" onmouseout="unhiliteChange(evt)" onclick="changeMe(evt)" points="122.943,89.9995 92.9427,89.9995 66.9628,105 51.9628,130.98 51.9617,160.98 66.9617,186.961 92.9427,201.961 122.943,201.961 148.924,186.961 163.924,160.98 163.924,130.98 148.924,105" seed="0"/><polygon fill="rgb(41, 171, 135)" stroke="black" stroke-width="1" onmouseover="setChange(evt)" onmouseout="unhiliteChange(evt)" onclick="changeMe(evt)" points="92.9427,59.9995 66.9617,44.9995 40.9807,59.9995 40.9807,89.9995 66.9628,105 92.9427,89.9995" seed="1"/><polygon fill="rgb(41, 171, 135)" stroke="black" stroke-width="1" onmouseover="setChange(evt)" onmouseout="unhiliteChange(evt)" onclick="changeMe(evt)" points="174.905,59.9995 148.924,44.9995 122.944,59.9995 122.943,89.9995 148.924,105 174.905,89.9995" seed="2"/><polygon fill="rgb(41, 171, 135)" stroke="black" stroke-width="1" onmouseover="setChange(evt)" onmouseout="unhiliteChange(evt)" onclick="changeMe(evt)" points="215.886,130.98 189.906,115.98 163.924,130.98 163.924,160.98 189.904,175.98 215.886,160.98" seed="3"/><polygon fill="rgb(41, 171, 135)" stroke="black" stroke-width="1" onmouseover="setChange(evt)" onmouseout="unhiliteChange(evt)" onclick="changeMe(evt)" points="174.905,201.961 148.924,186.961 122.943,201.961 122.943,231.961 148.925,246.961 174.905,231.961" seed="4"/><polygon fill="rgb(41, 171, 135)" stroke="black" stroke-width="1" onmouseover="setChange(evt)" onmouseout="unhiliteChange(evt)" onclick="changeMe(evt)" points="92.9427,201.961 66.9617,186.961 40.9818,201.961 40.9818,231.961 66.9617,246.961 92.9427,231.961" seed="5"/><polygon fill="rgb(41, 171, 135)" stroke="black" stroke-width="1" onmouseover="setChange(evt)" onmouseout="unhiliteChange(evt)" onclick="changeMe(evt)" points="51.9628,130.98 25.9818,115.98 0.000747681,130.98 -0.000259399,160.98 25.9807,175.98 51.9617,160.98" seed="6"/><polygon fill="rgb(224, 176, 255)" stroke="black" stroke-width="1" onmouseover="setChange(evt)" onmouseout="unhiliteChange(evt)" onclick="changeMe(evt)" points="122.944,60.0005 92.9437,59.9995 92.9437,89.9995 122.943,89.9995" seed="7"/><polygon fill="rgb(224, 176, 255)" stroke="black" stroke-width="1" onmouseover="setChange(evt)" onmouseout="unhiliteChange(evt)" onclick="changeMe(evt)" points="189.905,115.98 174.905,89.9995 148.924,105 163.924,130.98" seed="8"/><polygon fill="rgb(224, 176, 255)" stroke="black" stroke-width="1" onmouseover="setChange(evt)" onmouseout="unhiliteChange(evt)" onclick="changeMe(evt)" points="189.905,175.98 163.923,160.98 148.924,186.961 174.904,201.961" seed="9"/><polygon fill="rgb(224, 176, 255)" stroke="black" stroke-width="1" onmouseover="setChange(evt)" onmouseout="unhiliteChange(evt)" onclick="changeMe(evt)" points="122.943,201.961 92.9427,201.961 92.9427,231.961 122.943,231.961" seed="10"/><polygon fill="rgb(224, 176, 255)" stroke="black" stroke-width="1" onmouseover="setChange(evt)" onmouseout="unhiliteChange(evt)" onclick="changeMe(evt)" points="66.9617,186.961 51.9617,160.98 25.9818,175.98 40.9818,201.961" seed="11"/><polygon fill="rgb(224, 176, 255)" stroke="black" stroke-width="1" onmouseover="setChange(evt)" onmouseout="unhiliteChange(evt)" onclick="changeMe(evt)" points="66.9628,105 40.9818,89.9995 25.9818,115.98 51.9628,130.98" seed="12"/><polygon fill="rgb(224, 176, 255)" stroke="black" stroke-width="1" onmouseover="setChange(evt)" onmouseout="unhiliteChange(evt)" onclick="changeMe(evt)" points="122.945,30.0005 92.9447,29.9995 92.9437,59.9995 122.943,60.0005" seed="13"/><polygon fill="rgb(224, 176, 255)" stroke="black" stroke-width="1" onmouseover="setChange(evt)" onmouseout="unhiliteChange(evt)" onclick="changeMe(evt)" points="215.886,100.98 200.885,74.9995 174.905,89.9995 189.905,115.98" seed="14"/><polygon fill="rgb(224, 176, 255)" stroke="black" stroke-width="1" onmouseover="setChange(evt)" onmouseout="unhiliteChange(evt)" onclick="changeMe(evt)" points="215.885,190.98 189.905,175.98 174.904,201.961 200.885,216.961" seed="15"/><polygon fill="rgb(224, 176, 255)" stroke="black" stroke-width="1" onmouseover="setChange(evt)" onmouseout="unhiliteChange(evt)" onclick="changeMe(evt)" points="122.943,231.961 92.9427,231.961 92.9417,261.961 122.942,261.961" seed="16"/><polygon fill="rgb(224, 176, 255)" stroke="black" stroke-width="1" onmouseover="setChange(evt)" onmouseout="unhiliteChange(evt)" onclick="changeMe(evt)" points="40.9818,201.961 25.9818,175.98 0.000747681,190.98 15.0007,216.961" seed="17"/><polygon fill="rgb(224, 176, 255)" stroke="black" stroke-width="1" onmouseover="setChange(evt)" onmouseout="unhiliteChange(evt)" onclick="changeMe(evt)" points="40.9818,89.9995 15.0007,74.9995 0.000747681,100.98 25.9818,115.98" seed="18"/><polygon fill="rgb(147, 112, 219)" stroke="black" stroke-width="1" onmouseover="setChange(evt)" onmouseout="unhiliteChange(evt)" onclick="changeMe(evt)" points="25.9818,115.98 0.000747681,100.98 0.000747681,130.98" seed="19"/><polygon fill="rgb(147, 112, 219)" stroke="black" stroke-width="1" onmouseover="setChange(evt)" onmouseout="unhiliteChange(evt)" onclick="changeMe(evt)" points="40.9818,89.9995 40.9818,59.9995 15.0007,74.9995" seed="20"/><polygon fill="rgb(147, 112, 219)" stroke="black" stroke-width="1" onmouseover="setChange(evt)" onmouseout="unhiliteChange(evt)" onclick="changeMe(evt)" points="92.9437,59.9995 92.9447,29.9995 66.9628,44.9995" seed="21"/><polygon fill="rgb(147, 112, 219)" stroke="black" stroke-width="1" onmouseover="setChange(evt)" onmouseout="unhiliteChange(evt)" onclick="changeMe(evt)" points="148.925,45.0015 122.945,30.0005 122.943,60.0005" seed="22"/><polygon fill="rgb(147, 112, 219)" stroke="black" stroke-width="1" onmouseover="setChange(evt)" onmouseout="unhiliteChange(evt)" onclick="changeMe(evt)" points="200.885,74.9995 174.904,59.9995 174.904,89.9995" seed="23"/><polygon fill="rgb(147, 112, 219)" stroke="black" stroke-width="1" onmouseover="setChange(evt)" onmouseout="unhiliteChange(evt)" onclick="changeMe(evt)" points="215.885,130.98 215.886,100.98 189.905,115.98" seed="24"/><polygon fill="rgb(147, 112, 219)" stroke="black" stroke-width="1" onmouseover="setChange(evt)" onmouseout="unhiliteChange(evt)" onclick="changeMe(evt)" points="215.885,190.98 215.886,160.98 189.905,175.98" seed="25"/><polygon fill="rgb(147, 112, 219)" stroke="black" stroke-width="1" onmouseover="setChange(evt)" onmouseout="unhiliteChange(evt)" onclick="changeMe(evt)" points="200.885,216.961 174.904,201.961 174.903,231.961" seed="26"/><polygon fill="rgb(147, 112, 219)" stroke="black" stroke-width="1" onmouseover="setChange(evt)" onmouseout="unhiliteChange(evt)" onclick="changeMe(evt)" points="148.923,246.961 122.943,231.961 122.942,261.961" seed="27"/><polygon fill="rgb(147, 112, 219)" stroke="black" stroke-width="1" onmouseover="setChange(evt)" onmouseout="unhiliteChange(evt)" onclick="changeMe(evt)" points="92.9417,261.961 92.9427,231.961 66.9617,246.96" seed="28"/><polygon fill="rgb(147, 112, 219)" stroke="black" stroke-width="1" onmouseover="setChange(evt)" onmouseout="unhiliteChange(evt)" onclick="changeMe(evt)" points="25.9818,175.98 0.000747681,160.98 0.000747681,190.98" seed="29"/><polygon fill="rgb(147, 112, 219)" stroke="black" stroke-width="1" onmouseover="setChange(evt)" onmouseout="unhiliteChange(evt)" onclick="changeMe(evt)" points="40.9818,231.961 40.9818,201.961 15.0007,216.961" seed="30"/><polygon fill="rgb(224, 176, 255)" stroke="black" stroke-width="1" onmouseover="setChange(evt)" onmouseout="unhiliteChange(evt)" onclick="changeMe(evt)" points="241.866,85.9805 226.866,59.9995 200.885,74.9995 215.886,100.98" seed="31"/><polygon fill="rgb(224, 176, 255)" stroke="black" stroke-width="1" onmouseover="setChange(evt)" onmouseout="unhiliteChange(evt)" onclick="changeMe(evt)" points="241.866,205.98 215.885,190.98 200.885,216.961 226.865,231.961" seed="32"/><polygon fill="rgb(224, 176, 255)" stroke="black" stroke-width="1" onmouseover="setChange(evt)" onmouseout="unhiliteChange(evt)" onclick="changeMe(evt)" points="122.941,261.961 92.9417,261.961 92.9408,291.96 122.941,291.961" seed="33"/><polygon fill="rgb(41, 171, 135)" stroke="black" stroke-width="1" onmouseover="setChange(evt)" onmouseout="unhiliteChange(evt)" onclick="changeMe(evt)" points="226.865,29.9995 200.884,14.9995 174.904,29.9995 174.904,59.9995 200.885,74.9995 226.866,59.9995" seed="34"/><polygon fill="rgb(41, 171, 135)" stroke="black" stroke-width="1" onmouseover="setChange(evt)" onmouseout="unhiliteChange(evt)" onclick="changeMe(evt)" points="267.847,100.98 241.866,85.9805 215.886,100.98 215.886,130.98 241.868,145.98 267.848,130.98" seed="35"/><polygon fill="rgb(41, 171, 135)" stroke="black" stroke-width="1" onmouseover="setChange(evt)" onmouseout="unhiliteChange(evt)" onclick="changeMe(evt)" points="267.846,160.979 241.865,145.98 215.884,160.98 215.885,190.98 241.866,205.98 267.846,190.98" seed="36"/><polygon fill="rgb(41, 171, 135)" stroke="black" stroke-width="1" onmouseover="setChange(evt)" onmouseout="unhiliteChange(evt)" onclick="changeMe(evt)" points="226.865,231.961 200.885,216.961 174.904,231.961 174.903,261.961 200.884,276.962 226.865,261.961" seed="37"/><polygon fill="rgb(41, 171, 135)" stroke="black" stroke-width="1" onmouseover="setChange(evt)" onmouseout="unhiliteChange(evt)" onclick="changeMe(evt)" points="174.903,261.961 148.922,246.961 122.941,261.961 122.941,291.961 148.922,306.961 174.903,291.961" seed="38"/><polygon fill="rgb(147, 112, 219)" stroke="black" stroke-width="1" onmouseover="setChange(evt)" onmouseout="unhiliteChange(evt)" onclick="changeMe(evt)" points="174.905,59.9995 174.905,29.9995 148.924,44.9995" seed="39"/><polygon fill="rgb(147, 112, 219)" stroke="black" stroke-width="1" onmouseover="setChange(evt)" onmouseout="unhiliteChange(evt)" onclick="changeMe(evt)" points="200.884,14.9995 174.903,-0.00050354 174.904,29.9995" seed="40"/><polygon fill="rgb(147, 112, 219)" stroke="black" stroke-width="1" onmouseover="setChange(evt)" onmouseout="unhiliteChange(evt)" onclick="changeMe(evt)" points="256.866,59.9995 226.866,59.9995 241.866,85.9805" seed="41"/><polygon fill="rgb(224, 176, 255)" stroke="black" stroke-width="1" onmouseover="setChange(evt)" onmouseout="unhiliteChange(evt)" onclick="changeMe(evt)" points="282.847,74.9995 256.866,59.9995 241.866,85.9805 267.847,100.98" seed="42"/><polygon fill="rgb(147, 112, 219)" stroke="black" stroke-width="1" onmouseover="setChange(evt)" onmouseout="unhiliteChange(evt)" onclick="changeMe(evt)" points="256.865,231.961 241.866,205.98 226.865,231.961" seed="43"/><polygon fill="rgb(224, 176, 255)" stroke="black" stroke-width="1" onmouseover="setChange(evt)" onmouseout="unhiliteChange(evt)" onclick="changeMe(evt)" points="256.865,231.961 226.865,231.961 226.865,261.961 256.865,261.961" seed="44"/><polygon fill="rgb(224, 176, 255)" stroke="black" stroke-width="1" onmouseover="setChange(evt)" onmouseout="unhiliteChange(evt)" onclick="changeMe(evt)" points="282.846,216.962 267.847,190.98 241.866,205.98 256.865,231.961" seed="45"/><polygon fill="rgb(41, 171, 135)" stroke="black" stroke-width="1" onmouseover="setChange(evt)" onmouseout="unhiliteChange(evt)" onclick="changeMe(evt)" points="308.827,231.962 282.846,216.962 256.865,231.961 256.865,261.961 282.845,276.962 308.826,261.964" seed="46"/><polygon fill="rgb(147, 112, 219)" stroke="black" stroke-width="1" onmouseover="setChange(evt)" onmouseout="unhiliteChange(evt)" onclick="changeMe(evt)" points="241.867,145.98 215.886,130.98 215.886,160.98" seed="47"/><polygon fill="rgb(147, 112, 219)" stroke="black" stroke-width="1" onmouseover="setChange(evt)" onmouseout="unhiliteChange(evt)" onclick="changeMe(evt)" points="267.849,160.98 267.848,130.98 241.868,145.98" seed="48"/><polygon fill="rgb(147, 112, 219)" stroke="black" stroke-width="1" onmouseover="setChange(evt)" onmouseout="unhiliteChange(evt)" onclick="changeMe(evt)" points="174.905,261.961 174.905,231.961 148.925,246.961" seed="49"/><polygon fill="rgb(147, 112, 219)" stroke="black" stroke-width="1" onmouseover="setChange(evt)" onmouseout="unhiliteChange(evt)" onclick="changeMe(evt)" points="200.884,276.961 174.903,261.961 174.903,291.961" seed="50"/></g>
</svg>
