<?xml version="1.0" encoding="utf-8"?>
<svg xmlns="http://www.w3.org/2000/svg" id="mainSVG" pointer-events="all" width="440.885" height="215.885" EdgeLen="30" template="u6_385_tu" code="A24_27_8_0" copyright="Francis Hemsher, 2012">
	<polygon id="BorderPoly" fill="none" pointer-events="none" stroke="red" stroke-width="4" transform="" points="354.901,0.00025177 324.901,0.00125122 309.901,25.9823 283.923,40.9812 253.923,40.9812 227.943,25.9823 212.943,51.9633 182.943,51.9622 156.961,66.9622 141.962,92.9433 111.962,92.9422 96.9635,66.9622 70.9825,51.9613 40.9815,51.9613 15.0015,66.9603 0.000488281,92.9413 0.000488281,122.941 14.9995,148.922 40.9805,163.922 70.9795,163.923 96.9615,148.923 111.962,122.942 141.961,122.943 156.962,148.923 182.943,163.924 212.943,163.923 227.941,189.904 253.922,174.904 283.921,174.905 309.904,189.904 324.904,215.885 354.904,215.885 369.904,189.905 395.885,174.904 425.885,174.904 440.885,148.923 425.885,122.942 425.885,92.9413 440.885,66.9603 425.883,40.9803 395.883,40.9803 369.901,25.9803"/>
	<g id="mainPolyG" transform=""><polygon id="mainPoly" fill="rgb(252, 194, 0)" stroke="black" onmouseover="setChange(evt)" onmouseout="unhiliteChange(evt)" onclick="changeMe(evt)" points="223.923,92.9433 197.943,77.9433 171.961,92.9433 171.961,122.943 197.943,137.943 223.923,122.943" seed="0"/><polygon fill="rgb(224, 176, 255)" stroke="black" stroke-width="1" onmouseover="setChange(evt)" onmouseout="unhiliteChange(evt)" onclick="changeMe(evt)" points="197.943,77.9433 182.943,51.9622 156.961,66.9622 171.962,92.9422" seed="1"/><polygon fill="rgb(224, 176, 255)" stroke="black" stroke-width="1" onmouseover="setChange(evt)" onmouseout="unhiliteChange(evt)" onclick="changeMe(evt)" points="238.923,66.9622 212.943,51.9622 197.943,77.9433 223.923,92.9433" seed="2"/><polygon fill="rgb(224, 176, 255)" stroke="black" stroke-width="1" onmouseover="setChange(evt)" onmouseout="unhiliteChange(evt)" onclick="changeMe(evt)" points="253.923,122.943 253.923,92.9433 223.923,92.9433 223.923,122.943" seed="3"/><polygon fill="rgb(224, 176, 255)" stroke="black" stroke-width="1" onmouseover="setChange(evt)" onmouseout="unhiliteChange(evt)" onclick="changeMe(evt)" points="238.923,148.924 223.923,122.943 197.943,137.943 212.943,163.923" seed="4"/><polygon fill="rgb(224, 176, 255)" stroke="black" stroke-width="1" onmouseover="setChange(evt)" onmouseout="unhiliteChange(evt)" onclick="changeMe(evt)" points="197.943,137.942 171.961,122.943 156.962,148.923 182.943,163.924" seed="5"/><polygon fill="rgb(224, 176, 255)" stroke="black" stroke-width="1" onmouseover="setChange(evt)" onmouseout="unhiliteChange(evt)" onclick="changeMe(evt)" points="171.961,92.9433 141.962,92.9433 141.961,122.943 171.961,122.942" seed="6"/><polygon fill="rgb(224, 176, 255)" stroke="black" stroke-width="1" onmouseover="setChange(evt)" onmouseout="unhiliteChange(evt)" onclick="changeMe(evt)" points="141.962,92.9433 111.962,92.9422 111.962,122.942 141.961,122.943" seed="7"/><polygon fill="rgb(224, 176, 255)" stroke="black" stroke-width="1" onmouseover="setChange(evt)" onmouseout="unhiliteChange(evt)" onclick="changeMe(evt)" points="111.962,92.9422 81.9625,92.9422 81.9625,122.942 111.962,122.942" seed="8"/><polygon fill="rgb(224, 176, 255)" stroke="black" stroke-width="1" onmouseover="setChange(evt)" onmouseout="unhiliteChange(evt)" onclick="changeMe(evt)" points="283.923,92.9433 253.923,92.9433 253.923,122.942 283.923,122.943" seed="9"/><polygon fill="rgb(41, 171, 135)" stroke="black" stroke-width="1" onmouseover="setChange(evt)" onmouseout="unhiliteChange(evt)" onclick="changeMe(evt)" points="81.9625,92.9422 55.9815,77.9422 30.0005,92.9413 30.0005,122.941 55.9805,137.942 81.9625,122.942" seed="10"/><polygon fill="rgb(224, 176, 255)" stroke="black" stroke-width="1" onmouseover="setChange(evt)" onmouseout="unhiliteChange(evt)" onclick="changeMe(evt)" points="55.9815,77.9422 40.9815,51.9613 15.0015,66.9603 30.0005,92.9413" seed="11"/><polygon fill="rgb(224, 176, 255)" stroke="black" stroke-width="1" onmouseover="setChange(evt)" onmouseout="unhiliteChange(evt)" onclick="changeMe(evt)" points="96.9635,66.9622 70.9825,51.9613 55.9815,77.9422 81.9625,92.9422" seed="12"/><polygon fill="rgb(224, 176, 255)" stroke="black" stroke-width="1" onmouseover="setChange(evt)" onmouseout="unhiliteChange(evt)" onclick="changeMe(evt)" points="96.9615,148.923 81.9615,122.942 55.9805,137.942 70.9795,163.923" seed="13"/><polygon fill="rgb(224, 176, 255)" stroke="black" stroke-width="1" onmouseover="setChange(evt)" onmouseout="unhiliteChange(evt)" onclick="changeMe(evt)" points="55.9805,137.941 30.0005,122.941 14.9995,148.922 40.9805,163.922" seed="14"/><polygon fill="rgb(224, 176, 255)" stroke="black" stroke-width="1" onmouseover="setChange(evt)" onmouseout="unhiliteChange(evt)" onclick="changeMe(evt)" points="30.0005,92.9413 0.000488281,92.9413 0.000488281,122.941 30.0005,122.941" seed="15"/><polygon fill="rgb(147, 112, 219)" stroke="black" stroke-width="1" onmouseover="setChange(evt)" onmouseout="unhiliteChange(evt)" onclick="changeMe(evt)" points="309.904,107.943 283.923,92.9433 283.923,122.943" seed="16"/><polygon fill="rgb(147, 112, 219)" stroke="black" stroke-width="1" onmouseover="setChange(evt)" onmouseout="unhiliteChange(evt)" onclick="changeMe(evt)" points="70.9815,51.9613 40.9815,51.9613 55.9815,77.9422" seed="17"/><polygon fill="rgb(147, 112, 219)" stroke="black" stroke-width="1" onmouseover="setChange(evt)" onmouseout="unhiliteChange(evt)" onclick="changeMe(evt)" points="30.0005,92.9413 15.0015,66.9603 0.000488281,92.9413" seed="18"/><polygon fill="rgb(147, 112, 219)" stroke="black" stroke-width="1" onmouseover="setChange(evt)" onmouseout="unhiliteChange(evt)" onclick="changeMe(evt)" points="30.0005,122.941 0.000488281,122.941 15.0005,148.922" seed="19"/><polygon fill="rgb(147, 112, 219)" stroke="black" stroke-width="1" onmouseover="setChange(evt)" onmouseout="unhiliteChange(evt)" onclick="changeMe(evt)" points="70.9805,163.922 55.9805,137.941 40.9805,163.922" seed="20"/><polygon fill="rgb(147, 112, 219)" stroke="black" stroke-width="1" onmouseover="setChange(evt)" onmouseout="unhiliteChange(evt)" onclick="changeMe(evt)" points="111.961,122.943 81.9615,122.942 96.9615,148.923" seed="21"/><polygon fill="rgb(147, 112, 219)" stroke="black" stroke-width="1" onmouseover="setChange(evt)" onmouseout="unhiliteChange(evt)" onclick="changeMe(evt)" points="111.962,92.9422 96.9625,66.9613 81.9625,92.9422" seed="22"/><polygon fill="rgb(147, 112, 219)" stroke="black" stroke-width="1" onmouseover="setChange(evt)" onmouseout="unhiliteChange(evt)" onclick="changeMe(evt)" points="171.962,92.9422 156.961,66.9622 141.962,92.9433" seed="23"/><polygon fill="rgb(147, 112, 219)" stroke="black" stroke-width="1" onmouseover="setChange(evt)" onmouseout="unhiliteChange(evt)" onclick="changeMe(evt)" points="212.943,51.9633 182.943,51.9622 197.943,77.9433" seed="24"/><polygon fill="rgb(147, 112, 219)" stroke="black" stroke-width="1" onmouseover="setChange(evt)" onmouseout="unhiliteChange(evt)" onclick="changeMe(evt)" points="253.923,92.9433 238.923,66.9622 223.923,92.9433" seed="25"/><polygon fill="rgb(147, 112, 219)" stroke="black" stroke-width="1" onmouseover="setChange(evt)" onmouseout="unhiliteChange(evt)" onclick="changeMe(evt)" points="253.923,122.943 223.923,122.943 238.923,148.924" seed="26"/><polygon fill="rgb(147, 112, 219)" stroke="black" stroke-width="1" onmouseover="setChange(evt)" onmouseout="unhiliteChange(evt)" onclick="changeMe(evt)" points="212.943,163.923 197.943,137.942 182.943,163.923" seed="27"/><polygon fill="rgb(147, 112, 219)" stroke="black" stroke-width="1" onmouseover="setChange(evt)" onmouseout="unhiliteChange(evt)" onclick="changeMe(evt)" points="156.962,148.923 171.961,122.942 141.961,122.943" seed="28"/><polygon fill="rgb(41, 171, 135)" stroke="black" stroke-width="1" onmouseover="setChange(evt)" onmouseout="unhiliteChange(evt)" onclick="changeMe(evt)" points="283.923,40.9812 253.923,40.9812 238.923,66.9622 253.923,92.9433 283.923,92.9433 298.924,66.9622" seed="29"/><polygon fill="rgb(41, 171, 135)" stroke="black" stroke-width="1" onmouseover="setChange(evt)" onmouseout="unhiliteChange(evt)" onclick="changeMe(evt)" points="283.923,122.943 253.923,122.942 238.922,148.923 253.922,174.904 283.921,174.905 298.922,148.925" seed="30"/><polygon fill="rgb(224, 176, 255)" stroke="black" stroke-width="1" onmouseover="setChange(evt)" onmouseout="unhiliteChange(evt)" onclick="changeMe(evt)" points="324.904,81.9622 298.922,66.9633 283.923,92.9433 309.904,107.943" seed="31"/><polygon fill="rgb(224, 176, 255)" stroke="black" stroke-width="1" onmouseover="setChange(evt)" onmouseout="unhiliteChange(evt)" onclick="changeMe(evt)" points="324.904,133.924 309.904,107.943 283.923,122.943 298.922,148.924" seed="32"/><polygon fill="rgb(147, 112, 219)" stroke="black" stroke-width="1" onmouseover="setChange(evt)" onmouseout="unhiliteChange(evt)" onclick="changeMe(evt)" points="339.904,107.943 324.904,81.9633 309.904,107.943" seed="33"/><polygon fill="rgb(147, 112, 219)" stroke="black" stroke-width="1" onmouseover="setChange(evt)" onmouseout="unhiliteChange(evt)" onclick="changeMe(evt)" points="324.904,133.924 339.904,107.943 309.904,107.943" seed="34"/><polygon fill="rgb(147, 112, 219)" stroke="black" stroke-width="1" onmouseover="setChange(evt)" onmouseout="unhiliteChange(evt)" onclick="changeMe(evt)" points="354.904,133.923 339.904,107.943 324.904,133.923" seed="35"/><polygon fill="rgb(147, 112, 219)" stroke="black" stroke-width="1" onmouseover="setChange(evt)" onmouseout="unhiliteChange(evt)" onclick="changeMe(evt)" points="354.904,133.923 369.904,107.942 339.904,107.943" seed="36"/><polygon fill="rgb(147, 112, 219)" stroke="black" stroke-width="1" onmouseover="setChange(evt)" onmouseout="unhiliteChange(evt)" onclick="changeMe(evt)" points="369.904,107.942 354.904,81.9622 339.904,107.943" seed="37"/><polygon fill="rgb(147, 112, 219)" stroke="black" stroke-width="1" onmouseover="setChange(evt)" onmouseout="unhiliteChange(evt)" onclick="changeMe(evt)" points="339.904,107.943 354.904,81.9622 324.904,81.9622" seed="38"/><polygon fill="rgb(224, 176, 255)" stroke="black" stroke-width="1" onmouseover="setChange(evt)" onmouseout="unhiliteChange(evt)" onclick="changeMe(evt)" points="354.902,81.9622 354.902,51.9622 324.902,51.9633 324.904,81.9622" seed="39"/><polygon fill="rgb(224, 176, 255)" stroke="black" stroke-width="1" onmouseover="setChange(evt)" onmouseout="unhiliteChange(evt)" onclick="changeMe(evt)" points="395.885,92.9422 380.883,66.9613 354.904,81.9622 369.904,107.942" seed="40"/><polygon fill="rgb(224, 176, 255)" stroke="black" stroke-width="1" onmouseover="setChange(evt)" onmouseout="unhiliteChange(evt)" onclick="changeMe(evt)" points="395.885,122.942 369.904,107.942 354.904,133.923 380.885,148.923" seed="41"/><polygon fill="rgb(224, 176, 255)" stroke="black" stroke-width="1" onmouseover="setChange(evt)" onmouseout="unhiliteChange(evt)" onclick="changeMe(evt)" points="354.904,133.923 324.904,133.923 324.904,163.923 354.904,163.923" seed="42"/><polygon fill="rgb(41, 171, 135)" stroke="black" stroke-width="1" onmouseover="setChange(evt)" onmouseout="unhiliteChange(evt)" onclick="changeMe(evt)" points="354.904,163.923 324.904,163.923 309.904,189.904 324.904,215.885 354.904,215.885 369.904,189.905" seed="43"/><polygon fill="rgb(41, 171, 135)" stroke="black" stroke-width="1" onmouseover="setChange(evt)" onmouseout="unhiliteChange(evt)" onclick="changeMe(evt)" points="369.901,25.9803 354.901,0.00025177 324.901,0.00125122 309.901,25.9823 324.902,51.9633 354.902,51.9622" seed="44"/><polygon fill="rgb(41, 171, 135)" stroke="black" stroke-width="1" onmouseover="setChange(evt)" onmouseout="unhiliteChange(evt)" onclick="changeMe(evt)" points="440.885,66.9603 425.883,40.9803 395.883,40.9803 380.883,66.9613 395.885,92.9422 425.885,92.9413" seed="45"/><polygon fill="rgb(41, 171, 135)" stroke="black" stroke-width="1" onmouseover="setChange(evt)" onmouseout="unhiliteChange(evt)" onclick="changeMe(evt)" points="440.885,148.923 425.885,122.942 395.885,122.942 380.885,148.923 395.885,174.904 425.885,174.904" seed="46"/><polygon fill="rgb(224, 176, 255)" stroke="black" stroke-width="1" onmouseover="setChange(evt)" onmouseout="unhiliteChange(evt)" onclick="changeMe(evt)" points="425.885,122.941 425.883,92.9413 395.885,92.9422 395.885,122.941" seed="47"/><polygon fill="rgb(224, 176, 255)" stroke="black" stroke-width="1" onmouseover="setChange(evt)" onmouseout="unhiliteChange(evt)" onclick="changeMe(evt)" points="324.904,51.9622 309.904,25.9812 283.923,40.9812 298.922,66.9622" seed="48"/><polygon fill="rgb(224, 176, 255)" stroke="black" stroke-width="1" onmouseover="setChange(evt)" onmouseout="unhiliteChange(evt)" onclick="changeMe(evt)" points="395.883,40.9792 369.901,25.9803 354.904,51.9622 380.885,66.9613" seed="49"/><polygon fill="rgb(224, 176, 255)" stroke="black" stroke-width="1" onmouseover="setChange(evt)" onmouseout="unhiliteChange(evt)" onclick="changeMe(evt)" points="395.885,174.904 380.885,148.924 354.904,163.924 369.906,189.905" seed="50"/><polygon fill="rgb(224, 176, 255)" stroke="black" stroke-width="1" onmouseover="setChange(evt)" onmouseout="unhiliteChange(evt)" onclick="changeMe(evt)" points="324.904,163.923 298.924,148.922 283.923,174.903 309.904,189.903" seed="51"/><polygon fill="rgb(147, 112, 219)" stroke="black" stroke-width="1" onmouseover="setChange(evt)" onmouseout="unhiliteChange(evt)" onclick="changeMe(evt)" points="324.904,81.9622 324.904,51.9633 298.922,66.9622" seed="52"/><polygon fill="rgb(147, 112, 219)" stroke="black" stroke-width="1" onmouseover="setChange(evt)" onmouseout="unhiliteChange(evt)" onclick="changeMe(evt)" points="380.885,66.9613 354.904,51.9622 354.904,81.9622" seed="53"/><polygon fill="rgb(147, 112, 219)" stroke="black" stroke-width="1" onmouseover="setChange(evt)" onmouseout="unhiliteChange(evt)" onclick="changeMe(evt)" points="395.885,122.941 395.885,92.9413 369.904,107.942" seed="54"/><polygon fill="rgb(147, 112, 219)" stroke="black" stroke-width="1" onmouseover="setChange(evt)" onmouseout="unhiliteChange(evt)" onclick="changeMe(evt)" points="380.885,148.924 354.904,133.924 354.904,163.924" seed="55"/><polygon fill="rgb(147, 112, 219)" stroke="black" stroke-width="1" onmouseover="setChange(evt)" onmouseout="unhiliteChange(evt)" onclick="changeMe(evt)" points="324.904,163.923 324.904,133.923 298.924,148.922" seed="56"/><polygon fill="rgb(224, 176, 255)" stroke="black" stroke-width="1" onmouseover="setChange(evt)" onmouseout="unhiliteChange(evt)" onclick="changeMe(evt)" points="253.923,40.9823 227.943,25.9823 212.943,51.9622 238.922,66.9622" seed="57"/><polygon fill="rgb(224, 176, 255)" stroke="black" stroke-width="1" onmouseover="setChange(evt)" onmouseout="unhiliteChange(evt)" onclick="changeMe(evt)" points="253.922,174.905 238.923,148.924 212.943,163.923 227.941,189.904" seed="58"/></g>
</svg>
