<?xml version="1.0" encoding="utf-8"?>
<svg xmlns="http://www.w3.org/2000/svg" id="mainSVG" pointer-events="all" width="120.001" height="103.923" EdgeLen="30" template="u3_2_tu" code="A2_0_2_0" copyright="Francis Hemsher, 2012">
	<polygon id="BorderPoly" fill="none" pointer-events="none" stroke="red" stroke-width="4" transform="" points="74.9998,-3.8147e-006 59.9998,25.9805 44.9998,51.9615 15,51.9615 -4.57764e-005,77.9425 15,103.923 44.9998,103.923 59.9998,77.9425 89.9998,77.9425 105.001,51.9615 120.001,25.9805 89.9998,25.9805"/><g id="mainPolyG" transform=""><polygon id="mainPoly" fill="rgb(252, 194, 0)" stroke="black" onmouseover="setChange(evt)" onmouseout="unhiliteChange(evt)" onclick="changeMe(evt)" points="44.9998,51.9615 15,51.9615 -4.57764e-005,77.9425 15,103.923 44.9998,103.923 59.9998,77.9425" seed="0"/><polygon fill="rgb(41, 171, 135)" stroke="black" stroke-width="1" onmouseover="setChange(evt)" onmouseout="unhiliteChange(evt)" onclick="changeMe(evt)" points="90.0008,25.9805 59.9998,25.9805 44.9998,51.9615 59.9998,77.9425 89.9998,77.9425 105.001,51.9615" seed="1"/><polygon fill="rgb(224, 176, 255)" stroke="black" stroke-width="1" onmouseover="setChange(evt)" onmouseout="unhiliteChange(evt)" onclick="changeMe(evt)" points="89.9998,25.9805 74.9998,-3.8147e-006 59.9998,25.9805" seed="2"/><polygon fill="rgb(224, 176, 255)" stroke="black" stroke-width="1" onmouseover="setChange(evt)" onmouseout="unhiliteChange(evt)" onclick="changeMe(evt)" points="120.001,25.9805 90.0008,25.9805 105.001,51.9615" seed="3"/></g></svg>
