<?xml version="1.0" encoding="utf-8"?>
<svg xmlns="http://www.w3.org/2000/svg" id="mainSVG" pointer-events="all" onkeyup="attachKey(evt)" width="85.9805" height="96.9615" EdgeLen="30" template="A2_3_1_0" code="A2_3_1_0" >
<polygon id="BorderPoly" fill="none" pointer-events="none" stroke="red" stroke-width="4" transform="" points="70.9808,14.9995 40.9805,14.9995 15,4.95911e-005 -4.95911e-005,25.981 -4.95911e-005,55.9802 14.9995,81.9613 40.9805,96.9613 70.9808,96.9613 70.9808,66.9613 85.9807,40.9806" />
<g id="mainPolyG" transform=""><polygon id="mainPoly" fill="rgb(252, 194, 0)" stroke="black" onmouseover="setChange(evt)" onmouseout="unhiliteChange(evt)" onclick="changeMe(evt)" points="70.9808,14.9995 40.9805,14.9995 25.9805,40.9806 40.9805,66.9613 70.9808,66.9613 85.9807,40.9806" seed="0" /><polygon fill="rgb(91, 146, 229)" stroke="black" stroke-width="1" onmouseover="setChange(evt)" onmouseout="unhiliteChange(evt)" onclick="changeMe(evt)" transform="" points="40.9805,14.9995 15,4.95911e-005 -0.000549316,25.9806 25.981,40.9806" seed="1" /><polygon fill="rgb(147, 112, 219)" stroke="black" stroke-width="1" onmouseover="setChange(evt)" onmouseout="unhiliteChange(evt)" onclick="changeMe(evt)" points="25.981,40.9806 -4.95911e-005,25.981 0.000549316,55.9812" seed="2" /><polygon fill="rgb(91, 146, 229)" stroke="black" stroke-width="1" onmouseover="setChange(evt)" onmouseout="unhiliteChange(evt)" onclick="changeMe(evt)" transform="" points="40.9799,66.9613 25.9805,40.9806 -4.95911e-005,55.9802 14.9995,81.9613" seed="3" /><polygon fill="rgb(147, 112, 219)" stroke="black" stroke-width="1" onmouseover="setChange(evt)" onmouseout="unhiliteChange(evt)" onclick="changeMe(evt)" points="40.9805,96.9613 40.9799,66.9613 14.9995,81.9613" seed="4" /><polygon fill="rgb(91, 146, 229)" stroke="black" stroke-width="1" onmouseover="setChange(evt)" onmouseout="unhiliteChange(evt)" onclick="changeMe(evt)" transform="" points="70.9798,66.9613 40.9805,66.9613 40.9805,96.9613 70.9808,96.9613" seed="5" /></g>
</svg>
