<?xml version="1.0" encoding="utf-8" ?>

		<svg xmlns="http://www.w3.org/2000/svg" id="mainSVG" pointer-events="all" onkeyup="attachKey(evt)" width="102.426" height="94.3895" EdgeLen="30" code="A2_4_1_R" template="A2_4_1_R">

		<polygon id="BorderPoly" fill="none" pointer-events="none" stroke="red" stroke-width="4" transform="" points="102.427,0.000545502 72.4268,4.57764e-005 42.4265,4.57764e-005 27.4265,25.981 42.4265,51.962 21.213,73.1752 -4.95911e-005,94.3892 30,94.3892 59.9997,94.3882 81.2138,73.1752 102.427,51.962 87.4268,25.981" />
		<g id="mainPolyG" transform=""><polygon id="mainPoly" fill="rgb(252, 194, 0)" stroke="black" onmouseover="setChange(evt)" onmouseout="unhiliteChange(evt)" onclick="changeMe(evt)" points="72.4268,4.57764e-005 42.4265,4.57764e-005 27.4265,25.981 42.4265,51.962 72.4268,51.962 87.4268,25.981" seed="0" /><polygon fill="rgb(147, 112, 219)" stroke="black" stroke-width="1" onmouseover="setChange(evt)" onmouseout="unhiliteChange(evt)" onclick="changeMe(evt)" points="102.427,0.000545502 72.4268,0.000545502 87.4268,25.981" seed="1" /><polygon fill="rgb(147, 112, 219)" stroke="black" stroke-width="1" onmouseover="setChange(evt)" onmouseout="unhiliteChange(evt)" onclick="changeMe(evt)" points="102.427,51.962 87.4258,25.981 72.4268,51.962" seed="2" /><polygon fill="rgb(91, 146, 229)" stroke="black" stroke-width="1" onmouseover="setChange(evt)" onmouseout="unhiliteChange(evt)" onclick="changeMe(evt)" transform="" points="72.4268,51.962 42.4265,51.962 21.213,73.1752 51.2138,73.1752" seed="3" /><polygon fill="rgb(91, 146, 229)" stroke="black" stroke-width="1" onmouseover="setChange(evt)" onmouseout="unhiliteChange(evt)" onclick="changeMe(evt)" transform="" points="102.427,51.962 72.4268,51.962 51.2128,73.1752 81.2138,73.1752" seed="4" /><polygon fill="rgb(91, 146, 229)" stroke="black" stroke-width="1" onmouseover="setChange(evt)" onmouseout="unhiliteChange(evt)" onclick="changeMe(evt)" transform="" points="59.9997,94.3882 81.2127,73.1752 51.2128,73.1752 30,94.3892" seed="5" /><polygon fill="rgb(91, 146, 229)" stroke="black" stroke-width="1" onmouseover="setChange(evt)" onmouseout="unhiliteChange(evt)" onclick="changeMe(evt)" transform="" points="30,94.3892 51.2128,73.1752 21.213,73.1762 -4.95911e-005,94.3892" seed="6" /></g>


		</svg>
