<?xml version="1.0" encoding="utf-8"?>
<svg xmlns="http://www.w3.org/2000/svg" id="mainSVG" pointer-events="all" width="212.944" height="212.943" EdgeLen="30" template="u6_215_tu" code="A36_18_0_0" copyright="Francis Hemsher, 2012">
	<polygon id="BorderPoly" fill="none" pointer-events="none" stroke="red" stroke-width="4" transform="" points="167.939,0.000297546 141.96,15.0013 115.979,30.0013 89.999,45.0023 59.999,45.0033 30,45.0023 0,45.0023 15.001,70.9833 30.001,96.9633 45.001,122.944 45.001,152.943 45.001,182.943 45.001,212.943 75.002,212.942 105.001,212.943 135.001,212.943 160.983,197.943 186.963,182.942 212.944,167.942 212.943,137.942 212.943,107.942 212.942,77.9413 197.941,51.9603 182.941,25.9803"/>
	<g id="mainPolyG" transform=""><polygon id="mainPoly" fill="rgb(252, 194, 0)" stroke="black" onmouseover="setChange(evt)" onmouseout="unhiliteChange(evt)" onclick="changeMe(evt)" points="105.001,152.943 75.001,152.943 75.001,182.943 105.001,182.943" seed="0"/><polygon fill="rgb(224, 176, 255)" stroke="black" stroke-width="1" onmouseover="setChange(evt)" onmouseout="unhiliteChange(evt)" onclick="changeMe(evt)" points="135.001,182.943 135.001,152.943 105.001,152.944 105.001,182.943" seed="1"/><polygon fill="rgb(224, 176, 255)" stroke="black" stroke-width="1" onmouseover="setChange(evt)" onmouseout="unhiliteChange(evt)" onclick="changeMe(evt)" points="75.001,152.943 45.001,152.943 45.001,182.943 75.001,182.943" seed="2"/><polygon fill="rgb(224, 176, 255)" stroke="black" stroke-width="1" onmouseover="setChange(evt)" onmouseout="unhiliteChange(evt)" onclick="changeMe(evt)" points="105.001,122.944 75.001,122.943 75.002,152.943 105.001,152.943" seed="3"/><polygon fill="rgb(224, 176, 255)" stroke="black" stroke-width="1" onmouseover="setChange(evt)" onmouseout="unhiliteChange(evt)" onclick="changeMe(evt)" points="105.001,182.943 75.001,182.943 75.001,212.943 105.001,212.943" seed="4"/><polygon fill="rgb(224, 176, 255)" stroke="black" stroke-width="1" onmouseover="setChange(evt)" onmouseout="unhiliteChange(evt)" onclick="changeMe(evt)" points="75.001,152.943 75.002,122.943 45.001,122.944 45.001,152.943" seed="5"/><polygon fill="rgb(224, 176, 255)" stroke="black" stroke-width="1" onmouseover="setChange(evt)" onmouseout="unhiliteChange(evt)" onclick="changeMe(evt)" points="135.001,152.943 135.001,122.943 105.001,122.944 105.001,152.944" seed="6"/><polygon fill="rgb(224, 176, 255)" stroke="black" stroke-width="1" onmouseover="setChange(evt)" onmouseout="unhiliteChange(evt)" onclick="changeMe(evt)" points="135.001,182.943 105.001,182.943 105.001,212.943 135.001,212.943" seed="7"/><polygon fill="rgb(224, 176, 255)" stroke="black" stroke-width="1" onmouseover="setChange(evt)" onmouseout="unhiliteChange(evt)" onclick="changeMe(evt)" points="75.002,212.942 75.001,182.943 45.001,182.943 45.001,212.943" seed="8"/><polygon fill="rgb(147, 112, 219)" stroke="black" stroke-width="1" onmouseover="setChange(evt)" onmouseout="unhiliteChange(evt)" onclick="changeMe(evt)" points="75.002,122.943 60.001,96.9633 45.001,122.944" seed="9"/><polygon fill="rgb(147, 112, 219)" stroke="black" stroke-width="1" onmouseover="setChange(evt)" onmouseout="unhiliteChange(evt)" onclick="changeMe(evt)" points="45.001,122.944 60.001,96.9633 30.001,96.9633" seed="10"/><polygon fill="rgb(147, 112, 219)" stroke="black" stroke-width="1" onmouseover="setChange(evt)" onmouseout="unhiliteChange(evt)" onclick="changeMe(evt)" points="60.001,96.9633 45.001,70.9823 30.001,96.9633" seed="11"/><polygon fill="rgb(147, 112, 219)" stroke="black" stroke-width="1" onmouseover="setChange(evt)" onmouseout="unhiliteChange(evt)" onclick="changeMe(evt)" points="30.001,96.9633 45.001,70.9823 15.001,70.9833" seed="12"/><polygon fill="rgb(147, 112, 219)" stroke="black" stroke-width="1" onmouseover="setChange(evt)" onmouseout="unhiliteChange(evt)" onclick="changeMe(evt)" points="45.001,70.9823 30,45.0023 15.001,70.9833" seed="13"/><polygon fill="rgb(147, 112, 219)" stroke="black" stroke-width="1" onmouseover="setChange(evt)" onmouseout="unhiliteChange(evt)" onclick="changeMe(evt)" points="15.001,70.9833 30,45.0023 0,45.0023" seed="14"/><polygon fill="rgb(147, 112, 219)" stroke="black" stroke-width="1" onmouseover="setChange(evt)" onmouseout="unhiliteChange(evt)" onclick="changeMe(evt)" points="135.001,122.943 120,96.9633 105.001,122.944" seed="15"/><polygon fill="rgb(147, 112, 219)" stroke="black" stroke-width="1" onmouseover="setChange(evt)" onmouseout="unhiliteChange(evt)" onclick="changeMe(evt)" points="105.001,122.944 120,96.9633 90,96.9643" seed="16"/><polygon fill="rgb(147, 112, 219)" stroke="black" stroke-width="1" onmouseover="setChange(evt)" onmouseout="unhiliteChange(evt)" onclick="changeMe(evt)" points="120,96.9633 104.999,70.9823 90,96.9643" seed="17"/><polygon fill="rgb(147, 112, 219)" stroke="black" stroke-width="1" onmouseover="setChange(evt)" onmouseout="unhiliteChange(evt)" onclick="changeMe(evt)" points="90,96.9643 104.999,70.9823 74.999,70.9833" seed="18"/><polygon fill="rgb(147, 112, 219)" stroke="black" stroke-width="1" onmouseover="setChange(evt)" onmouseout="unhiliteChange(evt)" onclick="changeMe(evt)" points="104.999,70.9823 89.999,45.0023 74.999,70.9833" seed="19"/><polygon fill="rgb(147, 112, 219)" stroke="black" stroke-width="1" onmouseover="setChange(evt)" onmouseout="unhiliteChange(evt)" onclick="changeMe(evt)" points="74.999,70.9833 89.998,45.0023 59.999,45.0033" seed="20"/><polygon fill="rgb(147, 112, 219)" stroke="black" stroke-width="1" onmouseover="setChange(evt)" onmouseout="unhiliteChange(evt)" onclick="changeMe(evt)" points="45.001,70.9823 60,45.0013 30,45.0023" seed="21"/><polygon fill="rgb(147, 112, 219)" stroke="black" stroke-width="1" onmouseover="setChange(evt)" onmouseout="unhiliteChange(evt)" onclick="changeMe(evt)" points="75.001,70.9823 60,45.0013 45.001,70.9823" seed="22"/><polygon fill="rgb(147, 112, 219)" stroke="black" stroke-width="1" onmouseover="setChange(evt)" onmouseout="unhiliteChange(evt)" onclick="changeMe(evt)" points="60.001,96.9633 75.001,70.9823 45.001,70.9823" seed="23"/><polygon fill="rgb(147, 112, 219)" stroke="black" stroke-width="1" onmouseover="setChange(evt)" onmouseout="unhiliteChange(evt)" onclick="changeMe(evt)" points="90.001,96.9623 75.001,70.9823 60.001,96.9633" seed="24"/><polygon fill="rgb(147, 112, 219)" stroke="black" stroke-width="1" onmouseover="setChange(evt)" onmouseout="unhiliteChange(evt)" onclick="changeMe(evt)" points="75.002,122.943 90.001,96.9623 60.001,96.9633" seed="25"/><polygon fill="rgb(147, 112, 219)" stroke="black" stroke-width="1" onmouseover="setChange(evt)" onmouseout="unhiliteChange(evt)" onclick="changeMe(evt)" points="105.002,122.943 90.002,96.9623 75.002,122.943" seed="26"/><polygon fill="rgb(224, 176, 255)" stroke="black" stroke-width="1" onmouseover="setChange(evt)" onmouseout="unhiliteChange(evt)" onclick="changeMe(evt)" points="130.98,55.9823 115.979,30.0013 89.999,45.0023 104.999,70.9823" seed="27"/><polygon fill="rgb(224, 176, 255)" stroke="black" stroke-width="1" onmouseover="setChange(evt)" onmouseout="unhiliteChange(evt)" onclick="changeMe(evt)" points="145.98,81.9623 130.98,55.9823 104.999,70.9823 120.001,96.9623" seed="28"/><polygon fill="rgb(224, 176, 255)" stroke="black" stroke-width="1" onmouseover="setChange(evt)" onmouseout="unhiliteChange(evt)" onclick="changeMe(evt)" points="160.981,107.943 145.98,81.9623 120,96.9633 135.001,122.943" seed="29"/><polygon fill="rgb(224, 176, 255)" stroke="black" stroke-width="1" onmouseover="setChange(evt)" onmouseout="unhiliteChange(evt)" onclick="changeMe(evt)" points="156.96,40.9803 141.96,15.0013 115.979,30.0023 130.98,55.9823" seed="30"/><polygon fill="rgb(224, 176, 255)" stroke="black" stroke-width="1" onmouseover="setChange(evt)" onmouseout="unhiliteChange(evt)" onclick="changeMe(evt)" points="171.96,66.9613 156.96,40.9813 130.98,55.9823 145.98,81.9623" seed="31"/><polygon fill="rgb(224, 176, 255)" stroke="black" stroke-width="1" onmouseover="setChange(evt)" onmouseout="unhiliteChange(evt)" onclick="changeMe(evt)" points="186.961,92.9423 171.96,66.9623 145.98,81.9633 160.981,107.943" seed="32"/><polygon fill="rgb(224, 176, 255)" stroke="black" stroke-width="1" onmouseover="setChange(evt)" onmouseout="unhiliteChange(evt)" onclick="changeMe(evt)" points="182.941,25.9803 167.939,0.000297546 141.96,15.0013 156.96,40.9803" seed="33"/><polygon fill="rgb(224, 176, 255)" stroke="black" stroke-width="1" onmouseover="setChange(evt)" onmouseout="unhiliteChange(evt)" onclick="changeMe(evt)" points="197.941,51.9603 182.939,25.9803 156.96,40.9813 171.96,66.9613" seed="34"/><polygon fill="rgb(224, 176, 255)" stroke="black" stroke-width="1" onmouseover="setChange(evt)" onmouseout="unhiliteChange(evt)" onclick="changeMe(evt)" points="212.942,77.9413 197.941,51.9613 171.96,66.9623 186.961,92.9423" seed="35"/><polygon fill="rgb(147, 112, 219)" stroke="black" stroke-width="1" onmouseover="setChange(evt)" onmouseout="unhiliteChange(evt)" onclick="changeMe(evt)" points="160.982,137.943 160.981,107.943 135.001,122.943" seed="36"/><polygon fill="rgb(147, 112, 219)" stroke="black" stroke-width="1" onmouseover="setChange(evt)" onmouseout="unhiliteChange(evt)" onclick="changeMe(evt)" points="160.981,137.943 135.001,122.943 135.001,152.943" seed="37"/><polygon fill="rgb(147, 112, 219)" stroke="black" stroke-width="1" onmouseover="setChange(evt)" onmouseout="unhiliteChange(evt)" onclick="changeMe(evt)" points="160.981,167.944 135.001,152.943 135.001,182.943" seed="38"/><polygon fill="rgb(147, 112, 219)" stroke="black" stroke-width="1" onmouseover="setChange(evt)" onmouseout="unhiliteChange(evt)" onclick="changeMe(evt)" points="160.981,167.943 160.981,137.943 135.001,152.943" seed="39"/><polygon fill="rgb(147, 112, 219)" stroke="black" stroke-width="1" onmouseover="setChange(evt)" onmouseout="unhiliteChange(evt)" onclick="changeMe(evt)" points="160.981,197.944 160.981,167.943 135.001,182.943" seed="40"/><polygon fill="rgb(147, 112, 219)" stroke="black" stroke-width="1" onmouseover="setChange(evt)" onmouseout="unhiliteChange(evt)" onclick="changeMe(evt)" points="160.981,197.944 135.001,182.943 135,212.943" seed="41"/><polygon fill="rgb(147, 112, 219)" stroke="black" stroke-width="1" onmouseover="setChange(evt)" onmouseout="unhiliteChange(evt)" onclick="changeMe(evt)" points="186.963,122.942 160.981,107.943 160.982,137.943" seed="42"/><polygon fill="rgb(147, 112, 219)" stroke="black" stroke-width="1" onmouseover="setChange(evt)" onmouseout="unhiliteChange(evt)" onclick="changeMe(evt)" points="186.963,152.942 186.963,122.942 160.982,137.943" seed="43"/><polygon fill="rgb(147, 112, 219)" stroke="black" stroke-width="1" onmouseover="setChange(evt)" onmouseout="unhiliteChange(evt)" onclick="changeMe(evt)" points="186.963,152.942 160.982,137.943 160.982,167.943" seed="44"/><polygon fill="rgb(147, 112, 219)" stroke="black" stroke-width="1" onmouseover="setChange(evt)" onmouseout="unhiliteChange(evt)" onclick="changeMe(evt)" points="186.963,182.942 186.963,152.943 160.982,167.943" seed="45"/><polygon fill="rgb(147, 112, 219)" stroke="black" stroke-width="1" onmouseover="setChange(evt)" onmouseout="unhiliteChange(evt)" onclick="changeMe(evt)" points="186.963,182.942 160.982,167.943 160.983,197.943" seed="46"/><polygon fill="rgb(147, 112, 219)" stroke="black" stroke-width="1" onmouseover="setChange(evt)" onmouseout="unhiliteChange(evt)" onclick="changeMe(evt)" points="186.963,122.942 186.962,92.9423 160.981,107.943" seed="47"/><polygon fill="rgb(147, 112, 219)" stroke="black" stroke-width="1" onmouseover="setChange(evt)" onmouseout="unhiliteChange(evt)" onclick="changeMe(evt)" points="212.943,107.942 186.962,92.9423 186.963,122.942" seed="48"/><polygon fill="rgb(147, 112, 219)" stroke="black" stroke-width="1" onmouseover="setChange(evt)" onmouseout="unhiliteChange(evt)" onclick="changeMe(evt)" points="212.943,137.942 212.943,107.942 186.963,122.942" seed="49"/><polygon fill="rgb(147, 112, 219)" stroke="black" stroke-width="1" onmouseover="setChange(evt)" onmouseout="unhiliteChange(evt)" onclick="changeMe(evt)" points="212.943,137.942 186.963,122.942 186.963,152.942" seed="50"/><polygon fill="rgb(147, 112, 219)" stroke="black" stroke-width="1" onmouseover="setChange(evt)" onmouseout="unhiliteChange(evt)" onclick="changeMe(evt)" points="212.944,167.942 212.943,137.942 186.963,152.942" seed="51"/><polygon fill="rgb(147, 112, 219)" stroke="black" stroke-width="1" onmouseover="setChange(evt)" onmouseout="unhiliteChange(evt)" onclick="changeMe(evt)" points="212.944,167.942 186.963,152.942 186.963,182.942" seed="52"/><polygon fill="rgb(147, 112, 219)" stroke="black" stroke-width="1" onmouseover="setChange(evt)" onmouseout="unhiliteChange(evt)" onclick="changeMe(evt)" points="212.943,107.942 212.942,77.9423 186.962,92.9423" seed="53"/></g>
</svg>
