<svg xmlns="http://www.w3.org/2000/svg" id="mainSVG" pointer-events="all" width="312.848" height="324.905" EdgeLen="30" template="u5_42_tu" code="A36_12_2_4" copyright="Francis Hemsher, 2012">
	<polygon id="BorderPoly" fill="none" pointer-events="none" stroke="red" stroke-width="4" transform="" points="137.948,-0.00050354 122.947,25.9805 96.9663,40.9815 66.9663,40.9815 15.0043,70.9795 0.00326538,96.9595 0.0022583,156.96 15.0013,182.942 15.0003,212.942 0.000259399,238.923 25.9803,253.923 25.9793,283.922 40.9783,309.904 66.9593,324.904 96.9593,324.904 122.94,309.906 137.944,283.925 163.925,298.925 189.905,283.924 189.906,283.924 219.905,283.925 245.885,298.925 245.886,238.925 260.886,212.943 312.847,182.943 286.867,167.943 271.867,141.963 271.867,111.963 245.886,96.9625 260.888,70.9855 260.889,40.9845 245.89,15.0035 219.91,0.00250244 189.91,0.00149536 163.928,15.0005"/><g id="mainPolyG" transform=""><polygon id="mainPoly" fill="rgb(252, 194, 0)" stroke="none" stroke-width="1" onmouseover="setChange(evt)" onmouseout="unhiliteChange(evt)" onclick="changeMe(evt)" points="260.886,212.943 260.886,182.943 245.886,156.963 219.905,141.963 189.905,141.963 163.925,156.963 148.925,182.943 148.924,212.943 163.924,238.925 189.905,253.925 219.905,253.925 245.886,238.925" seed="0"/><polygon fill="rgb(147, 112, 219)" stroke="black" stroke-width="1" onmouseover="setChange(evt)" onmouseout="unhiliteChange(evt)" onclick="changeMe(evt)" points="137.944,283.925 137.944,253.925 163.924,238.925 189.905,253.925 189.906,283.924 163.925,298.925" seed="1"/><polygon fill="rgb(147, 112, 219)" stroke="black" stroke-width="1" onmouseover="setChange(evt)" onmouseout="unhiliteChange(evt)" onclick="changeMe(evt)" points="271.867,111.963 271.867,141.963 245.886,156.963 219.905,141.963 219.905,111.963 245.886,96.9625" seed="2"/><polygon fill="rgb(224, 176, 255)" stroke="black" stroke-width="1" onmouseover="setChange(evt)" onmouseout="unhiliteChange(evt)" onclick="changeMe(evt)" points="122.944,227.943 148.924,212.943 163.924,238.925 137.944,253.925" seed="3"/><polygon fill="rgb(224, 176, 255)" stroke="black" stroke-width="1" onmouseover="setChange(evt)" onmouseout="unhiliteChange(evt)" onclick="changeMe(evt)" points="286.867,167.943 260.886,182.943 245.886,156.963 271.867,141.963" seed="4"/><polygon fill="rgb(224, 176, 255)" stroke="black" stroke-width="1" onmouseover="setChange(evt)" onmouseout="unhiliteChange(evt)" onclick="changeMe(evt)" points="137.944,141.963 163.925,156.963 148.925,182.943 122.944,167.943" seed="5"/><polygon fill="rgb(224, 176, 255)" stroke="black" stroke-width="1" onmouseover="setChange(evt)" onmouseout="unhiliteChange(evt)" onclick="changeMe(evt)" points="219.906,111.964 219.905,141.963 189.906,141.963 189.906,111.963" seed="6"/><polygon fill="rgb(219, 112, 147)" stroke="black" stroke-width="1" onmouseover="setChange(evt)" onmouseout="unhiliteChange(evt)" onclick="changeMe(evt)" points="260.889,40.9845 245.89,15.0035 219.91,0.00250244 189.91,0.00149536 163.928,15.0005 148.928,40.9805 148.926,70.9815 163.926,96.9615 189.906,111.963 219.906,111.964 245.887,96.9645 260.888,70.9855" seed="7"/><polygon fill="rgb(219, 112, 147)" stroke="black" stroke-width="1" onmouseover="setChange(evt)" onmouseout="unhiliteChange(evt)" onclick="changeMe(evt)" points="96.9653,70.9815 66.9653,70.9815 40.9843,85.9805 25.9833,111.962 25.9833,141.962 40.9823,167.942 66.9633,182.943 96.9633,182.943 122.944,167.943 137.944,141.963 137.945,111.963 122.946,85.9825" seed="8"/><polygon fill="rgb(224, 176, 255)" stroke="black" stroke-width="1" onmouseover="setChange(evt)" onmouseout="unhiliteChange(evt)" onclick="changeMe(evt)" points="122.946,85.9825 148.927,70.9825 163.926,96.9635 137.945,111.963" seed="9"/><polygon fill="rgb(224, 176, 255)" stroke="black" stroke-width="1" onmouseover="setChange(evt)" onmouseout="unhiliteChange(evt)" onclick="changeMe(evt)" points="40.9823,167.942 15.0013,182.942 0.0022583,156.96 25.9833,141.962" seed="10"/><polygon fill="rgb(224, 176, 255)" stroke="black" stroke-width="1" onmouseover="setChange(evt)" onmouseout="unhiliteChange(evt)" onclick="changeMe(evt)" points="96.9623,182.943 96.9623,212.943 66.9623,212.942 66.9633,182.943" seed="11"/><polygon fill="rgb(224, 176, 255)" stroke="black" stroke-width="1" onmouseover="setChange(evt)" onmouseout="unhiliteChange(evt)" onclick="changeMe(evt)" points="66.9663,70.9815 66.9663,40.9815 96.9663,40.9815 96.9653,70.9815" seed="12"/><polygon fill="rgb(224, 176, 255)" stroke="black" stroke-width="1" onmouseover="setChange(evt)" onmouseout="unhiliteChange(evt)" onclick="changeMe(evt)" points="148.928,40.9805 122.947,25.9805 137.948,-0.00050354 163.928,15.0005" seed="13"/><polygon fill="rgb(224, 176, 255)" stroke="black" stroke-width="1" onmouseover="setChange(evt)" onmouseout="unhiliteChange(evt)" onclick="changeMe(evt)" points="219.905,253.925 219.905,283.925 189.905,283.924 189.905,253.925" seed="14"/><polygon fill="rgb(224, 176, 255)" stroke="black" stroke-width="1" onmouseover="setChange(evt)" onmouseout="unhiliteChange(evt)" onclick="changeMe(evt)" points="25.9833,111.96 0.00326538,96.9595 15.0043,70.9795 40.9843,85.9805" seed="15"/><polygon fill="rgb(41, 171, 135)" stroke="black" stroke-width="1" onmouseover="setChange(evt)" onmouseout="unhiliteChange(evt)" onclick="changeMe(evt)" points="122.946,55.9815 122.946,85.9825 96.9653,70.9815" seed="16"/><polygon fill="rgb(41, 171, 135)" stroke="black" stroke-width="1" onmouseover="setChange(evt)" onmouseout="unhiliteChange(evt)" onclick="changeMe(evt)" points="122.946,55.9825 96.9663,40.9815 96.9653,70.9825" seed="17"/><polygon fill="rgb(41, 171, 135)" stroke="black" stroke-width="1" onmouseover="setChange(evt)" onmouseout="unhiliteChange(evt)" onclick="changeMe(evt)" points="122.947,55.9795 148.928,40.9805 122.947,25.9805" seed="18"/><polygon fill="rgb(41, 171, 135)" stroke="black" stroke-width="1" onmouseover="setChange(evt)" onmouseout="unhiliteChange(evt)" onclick="changeMe(evt)" points="122.947,25.9825 122.946,55.9825 96.9663,40.9815" seed="19"/><polygon fill="rgb(41, 171, 135)" stroke="black" stroke-width="1" onmouseover="setChange(evt)" onmouseout="unhiliteChange(evt)" onclick="changeMe(evt)" points="148.928,70.9805 122.947,55.9795 148.928,40.9795" seed="20"/><polygon fill="rgb(41, 171, 135)" stroke="black" stroke-width="1" onmouseover="setChange(evt)" onmouseout="unhiliteChange(evt)" onclick="changeMe(evt)" points="148.927,70.9825 122.946,55.9815 122.946,85.9825" seed="21"/><polygon fill="rgb(41, 171, 135)" stroke="black" stroke-width="1" onmouseover="setChange(evt)" onmouseout="unhiliteChange(evt)" onclick="changeMe(evt)" points="40.9843,55.9805 66.9653,70.9815 40.9843,85.9815" seed="22"/><polygon fill="rgb(41, 171, 135)" stroke="black" stroke-width="1" onmouseover="setChange(evt)" onmouseout="unhiliteChange(evt)" onclick="changeMe(evt)" points="0.00326538,126.96 25.9833,111.962 25.9833,141.962" seed="23"/><polygon fill="rgb(41, 171, 135)" stroke="black" stroke-width="1" onmouseover="setChange(evt)" onmouseout="unhiliteChange(evt)" onclick="changeMe(evt)" points="40.9813,197.942 40.9823,167.942 66.9623,182.943" seed="24"/><polygon fill="rgb(41, 171, 135)" stroke="black" stroke-width="1" onmouseover="setChange(evt)" onmouseout="unhiliteChange(evt)" onclick="changeMe(evt)" points="122.943,197.943 96.9633,182.943 122.944,167.943" seed="25"/><polygon fill="rgb(41, 171, 135)" stroke="black" stroke-width="1" onmouseover="setChange(evt)" onmouseout="unhiliteChange(evt)" onclick="changeMe(evt)" points="40.9863,55.9815 15.0043,70.9795 40.9843,85.9805" seed="26"/><polygon fill="rgb(41, 171, 135)" stroke="black" stroke-width="1" onmouseover="setChange(evt)" onmouseout="unhiliteChange(evt)" onclick="changeMe(evt)" points="66.9653,40.9815 40.9843,55.9805 66.9653,70.9815" seed="27"/><polygon fill="rgb(41, 171, 135)" stroke="black" stroke-width="1" onmouseover="setChange(evt)" onmouseout="unhiliteChange(evt)" onclick="changeMe(evt)" points="0.0022583,126.959 25.9833,111.96 0.00326538,96.9595" seed="28"/><polygon fill="rgb(41, 171, 135)" stroke="black" stroke-width="1" onmouseover="setChange(evt)" onmouseout="unhiliteChange(evt)" onclick="changeMe(evt)" points="0.0022583,156.96 25.9833,141.962 0.0022583,126.962" seed="29"/><polygon fill="rgb(41, 171, 135)" stroke="black" stroke-width="1" onmouseover="setChange(evt)" onmouseout="unhiliteChange(evt)" onclick="changeMe(evt)" points="40.9813,197.942 40.9823,167.942 15.0013,182.942" seed="30"/><polygon fill="rgb(41, 171, 135)" stroke="black" stroke-width="1" onmouseover="setChange(evt)" onmouseout="unhiliteChange(evt)" onclick="changeMe(evt)" points="15.0003,212.942 15.0013,182.942 40.9813,197.942" seed="31"/><polygon fill="rgb(41, 171, 135)" stroke="black" stroke-width="1" onmouseover="setChange(evt)" onmouseout="unhiliteChange(evt)" onclick="changeMe(evt)" points="40.9813,227.942 40.9813,197.942 15.0003,212.942" seed="32"/><polygon fill="rgb(41, 171, 135)" stroke="black" stroke-width="1" onmouseover="setChange(evt)" onmouseout="unhiliteChange(evt)" onclick="changeMe(evt)" points="66.9623,212.943 66.9623,182.943 40.9813,197.942" seed="33"/><polygon fill="rgb(41, 171, 135)" stroke="black" stroke-width="1" onmouseover="setChange(evt)" onmouseout="unhiliteChange(evt)" onclick="changeMe(evt)" points="40.9813,227.942 40.9813,197.942 66.9623,212.943" seed="34"/><polygon fill="rgb(41, 171, 135)" stroke="black" stroke-width="1" onmouseover="setChange(evt)" onmouseout="unhiliteChange(evt)" onclick="changeMe(evt)" points="122.943,197.943 96.9623,182.943 96.9623,212.943" seed="35"/><polygon fill="rgb(41, 171, 135)" stroke="black" stroke-width="1" onmouseover="setChange(evt)" onmouseout="unhiliteChange(evt)" onclick="changeMe(evt)" points="148.925,182.945 122.944,167.943 122.943,197.943" seed="36"/><polygon fill="rgb(41, 171, 135)" stroke="black" stroke-width="1" onmouseover="setChange(evt)" onmouseout="unhiliteChange(evt)" onclick="changeMe(evt)" points="148.923,212.946 122.943,197.943 148.925,182.946" seed="37"/><polygon fill="rgb(41, 171, 135)" stroke="black" stroke-width="1" onmouseover="setChange(evt)" onmouseout="unhiliteChange(evt)" onclick="changeMe(evt)" points="122.943,227.943 96.9623,212.943 122.943,197.943" seed="38"/><polygon fill="rgb(41, 171, 135)" stroke="black" stroke-width="1" onmouseover="setChange(evt)" onmouseout="unhiliteChange(evt)" onclick="changeMe(evt)" points="148.924,212.943 122.943,197.943 122.943,227.943" seed="39"/><polygon fill="rgb(219, 112, 147)" stroke="black" stroke-width="1" onmouseover="setChange(evt)" onmouseout="unhiliteChange(evt)" onclick="changeMe(evt)" points="137.941,283.925 137.942,253.925 122.943,227.945 96.9623,212.943 66.9623,212.942 40.9813,227.942 25.9803,253.923 25.9793,283.922 40.9783,309.904 66.9593,324.904 96.9593,324.904 122.94,309.906" seed="40"/><polygon fill="rgb(41, 171, 135)" stroke="black" stroke-width="1" onmouseover="setChange(evt)" onmouseout="unhiliteChange(evt)" onclick="changeMe(evt)" points="163.926,126.963 163.926,96.9635 137.945,111.963" seed="41"/><polygon fill="rgb(41, 171, 135)" stroke="black" stroke-width="1" onmouseover="setChange(evt)" onmouseout="unhiliteChange(evt)" onclick="changeMe(evt)" points="163.925,126.964 137.944,141.963 137.945,111.963" seed="42"/><polygon fill="rgb(41, 171, 135)" stroke="black" stroke-width="1" onmouseover="setChange(evt)" onmouseout="unhiliteChange(evt)" onclick="changeMe(evt)" points="189.907,111.964 163.926,126.963 163.926,96.9635" seed="43"/><polygon fill="rgb(41, 171, 135)" stroke="black" stroke-width="1" onmouseover="setChange(evt)" onmouseout="unhiliteChange(evt)" onclick="changeMe(evt)" points="189.907,141.964 189.907,111.964 163.926,126.963" seed="44"/><polygon fill="rgb(41, 171, 135)" stroke="black" stroke-width="1" onmouseover="setChange(evt)" onmouseout="unhiliteChange(evt)" onclick="changeMe(evt)" points="163.926,156.963 163.926,126.963 189.907,141.964" seed="45"/><polygon fill="rgb(41, 171, 135)" stroke="black" stroke-width="1" onmouseover="setChange(evt)" onmouseout="unhiliteChange(evt)" onclick="changeMe(evt)" points="163.925,156.964 163.925,126.964 137.944,141.963" seed="46"/><polygon fill="rgb(41, 171, 135)" stroke="black" stroke-width="1" onmouseover="setChange(evt)" onmouseout="unhiliteChange(evt)" onclick="changeMe(evt)" points="286.867,197.943 286.867,167.943 260.886,182.943" seed="47"/><polygon fill="rgb(41, 171, 135)" stroke="black" stroke-width="1" onmouseover="setChange(evt)" onmouseout="unhiliteChange(evt)" onclick="changeMe(evt)" points="286.867,197.945 260.886,212.943 260.886,182.943" seed="48"/><polygon fill="rgb(41, 171, 135)" stroke="black" stroke-width="1" onmouseover="setChange(evt)" onmouseout="unhiliteChange(evt)" onclick="changeMe(evt)" points="312.847,182.943 286.867,197.943 286.867,167.943" seed="49"/><polygon fill="rgb(41, 171, 135)" stroke="black" stroke-width="1" onmouseover="setChange(evt)" onmouseout="unhiliteChange(evt)" onclick="changeMe(evt)" points="245.886,268.925 219.905,253.925 219.905,283.925" seed="50"/><polygon fill="rgb(41, 171, 135)" stroke="black" stroke-width="1" onmouseover="setChange(evt)" onmouseout="unhiliteChange(evt)" onclick="changeMe(evt)" points="245.886,268.925 219.905,253.925 245.886,238.925" seed="51"/><polygon fill="rgb(41, 171, 135)" stroke="black" stroke-width="1" onmouseover="setChange(evt)" onmouseout="unhiliteChange(evt)" onclick="changeMe(evt)" points="245.885,298.925 219.905,283.925 245.886,268.925" seed="52"/><polygon fill="rgb(224, 176, 255)" stroke="black" stroke-width="1" onmouseover="setChange(evt)" onmouseout="unhiliteChange(evt)" onclick="changeMe(evt)" points="15.0013,212.942 40.9813,227.942 25.9803,253.923 0.000259399,238.923" seed="53"/></g></svg>
