<?xml version="1.0" encoding="utf-8"?>
<svg xmlns="http://www.w3.org/2000/svg" id="mainSVG" pointer-events="all" width="364.81" height="343.922" EdgeLen="30" template="u6_84_tu" code="A42_18_6_3" copyright="Francis Hemsher, 2012">
	<polygon id="BorderPoly" fill="none" pointer-events="none" stroke="red" stroke-width="4" transform="" points="323.829,55.9838 297.849,70.9838 271.868,85.9828 241.868,85.9828 215.888,70.9838 189.908,55.9828 163.927,40.9828 148.927,15.0008 122.947,0.000762939 92.947,-0.000244141 66.965,14.9998 51.965,40.9798 25.984,55.9798 25.984,85.9788 40.983,111.96 66.962,126.961 40.981,141.961 15.001,156.961 0.00100708,182.942 0.00100708,212.942 0,242.942 0.00100708,272.942 15.001,298.923 40.982,313.923 66.962,328.923 92.941,343.922 122.941,343.923 148.924,328.923 174.905,313.923 200.884,298.923 215.883,272.942 241.866,257.944 271.866,257.944 297.846,272.946 297.847,242.945 297.849,212.945 297.849,182.945 312.849,156.964 338.829,141.965 364.81,126.965 338.829,111.965 323.83,85.9828"/>
	<g id="mainPolyG" transform=""><polygon id="mainPoly" fill="rgb(252, 194, 0)" stroke="black" onmouseover="setChange(evt)" onmouseout="unhiliteChange(evt)" onclick="changeMe(evt)" points="122.943,171.962 92.943,171.961 66.962,186.961 51.962,212.942 51.962,242.942 66.962,268.923 92.943,283.923 122.943,283.923 148.923,268.923 163.923,242.942 163.924,212.942 148.924,186.962" seed="0"/><polygon fill="rgb(224, 176, 255)" stroke="black" stroke-width="1" onmouseover="setChange(evt)" onmouseout="unhiliteChange(evt)" onclick="changeMe(evt)" points="122.944,141.962 92.944,141.961 92.944,171.961 122.943,171.962" seed="1"/><polygon fill="rgb(224, 176, 255)" stroke="black" stroke-width="1" onmouseover="setChange(evt)" onmouseout="unhiliteChange(evt)" onclick="changeMe(evt)" points="189.905,197.942 174.905,171.961 148.924,186.962 163.924,212.942" seed="2"/><polygon fill="rgb(224, 176, 255)" stroke="black" stroke-width="1" onmouseover="setChange(evt)" onmouseout="unhiliteChange(evt)" onclick="changeMe(evt)" points="189.905,257.942 163.923,242.942 148.923,268.923 174.904,283.923" seed="3"/><polygon fill="rgb(224, 176, 255)" stroke="black" stroke-width="1" onmouseover="setChange(evt)" onmouseout="unhiliteChange(evt)" onclick="changeMe(evt)" points="122.943,283.923 92.943,283.923 92.943,313.922 122.943,313.923" seed="4"/><polygon fill="rgb(224, 176, 255)" stroke="black" stroke-width="1" onmouseover="setChange(evt)" onmouseout="unhiliteChange(evt)" onclick="changeMe(evt)" points="66.962,268.923 51.962,242.942 25.982,257.942 40.982,283.923" seed="5"/><polygon fill="rgb(224, 176, 255)" stroke="black" stroke-width="1" onmouseover="setChange(evt)" onmouseout="unhiliteChange(evt)" onclick="changeMe(evt)" points="66.962,186.961 40.982,171.962 25.982,197.942 51.963,212.942" seed="6"/><polygon fill="rgb(224, 176, 255)" stroke="black" stroke-width="1" onmouseover="setChange(evt)" onmouseout="unhiliteChange(evt)" onclick="changeMe(evt)" points="122.944,111.962 92.944,111.962 92.944,141.961 122.943,141.962" seed="7"/><polygon fill="rgb(224, 176, 255)" stroke="black" stroke-width="1" onmouseover="setChange(evt)" onmouseout="unhiliteChange(evt)" onclick="changeMe(evt)" points="215.885,182.942 200.885,156.961 174.905,171.961 189.905,197.942" seed="8"/><polygon fill="rgb(224, 176, 255)" stroke="black" stroke-width="1" onmouseover="setChange(evt)" onmouseout="unhiliteChange(evt)" onclick="changeMe(evt)" points="215.884,272.943 189.905,257.942 174.904,283.922 200.884,298.923" seed="9"/><polygon fill="rgb(224, 176, 255)" stroke="black" stroke-width="1" onmouseover="setChange(evt)" onmouseout="unhiliteChange(evt)" onclick="changeMe(evt)" points="122.943,313.923 92.943,313.922 92.941,343.922 122.941,343.923" seed="10"/><polygon fill="rgb(224, 176, 255)" stroke="black" stroke-width="1" onmouseover="setChange(evt)" onmouseout="unhiliteChange(evt)" onclick="changeMe(evt)" points="40.982,283.923 25.982,257.943 0.00100708,272.942 15.001,298.923" seed="11"/><polygon fill="rgb(224, 176, 255)" stroke="black" stroke-width="1" onmouseover="setChange(evt)" onmouseout="unhiliteChange(evt)" onclick="changeMe(evt)" points="40.982,171.962 15.001,156.961 0.00100708,182.942 25.982,197.942" seed="12"/><polygon fill="rgb(41, 171, 135)" stroke="black" stroke-width="1" onmouseover="setChange(evt)" onmouseout="unhiliteChange(evt)" onclick="changeMe(evt)" points="92.943,141.961 66.962,126.961 40.981,141.961 40.981,171.961 66.962,186.961 92.943,171.961" seed="13"/><polygon fill="rgb(41, 171, 135)" stroke="black" stroke-width="1" onmouseover="setChange(evt)" onmouseout="unhiliteChange(evt)" onclick="changeMe(evt)" points="174.905,141.961 148.924,126.962 122.944,141.962 122.943,171.962 148.924,186.962 174.905,171.962" seed="14"/><polygon fill="rgb(41, 171, 135)" stroke="black" stroke-width="1" onmouseover="setChange(evt)" onmouseout="unhiliteChange(evt)" onclick="changeMe(evt)" points="215.886,212.943 189.905,197.943 163.924,212.942 163.923,242.942 189.904,257.943 215.885,242.943" seed="15"/><polygon fill="rgb(41, 171, 135)" stroke="black" stroke-width="1" onmouseover="setChange(evt)" onmouseout="unhiliteChange(evt)" onclick="changeMe(evt)" points="174.905,283.923 148.923,268.923 122.943,283.923 122.943,313.923 148.924,328.923 174.905,313.923" seed="16"/><polygon fill="rgb(41, 171, 135)" stroke="black" stroke-width="1" onmouseover="setChange(evt)" onmouseout="unhiliteChange(evt)" onclick="changeMe(evt)" points="92.943,283.923 66.962,268.923 40.982,283.923 40.982,313.923 66.962,328.923 92.943,313.923" seed="17"/><polygon fill="rgb(41, 171, 135)" stroke="black" stroke-width="1" onmouseover="setChange(evt)" onmouseout="unhiliteChange(evt)" onclick="changeMe(evt)" points="51.962,212.942 25.982,197.942 0.00100708,212.942 0,242.942 25.981,257.942 51.962,242.942" seed="18"/><polygon fill="rgb(147, 112, 219)" stroke="black" stroke-width="1" onmouseover="setChange(evt)" onmouseout="unhiliteChange(evt)" onclick="changeMe(evt)" points="92.944,141.962 92.944,111.962 66.963,126.961" seed="19"/><polygon fill="rgb(147, 112, 219)" stroke="black" stroke-width="1" onmouseover="setChange(evt)" onmouseout="unhiliteChange(evt)" onclick="changeMe(evt)" points="148.924,126.964 122.944,111.962 122.943,141.962" seed="20"/><polygon fill="rgb(147, 112, 219)" stroke="black" stroke-width="1" onmouseover="setChange(evt)" onmouseout="unhiliteChange(evt)" onclick="changeMe(evt)" points="200.885,156.961 174.904,141.961 174.904,171.961" seed="21"/><polygon fill="rgb(147, 112, 219)" stroke="black" stroke-width="1" onmouseover="setChange(evt)" onmouseout="unhiliteChange(evt)" onclick="changeMe(evt)" points="215.885,212.942 215.885,182.942 189.905,197.942" seed="22"/><polygon fill="rgb(147, 112, 219)" stroke="black" stroke-width="1" onmouseover="setChange(evt)" onmouseout="unhiliteChange(evt)" onclick="changeMe(evt)" points="215.884,272.943 215.886,242.944 189.905,257.942" seed="23"/><polygon fill="rgb(147, 112, 219)" stroke="black" stroke-width="1" onmouseover="setChange(evt)" onmouseout="unhiliteChange(evt)" onclick="changeMe(evt)" points="200.884,298.923 174.904,283.922 174.903,313.922" seed="24"/><polygon fill="rgb(147, 112, 219)" stroke="black" stroke-width="1" onmouseover="setChange(evt)" onmouseout="unhiliteChange(evt)" onclick="changeMe(evt)" points="148.923,328.923 122.943,313.923 122.941,343.923" seed="25"/><polygon fill="rgb(147, 112, 219)" stroke="black" stroke-width="1" onmouseover="setChange(evt)" onmouseout="unhiliteChange(evt)" onclick="changeMe(evt)" points="92.941,343.922 92.943,313.922 66.962,328.921" seed="26"/><polygon fill="rgb(147, 112, 219)" stroke="black" stroke-width="1" onmouseover="setChange(evt)" onmouseout="unhiliteChange(evt)" onclick="changeMe(evt)" points="25.982,257.943 0.00100708,242.942 0.00100708,272.942" seed="27"/><polygon fill="rgb(147, 112, 219)" stroke="black" stroke-width="1" onmouseover="setChange(evt)" onmouseout="unhiliteChange(evt)" onclick="changeMe(evt)" points="40.982,313.923 40.982,283.923 15.001,298.923" seed="28"/><polygon fill="rgb(147, 112, 219)" stroke="black" stroke-width="1" onmouseover="setChange(evt)" onmouseout="unhiliteChange(evt)" onclick="changeMe(evt)" points="25.982,197.942 0.00100708,182.942 0.00100708,212.942" seed="29"/><polygon fill="rgb(147, 112, 219)" stroke="black" stroke-width="1" onmouseover="setChange(evt)" onmouseout="unhiliteChange(evt)" onclick="changeMe(evt)" points="40.982,171.962 40.982,141.962 15.001,156.962" seed="30"/><polygon fill="rgb(0, 128, 128)" stroke="black" stroke-width="1" onmouseover="setChange(evt)" onmouseout="unhiliteChange(evt)" onclick="changeMe(evt)" points="122.947,0.000762939 92.947,-0.000244141 66.965,14.9998 51.965,40.9798 51.965,70.9798 66.964,96.9608 92.944,111.962 122.944,111.962 148.926,96.9628 163.926,70.9828 163.927,40.9828 148.927,15.0008" seed="31"/><polygon fill="rgb(224, 176, 255)" stroke="black" stroke-width="1" onmouseover="setChange(evt)" onmouseout="unhiliteChange(evt)" onclick="changeMe(evt)" points="66.964,96.9608 51.965,70.9798 25.984,85.9788 40.983,111.96" seed="32"/><polygon fill="rgb(224, 176, 255)" stroke="black" stroke-width="1" onmouseover="setChange(evt)" onmouseout="unhiliteChange(evt)" onclick="changeMe(evt)" points="189.906,85.9828 163.926,70.9828 148.926,96.9628 174.906,111.964" seed="33"/><polygon fill="rgb(224, 176, 255)" stroke="black" stroke-width="1" onmouseover="setChange(evt)" onmouseout="unhiliteChange(evt)" onclick="changeMe(evt)" points="215.887,100.983 189.906,85.9828 174.906,111.964 200.887,126.964" seed="34"/><polygon fill="rgb(0, 128, 128)" stroke="black" stroke-width="1" onmouseover="setChange(evt)" onmouseout="unhiliteChange(evt)" onclick="changeMe(evt)" points="271.868,85.9828 241.868,85.9828 215.887,100.983 200.887,126.964 200.887,156.963 215.887,182.944 241.867,197.944 271.867,197.945 297.849,182.945 312.849,156.964 312.849,126.964 297.849,100.983" seed="35"/><polygon fill="rgb(224, 176, 255)" stroke="black" stroke-width="1" onmouseover="setChange(evt)" onmouseout="unhiliteChange(evt)" onclick="changeMe(evt)" points="271.867,197.945 241.867,197.944 241.867,227.944 271.867,227.945" seed="36"/><polygon fill="rgb(224, 176, 255)" stroke="black" stroke-width="1" onmouseover="setChange(evt)" onmouseout="unhiliteChange(evt)" onclick="changeMe(evt)" points="271.867,227.945 241.867,227.944 241.866,257.944 271.866,257.944" seed="37"/><polygon fill="rgb(224, 176, 255)" stroke="black" stroke-width="1" onmouseover="setChange(evt)" onmouseout="unhiliteChange(evt)" onclick="changeMe(evt)" points="338.829,111.965 323.83,85.9828 297.849,100.984 312.849,126.964" seed="38"/><polygon fill="rgb(147, 112, 219)" stroke="black" stroke-width="1" onmouseover="setChange(evt)" onmouseout="unhiliteChange(evt)" onclick="changeMe(evt)" points="51.965,70.9798 51.965,40.9798 25.984,55.9798" seed="39"/><polygon fill="rgb(147, 112, 219)" stroke="black" stroke-width="1" onmouseover="setChange(evt)" onmouseout="unhiliteChange(evt)" onclick="changeMe(evt)" points="51.965,70.9798 25.984,55.9798 25.984,85.9798" seed="40"/><polygon fill="rgb(147, 112, 219)" stroke="black" stroke-width="1" onmouseover="setChange(evt)" onmouseout="unhiliteChange(evt)" onclick="changeMe(evt)" points="66.963,126.961 66.965,96.9608 40.983,111.96" seed="41"/><polygon fill="rgb(147, 112, 219)" stroke="black" stroke-width="1" onmouseover="setChange(evt)" onmouseout="unhiliteChange(evt)" onclick="changeMe(evt)" points="92.945,111.962 66.965,96.9608 66.963,126.961" seed="42"/><polygon fill="rgb(147, 112, 219)" stroke="black" stroke-width="1" onmouseover="setChange(evt)" onmouseout="unhiliteChange(evt)" onclick="changeMe(evt)" points="148.924,126.964 148.926,96.9637 122.944,111.962" seed="43"/><polygon fill="rgb(147, 112, 219)" stroke="black" stroke-width="1" onmouseover="setChange(evt)" onmouseout="unhiliteChange(evt)" onclick="changeMe(evt)" points="174.906,111.964 148.926,96.9628 148.925,126.963" seed="44"/><polygon fill="rgb(147, 112, 219)" stroke="black" stroke-width="1" onmouseover="setChange(evt)" onmouseout="unhiliteChange(evt)" onclick="changeMe(evt)" points="189.906,85.9828 189.908,55.9828 163.926,70.9828" seed="45"/><polygon fill="rgb(147, 112, 219)" stroke="black" stroke-width="1" onmouseover="setChange(evt)" onmouseout="unhiliteChange(evt)" onclick="changeMe(evt)" points="189.908,55.9828 163.927,40.9828 163.926,70.9828" seed="46"/><polygon fill="rgb(147, 112, 219)" stroke="black" stroke-width="1" onmouseover="setChange(evt)" onmouseout="unhiliteChange(evt)" onclick="changeMe(evt)" points="215.888,70.9838 189.908,55.9828 189.906,85.9828" seed="47"/><polygon fill="rgb(147, 112, 219)" stroke="black" stroke-width="1" onmouseover="setChange(evt)" onmouseout="unhiliteChange(evt)" onclick="changeMe(evt)" points="215.887,100.985 215.887,70.9838 189.906,85.9828" seed="48"/><polygon fill="rgb(147, 112, 219)" stroke="black" stroke-width="1" onmouseover="setChange(evt)" onmouseout="unhiliteChange(evt)" onclick="changeMe(evt)" points="241.868,85.9848 215.887,70.9838 215.887,100.984" seed="49"/><polygon fill="rgb(147, 112, 219)" stroke="black" stroke-width="1" onmouseover="setChange(evt)" onmouseout="unhiliteChange(evt)" onclick="changeMe(evt)" points="174.905,141.964 174.906,111.964 148.926,126.962" seed="50"/><polygon fill="rgb(147, 112, 219)" stroke="black" stroke-width="1" onmouseover="setChange(evt)" onmouseout="unhiliteChange(evt)" onclick="changeMe(evt)" points="200.887,126.965 174.906,111.964 174.905,141.964" seed="51"/><polygon fill="rgb(147, 112, 219)" stroke="black" stroke-width="1" onmouseover="setChange(evt)" onmouseout="unhiliteChange(evt)" onclick="changeMe(evt)" points="200.885,156.965 200.887,126.965 174.905,141.964" seed="52"/><polygon fill="rgb(147, 112, 219)" stroke="black" stroke-width="1" onmouseover="setChange(evt)" onmouseout="unhiliteChange(evt)" onclick="changeMe(evt)" points="323.829,85.9838 297.849,70.9838 297.849,100.984" seed="53"/><polygon fill="rgb(147, 112, 219)" stroke="black" stroke-width="1" onmouseover="setChange(evt)" onmouseout="unhiliteChange(evt)" onclick="changeMe(evt)" points="297.849,100.983 297.849,70.9838 271.868,85.9828" seed="54"/><polygon fill="rgb(147, 112, 219)" stroke="black" stroke-width="1" onmouseover="setChange(evt)" onmouseout="unhiliteChange(evt)" onclick="changeMe(evt)" points="323.829,85.9838 323.829,55.9838 297.849,70.9838" seed="55"/><polygon fill="rgb(147, 112, 219)" stroke="black" stroke-width="1" onmouseover="setChange(evt)" onmouseout="unhiliteChange(evt)" onclick="changeMe(evt)" points="338.829,141.965 338.829,111.965 312.849,126.964" seed="56"/><polygon fill="rgb(147, 112, 219)" stroke="black" stroke-width="1" onmouseover="setChange(evt)" onmouseout="unhiliteChange(evt)" onclick="changeMe(evt)" points="338.829,141.964 312.849,126.964 312.849,156.964" seed="57"/><polygon fill="rgb(147, 112, 219)" stroke="black" stroke-width="1" onmouseover="setChange(evt)" onmouseout="unhiliteChange(evt)" onclick="changeMe(evt)" points="364.81,126.965 338.829,111.965 338.829,141.965" seed="58"/><polygon fill="rgb(147, 112, 219)" stroke="black" stroke-width="1" onmouseover="setChange(evt)" onmouseout="unhiliteChange(evt)" onclick="changeMe(evt)" points="241.866,197.943 215.885,182.942 215.885,212.942" seed="59"/><polygon fill="rgb(147, 112, 219)" stroke="black" stroke-width="1" onmouseover="setChange(evt)" onmouseout="unhiliteChange(evt)" onclick="changeMe(evt)" points="241.866,227.943 241.866,197.943 215.885,212.942" seed="60"/><polygon fill="rgb(147, 112, 219)" stroke="black" stroke-width="1" onmouseover="setChange(evt)" onmouseout="unhiliteChange(evt)" onclick="changeMe(evt)" points="241.866,227.943 215.885,212.942 215.884,242.942" seed="61"/><polygon fill="rgb(147, 112, 219)" stroke="black" stroke-width="1" onmouseover="setChange(evt)" onmouseout="unhiliteChange(evt)" onclick="changeMe(evt)" points="241.864,257.943 241.865,227.943 215.884,242.942" seed="62"/><polygon fill="rgb(147, 112, 219)" stroke="black" stroke-width="1" onmouseover="setChange(evt)" onmouseout="unhiliteChange(evt)" onclick="changeMe(evt)" points="241.864,257.943 215.884,242.942 215.883,272.942" seed="63"/><polygon fill="rgb(147, 112, 219)" stroke="black" stroke-width="1" onmouseover="setChange(evt)" onmouseout="unhiliteChange(evt)" onclick="changeMe(evt)" points="297.847,242.945 271.867,227.944 271.866,257.944" seed="64"/><polygon fill="rgb(147, 112, 219)" stroke="black" stroke-width="1" onmouseover="setChange(evt)" onmouseout="unhiliteChange(evt)" onclick="changeMe(evt)" points="297.846,272.946 297.847,242.945 271.866,257.945" seed="65"/><polygon fill="rgb(147, 112, 219)" stroke="black" stroke-width="1" onmouseover="setChange(evt)" onmouseout="unhiliteChange(evt)" onclick="changeMe(evt)" points="297.848,242.945 297.849,212.945 271.867,227.944" seed="66"/><polygon fill="rgb(147, 112, 219)" stroke="black" stroke-width="1" onmouseover="setChange(evt)" onmouseout="unhiliteChange(evt)" onclick="changeMe(evt)" points="297.849,212.945 271.868,197.944 271.867,227.944" seed="67"/><polygon fill="rgb(147, 112, 219)" stroke="black" stroke-width="1" onmouseover="setChange(evt)" onmouseout="unhiliteChange(evt)" onclick="changeMe(evt)" points="297.849,212.945 297.849,182.946 271.868,197.944" seed="68"/></g>
</svg>
