<?xml version="1.0" encoding="utf-8"?>
<svg xmlns="http://www.w3.org/2000/svg" id="mainSVG" pointer-events="all" width="210" height="155.885" EdgeLen="30" template="u5_5_tu" code="A4_0_4_0" copyright="Francis Hemsher, 2012">
	<polygon id="BorderPoly" fill="none" pointer-events="none" stroke="red" stroke-width="4" transform="" points="195,0.000495911 165,-7.62939e-006 150.001,25.9815 135.001,51.9615 105.001,51.9615 90.001,77.9425 60,77.9425 45,103.923 15,103.923 0,129.904 15,155.884 45,155.884 60,129.904 90.001,129.904 105.001,103.923 135.001,103.923 150.001,77.9425 180.001,77.9425 195,51.9625 210,25.9815"/>
	<g id="mainPolyG" transform=""><polygon id="mainPoly" fill="rgb(252, 194, 0)" stroke="black" onmouseover="setChange(evt)" onmouseout="unhiliteChange(evt)" onclick="changeMe(evt)" points="45,103.923 15,103.923 0,129.904 15,155.884 45,155.884 60,129.904" seed="0"/><polygon fill="rgb(41, 171, 135)" stroke="black" stroke-width="1" onmouseover="setChange(evt)" onmouseout="unhiliteChange(evt)" onclick="changeMe(evt)" points="90.001,77.9425 60,77.9425 45,103.923 60,129.904 90.001,129.904 105.001,103.923" seed="1"/><polygon fill="rgb(41, 171, 135)" stroke="black" stroke-width="1" onmouseover="setChange(evt)" onmouseout="unhiliteChange(evt)" onclick="changeMe(evt)" points="135.001,51.9615 105.001,51.9615 90.001,77.9425 105.001,103.923 135.001,103.923 150.001,77.9425" seed="2"/><polygon fill="rgb(41, 171, 135)" stroke="black" stroke-width="1" onmouseover="setChange(evt)" onmouseout="unhiliteChange(evt)" onclick="changeMe(evt)" points="180.001,25.9815 150.001,25.9815 135.001,51.9615 150.001,77.9425 180.001,77.9425 195.001,51.9625" seed="3"/><polygon fill="rgb(147, 112, 219)" stroke="black" stroke-width="1" onmouseover="setChange(evt)" onmouseout="unhiliteChange(evt)" onclick="changeMe(evt)" points="180,25.9815 165,-7.62939e-006 150.001,25.9815" seed="4"/><polygon fill="rgb(147, 112, 219)" stroke="black" stroke-width="1" onmouseover="setChange(evt)" onmouseout="unhiliteChange(evt)" onclick="changeMe(evt)" points="195,0.000495911 165,-7.62939e-006 180,25.9815" seed="5"/><polygon fill="rgb(147, 112, 219)" stroke="black" stroke-width="1" onmouseover="setChange(evt)" onmouseout="unhiliteChange(evt)" onclick="changeMe(evt)" points="210,25.9815 195,0.000495911 180,25.9815" seed="6"/><polygon fill="rgb(147, 112, 219)" stroke="black" stroke-width="1" onmouseover="setChange(evt)" onmouseout="unhiliteChange(evt)" onclick="changeMe(evt)" points="210,25.9815 180,25.9815 195,51.9625" seed="7"/></g>
</svg>
