<?xml version="1.0" encoding="utf-8"?>
<svg xmlns="http://www.w3.org/2000/svg" id="mainSVG" pointer-events="all" width="180.001" height="77.9425" EdgeLen="30" template="u4_16_tu" code="A4_0_3_0" copyright="Francis Hemsher, 2012">
	<polygon id="BorderPoly" fill="none" pointer-events="none" stroke="red" stroke-width="4" transform="" points="90.0008,4.57764e-005 75.0008,25.981 44.9997,25.981 14.9997,25.981 4.57764e-005,51.9615 14.9997,77.9427 44.9997,77.9427 75.0008,77.9427 90.0008,51.962 120.001,51.962 135.001,77.9427 165.001,77.9427 180.001,51.962 165.001,25.9815 135.001,25.981 120.001,4.57764e-005"/>
	<g id="mainPolyG" transform=""><polygon id="mainPoly" fill="rgb(252, 194, 0)" stroke="black" onmouseover="setChange(evt)" onmouseout="unhiliteChange(evt)" onclick="changeMe(evt)" points="120.001,4.57764e-005 90.0008,4.57764e-005 75.0008,25.981 90.0008,51.962 120.001,51.962 135.001,25.981" seed="0"/><polygon fill="rgb(41, 171, 135)" stroke="black" stroke-width="1" onmouseover="setChange(evt)" onmouseout="unhiliteChange(evt)" onclick="changeMe(evt)" points="75.0008,25.981 44.9997,25.981 29.9997,51.9615 44.9997,77.9427 75.0008,77.9427 90.0008,51.962" seed="1"/><polygon fill="rgb(41, 171, 135)" stroke="black" stroke-width="1" onmouseover="setChange(evt)" onmouseout="unhiliteChange(evt)" onclick="changeMe(evt)" points="165.001,25.9815 135.001,25.981 120.001,51.962 135.001,77.9427 165.001,77.9427 180.001,51.962" seed="2"/><polygon fill="rgb(147, 112, 219)" stroke="black" stroke-width="1" onmouseover="setChange(evt)" onmouseout="unhiliteChange(evt)" onclick="changeMe(evt)" points="44.9997,25.981 14.9997,25.981 29.9997,51.9615" seed="3"/><polygon fill="rgb(147, 112, 219)" stroke="black" stroke-width="1" onmouseover="setChange(evt)" onmouseout="unhiliteChange(evt)" onclick="changeMe(evt)" points="44.9997,77.9427 30.0007,51.9615 14.9997,77.9427" seed="4"/><polygon fill="rgb(147, 112, 219)" stroke="black" stroke-width="1" onmouseover="setChange(evt)" onmouseout="unhiliteChange(evt)" onclick="changeMe(evt)" points="29.9997,51.9615 14.9997,25.981 4.57764e-005,51.9615" seed="5"/><polygon fill="rgb(147, 112, 219)" stroke="black" stroke-width="1" onmouseover="setChange(evt)" onmouseout="unhiliteChange(evt)" onclick="changeMe(evt)" points="29.9997,51.9615 4.57764e-005,51.9615 14.9997,77.9417" seed="6"/></g>
</svg>
