<?xml version="1.0" encoding="utf-8"?>
<svg xmlns="http://www.w3.org/2000/svg" id="mainSVG" pointer-events="all" width="145.981" height="118.923" EdgeLen="30" template="u3_29_tu" code="A4_2_2_0" copyright="Francis Hemsher, 2012">
	<polygon id="BorderPoly" fill="none" pointer-events="none" stroke="red" stroke-width="4" transform="" points="15,40.9795 7.62939e-006,66.9615 15,92.9425 29.9995,118.923 44.9995,92.9425 74.9995,92.9425 89.9995,66.9615 120,66.9615 145.98,51.9625 130.982,25.9805 115.982,-3.8147e-006 90.0005,14.9995 59.9995,14.9995 44.9995,40.9795"/>
	<g id="mainPolyG" transform=""><polygon id="mainPoly" fill="rgb(252, 194, 0)" stroke="black" onmouseover="setChange(evt)" onmouseout="unhiliteChange(evt)" onclick="changeMe(evt)" points="44.9995,40.9795 15,40.9795 7.62939e-006,66.9615 15,92.9425 44.9995,92.9425 59.9995,66.9615" seed="0"/><polygon fill="rgb(41, 171, 135)" stroke="black" stroke-width="1" onmouseover="setChange(evt)" onmouseout="unhiliteChange(evt)" onclick="changeMe(evt)" points="90.0005,14.9995 59.9995,14.9995 44.9995,40.9795 59.9995,66.9615 89.9995,66.9615 105.001,40.9805" seed="1"/><polygon fill="rgb(147, 112, 219)" stroke="black" stroke-width="1" onmouseover="setChange(evt)" onmouseout="unhiliteChange(evt)" onclick="changeMe(evt)" points="44.9995,92.9425 15,92.9425 29.9995,118.923" seed="2"/><polygon fill="rgb(147, 112, 219)" stroke="black" stroke-width="1" onmouseover="setChange(evt)" onmouseout="unhiliteChange(evt)" onclick="changeMe(evt)" points="74.9995,92.9425 59.9995,66.9615 44.9995,92.9425" seed="3"/><polygon fill="rgb(147, 112, 219)" stroke="black" stroke-width="1" onmouseover="setChange(evt)" onmouseout="unhiliteChange(evt)" onclick="changeMe(evt)" points="89.9995,66.9615 59.9995,66.9615 74.9995,92.9425" seed="4"/><polygon fill="rgb(147, 112, 219)" stroke="black" stroke-width="1" onmouseover="setChange(evt)" onmouseout="unhiliteChange(evt)" onclick="changeMe(evt)" points="120,66.9615 105.001,40.9805 89.9995,66.9615" seed="5"/><polygon fill="rgb(224, 176, 255)" stroke="black" stroke-width="1" onmouseover="setChange(evt)" onmouseout="unhiliteChange(evt)" onclick="changeMe(evt)" points="130.982,25.9805 115.982,-3.8147e-006 90.0005,14.9995 105,40.9805" seed="6"/><polygon fill="rgb(224, 176, 255)" stroke="black" stroke-width="1" onmouseover="setChange(evt)" onmouseout="unhiliteChange(evt)" onclick="changeMe(evt)" points="145.98,51.9625 130.982,25.981 105.001,40.9805 120,66.9615" seed="7"/></g>
</svg>
