<?xml version="1.0" encoding="utf-8"?>
<svg xmlns="http://www.w3.org/2000/svg" id="mainSVG" pointer-events="all" width="85.9805" height="148.923" EdgeLen="30" template="u3_25_tu" code="A4_4_1_0" copyright="Francis Hemsher, 2012">
	<polygon id="BorderPoly" fill="none" pointer-events="none" stroke="red" stroke-width="4" transform="" points="29.9991,4.57764e-005 29.9999,29.9987 15,55.9797 -4.95911e-005,81.9607 15,107.942 29.9999,133.922 55.9805,148.923 70.9808,122.941 85.9798,96.9607 85.9807,66.9607 70.9808,40.9797 55.9805,14.999"/>
	<g id="mainPolyG" transform=""><polygon id="mainPoly" fill="rgb(252, 194, 0)" stroke="black" onmouseover="setChange(evt)" onmouseout="unhiliteChange(evt)" onclick="changeMe(evt)" points="44.9999,55.9797 15,55.9797 -4.95911e-005,81.9607 15,107.942 44.9999,107.942 59.9997,81.9607" seed="0"/><polygon fill="rgb(224, 176, 255)" stroke="black" stroke-width="1" onmouseover="setChange(evt)" onmouseout="unhiliteChange(evt)" onclick="changeMe(evt)" points="44.9999,55.9797 29.9999,29.9987 15,55.9797" seed="1"/><polygon fill="rgb(224, 176, 255)" stroke="black" stroke-width="1" onmouseover="setChange(evt)" onmouseout="unhiliteChange(evt)" onclick="changeMe(evt)" points="44.9999,107.942 15,107.942 29.9999,133.922" seed="2"/><polygon fill="rgb(41, 171, 135)" stroke="black" stroke-width="1" onmouseover="setChange(evt)" onmouseout="unhiliteChange(evt)" onclick="changeMe(evt)" points="85.9807,96.9607 59.9997,81.9607 44.9999,107.942 70.9808,122.941" seed="3"/><polygon fill="rgb(41, 171, 135)" stroke="black" stroke-width="1" onmouseover="setChange(evt)" onmouseout="unhiliteChange(evt)" onclick="changeMe(evt)" points="85.9807,66.9607 70.9808,40.9797 45.0005,55.9797 59.9997,81.9607" seed="4"/><polygon fill="rgb(224, 176, 255)" stroke="black" stroke-width="1" onmouseover="setChange(evt)" onmouseout="unhiliteChange(evt)" onclick="changeMe(evt)" points="85.9798,96.9607 85.9807,66.9607 59.9997,81.9607" seed="5"/><polygon fill="rgb(41, 171, 135)" stroke="black" stroke-width="1" onmouseover="setChange(evt)" onmouseout="unhiliteChange(evt)" onclick="changeMe(evt)" points="70.9808,122.942 44.9999,107.942 29.9999,133.922 55.9805,148.923" seed="6"/><polygon fill="rgb(41, 171, 135)" stroke="black" stroke-width="1" onmouseover="setChange(evt)" onmouseout="unhiliteChange(evt)" onclick="changeMe(evt)" points="70.9808,40.9797 55.9805,14.999 29.9999,29.9997 45.0005,55.9797" seed="7"/><polygon fill="rgb(224, 176, 255)" stroke="black" stroke-width="1" onmouseover="setChange(evt)" onmouseout="unhiliteChange(evt)" onclick="changeMe(evt)" points="55.9805,14.999 29.9991,4.57764e-005 29.9999,29.9997" seed="8"/></g>
</svg>
