<?xml version="1.0" encoding="utf-8"?>
<svg xmlns="http://www.w3.org/2000/svg" id="mainSVG" pointer-events="all" width="74.9995" height="85.9805" EdgeLen="30" template="u2_4_tu" code="A4_4_0_0" copyright="Francis Hemsher, 2012">
	<polygon id="BorderPoly" fill="none" pointer-events="none" stroke="red" stroke-width="4" transform="" points="74.9992,-4.95911e-005 44.9995,-4.95911e-005 15.0005,-4.95911e-005 4.57764e-005,25.9805 0.000545502,55.9805 4.57764e-005,85.9807 30,85.9807 59.9995,85.9807 60,55.981 59.9995,25.981"/>
	<g id="mainPolyG" transform=""><polygon id="mainPoly" fill="rgb(252, 194, 0)" stroke="black" stroke-width="1" onmouseover="setChange(evt)" onmouseout="unhiliteChange(evt)" onclick="changeMe(evt)" points="30,55.9805 4.57764e-005,55.9805 4.57764e-005,85.9807 30,85.9807" seed="0"/><polygon fill="rgb(224, 176, 255)" stroke="black" stroke-width="1" onmouseover="setChange(evt)" onmouseout="unhiliteChange(evt)" onclick="changeMe(evt)" points="30,25.981 4.57764e-005,25.9805 0.000545502,55.9805 30,55.9805" seed="1"/><polygon fill="rgb(224, 176, 255)" stroke="black" stroke-width="1" onmouseover="setChange(evt)" onmouseout="unhiliteChange(evt)" onclick="changeMe(evt)" points="59.9995,85.9807 60,55.9805 30,55.981 30,85.9807" seed="2"/><polygon fill="rgb(224, 176, 255)" stroke="black" stroke-width="1" onmouseover="setChange(evt)" onmouseout="unhiliteChange(evt)" onclick="changeMe(evt)" points="59.9995,25.981 30,25.981 30,55.9805 60,55.981" seed="3"/><polygon fill="rgb(41, 171, 135)" stroke="black" stroke-width="1" onmouseover="setChange(evt)" onmouseout="unhiliteChange(evt)" onclick="changeMe(evt)" points="30,25.981 15.0005,-4.95911e-005 4.57764e-005,25.9805" seed="4"/><polygon fill="rgb(41, 171, 135)" stroke="black" stroke-width="1" onmouseover="setChange(evt)" onmouseout="unhiliteChange(evt)" onclick="changeMe(evt)" points="45.0005,0.000549316 15.0005,-4.95911e-005 30,25.981" seed="5"/><polygon fill="rgb(41, 171, 135)" stroke="black" stroke-width="1" onmouseover="setChange(evt)" onmouseout="unhiliteChange(evt)" onclick="changeMe(evt)" points="59.9995,25.981 44.9995,-4.95911e-005 29.9995,25.981" seed="6"/><polygon fill="rgb(41, 171, 135)" stroke="black" stroke-width="1" onmouseover="setChange(evt)" onmouseout="unhiliteChange(evt)" onclick="changeMe(evt)" points="74.9992,-4.95911e-005 44.9995,-4.95911e-005 59.9995,25.981" seed="7"/></g>
</svg>
