<?xml version="1.0" encoding="utf-8"?>
<svg xmlns="http://www.w3.org/2000/svg" id="mainSVG" pointer-events="all" width="220" height="150" EdgeLen="30" template="u3_22_tu" code="A4_8_2_0" copyright="Francis Hemsher, 2012">
	<polygon id="BorderPoly" fill="none" pointer-events="none" stroke="red" stroke-width="4" transform="" points="0.00104523,29.9993 4.57764e-005,59.9992 0.00104523,90.0003 15.0015,115.98 29.9997,141.961 59.9997,141.961 89.9997,141.961 115.98,126.961 141.961,111.963 126.962,85.9813 111.962,60.0003 111.962,30.0003 111.962,4.57764e-005 85.9807,15 59.9997,30.0003 30.0007,30.0003"/><g id="mainPolyG" transform=""><polygon id="mainPoly" fill="rgb(252, 194, 0)" stroke="black" onmouseover="setChange(evt)" onmouseout="unhiliteChange(evt)" onclick="changeMe(evt)" points="59.9997,89.9992 29.9997,89.9992 15,115.98 29.9997,141.961 59.9997,141.961 74.9997,115.98" seed="0"/><polygon fill="rgb(224, 176, 255)" stroke="black" stroke-width="1" onmouseover="setChange(evt)" onmouseout="unhiliteChange(evt)" onclick="changeMe(evt)" points="59.9997,60.0003 29.9997,59.9992 30.0007,89.9992 59.9997,89.9992" seed="1"/><polygon fill="rgb(224, 176, 255)" stroke="black" stroke-width="1" onmouseover="setChange(evt)" onmouseout="unhiliteChange(evt)" onclick="changeMe(evt)" points="60.0007,30.0003 30.0007,30.0003 29.9997,59.9992 59.9997,60.0003" seed="2"/><polygon fill="rgb(224, 176, 255)" stroke="black" stroke-width="1" onmouseover="setChange(evt)" onmouseout="unhiliteChange(evt)" onclick="changeMe(evt)" points="100.981,100.981 85.9807,74.9992 60.0007,90.0003 74.9997,115.98" seed="3"/><polygon fill="rgb(224, 176, 255)" stroke="black" stroke-width="1" onmouseover="setChange(evt)" onmouseout="unhiliteChange(evt)" onclick="changeMe(evt)" points="126.962,85.9813 111.962,60.0003 85.9807,74.9992 100.98,100.98" seed="4"/><polygon fill="rgb(224, 176, 255)" stroke="black" stroke-width="1" onmouseover="setChange(evt)" onmouseout="unhiliteChange(evt)" onclick="changeMe(evt)" points="30.0007,30.0003 0.00104523,29.9993 4.57764e-005,59.9992 29.9997,59.9992" seed="5"/><polygon fill="rgb(224, 176, 255)" stroke="black" stroke-width="1" onmouseover="setChange(evt)" onmouseout="unhiliteChange(evt)" onclick="changeMe(evt)" points="29.9997,60.0003 4.57764e-005,60.0003 0.00104523,90.0003 30.0007,89.9992" seed="6"/><polygon fill="rgb(224, 176, 255)" stroke="black" stroke-width="1" onmouseover="setChange(evt)" onmouseout="unhiliteChange(evt)" onclick="changeMe(evt)" points="115.98,126.961 100.981,100.981 74.9997,115.98 89.9997,141.961" seed="7"/><polygon fill="rgb(224, 176, 255)" stroke="black" stroke-width="1" onmouseover="setChange(evt)" onmouseout="unhiliteChange(evt)" onclick="changeMe(evt)" points="141.961,111.963 126.961,85.9822 100.98,100.98 115.979,126.961" seed="8"/><polygon fill="rgb(147, 112, 219)" stroke="black" stroke-width="1" onmouseover="setChange(evt)" onmouseout="unhiliteChange(evt)" onclick="changeMe(evt)" points="15.0015,115.98 30.0007,89.9992 0.00104523,90.0003" seed="9"/><polygon fill="rgb(147, 112, 219)" stroke="black" stroke-width="1" onmouseover="setChange(evt)" onmouseout="unhiliteChange(evt)" onclick="changeMe(evt)" points="89.9997,141.961 74.9997,115.98 59.9997,141.961" seed="10"/><polygon fill="rgb(147, 112, 219)" stroke="black" stroke-width="1" onmouseover="setChange(evt)" onmouseout="unhiliteChange(evt)" onclick="changeMe(evt)" points="85.9807,75.0003 59.9997,60.0003 59.9997,90.0003" seed="11"/><polygon fill="rgb(41, 171, 135)" stroke="black" stroke-width="1" onmouseover="setChange(evt)" onmouseout="unhiliteChange(evt)" onclick="changeMe(evt)" points="111.962,30.0003 85.9807,15 59.9997,30.0003 59.9997,59.9992 85.9807,75.0003 111.962,60.0003" seed="12"/><polygon fill="rgb(147, 112, 219)" stroke="black" stroke-width="1" onmouseover="setChange(evt)" onmouseout="unhiliteChange(evt)" onclick="changeMe(evt)" points="111.962,30.0003 111.962,4.57764e-005 85.9807,15" seed="13"/></g></svg>
