<?xml version="1.0" encoding="utf-8"?>
<svg xmlns="http://www.w3.org/2000/svg" id="mainSVG" pointer-events="all" width="245.885" height="156.962" EdgeLen="30" template="u6_90_tu" code="A4_9_4_1" copyright="Francis Hemsher, 2012">
	<polygon id="BorderPoly" fill="none" pointer-events="none" stroke="red" stroke-width="4" transform="" points="204.905,0.00100708 174.905,7.62939e-006 148.924,15.0005 122.943,0.00050354 92.9433,7.62939e-006 66.9622,15 40.9823,0.00050354 25.9812,25.981 0.00025177,40.98 0.00025177,70.98 25.9812,85.981 40.9812,111.962 40.9812,141.962 66.9622,156.962 92.9422,141.961 122.942,141.962 148.924,156.962 174.905,141.962 204.903,141.962 204.904,111.962 230.885,96.962 245.885,70.982 245.885,40.982 230.886,15.0005"/><g id="mainPolyG" transform=""><polygon id="mainPoly" fill="rgb(252, 194, 0)" stroke="black" onmouseover="setChange(evt)" onmouseout="unhiliteChange(evt)" onclick="changeMe(evt)" points="122.943,0.00050354 92.9433,7.62939e-006 66.9622,15 51.9622,40.981 51.9622,70.981 66.9622,96.962 92.9433,111.962 122.943,111.962 148.923,96.962 163.923,70.981 163.924,40.981 148.924,15.0005" seed="0"/><polygon fill="rgb(224, 176, 255)" stroke="black" stroke-width="1" onmouseover="setChange(evt)" onmouseout="unhiliteChange(evt)" onclick="changeMe(evt)" points="189.904,25.981 174.905,7.62939e-006 148.924,15.0005 163.924,40.981" seed="1"/><polygon fill="rgb(224, 176, 255)" stroke="black" stroke-width="1" onmouseover="setChange(evt)" onmouseout="unhiliteChange(evt)" onclick="changeMe(evt)" points="189.904,85.981 163.923,70.981 148.923,96.962 174.904,111.962" seed="2"/><polygon fill="rgb(224, 176, 255)" stroke="black" stroke-width="1" onmouseover="setChange(evt)" onmouseout="unhiliteChange(evt)" onclick="changeMe(evt)" points="122.942,111.962 92.9433,111.962 92.9422,141.961 122.942,141.962" seed="3"/><polygon fill="rgb(224, 176, 255)" stroke="black" stroke-width="1" onmouseover="setChange(evt)" onmouseout="unhiliteChange(evt)" onclick="changeMe(evt)" points="66.9622,96.962 51.9622,70.981 25.9812,85.981 40.9812,111.962" seed="4"/><polygon fill="rgb(224, 176, 255)" stroke="black" stroke-width="1" onmouseover="setChange(evt)" onmouseout="unhiliteChange(evt)" onclick="changeMe(evt)" points="66.9622,15 40.9823,0.00050354 25.9812,25.981 51.9633,40.981" seed="5"/><polygon fill="rgb(41, 171, 135)" stroke="black" stroke-width="1" onmouseover="setChange(evt)" onmouseout="unhiliteChange(evt)" onclick="changeMe(evt)" points="215.886,40.981 189.905,25.981 163.924,40.981 163.923,70.981 189.904,85.981 215.885,70.981" seed="6"/><polygon fill="rgb(41, 171, 135)" stroke="black" stroke-width="1" onmouseover="setChange(evt)" onmouseout="unhiliteChange(evt)" onclick="changeMe(evt)" points="174.905,111.962 148.923,96.962 122.943,111.962 122.943,141.962 148.924,156.962 174.905,141.962" seed="7"/><polygon fill="rgb(41, 171, 135)" stroke="black" stroke-width="1" onmouseover="setChange(evt)" onmouseout="unhiliteChange(evt)" onclick="changeMe(evt)" points="92.9433,111.962 66.9622,96.962 40.9812,111.962 40.9812,141.962 66.9622,156.962 92.9422,141.962" seed="8"/><polygon fill="rgb(41, 171, 135)" stroke="black" stroke-width="1" onmouseover="setChange(evt)" onmouseout="unhiliteChange(evt)" onclick="changeMe(evt)" points="51.9622,40.981 25.9823,25.98 0.00025177,40.98 0.00025177,70.98 25.9803,85.98 51.9622,70.981" seed="9"/><polygon fill="rgb(224, 176, 255)" stroke="black" stroke-width="1" onmouseover="setChange(evt)" onmouseout="unhiliteChange(evt)" onclick="changeMe(evt)" points="230.886,15.0005 204.905,0.00100708 189.905,25.981 215.886,40.981" seed="10"/><polygon fill="rgb(224, 176, 255)" stroke="black" stroke-width="1" onmouseover="setChange(evt)" onmouseout="unhiliteChange(evt)" onclick="changeMe(evt)" points="245.885,40.982 215.886,40.981 215.885,70.981 245.885,70.982" seed="11"/><polygon fill="rgb(224, 176, 255)" stroke="black" stroke-width="1" onmouseover="setChange(evt)" onmouseout="unhiliteChange(evt)" onclick="changeMe(evt)" points="230.885,96.962 215.885,70.981 189.905,85.981 204.904,111.962" seed="12"/><polygon fill="rgb(147, 112, 219)" stroke="black" stroke-width="1" onmouseover="setChange(evt)" onmouseout="unhiliteChange(evt)" onclick="changeMe(evt)" points="204.905,0.00100708 174.905,0.00100708 189.905,25.981" seed="13"/><polygon fill="rgb(147, 112, 219)" stroke="black" stroke-width="1" onmouseover="setChange(evt)" onmouseout="unhiliteChange(evt)" onclick="changeMe(evt)" points="245.885,40.982 230.886,15.001 215.885,40.981" seed="14"/><polygon fill="rgb(147, 112, 219)" stroke="black" stroke-width="1" onmouseover="setChange(evt)" onmouseout="unhiliteChange(evt)" onclick="changeMe(evt)" points="245.885,70.981 215.885,70.981 230.885,96.962" seed="15"/><polygon fill="rgb(147, 112, 219)" stroke="black" stroke-width="1" onmouseover="setChange(evt)" onmouseout="unhiliteChange(evt)" onclick="changeMe(evt)" points="204.904,111.962 189.905,85.981 174.904,111.962" seed="16"/><polygon fill="rgb(224, 176, 255)" stroke="black" stroke-width="1" onmouseover="setChange(evt)" onmouseout="unhiliteChange(evt)" onclick="changeMe(evt)" points="204.904,111.962 174.904,111.962 174.903,141.962 204.903,141.962" seed="17"/></g></svg>
