<?xml version="1.0" encoding="utf-8"?>
<svg xmlns="http://www.w3.org/2000/svg" id="mainSVG" pointer-events="all" width="240.002" height="233.829" EdgeLen="30" template="u6_48_tu" code="A6_0_15_0" copyright="Francis Hemsher, 2012">
	<polygon id="BorderPoly" fill="none" pointer-events="none" stroke="red" stroke-width="4" transform="" points="135.001,-0.000495911 105.001,-0.000495911 90.001,25.9805 60,25.9815 45,51.9615 15,51.9615 -7.62939e-006,77.9425 15,103.924 -7.62939e-006,129.905 15,155.885 45.001,155.887 60.001,181.867 45.001,207.849 60.001,233.829 90.001,233.829 105.001,207.848 135.001,207.848 150.001,233.829 180.001,233.829 195.001,207.848 180.001,181.867 195.002,155.885 225.002,155.885 240.002,129.905 225.002,103.923 240.001,77.9425 225.001,51.9615 195.001,51.9615 180.001,25.9815 150.001,25.9805"/>
	<g id="mainPolyG" transform=""><polygon id="mainPoly" fill="rgb(252, 194, 0)" stroke="black" onmouseover="setChange(evt)" onmouseout="unhiliteChange(evt)" onclick="changeMe(evt)" points="135.001,155.885 105.001,155.885 90.001,181.867 105.001,207.848 135.001,207.848 150.001,181.867" seed="0"/><polygon fill="rgb(147, 112, 219)" stroke="black" stroke-width="1" onmouseover="setChange(evt)" onmouseout="unhiliteChange(evt)" onclick="changeMe(evt)" points="135.001,155.885 120.001,129.905 105.001,155.885" seed="1"/><polygon fill="rgb(147, 112, 219)" stroke="black" stroke-width="1" onmouseover="setChange(evt)" onmouseout="unhiliteChange(evt)" onclick="changeMe(evt)" points="120.001,129.905 90.001,129.905 105.001,155.885" seed="2"/><polygon fill="rgb(147, 112, 219)" stroke="black" stroke-width="1" onmouseover="setChange(evt)" onmouseout="unhiliteChange(evt)" onclick="changeMe(evt)" points="120.001,129.905 105.001,103.925 90.001,129.905" seed="3"/><polygon fill="rgb(147, 112, 219)" stroke="black" stroke-width="1" onmouseover="setChange(evt)" onmouseout="unhiliteChange(evt)" onclick="changeMe(evt)" points="135.001,103.925 105.001,103.925 120.001,129.905" seed="4"/><polygon fill="rgb(147, 112, 219)" stroke="black" stroke-width="1" onmouseover="setChange(evt)" onmouseout="unhiliteChange(evt)" onclick="changeMe(evt)" points="150.001,129.905 135.001,103.925 120.001,129.905" seed="5"/><polygon fill="rgb(147, 112, 219)" stroke="black" stroke-width="1" onmouseover="setChange(evt)" onmouseout="unhiliteChange(evt)" onclick="changeMe(evt)" points="150.001,129.905 120.001,129.905 135.001,155.887" seed="6"/><polygon fill="rgb(41, 171, 135)" stroke="black" stroke-width="1" onmouseover="setChange(evt)" onmouseout="unhiliteChange(evt)" onclick="changeMe(evt)" points="135.001,51.9615 105.001,51.9615 90.001,77.9425 105.001,103.925 135.001,103.925 150.001,77.9425" seed="7"/><polygon fill="rgb(41, 171, 135)" stroke="black" stroke-width="1" onmouseover="setChange(evt)" onmouseout="unhiliteChange(evt)" onclick="changeMe(evt)" points="180.001,77.9425 150.001,77.9425 135.001,103.925 150.001,129.905 180.001,129.905 195.001,103.925" seed="8"/><polygon fill="rgb(41, 171, 135)" stroke="black" stroke-width="1" onmouseover="setChange(evt)" onmouseout="unhiliteChange(evt)" onclick="changeMe(evt)" points="180.001,129.906 150.001,129.905 135.001,155.887 150.001,181.867 180.001,181.867 195.001,155.887" seed="9"/><polygon fill="rgb(41, 171, 135)" stroke="black" stroke-width="1" onmouseover="setChange(evt)" onmouseout="unhiliteChange(evt)" onclick="changeMe(evt)" points="90.001,129.905 60.001,129.905 45.001,155.887 60.001,181.867 90.001,181.867 105.001,155.885" seed="10"/><polygon fill="rgb(41, 171, 135)" stroke="black" stroke-width="1" onmouseover="setChange(evt)" onmouseout="unhiliteChange(evt)" onclick="changeMe(evt)" points="90,77.9435 60,77.9435 45.001,103.925 60.001,129.905 90.001,129.905 105.001,103.925" seed="11"/><polygon fill="rgb(41, 171, 135)" stroke="black" stroke-width="1" onmouseover="setChange(evt)" onmouseout="unhiliteChange(evt)" onclick="changeMe(evt)" points="135.001,-0.000495911 105.001,-0.000495911 90.001,25.9805 105.001,51.9615 135.001,51.9615 150.001,25.9805" seed="12"/><polygon fill="rgb(41, 171, 135)" stroke="black" stroke-width="1" onmouseover="setChange(evt)" onmouseout="unhiliteChange(evt)" onclick="changeMe(evt)" points="180.001,25.9815 150.001,25.9815 135.001,51.9615 150.001,77.9425 180.001,77.9425 195.001,51.9615" seed="13"/><polygon fill="rgb(41, 171, 135)" stroke="black" stroke-width="1" onmouseover="setChange(evt)" onmouseout="unhiliteChange(evt)" onclick="changeMe(evt)" points="240.001,77.9425 225.001,51.9615 195.001,51.9615 180.001,77.9425 195.002,103.924 225.002,103.923" seed="14"/><polygon fill="rgb(41, 171, 135)" stroke="black" stroke-width="1" onmouseover="setChange(evt)" onmouseout="unhiliteChange(evt)" onclick="changeMe(evt)" points="240.002,129.905 225.002,103.923 195.002,103.924 180.002,129.905 195.002,155.885 225.002,155.885" seed="15"/><polygon fill="rgb(41, 171, 135)" stroke="black" stroke-width="1" onmouseover="setChange(evt)" onmouseout="unhiliteChange(evt)" onclick="changeMe(evt)" points="105.001,51.9615 90.001,25.9805 60,25.9815 45,51.9615 60,77.9425 90.001,77.9425" seed="16"/><polygon fill="rgb(41, 171, 135)" stroke="black" stroke-width="1" onmouseover="setChange(evt)" onmouseout="unhiliteChange(evt)" onclick="changeMe(evt)" points="45,51.9615 15,51.9615 -7.62939e-006,77.9425 15,103.924 45,103.924 60,77.9425" seed="17"/><polygon fill="rgb(41, 171, 135)" stroke="black" stroke-width="1" onmouseover="setChange(evt)" onmouseout="unhiliteChange(evt)" onclick="changeMe(evt)" points="45,103.924 15,103.924 -7.62939e-006,129.905 15,155.885 45,155.885 60,129.905" seed="18"/><polygon fill="rgb(41, 171, 135)" stroke="black" stroke-width="1" onmouseover="setChange(evt)" onmouseout="unhiliteChange(evt)" onclick="changeMe(evt)" points="90.001,181.867 60.001,181.867 45.001,207.849 60.001,233.829 90.001,233.829 105.001,207.849" seed="19"/><polygon fill="rgb(41, 171, 135)" stroke="black" stroke-width="1" onmouseover="setChange(evt)" onmouseout="unhiliteChange(evt)" onclick="changeMe(evt)" points="180.001,181.867 150.001,181.867 135.001,207.848 150.001,233.829 180.001,233.829 195.001,207.848" seed="20"/></g>
</svg>
