<?xml version="1.0" encoding="utf-8"?>
<svg xmlns="http://www.w3.org/2000/svg" id="mainSVG" pointer-events="all" width="105.001" height="155.885" EdgeLen="30" template="u4_4_tu" code="A6_0_4_0" copyright="Francis Hemsher, 2012">
	<polygon id="BorderPoly" fill="none" pointer-events="none" stroke="red" stroke-width="4" transform="" points="15.0005,-4.57764e-005 0.00050354,25.9813 15.0005,51.9613 3.8147e-006,77.9422 15.0005,103.923 0.00050354,129.904 15.0005,155.885 45.0005,155.885 60.0005,129.904 90.0005,129.904 105.001,103.924 90.0005,77.9433 105.001,51.9622 90.0005,25.9813 60.0005,25.9813 45.0005,0.000549316"/>
	<g id="mainPolyG" transform=""><polygon id="mainPoly" fill="rgb(252, 194, 0)" stroke="black" onmouseover="setChange(evt)" onmouseout="unhiliteChange(evt)" onclick="changeMe(evt)" points="45.0005,103.923 15.0005,103.923 0.00050354,129.904 15.0005,155.885 45.0005,155.885 60.0005,129.904" seed="0"/><polygon fill="rgb(41, 171, 135)" stroke="black" stroke-width="1" onmouseover="setChange(evt)" onmouseout="unhiliteChange(evt)" onclick="changeMe(evt)" points="90.0005,77.9433 60.0005,77.9433 45.0005,103.923 60.0005,129.904 90.0005,129.904 105.001,103.924" seed="1"/><polygon fill="rgb(41, 171, 135)" stroke="black" stroke-width="1" onmouseover="setChange(evt)" onmouseout="unhiliteChange(evt)" onclick="changeMe(evt)" points="90.0005,25.9813 60.0005,25.9813 45.0005,51.9622 60.0005,77.9433 90.0005,77.9433 105.001,51.9622" seed="2"/><polygon fill="rgb(41, 171, 135)" stroke="black" stroke-width="1" onmouseover="setChange(evt)" onmouseout="unhiliteChange(evt)" onclick="changeMe(evt)" points="45.0005,0.000549316 15.0005,-4.57764e-005 0.00050354,25.9813 15.0005,51.9613 45.0005,51.9622 60.0005,25.9813" seed="3"/><polygon fill="rgb(147, 112, 219)" stroke="black" stroke-width="1" onmouseover="setChange(evt)" onmouseout="unhiliteChange(evt)" onclick="changeMe(evt)" points="45.0005,51.9622 15.0005,51.9613 30,77.9422" seed="4"/><polygon fill="rgb(147, 112, 219)" stroke="black" stroke-width="1" onmouseover="setChange(evt)" onmouseout="unhiliteChange(evt)" onclick="changeMe(evt)" points="30,77.9422 15.0005,51.9613 3.8147e-006,77.9422" seed="5"/><polygon fill="rgb(147, 112, 219)" stroke="black" stroke-width="1" onmouseover="setChange(evt)" onmouseout="unhiliteChange(evt)" onclick="changeMe(evt)" points="30,77.9422 3.8147e-006,77.9422 14.9995,103.923" seed="6"/><polygon fill="rgb(147, 112, 219)" stroke="black" stroke-width="1" onmouseover="setChange(evt)" onmouseout="unhiliteChange(evt)" onclick="changeMe(evt)" points="44.9995,103.924 29.9995,77.9433 14.9995,103.923" seed="7"/><polygon fill="rgb(147, 112, 219)" stroke="black" stroke-width="1" onmouseover="setChange(evt)" onmouseout="unhiliteChange(evt)" onclick="changeMe(evt)" points="59.9995,77.9433 29.9995,77.9433 44.9995,103.924" seed="8"/><polygon fill="rgb(147, 112, 219)" stroke="black" stroke-width="1" onmouseover="setChange(evt)" onmouseout="unhiliteChange(evt)" onclick="changeMe(evt)" points="59.9995,77.9433 44.9995,51.9622 29.9995,77.9433" seed="9"/></g>
</svg>
