<?xml version="1.0" encoding="utf-8"?>
<svg xmlns="http://www.w3.org/2000/svg" id="mainSVG" pointer-events="all" width="286.867" height="324.91" EdgeLen="30" template="u5_40_tu" code="A6_18_9_3" copyright="Francis Hemsher, 2012">
	<polygon id="BorderPoly" fill="none" pointer-events="none" stroke="red" stroke-width="4" transform="" points="92.9472,0.000991821 66.9662,15.001 40.9862,0 25.9852,25.98 0.00318909,40.978 0.00119019,70.978 25.9822,85.98 40.9802,111.961 40.9792,141.962 25.9812,167.943 0.000198364,182.944 0.000198364,212.945 25.9802,227.943 40.9792,253.924 40.9792,283.925 66.9592,298.925 92.9402,283.925 122.94,283.925 148.923,298.929 174.903,283.929 189.903,309.91 215.884,324.91 245.884,324.91 271.864,309.91 286.864,283.929 286.865,253.929 271.865,227.949 245.884,212.949 245.884,182.949 271.865,167.95 286.866,141.969 286.867,111.969 271.868,85.989 245.887,70.988 245.888,40.988 215.888,40.986 189.908,25.986 174.909,0.00500488 148.927,15.003 122.946,0.00299072"/>
	<g id="mainPolyG" transform=""><polygon id="mainPoly" fill="rgb(252, 194, 0)" stroke="black" onmouseover="setChange(evt)" onmouseout="unhiliteChange(evt)" onclick="changeMe(evt)" points="245.884,212.949 215.884,212.948 189.903,227.948 174.903,253.929 174.903,283.929 189.903,309.91 215.884,324.91 245.884,324.91 271.864,309.91 286.864,283.929 286.865,253.929 271.865,227.949" seed="0"/><polygon fill="rgb(224, 176, 255)" stroke="black" stroke-width="1" onmouseover="setChange(evt)" onmouseout="unhiliteChange(evt)" onclick="changeMe(evt)" points="245.884,182.949 215.884,182.948 215.884,212.948 245.884,212.949" seed="1"/><polygon fill="rgb(64, 130, 109)" stroke="black" stroke-width="1" onmouseover="setChange(evt)" onmouseout="unhiliteChange(evt)" onclick="changeMe(evt)" points="245.887,70.988 215.887,70.986 189.906,85.985 174.906,111.966 174.905,141.967 189.904,167.947 215.884,182.948 245.884,182.949 271.865,167.95 286.866,141.969 286.867,111.969 271.868,85.989" seed="2"/><polygon fill="rgb(224, 176, 255)" stroke="black" stroke-width="1" onmouseover="setChange(evt)" onmouseout="unhiliteChange(evt)" onclick="changeMe(evt)" points="245.888,40.988 215.888,40.986 215.887,70.986 245.887,70.988" seed="3"/><polygon fill="rgb(41, 171, 135)" stroke="black" stroke-width="1" onmouseover="setChange(evt)" onmouseout="unhiliteChange(evt)" onclick="changeMe(evt)" points="215.888,40.986 189.908,25.986 163.926,40.985 163.925,70.984 189.906,85.985 215.887,70.986" seed="4"/><polygon fill="rgb(224, 176, 255)" stroke="black" stroke-width="1" onmouseover="setChange(evt)" onmouseout="unhiliteChange(evt)" onclick="changeMe(evt)" points="189.908,25.986 174.909,0.00500488 148.927,15.003 163.927,40.984" seed="5"/><polygon fill="rgb(224, 176, 255)" stroke="black" stroke-width="1" onmouseover="setChange(evt)" onmouseout="unhiliteChange(evt)" onclick="changeMe(evt)" points="189.906,85.985 163.926,70.985 148.925,96.966 174.906,111.966" seed="6"/><polygon fill="rgb(64, 130, 109)" stroke="black" stroke-width="1" onmouseover="setChange(evt)" onmouseout="unhiliteChange(evt)" onclick="changeMe(evt)" points="122.946,0.00299072 92.9472,0.000991821 66.9662,15.001 51.9652,40.981 51.9632,70.981 66.9632,96.962 92.9432,111.963 122.943,111.964 148.924,96.965 163.925,70.984 163.926,40.985 148.927,15.003" seed="7"/><polygon fill="rgb(224, 176, 255)" stroke="black" stroke-width="1" onmouseover="setChange(evt)" onmouseout="unhiliteChange(evt)" onclick="changeMe(evt)" points="66.9662,15.001 40.9862,0 25.9852,25.98 51.9652,40.981" seed="8"/><polygon fill="rgb(41, 171, 135)" stroke="black" stroke-width="1" onmouseover="setChange(evt)" onmouseout="unhiliteChange(evt)" onclick="changeMe(evt)" points="51.9652,40.981 25.9852,25.979 0.00318909,40.978 0.00119019,70.978 25.9822,85.98 51.9632,70.981" seed="9"/><polygon fill="rgb(224, 176, 255)" stroke="black" stroke-width="1" onmouseover="setChange(evt)" onmouseout="unhiliteChange(evt)" onclick="changeMe(evt)" points="66.9622,96.963 51.9632,70.981 25.9822,85.98 40.9802,111.961" seed="10"/><polygon fill="rgb(224, 176, 255)" stroke="black" stroke-width="1" onmouseover="setChange(evt)" onmouseout="unhiliteChange(evt)" onclick="changeMe(evt)" points="122.943,111.964 92.9432,111.964 92.9432,141.963 122.942,141.964" seed="11"/><polygon fill="rgb(41, 171, 135)" stroke="black" stroke-width="1" onmouseover="setChange(evt)" onmouseout="unhiliteChange(evt)" onclick="changeMe(evt)" points="92.9422,111.964 66.9622,96.963 40.9802,111.961 40.9792,141.962 66.9592,156.962 92.9402,141.964" seed="12"/><polygon fill="rgb(41, 171, 135)" stroke="black" stroke-width="1" onmouseover="setChange(evt)" onmouseout="unhiliteChange(evt)" onclick="changeMe(evt)" points="174.905,111.966 148.924,96.965 122.943,111.964 122.942,141.964 148.922,156.965 174.904,141.966" seed="13"/><polygon fill="rgb(224, 176, 255)" stroke="black" stroke-width="1" onmouseover="setChange(evt)" onmouseout="unhiliteChange(evt)" onclick="changeMe(evt)" points="122.942,141.964 92.9432,141.963 92.9422,171.963 122.942,171.964" seed="14"/><polygon fill="rgb(41, 171, 135)" stroke="black" stroke-width="1" onmouseover="setChange(evt)" onmouseout="unhiliteChange(evt)" onclick="changeMe(evt)" points="215.884,182.948 189.904,167.947 163.923,182.947 163.922,212.947 189.903,227.947 215.884,212.948" seed="15"/><polygon fill="rgb(224, 176, 255)" stroke="black" stroke-width="1" onmouseover="setChange(evt)" onmouseout="unhiliteChange(evt)" onclick="changeMe(evt)" points="189.903,227.948 163.923,212.949 148.922,238.929 174.904,253.929" seed="16"/><polygon fill="rgb(41, 171, 135)" stroke="black" stroke-width="1" onmouseover="setChange(evt)" onmouseout="unhiliteChange(evt)" onclick="changeMe(evt)" points="174.904,253.929 148.922,238.93 122.942,253.93 122.942,283.93 148.923,298.929 174.904,283.929" seed="17"/><polygon fill="rgb(224, 176, 255)" stroke="black" stroke-width="1" onmouseover="setChange(evt)" onmouseout="unhiliteChange(evt)" onclick="changeMe(evt)" points="163.923,212.949 137.942,197.948 122.942,223.928 148.922,238.929" seed="18"/><polygon fill="rgb(224, 176, 255)" stroke="black" stroke-width="1" onmouseover="setChange(evt)" onmouseout="unhiliteChange(evt)" onclick="changeMe(evt)" points="189.904,167.947 174.905,141.967 148.924,156.966 163.923,182.947" seed="19"/><polygon fill="rgb(224, 176, 255)" stroke="black" stroke-width="1" onmouseover="setChange(evt)" onmouseout="unhiliteChange(evt)" onclick="changeMe(evt)" points="163.923,182.947 148.924,156.966 122.942,171.964 137.942,197.946" seed="20"/><polygon fill="rgb(41, 171, 135)" stroke="black" stroke-width="1" onmouseover="setChange(evt)" onmouseout="unhiliteChange(evt)" onclick="changeMe(evt)" points="122.942,171.964 92.9422,171.963 77.9422,197.944 92.9412,223.925 122.941,223.925 137.942,197.945" seed="21"/><polygon fill="rgb(147, 112, 219)" stroke="black" stroke-width="1" onmouseover="setChange(evt)" onmouseout="unhiliteChange(evt)" onclick="changeMe(evt)" points="148.922,156.965 122.942,141.964 122.941,171.964" seed="22"/><polygon fill="rgb(147, 112, 219)" stroke="black" stroke-width="1" onmouseover="setChange(evt)" onmouseout="unhiliteChange(evt)" onclick="changeMe(evt)" points="163.922,212.947 163.923,182.947 137.941,197.946" seed="23"/><polygon fill="rgb(147, 112, 219)" stroke="black" stroke-width="1" onmouseover="setChange(evt)" onmouseout="unhiliteChange(evt)" onclick="changeMe(evt)" points="148.922,238.93 122.941,223.93 122.942,253.93" seed="24"/><polygon fill="rgb(224, 176, 255)" stroke="black" stroke-width="1" onmouseover="setChange(evt)" onmouseout="unhiliteChange(evt)" onclick="changeMe(evt)" points="122.941,223.925 92.9412,223.925 92.9412,253.925 122.941,253.925" seed="25"/><polygon fill="rgb(224, 176, 255)" stroke="black" stroke-width="1" onmouseover="setChange(evt)" onmouseout="unhiliteChange(evt)" onclick="changeMe(evt)" points="122.941,253.925 92.9412,253.925 92.9402,283.925 122.94,283.925" seed="26"/><polygon fill="rgb(224, 176, 255)" stroke="black" stroke-width="1" onmouseover="setChange(evt)" onmouseout="unhiliteChange(evt)" onclick="changeMe(evt)" points="92.9412,223.925 77.9422,197.944 51.9612,212.943 66.9602,238.925" seed="27"/><polygon fill="rgb(224, 176, 255)" stroke="black" stroke-width="1" onmouseover="setChange(evt)" onmouseout="unhiliteChange(evt)" onclick="changeMe(evt)" points="92.9422,171.963 66.9622,156.963 51.9612,182.943 77.9422,197.943" seed="28"/><polygon fill="rgb(147, 112, 219)" stroke="black" stroke-width="1" onmouseover="setChange(evt)" onmouseout="unhiliteChange(evt)" onclick="changeMe(evt)" points="92.9432,171.963 92.9432,141.963 66.9622,156.963" seed="29"/><polygon fill="rgb(147, 112, 219)" stroke="black" stroke-width="1" onmouseover="setChange(evt)" onmouseout="unhiliteChange(evt)" onclick="changeMe(evt)" points="77.9422,197.943 51.9612,182.943 51.9612,212.943" seed="30"/><polygon fill="rgb(147, 112, 219)" stroke="black" stroke-width="1" onmouseover="setChange(evt)" onmouseout="unhiliteChange(evt)" onclick="changeMe(evt)" points="92.9412,253.925 92.9412,223.925 66.9602,238.925" seed="31"/><polygon fill="rgb(224, 176, 255)" stroke="black" stroke-width="1" onmouseover="setChange(evt)" onmouseout="unhiliteChange(evt)" onclick="changeMe(evt)" points="66.9622,156.964 40.9812,141.962 25.9812,167.943 51.9612,182.943" seed="32"/><polygon fill="rgb(224, 176, 255)" stroke="black" stroke-width="1" onmouseover="setChange(evt)" onmouseout="unhiliteChange(evt)" onclick="changeMe(evt)" points="66.9602,238.925 51.9612,212.943 25.9802,227.943 40.9792,253.924" seed="33"/><polygon fill="rgb(41, 171, 135)" stroke="black" stroke-width="1" onmouseover="setChange(evt)" onmouseout="unhiliteChange(evt)" onclick="changeMe(evt)" points="51.9612,182.943 25.9812,167.943 0.000198364,182.944 0.000198364,212.945 25.9812,227.944 51.9612,212.943" seed="34"/><polygon fill="rgb(41, 171, 135)" stroke="black" stroke-width="1" onmouseover="setChange(evt)" onmouseout="unhiliteChange(evt)" onclick="changeMe(evt)" points="92.9412,253.925 66.9602,238.925 40.9792,253.924 40.9792,283.925 66.9592,298.925 92.9402,283.925" seed="35"/></g>
</svg>
