<?xml version="1.0" encoding="utf-8"?>
<svg xmlns="http://www.w3.org/2000/svg" id="mainSVG" pointer-events="all" width="167.941" height="249.904" EdgeLen="30" template="u5_44_tu" code="A6_1_0_2" copyright="Francis Hemsher, 2012">
	<polygon id="BorderPoly" fill="none" pointer-events="none" stroke="red" stroke-width="4" transform="" points="55.9805,25.98 29.9995,40.98 0,40.98 15,66.961 14.9995,96.961 29.9985,122.941 55.9805,137.942 29.9995,152.942 14.9995,178.923 14.999,208.923 29.9985,234.903 55.9805,249.903 85.9805,249.904 111.961,234.904 126.961,208.923 126.959,178.923 141.961,152.943 167.94,137.943 141.961,122.943 126.962,96.963 126.962,66.962 111.962,40.981 85.9815,25.981 70.9815,0"/>
	<g id="mainPolyG" transform=""><polygon id="mainPoly" fill="rgb(252, 194, 0)" stroke="black" onmouseover="setChange(evt)" onmouseout="unhiliteChange(evt)" onclick="changeMe(evt)" points="85.9805,137.943 55.9805,137.942 29.9995,152.942 14.9995,178.923 14.999,208.923 29.9985,234.903 55.9805,249.903 85.9805,249.904 111.961,234.904 126.961,208.923 126.961,178.923 111.961,152.943" seed="0"/><polygon fill="rgb(0, 128, 128)" stroke="black" stroke-width="1" onmouseover="setChange(evt)" onmouseout="unhiliteChange(evt)" onclick="changeMe(evt)" points="85.9815,25.981 55.9805,25.98 29.9995,40.98 15,66.961 14.9995,96.961 29.9985,122.941 55.9805,137.942 85.9805,137.943 111.961,122.943 126.962,96.963 126.962,66.962 111.962,40.981" seed="1"/><polygon fill="rgb(147, 112, 219)" stroke="black" stroke-width="1" onmouseover="setChange(evt)" onmouseout="unhiliteChange(evt)" onclick="changeMe(evt)" points="85.9815,25.981 70.9815,0 55.9805,25.98" seed="2"/><polygon fill="rgb(147, 112, 219)" stroke="black" stroke-width="1" onmouseover="setChange(evt)" onmouseout="unhiliteChange(evt)" onclick="changeMe(evt)" points="15,66.961 29.9995,40.98 0,40.98" seed="3"/><polygon fill="rgb(147, 112, 219)" stroke="black" stroke-width="1" onmouseover="setChange(evt)" onmouseout="unhiliteChange(evt)" onclick="changeMe(evt)" points="111.961,152.943 111.961,122.943 85.9795,137.943" seed="4"/><polygon fill="rgb(224, 176, 255)" stroke="black" stroke-width="1" onmouseover="setChange(evt)" onmouseout="unhiliteChange(evt)" onclick="changeMe(evt)" points="141.961,152.943 141.961,122.943 111.961,122.944 111.961,152.943" seed="5"/><polygon fill="rgb(147, 112, 219)" stroke="black" stroke-width="1" onmouseover="setChange(evt)" onmouseout="unhiliteChange(evt)" onclick="changeMe(evt)" points="141.961,122.943 126.959,96.963 111.961,122.944" seed="6"/><polygon fill="rgb(147, 112, 219)" stroke="black" stroke-width="1" onmouseover="setChange(evt)" onmouseout="unhiliteChange(evt)" onclick="changeMe(evt)" points="141.961,152.943 111.959,152.943 126.959,178.923" seed="7"/><polygon fill="rgb(147, 112, 219)" stroke="black" stroke-width="1" onmouseover="setChange(evt)" onmouseout="unhiliteChange(evt)" onclick="changeMe(evt)" points="167.94,137.943 141.961,122.943 141.961,152.943" seed="8"/></g>
</svg>
