<?xml version="1.0" encoding="utf-8"?>
<svg xmlns="http://www.w3.org/2000/svg" id="mainSVG" pointer-events="all" width="130.981" height="118.923" EdgeLen="30" template="u3_27_tu" code="A6_3_2_0" copyright="Francis Hemsher, 2012">
	<polygon id="BorderPoly" fill="none" pointer-events="none" stroke="red" stroke-width="4" transform="" points="40.9812,0 25.9815,25.9805 0.000450134,40.981 15.001,66.961 0,92.941 14.9994,118.923 45.0002,118.923 70.9812,103.923 85.9812,77.943 115.981,77.943 130.981,51.961 115.981,25.9805 85.9812,25.9805 70.9812,0"/>
	<g id="mainPolyG" transform=""><polygon id="mainPoly" fill="rgb(252, 194, 0)" stroke="black" onmouseover="setChange(evt)" onmouseout="unhiliteChange(evt)" onclick="changeMe(evt)" points="115.981,25.9805 85.9812,25.9805 70.9812,51.961 85.9812,77.943 115.981,77.943 130.981,51.961" seed="0"/><polygon fill="rgb(41, 171, 135)" stroke="black" stroke-width="1" onmouseover="setChange(evt)" onmouseout="unhiliteChange(evt)" onclick="changeMe(evt)" points="70.9812,0 40.9812,0 25.9815,25.9805 40.9812,51.961 70.9812,51.961 85.9812,25.9805" seed="1"/><polygon fill="rgb(147, 112, 219)" stroke="black" stroke-width="1" onmouseover="setChange(evt)" onmouseout="unhiliteChange(evt)" onclick="changeMe(evt)" points="70.9812,51.961 40.9812,51.961 55.9812,77.942" seed="2"/><polygon fill="rgb(147, 112, 219)" stroke="black" stroke-width="1" onmouseover="setChange(evt)" onmouseout="unhiliteChange(evt)" onclick="changeMe(evt)" points="85.9812,77.943 70.9812,51.961 55.9812,77.942" seed="3"/><polygon fill="rgb(147, 112, 219)" stroke="black" stroke-width="1" onmouseover="setChange(evt)" onmouseout="unhiliteChange(evt)" onclick="changeMe(evt)" points="85.9812,77.943 55.9812,77.942 70.9812,103.923" seed="4"/><polygon fill="rgb(224, 176, 255)" stroke="black" stroke-width="1" onmouseover="setChange(evt)" onmouseout="unhiliteChange(evt)" onclick="changeMe(evt)" points="55.9812,77.942 40.9812,51.961 15.0005,66.961 30,92.941" seed="5"/><polygon fill="rgb(224, 176, 255)" stroke="black" stroke-width="1" onmouseover="setChange(evt)" onmouseout="unhiliteChange(evt)" onclick="changeMe(evt)" points="70.9812,103.923 55.9812,77.942 30.001,92.941 45.0002,118.923" seed="6"/><polygon fill="rgb(224, 176, 255)" stroke="black" stroke-width="1" onmouseover="setChange(evt)" onmouseout="unhiliteChange(evt)" onclick="changeMe(evt)" points="40.9812,51.961 25.9815,25.9805 0.000404358,40.981 15.001,66.961" seed="7"/><polygon fill="rgb(147, 112, 219)" stroke="black" stroke-width="1" onmouseover="setChange(evt)" onmouseout="unhiliteChange(evt)" onclick="changeMe(evt)" points="30,92.941 15.0005,66.961 3.27418e-011,92.941" seed="8"/><polygon fill="rgb(147, 112, 219)" stroke="black" stroke-width="1" onmouseover="setChange(evt)" onmouseout="unhiliteChange(evt)" onclick="changeMe(evt)" points="30,92.941 3.27418e-011,92.941 14.9994,118.923" seed="9"/><polygon fill="rgb(147, 112, 219)" stroke="black" stroke-width="1" onmouseover="setChange(evt)" onmouseout="unhiliteChange(evt)" onclick="changeMe(evt)" points="45.0002,118.923 30,92.941 14.9994,118.922" seed="10"/></g>
</svg>
