<svg xmlns="http://www.w3.org/2000/svg" id="mainSVG" pointer-events="all" width="165.001" height="207.846" EdgeLen="30" template="u3_1_tu" code="A8_0_7_0" copyright="Francis Hemsher, 2012">
	<polygon id="BorderPoly" fill="none" pointer-events="none" stroke="red" stroke-width="4" transform="" points="89.9998,-0.00025177 74.9998,25.9808 59.9998,51.9617 29.9998,51.9617 15,77.9427 -4.57764e-005,103.924 14.9995,129.904 29.9998,155.885 44.9998,181.866 74.9998,181.866 89.9998,207.847 105,181.866 135,181.866 150,155.885 165,129.904 150,103.924 150.001,103.924 165.001,77.9427 150.001,51.9617 120,51.9617 105,25.9808"/>
	<g id="mainPolyG" transform=""><polygon id="mainPoly" fill="rgb(252, 194, 0)" stroke="none" stroke-width="1" onmouseover="setChange(evt)" onmouseout="unhiliteChange(evt)" onclick="changeMe(evt)" points="120,103.924 105,77.9427 74.9998,77.9427 59.9998,103.924 74.9998,129.905 105,129.905" seed="0"/><polygon fill="rgb(41, 171, 135)" stroke="black" stroke-width="1" onmouseover="setChange(evt)" onmouseout="unhiliteChange(evt)" onclick="changeMe(evt)" points="120,51.9617 105,77.9427 74.9998,77.9427 59.9998,51.9617 74.9998,25.9808 105,25.9808" seed="1"/><polygon fill="rgb(41, 171, 135)" stroke="black" stroke-width="1" onmouseover="setChange(evt)" onmouseout="unhiliteChange(evt)" onclick="changeMe(evt)" points="150.001,103.924 120,103.924 105,77.9427 120,51.9617 150.001,51.9617 165.001,77.9427" seed="2"/><polygon fill="rgb(41, 171, 135)" stroke="black" stroke-width="1" onmouseover="setChange(evt)" onmouseout="unhiliteChange(evt)" onclick="changeMe(evt)" points="120,155.885 105,129.905 120,103.924 150,103.924 165,129.904 150,155.885" seed="3"/><polygon fill="rgb(41, 171, 135)" stroke="black" stroke-width="1" onmouseover="setChange(evt)" onmouseout="unhiliteChange(evt)" onclick="changeMe(evt)" points="59.9998,155.886 74.9998,129.905 105,129.905 120,155.886 105,181.866 74.9998,181.866" seed="4"/><polygon fill="rgb(41, 171, 135)" stroke="black" stroke-width="1" onmouseover="setChange(evt)" onmouseout="unhiliteChange(evt)" onclick="changeMe(evt)" points="29.9998,103.924 59.9998,103.924 74.9998,129.905 59.9998,155.885 29.9998,155.885 14.9995,129.904" seed="5"/><polygon fill="rgb(41, 171, 135)" stroke="black" stroke-width="1" onmouseover="setChange(evt)" onmouseout="unhiliteChange(evt)" onclick="changeMe(evt)" points="59.9998,51.9617 74.9998,77.9427 59.9998,103.924 29.9998,103.923 15,77.9427 29.9998,51.9617" seed="6"/><polygon fill="rgb(224, 176, 255)" stroke="black" stroke-width="1" onmouseover="setChange(evt)" onmouseout="unhiliteChange(evt)" onclick="changeMe(evt)" points="74.9998,25.9808 105,25.9808 89.9998,-0.00025177" seed="7"/><polygon fill="rgb(224, 176, 255)" stroke="black" stroke-width="1" onmouseover="setChange(evt)" onmouseout="unhiliteChange(evt)" onclick="changeMe(evt)" points="105,181.866 74.9998,181.866 89.9998,207.847" seed="8"/><polygon fill="rgb(224, 176, 255)" stroke="black" stroke-width="1" onmouseover="setChange(evt)" onmouseout="unhiliteChange(evt)" onclick="changeMe(evt)" points="120,155.886 105,181.866 135,181.866" seed="9"/><polygon fill="rgb(224, 176, 255)" stroke="black" stroke-width="1" onmouseover="setChange(evt)" onmouseout="unhiliteChange(evt)" onclick="changeMe(evt)" points="150,155.885 120,155.885 135,181.866" seed="10"/><polygon fill="rgb(224, 176, 255)" stroke="black" stroke-width="1" onmouseover="setChange(evt)" onmouseout="unhiliteChange(evt)" onclick="changeMe(evt)" points="29.9998,103.923 15,77.9427 -4.57764e-005,103.924" seed="11"/><polygon fill="rgb(224, 176, 255)" stroke="black" stroke-width="1" onmouseover="setChange(evt)" onmouseout="unhiliteChange(evt)" onclick="changeMe(evt)" points="14.9995,129.904 29.9998,103.924 -0.000541687,103.924" seed="12"/><polygon fill="rgb(224, 176, 255)" stroke="black" stroke-width="1" onmouseover="setChange(evt)" onmouseout="unhiliteChange(evt)" onclick="changeMe(evt)" points="59.9998,155.885 29.9998,155.885 44.9998,181.866" seed="13"/><polygon fill="rgb(224, 176, 255)" stroke="black" stroke-width="1" onmouseover="setChange(evt)" onmouseout="unhiliteChange(evt)" onclick="changeMe(evt)" points="74.9998,181.866 59.9998,155.886 44.9998,181.867" seed="14"/></g>
</svg>
