<?xml version="1.0" encoding="utf-8"?>
<svg xmlns="http://www.w3.org/2000/svg" id="mainSVG" pointer-events="all" width="182.941" height="208.923" EdgeLen="30" template="u4_80_tu" code="A8_14_4_0" copyright="Francis Hemsher, 2012">
	<polygon id="BorderPoly" fill="none" pointer-events="none" stroke="red" stroke-width="4" transform="" points="55.9808,-0.00025177 29.9998,15.0007 14.9998,40.9808 -4.57764e-005,66.9618 14.9998,92.9428 15.0008,122.943 15.0008,152.943 44.9998,152.942 74.9998,152.943 90.0007,178.923 115.983,193.924 141.964,208.923 167.944,193.922 167.944,163.922 167.942,133.923 152.943,107.942 167.942,81.9607 182.941,55.9788 156.96,40.9797 130.982,25.9817 115.982,0.000747681 85.9818,-0.00025177"/><g id="mainPolyG" transform=""><polygon id="mainPoly" fill="rgb(252, 194, 0)" stroke="black" onmouseover="setChange(evt)" onmouseout="unhiliteChange(evt)" onclick="changeMe(evt)" points="44.9998,40.9808 14.9998,40.9808 -4.57764e-005,66.9618 14.9998,92.9428 44.9998,92.9428 59.9998,66.9618" seed="0"/><polygon fill="rgb(224, 176, 255)" stroke="black" stroke-width="1" onmouseover="setChange(evt)" onmouseout="unhiliteChange(evt)" onclick="changeMe(evt)" points="85.9808,51.9618 70.9808,25.9808 45.0007,40.9808 59.9998,66.9618" seed="1"/><polygon fill="rgb(41, 171, 135)" stroke="black" stroke-width="1" onmouseover="setChange(evt)" onmouseout="unhiliteChange(evt)" onclick="changeMe(evt)" points="115.982,0.000747681 85.9818,-0.00025177 70.9808,25.9808 85.9808,51.9618 115.981,51.9627 130.982,25.9817" seed="2"/><polygon fill="rgb(224, 176, 255)" stroke="black" stroke-width="1" onmouseover="setChange(evt)" onmouseout="unhiliteChange(evt)" onclick="changeMe(evt)" points="70.9808,25.9808 55.9808,-0.00025177 29.9998,15.0007 45.0007,40.9808" seed="3"/><polygon fill="rgb(224, 176, 255)" stroke="black" stroke-width="1" onmouseover="setChange(evt)" onmouseout="unhiliteChange(evt)" onclick="changeMe(evt)" points="100.98,77.9428 85.9808,51.9618 59.9998,66.9618 74.9998,92.9428" seed="4"/><polygon fill="rgb(41, 171, 135)" stroke="black" stroke-width="1" onmouseover="setChange(evt)" onmouseout="unhiliteChange(evt)" onclick="changeMe(evt)" points="126.962,92.9428 100.98,77.9428 74.9998,92.9428 74.9998,122.943 100.981,137.943 126.962,122.942" seed="5"/><polygon fill="rgb(224, 176, 255)" stroke="black" stroke-width="1" onmouseover="setChange(evt)" onmouseout="unhiliteChange(evt)" onclick="changeMe(evt)" points="141.962,148.923 126.962,122.942 100.981,137.942 115.982,163.923" seed="6"/><polygon fill="rgb(41, 171, 135)" stroke="black" stroke-width="1" onmouseover="setChange(evt)" onmouseout="unhiliteChange(evt)" onclick="changeMe(evt)" points="167.944,163.922 141.962,148.922 115.982,163.923 115.983,193.924 141.964,208.923 167.944,193.922" seed="7"/><polygon fill="rgb(224, 176, 255)" stroke="black" stroke-width="1" onmouseover="setChange(evt)" onmouseout="unhiliteChange(evt)" onclick="changeMe(evt)" points="167.942,133.923 152.943,107.942 126.962,122.942 141.962,148.923" seed="8"/><polygon fill="rgb(224, 176, 255)" stroke="black" stroke-width="1" onmouseover="setChange(evt)" onmouseout="unhiliteChange(evt)" onclick="changeMe(evt)" points="115.981,163.922 100.981,137.942 75.0007,152.943 90.0007,178.923" seed="9"/><polygon fill="rgb(224, 176, 255)" stroke="black" stroke-width="1" onmouseover="setChange(evt)" onmouseout="unhiliteChange(evt)" onclick="changeMe(evt)" points="74.9998,92.9428 44.9998,92.9428 44.9998,122.943 74.9998,122.943" seed="10"/><polygon fill="rgb(224, 176, 255)" stroke="black" stroke-width="1" onmouseover="setChange(evt)" onmouseout="unhiliteChange(evt)" onclick="changeMe(evt)" points="44.9998,122.942 44.9998,92.9428 14.9998,92.9428 14.9998,122.943" seed="11"/><polygon fill="rgb(224, 176, 255)" stroke="black" stroke-width="1" onmouseover="setChange(evt)" onmouseout="unhiliteChange(evt)" onclick="changeMe(evt)" points="45.0007,152.942 44.9998,122.942 15.0008,122.943 15.0008,152.943" seed="12"/><polygon fill="rgb(224, 176, 255)" stroke="black" stroke-width="1" onmouseover="setChange(evt)" onmouseout="unhiliteChange(evt)" onclick="changeMe(evt)" points="74.9998,122.943 44.9998,122.943 44.9998,152.942 74.9998,152.943" seed="13"/><polygon fill="rgb(224, 176, 255)" stroke="black" stroke-width="1" onmouseover="setChange(evt)" onmouseout="unhiliteChange(evt)" onclick="changeMe(evt)" points="141.961,66.9607 115.98,51.9618 100.98,77.9428 126.961,92.9417" seed="14"/><polygon fill="rgb(224, 176, 255)" stroke="black" stroke-width="1" onmouseover="setChange(evt)" onmouseout="unhiliteChange(evt)" onclick="changeMe(evt)" points="156.96,40.9797 130.978,25.9808 115.98,51.9618 141.961,66.9607" seed="15"/><polygon fill="rgb(224, 176, 255)" stroke="black" stroke-width="1" onmouseover="setChange(evt)" onmouseout="unhiliteChange(evt)" onclick="changeMe(evt)" points="182.941,55.9788 156.96,40.9797 141.961,66.9607 167.942,81.9607" seed="16"/><polygon fill="rgb(224, 176, 255)" stroke="black" stroke-width="1" onmouseover="setChange(evt)" onmouseout="unhiliteChange(evt)" onclick="changeMe(evt)" points="167.942,81.9607 141.96,66.9618 126.961,92.9417 152.942,107.942" seed="17"/><polygon fill="rgb(147, 112, 219)" stroke="black" stroke-width="1" onmouseover="setChange(evt)" onmouseout="unhiliteChange(evt)" onclick="changeMe(evt)" points="44.9998,40.9808 29.9998,14.9997 14.9998,40.9808" seed="18"/><polygon fill="rgb(147, 112, 219)" stroke="black" stroke-width="1" onmouseover="setChange(evt)" onmouseout="unhiliteChange(evt)" onclick="changeMe(evt)" points="70.9808,25.9808 85.9808,-0.00025177 55.9808,-0.00025177" seed="19"/><polygon fill="rgb(147, 112, 219)" stroke="black" stroke-width="1" onmouseover="setChange(evt)" onmouseout="unhiliteChange(evt)" onclick="changeMe(evt)" points="74.9998,92.9428 59.9998,66.9618 44.9998,92.9428" seed="20"/><polygon fill="rgb(147, 112, 219)" stroke="black" stroke-width="1" onmouseover="setChange(evt)" onmouseout="unhiliteChange(evt)" onclick="changeMe(evt)" points="115.981,51.9627 85.9808,51.9618 100.98,77.9428" seed="21"/><polygon fill="rgb(147, 112, 219)" stroke="black" stroke-width="1" onmouseover="setChange(evt)" onmouseout="unhiliteChange(evt)" onclick="changeMe(evt)" points="100.981,137.943 74.9998,122.943 74.9998,152.943" seed="22"/><polygon fill="rgb(147, 112, 219)" stroke="black" stroke-width="1" onmouseover="setChange(evt)" onmouseout="unhiliteChange(evt)" onclick="changeMe(evt)" points="152.942,107.942 126.961,92.9417 126.961,122.942" seed="23"/><polygon fill="rgb(147, 112, 219)" stroke="black" stroke-width="1" onmouseover="setChange(evt)" onmouseout="unhiliteChange(evt)" onclick="changeMe(evt)" points="115.982,193.922 115.981,163.922 90.0007,178.923" seed="24"/><polygon fill="rgb(147, 112, 219)" stroke="black" stroke-width="1" onmouseover="setChange(evt)" onmouseout="unhiliteChange(evt)" onclick="changeMe(evt)" points="167.942,163.923 167.942,133.923 141.961,148.923" seed="25"/></g></svg>
