<?xml version="1.0" encoding="utf-8"?>
<svg xmlns="http://www.w3.org/2000/svg" id="mainSVG" pointer-events="all" width="245.885" height="253.923" EdgeLen="30" template="u6_99_tu" code="A8_15_6_1" copyright="Francis Hemsher, 2012">
	<polygon id="BorderPoly" fill="none" pointer-events="none" stroke="red" stroke-width="4" transform="" points="163.923,0.000244141 133.924,0.000244141 107.943,15.0003 81.9613,0.000244141 66.9613,25.9802 40.9812,40.9802 40.9823,70.9812 25.9812,96.9613 0.00025177,111.961 0.00025177,141.961 25.9812,156.961 40.9812,182.942 40.9812,212.942 66.9622,227.942 92.9422,212.941 122.942,212.942 148.924,227.942 163.924,253.923 189.905,238.923 204.905,212.942 204.904,182.942 230.885,167.942 245.885,141.962 245.885,111.962 230.886,85.9812 204.904,70.9802 204.904,40.9802 189.904,15.0003"/>
	<g id="mainPolyG" transform=""><polygon id="mainPoly" fill="rgb(252, 194, 0)" stroke="black" onmouseover="setChange(evt)" onmouseout="unhiliteChange(evt)" onclick="changeMe(evt)" points="122.943,70.9812 92.9433,70.9802 66.9622,85.9802 51.9622,111.961 51.9622,141.961 66.9622,167.942 92.9433,182.942 122.943,182.942 148.923,167.942 163.923,141.961 163.924,111.961 148.924,85.9812" seed="0"/><polygon fill="rgb(224, 176, 255)" stroke="black" stroke-width="1" onmouseover="setChange(evt)" onmouseout="unhiliteChange(evt)" onclick="changeMe(evt)" points="122.943,40.9812 92.9433,40.9802 92.9433,70.9802 122.943,70.9812" seed="1"/><polygon fill="rgb(224, 176, 255)" stroke="black" stroke-width="1" onmouseover="setChange(evt)" onmouseout="unhiliteChange(evt)" onclick="changeMe(evt)" points="189.904,96.9613 174.905,70.9802 148.924,85.9812 163.924,111.961" seed="2"/><polygon fill="rgb(224, 176, 255)" stroke="black" stroke-width="1" onmouseover="setChange(evt)" onmouseout="unhiliteChange(evt)" onclick="changeMe(evt)" points="189.904,156.961 163.923,141.961 148.923,167.942 174.904,182.942" seed="3"/><polygon fill="rgb(224, 176, 255)" stroke="black" stroke-width="1" onmouseover="setChange(evt)" onmouseout="unhiliteChange(evt)" onclick="changeMe(evt)" points="122.942,182.942 92.9433,182.942 92.9422,212.941 122.942,212.942" seed="4"/><polygon fill="rgb(224, 176, 255)" stroke="black" stroke-width="1" onmouseover="setChange(evt)" onmouseout="unhiliteChange(evt)" onclick="changeMe(evt)" points="66.9622,167.942 51.9622,141.961 25.9812,156.961 40.9812,182.942" seed="5"/><polygon fill="rgb(224, 176, 255)" stroke="black" stroke-width="1" onmouseover="setChange(evt)" onmouseout="unhiliteChange(evt)" onclick="changeMe(evt)" points="66.9622,85.9802 40.9823,70.9812 25.9812,96.9613 51.9633,111.961" seed="6"/><polygon fill="rgb(41, 171, 135)" stroke="black" stroke-width="1" onmouseover="setChange(evt)" onmouseout="unhiliteChange(evt)" onclick="changeMe(evt)" points="174.904,40.9802 148.924,25.9812 122.943,40.9812 122.943,70.9812 148.924,85.9812 174.904,70.9812" seed="7"/><polygon fill="rgb(41, 171, 135)" stroke="black" stroke-width="1" onmouseover="setChange(evt)" onmouseout="unhiliteChange(evt)" onclick="changeMe(evt)" points="215.886,111.962 189.905,96.9622 163.924,111.961 163.923,141.961 189.904,156.962 215.885,141.962" seed="8"/><polygon fill="rgb(41, 171, 135)" stroke="black" stroke-width="1" onmouseover="setChange(evt)" onmouseout="unhiliteChange(evt)" onclick="changeMe(evt)" points="174.905,182.942 148.923,167.942 122.943,182.942 122.943,212.942 148.924,227.942 174.905,212.942" seed="9"/><polygon fill="rgb(41, 171, 135)" stroke="black" stroke-width="1" onmouseover="setChange(evt)" onmouseout="unhiliteChange(evt)" onclick="changeMe(evt)" points="92.9433,182.942 66.9622,167.942 40.9812,182.942 40.9812,212.942 66.9622,227.942 92.9422,212.942" seed="10"/><polygon fill="rgb(41, 171, 135)" stroke="black" stroke-width="1" onmouseover="setChange(evt)" onmouseout="unhiliteChange(evt)" onclick="changeMe(evt)" points="51.9622,111.961 25.9823,96.9613 0.00025177,111.961 0.00025177,141.961 25.9803,156.961 51.9622,141.961" seed="11"/><polygon fill="rgb(41, 171, 135)" stroke="black" stroke-width="1" onmouseover="setChange(evt)" onmouseout="unhiliteChange(evt)" onclick="changeMe(evt)" points="92.9433,40.9802 66.9613,25.9802 40.9812,40.9802 40.9812,70.9802 66.9622,85.9802 92.9433,70.9802" seed="12"/><polygon fill="rgb(224, 176, 255)" stroke="black" stroke-width="1" onmouseover="setChange(evt)" onmouseout="unhiliteChange(evt)" onclick="changeMe(evt)" points="107.942,14.9992 81.9613,0.000244141 66.9613,25.9802 92.9422,40.9802" seed="13"/><polygon fill="rgb(224, 176, 255)" stroke="black" stroke-width="1" onmouseover="setChange(evt)" onmouseout="unhiliteChange(evt)" onclick="changeMe(evt)" points="148.924,25.9812 133.924,0.000244141 107.943,15.0003 122.943,40.9812" seed="14"/><polygon fill="rgb(224, 176, 255)" stroke="black" stroke-width="1" onmouseover="setChange(evt)" onmouseout="unhiliteChange(evt)" onclick="changeMe(evt)" points="189.904,15.0003 163.923,0.000244141 148.924,25.9812 174.904,40.9802" seed="15"/><polygon fill="rgb(224, 176, 255)" stroke="black" stroke-width="1" onmouseover="setChange(evt)" onmouseout="unhiliteChange(evt)" onclick="changeMe(evt)" points="204.904,40.9802 174.904,40.9802 174.904,70.9802 204.904,70.9802" seed="16"/><polygon fill="rgb(224, 176, 255)" stroke="black" stroke-width="1" onmouseover="setChange(evt)" onmouseout="unhiliteChange(evt)" onclick="changeMe(evt)" points="230.886,85.9812 204.905,70.9812 189.905,96.9622 215.886,111.962" seed="17"/><polygon fill="rgb(224, 176, 255)" stroke="black" stroke-width="1" onmouseover="setChange(evt)" onmouseout="unhiliteChange(evt)" onclick="changeMe(evt)" points="245.885,111.962 215.886,111.962 215.885,141.961 245.885,141.962" seed="18"/><polygon fill="rgb(224, 176, 255)" stroke="black" stroke-width="1" onmouseover="setChange(evt)" onmouseout="unhiliteChange(evt)" onclick="changeMe(evt)" points="230.885,167.942 215.885,141.962 189.905,156.961 204.904,182.942" seed="19"/><polygon fill="rgb(224, 176, 255)" stroke="black" stroke-width="1" onmouseover="setChange(evt)" onmouseout="unhiliteChange(evt)" onclick="changeMe(evt)" points="204.904,182.942 174.905,182.942 174.905,212.942 204.905,212.942" seed="20"/><polygon fill="rgb(224, 176, 255)" stroke="black" stroke-width="1" onmouseover="setChange(evt)" onmouseout="unhiliteChange(evt)" onclick="changeMe(evt)" points="189.905,238.923 174.905,212.942 148.924,227.942 163.924,253.923" seed="21"/><polygon fill="rgb(147, 112, 219)" stroke="black" stroke-width="1" onmouseover="setChange(evt)" onmouseout="unhiliteChange(evt)" onclick="changeMe(evt)" points="122.943,40.9812 107.944,15.0003 92.9433,40.9802" seed="22"/><polygon fill="rgb(147, 112, 219)" stroke="black" stroke-width="1" onmouseover="setChange(evt)" onmouseout="unhiliteChange(evt)" onclick="changeMe(evt)" points="204.904,40.9802 189.904,14.9992 174.904,40.9802" seed="23"/><polygon fill="rgb(147, 112, 219)" stroke="black" stroke-width="1" onmouseover="setChange(evt)" onmouseout="unhiliteChange(evt)" onclick="changeMe(evt)" points="163.924,0.000244141 133.924,0.000244141 148.924,25.9812" seed="24"/><polygon fill="rgb(147, 112, 219)" stroke="black" stroke-width="1" onmouseover="setChange(evt)" onmouseout="unhiliteChange(evt)" onclick="changeMe(evt)" points="204.904,70.9802 174.904,70.9802 189.904,96.9613" seed="25"/><polygon fill="rgb(147, 112, 219)" stroke="black" stroke-width="1" onmouseover="setChange(evt)" onmouseout="unhiliteChange(evt)" onclick="changeMe(evt)" points="245.886,111.962 230.886,85.9812 215.886,111.962" seed="26"/><polygon fill="rgb(147, 112, 219)" stroke="black" stroke-width="1" onmouseover="setChange(evt)" onmouseout="unhiliteChange(evt)" onclick="changeMe(evt)" points="245.885,141.962 215.885,141.961 230.885,167.943" seed="27"/><polygon fill="rgb(147, 112, 219)" stroke="black" stroke-width="1" onmouseover="setChange(evt)" onmouseout="unhiliteChange(evt)" onclick="changeMe(evt)" points="204.904,182.942 189.905,156.961 174.904,182.942" seed="28"/><polygon fill="rgb(147, 112, 219)" stroke="black" stroke-width="1" onmouseover="setChange(evt)" onmouseout="unhiliteChange(evt)" onclick="changeMe(evt)" points="204.905,212.942 174.905,212.942 189.904,238.923" seed="29"/></g>
</svg>
