<?xml version="1.0" encoding="utf-8"?>
<svg xmlns="http://www.w3.org/2000/svg" id="mainSVG" pointer-events="all" width="75.0015" height="257.941" EdgeLen="30" template="u4_41_tu" code="A8_12_0_0" copyright="Francis Hemsher, 2012">
	<polygon id="BorderPoly" fill="none" pointer-events="none" stroke="red" stroke-width="4" transform="" points="30.0015,0.000244141 15.0015,25.9812 15.001,55.9803 0.000545502,81.9613 0.00104523,111.961 0.000545502,141.961 0.00104523,171.96 4.57764e-005,201.96 4.57764e-005,231.96 14.9995,257.941 30,231.96 45,257.941 60,231.96 59.9995,201.961 60.0005,171.96 60,141.961 60.0005,111.961 60,81.9613 75.0012,55.9812 75.0012,25.9823 60.002,0.000244141 45.0015,25.9812"/>
	<g id="mainPolyG" transform=""><polygon id="mainPoly" fill="rgb(252, 194, 0)" stroke="black" onmouseover="setChange(evt)" onmouseout="unhiliteChange(evt)" onclick="changeMe(evt)" points="30.0005,111.961 0.000545502,111.961 0.000545502,141.961 30.0005,141.961" seed="0"/><polygon fill="rgb(224, 176, 255)" stroke="black" stroke-width="1" onmouseover="setChange(evt)" onmouseout="unhiliteChange(evt)" onclick="changeMe(evt)" points="30,141.961 0.000545502,141.961 0.000545502,171.96 30.0005,171.961" seed="1"/><polygon fill="rgb(224, 176, 255)" stroke="black" stroke-width="1" onmouseover="setChange(evt)" onmouseout="unhiliteChange(evt)" onclick="changeMe(evt)" points="30.0005,171.961 0.00104523,171.96 4.57764e-005,201.96 30,201.96" seed="2"/><polygon fill="rgb(224, 176, 255)" stroke="black" stroke-width="1" onmouseover="setChange(evt)" onmouseout="unhiliteChange(evt)" onclick="changeMe(evt)" points="29.9995,201.96 4.57764e-005,201.96 4.57764e-005,231.96 30,231.96" seed="3"/><polygon fill="rgb(224, 176, 255)" stroke="black" stroke-width="1" onmouseover="setChange(evt)" onmouseout="unhiliteChange(evt)" onclick="changeMe(evt)" points="30.0005,81.9613 0.000545502,81.9613 0.00104523,111.961 30.0005,111.961" seed="4"/><polygon fill="rgb(147, 112, 219)" stroke="black" stroke-width="1" onmouseover="setChange(evt)" onmouseout="unhiliteChange(evt)" onclick="changeMe(evt)" points="30.0005,81.9613 15.001,55.9803 0.000545502,81.9613" seed="5"/><polygon fill="rgb(147, 112, 219)" stroke="black" stroke-width="1" onmouseover="setChange(evt)" onmouseout="unhiliteChange(evt)" onclick="changeMe(evt)" points="45.001,55.9812 15.001,55.9803 30.0005,81.9613" seed="6"/><polygon fill="rgb(224, 176, 255)" stroke="black" stroke-width="1" onmouseover="setChange(evt)" onmouseout="unhiliteChange(evt)" onclick="changeMe(evt)" points="45.0015,25.9812 15.0015,25.9812 15.001,55.9803 45.0005,55.9812" seed="7"/><polygon fill="rgb(147, 112, 219)" stroke="black" stroke-width="1" onmouseover="setChange(evt)" onmouseout="unhiliteChange(evt)" onclick="changeMe(evt)" points="45.0015,25.9812 30.0015,0.000244141 15.0015,25.9812" seed="8"/><polygon fill="rgb(224, 176, 255)" stroke="black" stroke-width="1" onmouseover="setChange(evt)" onmouseout="unhiliteChange(evt)" onclick="changeMe(evt)" points="75.0012,25.9823 45.0015,25.9812 45.0005,55.9812 75.0002,55.9823" seed="9"/><polygon fill="rgb(224, 176, 255)" stroke="black" stroke-width="1" onmouseover="setChange(evt)" onmouseout="unhiliteChange(evt)" onclick="changeMe(evt)" points="60,81.9613 30.0005,81.9613 30.0005,111.961 60.0005,111.961" seed="10"/><polygon fill="rgb(224, 176, 255)" stroke="black" stroke-width="1" onmouseover="setChange(evt)" onmouseout="unhiliteChange(evt)" onclick="changeMe(evt)" points="60,141.961 60.0005,111.961 30.0005,111.961 30.0005,141.961" seed="11"/><polygon fill="rgb(224, 176, 255)" stroke="black" stroke-width="1" onmouseover="setChange(evt)" onmouseout="unhiliteChange(evt)" onclick="changeMe(evt)" points="60.0005,171.96 59.9995,141.96 30,141.961 30.0005,171.96" seed="12"/><polygon fill="rgb(224, 176, 255)" stroke="black" stroke-width="1" onmouseover="setChange(evt)" onmouseout="unhiliteChange(evt)" onclick="changeMe(evt)" points="60.0005,171.961 30.0005,171.961 30,201.96 59.9995,201.961" seed="13"/><polygon fill="rgb(224, 176, 255)" stroke="black" stroke-width="1" onmouseover="setChange(evt)" onmouseout="unhiliteChange(evt)" onclick="changeMe(evt)" points="60,231.96 59.999,201.96 29.9995,201.96 30,231.96" seed="14"/><polygon fill="rgb(147, 112, 219)" stroke="black" stroke-width="1" onmouseover="setChange(evt)" onmouseout="unhiliteChange(evt)" onclick="changeMe(evt)" points="60.0005,81.9622 45.001,55.9812 30.0005,81.9613" seed="15"/><polygon fill="rgb(147, 112, 219)" stroke="black" stroke-width="1" onmouseover="setChange(evt)" onmouseout="unhiliteChange(evt)" onclick="changeMe(evt)" points="75.0012,55.9812 45.001,55.9812 60.0005,81.9622" seed="16"/><polygon fill="rgb(147, 112, 219)" stroke="black" stroke-width="1" onmouseover="setChange(evt)" onmouseout="unhiliteChange(evt)" onclick="changeMe(evt)" points="75.0012,25.9823 60.002,0.000244141 45.0015,25.9812" seed="17"/><polygon fill="rgb(147, 112, 219)" stroke="black" stroke-width="1" onmouseover="setChange(evt)" onmouseout="unhiliteChange(evt)" onclick="changeMe(evt)" points="30,231.96 4.57764e-005,231.96 14.9995,257.941" seed="18"/><polygon fill="rgb(147, 112, 219)" stroke="black" stroke-width="1" onmouseover="setChange(evt)" onmouseout="unhiliteChange(evt)" onclick="changeMe(evt)" points="60,231.96 30,231.96 45,257.941" seed="19"/></g>
</svg>
