<?xml version="1.0" encoding="utf-8"?>
<svg xmlns="http://www.w3.org/2000/svg" id="mainSVG" pointer-events="all" width="167.943" height="238.924" EdgeLen="30" template="u5_45_tu" code="A8_2_0_2" copyright="Francis Hemsher, 2012">
	<polygon id="BorderPoly" fill="none" pointer-events="none" stroke="red" stroke-width="4" transform="" points="70.9808,15.0011 40.9808,15.0011 15,30.0011 40.9808,45.0011 55.9808,70.9821 55.9818,100.981 40.9808,126.962 15.0005,141.962 0.000457764,167.943 -4.57764e-005,197.943 15,223.923 40.9808,238.923 70.9808,238.924 96.9618,223.924 126.962,223.924 111.962,197.943 111.962,167.943 126.962,141.962 152.943,126.962 167.943,100.981 167.943,70.9811 152.942,45.0001 126.961,30.0001 152.942,15.0001 126.961,9.91821e-005 96.9608,0.00109863"/>
	<g id="mainPolyG" transform=""><polygon id="mainPoly" fill="rgb(252, 194, 0)" stroke="black" onmouseover="setChange(evt)" onmouseout="unhiliteChange(evt)" onclick="changeMe(evt)" points="70.9808,126.962 40.9808,126.962 15.0005,141.962 0.000457764,167.943 -4.57764e-005,197.943 15,223.923 40.9808,238.923 70.9808,238.924 96.9618,223.924 111.962,197.943 111.962,167.943 96.9618,141.962" seed="0"/><polygon fill="rgb(0, 128, 128)" stroke="black" stroke-width="1" onmouseover="setChange(evt)" onmouseout="unhiliteChange(evt)" onclick="changeMe(evt)" points="152.942,45.0001 126.961,30.0001 96.9618,30.0011 70.9808,45.0011 55.9808,70.9821 55.9808,100.982 70.9808,126.962 96.9618,141.962 126.962,141.962 152.943,126.962 167.943,100.981 167.943,70.9811" seed="1"/><polygon fill="rgb(147, 112, 219)" stroke="black" stroke-width="1" onmouseover="setChange(evt)" onmouseout="unhiliteChange(evt)" onclick="changeMe(evt)" points="70.9808,126.962 55.9818,100.981 40.9808,126.962" seed="2"/><polygon fill="rgb(147, 112, 219)" stroke="black" stroke-width="1" onmouseover="setChange(evt)" onmouseout="unhiliteChange(evt)" onclick="changeMe(evt)" points="126.962,141.962 96.9618,141.962 111.962,167.943" seed="3"/><polygon fill="rgb(147, 112, 219)" stroke="black" stroke-width="1" onmouseover="setChange(evt)" onmouseout="unhiliteChange(evt)" onclick="changeMe(evt)" points="126.962,223.924 111.961,197.943 96.9618,223.924" seed="4"/><polygon fill="rgb(147, 112, 219)" stroke="black" stroke-width="1" onmouseover="setChange(evt)" onmouseout="unhiliteChange(evt)" onclick="changeMe(evt)" points="70.9808,45.0011 40.9808,45.0011 55.9808,70.9821" seed="5"/><polygon fill="rgb(147, 112, 219)" stroke="black" stroke-width="1" onmouseover="setChange(evt)" onmouseout="unhiliteChange(evt)" onclick="changeMe(evt)" points="96.9608,30.0011 70.9808,15.0011 70.9808,45.0011" seed="6"/><polygon fill="rgb(224, 176, 255)" stroke="black" stroke-width="1" onmouseover="setChange(evt)" onmouseout="unhiliteChange(evt)" onclick="changeMe(evt)" points="126.962,30.0001 126.961,9.91821e-005 96.9608,0.00109863 96.9618,30.0011" seed="7"/><polygon fill="rgb(224, 176, 255)" stroke="black" stroke-width="1" onmouseover="setChange(evt)" onmouseout="unhiliteChange(evt)" onclick="changeMe(evt)" points="70.9808,15.0011 40.9808,15.0011 40.9808,45.0011 70.9808,45.0011" seed="8"/><polygon fill="rgb(147, 112, 219)" stroke="black" stroke-width="1" onmouseover="setChange(evt)" onmouseout="unhiliteChange(evt)" onclick="changeMe(evt)" points="96.9618,30.0011 96.9608,0.00109863 70.9808,15.0011" seed="9"/><polygon fill="rgb(147, 112, 219)" stroke="black" stroke-width="1" onmouseover="setChange(evt)" onmouseout="unhiliteChange(evt)" onclick="changeMe(evt)" points="152.942,15.0001 126.961,9.91821e-005 126.962,30.0001" seed="10"/><polygon fill="rgb(147, 112, 219)" stroke="black" stroke-width="1" onmouseover="setChange(evt)" onmouseout="unhiliteChange(evt)" onclick="changeMe(evt)" points="40.9808,45.0011 40.9808,15.0011 15,30.0011" seed="11"/></g>
</svg>
