<?xml version="1.0" encoding="utf-8"?>
<svg xmlns="http://www.w3.org/2000/svg" id="mainSVG" pointer-events="all" width="126.961" height="85.9815" EdgeLen="30" template="u2_17_tu" code="A8_4_0_0" copyright="Francis Hemsher, 2012">
	<polygon id="BorderPoly" fill="none" pointer-events="none" stroke="red" stroke-width="4" transform="" points="15,4.57764e-005 0,25.9805 0,55.9805 15,81.9613 30,55.9805 44.9995,81.9613 59.9995,55.9805 111.96,85.9812 111.96,55.9815 126.96,30.0014 75.0005,4.57764e-005 59.9995,25.981 44.9995,4.57764e-005 30,25.981"/><g id="mainPolyG" transform=""><polygon id="mainPoly" fill="rgb(252, 194, 0)" stroke="black" onmouseover="setChange(evt)" onmouseout="unhiliteChange(evt)" onclick="changeMe(evt)" points="30,25.9805 0,25.9805 0,55.9805 30,55.9805" seed="0"/><polygon fill="rgb(41, 171, 135)" stroke="black" stroke-width="1" onmouseover="setChange(evt)" onmouseout="unhiliteChange(evt)" onclick="changeMe(evt)" points="59.9995,55.9805 59.9995,25.9805 30,25.981 30,55.9805" seed="1"/><polygon fill="rgb(224, 176, 255)" stroke="black" stroke-width="1" onmouseover="setChange(evt)" onmouseout="unhiliteChange(evt)" onclick="changeMe(evt)" points="30,25.9805 15,4.57764e-005 0,25.9805" seed="2"/><polygon fill="rgb(224, 176, 255)" stroke="black" stroke-width="1" onmouseover="setChange(evt)" onmouseout="unhiliteChange(evt)" onclick="changeMe(evt)" points="59.9995,25.9805 44.9995,4.57764e-005 30,25.981" seed="3"/><polygon fill="rgb(224, 176, 255)" stroke="black" stroke-width="1" onmouseover="setChange(evt)" onmouseout="unhiliteChange(evt)" onclick="changeMe(evt)" points="30,55.9805 0,55.9805 15,81.9613" seed="4"/><polygon fill="rgb(224, 176, 255)" stroke="black" stroke-width="1" onmouseover="setChange(evt)" onmouseout="unhiliteChange(evt)" onclick="changeMe(evt)" points="59.9995,55.9805 29.9995,55.9805 44.9995,81.9613" seed="5"/><polygon fill="rgb(224, 176, 255)" stroke="black" stroke-width="1" onmouseover="setChange(evt)" onmouseout="unhiliteChange(evt)" onclick="changeMe(evt)" points="85.9805,40.981 59.9995,25.9805 59.9995,55.9805" seed="6"/><polygon fill="rgb(224, 176, 255)" stroke="black" stroke-width="1" onmouseover="setChange(evt)" onmouseout="unhiliteChange(evt)" onclick="changeMe(evt)" points="85.9805,70.9812 85.9805,40.981 59.9995,55.9805" seed="7"/><polygon fill="rgb(224, 176, 255)" stroke="black" stroke-width="1" onmouseover="setChange(evt)" onmouseout="unhiliteChange(evt)" onclick="changeMe(evt)" points="111.96,55.9815 85.9805,40.981 85.9805,70.9812" seed="8"/><polygon fill="rgb(224, 176, 255)" stroke="black" stroke-width="1" onmouseover="setChange(evt)" onmouseout="unhiliteChange(evt)" onclick="changeMe(evt)" points="111.96,85.9812 111.96,55.9815 85.9805,70.9812" seed="9"/><polygon fill="rgb(41, 171, 135)" stroke="black" stroke-width="1" onmouseover="setChange(evt)" onmouseout="unhiliteChange(evt)" onclick="changeMe(evt)" points="100.98,15.0005 75.0005,4.57764e-005 59.9995,25.981 85.9805,40.981" seed="10"/><polygon fill="rgb(41, 171, 135)" stroke="black" stroke-width="1" onmouseover="setChange(evt)" onmouseout="unhiliteChange(evt)" onclick="changeMe(evt)" points="126.96,30.0014 100.982,15.0005 85.9805,40.9815 111.96,55.9815" seed="11"/></g></svg>
