<?xml version="1.0" encoding="utf-8"?>
<svg xmlns="http://www.w3.org/2000/svg" id="mainSVG" pointer-events="all" width="145.98" height="148.923" EdgeLen="30" template="u5_29_tu" code="A8_6_3_0" copyright="Francis Hemsher, 2012">
	<polygon id="BorderPoly" fill="none" pointer-events="none" stroke="red" stroke-width="4" transform="" points="90.0003,0 60.0003,0.000495911 30.0003,0.000495911 30.0003,30.0005 15,55.9815 -4.57764e-005,81.9615 15,107.943 30.0003,133.923 60.0003,133.923 90.0003,133.923 115.978,148.923 130.978,122.943 145.979,96.9625 145.979,66.9625 130.98,40.9815 115.98,15.0005"/>
	<g id="mainPolyG" transform=""><polygon id="mainPoly" fill="rgb(252, 194, 0)" stroke="black" onmouseover="setChange(evt)" onmouseout="unhiliteChange(evt)" onclick="changeMe(evt)" points="90.0003,81.9615 60.0003,81.9615 45.0003,107.943 60.0003,133.923 90.0003,133.923 105,107.943" seed="0"/><polygon fill="rgb(41, 171, 135)" stroke="black" stroke-width="1" onmouseover="setChange(evt)" onmouseout="unhiliteChange(evt)" onclick="changeMe(evt)" points="90.0003,30.0005 60.0003,30.0005 45.0003,55.9815 60.0003,81.9615 90.0003,81.9615 105,55.9815" seed="1"/><polygon fill="rgb(41, 171, 135)" stroke="black" stroke-width="1" onmouseover="setChange(evt)" onmouseout="unhiliteChange(evt)" onclick="changeMe(evt)" points="45.0003,55.9815 15,55.9815 -4.57764e-005,81.9615 15,107.943 44.9993,107.943 60.0003,81.9615" seed="2"/><polygon fill="rgb(147, 112, 219)" stroke="black" stroke-width="1" onmouseover="setChange(evt)" onmouseout="unhiliteChange(evt)" onclick="changeMe(evt)" points="45.0003,55.9815 30.0003,30.0005 15,55.9815" seed="3"/><polygon fill="rgb(147, 112, 219)" stroke="black" stroke-width="1" onmouseover="setChange(evt)" onmouseout="unhiliteChange(evt)" onclick="changeMe(evt)" points="59.9993,30.0005 30.0003,30.0005 45.0003,55.9815" seed="4"/><polygon fill="rgb(147, 112, 219)" stroke="black" stroke-width="1" onmouseover="setChange(evt)" onmouseout="unhiliteChange(evt)" onclick="changeMe(evt)" points="45.0003,107.943 15,107.943 30.0003,133.923" seed="5"/><polygon fill="rgb(147, 112, 219)" stroke="black" stroke-width="1" onmouseover="setChange(evt)" onmouseout="unhiliteChange(evt)" onclick="changeMe(evt)" points="59.9993,133.923 45.0003,107.943 30.0003,133.923" seed="6"/><polygon fill="rgb(224, 176, 255)" stroke="black" stroke-width="1" onmouseover="setChange(evt)" onmouseout="unhiliteChange(evt)" onclick="changeMe(evt)" points="89.9993,30.0005 90.0003,0 60.0003,0.000495911 60.0003,30.0005" seed="7"/><polygon fill="rgb(224, 176, 255)" stroke="black" stroke-width="1" onmouseover="setChange(evt)" onmouseout="unhiliteChange(evt)" onclick="changeMe(evt)" points="60.0003,0.000495911 30.0003,0.000495911 30.0003,30.0005 60.0003,30.0005" seed="8"/><polygon fill="rgb(147, 112, 219)" stroke="black" stroke-width="1" onmouseover="setChange(evt)" onmouseout="unhiliteChange(evt)" onclick="changeMe(evt)" points="115.98,15.0005 90.0003,0 89.9993,30.0005" seed="9"/><polygon fill="rgb(224, 176, 255)" stroke="black" stroke-width="1" onmouseover="setChange(evt)" onmouseout="unhiliteChange(evt)" onclick="changeMe(evt)" points="130.98,40.9815 115.98,15.0005 89.9993,30.0005 104.999,55.9815" seed="10"/><polygon fill="rgb(224, 176, 255)" stroke="black" stroke-width="1" onmouseover="setChange(evt)" onmouseout="unhiliteChange(evt)" onclick="changeMe(evt)" points="145.979,66.9625 130.98,40.9815 104.999,55.9815 119.998,81.9615" seed="11"/><polygon fill="rgb(147, 112, 219)" stroke="black" stroke-width="1" onmouseover="setChange(evt)" onmouseout="unhiliteChange(evt)" onclick="changeMe(evt)" points="145.979,96.9625 145.979,66.9625 119.998,81.9615" seed="12"/><polygon fill="rgb(224, 176, 255)" stroke="black" stroke-width="1" onmouseover="setChange(evt)" onmouseout="unhiliteChange(evt)" onclick="changeMe(evt)" points="145.979,96.9615 119.998,81.9615 104.998,107.943 130.978,122.943" seed="13"/><polygon fill="rgb(224, 176, 255)" stroke="black" stroke-width="1" onmouseover="setChange(evt)" onmouseout="unhiliteChange(evt)" onclick="changeMe(evt)" points="130.978,122.943 104.998,107.943 89.9973,133.923 115.978,148.923" seed="14"/><polygon fill="rgb(147, 112, 219)" stroke="black" stroke-width="1" onmouseover="setChange(evt)" onmouseout="unhiliteChange(evt)" onclick="changeMe(evt)" points="120,81.9615 105,55.9815 90.0003,81.9615" seed="15"/><polygon fill="rgb(147, 112, 219)" stroke="black" stroke-width="1" onmouseover="setChange(evt)" onmouseout="unhiliteChange(evt)" onclick="changeMe(evt)" points="105.001,107.943 120,81.9615 90.0003,81.9615" seed="16"/></g>
</svg>
