<?xml version="1.0" encoding="utf-8"?>
<svg xmlns="http://www.w3.org/2000/svg" id="mainSVG" pointer-events="all" width="204.905" height="156.963" EdgeLen="30" template="u6_91_tu" code="A8_6_2_1" copyright="Francis Hemsher, 2012">
	<polygon id="BorderPoly" fill="none" pointer-events="none" stroke="red" stroke-width="4" transform="" points="178.923,-7.62939e-006 152.942,15.0005 122.943,15.0005 96.9618,0.000991821 70.9818,15.0015 40.9818,15.0005 40.9818,45.0005 15.0008,60.0005 0.00075531,85.9815 -0.000244141,115.981 14.9998,141.962 40.9808,156.962 70.9808,156.962 96.9618,141.962 122.942,156.962 152.942,156.964 178.923,141.964 163.923,115.982 163.924,85.9825 178.924,60.0005 204.905,45.0005 204.904,15"/>
	<g id="mainPolyG" transform=""><polygon id="mainPoly" fill="rgb(252, 194, 0)" stroke="black" onmouseover="setChange(evt)" onmouseout="unhiliteChange(evt)" onclick="changeMe(evt)" points="70.9808,45.0015 40.9808,45.0005 15.0008,60.0005 0.00075531,85.9815 -0.000244141,115.981 14.9998,141.962 40.9808,156.962 70.9808,156.962 96.9618,141.962 111.962,115.981 111.962,85.9815 96.9618,60.0015" seed="0"/><polygon fill="rgb(224, 176, 255)" stroke="black" stroke-width="1" onmouseover="setChange(evt)" onmouseout="unhiliteChange(evt)" onclick="changeMe(evt)" points="70.9818,15.0015 40.9818,15.0005 40.9818,45.0005 70.9808,45.0015" seed="1"/><polygon fill="rgb(41, 171, 135)" stroke="black" stroke-width="1" onmouseover="setChange(evt)" onmouseout="unhiliteChange(evt)" onclick="changeMe(evt)" points="122.943,15.0005 96.9618,0.000991821 70.9818,15.001 70.9808,45.0015 96.9618,60.0015 122.943,45.0015" seed="2"/><polygon fill="rgb(224, 176, 255)" stroke="black" stroke-width="1" onmouseover="setChange(evt)" onmouseout="unhiliteChange(evt)" onclick="changeMe(evt)" points="152.942,15.0005 122.943,15.0005 122.943,45.0005 152.943,45.0005" seed="3"/><polygon fill="rgb(41, 171, 135)" stroke="black" stroke-width="1" onmouseover="setChange(evt)" onmouseout="unhiliteChange(evt)" onclick="changeMe(evt)" points="204.904,15 178.923,-7.62939e-006 152.942,15.0005 152.943,45.0005 178.924,60.0005 204.905,45.0005" seed="4"/><polygon fill="rgb(224, 176, 255)" stroke="black" stroke-width="1" onmouseover="setChange(evt)" onmouseout="unhiliteChange(evt)" onclick="changeMe(evt)" points="137.943,70.9815 122.943,45.0015 96.9618,60.0015 111.962,85.9825" seed="5"/><polygon fill="rgb(224, 176, 255)" stroke="black" stroke-width="1" onmouseover="setChange(evt)" onmouseout="unhiliteChange(evt)" onclick="changeMe(evt)" points="178.924,60.0005 152.943,45.0015 137.944,70.9815 163.925,85.9815" seed="6"/><polygon fill="rgb(147, 112, 219)" stroke="black" stroke-width="1" onmouseover="setChange(evt)" onmouseout="unhiliteChange(evt)" onclick="changeMe(evt)" points="137.943,100.982 111.962,85.9815 111.962,115.981" seed="7"/><polygon fill="rgb(147, 112, 219)" stroke="black" stroke-width="1" onmouseover="setChange(evt)" onmouseout="unhiliteChange(evt)" onclick="changeMe(evt)" points="137.943,100.982 137.943,70.9825 111.962,85.9815" seed="8"/><polygon fill="rgb(147, 112, 219)" stroke="black" stroke-width="1" onmouseover="setChange(evt)" onmouseout="unhiliteChange(evt)" onclick="changeMe(evt)" points="163.924,85.9825 137.943,70.9825 137.943,100.982" seed="9"/><polygon fill="rgb(147, 112, 219)" stroke="black" stroke-width="1" onmouseover="setChange(evt)" onmouseout="unhiliteChange(evt)" onclick="changeMe(evt)" points="163.923,115.982 163.924,85.9825 137.943,100.982" seed="10"/><polygon fill="rgb(147, 112, 219)" stroke="black" stroke-width="1" onmouseover="setChange(evt)" onmouseout="unhiliteChange(evt)" onclick="changeMe(evt)" points="163.923,115.982 137.943,100.982 137.942,130.982" seed="11"/><polygon fill="rgb(147, 112, 219)" stroke="black" stroke-width="1" onmouseover="setChange(evt)" onmouseout="unhiliteChange(evt)" onclick="changeMe(evt)" points="137.942,130.982 137.943,100.982 111.962,115.981" seed="12"/><polygon fill="rgb(224, 176, 255)" stroke="black" stroke-width="1" onmouseover="setChange(evt)" onmouseout="unhiliteChange(evt)" onclick="changeMe(evt)" points="137.942,130.981 111.962,115.981 96.9618,141.962 122.942,156.962" seed="13"/><polygon fill="rgb(224, 176, 255)" stroke="black" stroke-width="1" onmouseover="setChange(evt)" onmouseout="unhiliteChange(evt)" onclick="changeMe(evt)" points="178.923,141.964 163.923,115.982 137.942,130.982 152.942,156.964" seed="14"/><polygon fill="rgb(147, 112, 219)" stroke="black" stroke-width="1" onmouseover="setChange(evt)" onmouseout="unhiliteChange(evt)" onclick="changeMe(evt)" points="152.942,156.962 137.942,130.981 122.942,156.962" seed="15"/><polygon fill="rgb(147, 112, 219)" stroke="black" stroke-width="1" onmouseover="setChange(evt)" onmouseout="unhiliteChange(evt)" onclick="changeMe(evt)" points="152.943,45.0005 122.943,45.0005 137.942,70.9815" seed="16"/></g>
</svg>
