<?xml version="1.0" encoding="utf-8" ?>

		<svg xmlns="http://www.w3.org/2000/svg" id="mainSVG" pointer-events="all" onkeyup="attachKey(evt)" width="178.979" height="154.115" EdgeLen="30" template="A8_7_4_R">

		<polygon id="BorderPoly" fill="none" pointer-events="none" stroke="red" stroke-width="4" transform="" points="126.214,4.57764e-005 96.2138,0.000541687 66.2138,4.57764e-005 36.2128,4.57764e-005 14.9998,21.213 -4.57764e-005,47.1942 14.9998,73.1752 29.9998,99.1563 44.9998,125.137 74.9998,125.137 105,125.137 135,125.137 142.764,154.115 157.765,128.134 178.979,106.921 163.978,80.9402 148.978,54.9592 133.978,28.9782" />
		<g id="mainPolyG" transform=""><polygon id="mainPoly" fill="rgb(252, 194, 0)" stroke="black" onmouseover="setChange(evt)" onmouseout="unhiliteChange(evt)" onclick="changeMe(evt)" points="74.9998,73.1752 44.9998,73.1752 29.9998,99.1563 44.9998,125.137 74.9998,125.137 89.9998,99.1563" seed="0" /><polygon fill="rgb(147, 112, 219)" stroke="black" stroke-width="1" onmouseover="setChange(evt)" onmouseout="unhiliteChange(evt)" onclick="changeMe(evt)" points="44.9998,73.1752 14.9998,73.1752 29.9998,99.1552" seed="1" /><polygon fill="rgb(147, 112, 219)" stroke="black" stroke-width="1" onmouseover="setChange(evt)" onmouseout="unhiliteChange(evt)" onclick="changeMe(evt)" points="74.9998,73.1752 59.9998,47.1942 44.9998,73.1752" seed="2" /><polygon fill="rgb(147, 112, 219)" stroke="black" stroke-width="1" onmouseover="setChange(evt)" onmouseout="unhiliteChange(evt)" onclick="changeMe(evt)" points="105,73.1752 75.0008,73.1752 89.9998,99.1563" seed="3" /><polygon fill="rgb(147, 112, 219)" stroke="black" stroke-width="1" onmouseover="setChange(evt)" onmouseout="unhiliteChange(evt)" onclick="changeMe(evt)" points="105,125.137 89.9998,99.1563 74.9998,125.137" seed="4" /><polygon fill="rgb(41, 171, 135)" stroke="black" stroke-width="1" onmouseover="setChange(evt)" onmouseout="unhiliteChange(evt)" onclick="changeMe(evt)" points="44.9998,21.213 14.9998,21.213 -4.57764e-005,47.1942 14.9998,73.1752 44.9998,73.1752 59.9998,47.1942" seed="5" /><polygon fill="rgb(41, 171, 135)" stroke="black" stroke-width="1" onmouseover="setChange(evt)" onmouseout="unhiliteChange(evt)" onclick="changeMe(evt)" points="105,21.213 75.0008,21.213 59.9998,47.1942 74.9998,73.1752 105,73.1752 120,47.1942" seed="6" /><polygon fill="rgb(41, 171, 135)" stroke="black" stroke-width="1" onmouseover="setChange(evt)" onmouseout="unhiliteChange(evt)" onclick="changeMe(evt)" points="135,73.1752 105,73.1752 89.9998,99.1563 105,125.137 135,125.137 150.001,99.1563" seed="7" /><polygon fill="rgb(147, 112, 219)" stroke="black" stroke-width="1" onmouseover="setChange(evt)" onmouseout="unhiliteChange(evt)" onclick="changeMe(evt)" points="74.9998,21.2135 45.0008,21.2135 59.9998,47.1942" seed="8" /><polygon fill="rgb(147, 112, 219)" stroke="black" stroke-width="1" onmouseover="setChange(evt)" onmouseout="unhiliteChange(evt)" onclick="changeMe(evt)" points="135,73.1752 120,47.1942 105,73.1752" seed="9" /><polygon fill="rgb(91, 146, 229)" stroke="black" stroke-width="1" onmouseover="setChange(evt)" onmouseout="unhiliteChange(evt)" onclick="changeMe(evt)" transform="" points="66.2138,4.57764e-005 36.2128,4.57764e-005 14.9998,21.213 44.9998,21.213" seed="10" /><polygon fill="rgb(91, 146, 229)" stroke="black" stroke-width="1" onmouseover="setChange(evt)" onmouseout="unhiliteChange(evt)" onclick="changeMe(evt)" transform="" points="96.2138,0.000541687 66.2138,4.57764e-005 44.9998,21.213 74.9998,21.2135" seed="11" /><polygon fill="rgb(91, 146, 229)" stroke="black" stroke-width="1" onmouseover="setChange(evt)" onmouseout="unhiliteChange(evt)" onclick="changeMe(evt)" transform="" points="126.214,4.57764e-005 96.2128,4.57764e-005 74.9998,21.213 105,21.213" seed="12" /><polygon fill="rgb(91, 146, 229)" stroke="black" stroke-width="1" onmouseover="setChange(evt)" onmouseout="unhiliteChange(evt)" onclick="changeMe(evt)" transform="" points="133.978,28.9782 105,21.213 120,47.1942 148.978,54.9592" seed="13" /><polygon fill="rgb(91, 146, 229)" stroke="black" stroke-width="1" onmouseover="setChange(evt)" onmouseout="unhiliteChange(evt)" onclick="changeMe(evt)" transform="" points="148.978,54.9592 120,47.1942 135,73.1752 163.978,80.9402" seed="14" /><polygon fill="rgb(91, 146, 229)" stroke="black" stroke-width="1" onmouseover="setChange(evt)" onmouseout="unhiliteChange(evt)" onclick="changeMe(evt)" transform="" points="163.979,80.9402 135.001,73.1752 150.001,99.1563 178.979,106.921" seed="15" /><polygon fill="rgb(147, 112, 219)" stroke="black" stroke-width="1" onmouseover="setChange(evt)" onmouseout="unhiliteChange(evt)" onclick="changeMe(evt)" points="133.978,28.9782 126.214,4.57764e-005 105.001,21.213" seed="16" /><polygon fill="rgb(147, 112, 219)" stroke="black" stroke-width="1" onmouseover="setChange(evt)" onmouseout="unhiliteChange(evt)" onclick="changeMe(evt)" points="178.979,106.921 150.001,99.1563 157.765,128.134" seed="17" /><polygon fill="rgb(91, 146, 229)" stroke="black" stroke-width="1" onmouseover="setChange(evt)" onmouseout="unhiliteChange(evt)" onclick="changeMe(evt)" transform="" points="157.765,128.134 150,99.1563 135,125.137 142.764,154.115" seed="18" /></g>


		</svg>
