<?xml version="1.0" encoding="utf-8"?>
<svg xmlns="http://www.w3.org/2000/svg" id="mainSVG" pointer-events="all" width="156.962" height="189.904" EdgeLen="30" template="u6_460_tu" code="A8_7_2_0" copyright="Francis Hemsher, 2012">
	<polygon id="BorderPoly" fill="none" pointer-events="none" stroke="red" stroke-width="4" transform="" points="70.9813,0 55.9803,25.981 30.0003,40.981 -4.57764e-005,40.98 14.9995,66.962 40.9813,81.962 55.9803,107.943 70.9803,133.923 85.9813,159.904 85.9813,189.903 115.981,189.904 141.961,174.903 156.961,148.923 156.961,118.924 141.961,92.943 126.961,66.962 111.961,40.98 85.9803,25.981"/>
	<g id="mainPolyG" transform=""><polygon id="mainPoly" fill="rgb(252, 194, 0)" stroke="black" onmouseover="setChange(evt)" onmouseout="unhiliteChange(evt)" onclick="changeMe(evt)" points="85.9803,55.98 55.9803,55.98 40.9803,81.962 55.9803,107.943 85.9803,107.943 100.98,81.962" seed="0"/><polygon fill="rgb(147, 112, 219)" stroke="black" stroke-width="1" onmouseover="setChange(evt)" onmouseout="unhiliteChange(evt)" onclick="changeMe(evt)" points="85.9803,107.943 55.9803,107.943 70.9803,133.923" seed="1"/><polygon fill="rgb(147, 112, 219)" stroke="black" stroke-width="1" onmouseover="setChange(evt)" onmouseout="unhiliteChange(evt)" onclick="changeMe(evt)" points="115.98,107.943 100.98,81.962 85.9803,107.943" seed="2"/><polygon fill="rgb(41, 171, 135)" stroke="black" stroke-width="1" onmouseover="setChange(evt)" onmouseout="unhiliteChange(evt)" onclick="changeMe(evt)" points="115.98,107.943 85.9803,107.943 70.9803,133.923 85.9813,159.904 115.981,159.904 130.98,133.923" seed="3"/><polygon fill="rgb(224, 176, 255)" stroke="black" stroke-width="1" onmouseover="setChange(evt)" onmouseout="unhiliteChange(evt)" onclick="changeMe(evt)" points="115.98,159.904 85.9813,159.904 85.9813,189.903 115.981,189.904" seed="4"/><polygon fill="rgb(224, 176, 255)" stroke="black" stroke-width="1" onmouseover="setChange(evt)" onmouseout="unhiliteChange(evt)" onclick="changeMe(evt)" points="156.961,148.923 130.98,133.923 115.981,159.904 141.961,174.903" seed="5"/><polygon fill="rgb(224, 176, 255)" stroke="black" stroke-width="1" onmouseover="setChange(evt)" onmouseout="unhiliteChange(evt)" onclick="changeMe(evt)" points="156.961,118.924 141.961,92.943 115.981,107.943 130.98,133.923" seed="6"/><polygon fill="rgb(224, 176, 255)" stroke="black" stroke-width="1" onmouseover="setChange(evt)" onmouseout="unhiliteChange(evt)" onclick="changeMe(evt)" points="126.961,66.962 111.961,40.98 85.9813,55.981 100.98,81.962" seed="7"/><polygon fill="rgb(224, 176, 255)" stroke="black" stroke-width="1" onmouseover="setChange(evt)" onmouseout="unhiliteChange(evt)" onclick="changeMe(evt)" points="141.961,92.943 126.961,66.962 100.98,81.962 115.98,107.943" seed="8"/><polygon fill="rgb(224, 176, 255)" stroke="black" stroke-width="1" onmouseover="setChange(evt)" onmouseout="unhiliteChange(evt)" onclick="changeMe(evt)" points="85.9803,25.981 55.9803,25.981 55.9813,55.98 85.9803,55.98" seed="9"/><polygon fill="rgb(224, 176, 255)" stroke="black" stroke-width="1" onmouseover="setChange(evt)" onmouseout="unhiliteChange(evt)" onclick="changeMe(evt)" points="55.9803,55.98 30.0003,40.981 14.9995,66.962 40.9813,81.962" seed="10"/><polygon fill="rgb(147, 112, 219)" stroke="black" stroke-width="1" onmouseover="setChange(evt)" onmouseout="unhiliteChange(evt)" onclick="changeMe(evt)" points="30.0003,40.981 -4.57764e-005,40.98 14.9995,66.962" seed="11"/><polygon fill="rgb(147, 112, 219)" stroke="black" stroke-width="1" onmouseover="setChange(evt)" onmouseout="unhiliteChange(evt)" onclick="changeMe(evt)" points="55.9813,55.98 55.9803,25.981 30.0003,40.981" seed="12"/><polygon fill="rgb(147, 112, 219)" stroke="black" stroke-width="1" onmouseover="setChange(evt)" onmouseout="unhiliteChange(evt)" onclick="changeMe(evt)" points="85.9803,25.981 70.9813,0 55.9803,25.981" seed="13"/><polygon fill="rgb(147, 112, 219)" stroke="black" stroke-width="1" onmouseover="setChange(evt)" onmouseout="unhiliteChange(evt)" onclick="changeMe(evt)" points="111.961,40.981 85.9803,25.981 85.9803,55.981" seed="14"/><polygon fill="rgb(147, 112, 219)" stroke="black" stroke-width="1" onmouseover="setChange(evt)" onmouseout="unhiliteChange(evt)" onclick="changeMe(evt)" points="156.96,148.924 156.961,118.924 130.98,133.923" seed="15"/><polygon fill="rgb(147, 112, 219)" stroke="black" stroke-width="1" onmouseover="setChange(evt)" onmouseout="unhiliteChange(evt)" onclick="changeMe(evt)" points="141.961,174.903 115.98,159.903 115.981,189.904" seed="16"/></g>
</svg>
