<?xml version="1.0" encoding="utf-8"?>
<svg xmlns="http://www.w3.org/2000/svg" id="mainSVG" pointer-events="all" width="212.943" height="152.943" EdgeLen="30" template="u6_497_tu" code="A8_8_2_0" copyright="Francis Hemsher, 2012">
	<polygon id="BorderPoly" fill="none" pointer-events="none" stroke="red" stroke-width="4" transform="" points="197.944,15.0015 167.944,15.001 141.964,-3.8147e-005 126.963,25.9803 96.9615,25.9813 70.9815,40.9823 55.9805,66.9633 25.9815,66.9623 25.9805,96.9613 0.000495911,111.961 14.9995,137.942 40.9795,152.942 70.9795,152.943 96.9605,137.944 96.9615,107.943 126.961,107.943 141.961,81.9623 167.943,66.9623 197.943,66.9633 212.943,40.9833"/>
	<g id="mainPolyG" transform=""><polygon id="mainPoly" fill="rgb(252, 194, 0)" stroke="black" onmouseover="setChange(evt)" onmouseout="unhiliteChange(evt)" onclick="changeMe(evt)" points="126.961,55.9813 96.9615,55.9813 81.9615,81.9623 96.9615,107.943 126.961,107.943 141.961,81.9623" seed="0"/><polygon fill="rgb(224, 176, 255)" stroke="black" stroke-width="1" onmouseover="setChange(evt)" onmouseout="unhiliteChange(evt)" onclick="changeMe(evt)" points="96.9605,107.943 81.9615,81.9623 55.9805,96.9623 70.9805,122.943" seed="1"/><polygon fill="rgb(224, 176, 255)" stroke="black" stroke-width="1" onmouseover="setChange(evt)" onmouseout="unhiliteChange(evt)" onclick="changeMe(evt)" points="167.943,66.9633 152.943,40.9813 126.963,55.9823 141.961,81.9623" seed="2"/><polygon fill="rgb(224, 176, 255)" stroke="black" stroke-width="1" onmouseover="setChange(evt)" onmouseout="unhiliteChange(evt)" onclick="changeMe(evt)" points="126.961,25.9823 96.9615,25.9813 96.9625,55.9813 126.961,55.9813" seed="3"/><polygon fill="rgb(224, 176, 255)" stroke="black" stroke-width="1" onmouseover="setChange(evt)" onmouseout="unhiliteChange(evt)" onclick="changeMe(evt)" points="96.9615,55.9813 70.9815,40.9823 55.9805,66.9623 81.9625,81.9623" seed="4"/><polygon fill="rgb(147, 112, 219)" stroke="black" stroke-width="1" onmouseover="setChange(evt)" onmouseout="unhiliteChange(evt)" onclick="changeMe(evt)" points="152.943,40.9813 126.961,25.9823 126.963,55.9823" seed="5"/><polygon fill="rgb(147, 112, 219)" stroke="black" stroke-width="1" onmouseover="setChange(evt)" onmouseout="unhiliteChange(evt)" onclick="changeMe(evt)" points="96.9625,55.9813 96.9615,25.9813 70.9815,40.9823" seed="6"/><polygon fill="rgb(147, 112, 219)" stroke="black" stroke-width="1" onmouseover="setChange(evt)" onmouseout="unhiliteChange(evt)" onclick="changeMe(evt)" points="81.9625,81.9623 55.9805,66.9633 55.9815,96.9633" seed="7"/><polygon fill="rgb(147, 112, 219)" stroke="black" stroke-width="1" onmouseover="setChange(evt)" onmouseout="unhiliteChange(evt)" onclick="changeMe(evt)" points="70.9805,122.943 55.9805,96.9623 40.9805,122.942" seed="8"/><polygon fill="rgb(147, 112, 219)" stroke="black" stroke-width="1" onmouseover="setChange(evt)" onmouseout="unhiliteChange(evt)" onclick="changeMe(evt)" points="55.9805,96.9623 25.9805,96.9613 40.9805,122.942" seed="9"/><polygon fill="rgb(224, 176, 255)" stroke="black" stroke-width="1" onmouseover="setChange(evt)" onmouseout="unhiliteChange(evt)" onclick="changeMe(evt)" points="55.9815,66.9623 25.9815,66.9623 25.9805,96.9613 55.9805,96.9623" seed="10"/><polygon fill="rgb(224, 176, 255)" stroke="black" stroke-width="1" onmouseover="setChange(evt)" onmouseout="unhiliteChange(evt)" onclick="changeMe(evt)" points="40.9805,122.942 25.9805,96.9613 0.000495911,111.961 14.9995,137.942" seed="11"/><polygon fill="rgb(224, 176, 255)" stroke="black" stroke-width="1" onmouseover="setChange(evt)" onmouseout="unhiliteChange(evt)" onclick="changeMe(evt)" points="70.9805,122.943 40.9805,122.942 40.9795,152.942 70.9795,152.943" seed="12"/><polygon fill="rgb(147, 112, 219)" stroke="black" stroke-width="1" onmouseover="setChange(evt)" onmouseout="unhiliteChange(evt)" onclick="changeMe(evt)" points="40.9795,152.942 40.9805,122.942 14.9995,137.941" seed="13"/><polygon fill="rgb(147, 112, 219)" stroke="black" stroke-width="1" onmouseover="setChange(evt)" onmouseout="unhiliteChange(evt)" onclick="changeMe(evt)" points="96.9605,137.944 70.9805,122.943 70.9795,152.943" seed="14"/><polygon fill="rgb(147, 112, 219)" stroke="black" stroke-width="1" onmouseover="setChange(evt)" onmouseout="unhiliteChange(evt)" onclick="changeMe(evt)" points="96.9615,137.943 96.9605,107.943 70.9805,122.943" seed="15"/><polygon fill="rgb(41, 171, 135)" stroke="black" stroke-width="1" onmouseover="setChange(evt)" onmouseout="unhiliteChange(evt)" onclick="changeMe(evt)" points="197.944,15.0015 167.944,15.001 152.943,40.9813 167.943,66.9623 197.943,66.9633 212.943,40.9833" seed="16"/><polygon fill="rgb(224, 176, 255)" stroke="black" stroke-width="1" onmouseover="setChange(evt)" onmouseout="unhiliteChange(evt)" onclick="changeMe(evt)" points="167.944,15.001 141.964,-3.8147e-005 126.963,25.9803 152.943,40.9813" seed="17"/></g>
</svg>
