<?xml version="1.0" encoding="utf-8"?>
<svg xmlns="http://www.w3.org/2000/svg" id="mainSVG" pointer-events="all" width="208.923" height="249.903" EdgeLen="30" template="u6_111_tu" code="B10_3_0_2" copyright="Francis Hemsher, 2012">
	<polygon id="BorderPoly" fill="none" pointer-events="none" stroke="red" stroke-width="4" transform="" points="167.942,0 137.942,0 111.961,15 96.9611,40.981 70.982,55.98 55.981,81.96 55.981,111.961 40.981,137.942 15,152.942 0,178.923 25.98,193.923 40.981,219.903 40.98,249.903 66.962,234.903 96.96,234.903 111.961,208.923 137.942,193.923 152.942,167.942 152.942,137.942 167.942,111.962 193.923,96.962 208.923,70.981 208.923,40.981 193.923,15"/>
	<g id="mainPolyG" transform=""><polygon id="mainPoly" fill="rgb(252, 194, 0)" stroke="black" onmouseover="setChange(evt)" onmouseout="unhiliteChange(evt)" onclick="changeMe(evt)" points="111.961,96.962 81.9609,96.961 55.9808,111.961 40.9808,137.942 40.9798,167.942 55.9798,193.923 81.9609,208.923 111.961,208.923 137.942,193.923 152.942,167.942 152.942,137.942 137.942,111.962" seed="0"/><polygon fill="rgb(0, 128, 128)" stroke="black" stroke-width="1" onmouseover="setChange(evt)" onmouseout="unhiliteChange(evt)" onclick="changeMe(evt)" points="193.923,15 167.942,0 137.942,0 111.961,15 96.9609,40.981 96.9609,70.982 111.961,96.962 137.942,111.962 167.942,111.962 193.923,96.962 208.923,70.981 208.923,40.981" seed="1"/><polygon fill="rgb(147, 112, 219)" stroke="black" stroke-width="1" onmouseover="setChange(evt)" onmouseout="unhiliteChange(evt)" onclick="changeMe(evt)" points="111.961,96.962 96.9618,70.981 81.9609,96.961" seed="2"/><polygon fill="rgb(147, 112, 219)" stroke="black" stroke-width="1" onmouseover="setChange(evt)" onmouseout="unhiliteChange(evt)" onclick="changeMe(evt)" points="167.942,111.961 137.942,111.961 152.942,137.942" seed="3"/><polygon fill="rgb(147, 112, 219)" stroke="black" stroke-width="1" onmouseover="setChange(evt)" onmouseout="unhiliteChange(evt)" onclick="changeMe(evt)" points="55.9798,193.923 40.9798,167.942 25.9798,193.923" seed="4"/><polygon fill="rgb(147, 112, 219)" stroke="black" stroke-width="1" onmouseover="setChange(evt)" onmouseout="unhiliteChange(evt)" onclick="changeMe(evt)" points="111.961,208.923 81.9609,208.923 96.9598,234.903" seed="5"/><polygon fill="rgb(224, 176, 255)" stroke="black" stroke-width="1" onmouseover="setChange(evt)" onmouseout="unhiliteChange(evt)" onclick="changeMe(evt)" points="96.9618,70.981 70.9818,55.98 55.9808,81.96 81.9609,96.961" seed="6"/><polygon fill="rgb(224, 176, 255)" stroke="black" stroke-width="1" onmouseover="setChange(evt)" onmouseout="unhiliteChange(evt)" onclick="changeMe(evt)" points="81.9609,208.922 55.9798,193.923 40.9808,219.903 66.9609,234.903" seed="7"/><polygon fill="rgb(224, 176, 255)" stroke="black" stroke-width="1" onmouseover="setChange(evt)" onmouseout="unhiliteChange(evt)" onclick="changeMe(evt)" points="40.9798,167.942 14.9998,152.942 -0.000244141,178.923 25.9798,193.923" seed="8"/><polygon fill="rgb(147, 112, 219)" stroke="black" stroke-width="1" onmouseover="setChange(evt)" onmouseout="unhiliteChange(evt)" onclick="changeMe(evt)" points="81.9609,96.96 55.9808,81.96 55.9798,111.96" seed="9"/><polygon fill="rgb(147, 112, 219)" stroke="black" stroke-width="1" onmouseover="setChange(evt)" onmouseout="unhiliteChange(evt)" onclick="changeMe(evt)" points="96.9618,70.981 96.9628,40.981 70.9808,55.979" seed="10"/><polygon fill="rgb(147, 112, 219)" stroke="black" stroke-width="1" onmouseover="setChange(evt)" onmouseout="unhiliteChange(evt)" onclick="changeMe(evt)" points="40.9798,167.942 40.9808,137.942 14.9998,152.942" seed="11"/><polygon fill="rgb(147, 112, 219)" stroke="black" stroke-width="1" onmouseover="setChange(evt)" onmouseout="unhiliteChange(evt)" onclick="changeMe(evt)" points="55.9798,193.922 25.9798,193.922 40.9808,219.903" seed="12"/><polygon fill="rgb(147, 112, 219)" stroke="black" stroke-width="1" onmouseover="setChange(evt)" onmouseout="unhiliteChange(evt)" onclick="changeMe(evt)" points="96.9618,234.903 81.9609,208.922 66.9618,234.903" seed="13"/><polygon fill="rgb(147, 112, 219)" stroke="black" stroke-width="1" onmouseover="setChange(evt)" onmouseout="unhiliteChange(evt)" onclick="changeMe(evt)" points="66.9609,234.903 40.9808,219.903 40.9798,249.903" seed="14"/></g>
</svg>
