<?xml version="1.0" encoding="utf-8" ?>

		<svg xmlns="http://www.w3.org/2000/svg" id="mainSVG" pointer-events="all" onkeyup="attachKey(evt)" width="176.934" height="154.115" EdgeLen="30" template="B10_9_2_R">

		<polygon id="BorderPoly" fill="none" pointer-events="none" stroke="red" stroke-width="4" transform="" points="95.1927,0.00050354 65.1927,7.62939e-006 80.1917,25.9805 58.9778,47.1935 43.9778,73.1745 28.9777,99.1565 4.57764e-005,91.3905 14.9997,117.372 22.7647,146.351 52.7647,146.351 81.7428,154.116 111.743,154.115 96.7428,128.133 125.721,135.9 140.721,109.918 155.721,83.9375 176.935,62.7235 161.935,36.7435 132.957,28.9785 102.956,28.9785" />
		<g id="mainPolyG" transform=""><polygon id="mainPoly" fill="rgb(252, 194, 0)" stroke="black" onmouseover="setChange(evt)" onmouseout="unhiliteChange(evt)" onclick="changeMe(evt)" points="73.9778,73.1745 43.9778,73.1745 28.9777,99.1565 43.9778,125.137 73.9778,125.137 88.9778,99.1565" seed="0" /><polygon fill="rgb(147, 112, 219)" stroke="black" stroke-width="1" onmouseover="setChange(evt)" onmouseout="unhiliteChange(evt)" onclick="changeMe(evt)" points="73.9778,73.1745 58.9778,47.1935 43.9778,73.1745" seed="1" /><polygon fill="rgb(91, 146, 229)" stroke="black" stroke-width="1" onmouseover="setChange(evt)" onmouseout="unhiliteChange(evt)" onclick="changeMe(evt)" transform="" points="28.9777,99.1565 4.57764e-005,91.3905 14.9997,117.372 43.9778,125.137" seed="2" /><polygon fill="rgb(91, 146, 229)" stroke="black" stroke-width="1" onmouseover="setChange(evt)" onmouseout="unhiliteChange(evt)" onclick="changeMe(evt)" transform="" points="73.9778,125.137 43.9778,125.137 22.7647,146.351 52.7647,146.351" seed="3" /><polygon fill="rgb(91, 146, 229)" stroke="black" stroke-width="1" onmouseover="setChange(evt)" onmouseout="unhiliteChange(evt)" onclick="changeMe(evt)" transform="" points="96.7428,128.133 88.9778,99.1565 73.9778,125.137 81.7428,154.116" seed="4" /><polygon fill="rgb(91, 146, 229)" stroke="black" stroke-width="1" onmouseover="setChange(evt)" onmouseout="unhiliteChange(evt)" onclick="changeMe(evt)" transform="" points="102.956,80.9395 73.9778,73.1745 88.9778,99.1565 117.956,106.921" seed="5" /><polygon fill="rgb(91, 146, 229)" stroke="black" stroke-width="1" onmouseover="setChange(evt)" onmouseout="unhiliteChange(evt)" onclick="changeMe(evt)" transform="" points="87.9557,54.9585 58.9778,47.1935 73.9778,73.1745 102.956,80.9395" seed="6" /><polygon fill="rgb(147, 112, 219)" stroke="black" stroke-width="1" onmouseover="setChange(evt)" onmouseout="unhiliteChange(evt)" onclick="changeMe(evt)" points="87.9557,54.9585 80.1917,25.9805 58.9778,47.1935" seed="7" /><polygon fill="rgb(41, 171, 135)" stroke="black" stroke-width="1" onmouseover="setChange(evt)" onmouseout="unhiliteChange(evt)" onclick="changeMe(evt)" points="132.957,28.9785 102.956,28.9785 87.9557,54.9585 102.956,80.9395 132.957,80.9395 147.957,54.9595" seed="8" /><polygon fill="rgb(91, 146, 229)" stroke="black" stroke-width="1" onmouseover="setChange(evt)" onmouseout="unhiliteChange(evt)" onclick="changeMe(evt)" transform="" points="102.957,28.9785 95.1927,0.00050354 80.1917,25.9805 87.9557,54.9585" seed="9" /><polygon fill="rgb(147, 112, 219)" stroke="black" stroke-width="1" onmouseover="setChange(evt)" onmouseout="unhiliteChange(evt)" onclick="changeMe(evt)" points="95.1927,0.00050354 65.1927,7.62939e-006 80.1917,25.9805" seed="10" /><polygon fill="rgb(91, 146, 229)" stroke="black" stroke-width="1" onmouseover="setChange(evt)" onmouseout="unhiliteChange(evt)" onclick="changeMe(evt)" transform="" points="161.935,36.7435 132.957,28.9785 147.957,54.9595 176.935,62.7235" seed="11" /><polygon fill="rgb(91, 146, 229)" stroke="black" stroke-width="1" onmouseover="setChange(evt)" onmouseout="unhiliteChange(evt)" onclick="changeMe(evt)" transform="" points="155.721,83.9375 147.957,54.9595 132.957,80.9405 140.721,109.918" seed="12" /><polygon fill="rgb(147, 112, 219)" stroke="black" stroke-width="1" onmouseover="setChange(evt)" onmouseout="unhiliteChange(evt)" onclick="changeMe(evt)" points="132.957,80.9395 102.957,80.9395 117.957,106.921" seed="13" /><polygon fill="rgb(91, 146, 229)" stroke="black" stroke-width="1" onmouseover="setChange(evt)" onmouseout="unhiliteChange(evt)" onclick="changeMe(evt)" transform="" points="140.722,109.919 132.957,80.9405 117.957,106.922 125.721,135.9" seed="14" /><polygon fill="rgb(147, 112, 219)" stroke="black" stroke-width="1" onmouseover="setChange(evt)" onmouseout="unhiliteChange(evt)" onclick="changeMe(evt)" points="125.721,135.9 117.957,106.922 96.7437,128.135" seed="15" /><polygon fill="rgb(147, 112, 219)" stroke="black" stroke-width="1" onmouseover="setChange(evt)" onmouseout="unhiliteChange(evt)" onclick="changeMe(evt)" points="117.956,106.921 88.9787,99.1565 96.7428,128.133" seed="16" /><polygon fill="rgb(147, 112, 219)" stroke="black" stroke-width="1" onmouseover="setChange(evt)" onmouseout="unhiliteChange(evt)" onclick="changeMe(evt)" points="81.7428,154.116 73.9778,125.137 52.7647,146.351" seed="17" /><polygon fill="rgb(147, 112, 219)" stroke="black" stroke-width="1" onmouseover="setChange(evt)" onmouseout="unhiliteChange(evt)" onclick="changeMe(evt)" points="43.9778,125.137 15.0007,117.372 22.7647,146.351" seed="18" /><polygon fill="rgb(147, 112, 219)" stroke="black" stroke-width="1" onmouseover="setChange(evt)" onmouseout="unhiliteChange(evt)" onclick="changeMe(evt)" points="176.935,62.7235 147.957,54.9595 155.721,83.9375" seed="19" /><polygon fill="rgb(147, 112, 219)" stroke="black" stroke-width="1" onmouseover="setChange(evt)" onmouseout="unhiliteChange(evt)" onclick="changeMe(evt)" points="111.743,154.115 96.7428,128.133 81.7428,154.116" seed="20" /></g>


		</svg>
