<?xml version="1.0" encoding="utf-8" ?>

		<svg xmlns="http://www.w3.org/2000/svg" id="mainSVG" pointer-events="all" onkeyup="attachKey(evt)" width="141.743" height="105.15" EdgeLen="30" template="B10_5_0_R">

		<polygon id="BorderPoly" fill="none" pointer-events="none" stroke="red" stroke-width="4" transform="" points="105.53,-4.19617e-005 75.5295,0.000457764 45.5295,0.000457764 15.5295,0.000457764 7.765,28.978 0,57.9558 21.2135,79.1688 36.2145,105.151 43.9785,76.1728 51.7435,47.194 81.7435,47.1945 111.744,47.1935 141.743,47.1935 126.744,21.213" />
		<g id="mainPolyG" transform=""><polygon id="mainPoly" fill="rgb(252, 194, 0)" stroke="black" onmouseover="setChange(evt)" onmouseout="unhiliteChange(evt)" onclick="changeMe(evt)" points="111.744,47.194 96.7435,21.2135 81.7435,47.1945" seed="0" /><polygon fill="rgb(147, 112, 219)" stroke="black" stroke-width="1" onmouseover="setChange(evt)" onmouseout="unhiliteChange(evt)" onclick="changeMe(evt)" points="96.7435,21.2135 66.7435,21.2135 81.7435,47.194" seed="1" /><polygon fill="rgb(147, 112, 219)" stroke="black" stroke-width="1" onmouseover="setChange(evt)" onmouseout="unhiliteChange(evt)" onclick="changeMe(evt)" points="81.7435,47.194 66.7435,21.2135 51.7435,47.194" seed="2" /><polygon fill="rgb(147, 112, 219)" stroke="black" stroke-width="1" onmouseover="setChange(evt)" onmouseout="unhiliteChange(evt)" onclick="changeMe(evt)" points="66.7435,21.2135 36.7435,21.2135 51.7435,47.194" seed="3" /><polygon fill="rgb(147, 112, 219)" stroke="black" stroke-width="1" onmouseover="setChange(evt)" onmouseout="unhiliteChange(evt)" onclick="changeMe(evt)" points="111.744,47.194 126.744,21.213 96.7435,21.2135" seed="4" /><polygon fill="rgb(147, 112, 219)" stroke="black" stroke-width="1" onmouseover="setChange(evt)" onmouseout="unhiliteChange(evt)" onclick="changeMe(evt)" points="141.743,47.1935 126.744,21.213 111.744,47.1935" seed="5" /><polygon fill="rgb(91, 146, 229)" stroke="black" stroke-width="1" onmouseover="setChange(evt)" onmouseout="unhiliteChange(evt)" onclick="changeMe(evt)" transform="" points="126.744,21.213 105.53,-4.19617e-005 75.5295,0.000457764 96.7435,21.2135" seed="6" /><polygon fill="rgb(91, 146, 229)" stroke="black" stroke-width="1" onmouseover="setChange(evt)" onmouseout="unhiliteChange(evt)" onclick="changeMe(evt)" transform="" points="75.5295,0.000457764 45.5295,0.000457764 66.7435,21.2135 96.7435,21.2135" seed="7" /><polygon fill="rgb(91, 146, 229)" stroke="black" stroke-width="1" onmouseover="setChange(evt)" onmouseout="unhiliteChange(evt)" onclick="changeMe(evt)" transform="" points="45.5295,0.000457764 15.5295,0.000457764 36.7435,21.2135 66.7435,21.2135" seed="8" /><polygon fill="rgb(147, 112, 219)" stroke="black" stroke-width="1" onmouseover="setChange(evt)" onmouseout="unhiliteChange(evt)" onclick="changeMe(evt)" points="36.7425,21.2135 15.5295,0.000457764 7.765,28.978" seed="9" /><polygon fill="rgb(147, 112, 219)" stroke="black" stroke-width="1" onmouseover="setChange(evt)" onmouseout="unhiliteChange(evt)" onclick="changeMe(evt)" points="28.978,50.1918 36.7425,21.2135 7.7645,28.978" seed="10" /><polygon fill="rgb(147, 112, 219)" stroke="black" stroke-width="1" onmouseover="setChange(evt)" onmouseout="unhiliteChange(evt)" onclick="changeMe(evt)" points="28.9775,50.1908 7.7645,28.978 0,57.9558" seed="11" /><polygon fill="rgb(147, 112, 219)" stroke="black" stroke-width="1" onmouseover="setChange(evt)" onmouseout="unhiliteChange(evt)" onclick="changeMe(evt)" points="21.2135,79.1688 28.9775,50.1908 -0.000495911,57.9558" seed="12" /><polygon fill="rgb(91, 146, 229)" stroke="black" stroke-width="1" onmouseover="setChange(evt)" onmouseout="unhiliteChange(evt)" onclick="changeMe(evt)" transform="" points="51.7415,47.1945 36.7425,21.2135 28.978,50.1918 43.9785,76.1728" seed="13" /><polygon fill="rgb(91, 146, 229)" stroke="black" stroke-width="1" onmouseover="setChange(evt)" onmouseout="unhiliteChange(evt)" onclick="changeMe(evt)" transform="" points="43.9785,76.1728 28.978,50.1918 21.214,79.1708 36.2145,105.151" seed="14" /></g>


		</svg>
