<?xml version="1.0" encoding="utf-8"?>
<svg xmlns="http://www.w3.org/2000/svg" id="mainSVG" pointer-events="all" width="178.923" height="152.943" EdgeLen="30" template="ark4_16_tu" code="B10_4_0_1" copyright="Francis Hemsher, 2012">
	<polygon id="BorderPoly" fill="none" pointer-events="none" stroke="red" stroke-width="4" transform="" points="55.9812,-4.57764e-005 40.9812,25.9808 15.0002,10.9805 15.0002,40.9808 0.000549316,66.9618 4.57764e-005,96.9618 15.0002,122.942 40.9812,137.942 70.9812,137.943 96.9613,122.943 122.942,137.942 148.922,152.943 163.923,126.961 163.922,96.9608 178.922,70.9798 178.923,40.9818 152.943,25.9818 126.963,40.9818 96.9622,40.9808 70.9812,25.9808"/>
	<g id="mainPolyG" transform=""><polygon id="mainPoly" fill="rgb(252, 194, 0)" stroke="black" onmouseover="setChange(evt)" onmouseout="unhiliteChange(evt)" onclick="changeMe(evt)" points="70.9812,25.9808 40.9812,25.9808 15.0002,40.9808 0.000549316,66.9618 4.57764e-005,96.9618 15.0002,122.942 40.9812,137.942 70.9812,137.943 96.9613,122.943 111.961,96.9618 111.962,66.9618 96.9622,40.9808" seed="0"/><polygon fill="rgb(147, 112, 219)" stroke="black" stroke-width="1" onmouseover="setChange(evt)" onmouseout="unhiliteChange(evt)" onclick="changeMe(evt)" points="70.9812,25.9808 55.9812,-4.57764e-005 40.9812,25.9808" seed="1"/><polygon fill="rgb(147, 112, 219)" stroke="black" stroke-width="1" onmouseover="setChange(evt)" onmouseout="unhiliteChange(evt)" onclick="changeMe(evt)" points="40.9812,25.9808 15.0002,10.9805 15.0002,40.9808" seed="2"/><polygon fill="rgb(224, 176, 255)" stroke="black" stroke-width="1" onmouseover="setChange(evt)" onmouseout="unhiliteChange(evt)" onclick="changeMe(evt)" points="137.942,111.962 111.961,96.9618 96.9613,122.943 122.942,137.942" seed="3"/><polygon fill="rgb(224, 176, 255)" stroke="black" stroke-width="1" onmouseover="setChange(evt)" onmouseout="unhiliteChange(evt)" onclick="changeMe(evt)" points="163.922,126.962 137.942,111.962 122.942,137.942 148.922,152.943" seed="4"/><polygon fill="rgb(147, 112, 219)" stroke="black" stroke-width="1" onmouseover="setChange(evt)" onmouseout="unhiliteChange(evt)" onclick="changeMe(evt)" points="137.942,111.962 137.941,81.9608 111.961,96.9618" seed="5"/><polygon fill="rgb(147, 112, 219)" stroke="black" stroke-width="1" onmouseover="setChange(evt)" onmouseout="unhiliteChange(evt)" onclick="changeMe(evt)" points="137.942,81.9618 111.962,66.9618 111.961,96.9618" seed="6"/><polygon fill="rgb(147, 112, 219)" stroke="black" stroke-width="1" onmouseover="setChange(evt)" onmouseout="unhiliteChange(evt)" onclick="changeMe(evt)" points="163.922,96.9608 137.941,81.9618 137.942,111.962" seed="7"/><polygon fill="rgb(147, 112, 219)" stroke="black" stroke-width="1" onmouseover="setChange(evt)" onmouseout="unhiliteChange(evt)" onclick="changeMe(evt)" points="163.923,126.961 163.922,96.9608 137.942,111.962" seed="8"/><polygon fill="rgb(224, 176, 255)" stroke="black" stroke-width="1" onmouseover="setChange(evt)" onmouseout="unhiliteChange(evt)" onclick="changeMe(evt)" points="152.943,55.9818 126.963,40.9818 111.962,66.9618 137.942,81.9618" seed="9"/><polygon fill="rgb(224, 176, 255)" stroke="black" stroke-width="1" onmouseover="setChange(evt)" onmouseout="unhiliteChange(evt)" onclick="changeMe(evt)" points="178.922,70.9798 152.941,55.9808 137.941,81.9618 163.922,96.9608" seed="10"/><polygon fill="rgb(147, 112, 219)" stroke="black" stroke-width="1" onmouseover="setChange(evt)" onmouseout="unhiliteChange(evt)" onclick="changeMe(evt)" points="111.962,66.9618 126.962,40.9808 96.9613,40.9808" seed="11"/><polygon fill="rgb(147, 112, 219)" stroke="black" stroke-width="1" onmouseover="setChange(evt)" onmouseout="unhiliteChange(evt)" onclick="changeMe(evt)" points="152.943,55.9818 152.943,25.9818 126.963,40.9808" seed="12"/><polygon fill="rgb(147, 112, 219)" stroke="black" stroke-width="1" onmouseover="setChange(evt)" onmouseout="unhiliteChange(evt)" onclick="changeMe(evt)" points="178.923,40.9818 152.943,25.9818 152.943,55.9818" seed="13"/><polygon fill="rgb(147, 112, 219)" stroke="black" stroke-width="1" onmouseover="setChange(evt)" onmouseout="unhiliteChange(evt)" onclick="changeMe(evt)" points="178.924,70.9818 178.923,40.9818 152.943,55.9818" seed="14"/></g>
</svg>
