<?xml version="1.0" encoding="utf-8"?>
<svg xmlns="http://www.w3.org/2000/svg" id="mainSVG" pointer-events="all" width="135.001" height="181.867" EdgeLen="30" template="u6_78_tu" code="B10_0_5_0" copyright="Francis Hemsher, 2012">
	<polygon id="BorderPoly" fill="none" pointer-events="none" stroke="red" stroke-width="4" transform="" points="120.001,25.9813 90.0008,25.9813 75.0008,-4.57764e-005 45.0007,-4.57764e-005 30.001,25.9813 15,51.9613 4.57764e-005,77.9423 15,103.924 4.57764e-005,129.905 15,155.886 45.0007,155.886 60.0007,181.867 90.0008,181.867 105.001,155.886 90.0008,129.905 105.001,103.924 120.001,77.9443 135.001,51.9622"/>
	<g id="mainPolyG" transform=""><polygon id="mainPoly" fill="rgb(252, 194, 0)" stroke="black" onmouseover="setChange(evt)" onmouseout="unhiliteChange(evt)" onclick="changeMe(evt)" points="90.0008,77.9433 60.0007,77.9433 45.0007,103.924 60.0007,129.905 90.0008,129.905 105.001,103.924" seed="0"/><polygon fill="rgb(41, 171, 135)" stroke="black" stroke-width="1" onmouseover="setChange(evt)" onmouseout="unhiliteChange(evt)" onclick="changeMe(evt)" points="90.0008,129.905 60.0007,129.905 45.0007,155.886 60.0007,181.867 90.0008,181.867 105.001,155.886" seed="1"/><polygon fill="rgb(41, 171, 135)" stroke="black" stroke-width="1" onmouseover="setChange(evt)" onmouseout="unhiliteChange(evt)" onclick="changeMe(evt)" points="45.0007,103.924 15,103.924 4.57764e-005,129.905 15,155.886 45.0007,155.886 60.0007,129.905" seed="2"/><polygon fill="rgb(147, 112, 219)" stroke="black" stroke-width="1" onmouseover="setChange(evt)" onmouseout="unhiliteChange(evt)" onclick="changeMe(evt)" points="90.0008,77.9433 75.0008,51.9622 60.0007,77.9433" seed="3"/><polygon fill="rgb(147, 112, 219)" stroke="black" stroke-width="1" onmouseover="setChange(evt)" onmouseout="unhiliteChange(evt)" onclick="changeMe(evt)" points="120.001,77.9443 90.0008,77.9443 105.001,103.924" seed="4"/><polygon fill="rgb(41, 171, 135)" stroke="black" stroke-width="1" onmouseover="setChange(evt)" onmouseout="unhiliteChange(evt)" onclick="changeMe(evt)" points="120.001,25.9813 90.0008,25.9813 75.0008,51.9622 90.0008,77.9433 120.001,77.9433 135.001,51.9622" seed="5"/><polygon fill="rgb(147, 112, 219)" stroke="black" stroke-width="1" onmouseover="setChange(evt)" onmouseout="unhiliteChange(evt)" onclick="changeMe(evt)" points="90.0008,25.9813 60.0007,25.9813 75.0008,51.9622" seed="6"/><polygon fill="rgb(41, 171, 135)" stroke="black" stroke-width="1" onmouseover="setChange(evt)" onmouseout="unhiliteChange(evt)" onclick="changeMe(evt)" points="60.0007,25.9813 30.0005,25.9813 15,51.9613 30,77.9423 59.9997,77.9423 75.0008,51.9622" seed="7"/><polygon fill="rgb(147, 112, 219)" stroke="black" stroke-width="1" onmouseover="setChange(evt)" onmouseout="unhiliteChange(evt)" onclick="changeMe(evt)" points="30,77.9423 15,51.9613 4.57764e-005,77.9423" seed="8"/><polygon fill="rgb(147, 112, 219)" stroke="black" stroke-width="1" onmouseover="setChange(evt)" onmouseout="unhiliteChange(evt)" onclick="changeMe(evt)" points="30,77.9423 4.57764e-005,77.9423 14.9995,103.923" seed="9"/><polygon fill="rgb(147, 112, 219)" stroke="black" stroke-width="1" onmouseover="setChange(evt)" onmouseout="unhiliteChange(evt)" onclick="changeMe(evt)" points="44.9997,103.923 30,77.9423 14.9995,103.923" seed="10"/><polygon fill="rgb(147, 112, 219)" stroke="black" stroke-width="1" onmouseover="setChange(evt)" onmouseout="unhiliteChange(evt)" onclick="changeMe(evt)" points="59.9997,77.9433 30,77.9423 44.9997,103.924" seed="11"/><polygon fill="rgb(147, 112, 219)" stroke="black" stroke-width="1" onmouseover="setChange(evt)" onmouseout="unhiliteChange(evt)" onclick="changeMe(evt)" points="60.0007,25.9813 45.0007,-4.57764e-005 30.001,25.9813" seed="12"/><polygon fill="rgb(147, 112, 219)" stroke="black" stroke-width="1" onmouseover="setChange(evt)" onmouseout="unhiliteChange(evt)" onclick="changeMe(evt)" points="75.0008,-4.57764e-005 45.0007,-4.57764e-005 60.0007,25.9803" seed="13"/><polygon fill="rgb(147, 112, 219)" stroke="black" stroke-width="1" onmouseover="setChange(evt)" onmouseout="unhiliteChange(evt)" onclick="changeMe(evt)" points="90.0008,25.9803 75.0008,-4.57764e-005 60.0007,25.9803" seed="14"/></g>
</svg>
