<?xml version="1.0" encoding="utf-8"?>
<svg xmlns="http://www.w3.org/2000/svg" id="mainSVG" pointer-events="all" width="260.887" height="343.926" EdgeLen="30" template="u5_38_tu" code="B12_15_6_2" copyright="Francis Hemsher, 2012">
	<polygon id="BorderPoly" fill="none" pointer-events="none" stroke="red" stroke-width="4" transform="" points="122.938,-0.000289917 96.9577,15.0007 66.9577,15.0007 66.9577,45.0027 40.9778,60.0037 25.9787,85.9847 25.9807,115.984 -0.000259399,130.984 14.9997,156.965 15.0007,186.965 0.000747681,212.946 25.9818,227.946 25.9807,257.946 40.9807,283.926 66.9617,298.926 66.9617,328.926 96.9617,328.927 122.944,343.927 148.924,328.927 148.923,298.926 163.923,272.946 189.905,257.946 189.905,227.946 219.904,227.947 245.885,212.948 260.886,186.967 260.887,156.967 245.887,130.986 219.907,115.985 189.907,115.985 189.902,85.9787 163.92,70.9797 148.92,44.9987 148.919,14.9997"/><g id="mainPolyG" transform=""><polygon id="mainPoly" fill="rgb(252, 194, 0)" stroke="black" onmouseover="setChange(evt)" onmouseout="unhiliteChange(evt)" onclick="changeMe(evt)" points="96.9617,186.965 66.9617,186.965 40.9818,201.965 25.9818,227.946 25.9807,257.946 40.9807,283.926 66.9617,298.926 96.9617,298.927 122.943,283.927 137.943,257.946 137.943,227.946 122.943,201.965" seed="0"/><polygon fill="rgb(224, 176, 255)" stroke="black" stroke-width="1" onmouseover="setChange(evt)" onmouseout="unhiliteChange(evt)" onclick="changeMe(evt)" points="96.9628,156.966 66.9628,156.965 66.9628,186.965 96.9617,186.965" seed="1"/><polygon fill="rgb(224, 176, 255)" stroke="black" stroke-width="1" onmouseover="setChange(evt)" onmouseout="unhiliteChange(evt)" onclick="changeMe(evt)" points="40.9818,201.965 15.0007,186.965 0.000747681,212.946 25.9818,227.946" seed="2"/><polygon fill="rgb(224, 176, 255)" stroke="black" stroke-width="1" onmouseover="setChange(evt)" onmouseout="unhiliteChange(evt)" onclick="changeMe(evt)" points="163.924,212.946 148.924,186.965 122.943,201.965 137.943,227.946" seed="3"/><polygon fill="rgb(224, 176, 255)" stroke="black" stroke-width="1" onmouseover="setChange(evt)" onmouseout="unhiliteChange(evt)" onclick="changeMe(evt)" points="163.924,272.946 137.942,257.946 122.943,283.927 148.923,298.926" seed="4"/><polygon fill="rgb(224, 176, 255)" stroke="black" stroke-width="1" onmouseover="setChange(evt)" onmouseout="unhiliteChange(evt)" onclick="changeMe(evt)" points="96.9617,298.927 66.9617,298.926 66.9617,328.926 96.9617,328.927" seed="5"/><polygon fill="rgb(41, 171, 135)" stroke="black" stroke-width="1" onmouseover="setChange(evt)" onmouseout="unhiliteChange(evt)" onclick="changeMe(evt)" points="148.924,298.927 122.943,283.927 96.9617,298.927 96.9617,328.927 122.944,343.927 148.924,328.927" seed="6"/><polygon fill="rgb(41, 171, 135)" stroke="black" stroke-width="1" onmouseover="setChange(evt)" onmouseout="unhiliteChange(evt)" onclick="changeMe(evt)" points="189.905,227.946 163.925,212.946 137.943,227.946 137.943,257.946 163.923,272.946 189.905,257.946" seed="7"/><polygon fill="rgb(41, 171, 135)" stroke="black" stroke-width="1" onmouseover="setChange(evt)" onmouseout="unhiliteChange(evt)" onclick="changeMe(evt)" points="148.924,156.965 122.943,141.965 96.9628,156.965 96.9617,186.965 122.943,201.965 148.924,186.965" seed="8"/><polygon fill="rgb(41, 171, 135)" stroke="black" stroke-width="1" onmouseover="setChange(evt)" onmouseout="unhiliteChange(evt)" onclick="changeMe(evt)" points="66.9617,156.965 40.9807,141.965 14.9997,156.965 14.9997,186.965 40.9818,201.965 66.9617,186.965" seed="9"/><polygon fill="rgb(64, 130, 109)" stroke="black" stroke-width="1" onmouseover="setChange(evt)" onmouseout="unhiliteChange(evt)" onclick="changeMe(evt)" points="219.907,115.985 189.907,115.985 163.925,130.984 148.925,156.965 148.924,186.965 163.924,212.946 189.904,227.947 219.904,227.947 245.885,212.948 260.886,186.967 260.887,156.967 245.887,130.986" seed="10"/><polygon fill="rgb(224, 176, 255)" stroke="black" stroke-width="1" onmouseover="setChange(evt)" onmouseout="unhiliteChange(evt)" onclick="changeMe(evt)" points="163.925,130.984 137.945,115.984 122.944,141.965 148.925,156.965" seed="11"/><polygon fill="rgb(224, 176, 255)" stroke="black" stroke-width="1" onmouseover="setChange(evt)" onmouseout="unhiliteChange(evt)" onclick="changeMe(evt)" points="81.9608,130.983 55.9798,115.984 40.9807,141.965 66.9608,156.964" seed="12"/><polygon fill="rgb(224, 176, 255)" stroke="black" stroke-width="1" onmouseover="setChange(evt)" onmouseout="unhiliteChange(evt)" onclick="changeMe(evt)" points="40.9807,141.965 25.9807,115.984 -0.000259399,130.984 14.9997,156.965" seed="13"/><polygon fill="rgb(224, 176, 255)" stroke="black" stroke-width="1" onmouseover="setChange(evt)" onmouseout="unhiliteChange(evt)" onclick="changeMe(evt)" points="122.943,141.965 107.943,115.984 81.9628,130.985 96.9628,156.965" seed="14"/><polygon fill="rgb(147, 112, 219)" stroke="black" stroke-width="1" onmouseover="setChange(evt)" onmouseout="unhiliteChange(evt)" onclick="changeMe(evt)" points="107.943,115.984 81.9617,100.985 81.9628,130.985" seed="15"/><polygon fill="rgb(147, 112, 219)" stroke="black" stroke-width="1" onmouseover="setChange(evt)" onmouseout="unhiliteChange(evt)" onclick="changeMe(evt)" points="81.9608,130.983 81.9597,100.983 55.9798,115.984" seed="16"/><polygon fill="rgb(147, 112, 219)" stroke="black" stroke-width="1" onmouseover="setChange(evt)" onmouseout="unhiliteChange(evt)" onclick="changeMe(evt)" points="81.9597,100.983 55.9787,85.9837 55.9798,115.984" seed="17"/><polygon fill="rgb(147, 112, 219)" stroke="black" stroke-width="1" onmouseover="setChange(evt)" onmouseout="unhiliteChange(evt)" onclick="changeMe(evt)" points="81.9597,100.983 81.9587,70.9827 55.9787,85.9837" seed="18"/><polygon fill="rgb(147, 112, 219)" stroke="black" stroke-width="1" onmouseover="setChange(evt)" onmouseout="unhiliteChange(evt)" onclick="changeMe(evt)" points="107.94,85.9807 81.9587,70.9827 81.9597,100.982" seed="19"/><polygon fill="rgb(147, 112, 219)" stroke="black" stroke-width="1" onmouseover="setChange(evt)" onmouseout="unhiliteChange(evt)" onclick="changeMe(evt)" points="107.942,115.981 107.941,85.9807 81.9597,100.982" seed="20"/><polygon fill="rgb(224, 176, 255)" stroke="black" stroke-width="1" onmouseover="setChange(evt)" onmouseout="unhiliteChange(evt)" onclick="changeMe(evt)" points="81.9587,70.9827 66.9577,45.0027 40.9778,60.0037 55.9787,85.9837" seed="21"/><polygon fill="rgb(224, 176, 255)" stroke="black" stroke-width="1" onmouseover="setChange(evt)" onmouseout="unhiliteChange(evt)" onclick="changeMe(evt)" points="122.939,59.9997 96.9577,45.0007 81.9587,70.9827 107.94,85.9807" seed="22"/><polygon fill="rgb(224, 176, 255)" stroke="black" stroke-width="1" onmouseover="setChange(evt)" onmouseout="unhiliteChange(evt)" onclick="changeMe(evt)" points="137.942,115.98 137.941,85.9797 107.941,85.9807 107.942,115.981" seed="23"/><polygon fill="rgb(224, 176, 255)" stroke="black" stroke-width="1" onmouseover="setChange(evt)" onmouseout="unhiliteChange(evt)" onclick="changeMe(evt)" points="55.9798,115.983 55.9787,85.9837 25.9787,85.9847 25.9798,115.985" seed="24"/><polygon fill="rgb(41, 171, 135)" stroke="black" stroke-width="1" onmouseover="setChange(evt)" onmouseout="unhiliteChange(evt)" onclick="changeMe(evt)" points="148.919,14.9997 122.938,-0.000289917 96.9577,15.0007 96.9577,45.0007 122.939,59.9997 148.92,44.9987" seed="25"/><polygon fill="rgb(224, 176, 255)" stroke="black" stroke-width="1" onmouseover="setChange(evt)" onmouseout="unhiliteChange(evt)" onclick="changeMe(evt)" points="163.92,70.9797 148.919,44.9997 122.939,59.9997 137.94,85.9797" seed="26"/><polygon fill="rgb(224, 176, 255)" stroke="black" stroke-width="1" onmouseover="setChange(evt)" onmouseout="unhiliteChange(evt)" onclick="changeMe(evt)" points="96.9577,45.0007 96.9577,15.0007 66.9577,15.0007 66.9577,45.0007" seed="27"/><polygon fill="rgb(147, 112, 219)" stroke="black" stroke-width="1" onmouseover="setChange(evt)" onmouseout="unhiliteChange(evt)" onclick="changeMe(evt)" points="81.9587,70.9827 96.9577,45.0017 66.9577,45.0017" seed="28"/><polygon fill="rgb(147, 112, 219)" stroke="black" stroke-width="1" onmouseover="setChange(evt)" onmouseout="unhiliteChange(evt)" onclick="changeMe(evt)" points="137.94,85.9797 122.939,59.9997 107.94,85.9817" seed="29"/><polygon fill="rgb(147, 112, 219)" stroke="black" stroke-width="1" onmouseover="setChange(evt)" onmouseout="unhiliteChange(evt)" onclick="changeMe(evt)" points="122.943,141.962 137.942,115.98 107.942,115.981" seed="30"/><polygon fill="rgb(147, 112, 219)" stroke="black" stroke-width="1" onmouseover="setChange(evt)" onmouseout="unhiliteChange(evt)" onclick="changeMe(evt)" points="96.9628,156.966 81.9628,130.985 66.9628,156.966" seed="31"/><polygon fill="rgb(147, 112, 219)" stroke="black" stroke-width="1" onmouseover="setChange(evt)" onmouseout="unhiliteChange(evt)" onclick="changeMe(evt)" points="40.9798,141.965 55.9798,115.984 25.9798,115.985" seed="32"/><polygon fill="rgb(147, 112, 219)" stroke="black" stroke-width="1" onmouseover="setChange(evt)" onmouseout="unhiliteChange(evt)" onclick="changeMe(evt)" points="55.9787,85.9837 40.9778,60.0037 25.9787,85.9847" seed="33"/><polygon fill="rgb(41, 171, 135)" stroke="black" stroke-width="1" onmouseover="setChange(evt)" onmouseout="unhiliteChange(evt)" onclick="changeMe(evt)" points="189.902,85.9787 163.921,70.9787 137.941,85.9797 137.942,115.98 163.923,130.98 189.904,115.978" seed="34"/></g></svg>
