<?xml version="1.0" encoding="utf-8"?>
<svg xmlns="http://www.w3.org/2000/svg" id="mainSVG" pointer-events="all" width="342.842" height="369.906" EdgeLen="30" template="u6_98_tu" code="B12_24_10_2" copyright="Francis Hemsher, 2012">
	<polygon id="BorderPoly" fill="none" pointer-events="none" stroke="red" stroke-width="4" transform="" points="219.898,0 189.898,0 163.917,15.0011 148.918,40.9821 148.918,70.9821 122.937,85.9811 96.955,70.9831 81.956,96.9641 55.975,111.966 55.976,141.966 40.978,167.947 14.997,182.949 14.998,212.949 0,238.93 25.981,253.929 25.98,283.927 55.979,283.927 81.961,298.926 96.962,324.906 96.962,354.907 122.944,369.906 148.924,354.905 148.926,324.907 163.924,298.926 189.9,283.924 219.899,283.924 245.88,298.923 260.88,324.903 286.859,309.904 301.86,283.924 301.861,253.924 327.841,238.924 342.841,212.943 342.842,182.943 327.842,156.962 301.861,141.962 271.861,141.962 271.861,111.962 245.879,96.9621 260.879,70.9811 260.879,40.9811 245.879,15.0001"/>
	<g id="mainPolyG" transform=""><polygon id="mainPoly" fill="rgb(252, 194, 0)" stroke="black" onmouseover="setChange(evt)" onmouseout="unhiliteChange(evt)" onclick="changeMe(evt)" points="301.861,141.962 271.861,141.962 245.88,156.962 230.88,182.943 230.88,212.943 245.88,238.923 271.861,253.923 301.861,253.924 327.841,238.924 342.841,212.943 342.842,182.943 327.842,156.962" seed="0"/><polygon fill="rgb(41, 171, 135)" stroke="black" stroke-width="1" onmouseover="setChange(evt)" onmouseout="unhiliteChange(evt)" onclick="changeMe(evt)" points="271.861,111.962 245.879,96.962 219.899,111.962 219.899,141.962 245.88,156.962 271.861,141.962" seed="1"/><polygon fill="rgb(0, 128, 128)" stroke="black" stroke-width="1" onmouseover="setChange(evt)" onmouseout="unhiliteChange(evt)" onclick="changeMe(evt)" points="245.879,15 219.898,-3.63798e-011 189.898,-3.63798e-011 163.917,15.001 148.918,40.982 148.918,70.982 163.918,96.963 189.899,111.962 219.899,111.962 245.88,96.962 260.879,70.981 260.879,40.981" seed="2"/><polygon fill="rgb(224, 176, 255)" stroke="black" stroke-width="1" onmouseover="setChange(evt)" onmouseout="unhiliteChange(evt)" onclick="changeMe(evt)" points="219.899,141.962 219.898,111.962 189.899,111.962 189.899,141.962" seed="3"/><polygon fill="rgb(224, 176, 255)" stroke="black" stroke-width="1" onmouseover="setChange(evt)" onmouseout="unhiliteChange(evt)" onclick="changeMe(evt)" points="245.88,156.962 219.9,141.962 204.899,167.943 230.881,182.943" seed="4"/><polygon fill="rgb(41, 171, 135)" stroke="black" stroke-width="1" onmouseover="setChange(evt)" onmouseout="unhiliteChange(evt)" onclick="changeMe(evt)" points="189.899,111.962 163.918,96.963 137.937,111.963 137.938,141.963 163.919,156.963 189.899,141.962" seed="5"/><polygon fill="rgb(224, 176, 255)" stroke="black" stroke-width="1" onmouseover="setChange(evt)" onmouseout="unhiliteChange(evt)" onclick="changeMe(evt)" points="163.918,96.962 148.918,70.982 122.937,85.981 137.937,111.962" seed="6"/><polygon fill="rgb(224, 176, 255)" stroke="black" stroke-width="1" onmouseover="setChange(evt)" onmouseout="unhiliteChange(evt)" onclick="changeMe(evt)" points="137.937,111.964 107.937,111.964 107.938,141.964 137.938,141.963" seed="7"/><polygon fill="rgb(224, 176, 255)" stroke="black" stroke-width="1" onmouseover="setChange(evt)" onmouseout="unhiliteChange(evt)" onclick="changeMe(evt)" points="163.919,156.963 137.938,141.963 122.938,167.944 148.919,182.944" seed="8"/><polygon fill="rgb(224, 176, 255)" stroke="black" stroke-width="1" onmouseover="setChange(evt)" onmouseout="unhiliteChange(evt)" onclick="changeMe(evt)" points="204.9,167.942 189.899,141.962 163.919,156.963 178.919,182.943" seed="9"/><polygon fill="rgb(147, 112, 219)" stroke="black" stroke-width="1" onmouseover="setChange(evt)" onmouseout="unhiliteChange(evt)" onclick="changeMe(evt)" points="137.937,111.962 122.937,85.981 107.937,111.962" seed="10"/><polygon fill="rgb(147, 112, 219)" stroke="black" stroke-width="1" onmouseover="setChange(evt)" onmouseout="unhiliteChange(evt)" onclick="changeMe(evt)" points="122.939,167.944 137.938,141.963 107.938,141.964" seed="11"/><polygon fill="rgb(147, 112, 219)" stroke="black" stroke-width="1" onmouseover="setChange(evt)" onmouseout="unhiliteChange(evt)" onclick="changeMe(evt)" points="178.919,182.943 163.919,156.962 148.919,182.944" seed="12"/><polygon fill="rgb(147, 112, 219)" stroke="black" stroke-width="1" onmouseover="setChange(evt)" onmouseout="unhiliteChange(evt)" onclick="changeMe(evt)" points="204.9,167.942 219.899,141.961 189.899,141.962" seed="13"/><polygon fill="rgb(41, 171, 135)" stroke="black" stroke-width="1" onmouseover="setChange(evt)" onmouseout="unhiliteChange(evt)" onclick="changeMe(evt)" points="107.937,111.964 81.956,96.964 55.975,111.966 55.976,141.966 81.958,156.964 107.938,141.964" seed="14"/><polygon fill="rgb(224, 176, 255)" stroke="black" stroke-width="1" onmouseover="setChange(evt)" onmouseout="unhiliteChange(evt)" onclick="changeMe(evt)" points="122.936,85.982 96.955,70.983 81.956,96.964 107.937,111.963" seed="15"/><polygon fill="rgb(224, 176, 255)" stroke="black" stroke-width="1" onmouseover="setChange(evt)" onmouseout="unhiliteChange(evt)" onclick="changeMe(evt)" points="122.939,167.944 107.938,141.964 81.958,156.964 96.958,182.945" seed="16"/><polygon fill="rgb(224, 176, 255)" stroke="black" stroke-width="1" onmouseover="setChange(evt)" onmouseout="unhiliteChange(evt)" onclick="changeMe(evt)" points="81.958,156.964 55.976,141.966 40.978,167.947 66.959,182.946" seed="17"/><polygon fill="rgb(147, 112, 219)" stroke="black" stroke-width="1" onmouseover="setChange(evt)" onmouseout="unhiliteChange(evt)" onclick="changeMe(evt)" points="96.959,182.944 81.958,156.964 66.959,182.946" seed="18"/><polygon fill="rgb(41, 171, 135)" stroke="black" stroke-width="1" onmouseover="setChange(evt)" onmouseout="unhiliteChange(evt)" onclick="changeMe(evt)" points="148.92,182.943 122.939,167.944 96.958,182.945 96.959,212.945 122.94,227.944 148.921,212.943" seed="19"/><polygon fill="rgb(224, 176, 255)" stroke="black" stroke-width="1" onmouseover="setChange(evt)" onmouseout="unhiliteChange(evt)" onclick="changeMe(evt)" points="96.959,212.945 96.958,182.945 66.958,182.946 66.96,212.946" seed="20"/><polygon fill="rgb(224, 176, 255)" stroke="black" stroke-width="1" onmouseover="setChange(evt)" onmouseout="unhiliteChange(evt)" onclick="changeMe(evt)" points="122.94,227.944 96.959,212.945 81.96,238.926 107.941,253.925" seed="21"/><polygon fill="rgb(224, 176, 255)" stroke="black" stroke-width="1" onmouseover="setChange(evt)" onmouseout="unhiliteChange(evt)" onclick="changeMe(evt)" points="163.921,238.923 148.921,212.943 122.94,227.944 137.941,253.924" seed="22"/><polygon fill="rgb(224, 176, 255)" stroke="black" stroke-width="1" onmouseover="setChange(evt)" onmouseout="unhiliteChange(evt)" onclick="changeMe(evt)" points="178.921,212.942 178.92,182.942 148.92,182.943 148.921,212.942" seed="23"/><polygon fill="rgb(41, 171, 135)" stroke="black" stroke-width="1" onmouseover="setChange(evt)" onmouseout="unhiliteChange(evt)" onclick="changeMe(evt)" points="230.881,182.942 204.9,167.942 178.919,182.943 178.92,212.944 204.902,227.943 230.882,212.942" seed="24"/><polygon fill="rgb(224, 176, 255)" stroke="black" stroke-width="1" onmouseover="setChange(evt)" onmouseout="unhiliteChange(evt)" onclick="changeMe(evt)" points="204.902,227.943 178.921,212.944 163.921,238.925 189.903,253.924" seed="25"/><polygon fill="rgb(224, 176, 255)" stroke="black" stroke-width="1" onmouseover="setChange(evt)" onmouseout="unhiliteChange(evt)" onclick="changeMe(evt)" points="245.883,238.922 230.882,212.942 204.902,227.942 219.903,253.923" seed="26"/><polygon fill="rgb(147, 112, 219)" stroke="black" stroke-width="1" onmouseover="setChange(evt)" onmouseout="unhiliteChange(evt)" onclick="changeMe(evt)" points="178.921,212.942 148.921,212.942 163.921,238.923" seed="27"/><polygon fill="rgb(147, 112, 219)" stroke="black" stroke-width="1" onmouseover="setChange(evt)" onmouseout="unhiliteChange(evt)" onclick="changeMe(evt)" points="81.961,238.926 96.96,212.945 66.96,212.946" seed="28"/><polygon fill="rgb(147, 112, 219)" stroke="black" stroke-width="1" onmouseover="setChange(evt)" onmouseout="unhiliteChange(evt)" onclick="changeMe(evt)" points="137.941,253.925 122.941,227.944 107.941,253.925" seed="29"/><polygon fill="rgb(41, 171, 135)" stroke="black" stroke-width="1" onmouseover="setChange(evt)" onmouseout="unhiliteChange(evt)" onclick="changeMe(evt)" points="66.958,182.946 40.977,167.947 14.997,182.949 14.998,212.949 40.98,227.947 66.96,212.946" seed="30"/><polygon fill="rgb(224, 176, 255)" stroke="black" stroke-width="1" onmouseover="setChange(evt)" onmouseout="unhiliteChange(evt)" onclick="changeMe(evt)" points="40.98,227.947 14.998,212.949 1.09139e-011,238.93 25.981,253.929" seed="31"/><polygon fill="rgb(224, 176, 255)" stroke="black" stroke-width="1" onmouseover="setChange(evt)" onmouseout="unhiliteChange(evt)" onclick="changeMe(evt)" points="81.961,238.925 66.96,212.946 40.98,227.947 55.981,253.927" seed="32"/><polygon fill="rgb(41, 171, 135)" stroke="black" stroke-width="1" onmouseover="setChange(evt)" onmouseout="unhiliteChange(evt)" onclick="changeMe(evt)" points="271.861,253.923 245.88,238.923 219.899,253.923 219.899,283.924 245.88,298.923 271.86,283.923" seed="33"/><polygon fill="rgb(224, 176, 255)" stroke="black" stroke-width="1" onmouseover="setChange(evt)" onmouseout="unhiliteChange(evt)" onclick="changeMe(evt)" points="219.899,253.924 189.899,253.924 189.9,283.924 219.899,283.924" seed="34"/><polygon fill="rgb(41, 171, 135)" stroke="black" stroke-width="1" onmouseover="setChange(evt)" onmouseout="unhiliteChange(evt)" onclick="changeMe(evt)" points="189.903,253.924 163.921,238.925 137.941,253.927 137.943,283.927 163.924,298.926 189.905,283.924" seed="35"/><polygon fill="rgb(224, 176, 255)" stroke="black" stroke-width="1" onmouseover="setChange(evt)" onmouseout="unhiliteChange(evt)" onclick="changeMe(evt)" points="137.943,283.927 137.941,253.928 107.941,253.929 107.944,283.929" seed="36"/><polygon fill="rgb(41, 171, 135)" stroke="black" stroke-width="1" onmouseover="setChange(evt)" onmouseout="unhiliteChange(evt)" onclick="changeMe(evt)" points="107.941,253.925 81.96,238.926 55.979,253.926 55.979,283.927 81.961,298.926 107.941,283.925" seed="37"/><polygon fill="rgb(224, 176, 255)" stroke="black" stroke-width="1" onmouseover="setChange(evt)" onmouseout="unhiliteChange(evt)" onclick="changeMe(evt)" points="55.979,253.927 25.979,253.927 25.98,283.927 55.979,283.927" seed="38"/><polygon fill="rgb(147, 112, 219)" stroke="black" stroke-width="1" onmouseover="setChange(evt)" onmouseout="unhiliteChange(evt)" onclick="changeMe(evt)" points="55.981,253.927 40.98,227.947 25.981,253.929" seed="39"/><polygon fill="rgb(147, 112, 219)" stroke="black" stroke-width="1" onmouseover="setChange(evt)" onmouseout="unhiliteChange(evt)" onclick="changeMe(evt)" points="219.903,253.923 204.902,227.943 189.903,253.924" seed="40"/><polygon fill="rgb(224, 176, 255)" stroke="black" stroke-width="1" onmouseover="setChange(evt)" onmouseout="unhiliteChange(evt)" onclick="changeMe(evt)" points="122.942,309.905 107.941,283.925 81.961,298.926 96.962,324.906" seed="41"/><polygon fill="rgb(224, 176, 255)" stroke="black" stroke-width="1" onmouseover="setChange(evt)" onmouseout="unhiliteChange(evt)" onclick="changeMe(evt)" points="163.924,298.926 137.943,283.927 122.944,309.909 148.926,324.907" seed="42"/><polygon fill="rgb(41, 171, 135)" stroke="black" stroke-width="1" onmouseover="setChange(evt)" onmouseout="unhiliteChange(evt)" onclick="changeMe(evt)" points="148.923,324.905 122.942,309.905 96.962,324.906 96.962,354.907 122.944,369.906 148.924,354.905" seed="43"/><polygon fill="rgb(147, 112, 219)" stroke="black" stroke-width="1" onmouseover="setChange(evt)" onmouseout="unhiliteChange(evt)" onclick="changeMe(evt)" points="122.942,309.905 137.941,283.924 107.941,283.925" seed="44"/><polygon fill="rgb(224, 176, 255)" stroke="black" stroke-width="1" onmouseover="setChange(evt)" onmouseout="unhiliteChange(evt)" onclick="changeMe(evt)" points="301.861,253.924 301.86,283.924 271.86,283.923 271.861,253.923" seed="45"/><polygon fill="rgb(224, 176, 255)" stroke="black" stroke-width="1" onmouseover="setChange(evt)" onmouseout="unhiliteChange(evt)" onclick="changeMe(evt)" points="271.86,283.923 286.86,309.903 260.88,324.903 245.88,298.923" seed="46"/><polygon fill="rgb(147, 112, 219)" stroke="black" stroke-width="1" onmouseover="setChange(evt)" onmouseout="unhiliteChange(evt)" onclick="changeMe(evt)" points="271.86,283.923 286.859,309.904 301.86,283.924" seed="47"/></g>
</svg>
