<?xml version="1.0" encoding="utf-8"?>
<svg xmlns="http://www.w3.org/2000/svg" id="mainSVG" pointer-events="all" width="180" height="155.886" EdgeLen="30" template="u4_8_tu" code="B12_0_7_0" copyright="Francis Hemsher, 2012">
	<polygon id="BorderPoly" fill="none" pointer-events="none" stroke="red" stroke-width="4" transform="" points="44.9998,0.00050354 29.9998,25.981 14.9998,51.962 -4.57764e-005,77.942 14.9998,103.923 29.9998,129.904 44.9998,155.885 74.9998,155.886 105,155.886 135,155.885 150.001,129.904 165,103.924 180.001,77.943 165.001,51.962 150,25.981 135,0.00050354 105,7.62939e-006 74.9998,7.62939e-006"/>
	<g id="mainPolyG" transform=""><polygon id="mainPoly" fill="rgb(252, 194, 0)" stroke="black" onmouseover="setChange(evt)" onmouseout="unhiliteChange(evt)" onclick="changeMe(evt)" points="105,51.962 74.9998,51.962 59.9998,77.943 74.9998,103.924 105,103.924 120,77.943" seed="0"/><polygon fill="rgb(41, 171, 135)" stroke="black" stroke-width="1" onmouseover="setChange(evt)" onmouseout="unhiliteChange(evt)" onclick="changeMe(evt)" points="105,7.62939e-006 74.9998,7.62939e-006 59.9998,25.981 74.9998,51.962 105,51.962 120,25.981" seed="1"/><polygon fill="rgb(41, 171, 135)" stroke="black" stroke-width="1" onmouseover="setChange(evt)" onmouseout="unhiliteChange(evt)" onclick="changeMe(evt)" points="150.001,25.981 120,25.981 105,51.962 120,77.943 150.001,77.943 165.001,51.962" seed="2"/><polygon fill="rgb(41, 171, 135)" stroke="black" stroke-width="1" onmouseover="setChange(evt)" onmouseout="unhiliteChange(evt)" onclick="changeMe(evt)" points="150,77.943 120,77.943 105,103.924 120,129.904 150.001,129.904 165,103.924" seed="3"/><polygon fill="rgb(41, 171, 135)" stroke="black" stroke-width="1" onmouseover="setChange(evt)" onmouseout="unhiliteChange(evt)" onclick="changeMe(evt)" points="105,103.924 74.9998,103.924 59.9998,129.905 74.9998,155.886 105,155.886 120,129.905" seed="4"/><polygon fill="rgb(41, 171, 135)" stroke="black" stroke-width="1" onmouseover="setChange(evt)" onmouseout="unhiliteChange(evt)" onclick="changeMe(evt)" points="59.9998,77.943 29.9998,77.943 14.9998,103.923 29.9998,129.904 59.9998,129.904 74.9998,103.924" seed="5"/><polygon fill="rgb(41, 171, 135)" stroke="black" stroke-width="1" onmouseover="setChange(evt)" onmouseout="unhiliteChange(evt)" onclick="changeMe(evt)" points="59.9998,25.981 29.9998,25.981 14.9998,51.962 29.9998,77.942 59.9998,77.943 74.9998,51.962" seed="6"/><polygon fill="rgb(147, 112, 219)" stroke="black" stroke-width="1" onmouseover="setChange(evt)" onmouseout="unhiliteChange(evt)" onclick="changeMe(evt)" points="59.9998,25.981 44.9998,0.00050354 29.9998,25.981" seed="7"/><polygon fill="rgb(147, 112, 219)" stroke="black" stroke-width="1" onmouseover="setChange(evt)" onmouseout="unhiliteChange(evt)" onclick="changeMe(evt)" points="59.9998,25.981 74.9998,7.62939e-006 44.9998,0.00050354" seed="8"/><polygon fill="rgb(147, 112, 219)" stroke="black" stroke-width="1" onmouseover="setChange(evt)" onmouseout="unhiliteChange(evt)" onclick="changeMe(evt)" points="135,0.00050354 105,7.62939e-006 120,25.981" seed="9"/><polygon fill="rgb(147, 112, 219)" stroke="black" stroke-width="1" onmouseover="setChange(evt)" onmouseout="unhiliteChange(evt)" onclick="changeMe(evt)" points="150,25.981 135,0.00050354 120,25.981" seed="10"/><polygon fill="rgb(147, 112, 219)" stroke="black" stroke-width="1" onmouseover="setChange(evt)" onmouseout="unhiliteChange(evt)" onclick="changeMe(evt)" points="180.001,77.943 165.001,51.962 150.001,77.943" seed="11"/><polygon fill="rgb(147, 112, 219)" stroke="black" stroke-width="1" onmouseover="setChange(evt)" onmouseout="unhiliteChange(evt)" onclick="changeMe(evt)" points="180.001,77.943 150.001,77.943 165,103.924" seed="12"/><polygon fill="rgb(147, 112, 219)" stroke="black" stroke-width="1" onmouseover="setChange(evt)" onmouseout="unhiliteChange(evt)" onclick="changeMe(evt)" points="150.001,129.904 120.001,129.904 135.001,155.885" seed="13"/><polygon fill="rgb(147, 112, 219)" stroke="black" stroke-width="1" onmouseover="setChange(evt)" onmouseout="unhiliteChange(evt)" onclick="changeMe(evt)" points="135,155.885 120,129.905 105,155.886" seed="14"/><polygon fill="rgb(147, 112, 219)" stroke="black" stroke-width="1" onmouseover="setChange(evt)" onmouseout="unhiliteChange(evt)" onclick="changeMe(evt)" points="59.9998,129.904 29.9998,129.904 44.9998,155.885" seed="15"/><polygon fill="rgb(147, 112, 219)" stroke="black" stroke-width="1" onmouseover="setChange(evt)" onmouseout="unhiliteChange(evt)" onclick="changeMe(evt)" points="74.9998,155.886 59.9998,129.905 44.9998,155.885" seed="16"/><polygon fill="rgb(147, 112, 219)" stroke="black" stroke-width="1" onmouseover="setChange(evt)" onmouseout="unhiliteChange(evt)" onclick="changeMe(evt)" points="29.9998,77.942 14.9998,51.962 -4.57764e-005,77.942" seed="17"/><polygon fill="rgb(147, 112, 219)" stroke="black" stroke-width="1" onmouseover="setChange(evt)" onmouseout="unhiliteChange(evt)" onclick="changeMe(evt)" points="29.9998,77.942 -4.57764e-005,77.942 14.9998,103.923" seed="18"/></g>
</svg>
