<?xml version="1.0" encoding="utf-8"?>
<svg xmlns="http://www.w3.org/2000/svg" id="mainSVG" pointer-events="all" width="286.868" height="324.904" EdgeLen="30" template="u6_94_tu" code="B12_18_8_3" copyright="Francis Hemsher, 2012">
	<polygon id="BorderPoly" fill="none" pointer-events="none" stroke="red" stroke-width="4" transform="" points="148.928,25.981 122.948,40.982 92.949,40.98 66.968,25.979 40.987,40.978 40.985,70.978 25.984,96.959 0.00299072,111.958 0.0019989,141.959 25.983,156.959 40.981,182.942 40.981,212.943 25.981,238.923 0,253.923 25.981,298.923 40.981,324.904 66.962,309.903 92.942,324.903 122.942,324.904 148.923,309.904 174.904,324.903 189.904,298.923 215.885,283.923 245.885,283.923 245.885,253.923 271.865,238.924 286.866,212.944 286.866,182.944 271.866,156.962 245.886,141.962 245.886,111.962 271.868,96.963 286.868,70.982 286.868,40.982 271.868,15.001 245.888,0 215.888,0 189.907,15 174.906,40.981"/>
	<g id="mainPolyG" transform=""><polygon id="mainPoly" fill="rgb(252, 194, 0)" stroke="black" onmouseover="setChange(evt)" onmouseout="unhiliteChange(evt)" onclick="changeMe(evt)" points="122.942,212.943 92.942,212.942 66.962,227.942 51.962,253.923 51.962,283.923 66.962,309.903 92.942,324.903 122.942,324.904 148.923,309.904 163.923,283.923 163.923,253.923 148.923,227.943" seed="0"/><polygon fill="rgb(224, 176, 255)" stroke="black" stroke-width="1" onmouseover="setChange(evt)" onmouseout="unhiliteChange(evt)" onclick="changeMe(evt)" points="122.943,182.943 92.943,182.942 92.943,212.942 122.942,212.943" seed="1"/><polygon fill="rgb(224, 176, 255)" stroke="black" stroke-width="1" onmouseover="setChange(evt)" onmouseout="unhiliteChange(evt)" onclick="changeMe(evt)" points="66.962,227.942 40.981,212.943 25.981,238.923 51.963,253.923" seed="2"/><polygon fill="rgb(224, 176, 255)" stroke="black" stroke-width="1" onmouseover="setChange(evt)" onmouseout="unhiliteChange(evt)" onclick="changeMe(evt)" points="66.962,309.903 51.962,283.923 25.981,298.923 40.981,324.904" seed="3"/><polygon fill="rgb(224, 176, 255)" stroke="black" stroke-width="1" onmouseover="setChange(evt)" onmouseout="unhiliteChange(evt)" onclick="changeMe(evt)" points="189.904,238.923 174.905,212.942 148.923,227.943 163.923,253.923" seed="4"/><polygon fill="rgb(224, 176, 255)" stroke="black" stroke-width="1" onmouseover="setChange(evt)" onmouseout="unhiliteChange(evt)" onclick="changeMe(evt)" points="189.904,298.923 163.923,283.923 148.923,309.904 174.904,324.903" seed="5"/><polygon fill="rgb(41, 171, 135)" stroke="black" stroke-width="1" onmouseover="setChange(evt)" onmouseout="unhiliteChange(evt)" onclick="changeMe(evt)" points="51.962,253.923 25.982,238.923 0,253.923 0,283.922 25.98,298.922 51.962,283.923" seed="6"/><polygon fill="rgb(41, 171, 135)" stroke="black" stroke-width="1" onmouseover="setChange(evt)" onmouseout="unhiliteChange(evt)" onclick="changeMe(evt)" points="92.942,182.942 66.961,167.942 40.981,182.942 40.981,212.942 66.962,227.942 92.942,212.942" seed="7"/><polygon fill="rgb(41, 171, 135)" stroke="black" stroke-width="1" onmouseover="setChange(evt)" onmouseout="unhiliteChange(evt)" onclick="changeMe(evt)" points="174.904,182.942 148.923,167.943 122.943,182.943 122.942,212.943 148.923,227.943 174.904,212.943" seed="8"/><polygon fill="rgb(41, 171, 135)" stroke="black" stroke-width="1" onmouseover="setChange(evt)" onmouseout="unhiliteChange(evt)" onclick="changeMe(evt)" points="215.886,253.923 189.905,238.923 163.923,253.923 163.923,283.923 189.904,298.923 215.885,283.923" seed="9"/><polygon fill="rgb(41, 171, 135)" stroke="black" stroke-width="1" onmouseover="setChange(evt)" onmouseout="unhiliteChange(evt)" onclick="changeMe(evt)" points="245.886,141.962 215.886,141.962 189.905,156.962 174.905,182.942 174.905,212.942 189.904,238.923 215.885,253.923 245.885,253.923 271.865,238.924 286.866,212.944 286.866,182.944 271.866,156.962" seed="10"/><polygon fill="rgb(224, 176, 255)" stroke="black" stroke-width="1" onmouseover="setChange(evt)" onmouseout="unhiliteChange(evt)" onclick="changeMe(evt)" points="245.886,111.962 215.886,111.962 215.887,141.962 245.886,141.962" seed="11"/><polygon fill="rgb(41, 171, 135)" stroke="black" stroke-width="1" onmouseover="setChange(evt)" onmouseout="unhiliteChange(evt)" onclick="changeMe(evt)" points="245.888,0 215.888,0 189.907,15 174.906,40.981 174.906,70.98 189.906,96.962 215.886,111.962 245.886,111.962 271.868,96.963 286.868,70.982 286.868,40.982 271.868,15.001" seed="12"/><polygon fill="rgb(41, 171, 135)" stroke="black" stroke-width="1" onmouseover="setChange(evt)" onmouseout="unhiliteChange(evt)" onclick="changeMe(evt)" points="215.886,111.962 189.905,96.962 163.925,111.963 163.925,141.963 189.906,156.962 215.887,141.962" seed="13"/><polygon fill="rgb(224, 176, 255)" stroke="black" stroke-width="1" onmouseover="setChange(evt)" onmouseout="unhiliteChange(evt)" onclick="changeMe(evt)" points="189.906,96.962 174.906,70.98 148.925,85.98 163.925,111.961" seed="14"/><polygon fill="rgb(224, 176, 255)" stroke="black" stroke-width="1" onmouseover="setChange(evt)" onmouseout="unhiliteChange(evt)" onclick="changeMe(evt)" points="189.905,156.962 163.925,141.962 148.924,167.942 174.905,182.942" seed="15"/><polygon fill="rgb(147, 112, 219)" stroke="black" stroke-width="1" onmouseover="setChange(evt)" onmouseout="unhiliteChange(evt)" onclick="changeMe(evt)" points="122.943,182.943 107.944,156.962 92.943,182.942" seed="16"/><polygon fill="rgb(224, 176, 255)" stroke="black" stroke-width="1" onmouseover="setChange(evt)" onmouseout="unhiliteChange(evt)" onclick="changeMe(evt)" points="107.944,156.962 81.964,141.96 66.963,167.941 92.943,182.941" seed="17"/><polygon fill="rgb(224, 176, 255)" stroke="black" stroke-width="1" onmouseover="setChange(evt)" onmouseout="unhiliteChange(evt)" onclick="changeMe(evt)" points="148.925,167.944 133.925,141.962 107.945,156.962 122.943,182.943" seed="18"/><polygon fill="rgb(147, 112, 219)" stroke="black" stroke-width="1" onmouseover="setChange(evt)" onmouseout="unhiliteChange(evt)" onclick="changeMe(evt)" points="107.944,156.962 107.945,126.962 81.964,141.96" seed="19"/><polygon fill="rgb(147, 112, 219)" stroke="black" stroke-width="1" onmouseover="setChange(evt)" onmouseout="unhiliteChange(evt)" onclick="changeMe(evt)" points="107.945,126.962 81.964,111.961 81.964,141.96" seed="20"/><polygon fill="rgb(147, 112, 219)" stroke="black" stroke-width="1" onmouseover="setChange(evt)" onmouseout="unhiliteChange(evt)" onclick="changeMe(evt)" points="107.945,126.962 107.946,96.962 81.964,111.961" seed="21"/><polygon fill="rgb(147, 112, 219)" stroke="black" stroke-width="1" onmouseover="setChange(evt)" onmouseout="unhiliteChange(evt)" onclick="changeMe(evt)" points="133.927,111.962 107.946,96.962 107.945,126.962" seed="22"/><polygon fill="rgb(147, 112, 219)" stroke="black" stroke-width="1" onmouseover="setChange(evt)" onmouseout="unhiliteChange(evt)" onclick="changeMe(evt)" points="133.925,141.962 133.927,111.962 107.945,126.961" seed="23"/><polygon fill="rgb(147, 112, 219)" stroke="black" stroke-width="1" onmouseover="setChange(evt)" onmouseout="unhiliteChange(evt)" onclick="changeMe(evt)" points="133.925,141.962 107.945,126.961 107.944,156.961" seed="24"/><polygon fill="rgb(224, 176, 255)" stroke="black" stroke-width="1" onmouseover="setChange(evt)" onmouseout="unhiliteChange(evt)" onclick="changeMe(evt)" points="163.927,111.963 133.927,111.962 133.925,141.962 163.925,141.963" seed="25"/><polygon fill="rgb(224, 176, 255)" stroke="black" stroke-width="1" onmouseover="setChange(evt)" onmouseout="unhiliteChange(evt)" onclick="changeMe(evt)" points="148.927,85.982 122.947,70.982 107.946,96.962 133.926,111.962" seed="26"/><polygon fill="rgb(224, 176, 255)" stroke="black" stroke-width="1" onmouseover="setChange(evt)" onmouseout="unhiliteChange(evt)" onclick="changeMe(evt)" points="107.946,96.962 92.947,70.98 66.966,85.979 81.965,111.961" seed="27"/><polygon fill="rgb(224, 176, 255)" stroke="black" stroke-width="1" onmouseover="setChange(evt)" onmouseout="unhiliteChange(evt)" onclick="changeMe(evt)" points="81.964,111.961 51.964,111.959 51.964,141.959 81.964,141.96" seed="28"/><polygon fill="rgb(147, 112, 219)" stroke="black" stroke-width="1" onmouseover="setChange(evt)" onmouseout="unhiliteChange(evt)" onclick="changeMe(evt)" points="81.964,111.961 66.966,85.979 51.964,111.959" seed="29"/><polygon fill="rgb(147, 112, 219)" stroke="black" stroke-width="1" onmouseover="setChange(evt)" onmouseout="unhiliteChange(evt)" onclick="changeMe(evt)" points="122.947,70.982 92.947,70.98 107.946,96.962" seed="30"/><polygon fill="rgb(147, 112, 219)" stroke="black" stroke-width="1" onmouseover="setChange(evt)" onmouseout="unhiliteChange(evt)" onclick="changeMe(evt)" points="163.926,111.963 148.927,85.982 133.926,111.962" seed="31"/><polygon fill="rgb(147, 112, 219)" stroke="black" stroke-width="1" onmouseover="setChange(evt)" onmouseout="unhiliteChange(evt)" onclick="changeMe(evt)" points="163.925,141.963 133.925,141.962 148.925,167.943" seed="32"/><polygon fill="rgb(147, 112, 219)" stroke="black" stroke-width="1" onmouseover="setChange(evt)" onmouseout="unhiliteChange(evt)" onclick="changeMe(evt)" points="81.964,141.96 51.964,141.959 66.964,167.941" seed="33"/><polygon fill="rgb(224, 176, 255)" stroke="black" stroke-width="1" onmouseover="setChange(evt)" onmouseout="unhiliteChange(evt)" onclick="changeMe(evt)" points="122.948,40.982 92.949,40.98 92.947,70.98 122.947,70.982" seed="34"/><polygon fill="rgb(41, 171, 135)" stroke="black" stroke-width="1" onmouseover="setChange(evt)" onmouseout="unhiliteChange(evt)" onclick="changeMe(evt)" points="174.909,40.982 148.928,25.981 122.948,40.981 122.946,70.981 148.927,85.982 174.908,70.982" seed="35"/><polygon fill="rgb(41, 171, 135)" stroke="black" stroke-width="1" onmouseover="setChange(evt)" onmouseout="unhiliteChange(evt)" onclick="changeMe(evt)" points="92.948,40.98 66.968,25.979 40.987,40.978 40.985,70.978 66.966,85.979 92.947,70.98" seed="36"/><polygon fill="rgb(41, 171, 135)" stroke="black" stroke-width="1" onmouseover="setChange(evt)" onmouseout="unhiliteChange(evt)" onclick="changeMe(evt)" points="51.964,111.959 25.984,96.959 0.00299072,111.958 0.0019989,141.959 25.983,156.959 51.964,141.959" seed="37"/><polygon fill="rgb(224, 176, 255)" stroke="black" stroke-width="1" onmouseover="setChange(evt)" onmouseout="unhiliteChange(evt)" onclick="changeMe(evt)" points="66.966,85.979 40.986,70.978 25.985,96.958 51.964,111.959" seed="38"/><polygon fill="rgb(224, 176, 255)" stroke="black" stroke-width="1" onmouseover="setChange(evt)" onmouseout="unhiliteChange(evt)" onclick="changeMe(evt)" points="66.964,167.941 51.964,141.96 25.983,156.959 40.982,182.94" seed="39"/><polygon fill="rgb(224, 176, 255)" stroke="black" stroke-width="1" onmouseover="setChange(evt)" onmouseout="unhiliteChange(evt)" onclick="changeMe(evt)" points="245.884,253.923 215.885,253.923 215.885,283.923 245.885,283.923" seed="40"/></g>
</svg>
