<svg xmlns="http://www.w3.org/2000/svg" id="mainSVG" pointer-events="all" width="205.982" height="252.85" EdgeLen="30" template="u4_95_tu" code="B14_9_7_0" copyright="Francis Hemsher, 2012">
	<polygon id="BorderPoly" fill="none" pointer-events="none" stroke="red" stroke-width="4" transform="" points="15.0012,1.90735e-005 45.0003,51.9619 45.0013,81.9617 45.0003,81.9617 4.19617e-005,159.904 14.9992,185.885 104.999,185.885 130.981,200.886 160.979,252.85 205.982,174.907 205.982,144.908 130.983,15.002 105.001,0.00201797"/><g id="mainPolyG" transform=""><polygon id="mainPoly" fill="rgb(147, 112, 219)" stroke="none" stroke-width="1" onmouseover="setChange(evt)" onmouseout="unhiliteChange(evt)" onclick="changeMe(evt)" points="90.0002,107.944 75.0002,81.9617 45.0003,81.9617 30.0002,107.944 45.0003,133.924 75.0002,133.924" seed="0"/><polygon fill="rgb(41, 171, 135)" stroke="black" stroke-width="1" onmouseover="setChange(evt)" onmouseout="unhiliteChange(evt)" onclick="changeMe(evt)" points="15.0002,133.924 30.0002,107.944 45.0003,133.924" seed="1"/><polygon fill="rgb(41, 171, 135)" stroke="black" stroke-width="1" onmouseover="setChange(evt)" onmouseout="unhiliteChange(evt)" onclick="changeMe(evt)" points="104.999,133.924 75.0002,133.924 90.0002,107.944" seed="2"/><polygon fill="rgb(41, 171, 135)" stroke="black" stroke-width="1" onmouseover="setChange(evt)" onmouseout="unhiliteChange(evt)" onclick="changeMe(evt)" points="60.0003,159.906 45.0003,133.924 75.0002,133.924" seed="3"/><polygon fill="rgb(255, 0, 0)" stroke="black" stroke-width="1" onmouseover="setChange(evt)" onmouseout="unhiliteChange(evt)" onclick="changeMe(evt)" points="60.0003,159.906 45.0003,133.924 15.0002,133.924 4.19617e-005,159.904 14.9992,185.885 44.9993,185.885" seed="4"/><polygon fill="rgb(41, 171, 135)" stroke="black" stroke-width="1" onmouseover="setChange(evt)" onmouseout="unhiliteChange(evt)" onclick="changeMe(evt)" points="74.9992,185.885 44.9993,185.885 60.0003,159.906" seed="5"/><polygon fill="rgb(147, 112, 219)" stroke="black" stroke-width="1" onmouseover="setChange(evt)" onmouseout="unhiliteChange(evt)" onclick="changeMe(evt)" points="104.999,133.924 75.0002,133.924 60.0003,159.906 75.0002,185.885 104.999,185.885 119.999,159.906" seed="6"/><polygon fill="rgb(224, 176, 255)" stroke="black" stroke-width="1" onmouseover="setChange(evt)" onmouseout="unhiliteChange(evt)" onclick="changeMe(evt)" points="130.981,200.886 104.999,185.885 119.999,159.906 145.981,174.905" seed="7"/><polygon fill="rgb(224, 176, 255)" stroke="black" stroke-width="1" onmouseover="setChange(evt)" onmouseout="unhiliteChange(evt)" onclick="changeMe(evt)" points="145.981,144.906 119.999,159.906 105.001,133.924 130.981,118.924" seed="8"/><polygon fill="rgb(0, 255, 0)" stroke="black" stroke-width="1" onmouseover="setChange(evt)" onmouseout="unhiliteChange(evt)" onclick="changeMe(evt)" points="145.979,174.905 145.981,144.906 119.999,159.906" seed="9"/><polygon fill="rgb(147, 112, 219)" stroke="black" stroke-width="1" onmouseover="setChange(evt)" onmouseout="unhiliteChange(evt)" onclick="changeMe(evt)" points="190.981,200.888 175.981,174.905 145.981,174.905 130.981,200.886 145.979,226.868 175.979,226.868" seed="10"/><polygon fill="rgb(224, 176, 255)" stroke="black" stroke-width="1" onmouseover="setChange(evt)" onmouseout="unhiliteChange(evt)" onclick="changeMe(evt)" points="175.981,144.906 175.981,174.905 145.981,174.905 145.981,144.906" seed="11"/><polygon fill="rgb(224, 176, 255)" stroke="black" stroke-width="1" onmouseover="setChange(evt)" onmouseout="unhiliteChange(evt)" onclick="changeMe(evt)" points="205.982,144.908 175.981,144.906 175.981,174.905 205.982,174.907" seed="12"/><polygon fill="rgb(41, 171, 135)" stroke="black" stroke-width="1" onmouseover="setChange(evt)" onmouseout="unhiliteChange(evt)" onclick="changeMe(evt)" points="205.982,174.905 190.981,200.888 175.981,174.905" seed="13"/><polygon fill="rgb(41, 171, 135)" stroke="black" stroke-width="1" onmouseover="setChange(evt)" onmouseout="unhiliteChange(evt)" onclick="changeMe(evt)" points="190.981,118.926 205.982,144.908 175.981,144.906" seed="14"/><polygon fill="rgb(147, 112, 219)" stroke="black" stroke-width="1" onmouseover="setChange(evt)" onmouseout="unhiliteChange(evt)" onclick="changeMe(evt)" points="175.981,92.9457 145.981,92.9437 130.981,118.924 145.981,144.906 175.981,144.906 190.981,118.926" seed="15"/><polygon fill="rgb(224, 176, 255)" stroke="black" stroke-width="1" onmouseover="setChange(evt)" onmouseout="unhiliteChange(evt)" onclick="changeMe(evt)" points="115.981,92.9437 90.0002,107.944 75.0012,81.9637 100.981,66.9619" seed="16"/><polygon fill="rgb(224, 176, 255)" stroke="black" stroke-width="1" onmouseover="setChange(evt)" onmouseout="unhiliteChange(evt)" onclick="changeMe(evt)" points="115.981,92.9437 90.0002,107.944 104.999,133.924 130.981,118.924" seed="17"/><polygon fill="rgb(224, 176, 255)" stroke="black" stroke-width="1" onmouseover="setChange(evt)" onmouseout="unhiliteChange(evt)" onclick="changeMe(evt)" points="75.0002,51.9629 75.0002,81.9617 45.0013,81.9617 45.0003,51.9619" seed="18"/><polygon fill="rgb(0, 255, 0)" stroke="black" stroke-width="1" onmouseover="setChange(evt)" onmouseout="unhiliteChange(evt)" onclick="changeMe(evt)" points="100.981,66.9629 75.0002,51.9629 75.0002,81.9637" seed="19"/><polygon fill="rgb(41, 171, 135)" stroke="black" stroke-width="1" onmouseover="setChange(evt)" onmouseout="unhiliteChange(evt)" onclick="changeMe(evt)" points="145.981,92.9437 130.981,118.924 115.981,92.9437" seed="20"/><polygon fill="rgb(41, 171, 135)" stroke="black" stroke-width="1" onmouseover="setChange(evt)" onmouseout="unhiliteChange(evt)" onclick="changeMe(evt)" points="160.983,66.9639 175.981,92.9457 145.981,92.9437" seed="21"/><polygon fill="rgb(147, 112, 219)" stroke="black" stroke-width="1" onmouseover="setChange(evt)" onmouseout="unhiliteChange(evt)" onclick="changeMe(evt)" points="145.981,40.9829 115.981,40.9819 100.981,66.9619 115.981,92.9437 145.981,92.9437 160.981,66.9639" seed="22"/><polygon fill="rgb(41, 171, 135)" stroke="black" stroke-width="1" onmouseover="setChange(evt)" onmouseout="unhiliteChange(evt)" onclick="changeMe(evt)" points="130.983,15.002 145.981,40.9829 115.981,40.9819" seed="23"/><polygon fill="rgb(224, 176, 255)" stroke="black" stroke-width="1" onmouseover="setChange(evt)" onmouseout="unhiliteChange(evt)" onclick="changeMe(evt)" points="90.0002,25.9819 115.981,40.9819 100.981,66.9629 75.0002,51.9629" seed="24"/><polygon fill="rgb(224, 176, 255)" stroke="black" stroke-width="1" onmouseover="setChange(evt)" onmouseout="unhiliteChange(evt)" onclick="changeMe(evt)" points="130.981,15.002 105.001,0.00201797 90.0002,25.9819 115.979,40.9819" seed="25"/><polygon fill="rgb(41, 171, 135)" stroke="black" stroke-width="1" onmouseover="setChange(evt)" onmouseout="unhiliteChange(evt)" onclick="changeMe(evt)" points="75.0012,1.90735e-005 105.001,0.00201797 90.0002,25.9819" seed="26"/><polygon fill="rgb(147, 112, 219)" stroke="black" stroke-width="1" onmouseover="setChange(evt)" onmouseout="unhiliteChange(evt)" onclick="changeMe(evt)" points="45.0013,0.00101852 30.0012,25.9809 45.0003,51.9619 75.0002,51.9629 90.0012,25.9819 75.0022,0.00101852" seed="27"/><polygon fill="rgb(41, 171, 135)" stroke="black" stroke-width="1" onmouseover="setChange(evt)" onmouseout="unhiliteChange(evt)" onclick="changeMe(evt)" points="15.0012,1.90735e-005 45.0013,0.00101852 30.0012,25.9809" seed="28"/><polygon fill="rgb(41, 171, 135)" stroke="black" stroke-width="1" onmouseover="setChange(evt)" onmouseout="unhiliteChange(evt)" onclick="changeMe(evt)" points="160.979,252.85 145.979,226.868 175.979,226.868" seed="29"/></g></svg>
