<?xml version="1.0" encoding="utf-8" ?>

		<svg xmlns="http://www.w3.org/2000/svg" id="mainSVG" pointer-events="all" onkeyup="attachKey(evt)" width="190.383" height="172.333" EdgeLen="30" template="B14_12_3_R">

		<polygon id="BorderPoly" fill="none" pointer-events="none" stroke="red" stroke-width="4" transform="" points="147.957,18.2183 117.957,18.2183 88.9787,25.9823 73.9787,0.000953674 43.9787,-4.57764e-005 15.0007,7.76395 4.57764e-005,33.7443 21.2127,54.9583 36.2128,80.9393 21.2127,106.919 42.4258,128.133 57.4247,154.115 86.4047,146.352 116.405,146.352 131.404,172.333 160.383,164.568 190.383,164.569 169.169,143.355 184.169,117.374 169.169,91.3932 147.956,70.1803 162.956,44.1992" />
		<g id="mainPolyG" transform=""><polygon id="mainPoly" fill="rgb(252, 194, 0)" stroke="black" onmouseover="setChange(evt)" onmouseout="unhiliteChange(evt)" onclick="changeMe(evt)" points="169.169,91.3932 139.169,91.3932 124.169,117.374 139.169,143.355 169.169,143.355 184.169,117.374" seed="0" /><polygon fill="rgb(91, 146, 229)" stroke="black" stroke-width="1" onmouseover="setChange(evt)" onmouseout="unhiliteChange(evt)" onclick="changeMe(evt)" transform="" points="147.956,70.1803 117.956,70.1803 139.169,91.3932 169.169,91.3932" seed="1" /><polygon fill="rgb(91, 146, 229)" stroke="black" stroke-width="1" onmouseover="setChange(evt)" onmouseout="unhiliteChange(evt)" onclick="changeMe(evt)" transform="" points="124.169,117.374 139.169,91.3932 110.191,99.1582 95.1908,125.139" seed="2" /><polygon fill="rgb(91, 146, 229)" stroke="black" stroke-width="1" onmouseover="setChange(evt)" onmouseout="unhiliteChange(evt)" onclick="changeMe(evt)" transform="" points="139.169,143.355 124.169,117.374 116.405,146.352 131.404,172.333" seed="3" /><polygon fill="rgb(91, 146, 229)" stroke="black" stroke-width="1" onmouseover="setChange(evt)" onmouseout="unhiliteChange(evt)" onclick="changeMe(evt)" transform="" points="169.169,143.355 139.169,143.355 160.383,164.568 190.383,164.569" seed="4" /><polygon fill="rgb(147, 112, 219)" stroke="black" stroke-width="1" onmouseover="setChange(evt)" onmouseout="unhiliteChange(evt)" onclick="changeMe(evt)" points="139.169,91.3932 117.956,70.1803 110.191,99.1582" seed="5" /><polygon fill="rgb(147, 112, 219)" stroke="black" stroke-width="1" onmouseover="setChange(evt)" onmouseout="unhiliteChange(evt)" onclick="changeMe(evt)" points="116.405,146.352 124.169,117.374 95.1917,125.139" seed="6" /><polygon fill="rgb(147, 112, 219)" stroke="black" stroke-width="1" onmouseover="setChange(evt)" onmouseout="unhiliteChange(evt)" onclick="changeMe(evt)" points="160.382,164.569 139.169,143.355 131.404,172.333" seed="7" /><polygon fill="rgb(41, 171, 135)" stroke="black" stroke-width="1" onmouseover="setChange(evt)" onmouseout="unhiliteChange(evt)" onclick="changeMe(evt)" points="147.957,18.2183 117.957,18.2183 102.956,44.1983 117.956,70.1803 147.956,70.1803 162.956,44.1992" seed="8" /><polygon fill="rgb(91, 146, 229)" stroke="black" stroke-width="1" onmouseover="setChange(evt)" onmouseout="unhiliteChange(evt)" onclick="changeMe(evt)" transform="" points="117.956,70.1803 102.957,44.1992 95.1917,73.1772 110.191,99.1582" seed="9" /><polygon fill="rgb(91, 146, 229)" stroke="black" stroke-width="1" onmouseover="setChange(evt)" onmouseout="unhiliteChange(evt)" onclick="changeMe(evt)" transform="" points="102.956,44.1983 117.957,18.2183 88.9787,25.9823 73.9778,51.9622" seed="10" /><polygon fill="rgb(147, 112, 219)" stroke="black" stroke-width="1" onmouseover="setChange(evt)" onmouseout="unhiliteChange(evt)" onclick="changeMe(evt)" points="95.1908,73.1763 102.956,44.1983 73.9787,51.9622" seed="11" /><polygon fill="rgb(41, 171, 135)" stroke="black" stroke-width="1" onmouseover="setChange(evt)" onmouseout="unhiliteChange(evt)" onclick="changeMe(evt)" points="73.9787,0.000953674 43.9787,-4.57764e-005 28.9777,25.9803 43.9778,51.9622 73.9778,51.9622 88.9787,25.9823" seed="12" /><polygon fill="rgb(91, 146, 229)" stroke="black" stroke-width="1" onmouseover="setChange(evt)" onmouseout="unhiliteChange(evt)" onclick="changeMe(evt)" transform="" points="73.9778,51.9622 43.9778,51.9622 65.1908,73.1752 95.1908,73.1763" seed="13" /><polygon fill="rgb(91, 146, 229)" stroke="black" stroke-width="1" onmouseover="setChange(evt)" onmouseout="unhiliteChange(evt)" onclick="changeMe(evt)" transform="" points="43.9778,51.9613 28.9777,25.9803 21.2127,54.9583 36.2128,80.9393" seed="14" /><polygon fill="rgb(91, 146, 229)" stroke="black" stroke-width="1" onmouseover="setChange(evt)" onmouseout="unhiliteChange(evt)" onclick="changeMe(evt)" transform="" points="28.9777,25.9803 43.9787,-4.57764e-005 15.0007,7.76395 4.57764e-005,33.7443" seed="15" /><polygon fill="rgb(147, 112, 219)" stroke="black" stroke-width="1" onmouseover="setChange(evt)" onmouseout="unhiliteChange(evt)" onclick="changeMe(evt)" points="21.2127,54.9583 28.9777,25.9803 0.000244141,33.7443" seed="16" /><polygon fill="rgb(147, 112, 219)" stroke="black" stroke-width="1" onmouseover="setChange(evt)" onmouseout="unhiliteChange(evt)" onclick="changeMe(evt)" points="65.1908,73.1752 43.9778,51.9613 36.2137,80.9393" seed="17" /><polygon fill="rgb(147, 112, 219)" stroke="black" stroke-width="1" onmouseover="setChange(evt)" onmouseout="unhiliteChange(evt)" onclick="changeMe(evt)" points="95.1908,73.1763 65.1908,73.1752 80.1908,99.1563" seed="18" /><polygon fill="rgb(147, 112, 219)" stroke="black" stroke-width="1" onmouseover="setChange(evt)" onmouseout="unhiliteChange(evt)" onclick="changeMe(evt)" points="110.191,99.1582 95.1908,73.1772 80.1908,99.1573" seed="19" /><polygon fill="rgb(147, 112, 219)" stroke="black" stroke-width="1" onmouseover="setChange(evt)" onmouseout="unhiliteChange(evt)" onclick="changeMe(evt)" points="110.191,99.1593 80.1908,99.1593 95.1908,125.139" seed="20" /><polygon fill="rgb(147, 112, 219)" stroke="black" stroke-width="1" onmouseover="setChange(evt)" onmouseout="unhiliteChange(evt)" onclick="changeMe(evt)" points="80.1908,99.1563 65.1908,73.1752 50.1908,99.1563" seed="21" /><polygon fill="rgb(147, 112, 219)" stroke="black" stroke-width="1" onmouseover="setChange(evt)" onmouseout="unhiliteChange(evt)" onclick="changeMe(evt)" points="80.1908,99.1563 50.1908,99.1563 65.1897,125.137" seed="22" /><polygon fill="rgb(147, 112, 219)" stroke="black" stroke-width="1" onmouseover="setChange(evt)" onmouseout="unhiliteChange(evt)" onclick="changeMe(evt)" points="95.1897,125.137 80.1908,99.1563 65.1897,125.137" seed="23" /><polygon fill="rgb(91, 146, 229)" stroke="black" stroke-width="1" onmouseover="setChange(evt)" onmouseout="unhiliteChange(evt)" onclick="changeMe(evt)" transform="" points="50.1908,99.1553 65.1917,73.1743 36.2137,80.9393 21.2127,106.919" seed="24" /><polygon fill="rgb(91, 146, 229)" stroke="black" stroke-width="1" onmouseover="setChange(evt)" onmouseout="unhiliteChange(evt)" onclick="changeMe(evt)" transform="" points="65.1897,125.137 50.1908,99.1563 42.4258,128.133 57.4247,154.115" seed="25" /><polygon fill="rgb(91, 146, 229)" stroke="black" stroke-width="1" onmouseover="setChange(evt)" onmouseout="unhiliteChange(evt)" onclick="changeMe(evt)" transform="" points="95.1917,125.139 65.1917,125.139 86.4047,146.352 116.405,146.352" seed="26" /><polygon fill="rgb(147, 112, 219)" stroke="black" stroke-width="1" onmouseover="setChange(evt)" onmouseout="unhiliteChange(evt)" onclick="changeMe(evt)" points="86.4027,146.35 65.1897,125.137 57.4247,154.115" seed="27" /><polygon fill="rgb(147, 112, 219)" stroke="black" stroke-width="1" onmouseover="setChange(evt)" onmouseout="unhiliteChange(evt)" onclick="changeMe(evt)" points="42.4258,128.133 50.1908,99.1553 21.2137,106.919" seed="28" /></g>


		</svg>
