<?xml version="1.0" encoding="utf-8"?>
<svg xmlns="http://www.w3.org/2000/svg" id="mainSVG" pointer-events="all" width="165.001" height="155.885" EdgeLen="30" template="u5_28_tu" code="B14_0_6_0" copyright="Francis Hemsher, 2012">
	<polygon id="BorderPoly" fill="none" pointer-events="none" stroke="red" stroke-width="4" transform="" points="74.9997,-4.57764e-005 44.9997,0.000953674 14.9995,0.000549316 4.57764e-005,25.9813 15.0005,51.9622 4.57764e-005,77.9433 15,103.923 4.57764e-005,129.904 15,155.885 44.9997,155.885 74.9997,155.885 89.9997,129.905 120.001,129.904 150.001,129.904 165.001,103.924 150.001,77.9433 165.001,51.9622 150.001,25.9813 120.001,25.9813 90.0008,25.9813"/>
	<g id="mainPolyG" transform=""><polygon id="mainPoly" fill="rgb(252, 194, 0)" stroke="black" onmouseover="setChange(evt)" onmouseout="unhiliteChange(evt)" onclick="changeMe(evt)" points="135.001,51.9622 105.001,51.9622 90.0008,77.9433 105.001,103.924 135.001,103.924 150.001,77.9433" seed="0"/><polygon fill="rgb(41, 171, 135)" stroke="black" stroke-width="1" onmouseover="setChange(evt)" onmouseout="unhiliteChange(evt)" onclick="changeMe(evt)" points="90.0008,25.9813 59.9997,25.9813 45.0007,51.9622 60.0008,77.9422 90.0008,77.9433 105.001,51.9622" seed="1"/><polygon fill="rgb(41, 171, 135)" stroke="black" stroke-width="1" onmouseover="setChange(evt)" onmouseout="unhiliteChange(evt)" onclick="changeMe(evt)" points="90.0008,77.9433 60.0008,77.9422 44.9997,103.923 59.9997,129.904 89.9997,129.905 105,103.924" seed="2"/><polygon fill="rgb(41, 171, 135)" stroke="black" stroke-width="1" onmouseover="setChange(evt)" onmouseout="unhiliteChange(evt)" onclick="changeMe(evt)" points="44.9997,0.000953674 14.9995,0.000549316 4.57764e-005,25.9813 15.0005,51.9622 45.0007,51.9622 59.9997,25.9813" seed="3"/><polygon fill="rgb(41, 171, 135)" stroke="black" stroke-width="1" onmouseover="setChange(evt)" onmouseout="unhiliteChange(evt)" onclick="changeMe(evt)" points="45.0007,51.9622 15,51.9622 4.57764e-005,77.9433 15,103.923 45.0007,103.923 60.0008,77.9422" seed="4"/><polygon fill="rgb(41, 171, 135)" stroke="black" stroke-width="1" onmouseover="setChange(evt)" onmouseout="unhiliteChange(evt)" onclick="changeMe(evt)" points="44.9997,103.923 15,103.923 4.57764e-005,129.904 15,155.885 44.9997,155.885 59.9997,129.904" seed="5"/><polygon fill="rgb(147, 112, 219)" stroke="black" stroke-width="1" onmouseover="setChange(evt)" onmouseout="unhiliteChange(evt)" onclick="changeMe(evt)" points="74.9997,-4.57764e-005 44.9997,-4.57764e-005 59.9997,25.9813" seed="6"/><polygon fill="rgb(147, 112, 219)" stroke="black" stroke-width="1" onmouseover="setChange(evt)" onmouseout="unhiliteChange(evt)" onclick="changeMe(evt)" points="89.9997,25.9802 74.9997,-4.57764e-005 59.9997,25.9813" seed="7"/><polygon fill="rgb(147, 112, 219)" stroke="black" stroke-width="1" onmouseover="setChange(evt)" onmouseout="unhiliteChange(evt)" onclick="changeMe(evt)" points="74.9997,155.885 59.9997,129.904 44.9997,155.885" seed="8"/><polygon fill="rgb(147, 112, 219)" stroke="black" stroke-width="1" onmouseover="setChange(evt)" onmouseout="unhiliteChange(evt)" onclick="changeMe(evt)" points="89.9997,129.905 59.9997,129.904 74.9987,155.885" seed="9"/><polygon fill="rgb(147, 112, 219)" stroke="black" stroke-width="1" onmouseover="setChange(evt)" onmouseout="unhiliteChange(evt)" onclick="changeMe(evt)" points="120.001,25.9813 90.0008,25.9813 105.001,51.9622" seed="10"/><polygon fill="rgb(147, 112, 219)" stroke="black" stroke-width="1" onmouseover="setChange(evt)" onmouseout="unhiliteChange(evt)" onclick="changeMe(evt)" points="135.001,51.9622 120.001,25.9813 105.001,51.9622" seed="11"/><polygon fill="rgb(147, 112, 219)" stroke="black" stroke-width="1" onmouseover="setChange(evt)" onmouseout="unhiliteChange(evt)" onclick="changeMe(evt)" points="150.001,25.9813 120.001,25.9813 135.001,51.9622" seed="12"/><polygon fill="rgb(147, 112, 219)" stroke="black" stroke-width="1" onmouseover="setChange(evt)" onmouseout="unhiliteChange(evt)" onclick="changeMe(evt)" points="165.001,51.9622 150.001,25.9813 135.001,51.9622" seed="13"/><polygon fill="rgb(147, 112, 219)" stroke="black" stroke-width="1" onmouseover="setChange(evt)" onmouseout="unhiliteChange(evt)" onclick="changeMe(evt)" points="165.001,51.9622 135.001,51.9622 150.001,77.9433" seed="14"/><polygon fill="rgb(147, 112, 219)" stroke="black" stroke-width="1" onmouseover="setChange(evt)" onmouseout="unhiliteChange(evt)" onclick="changeMe(evt)" points="165.001,103.924 150.001,77.9433 135.001,103.924" seed="15"/><polygon fill="rgb(147, 112, 219)" stroke="black" stroke-width="1" onmouseover="setChange(evt)" onmouseout="unhiliteChange(evt)" onclick="changeMe(evt)" points="135.001,103.924 105.001,103.924 120.001,129.905" seed="16"/><polygon fill="rgb(147, 112, 219)" stroke="black" stroke-width="1" onmouseover="setChange(evt)" onmouseout="unhiliteChange(evt)" onclick="changeMe(evt)" points="120,129.905 105,103.924 89.9997,129.905" seed="17"/><polygon fill="rgb(147, 112, 219)" stroke="black" stroke-width="1" onmouseover="setChange(evt)" onmouseout="unhiliteChange(evt)" onclick="changeMe(evt)" points="150.001,129.904 135.001,103.924 120.001,129.904" seed="18"/><polygon fill="rgb(147, 112, 219)" stroke="black" stroke-width="1" onmouseover="setChange(evt)" onmouseout="unhiliteChange(evt)" onclick="changeMe(evt)" points="165.001,103.924 135.001,103.924 150.001,129.905" seed="19"/></g>
</svg>
