<?xml version="1.0" encoding="utf-8"?>
<svg xmlns="http://www.w3.org/2000/svg" id="mainSVG" pointer-events="all" width="238.924" height="305.885" EdgeLen="30" template="u4_32_tu" code="B14_6_1_3" copyright="Francis Hemsher, 2012">
	<polygon id="BorderPoly" fill="none" pointer-events="none" stroke="red" stroke-width="4" transform="" points="96.9628,-0.000488281 70.9818,14.9995 55.9807,40.9805 55.9807,70.9805 40.9798,96.9625 14.9998,111.963 -0.00025177,137.943 0.000747681,167.943 15.0018,193.925 40.9828,208.924 55.9828,234.904 55.9807,264.904 70.9807,290.885 96.9617,305.885 126.962,305.885 152.943,290.885 167.943,264.904 167.943,234.904 182.943,208.924 208.924,193.924 238.925,193.923 223.924,167.942 223.924,137.943 238.923,111.962 208.923,111.962 182.942,96.9615 167.943,70.9805 167.943,40.9815 152.943,15.0005 126.962,-0.000488281"/>
	<g id="mainPolyG" transform=""><polygon id="mainPoly" fill="rgb(252, 194, 0)" stroke="black" onmouseover="setChange(evt)" onmouseout="unhiliteChange(evt)" onclick="changeMe(evt)" points="126.962,193.924 96.9617,193.923 70.9818,208.923 55.9818,234.904 55.9807,264.904 70.9807,290.885 96.9617,305.885 126.962,305.885 152.943,290.885 167.943,264.904 167.943,234.904 152.943,208.924" seed="0"/><polygon fill="rgb(219, 112, 147)" stroke="black" stroke-width="1" onmouseover="setChange(evt)" onmouseout="unhiliteChange(evt)" onclick="changeMe(evt)" points="208.923,111.962 182.942,96.9615 152.943,96.9615 126.962,111.962 111.962,137.943 111.962,167.943 126.962,193.924 152.943,208.924 182.943,208.924 208.924,193.924 223.924,167.942 223.924,137.943" seed="1"/><polygon fill="rgb(219, 112, 147)" stroke="black" stroke-width="1" onmouseover="setChange(evt)" onmouseout="unhiliteChange(evt)" onclick="changeMe(evt)" points="126.962,-0.000488281 96.9628,-0.000488281 70.9818,14.9995 55.9807,40.9805 55.9807,70.9805 70.9807,96.9615 96.9617,111.962 126.962,111.962 152.943,96.9615 167.943,70.9805 167.943,40.9815 152.943,15.0005" seed="2"/><polygon fill="rgb(147, 112, 219)" stroke="black" stroke-width="1" onmouseover="setChange(evt)" onmouseout="unhiliteChange(evt)" onclick="changeMe(evt)" points="182.943,96.9615 167.943,70.9805 152.943,96.9615" seed="3"/><polygon fill="rgb(147, 112, 219)" stroke="black" stroke-width="1" onmouseover="setChange(evt)" onmouseout="unhiliteChange(evt)" onclick="changeMe(evt)" points="182.943,208.924 152.943,208.924 167.943,234.904" seed="4"/><polygon fill="rgb(147, 112, 219)" stroke="black" stroke-width="1" onmouseover="setChange(evt)" onmouseout="unhiliteChange(evt)" onclick="changeMe(evt)" points="238.923,111.962 208.923,111.962 223.924,137.942" seed="5"/><polygon fill="rgb(147, 112, 219)" stroke="black" stroke-width="1" onmouseover="setChange(evt)" onmouseout="unhiliteChange(evt)" onclick="changeMe(evt)" points="238.925,193.923 223.924,167.942 208.924,193.923" seed="6"/><polygon fill="rgb(147, 112, 219)" stroke="black" stroke-width="1" onmouseover="setChange(evt)" onmouseout="unhiliteChange(evt)" onclick="changeMe(evt)" points="126.962,111.962 96.9617,111.962 111.962,137.943" seed="7"/><polygon fill="rgb(147, 112, 219)" stroke="black" stroke-width="1" onmouseover="setChange(evt)" onmouseout="unhiliteChange(evt)" onclick="changeMe(evt)" points="126.962,193.924 111.962,167.943 96.9617,193.924" seed="8"/><polygon fill="rgb(255, 36, 0)" stroke="black" stroke-width="1" onmouseover="setChange(evt)" onmouseout="unhiliteChange(evt)" onclick="changeMe(evt)" points="111.962,167.943 85.9818,152.943 70.9807,178.924 96.9617,193.924" seed="9"/><polygon fill="rgb(255, 36, 0)" stroke="black" stroke-width="1" onmouseover="setChange(evt)" onmouseout="unhiliteChange(evt)" onclick="changeMe(evt)" points="111.962,137.943 96.9617,111.962 70.9807,126.962 85.9818,152.943" seed="10"/><polygon fill="rgb(41, 171, 135)" stroke="black" stroke-width="1" onmouseover="setChange(evt)" onmouseout="unhiliteChange(evt)" onclick="changeMe(evt)" points="85.9818,152.943 70.9807,126.962 40.9807,126.963 25.9807,152.943 40.9818,178.924 70.9818,178.924" seed="11"/><polygon fill="rgb(255, 36, 0)" stroke="black" stroke-width="1" onmouseover="setChange(evt)" onmouseout="unhiliteChange(evt)" onclick="changeMe(evt)" points="70.9798,126.962 70.9798,96.9615 40.9798,96.9625 40.9807,126.963" seed="12"/><polygon fill="rgb(255, 36, 0)" stroke="black" stroke-width="1" onmouseover="setChange(evt)" onmouseout="unhiliteChange(evt)" onclick="changeMe(evt)" points="40.9807,126.963 14.9998,111.963 -0.00025177,137.943 25.9807,152.943" seed="13"/><polygon fill="rgb(255, 36, 0)" stroke="black" stroke-width="1" onmouseover="setChange(evt)" onmouseout="unhiliteChange(evt)" onclick="changeMe(evt)" points="40.9818,178.924 25.9807,152.943 0.000747681,167.943 15.0018,193.925" seed="14"/><polygon fill="rgb(255, 36, 0)" stroke="black" stroke-width="1" onmouseover="setChange(evt)" onmouseout="unhiliteChange(evt)" onclick="changeMe(evt)" points="70.9828,208.923 70.9818,178.924 40.9828,178.924 40.9828,208.924" seed="15"/><polygon fill="rgb(147, 112, 219)" stroke="black" stroke-width="1" onmouseover="setChange(evt)" onmouseout="unhiliteChange(evt)" onclick="changeMe(evt)" points="96.9608,111.962 70.9798,96.9615 70.9798,126.962" seed="16"/><polygon fill="rgb(147, 112, 219)" stroke="black" stroke-width="1" onmouseover="setChange(evt)" onmouseout="unhiliteChange(evt)" onclick="changeMe(evt)" points="111.963,167.943 111.962,137.943 85.9818,152.943" seed="17"/><polygon fill="rgb(147, 112, 219)" stroke="black" stroke-width="1" onmouseover="setChange(evt)" onmouseout="unhiliteChange(evt)" onclick="changeMe(evt)" points="96.9617,193.924 70.9807,178.924 70.9818,208.924" seed="18"/><polygon fill="rgb(147, 112, 219)" stroke="black" stroke-width="1" onmouseover="setChange(evt)" onmouseout="unhiliteChange(evt)" onclick="changeMe(evt)" points="40.9828,208.924 40.9828,178.924 15.0018,193.924" seed="19"/><polygon fill="rgb(147, 112, 219)" stroke="black" stroke-width="1" onmouseover="setChange(evt)" onmouseout="unhiliteChange(evt)" onclick="changeMe(evt)" points="25.9807,152.943 -0.00025177,137.943 0.000747681,167.943" seed="20"/><polygon fill="rgb(147, 112, 219)" stroke="black" stroke-width="1" onmouseover="setChange(evt)" onmouseout="unhiliteChange(evt)" onclick="changeMe(evt)" points="40.9807,126.963 40.9798,96.9625 14.9998,111.963" seed="21"/><polygon fill="rgb(147, 112, 219)" stroke="black" stroke-width="1" onmouseover="setChange(evt)" onmouseout="unhiliteChange(evt)" onclick="changeMe(evt)" points="70.9798,96.9615 55.9798,70.9815 40.9798,96.9625" seed="22"/><polygon fill="rgb(147, 112, 219)" stroke="black" stroke-width="1" onmouseover="setChange(evt)" onmouseout="unhiliteChange(evt)" onclick="changeMe(evt)" points="55.9828,234.904 70.9828,208.923 40.9828,208.924" seed="23"/></g>
</svg>
