<?xml version="1.0" encoding="utf-8"?>
<svg xmlns="http://www.w3.org/2000/svg" id="mainSVG" pointer-events="all" width="180" height="103.924" EdgeLen="30" template="u6_542_tu" code="B14_0_2_0" copyright="Francis Hemsher, 2012">
	<polygon id="BorderPoly" fill="none" pointer-events="none" stroke="red" stroke-width="4" transform="" points="180,0 150,0 120,0 90,0 60,0 45,25.981 30,51.962 15,77.943 0,103.923 30,103.924 60,103.924 90,103.924 105,77.944 120,51.962 135,25.9805 165,25.9805"/>
	<g id="mainPolyG" transform=""><polygon id="mainPoly" fill="rgb(252, 194, 0)" stroke="black" onmouseover="setChange(evt)" onmouseout="unhiliteChange(evt)" onclick="changeMe(evt)" points="60,51.962 30,51.962 15,77.943 30,103.924 60,103.924 75,77.943" seed="0"/><polygon fill="rgb(41, 171, 135)" stroke="black" stroke-width="1" onmouseover="setChange(evt)" onmouseout="unhiliteChange(evt)" onclick="changeMe(evt)" points="105.001,25.9815 75,25.9815 60,51.962 75,77.943 105.001,77.943 120.001,51.962" seed="1"/><polygon fill="rgb(147, 112, 219)" stroke="black" stroke-width="1" onmouseover="setChange(evt)" onmouseout="unhiliteChange(evt)" onclick="changeMe(evt)" points="29.999,103.923 15,77.943 0,103.923" seed="2"/><polygon fill="rgb(147, 112, 219)" stroke="black" stroke-width="1" onmouseover="setChange(evt)" onmouseout="unhiliteChange(evt)" onclick="changeMe(evt)" points="90,103.924 75,77.944 60,103.924" seed="3"/><polygon fill="rgb(147, 112, 219)" stroke="black" stroke-width="1" onmouseover="setChange(evt)" onmouseout="unhiliteChange(evt)" onclick="changeMe(evt)" points="105,77.944 75,77.944 90,103.924" seed="4"/><polygon fill="rgb(147, 112, 219)" stroke="black" stroke-width="1" onmouseover="setChange(evt)" onmouseout="unhiliteChange(evt)" onclick="changeMe(evt)" points="60,51.962 45,25.981 30,51.962" seed="5"/><polygon fill="rgb(147, 112, 219)" stroke="black" stroke-width="1" onmouseover="setChange(evt)" onmouseout="unhiliteChange(evt)" onclick="changeMe(evt)" points="75,25.981 45,25.981 60,51.962" seed="6"/><polygon fill="rgb(147, 112, 219)" stroke="black" stroke-width="1" onmouseover="setChange(evt)" onmouseout="unhiliteChange(evt)" onclick="changeMe(evt)" points="75,25.981 60,0 45,25.981" seed="7"/><polygon fill="rgb(147, 112, 219)" stroke="black" stroke-width="1" onmouseover="setChange(evt)" onmouseout="unhiliteChange(evt)" onclick="changeMe(evt)" points="90,0 60,0 75,25.9805" seed="8"/><polygon fill="rgb(147, 112, 219)" stroke="black" stroke-width="1" onmouseover="setChange(evt)" onmouseout="unhiliteChange(evt)" onclick="changeMe(evt)" points="105,25.9805 90,0 75,25.9805" seed="9"/><polygon fill="rgb(147, 112, 219)" stroke="black" stroke-width="1" onmouseover="setChange(evt)" onmouseout="unhiliteChange(evt)" onclick="changeMe(evt)" points="120,0 90,0 105,25.9805" seed="10"/><polygon fill="rgb(147, 112, 219)" stroke="black" stroke-width="1" onmouseover="setChange(evt)" onmouseout="unhiliteChange(evt)" onclick="changeMe(evt)" points="135,25.9805 120,0 105,25.9805" seed="11"/><polygon fill="rgb(147, 112, 219)" stroke="black" stroke-width="1" onmouseover="setChange(evt)" onmouseout="unhiliteChange(evt)" onclick="changeMe(evt)" points="150,0 120,0 135,25.9805" seed="12"/><polygon fill="rgb(147, 112, 219)" stroke="black" stroke-width="1" onmouseover="setChange(evt)" onmouseout="unhiliteChange(evt)" onclick="changeMe(evt)" points="135,25.9805 105,25.9805 120,51.962" seed="13"/><polygon fill="rgb(147, 112, 219)" stroke="black" stroke-width="1" onmouseover="setChange(evt)" onmouseout="unhiliteChange(evt)" onclick="changeMe(evt)" points="165,25.9805 150,0 135,25.9805" seed="14"/><polygon fill="rgb(147, 112, 219)" stroke="black" stroke-width="1" onmouseover="setChange(evt)" onmouseout="unhiliteChange(evt)" onclick="changeMe(evt)" points="180,0 150,0 165,25.9805" seed="15"/></g>
</svg>
