<?xml version="1.0" encoding="utf-8"?>
<svg xmlns="http://www.w3.org/2000/svg" id="mainSVG" pointer-events="all" width="134.999" height="155.885" EdgeLen="30" template="u4_24_tu" code="B14_0_3_0" copyright="Francis Hemsher, 2012">
	<polygon id="BorderPoly" fill="none" pointer-events="none" stroke="red" stroke-width="4" transform="" points="44.9995,-4.57764e-005 29.9995,25.9808 14.9995,51.9618 0,77.9418 15,103.923 44.9995,103.923 59.9995,129.904 74.9995,155.885 89.9995,129.904 104.997,103.924 134.997,103.925 119.999,77.9438 134.999,51.9628 119.999,25.9818 104.999,0.000953674 74.9995,0.000457764"/>
	<g id="mainPolyG" transform=""><polygon id="mainPoly" fill="rgb(252, 194, 0)" stroke="black" onmouseover="setChange(evt)" onmouseout="unhiliteChange(evt)" onclick="changeMe(evt)" points="89.9995,77.9418 59.9995,77.9418 44.9995,103.923 59.9995,129.904 89.9995,129.904 104.999,103.923" seed="0"/><polygon fill="rgb(41, 171, 135)" stroke="black" stroke-width="1" onmouseover="setChange(evt)" onmouseout="unhiliteChange(evt)" onclick="changeMe(evt)" points="44.9995,51.9618 14.9995,51.9618 0,77.9418 15,103.923 44.9995,103.923 59.9995,77.9418" seed="1"/><polygon fill="rgb(41, 171, 135)" stroke="black" stroke-width="1" onmouseover="setChange(evt)" onmouseout="unhiliteChange(evt)" onclick="changeMe(evt)" points="90.0005,25.9808 59.9995,25.9808 44.9995,51.9618 59.9995,77.9418 90.0005,77.9418 105.001,51.9608" seed="2"/><polygon fill="rgb(147, 112, 219)" stroke="black" stroke-width="1" onmouseover="setChange(evt)" onmouseout="unhiliteChange(evt)" onclick="changeMe(evt)" points="44.9995,51.9618 29.9995,25.9808 14.9995,51.9618" seed="3"/><polygon fill="rgb(147, 112, 219)" stroke="black" stroke-width="1" onmouseover="setChange(evt)" onmouseout="unhiliteChange(evt)" onclick="changeMe(evt)" points="59.9995,25.9808 29.9995,25.9808 44.9995,51.9618" seed="4"/><polygon fill="rgb(147, 112, 219)" stroke="black" stroke-width="1" onmouseover="setChange(evt)" onmouseout="unhiliteChange(evt)" onclick="changeMe(evt)" points="59.9995,25.9808 44.9995,-4.57764e-005 29.9995,25.9808" seed="5"/><polygon fill="rgb(147, 112, 219)" stroke="black" stroke-width="1" onmouseover="setChange(evt)" onmouseout="unhiliteChange(evt)" onclick="changeMe(evt)" points="74.9995,0.000457764 44.9995,-4.57764e-005 59.9995,25.9808" seed="6"/><polygon fill="rgb(147, 112, 219)" stroke="black" stroke-width="1" onmouseover="setChange(evt)" onmouseout="unhiliteChange(evt)" onclick="changeMe(evt)" points="89.9995,25.9818 74.9995,0.000457764 59.9995,25.9808" seed="7"/><polygon fill="rgb(147, 112, 219)" stroke="black" stroke-width="1" onmouseover="setChange(evt)" onmouseout="unhiliteChange(evt)" onclick="changeMe(evt)" points="104.999,0.000953674 74.9995,0.000457764 89.9995,25.9818" seed="8"/><polygon fill="rgb(147, 112, 219)" stroke="black" stroke-width="1" onmouseover="setChange(evt)" onmouseout="unhiliteChange(evt)" onclick="changeMe(evt)" points="119.999,25.9818 104.999,0.000953674 89.9995,25.9818" seed="9"/><polygon fill="rgb(147, 112, 219)" stroke="black" stroke-width="1" onmouseover="setChange(evt)" onmouseout="unhiliteChange(evt)" onclick="changeMe(evt)" points="119.999,25.9818 89.9995,25.9818 104.999,51.9628" seed="10"/><polygon fill="rgb(147, 112, 219)" stroke="black" stroke-width="1" onmouseover="setChange(evt)" onmouseout="unhiliteChange(evt)" onclick="changeMe(evt)" points="134.999,51.9628 119.999,25.9818 104.999,51.9628" seed="11"/><polygon fill="rgb(147, 112, 219)" stroke="black" stroke-width="1" onmouseover="setChange(evt)" onmouseout="unhiliteChange(evt)" onclick="changeMe(evt)" points="134.999,51.9628 104.999,51.9628 119.999,77.9438" seed="12"/><polygon fill="rgb(147, 112, 219)" stroke="black" stroke-width="1" onmouseover="setChange(evt)" onmouseout="unhiliteChange(evt)" onclick="changeMe(evt)" points="119.999,77.9438 104.999,51.9628 89.9985,77.9427" seed="13"/><polygon fill="rgb(147, 112, 219)" stroke="black" stroke-width="1" onmouseover="setChange(evt)" onmouseout="unhiliteChange(evt)" onclick="changeMe(evt)" points="119.999,77.9438 89.9985,77.9427 104.997,103.924" seed="14"/><polygon fill="rgb(147, 112, 219)" stroke="black" stroke-width="1" onmouseover="setChange(evt)" onmouseout="unhiliteChange(evt)" onclick="changeMe(evt)" points="134.997,103.925 119.999,77.9438 104.997,103.924" seed="15"/><polygon fill="rgb(147, 112, 219)" stroke="black" stroke-width="1" onmouseover="setChange(evt)" onmouseout="unhiliteChange(evt)" onclick="changeMe(evt)" points="89.9995,129.904 59.9995,129.904 74.9995,155.885" seed="16"/></g>
</svg>
