<?xml version="1.0" encoding="utf-8"?>
<svg xmlns="http://www.w3.org/2000/svg" id="mainSVG" pointer-events="all" width="286.871" height="324.908" EdgeLen="30" template="u6_95_tu" code="B18_18_7_3" copyright="Francis Hemsher, 2012">
	<polygon id="BorderPoly" fill="none" pointer-events="none" stroke="red" stroke-width="4" transform="" points="122.952,0.00105286 92.9515,4.57764e-005 66.9695,14.9991 51.9685,40.979 25.9885,25.9771 0.00750732,40.976 0.0065155,70.976 25.9865,85.9781 40.9855,111.959 40.9855,141.96 25.9835,167.938 0.00151062,182.936 -0.000488281,212.936 25.9795,227.938 40.9795,253.921 40.9785,283.922 25.9775,309.902 51.9575,324.903 66.9585,298.922 92.9395,283.923 122.94,283.925 148.926,298.927 163.926,324.908 189.907,309.907 215.888,324.907 245.888,324.908 271.868,309.908 286.868,283.927 286.868,253.927 271.868,227.946 245.888,212.946 245.888,182.947 271.868,167.948 286.87,141.967 286.871,111.967 271.872,85.9861 245.891,70.985 245.892,40.9861 215.892,40.9841 189.911,25.9841 163.931,40.983 148.932,15.002"/>
	<g id="mainPolyG" transform=""><polygon id="mainPoly" fill="rgb(252, 194, 0)" stroke="black" onmouseover="setChange(evt)" onmouseout="unhiliteChange(evt)" onclick="changeMe(evt)" points="245.888,212.946 215.888,212.946 189.907,227.946 174.907,253.927 174.907,283.927 189.907,309.907 215.888,324.907 245.888,324.908 271.868,309.908 286.868,283.927 286.868,253.927 271.868,227.946" seed="0"/><polygon fill="rgb(224, 176, 255)" stroke="black" stroke-width="1" onmouseover="setChange(evt)" onmouseout="unhiliteChange(evt)" onclick="changeMe(evt)" points="189.907,309.907 174.907,283.927 148.926,298.927 163.926,324.908" seed="1"/><polygon fill="rgb(224, 176, 255)" stroke="black" stroke-width="1" onmouseover="setChange(evt)" onmouseout="unhiliteChange(evt)" onclick="changeMe(evt)" points="189.907,227.946 163.927,212.946 148.926,238.927 174.908,253.927" seed="2"/><polygon fill="rgb(224, 176, 255)" stroke="black" stroke-width="1" onmouseover="setChange(evt)" onmouseout="unhiliteChange(evt)" onclick="changeMe(evt)" points="245.888,182.947 215.888,182.946 215.888,212.946 245.888,212.946" seed="3"/><polygon fill="rgb(197, 179, 88)" stroke="black" stroke-width="1" onmouseover="setChange(evt)" onmouseout="unhiliteChange(evt)" onclick="changeMe(evt)" points="245.891,70.985 215.891,70.9841 189.91,85.983 174.91,111.964 174.909,141.964 189.908,167.945 215.888,182.946 245.888,182.947 271.868,167.948 286.87,141.967 286.871,111.967 271.872,85.9861" seed="4"/><polygon fill="rgb(224, 176, 255)" stroke="black" stroke-width="1" onmouseover="setChange(evt)" onmouseout="unhiliteChange(evt)" onclick="changeMe(evt)" points="189.909,167.945 174.909,141.964 148.928,156.964 163.927,182.945" seed="5"/><polygon fill="rgb(224, 176, 255)" stroke="black" stroke-width="1" onmouseover="setChange(evt)" onmouseout="unhiliteChange(evt)" onclick="changeMe(evt)" points="189.91,85.983 163.93,70.983 148.93,96.963 174.91,111.963" seed="6"/><polygon fill="rgb(224, 176, 255)" stroke="black" stroke-width="1" onmouseover="setChange(evt)" onmouseout="unhiliteChange(evt)" onclick="changeMe(evt)" points="245.892,40.9861 215.892,40.9841 215.892,70.9841 245.891,70.985" seed="7"/><polygon fill="rgb(197, 179, 88)" stroke="black" stroke-width="1" onmouseover="setChange(evt)" onmouseout="unhiliteChange(evt)" onclick="changeMe(evt)" points="122.952,0.00105286 92.9515,4.57764e-005 66.9695,14.9991 51.9685,40.979 51.9675,70.979 66.9675,96.9611 92.9475,111.961 122.948,111.962 148.93,96.963 163.93,70.983 163.931,40.983 148.932,15.002" seed="8"/><polygon fill="rgb(224, 176, 255)" stroke="black" stroke-width="1" onmouseover="setChange(evt)" onmouseout="unhiliteChange(evt)" onclick="changeMe(evt)" points="66.9665,96.9601 51.9675,70.979 25.9865,85.9781 40.9855,111.959" seed="9"/><polygon fill="rgb(224, 176, 255)" stroke="black" stroke-width="1" onmouseover="setChange(evt)" onmouseout="unhiliteChange(evt)" onclick="changeMe(evt)" points="122.947,111.962 92.9475,111.961 92.9465,141.961 122.947,141.962" seed="10"/><polygon fill="rgb(147, 112, 219)" stroke="black" stroke-width="1" onmouseover="setChange(evt)" onmouseout="unhiliteChange(evt)" onclick="changeMe(evt)" points="189.911,55.9841 163.931,40.983 163.93,70.983" seed="11"/><polygon fill="rgb(147, 112, 219)" stroke="black" stroke-width="1" onmouseover="setChange(evt)" onmouseout="unhiliteChange(evt)" onclick="changeMe(evt)" points="189.911,55.9841 189.911,25.9841 163.931,40.983" seed="12"/><polygon fill="rgb(147, 112, 219)" stroke="black" stroke-width="1" onmouseover="setChange(evt)" onmouseout="unhiliteChange(evt)" onclick="changeMe(evt)" points="215.893,40.985 189.911,25.9841 189.911,55.9841" seed="13"/><polygon fill="rgb(147, 112, 219)" stroke="black" stroke-width="1" onmouseover="setChange(evt)" onmouseout="unhiliteChange(evt)" onclick="changeMe(evt)" points="215.892,70.985 215.893,40.985 189.911,55.9841" seed="14"/><polygon fill="rgb(147, 112, 219)" stroke="black" stroke-width="1" onmouseover="setChange(evt)" onmouseout="unhiliteChange(evt)" onclick="changeMe(evt)" points="215.892,70.985 189.911,55.9841 189.911,85.985" seed="15"/><polygon fill="rgb(147, 112, 219)" stroke="black" stroke-width="1" onmouseover="setChange(evt)" onmouseout="unhiliteChange(evt)" onclick="changeMe(evt)" points="189.911,85.985 189.911,55.985 163.931,70.985" seed="16"/><polygon fill="rgb(147, 112, 219)" stroke="black" stroke-width="1" onmouseover="setChange(evt)" onmouseout="unhiliteChange(evt)" onclick="changeMe(evt)" points="51.9675,70.979 25.9875,55.9771 25.9865,85.9781" seed="17"/><polygon fill="rgb(147, 112, 219)" stroke="black" stroke-width="1" onmouseover="setChange(evt)" onmouseout="unhiliteChange(evt)" onclick="changeMe(evt)" points="51.9675,70.979 51.9695,40.9781 25.9875,55.9771" seed="18"/><polygon fill="rgb(147, 112, 219)" stroke="black" stroke-width="1" onmouseover="setChange(evt)" onmouseout="unhiliteChange(evt)" onclick="changeMe(evt)" points="51.9685,40.979 25.9885,25.9771 25.9875,55.9771" seed="19"/><polygon fill="rgb(147, 112, 219)" stroke="black" stroke-width="1" onmouseover="setChange(evt)" onmouseout="unhiliteChange(evt)" onclick="changeMe(evt)" points="25.9875,55.9771 25.9885,25.9771 0.00750732,40.976" seed="20"/><polygon fill="rgb(147, 112, 219)" stroke="black" stroke-width="1" onmouseover="setChange(evt)" onmouseout="unhiliteChange(evt)" onclick="changeMe(evt)" points="25.9875,55.9771 0.00750732,40.976 0.0065155,70.976" seed="21"/><polygon fill="rgb(147, 112, 219)" stroke="black" stroke-width="1" onmouseover="setChange(evt)" onmouseout="unhiliteChange(evt)" onclick="changeMe(evt)" points="25.9875,85.9771 25.9875,55.9771 0.0065155,70.976" seed="22"/><polygon fill="rgb(41, 171, 135)" stroke="black" stroke-width="1" onmouseover="setChange(evt)" onmouseout="unhiliteChange(evt)" onclick="changeMe(evt)" points="92.9475,111.962 66.9675,96.9611 40.9865,111.96 40.9855,141.96 66.9655,156.961 92.9465,141.962" seed="23"/><polygon fill="rgb(41, 171, 135)" stroke="black" stroke-width="1" onmouseover="setChange(evt)" onmouseout="unhiliteChange(evt)" onclick="changeMe(evt)" points="174.909,111.965 148.93,96.963 122.948,111.962 122.947,141.963 148.927,156.964 174.909,141.965" seed="24"/><polygon fill="rgb(147, 112, 219)" stroke="black" stroke-width="1" onmouseover="setChange(evt)" onmouseout="unhiliteChange(evt)" onclick="changeMe(evt)" points="122.947,141.962 92.9465,141.961 107.945,167.942" seed="25"/><polygon fill="rgb(224, 176, 255)" stroke="black" stroke-width="1" onmouseover="setChange(evt)" onmouseout="unhiliteChange(evt)" onclick="changeMe(evt)" points="107.945,167.942 92.9465,141.961 66.9645,156.959 81.9635,182.941" seed="26"/><polygon fill="rgb(224, 176, 255)" stroke="black" stroke-width="1" onmouseover="setChange(evt)" onmouseout="unhiliteChange(evt)" onclick="changeMe(evt)" points="148.927,156.964 122.946,141.963 107.945,167.942 133.924,182.943" seed="27"/><polygon fill="rgb(41, 171, 135)" stroke="black" stroke-width="1" onmouseover="setChange(evt)" onmouseout="unhiliteChange(evt)" onclick="changeMe(evt)" points="133.924,182.944 107.945,167.942 81.9635,182.941 81.9615,212.942 107.942,227.943 133.924,212.944" seed="28"/><polygon fill="rgb(147, 112, 219)" stroke="black" stroke-width="1" onmouseover="setChange(evt)" onmouseout="unhiliteChange(evt)" onclick="changeMe(evt)" points="163.924,182.946 148.927,156.964 133.924,182.944" seed="29"/><polygon fill="rgb(41, 171, 135)" stroke="black" stroke-width="1" onmouseover="setChange(evt)" onmouseout="unhiliteChange(evt)" onclick="changeMe(evt)" points="215.889,182.945 189.909,167.945 163.927,182.945 163.927,212.945 189.909,227.945 215.889,212.945" seed="30"/><polygon fill="rgb(41, 171, 135)" stroke="black" stroke-width="1" onmouseover="setChange(evt)" onmouseout="unhiliteChange(evt)" onclick="changeMe(evt)" points="174.908,253.927 148.927,238.927 122.946,253.928 122.946,283.928 148.927,298.927 174.908,283.927" seed="31"/><polygon fill="rgb(224, 176, 255)" stroke="black" stroke-width="1" onmouseover="setChange(evt)" onmouseout="unhiliteChange(evt)" onclick="changeMe(evt)" points="81.9635,182.941 51.9635,182.939 51.9615,212.939 81.9615,212.94" seed="32"/><polygon fill="rgb(224, 176, 255)" stroke="black" stroke-width="1" onmouseover="setChange(evt)" onmouseout="unhiliteChange(evt)" onclick="changeMe(evt)" points="107.942,227.943 81.9615,212.942 66.9605,238.922 92.9415,253.923" seed="33"/><polygon fill="rgb(224, 176, 255)" stroke="black" stroke-width="1" onmouseover="setChange(evt)" onmouseout="unhiliteChange(evt)" onclick="changeMe(evt)" points="148.922,238.926 133.924,212.944 107.942,227.943 122.941,253.924" seed="34"/><polygon fill="rgb(224, 176, 255)" stroke="black" stroke-width="1" onmouseover="setChange(evt)" onmouseout="unhiliteChange(evt)" onclick="changeMe(evt)" points="163.924,182.946 133.924,182.945 133.924,212.944 163.923,212.946" seed="35"/><polygon fill="rgb(147, 112, 219)" stroke="black" stroke-width="1" onmouseover="setChange(evt)" onmouseout="unhiliteChange(evt)" onclick="changeMe(evt)" points="163.923,212.946 133.923,212.944 148.922,238.926" seed="36"/><polygon fill="rgb(147, 112, 219)" stroke="black" stroke-width="1" onmouseover="setChange(evt)" onmouseout="unhiliteChange(evt)" onclick="changeMe(evt)" points="122.942,253.924 107.942,227.943 92.9415,253.923" seed="37"/><polygon fill="rgb(147, 112, 219)" stroke="black" stroke-width="1" onmouseover="setChange(evt)" onmouseout="unhiliteChange(evt)" onclick="changeMe(evt)" points="81.9615,212.94 51.9615,212.939 66.9615,238.92" seed="38"/><polygon fill="rgb(147, 112, 219)" stroke="black" stroke-width="1" onmouseover="setChange(evt)" onmouseout="unhiliteChange(evt)" onclick="changeMe(evt)" points="81.9635,182.941 66.9655,156.959 51.9635,182.939" seed="39"/><polygon fill="rgb(41, 171, 135)" stroke="black" stroke-width="1" onmouseover="setChange(evt)" onmouseout="unhiliteChange(evt)" onclick="changeMe(evt)" points="51.9635,182.939 25.9835,167.938 0.00151062,182.936 -0.000488281,212.936 25.9795,227.938 51.9615,212.939" seed="40"/><polygon fill="rgb(41, 171, 135)" stroke="black" stroke-width="1" onmouseover="setChange(evt)" onmouseout="unhiliteChange(evt)" onclick="changeMe(evt)" points="92.9415,253.923 66.9605,238.922 40.9795,253.921 40.9785,283.922 66.9585,298.922 92.9395,283.923" seed="41"/><polygon fill="rgb(224, 176, 255)" stroke="black" stroke-width="1" onmouseover="setChange(evt)" onmouseout="unhiliteChange(evt)" onclick="changeMe(evt)" points="66.9655,156.961 40.9855,141.96 25.9835,167.94 51.9645,182.941" seed="42"/><polygon fill="rgb(224, 176, 255)" stroke="black" stroke-width="1" onmouseover="setChange(evt)" onmouseout="unhiliteChange(evt)" onclick="changeMe(evt)" points="66.9595,238.921 51.9615,212.939 25.9795,227.938 40.9785,253.919" seed="43"/><polygon fill="rgb(224, 176, 255)" stroke="black" stroke-width="1" onmouseover="setChange(evt)" onmouseout="unhiliteChange(evt)" onclick="changeMe(evt)" points="122.942,253.925 92.9415,253.924 92.9395,283.923 122.94,283.925" seed="44"/><polygon fill="rgb(224, 176, 255)" stroke="black" stroke-width="1" onmouseover="setChange(evt)" onmouseout="unhiliteChange(evt)" onclick="changeMe(evt)" points="66.9585,298.922 40.9785,283.922 25.9775,309.902 51.9575,324.903" seed="45"/></g>
</svg>
