<svg xmlns="http://www.w3.org/2000/svg" id="mainSVG" pointer-events="all" width="238.921" height="331.865" EdgeLen="30" template="u4_108_tu" code="B18_12_2_1" copyright="Francis Hemsher, 2012">
	<polygon id="BorderPoly" fill="none" pointer-events="none" stroke="red" stroke-width="4" transform="" points="167.941,0.000991821 167.94,0.000991821 167.94,0.000991821 141.96,15 126.96,40.98 126.959,70.981 111.958,96.961 85.978,111.961 70.978,137.941 70.977,167.941 55.977,193.923 29.997,208.923 14.997,234.905 14.9991,264.906 0,290.887 30,290.885 55.981,305.884 70.982,331.865 85.982,305.884 111.962,290.882 126.96,264.901 126.958,234.904 141.958,208.923 167.939,193.923 182.939,167.941 182.939,137.941 197.939,111.961 223.92,96.963 238.92,70.982 238.921,40.982 223.922,15.001 197.94,0"/><g id="mainPolyG" transform=""><polygon id="mainPoly" fill="rgb(252, 194, 0)" stroke="none" stroke-width="1" onmouseover="setChange(evt)" onmouseout="unhiliteChange(evt)" onclick="changeMe(evt)" points="182.939,167.941 182.939,137.941 167.939,111.961 141.958,96.9615 111.958,96.9615 85.9778,111.961 70.9778,137.941 70.9768,167.941 85.9768,193.922 111.958,208.922 141.958,208.923 167.939,193.923" seed="0"/><polygon fill="rgb(41, 171, 135)" stroke="black" stroke-width="1" onmouseover="setChange(evt)" onmouseout="unhiliteChange(evt)" onclick="changeMe(evt)" points="111.958,96.9615 126.959,70.9815 141.958,96.9615" seed="1"/><polygon fill="rgb(41, 171, 135)" stroke="black" stroke-width="1" onmouseover="setChange(evt)" onmouseout="unhiliteChange(evt)" onclick="changeMe(evt)" points="167.939,111.961 197.939,111.961 182.939,137.941" seed="2"/><polygon fill="rgb(41, 171, 135)" stroke="black" stroke-width="1" onmouseover="setChange(evt)" onmouseout="unhiliteChange(evt)" onclick="changeMe(evt)" points="85.9778,193.922 55.9768,193.923 70.9768,167.941" seed="3"/><polygon fill="rgb(41, 171, 135)" stroke="black" stroke-width="1" onmouseover="setChange(evt)" onmouseout="unhiliteChange(evt)" onclick="changeMe(evt)" points="141.958,208.923 126.958,234.904 111.958,208.922" seed="4"/><polygon fill="rgb(41, 171, 135)" stroke="black" stroke-width="1" onmouseover="setChange(evt)" onmouseout="unhiliteChange(evt)" onclick="changeMe(evt)" points="141.958,96.9615 167.939,81.9615 167.939,111.961" seed="5"/><polygon fill="rgb(41, 171, 135)" stroke="black" stroke-width="1" onmouseover="setChange(evt)" onmouseout="unhiliteChange(evt)" onclick="changeMe(evt)" points="111.958,208.922 85.9768,223.922 85.9768,193.922" seed="6"/><polygon fill="rgb(224, 176, 255)" stroke="black" stroke-width="1" onmouseover="setChange(evt)" onmouseout="unhiliteChange(evt)" onclick="changeMe(evt)" points="152.94,55.9815 126.959,70.9815 141.958,96.9615 167.939,81.9625" seed="7"/><polygon fill="rgb(224, 176, 255)" stroke="black" stroke-width="1" onmouseover="setChange(evt)" onmouseout="unhiliteChange(evt)" onclick="changeMe(evt)" points="197.939,81.9615 167.939,81.9615 167.939,111.961 197.939,111.961" seed="8"/><polygon fill="rgb(147, 112, 219)" stroke="black" stroke-width="1" onmouseover="setChange(evt)" onmouseout="unhiliteChange(evt)" onclick="changeMe(evt)" points="167.94,30.0005 197.941,30.0005 212.94,55.9815 197.939,81.9635 167.939,81.9625 152.94,55.9815" seed="9"/><polygon fill="rgb(224, 176, 255)" stroke="black" stroke-width="1" onmouseover="setChange(evt)" onmouseout="unhiliteChange(evt)" onclick="changeMe(evt)" points="126.96,40.9805 152.94,55.9815 167.94,30.0015 141.96,15.0005" seed="10"/><polygon fill="rgb(224, 176, 255)" stroke="black" stroke-width="1" onmouseover="setChange(evt)" onmouseout="unhiliteChange(evt)" onclick="changeMe(evt)" points="167.94,0.0014801 167.94,30.0005 197.94,30.0005 197.94,0.000488281" seed="11"/><polygon fill="rgb(224, 176, 255)" stroke="black" stroke-width="1" onmouseover="setChange(evt)" onmouseout="unhiliteChange(evt)" onclick="changeMe(evt)" points="223.922,15.0015 197.941,30.0005 212.94,55.9815 238.921,40.9825" seed="12"/><polygon fill="rgb(224, 176, 255)" stroke="black" stroke-width="1" onmouseover="setChange(evt)" onmouseout="unhiliteChange(evt)" onclick="changeMe(evt)" points="238.92,70.9825 212.94,55.9815 197.94,81.9615 223.92,96.9635" seed="13"/><polygon fill="rgb(41, 171, 135)" stroke="black" stroke-width="1" onmouseover="setChange(evt)" onmouseout="unhiliteChange(evt)" onclick="changeMe(evt)" points="167.941,0.0014801 167.94,30.0015 141.96,15.0005" seed="14"/><polygon fill="rgb(41, 171, 135)" stroke="black" stroke-width="1" onmouseover="setChange(evt)" onmouseout="unhiliteChange(evt)" onclick="changeMe(evt)" points="223.92,15.0015 197.94,30.0005 197.94,0.000488281" seed="15"/><polygon fill="rgb(41, 171, 135)" stroke="black" stroke-width="1" onmouseover="setChange(evt)" onmouseout="unhiliteChange(evt)" onclick="changeMe(evt)" points="238.921,70.9825 212.94,55.9815 238.921,40.9825" seed="16"/><polygon fill="rgb(41, 171, 135)" stroke="black" stroke-width="1" onmouseover="setChange(evt)" onmouseout="unhiliteChange(evt)" onclick="changeMe(evt)" points="197.939,111.961 197.94,81.9615 223.92,96.9635" seed="17"/><polygon fill="rgb(41, 171, 135)" stroke="black" stroke-width="1" onmouseover="setChange(evt)" onmouseout="unhiliteChange(evt)" onclick="changeMe(evt)" points="126.959,70.9805 126.96,40.9805 152.94,55.9815" seed="18"/><polygon fill="rgb(224, 176, 255)" stroke="black" stroke-width="1" onmouseover="setChange(evt)" onmouseout="unhiliteChange(evt)" onclick="changeMe(evt)" points="85.9778,223.922 85.9778,193.922 55.9778,193.923 55.9778,223.923" seed="19"/><polygon fill="rgb(224, 176, 255)" stroke="black" stroke-width="1" onmouseover="setChange(evt)" onmouseout="unhiliteChange(evt)" onclick="changeMe(evt)" points="126.958,234.902 111.958,208.922 85.9778,223.922 100.977,249.904" seed="20"/><polygon fill="rgb(147, 112, 219)" stroke="black" stroke-width="1" onmouseover="setChange(evt)" onmouseout="unhiliteChange(evt)" onclick="changeMe(evt)" points="100.979,249.902 85.9798,275.884 55.9798,275.884 40.9788,249.904 55.9778,223.923 85.9778,223.922" seed="21"/><polygon fill="rgb(224, 176, 255)" stroke="black" stroke-width="1" onmouseover="setChange(evt)" onmouseout="unhiliteChange(evt)" onclick="changeMe(evt)" points="55.9778,223.923 29.9968,208.923 14.9968,234.905 40.9788,249.904" seed="22"/><polygon fill="rgb(224, 176, 255)" stroke="black" stroke-width="1" onmouseover="setChange(evt)" onmouseout="unhiliteChange(evt)" onclick="changeMe(evt)" points="40.9788,249.904 14.9989,264.906 29.9998,290.885 55.9798,275.884" seed="23"/><polygon fill="rgb(224, 176, 255)" stroke="black" stroke-width="1" onmouseover="setChange(evt)" onmouseout="unhiliteChange(evt)" onclick="changeMe(evt)" points="55.9808,275.884 55.9808,305.884 85.9808,305.883 85.9798,275.884" seed="24"/><polygon fill="rgb(224, 176, 255)" stroke="black" stroke-width="1" onmouseover="setChange(evt)" onmouseout="unhiliteChange(evt)" onclick="changeMe(evt)" points="85.9798,275.884 111.962,290.882 126.96,264.901 100.979,249.902" seed="25"/><polygon fill="rgb(41, 171, 135)" stroke="black" stroke-width="1" onmouseover="setChange(evt)" onmouseout="unhiliteChange(evt)" onclick="changeMe(evt)" points="55.9768,193.923 55.9778,223.923 29.9968,208.923" seed="26"/><polygon fill="rgb(41, 171, 135)" stroke="black" stroke-width="1" onmouseover="setChange(evt)" onmouseout="unhiliteChange(evt)" onclick="changeMe(evt)" points="14.9978,234.905 40.9788,249.904 14.9989,264.906" seed="27"/><polygon fill="rgb(41, 171, 135)" stroke="black" stroke-width="1" onmouseover="setChange(evt)" onmouseout="unhiliteChange(evt)" onclick="changeMe(evt)" points="29.9998,290.885 55.9808,275.884 55.9808,305.884" seed="28"/><polygon fill="rgb(41, 171, 135)" stroke="black" stroke-width="1" onmouseover="setChange(evt)" onmouseout="unhiliteChange(evt)" onclick="changeMe(evt)" points="85.9818,305.884 85.9798,275.884 111.962,290.882" seed="29"/><polygon fill="rgb(41, 171, 135)" stroke="black" stroke-width="1" onmouseover="setChange(evt)" onmouseout="unhiliteChange(evt)" onclick="changeMe(evt)" points="126.958,264.904 100.977,249.904 126.958,234.904" seed="30"/><polygon fill="rgb(41, 171, 135)" stroke="black" stroke-width="1" onmouseover="setChange(evt)" onmouseout="unhiliteChange(evt)" onclick="changeMe(evt)" points="70.9818,331.865 55.9808,305.884 85.9808,305.883" seed="31"/><polygon fill="rgb(41, 171, 135)" stroke="black" stroke-width="1" onmouseover="setChange(evt)" onmouseout="unhiliteChange(evt)" onclick="changeMe(evt)" points="-0.000244141,290.887 14.9989,264.906 29.9998,290.885" seed="32"/></g></svg>
