<?xml version="1.0" encoding="utf-8" ?>

		<svg xmlns="http://www.w3.org/2000/svg" id="mainSVG" pointer-events="all" onkeyup="attachKey(evt)" width="264.033" height="266.934" EdgeLen="30" template="B18_27_9_R">

		<polygon id="BorderPoly" fill="none" pointer-events="none" stroke="red" stroke-width="4" transform="" points="190.546,23.786 169.334,45 143.354,30 117.374,15 91.3925,0 99.1575,28.978 77.9435,50.191 51.9625,65.191 25.9805,80.191 -0.000488281,95.191 7.76451,124.17 7.76451,154.169 7.7655,184.17 7.76451,214.17 36.7435,221.934 62.7245,236.934 88.7035,251.934 114.685,266.934 135.899,245.721 164.877,253.485 190.857,238.485 216.839,223.486 242.82,208.486 264.033,187.273 256.27,158.296 227.291,150.529 227.291,120.529 227.291,90.529 227.291,60.529 219.525,31.551" />
		<g id="mainPolyG" transform=""><polygon id="mainPoly" fill="rgb(252, 194, 0)" stroke="black" onmouseover="setChange(evt)" onmouseout="unhiliteChange(evt)" onclick="changeMe(evt)" points="132.902,132.956 106.922,117.956 80.9395,132.956 80.9395,162.956 106.922,177.956 132.902,162.956" seed="0" /><polygon fill="rgb(147, 112, 219)" stroke="black" stroke-width="1" onmouseover="setChange(evt)" onmouseout="unhiliteChange(evt)" onclick="changeMe(evt)" points="106.922,117.956 80.9405,102.956 80.9405,132.955" seed="1" /><polygon fill="rgb(147, 112, 219)" stroke="black" stroke-width="1" onmouseover="setChange(evt)" onmouseout="unhiliteChange(evt)" onclick="changeMe(evt)" points="132.902,132.956 132.902,102.956 106.922,117.956" seed="2" /><polygon fill="rgb(147, 112, 219)" stroke="black" stroke-width="1" onmouseover="setChange(evt)" onmouseout="unhiliteChange(evt)" onclick="changeMe(evt)" points="158.882,147.956 132.902,132.956 132.902,162.956" seed="3" /><polygon fill="rgb(147, 112, 219)" stroke="black" stroke-width="1" onmouseover="setChange(evt)" onmouseout="unhiliteChange(evt)" onclick="changeMe(evt)" points="132.902,192.956 132.902,162.956 106.922,177.956" seed="4" /><polygon fill="rgb(147, 112, 219)" stroke="black" stroke-width="1" onmouseover="setChange(evt)" onmouseout="unhiliteChange(evt)" onclick="changeMe(evt)" points="106.922,177.956 80.9395,162.956 80.9395,192.956" seed="5" /><polygon fill="rgb(147, 112, 219)" stroke="black" stroke-width="1" onmouseover="setChange(evt)" onmouseout="unhiliteChange(evt)" onclick="changeMe(evt)" points="80.9395,162.956 80.9395,132.956 54.9585,147.956" seed="6" /><polygon fill="rgb(41, 171, 135)" stroke="black" stroke-width="1" onmouseover="setChange(evt)" onmouseout="unhiliteChange(evt)" onclick="changeMe(evt)" points="132.903,72.956 106.922,57.956 80.9405,72.956 80.9405,102.956 106.922,117.956 132.902,102.956" seed="7" /><polygon fill="rgb(41, 171, 135)" stroke="black" stroke-width="1" onmouseover="setChange(evt)" onmouseout="unhiliteChange(evt)" onclick="changeMe(evt)" points="184.864,102.956 158.882,87.956 132.902,102.956 132.902,132.956 158.882,147.956 184.864,132.956" seed="8" /><polygon fill="rgb(41, 171, 135)" stroke="black" stroke-width="1" onmouseover="setChange(evt)" onmouseout="unhiliteChange(evt)" onclick="changeMe(evt)" points="184.864,162.956 158.882,147.956 132.902,162.956 132.902,192.956 158.882,207.956 184.864,192.956" seed="9" /><polygon fill="rgb(41, 171, 135)" stroke="black" stroke-width="1" onmouseover="setChange(evt)" onmouseout="unhiliteChange(evt)" onclick="changeMe(evt)" points="132.902,192.956 106.922,177.956 80.9395,192.956 80.9395,222.956 106.921,237.956 132.902,222.956" seed="10" /><polygon fill="rgb(41, 171, 135)" stroke="black" stroke-width="1" onmouseover="setChange(evt)" onmouseout="unhiliteChange(evt)" onclick="changeMe(evt)" points="80.9395,162.956 54.9585,147.956 28.9785,162.956 28.9785,192.956 54.9585,207.956 80.9395,192.956" seed="11" /><polygon fill="rgb(41, 171, 135)" stroke="black" stroke-width="1" onmouseover="setChange(evt)" onmouseout="unhiliteChange(evt)" onclick="changeMe(evt)" points="80.9395,102.956 54.9585,87.956 28.9775,102.956 28.9775,132.955 54.9585,147.956 80.9395,132.956" seed="12" /><polygon fill="rgb(147, 112, 219)" stroke="black" stroke-width="1" onmouseover="setChange(evt)" onmouseout="unhiliteChange(evt)" onclick="changeMe(evt)" points="158.882,87.956 132.903,72.956 132.902,102.956" seed="13" /><polygon fill="rgb(147, 112, 219)" stroke="black" stroke-width="1" onmouseover="setChange(evt)" onmouseout="unhiliteChange(evt)" onclick="changeMe(evt)" points="184.864,162.956 184.864,132.956 158.882,147.956" seed="14" /><polygon fill="rgb(147, 112, 219)" stroke="black" stroke-width="1" onmouseover="setChange(evt)" onmouseout="unhiliteChange(evt)" onclick="changeMe(evt)" points="158.882,207.956 132.902,192.956 132.902,222.956" seed="15" /><polygon fill="rgb(147, 112, 219)" stroke="black" stroke-width="1" onmouseover="setChange(evt)" onmouseout="unhiliteChange(evt)" onclick="changeMe(evt)" points="80.9395,222.956 80.9395,192.956 54.9585,207.955" seed="16" /><polygon fill="rgb(147, 112, 219)" stroke="black" stroke-width="1" onmouseover="setChange(evt)" onmouseout="unhiliteChange(evt)" onclick="changeMe(evt)" points="54.9585,147.956 28.9775,132.956 28.9785,162.956" seed="17" /><polygon fill="rgb(147, 112, 219)" stroke="black" stroke-width="1" onmouseover="setChange(evt)" onmouseout="unhiliteChange(evt)" onclick="changeMe(evt)" points="80.9395,102.956 80.9395,72.956 54.9585,87.956" seed="18" /><polygon fill="rgb(91, 146, 229)" stroke="black" stroke-width="1" onmouseover="setChange(evt)" onmouseout="unhiliteChange(evt)" onclick="changeMe(evt)" transform="" points="106.922,57.956 77.9435,50.191 51.9625,65.191 80.9405,72.955" seed="19" /><polygon fill="rgb(91, 146, 229)" stroke="black" stroke-width="1" onmouseover="setChange(evt)" onmouseout="unhiliteChange(evt)" onclick="changeMe(evt)" transform="" points="54.9585,87.956 25.9805,80.191 -0.000488281,95.191 28.9775,102.956" seed="20" /><polygon fill="rgb(91, 146, 229)" stroke="black" stroke-width="1" onmouseover="setChange(evt)" onmouseout="unhiliteChange(evt)" onclick="changeMe(evt)" transform="" points="80.9405,72.955 51.9625,65.191 25.9815,80.192 54.9605,87.956" seed="21" /><polygon fill="rgb(91, 146, 229)" stroke="black" stroke-width="1" onmouseover="setChange(evt)" onmouseout="unhiliteChange(evt)" onclick="changeMe(evt)" transform="" points="28.9775,132.956 28.9775,102.956 7.76451,124.17 7.76451,154.169" seed="22" /><polygon fill="rgb(91, 146, 229)" stroke="black" stroke-width="1" onmouseover="setChange(evt)" onmouseout="unhiliteChange(evt)" onclick="changeMe(evt)" transform="" points="28.9785,192.956 28.9785,162.956 7.7655,184.17 7.76451,214.17" seed="23" /><polygon fill="rgb(91, 146, 229)" stroke="black" stroke-width="1" onmouseover="setChange(evt)" onmouseout="unhiliteChange(evt)" onclick="changeMe(evt)" transform="" points="28.9775,162.956 28.9775,132.956 7.76451,154.169 7.76451,184.169" seed="24" /><polygon fill="rgb(91, 146, 229)" stroke="black" stroke-width="1" onmouseover="setChange(evt)" onmouseout="unhiliteChange(evt)" onclick="changeMe(evt)" transform="" points="54.9595,207.956 28.9785,192.956 36.7435,221.934 62.7245,236.934" seed="25" /><polygon fill="rgb(91, 146, 229)" stroke="black" stroke-width="1" onmouseover="setChange(evt)" onmouseout="unhiliteChange(evt)" onclick="changeMe(evt)" transform="" points="106.921,237.956 80.9395,222.956 88.7035,251.934 114.685,266.934" seed="26" /><polygon fill="rgb(91, 146, 229)" stroke="black" stroke-width="1" onmouseover="setChange(evt)" onmouseout="unhiliteChange(evt)" onclick="changeMe(evt)" transform="" points="80.9405,222.956 54.9595,207.956 62.7245,236.934 88.7055,251.934" seed="27" /><polygon fill="rgb(91, 146, 229)" stroke="black" stroke-width="1" onmouseover="setChange(evt)" onmouseout="unhiliteChange(evt)" onclick="changeMe(evt)" transform="" points="161.88,230.721 132.902,222.956 106.921,237.956 135.899,245.721" seed="28" /><polygon fill="rgb(91, 146, 229)" stroke="black" stroke-width="1" onmouseover="setChange(evt)" onmouseout="unhiliteChange(evt)" onclick="changeMe(evt)" transform="" points="213.842,200.721 184.864,192.956 158.882,207.956 187.861,215.721" seed="29" /><polygon fill="rgb(91, 146, 229)" stroke="black" stroke-width="1" onmouseover="setChange(evt)" onmouseout="unhiliteChange(evt)" onclick="changeMe(evt)" transform="" points="187.86,215.72 158.882,207.956 132.902,222.956 161.88,230.721" seed="30" /><polygon fill="rgb(91, 146, 229)" stroke="black" stroke-width="1" onmouseover="setChange(evt)" onmouseout="unhiliteChange(evt)" onclick="changeMe(evt)" transform="" points="206.077,171.742 206.077,141.742 184.864,162.956 184.864,192.956" seed="31" /><polygon fill="rgb(91, 146, 229)" stroke="black" stroke-width="1" onmouseover="setChange(evt)" onmouseout="unhiliteChange(evt)" onclick="changeMe(evt)" transform="" points="206.077,111.743 206.077,81.743 184.864,102.956 184.864,132.956" seed="32" /><polygon fill="rgb(91, 146, 229)" stroke="black" stroke-width="1" onmouseover="setChange(evt)" onmouseout="unhiliteChange(evt)" onclick="changeMe(evt)" transform="" points="206.077,141.742 206.077,111.743 184.864,132.956 184.864,162.956" seed="33" /><polygon fill="rgb(91, 146, 229)" stroke="black" stroke-width="1" onmouseover="setChange(evt)" onmouseout="unhiliteChange(evt)" onclick="changeMe(evt)" transform="" points="177.098,73.978 151.118,58.978 158.882,87.956 184.864,102.956" seed="34" /><polygon fill="rgb(91, 146, 229)" stroke="black" stroke-width="1" onmouseover="setChange(evt)" onmouseout="unhiliteChange(evt)" onclick="changeMe(evt)" transform="" points="125.137,43.978 99.1575,28.978 106.922,57.956 132.903,72.956" seed="35" /><polygon fill="rgb(91, 146, 229)" stroke="black" stroke-width="1" onmouseover="setChange(evt)" onmouseout="unhiliteChange(evt)" onclick="changeMe(evt)" transform="" points="151.118,58.978 125.137,43.978 132.902,72.956 158.882,87.956" seed="36" /><polygon fill="rgb(147, 112, 219)" stroke="black" stroke-width="1" onmouseover="setChange(evt)" onmouseout="unhiliteChange(evt)" onclick="changeMe(evt)" points="106.922,57.956 99.1565,28.978 77.9435,50.191" seed="37" /><polygon fill="rgb(147, 112, 219)" stroke="black" stroke-width="1" onmouseover="setChange(evt)" onmouseout="unhiliteChange(evt)" onclick="changeMe(evt)" points="28.9775,102.956 -0.000488281,95.192 7.76451,124.17" seed="38" /><polygon fill="rgb(147, 112, 219)" stroke="black" stroke-width="1" onmouseover="setChange(evt)" onmouseout="unhiliteChange(evt)" onclick="changeMe(evt)" points="36.7425,221.934 28.9785,192.956 7.76451,214.17" seed="39" /><polygon fill="rgb(147, 112, 219)" stroke="black" stroke-width="1" onmouseover="setChange(evt)" onmouseout="unhiliteChange(evt)" onclick="changeMe(evt)" points="135.898,245.721 106.921,237.956 114.685,266.934" seed="40" /><polygon fill="rgb(147, 112, 219)" stroke="black" stroke-width="1" onmouseover="setChange(evt)" onmouseout="unhiliteChange(evt)" onclick="changeMe(evt)" points="213.842,200.721 206.077,171.743 184.864,192.956" seed="41" /><polygon fill="rgb(147, 112, 219)" stroke="black" stroke-width="1" onmouseover="setChange(evt)" onmouseout="unhiliteChange(evt)" onclick="changeMe(evt)" points="206.077,81.742 177.098,73.978 184.864,102.956" seed="42" /><polygon fill="rgb(91, 146, 229)" stroke="black" stroke-width="1" onmouseover="setChange(evt)" onmouseout="unhiliteChange(evt)" onclick="changeMe(evt)" transform="" points="117.374,15 91.3925,0 99.1575,28.978 125.139,43.978" seed="43" /><polygon fill="rgb(91, 146, 229)" stroke="black" stroke-width="1" onmouseover="setChange(evt)" onmouseout="unhiliteChange(evt)" onclick="changeMe(evt)" transform="" points="169.334,45 143.354,30 151.118,58.978 177.098,73.978" seed="44" /><polygon fill="rgb(91, 146, 229)" stroke="black" stroke-width="1" onmouseover="setChange(evt)" onmouseout="unhiliteChange(evt)" onclick="changeMe(evt)" transform="" points="143.355,30 117.374,15 125.139,43.978 151.119,58.977" seed="45" /><polygon fill="rgb(91, 146, 229)" stroke="black" stroke-width="1" onmouseover="setChange(evt)" onmouseout="unhiliteChange(evt)" onclick="changeMe(evt)" transform="" points="227.291,150.529 227.291,120.529 206.077,141.742 206.077,171.742" seed="46" /><polygon fill="rgb(91, 146, 229)" stroke="black" stroke-width="1" onmouseover="setChange(evt)" onmouseout="unhiliteChange(evt)" onclick="changeMe(evt)" transform="" points="227.291,90.529 227.291,60.529 206.077,81.743 206.077,111.743" seed="47" /><polygon fill="rgb(91, 146, 229)" stroke="black" stroke-width="1" onmouseover="setChange(evt)" onmouseout="unhiliteChange(evt)" onclick="changeMe(evt)" transform="" points="227.291,120.529 227.291,90.529 206.077,111.743 206.077,141.742" seed="48" /><polygon fill="rgb(91, 146, 229)" stroke="black" stroke-width="1" onmouseover="setChange(evt)" onmouseout="unhiliteChange(evt)" onclick="changeMe(evt)" transform="" points="190.857,238.485 161.88,230.721 135.899,245.721 164.877,253.485" seed="49" /><polygon fill="rgb(91, 146, 229)" stroke="black" stroke-width="1" onmouseover="setChange(evt)" onmouseout="unhiliteChange(evt)" onclick="changeMe(evt)" transform="" points="242.82,208.486 213.842,200.721 187.861,215.721 216.839,223.486" seed="50" /><polygon fill="rgb(91, 146, 229)" stroke="black" stroke-width="1" onmouseover="setChange(evt)" onmouseout="unhiliteChange(evt)" onclick="changeMe(evt)" transform="" points="216.838,223.485 187.861,215.721 161.88,230.721 190.857,238.485" seed="51" /><polygon fill="rgb(41, 171, 135)" stroke="black" stroke-width="1" onmouseover="setChange(evt)" onmouseout="unhiliteChange(evt)" onclick="changeMe(evt)" points="219.525,31.551 190.546,23.786 169.334,45 177.098,73.978 206.077,81.742 227.29,60.528" seed="52" /><polygon fill="rgb(41, 171, 135)" stroke="black" stroke-width="1" onmouseover="setChange(evt)" onmouseout="unhiliteChange(evt)" onclick="changeMe(evt)" points="256.27,158.296 227.292,150.53 206.077,171.743 213.842,200.721 242.82,208.486 264.033,187.273" seed="53" /></g>


		</svg>
