<svg xmlns="http://www.w3.org/2000/svg" id="mainSVG" pointer-events="all" width="179.999" height="155.887" EdgeLen="30" template="u5_30_tu" code="B18_0_6_0" copyright="Francis Hemsher, 2012">
	<polygon id="BorderPoly" fill="none" pointer-events="none" stroke="red" stroke-width="4" transform="" points="45.0013,4.57764e-005 -3.8147e-005,77.9427 44.9993,155.886 134.999,155.887 179.999,77.9447 135,0.00154877"/><g id="mainPolyG" transform=""><polygon id="mainPoly" fill="rgb(224, 176, 255)" stroke="none" stroke-width="1" onmouseover="setChange(evt)" onmouseout="unhiliteChange(evt)" onclick="changeMe(evt)" points="149.999,129.906 134.999,103.925 104.999,103.925 89.9993,129.906 104.999,155.887 134.999,155.887" seed="0"/><polygon fill="rgb(41, 171, 135)" stroke="black" stroke-width="1" onmouseover="setChange(evt)" onmouseout="unhiliteChange(evt)" onclick="changeMe(evt)" points="89.9993,129.905 74.9993,103.925 104.999,103.925" seed="1"/><polygon fill="rgb(41, 171, 135)" stroke="black" stroke-width="1" onmouseover="setChange(evt)" onmouseout="unhiliteChange(evt)" onclick="changeMe(evt)" points="104.998,155.886 74.9993,155.886 89.9993,129.906" seed="2"/><polygon fill="rgb(224, 176, 255)" stroke="black" stroke-width="1" onmouseover="setChange(evt)" onmouseout="unhiliteChange(evt)" onclick="changeMe(evt)" points="89.9993,129.905 74.9993,103.924 44.9993,103.924 29.9993,129.905 44.9993,155.886 74.9993,155.886" seed="3"/><polygon fill="rgb(254, 39, 18)" stroke="black" stroke-width="1" onmouseover="setChange(evt)" onmouseout="unhiliteChange(evt)" onclick="changeMe(evt)" points="104.999,103.925 89.9993,77.9437 74.9993,103.925" seed="4"/><polygon fill="rgb(41, 171, 135)" stroke="black" stroke-width="1" onmouseover="setChange(evt)" onmouseout="unhiliteChange(evt)" onclick="changeMe(evt)" points="44.9993,103.924 60.0003,77.9427 74.9993,103.924" seed="5"/><polygon fill="rgb(41, 171, 135)" stroke="black" stroke-width="1" onmouseover="setChange(evt)" onmouseout="unhiliteChange(evt)" onclick="changeMe(evt)" points="104.999,103.925 119.999,77.9437 134.999,103.925" seed="6"/><polygon fill="rgb(254, 39, 18)" stroke="black" stroke-width="1" onmouseover="setChange(evt)" onmouseout="unhiliteChange(evt)" onclick="changeMe(evt)" points="74.9993,103.925 90.0003,77.9437 60.0003,77.9427" seed="7"/><polygon fill="rgb(254, 39, 18)" stroke="black" stroke-width="1" onmouseover="setChange(evt)" onmouseout="unhiliteChange(evt)" onclick="changeMe(evt)" points="89.9993,77.9437 119.999,77.9437 104.999,103.925" seed="8"/><polygon fill="rgb(254, 39, 18)" stroke="black" stroke-width="1" onmouseover="setChange(evt)" onmouseout="unhiliteChange(evt)" onclick="changeMe(evt)" points="60.0003,77.9427 75.0003,51.9628 90.0003,77.9437" seed="9"/><polygon fill="rgb(254, 39, 18)" stroke="black" stroke-width="1" onmouseover="setChange(evt)" onmouseout="unhiliteChange(evt)" onclick="changeMe(evt)" points="119.999,77.9437 104.999,51.9628 89.9993,77.9437" seed="10"/><polygon fill="rgb(254, 39, 18)" stroke="black" stroke-width="1" onmouseover="setChange(evt)" onmouseout="unhiliteChange(evt)" onclick="changeMe(evt)" points="90.0003,77.9437 105,51.9628 75.0003,51.9628" seed="11"/><polygon fill="rgb(41, 171, 135)" stroke="black" stroke-width="1" onmouseover="setChange(evt)" onmouseout="unhiliteChange(evt)" onclick="changeMe(evt)" points="75.0003,51.9628 45.0003,51.9617 60.0003,77.9427" seed="12"/><polygon fill="rgb(41, 171, 135)" stroke="black" stroke-width="1" onmouseover="setChange(evt)" onmouseout="unhiliteChange(evt)" onclick="changeMe(evt)" points="104.999,51.9628 134.999,51.9637 119.999,77.9437" seed="13"/><polygon fill="rgb(224, 176, 255)" stroke="black" stroke-width="1" onmouseover="setChange(evt)" onmouseout="unhiliteChange(evt)" onclick="changeMe(evt)" points="60.0003,77.9427 44.9993,103.924 14.9993,103.924 -3.8147e-005,77.9427 15.0003,51.9617 45.0003,51.9617" seed="14"/><polygon fill="rgb(224, 176, 255)" stroke="black" stroke-width="1" onmouseover="setChange(evt)" onmouseout="unhiliteChange(evt)" onclick="changeMe(evt)" points="119.999,77.9447 134.999,103.926 164.999,103.926 179.999,77.9447 164.999,51.9637 134.999,51.9637" seed="15"/><polygon fill="rgb(41, 171, 135)" stroke="black" stroke-width="1" onmouseover="setChange(evt)" onmouseout="unhiliteChange(evt)" onclick="changeMe(evt)" points="14.9993,103.924 29.9993,129.905 44.9993,103.924" seed="16"/><polygon fill="rgb(41, 171, 135)" stroke="black" stroke-width="1" onmouseover="setChange(evt)" onmouseout="unhiliteChange(evt)" onclick="changeMe(evt)" points="164.999,103.926 149.999,129.907 134.999,103.926" seed="17"/><polygon fill="rgb(224, 176, 255)" stroke="black" stroke-width="1" onmouseover="setChange(evt)" onmouseout="unhiliteChange(evt)" onclick="changeMe(evt)" points="30.0013,25.9808 45.0013,4.57764e-005 75.0013,0.000549316 90.0013,25.9818 75.0003,51.9628 45.0003,51.9617" seed="18"/><polygon fill="rgb(224, 176, 255)" stroke="black" stroke-width="1" onmouseover="setChange(evt)" onmouseout="unhiliteChange(evt)" onclick="changeMe(evt)" points="150,25.9827 135,0.00154877 105,0.00104523 90.0003,25.9818 104.999,51.9628 134.999,51.9637" seed="19"/><polygon fill="rgb(41, 171, 135)" stroke="black" stroke-width="1" onmouseover="setChange(evt)" onmouseout="unhiliteChange(evt)" onclick="changeMe(evt)" points="75.0003,51.9628 90.0013,25.9818 105,51.9628" seed="20"/><polygon fill="rgb(41, 171, 135)" stroke="black" stroke-width="1" onmouseover="setChange(evt)" onmouseout="unhiliteChange(evt)" onclick="changeMe(evt)" points="45.0003,51.9617 30.0013,25.9808 15.0003,51.9617" seed="21"/><polygon fill="rgb(41, 171, 135)" stroke="black" stroke-width="1" onmouseover="setChange(evt)" onmouseout="unhiliteChange(evt)" onclick="changeMe(evt)" points="134.999,51.9637 150,25.9827 164.999,51.9637" seed="22"/><polygon fill="rgb(41, 171, 135)" stroke="black" stroke-width="1" onmouseover="setChange(evt)" onmouseout="unhiliteChange(evt)" onclick="changeMe(evt)" points="90.0013,25.9818 105.001,0.000549316 75.0013,0.000549316" seed="23"/></g></svg>
