<?xml version="1.0" encoding="utf-8"?>
<svg xmlns="http://www.w3.org/2000/svg" id="mainSVG" pointer-events="all" width="270.002" height="233.828" EdgeLen="15" template="u5_26_tu" code="B20_0_13_0" copyright="Francis Hemsher, 2012">
	<polygon id="BorderPoly" fill="none" pointer-events="none" stroke="red" stroke-width="4" transform="" points="74.9994,-1.14441e-005 45.0001,-1.14441e-005 30.0001,25.9811 15,51.9621 -2.28882e-005,77.9421 15.001,103.922 30.0011,129.904 45.0011,155.884 60.001,181.866 90.0015,181.866 105.001,207.846 120.001,233.828 135.001,207.846 150.001,181.866 180.001,181.866 210.002,181.866 240.002,181.866 270.002,181.866 255.002,155.886 240.002,129.904 225.002,103.924 210,77.9431 225.002,51.9621 210.002,25.9811 195.001,-1.14441e-005 165.001,0.000988007 135.001,-1.14441e-005 105.001,-1.14441e-005"/><g id="mainPolyG" transform=""><polygon id="mainPoly" fill="rgb(252, 194, 0)" stroke="black" onmouseover="setChange(evt)" onmouseout="unhiliteChange(evt)" onclick="changeMe(evt)" points="135.001,103.922 105.001,103.922 90.0015,129.904 105.001,155.884 135.001,155.884 150.001,129.904" seed="0"/><polygon fill="rgb(41, 171, 135)" stroke="black" stroke-width="1" onmouseover="setChange(evt)" onmouseout="unhiliteChange(evt)" onclick="changeMe(evt)" points="90.0015,129.904 60.0014,129.904 45.0015,155.884 60.0014,181.866 90.0015,181.866 105.001,155.884" seed="1"/><polygon fill="rgb(41, 171, 135)" stroke="black" stroke-width="1" onmouseover="setChange(evt)" onmouseout="unhiliteChange(evt)" onclick="changeMe(evt)" points="180.001,129.904 150.001,129.904 135.001,155.884 150.001,181.866 180.001,181.866 195.001,155.884" seed="2"/><polygon fill="rgb(41, 171, 135)" stroke="black" stroke-width="1" onmouseover="setChange(evt)" onmouseout="unhiliteChange(evt)" onclick="changeMe(evt)" points="135.001,155.884 105.001,155.884 90.0015,181.866 105.001,207.846 135.001,207.846 150.001,181.866" seed="3"/><polygon fill="rgb(147, 112, 219)" stroke="black" stroke-width="1" onmouseover="setChange(evt)" onmouseout="unhiliteChange(evt)" onclick="changeMe(evt)" points="210.002,129.904 180.001,129.904 195.001,155.884" seed="4"/><polygon fill="rgb(147, 112, 219)" stroke="black" stroke-width="1" onmouseover="setChange(evt)" onmouseout="unhiliteChange(evt)" onclick="changeMe(evt)" points="210.002,181.866 195.001,155.884 180.001,181.866" seed="5"/><polygon fill="rgb(41, 171, 135)" stroke="black" stroke-width="1" onmouseover="setChange(evt)" onmouseout="unhiliteChange(evt)" onclick="changeMe(evt)" points="240.002,129.904 210.002,129.904 195.001,155.884 210.002,181.866 240.002,181.866 255.002,155.886" seed="6"/><polygon fill="rgb(147, 112, 219)" stroke="black" stroke-width="1" onmouseover="setChange(evt)" onmouseout="unhiliteChange(evt)" onclick="changeMe(evt)" points="165.001,103.924 135.001,103.924 150.001,129.904" seed="7"/><polygon fill="rgb(147, 112, 219)" stroke="black" stroke-width="1" onmouseover="setChange(evt)" onmouseout="unhiliteChange(evt)" onclick="changeMe(evt)" points="180.001,129.904 165.001,103.924 150.001,129.904" seed="8"/><polygon fill="rgb(147, 112, 219)" stroke="black" stroke-width="1" onmouseover="setChange(evt)" onmouseout="unhiliteChange(evt)" onclick="changeMe(evt)" points="60.0014,129.904 30.0015,129.904 45.0015,155.884" seed="9"/><polygon fill="rgb(147, 112, 219)" stroke="black" stroke-width="1" onmouseover="setChange(evt)" onmouseout="unhiliteChange(evt)" onclick="changeMe(evt)" points="90.0015,129.904 75.0014,103.922 60.0014,129.904" seed="10"/><polygon fill="rgb(147, 112, 219)" stroke="black" stroke-width="1" onmouseover="setChange(evt)" onmouseout="unhiliteChange(evt)" onclick="changeMe(evt)" points="105.001,103.924 75.0014,103.922 90.0015,129.904" seed="11"/><polygon fill="rgb(41, 171, 135)" stroke="black" stroke-width="1" onmouseover="setChange(evt)" onmouseout="unhiliteChange(evt)" onclick="changeMe(evt)" points="60.0014,77.9429 30.0005,77.9429 15.0014,103.922 30.0015,129.904 60.0014,129.904 75.0014,103.922" seed="12"/><polygon fill="rgb(41, 171, 135)" stroke="black" stroke-width="1" onmouseover="setChange(evt)" onmouseout="unhiliteChange(evt)" onclick="changeMe(evt)" points="60.0004,25.9807 30.0005,25.9807 15.0004,51.9617 30.0005,77.9429 60.0004,77.9429 74.9994,51.9617" seed="13"/><polygon fill="rgb(41, 171, 135)" stroke="black" stroke-width="1" onmouseover="setChange(evt)" onmouseout="unhiliteChange(evt)" onclick="changeMe(evt)" points="105.001,-0.000209808 74.9994,-0.000209808 60.0004,25.9807 74.9994,51.9617 105.001,51.9617 120.001,25.9807" seed="14"/><polygon fill="rgb(41, 171, 135)" stroke="black" stroke-width="1" onmouseover="setChange(evt)" onmouseout="unhiliteChange(evt)" onclick="changeMe(evt)" points="104.999,51.9617 74.9994,51.9617 60.0004,77.9429 74.9994,103.922 105.001,103.922 119.999,77.9429" seed="15"/><polygon fill="rgb(147, 112, 219)" stroke="black" stroke-width="1" onmouseover="setChange(evt)" onmouseout="unhiliteChange(evt)" onclick="changeMe(evt)" points="30.0005,77.9429 15.0004,51.9617 0.000175476,77.9419" seed="16"/><polygon fill="rgb(147, 112, 219)" stroke="black" stroke-width="1" onmouseover="setChange(evt)" onmouseout="unhiliteChange(evt)" onclick="changeMe(evt)" points="15.0014,103.922 30.0005,77.9419 0.000175476,77.9429" seed="17"/><polygon fill="rgb(147, 112, 219)" stroke="black" stroke-width="1" onmouseover="setChange(evt)" onmouseout="unhiliteChange(evt)" onclick="changeMe(evt)" points="60.0004,25.9807 45.0005,-0.000209808 30.0005,25.9807" seed="18"/><polygon fill="rgb(147, 112, 219)" stroke="black" stroke-width="1" onmouseover="setChange(evt)" onmouseout="unhiliteChange(evt)" onclick="changeMe(evt)" points="74.9994,-0.000209808 45.0005,-0.000209808 60.0004,25.9807" seed="19"/><polygon fill="rgb(147, 112, 219)" stroke="black" stroke-width="1" onmouseover="setChange(evt)" onmouseout="unhiliteChange(evt)" onclick="changeMe(evt)" points="135.001,-0.000209808 105.001,-0.000209808 120.001,25.9807" seed="20"/><polygon fill="rgb(147, 112, 219)" stroke="black" stroke-width="1" onmouseover="setChange(evt)" onmouseout="unhiliteChange(evt)" onclick="changeMe(evt)" points="135.001,51.9617 120.001,25.9807 104.999,51.9617" seed="21"/><polygon fill="rgb(147, 112, 219)" stroke="black" stroke-width="1" onmouseover="setChange(evt)" onmouseout="unhiliteChange(evt)" onclick="changeMe(evt)" points="134.999,51.9617 104.999,51.9617 119.999,77.9429" seed="22"/><polygon fill="rgb(147, 112, 219)" stroke="black" stroke-width="1" onmouseover="setChange(evt)" onmouseout="unhiliteChange(evt)" onclick="changeMe(evt)" points="135.001,103.922 119.999,77.9429 104.999,103.924" seed="23"/><polygon fill="rgb(41, 171, 135)" stroke="black" stroke-width="1" onmouseover="setChange(evt)" onmouseout="unhiliteChange(evt)" onclick="changeMe(evt)" points="165.001,0.000789642 135.001,-0.000209808 120.001,25.9807 135.001,51.9617 165.001,51.9617 180.001,25.9807" seed="24"/><polygon fill="rgb(41, 171, 135)" stroke="black" stroke-width="1" onmouseover="setChange(evt)" onmouseout="unhiliteChange(evt)" onclick="changeMe(evt)" points="164.999,51.9627 134.999,51.9617 119.999,77.9429 134.999,103.924 165.001,103.924 179.999,77.9429" seed="25"/><polygon fill="rgb(41, 171, 135)" stroke="black" stroke-width="1" onmouseover="setChange(evt)" onmouseout="unhiliteChange(evt)" onclick="changeMe(evt)" points="210.002,25.9807 180.001,25.9807 165.001,51.9617 180.001,77.9429 210.002,77.9429 225.002,51.9617" seed="26"/><polygon fill="rgb(41, 171, 135)" stroke="black" stroke-width="1" onmouseover="setChange(evt)" onmouseout="unhiliteChange(evt)" onclick="changeMe(evt)" points="210,77.9429 179.999,77.9429 165.001,103.924 180.001,129.904 210.002,129.904 225.002,103.924" seed="27"/><polygon fill="rgb(147, 112, 219)" stroke="black" stroke-width="1" onmouseover="setChange(evt)" onmouseout="unhiliteChange(evt)" onclick="changeMe(evt)" points="270.002,181.866 255.002,155.886 240.002,181.866" seed="28"/><polygon fill="rgb(147, 112, 219)" stroke="black" stroke-width="1" onmouseover="setChange(evt)" onmouseout="unhiliteChange(evt)" onclick="changeMe(evt)" points="240.002,129.904 225.002,103.924 210.002,129.904" seed="29"/><polygon fill="rgb(147, 112, 219)" stroke="black" stroke-width="1" onmouseover="setChange(evt)" onmouseout="unhiliteChange(evt)" onclick="changeMe(evt)" points="195.001,0.000789642 165.001,0.000789642 179.999,25.9819" seed="30"/><polygon fill="rgb(147, 112, 219)" stroke="black" stroke-width="1" onmouseover="setChange(evt)" onmouseout="unhiliteChange(evt)" onclick="changeMe(evt)" points="210.002,25.9807 195.001,-0.000209808 180.001,25.9807" seed="31"/><polygon fill="rgb(147, 112, 219)" stroke="black" stroke-width="1" onmouseover="setChange(evt)" onmouseout="unhiliteChange(evt)" onclick="changeMe(evt)" points="135.001,207.846 120.001,233.828 105.001,207.846" seed="32"/></g></svg>
