<?xml version="1.0" encoding="utf-8" ?>

		<svg xmlns="http://www.w3.org/2000/svg" id="mainSVG" pointer-events="all" onkeyup="attachKey(evt)" width="245.721" height="213.84" EdgeLen="30" template="B26_18_6_R">

		<polygon id="BorderPoly" fill="none" pointer-events="none" stroke="red" stroke-width="4" transform="" points="214.168,15.5278 185.193,7.76476 155.193,7.76476 125.194,7.76476 95.1935,7.76476 66.2135,-0.000244141 51.2135,25.9808 36.2135,51.9618 21.2135,77.9418 -0.000495911,99.1548 15.0005,125.136 30.0005,151.117 45.0005,177.098 52.7665,206.078 82.7665,206.077 112.767,206.077 142.767,206.076 171.743,213.841 186.743,187.86 201.742,161.879 216.742,135.899 245.72,143.661 237.956,114.684 222.956,88.7018 207.956,62.7218 192.954,36.7418" />
		<g id="mainPolyG" transform=""><polygon id="mainPoly" fill="rgb(252, 194, 0)" stroke="black" onmouseover="setChange(evt)" onmouseout="unhiliteChange(evt)" onclick="changeMe(evt)" points="133.978,132.901 118.979,106.921 103.979,132.902" seed="0" /><polygon fill="rgb(147, 112, 219)" stroke="black" stroke-width="1" onmouseover="setChange(evt)" onmouseout="unhiliteChange(evt)" onclick="changeMe(evt)" points="118.979,106.921 88.9785,106.921 103.979,132.901" seed="1" /><polygon fill="rgb(147, 112, 219)" stroke="black" stroke-width="1" onmouseover="setChange(evt)" onmouseout="unhiliteChange(evt)" onclick="changeMe(evt)" points="133.978,132.901 148.978,106.92 118.979,106.921" seed="2" /><polygon fill="rgb(147, 112, 219)" stroke="black" stroke-width="1" onmouseover="setChange(evt)" onmouseout="unhiliteChange(evt)" onclick="changeMe(evt)" points="118.979,106.921 103.979,80.9398 88.9785,106.921" seed="3" /><polygon fill="rgb(147, 112, 219)" stroke="black" stroke-width="1" onmouseover="setChange(evt)" onmouseout="unhiliteChange(evt)" onclick="changeMe(evt)" points="148.978,106.92 133.978,80.9398 118.979,106.921" seed="4" /><polygon fill="rgb(147, 112, 219)" stroke="black" stroke-width="1" onmouseover="setChange(evt)" onmouseout="unhiliteChange(evt)" onclick="changeMe(evt)" points="133.978,80.9398 103.979,80.9398 118.979,106.921" seed="5" /><polygon fill="rgb(91, 146, 229)" stroke="black" stroke-width="1" onmouseover="setChange(evt)" onmouseout="unhiliteChange(evt)" onclick="changeMe(evt)" transform="" points="88.9785,106.92 60.0005,99.1558 75.0005,125.137 103.979,132.901" seed="6" /><polygon fill="rgb(91, 146, 229)" stroke="black" stroke-width="1" onmouseover="setChange(evt)" onmouseout="unhiliteChange(evt)" onclick="changeMe(evt)" transform="" points="155.193,59.7268 125.192,59.7268 103.979,80.9398 133.979,80.9398" seed="7" /><polygon fill="rgb(91, 146, 229)" stroke="black" stroke-width="1" onmouseover="setChange(evt)" onmouseout="unhiliteChange(evt)" onclick="changeMe(evt)" transform="" points="156.742,135.898 148.978,106.92 133.978,132.901 141.742,161.879" seed="8" /><polygon fill="rgb(91, 146, 229)" stroke="black" stroke-width="1" onmouseover="setChange(evt)" onmouseout="unhiliteChange(evt)" onclick="changeMe(evt)" transform="" points="103.979,80.9398 96.2135,51.9618 81.2135,77.9428 88.9785,106.921" seed="9" /><polygon fill="rgb(91, 146, 229)" stroke="black" stroke-width="1" onmouseover="setChange(evt)" onmouseout="unhiliteChange(evt)" onclick="changeMe(evt)" transform="" points="162.956,88.7038 133.978,80.9398 148.978,106.92 177.956,114.684" seed="10" /><polygon fill="rgb(91, 146, 229)" stroke="black" stroke-width="1" onmouseover="setChange(evt)" onmouseout="unhiliteChange(evt)" onclick="changeMe(evt)" transform="" points="112.766,154.115 133.978,132.901 103.979,132.902 82.7655,154.115" seed="11" /><polygon fill="rgb(147, 112, 219)" stroke="black" stroke-width="1" onmouseover="setChange(evt)" onmouseout="unhiliteChange(evt)" onclick="changeMe(evt)" points="125.192,59.7258 96.2135,51.9618 103.979,80.9388" seed="12" /><polygon fill="rgb(147, 112, 219)" stroke="black" stroke-width="1" onmouseover="setChange(evt)" onmouseout="unhiliteChange(evt)" onclick="changeMe(evt)" points="162.956,88.7038 155.19,59.7258 133.978,80.9398" seed="13" /><polygon fill="rgb(147, 112, 219)" stroke="black" stroke-width="1" onmouseover="setChange(evt)" onmouseout="unhiliteChange(evt)" onclick="changeMe(evt)" points="177.956,114.684 148.979,106.92 156.743,135.898" seed="14" /><polygon fill="rgb(147, 112, 219)" stroke="black" stroke-width="1" onmouseover="setChange(evt)" onmouseout="unhiliteChange(evt)" onclick="changeMe(evt)" points="141.742,161.879 133.978,132.901 112.766,154.114" seed="15" /><polygon fill="rgb(147, 112, 219)" stroke="black" stroke-width="1" onmouseover="setChange(evt)" onmouseout="unhiliteChange(evt)" onclick="changeMe(evt)" points="103.979,132.901 75.0005,125.137 82.7645,154.115" seed="16" /><polygon fill="rgb(147, 112, 219)" stroke="black" stroke-width="1" onmouseover="setChange(evt)" onmouseout="unhiliteChange(evt)" onclick="changeMe(evt)" points="88.9785,106.921 81.2135,77.9428 60.0005,99.1558" seed="17" /><polygon fill="rgb(41, 171, 135)" stroke="black" stroke-width="1" onmouseover="setChange(evt)" onmouseout="unhiliteChange(evt)" onclick="changeMe(evt)" points="81.2135,25.9808 51.2135,25.9808 36.2135,51.9618 51.2135,77.9428 81.2135,77.9428 96.2135,51.9618" seed="18" /><polygon fill="rgb(41, 171, 135)" stroke="black" stroke-width="1" onmouseover="setChange(evt)" onmouseout="unhiliteChange(evt)" onclick="changeMe(evt)" points="155.193,7.76476 125.194,7.76476 110.194,33.7458 125.192,59.7268 155.193,59.7268 170.193,33.7458" seed="19" /><polygon fill="rgb(41, 171, 135)" stroke="black" stroke-width="1" onmouseover="setChange(evt)" onmouseout="unhiliteChange(evt)" onclick="changeMe(evt)" points="222.956,88.7018 207.956,62.7218 177.956,62.7228 162.956,88.7038 177.956,114.684 207.956,114.684" seed="20" /><polygon fill="rgb(41, 171, 135)" stroke="black" stroke-width="1" onmouseover="setChange(evt)" onmouseout="unhiliteChange(evt)" onclick="changeMe(evt)" points="186.742,135.899 156.742,135.898 141.742,161.879 156.742,187.86 186.743,187.86 201.742,161.879" seed="21" /><polygon fill="rgb(41, 171, 135)" stroke="black" stroke-width="1" onmouseover="setChange(evt)" onmouseout="unhiliteChange(evt)" onclick="changeMe(evt)" points="127.766,180.095 112.766,154.115 82.7655,154.115 67.7655,180.097 82.7665,206.077 112.767,206.077" seed="22" /><polygon fill="rgb(41, 171, 135)" stroke="black" stroke-width="1" onmouseover="setChange(evt)" onmouseout="unhiliteChange(evt)" onclick="changeMe(evt)" points="60.0005,99.1558 30.0005,99.1558 15.0005,125.136 30.0005,151.117 60.0005,151.117 75.0005,125.137" seed="23" /><polygon fill="rgb(91, 146, 229)" stroke="black" stroke-width="1" onmouseover="setChange(evt)" onmouseout="unhiliteChange(evt)" onclick="changeMe(evt)" transform="" points="81.2135,77.9428 51.2135,77.9428 30.0005,99.1558 60.0005,99.1558" seed="24" /><polygon fill="rgb(91, 146, 229)" stroke="black" stroke-width="1" onmouseover="setChange(evt)" onmouseout="unhiliteChange(evt)" onclick="changeMe(evt)" transform="" points="110.192,33.7448 81.2135,25.9808 96.2135,51.9618 125.192,59.7258" seed="25" /><polygon fill="rgb(91, 146, 229)" stroke="black" stroke-width="1" onmouseover="setChange(evt)" onmouseout="unhiliteChange(evt)" onclick="changeMe(evt)" transform="" points="177.956,62.7228 170.19,33.7448 155.19,59.7258 162.956,88.7038" seed="26" /><polygon fill="rgb(91, 146, 229)" stroke="black" stroke-width="1" onmouseover="setChange(evt)" onmouseout="unhiliteChange(evt)" onclick="changeMe(evt)" transform="" points="186.743,135.897 207.956,114.684 177.956,114.684 156.743,135.898" seed="27" /><polygon fill="rgb(91, 146, 229)" stroke="black" stroke-width="1" onmouseover="setChange(evt)" onmouseout="unhiliteChange(evt)" onclick="changeMe(evt)" transform="" points="141.742,161.879 112.765,154.114 127.765,180.095 156.742,187.86" seed="28" /><polygon fill="rgb(91, 146, 229)" stroke="black" stroke-width="1" onmouseover="setChange(evt)" onmouseout="unhiliteChange(evt)" onclick="changeMe(evt)" transform="" points="82.7645,154.115 75.0005,125.137 60.0005,151.118 67.7645,180.096" seed="29" /><polygon fill="rgb(147, 112, 219)" stroke="black" stroke-width="1" onmouseover="setChange(evt)" onmouseout="unhiliteChange(evt)" onclick="changeMe(evt)" points="81.2135,25.9808 66.2135,-0.000244141 51.2135,25.9808" seed="30" /><polygon fill="rgb(147, 112, 219)" stroke="black" stroke-width="1" onmouseover="setChange(evt)" onmouseout="unhiliteChange(evt)" onclick="changeMe(evt)" points="110.194,33.7458 125.194,7.76476 95.1935,7.76476" seed="31" /><polygon fill="rgb(147, 112, 219)" stroke="black" stroke-width="1" onmouseover="setChange(evt)" onmouseout="unhiliteChange(evt)" onclick="changeMe(evt)" points="185.193,7.76476 155.193,7.76476 170.194,33.7458" seed="32" /><polygon fill="rgb(147, 112, 219)" stroke="black" stroke-width="1" onmouseover="setChange(evt)" onmouseout="unhiliteChange(evt)" onclick="changeMe(evt)" points="207.956,62.7218 192.956,36.7408 177.956,62.7228" seed="33" /><polygon fill="rgb(147, 112, 219)" stroke="black" stroke-width="1" onmouseover="setChange(evt)" onmouseout="unhiliteChange(evt)" onclick="changeMe(evt)" points="237.956,114.684 222.956,88.7028 207.956,114.684" seed="34" /><polygon fill="rgb(147, 112, 219)" stroke="black" stroke-width="1" onmouseover="setChange(evt)" onmouseout="unhiliteChange(evt)" onclick="changeMe(evt)" points="51.2135,77.9418 36.2135,51.9618 21.2135,77.9418" seed="35" /><polygon fill="rgb(147, 112, 219)" stroke="black" stroke-width="1" onmouseover="setChange(evt)" onmouseout="unhiliteChange(evt)" onclick="changeMe(evt)" points="30.0005,99.1548 -0.000495911,99.1548 15.0005,125.136" seed="36" /><polygon fill="rgb(147, 112, 219)" stroke="black" stroke-width="1" onmouseover="setChange(evt)" onmouseout="unhiliteChange(evt)" onclick="changeMe(evt)" points="60.0005,151.117 30.0005,151.117 45.0005,177.098" seed="37" /><polygon fill="rgb(147, 112, 219)" stroke="black" stroke-width="1" onmouseover="setChange(evt)" onmouseout="unhiliteChange(evt)" onclick="changeMe(evt)" points="82.7655,206.077 67.7655,180.097 52.7665,206.078" seed="38" /><polygon fill="rgb(147, 112, 219)" stroke="black" stroke-width="1" onmouseover="setChange(evt)" onmouseout="unhiliteChange(evt)" onclick="changeMe(evt)" points="142.767,206.076 127.766,180.095 112.767,206.077" seed="39" /><polygon fill="rgb(147, 112, 219)" stroke="black" stroke-width="1" onmouseover="setChange(evt)" onmouseout="unhiliteChange(evt)" onclick="changeMe(evt)" points="186.743,187.86 156.743,187.86 171.743,213.841" seed="40" /><polygon fill="rgb(147, 112, 219)" stroke="black" stroke-width="1" onmouseover="setChange(evt)" onmouseout="unhiliteChange(evt)" onclick="changeMe(evt)" points="216.742,135.899 186.742,135.899 201.742,161.879" seed="41" /><polygon fill="rgb(91, 146, 229)" stroke="black" stroke-width="1" onmouseover="setChange(evt)" onmouseout="unhiliteChange(evt)" onclick="changeMe(evt)" transform="" points="51.2135,77.9428 21.2135,77.9418 0.00050354,99.1548 30.0005,99.1558" seed="42" /><polygon fill="rgb(91, 146, 229)" stroke="black" stroke-width="1" onmouseover="setChange(evt)" onmouseout="unhiliteChange(evt)" onclick="changeMe(evt)" transform="" points="95.1905,7.76476 66.2125,0.00075531 81.2135,25.9808 110.192,33.7448" seed="43" /><polygon fill="rgb(91, 146, 229)" stroke="black" stroke-width="1" onmouseover="setChange(evt)" onmouseout="unhiliteChange(evt)" onclick="changeMe(evt)" transform="" points="192.954,36.7418 185.19,7.76376 170.19,33.7448 177.956,62.7228" seed="44" /><polygon fill="rgb(91, 146, 229)" stroke="black" stroke-width="1" onmouseover="setChange(evt)" onmouseout="unhiliteChange(evt)" onclick="changeMe(evt)" transform="" points="216.743,135.897 237.956,114.683 207.956,114.684 186.743,135.897" seed="45" /><polygon fill="rgb(91, 146, 229)" stroke="black" stroke-width="1" onmouseover="setChange(evt)" onmouseout="unhiliteChange(evt)" onclick="changeMe(evt)" transform="" points="156.743,187.86 127.766,180.095 142.766,206.076 171.743,213.841" seed="46" /><polygon fill="rgb(91, 146, 229)" stroke="black" stroke-width="1" onmouseover="setChange(evt)" onmouseout="unhiliteChange(evt)" onclick="changeMe(evt)" transform="" points="67.7645,180.095 60.0005,151.117 45.0005,177.098 52.7645,206.076" seed="47" /><polygon fill="rgb(147, 112, 219)" stroke="black" stroke-width="1" onmouseover="setChange(evt)" onmouseout="unhiliteChange(evt)" onclick="changeMe(evt)" points="214.168,15.5278 185.19,7.76376 192.954,36.7418" seed="48" /><polygon fill="rgb(147, 112, 219)" stroke="black" stroke-width="1" onmouseover="setChange(evt)" onmouseout="unhiliteChange(evt)" onclick="changeMe(evt)" points="245.72,143.661 237.956,114.683 216.743,135.897" seed="49" /></g>


		</svg>
