<?xml version="1.0" encoding="utf-8"?>
<svg xmlns="http://www.w3.org/2000/svg" id="mainSVG" pointer-events="all" width="135.001" height="129.904" EdgeLen="30" template="u6_31_tu" code="B2_0_3_0" copyright="Francis Hemsher, 2012">
	<polygon id="BorderPoly" fill="none" pointer-events="none" stroke="red" stroke-width="4" transform="" points="120.001,7.62939e-006 89.9998,7.62939e-006 74.9998,25.9805 59.9998,51.961 44.9998,77.942 15,77.942 -4.57764e-005,103.923 15,129.904 44.9998,129.904 59.9998,103.923 90.0008,103.923 105.001,77.943 120.001,51.961 135.001,25.981"/>
	<g id="mainPolyG" transform=""><polygon id="mainPoly" fill="rgb(252, 194, 0)" stroke="black" onmouseover="setChange(evt)" onmouseout="unhiliteChange(evt)" onclick="changeMe(evt)" points="44.9998,77.942 15,77.942 -4.57764e-005,103.923 15,129.904 44.9998,129.904 59.9998,103.923" seed="0"/><polygon fill="rgb(41, 171, 135)" stroke="black" stroke-width="1" onmouseover="setChange(evt)" onmouseout="unhiliteChange(evt)" onclick="changeMe(evt)" points="90.0008,51.961 59.9998,51.961 44.9998,77.942 59.9998,103.923 90.0008,103.923 105.001,77.943" seed="1"/><polygon fill="rgb(147, 112, 219)" stroke="black" stroke-width="1" onmouseover="setChange(evt)" onmouseout="unhiliteChange(evt)" onclick="changeMe(evt)" points="89.9998,51.961 74.9998,25.9805 59.9998,51.961" seed="2"/><polygon fill="rgb(147, 112, 219)" stroke="black" stroke-width="1" onmouseover="setChange(evt)" onmouseout="unhiliteChange(evt)" onclick="changeMe(evt)" points="120.001,51.961 90.0008,51.961 105.001,77.943" seed="3"/><polygon fill="rgb(41, 171, 135)" stroke="black" stroke-width="1" onmouseover="setChange(evt)" onmouseout="unhiliteChange(evt)" onclick="changeMe(evt)" points="120.001,7.62939e-006 89.9998,7.62939e-006 74.9998,25.9805 89.9998,51.961 120.001,51.961 135.001,25.981" seed="4"/></g>
</svg>
