<?xml version="1.0" encoding="utf-8"?>
<svg xmlns="http://www.w3.org/2000/svg" id="mainSVG" pointer-events="all" width="100.98" height="92.9425" EdgeLen="30" template="u2_7_tu" code="B2_2_1_0" copyright="Francis Hemsher, 2012">
	<polygon id="BorderPoly" fill="none" pointer-events="none" stroke="red" stroke-width="4" transform="" points="70.9808,4.57764e-005 44.9999,15 29.9999,40.9805 -4.95911e-005,40.9805 14.9999,66.9617 29.9999,92.9427 59.9997,92.9427 74.9997,66.9617 100.981,51.962 85.9807,25.981"/>
	<g id="mainPolyG" transform=""><polygon id="mainPoly" fill="rgb(252, 194, 0)" stroke="black" onmouseover="setChange(evt)" onmouseout="unhiliteChange(evt)" onclick="changeMe(evt)" points="59.9997,40.9805 29.9999,40.9805 14.9999,66.9617 29.9999,92.9427 59.9997,92.9427 74.9997,66.9617" seed="0"/><polygon fill="rgb(224, 176, 255)" stroke="black" stroke-width="1" onmouseover="setChange(evt)" onmouseout="unhiliteChange(evt)" onclick="changeMe(evt)" points="29.9999,40.9805 -4.95911e-005,40.9805 14.9999,66.9617" seed="1"/><polygon fill="rgb(224, 176, 255)" stroke="black" stroke-width="1" onmouseover="setChange(evt)" onmouseout="unhiliteChange(evt)" onclick="changeMe(evt)" points="59.9997,40.9805 44.9999,15 29.9999,40.9805" seed="2"/><polygon fill="rgb(41, 171, 135)" stroke="black" stroke-width="1" onmouseover="setChange(evt)" onmouseout="unhiliteChange(evt)" onclick="changeMe(evt)" points="85.9807,25.981 70.9808,4.57764e-005 44.9999,15 59.9997,40.9805" seed="3"/><polygon fill="rgb(41, 171, 135)" stroke="black" stroke-width="1" onmouseover="setChange(evt)" onmouseout="unhiliteChange(evt)" onclick="changeMe(evt)" points="100.981,51.962 85.9807,25.9805 60.0007,40.981 74.9997,66.9617" seed="4"/></g>
</svg>
