<?xml version="1.0" encoding="utf-8" ?>

		<svg xmlns="http://www.w3.org/2000/svg" id="mainSVG" pointer-events="all" onkeyup="attachKey(evt)" width="102.427" height="94.388" EdgeLen="30" template="B2_4_1_R">

		<polygon id="BorderPoly" fill="none" pointer-events="none" stroke="red" stroke-width="4" transform="" points="102.428,0.000492096 72.4275,0.000492096 42.427,-7.62939e-006 27.427,25.981 42.427,51.962 21.2135,73.175 0,94.388 30,94.388 60.0005,94.388 81.2135,73.175 102.428,51.962 87.4275,25.9815" />
		<g id="mainPolyG" transform=""><polygon id="mainPoly" fill="rgb(252, 194, 0)" stroke="black" onmouseover="setChange(evt)" onmouseout="unhiliteChange(evt)" onclick="changeMe(evt)" points="72.4275,-7.62939e-006 42.427,-7.62939e-006 27.427,25.981 42.427,51.962 72.4275,51.962 87.4275,25.981" seed="0" /><polygon fill="rgb(147, 112, 219)" stroke="black" stroke-width="1" onmouseover="setChange(evt)" onmouseout="unhiliteChange(evt)" onclick="changeMe(evt)" points="102.428,0.000492096 72.4275,0.000492096 87.4275,25.981" seed="1" /><polygon fill="rgb(147, 112, 219)" stroke="black" stroke-width="1" onmouseover="setChange(evt)" onmouseout="unhiliteChange(evt)" onclick="changeMe(evt)" points="102.428,51.962 87.4275,25.9815 72.4275,51.962" seed="2" /><polygon fill="rgb(91, 146, 229)" stroke="black" stroke-width="1" onmouseover="setChange(evt)" onmouseout="unhiliteChange(evt)" onclick="changeMe(evt)" transform="" points="72.4275,51.962 42.427,51.962 21.2135,73.175 51.2145,73.175" seed="3" /><polygon fill="rgb(91, 146, 229)" stroke="black" stroke-width="1" onmouseover="setChange(evt)" onmouseout="unhiliteChange(evt)" onclick="changeMe(evt)" transform="" points="102.428,51.962 72.4275,51.962 51.2135,73.175 81.2135,73.175" seed="4" /><polygon fill="rgb(91, 146, 229)" stroke="black" stroke-width="1" onmouseover="setChange(evt)" onmouseout="unhiliteChange(evt)" onclick="changeMe(evt)" transform="" points="81.2135,73.175 51.2135,73.175 30,94.388 60.0005,94.388" seed="5" /><polygon fill="rgb(91, 146, 229)" stroke="black" stroke-width="1" onmouseover="setChange(evt)" onmouseout="unhiliteChange(evt)" onclick="changeMe(evt)" transform="" points="51.2135,73.175 21.2135,73.175 0,94.388 30,94.388" seed="6" /></g>


		</svg>
