<?xml version="1.0" encoding="utf-8"?>
<svg xmlns="http://www.w3.org/2000/svg" id="mainSVG" pointer-events="all" width="204.905" height="156.962" EdgeLen="30" template="u5_39_tu" code="B2_6_3_1" copyright="Francis Hemsher, 2012">
	<polygon id="BorderPoly" fill="none" pointer-events="none" stroke="red" stroke-width="4" transform="" points="96.9618,0.000953674 70.9818,15.0014 40.9818,15.0005 40.9818,45.0008 15.0008,60.0007 0.00075531,85.9818 -0.000244141,115.982 14.9998,141.962 40.9808,156.962 70.9808,156.963 96.9618,141.963 122.942,156.962 152.942,156.963 178.923,141.963 163.924,115.982 163.925,85.9818 178.924,59.9998 204.905,44.9998 204.904,15 178.923,-4.57764e-005 152.942,15.0005 122.943,15.0005"/>
	<g id="mainPolyG" transform=""><polygon id="mainPoly" fill="rgb(252, 194, 0)" stroke="black" onmouseover="setChange(evt)" onmouseout="unhiliteChange(evt)" onclick="changeMe(evt)" points="70.9808,45.0008 40.9808,45.0008 15.0008,60.0007 0.00075531,85.9818 -0.000244141,115.982 14.9998,141.962 40.9808,156.962 70.9808,156.963 96.9618,141.963 111.962,115.982 111.962,85.9818 96.9618,60.0007" seed="0"/><polygon fill="rgb(224, 176, 255)" stroke="black" stroke-width="1" onmouseover="setChange(evt)" onmouseout="unhiliteChange(evt)" onclick="changeMe(evt)" points="70.9818,15.0014 40.9818,15.0005 40.9818,45.0008 70.9808,45.0008" seed="1"/><polygon fill="rgb(224, 176, 255)" stroke="black" stroke-width="1" onmouseover="setChange(evt)" onmouseout="unhiliteChange(evt)" onclick="changeMe(evt)" points="137.943,70.9818 122.943,45.0008 96.9618,60.0007 111.962,85.9818" seed="2"/><polygon fill="rgb(224, 176, 255)" stroke="black" stroke-width="1" onmouseover="setChange(evt)" onmouseout="unhiliteChange(evt)" onclick="changeMe(evt)" points="137.943,130.982 111.961,115.982 96.9618,141.963 122.942,156.962" seed="3"/><polygon fill="rgb(41, 171, 135)" stroke="black" stroke-width="1" onmouseover="setChange(evt)" onmouseout="unhiliteChange(evt)" onclick="changeMe(evt)" points="122.943,15.0005 96.9618,0.000953674 70.9818,15.001 70.9808,45.0008 96.9618,60.0007 122.943,45.0008" seed="4"/><polygon fill="rgb(41, 171, 135)" stroke="black" stroke-width="1" onmouseover="setChange(evt)" onmouseout="unhiliteChange(evt)" onclick="changeMe(evt)" points="163.924,85.9818 137.944,70.9818 111.962,85.9818 111.962,115.982 137.942,130.982 163.924,115.982" seed="5"/><polygon fill="rgb(224, 176, 255)" stroke="black" stroke-width="1" onmouseover="setChange(evt)" onmouseout="unhiliteChange(evt)" onclick="changeMe(evt)" points="152.942,15.0005 122.943,15.0005 122.943,44.9998 152.943,45.0008" seed="6"/><polygon fill="rgb(41, 171, 135)" stroke="black" stroke-width="1" onmouseover="setChange(evt)" onmouseout="unhiliteChange(evt)" onclick="changeMe(evt)" points="204.904,15 178.923,-4.57764e-005 152.942,15.0005 152.943,45.0008 178.924,59.9998 204.905,44.9998" seed="7"/><polygon fill="rgb(224, 176, 255)" stroke="black" stroke-width="1" onmouseover="setChange(evt)" onmouseout="unhiliteChange(evt)" onclick="changeMe(evt)" points="178.924,59.9998 152.943,45.0008 137.944,70.9818 163.925,85.9818" seed="8"/><polygon fill="rgb(224, 176, 255)" stroke="black" stroke-width="1" onmouseover="setChange(evt)" onmouseout="unhiliteChange(evt)" onclick="changeMe(evt)" points="178.923,141.963 163.924,115.982 137.943,130.982 152.942,156.963" seed="9"/><polygon fill="rgb(147, 112, 219)" stroke="black" stroke-width="1" onmouseover="setChange(evt)" onmouseout="unhiliteChange(evt)" onclick="changeMe(evt)" points="152.943,45.0008 122.943,44.9998 137.942,70.9808" seed="10"/><polygon fill="rgb(147, 112, 219)" stroke="black" stroke-width="1" onmouseover="setChange(evt)" onmouseout="unhiliteChange(evt)" onclick="changeMe(evt)" points="152.942,156.963 137.943,130.982 122.942,156.962" seed="11"/></g>
</svg>
