<?xml version="1.0" encoding="utf-8" ?>

		<svg xmlns="http://www.w3.org/2000/svg" id="mainSVG" pointer-events="all" onkeyup="attachKey(evt)" width="285.576" height="242.818" EdgeLen="30" template="B30_27_7_R">





		<polygon id="BorderPoly" fill="none" pointer-events="none" stroke="red" stroke-width="4" transform="" points="176.932,-2.28882e-005 147.954,7.76498 118.976,15.5308 89.9998,23.2928 59.9998,23.2928 29.9998,23.2928 -2.28882e-005,23.2928 21.213,44.5068 42.426,65.72 63.6378,86.933 48.639,112.915 33.6398,138.895 18.6388,164.875 33.639,190.857 48.639,216.836 63.6398,242.818 93.6398,242.818 123.638,242.818 153.638,242.818 182.616,235.054 211.594,227.288 240.572,219.524 255.574,193.545 270.574,167.565 285.576,141.583 264.362,120.371 243.146,99.155 221.934,77.9408 206.934,51.96 191.934,25.9798" /><g id="mainPolyG" transform=""><polygon id="mainPoly" fill="rgb(252, 194, 0)" stroke="black" onmouseover="setChange(evt)" onmouseout="unhiliteChange(evt)" onclick="changeMe(evt)" points="123.638,138.895 93.6398,138.895 78.6398,164.877 93.6398,190.857 123.638,190.857 138.638,164.877" seed="0" /><polygon fill="rgb(41, 171, 135)" stroke="black" stroke-width="1" onmouseover="setChange(evt)" onmouseout="unhiliteChange(evt)" onclick="changeMe(evt)" points="123.638,86.933 93.6398,86.933 78.6398,112.915 93.6398,138.895 123.638,138.895 138.638,112.915" seed="1" /><polygon fill="rgb(41, 171, 135)" stroke="black" stroke-width="1" onmouseover="setChange(evt)" onmouseout="unhiliteChange(evt)" onclick="changeMe(evt)" points="168.64,112.915 138.638,112.915 123.638,138.895 138.638,164.877 168.64,164.877 183.64,138.895" seed="2" /><polygon fill="rgb(41, 171, 135)" stroke="black" stroke-width="1" onmouseover="setChange(evt)" onmouseout="unhiliteChange(evt)" onclick="changeMe(evt)" points="168.638,164.877 138.638,164.877 123.638,190.857 138.638,216.836 168.64,216.836 183.638,190.857" seed="3" /><polygon fill="rgb(41, 171, 135)" stroke="black" stroke-width="1" onmouseover="setChange(evt)" onmouseout="unhiliteChange(evt)" onclick="changeMe(evt)" points="123.638,190.857 93.6398,190.857 78.6398,216.838 93.6398,242.818 123.638,242.818 138.638,216.838" seed="4" /><polygon fill="rgb(41, 171, 135)" stroke="black" stroke-width="1" onmouseover="setChange(evt)" onmouseout="unhiliteChange(evt)" onclick="changeMe(evt)" points="78.6398,164.877 48.6384,164.877 33.6384,190.857 48.6384,216.836 78.6398,216.836 93.6398,190.857" seed="5" /><polygon fill="rgb(41, 171, 135)" stroke="black" stroke-width="1" onmouseover="setChange(evt)" onmouseout="unhiliteChange(evt)" onclick="changeMe(evt)" points="78.6398,112.915 48.6384,112.915 33.6392,138.895 48.6392,164.875 78.6398,164.877 93.6398,138.895" seed="6" /><polygon fill="rgb(147, 112, 219)" stroke="black" stroke-width="1" onmouseover="setChange(evt)" onmouseout="unhiliteChange(evt)" onclick="changeMe(evt)" points="78.6378,112.915 63.6378,86.933 48.6384,112.915" seed="7" /><polygon fill="rgb(147, 112, 219)" stroke="black" stroke-width="1" onmouseover="setChange(evt)" onmouseout="unhiliteChange(evt)" onclick="changeMe(evt)" points="93.6378,86.933 63.6398,86.933 78.6398,112.915" seed="8" /><polygon fill="rgb(147, 112, 219)" stroke="black" stroke-width="1" onmouseover="setChange(evt)" onmouseout="unhiliteChange(evt)" onclick="changeMe(evt)" points="153.638,86.933 123.638,86.933 138.638,112.913" seed="9" /><polygon fill="rgb(147, 112, 219)" stroke="black" stroke-width="1" onmouseover="setChange(evt)" onmouseout="unhiliteChange(evt)" onclick="changeMe(evt)" points="168.638,112.913 153.638,86.933 138.638,112.913" seed="10" /><polygon fill="rgb(147, 112, 219)" stroke="black" stroke-width="1" onmouseover="setChange(evt)" onmouseout="unhiliteChange(evt)" onclick="changeMe(evt)" points="198.64,164.877 183.64,138.895 168.638,164.877" seed="11" /><polygon fill="rgb(147, 112, 219)" stroke="black" stroke-width="1" onmouseover="setChange(evt)" onmouseout="unhiliteChange(evt)" onclick="changeMe(evt)" points="198.638,164.877 168.638,164.877 183.638,190.857" seed="12" /><polygon fill="rgb(147, 112, 219)" stroke="black" stroke-width="1" onmouseover="setChange(evt)" onmouseout="unhiliteChange(evt)" onclick="changeMe(evt)" points="168.64,216.836 138.64,216.836 153.64,242.818" seed="13" /><polygon fill="rgb(147, 112, 219)" stroke="black" stroke-width="1" onmouseover="setChange(evt)" onmouseout="unhiliteChange(evt)" onclick="changeMe(evt)" points="153.638,242.818 138.64,216.836 123.64,242.818" seed="14" /><polygon fill="rgb(147, 112, 219)" stroke="black" stroke-width="1" onmouseover="setChange(evt)" onmouseout="unhiliteChange(evt)" onclick="changeMe(evt)" points="93.6398,242.818 78.6398,216.838 63.6398,242.818" seed="15" /><polygon fill="rgb(147, 112, 219)" stroke="black" stroke-width="1" onmouseover="setChange(evt)" onmouseout="unhiliteChange(evt)" onclick="changeMe(evt)" points="78.6398,216.838 48.6392,216.838 63.6398,242.818" seed="16" /><polygon fill="rgb(147, 112, 219)" stroke="black" stroke-width="1" onmouseover="setChange(evt)" onmouseout="unhiliteChange(evt)" onclick="changeMe(evt)" points="48.6392,164.877 18.6382,164.875 33.6384,190.857" seed="17" /><polygon fill="rgb(147, 112, 219)" stroke="black" stroke-width="1" onmouseover="setChange(evt)" onmouseout="unhiliteChange(evt)" onclick="changeMe(evt)" points="48.6392,164.877 33.6392,138.895 18.6392,164.875" seed="18" /><polygon fill="rgb(91, 146, 229)" stroke="black" stroke-width="1" onmouseover="setChange(evt)" onmouseout="unhiliteChange(evt)" onclick="changeMe(evt)" transform="" points="176.404,83.935 161.404,57.9546 153.638,86.933 168.638,112.915" seed="19" /><polygon fill="rgb(91, 146, 229)" stroke="black" stroke-width="1" onmouseover="setChange(evt)" onmouseout="unhiliteChange(evt)" onclick="changeMe(evt)" transform="" points="206.404,135.899 191.404,109.917 183.64,138.895 198.64,164.877" seed="20" /><polygon fill="rgb(91, 146, 229)" stroke="black" stroke-width="1" onmouseover="setChange(evt)" onmouseout="unhiliteChange(evt)" onclick="changeMe(evt)" transform="" points="214.168,106.921 199.168,80.939 191.404,109.917 206.404,135.899" seed="21" /><polygon fill="rgb(91, 146, 229)" stroke="black" stroke-width="1" onmouseover="setChange(evt)" onmouseout="unhiliteChange(evt)" onclick="changeMe(evt)" transform="" points="199.168,80.939 184.168,54.9576 176.404,83.935 191.404,109.917" seed="22" /><polygon fill="rgb(91, 146, 229)" stroke="black" stroke-width="1" onmouseover="setChange(evt)" onmouseout="unhiliteChange(evt)" onclick="changeMe(evt)" transform="" points="102.426,65.7196 72.426,65.7196 93.6398,86.933 123.638,86.933" seed="23" /><polygon fill="rgb(91, 146, 229)" stroke="black" stroke-width="1" onmouseover="setChange(evt)" onmouseout="unhiliteChange(evt)" onclick="changeMe(evt)" transform="" points="212.616,183.093 227.618,157.113 198.638,164.877 183.638,190.857" seed="24" /><polygon fill="rgb(91, 146, 229)" stroke="black" stroke-width="1" onmouseover="setChange(evt)" onmouseout="unhiliteChange(evt)" onclick="changeMe(evt)" transform="" points="197.618,209.072 212.618,183.093 183.638,190.857 168.638,216.836" seed="25" /><polygon fill="rgb(91, 146, 229)" stroke="black" stroke-width="1" onmouseover="setChange(evt)" onmouseout="unhiliteChange(evt)" onclick="changeMe(evt)" transform="" points="182.616,235.054 197.618,209.072 168.638,216.836 153.638,242.818" seed="26" /><polygon fill="rgb(91, 146, 229)" stroke="black" stroke-width="1" onmouseover="setChange(evt)" onmouseout="unhiliteChange(evt)" onclick="changeMe(evt)" transform="" points="211.594,227.288 226.594,201.308 197.618,209.072 182.616,235.052" seed="27" /><polygon fill="rgb(91, 146, 229)" stroke="black" stroke-width="1" onmouseover="setChange(evt)" onmouseout="unhiliteChange(evt)" onclick="changeMe(evt)" transform="" points="226.594,201.308 241.596,175.329 212.618,183.093 197.618,209.072" seed="28" /><polygon fill="rgb(91, 146, 229)" stroke="black" stroke-width="1" onmouseover="setChange(evt)" onmouseout="unhiliteChange(evt)" onclick="changeMe(evt)" transform="" points="255.574,193.545 270.574,167.565 241.596,175.329 226.594,201.308" seed="29" /><polygon fill="rgb(91, 146, 229)" stroke="black" stroke-width="1" onmouseover="setChange(evt)" onmouseout="unhiliteChange(evt)" onclick="changeMe(evt)" transform="" points="270.574,167.565 285.576,141.583 256.596,149.347 241.596,175.329" seed="30" /><polygon fill="rgb(91, 146, 229)" stroke="black" stroke-width="1" onmouseover="setChange(evt)" onmouseout="unhiliteChange(evt)" onclick="changeMe(evt)" transform="" points="241.596,175.329 256.596,149.347 227.618,157.111 212.618,183.093" seed="31" /><polygon fill="rgb(91, 146, 229)" stroke="black" stroke-width="1" onmouseover="setChange(evt)" onmouseout="unhiliteChange(evt)" onclick="changeMe(evt)" transform="" points="240.572,219.524 255.574,193.545 226.594,201.308 211.594,227.288" seed="32" /><polygon fill="rgb(91, 146, 229)" stroke="black" stroke-width="1" onmouseover="setChange(evt)" onmouseout="unhiliteChange(evt)" onclick="changeMe(evt)" transform="" points="206.934,51.9594 191.934,25.9794 184.168,54.9576 199.168,80.939" seed="33" /><polygon fill="rgb(91, 146, 229)" stroke="black" stroke-width="1" onmouseover="setChange(evt)" onmouseout="unhiliteChange(evt)" onclick="changeMe(evt)" transform="" points="221.934,77.9404 206.934,51.9606 199.168,80.939 214.17,106.921" seed="34" /><polygon fill="rgb(91, 146, 229)" stroke="black" stroke-width="1" onmouseover="setChange(evt)" onmouseout="unhiliteChange(evt)" onclick="changeMe(evt)" transform="" points="191.934,25.9794 176.932,-0.000423431 169.168,28.9774 184.168,54.9576" seed="35" /><polygon fill="rgb(91, 146, 229)" stroke="black" stroke-width="1" onmouseover="setChange(evt)" onmouseout="unhiliteChange(evt)" onclick="changeMe(evt)" transform="" points="132.426,65.7196 102.426,65.7186 123.638,86.933 153.638,86.933" seed="36" /><polygon fill="rgb(91, 146, 229)" stroke="black" stroke-width="1" onmouseover="setChange(evt)" onmouseout="unhiliteChange(evt)" onclick="changeMe(evt)" transform="" points="72.426,65.7196 42.4252,65.7196 63.6398,86.933 93.6398,86.933" seed="37" /><polygon fill="rgb(91, 146, 229)" stroke="black" stroke-width="1" onmouseover="setChange(evt)" onmouseout="unhiliteChange(evt)" onclick="changeMe(evt)" transform="" points="51.2122,44.5064 21.2122,44.5064 42.4252,65.7196 72.426,65.7196" seed="38" /><polygon fill="rgb(91, 146, 229)" stroke="black" stroke-width="1" onmouseover="setChange(evt)" onmouseout="unhiliteChange(evt)" onclick="changeMe(evt)" transform="" points="81.2118,44.5064 51.2122,44.5054 72.426,65.7196 102.426,65.7196" seed="39" /><polygon fill="rgb(91, 146, 229)" stroke="black" stroke-width="1" onmouseover="setChange(evt)" onmouseout="unhiliteChange(evt)" onclick="changeMe(evt)" transform="" points="111.214,44.5054 81.2118,44.5054 102.426,65.7186 132.426,65.7196" seed="40" /><polygon fill="rgb(91, 146, 229)" stroke="black" stroke-width="1" onmouseover="setChange(evt)" onmouseout="unhiliteChange(evt)" onclick="changeMe(evt)" transform="" points="59.9998,23.2924 29.9992,23.2924 51.2122,44.5054 81.2118,44.5064" seed="41" /><polygon fill="rgb(91, 146, 229)" stroke="black" stroke-width="1" onmouseover="setChange(evt)" onmouseout="unhiliteChange(evt)" onclick="changeMe(evt)" transform="" points="29.9992,23.2924 -0.000823975,23.2924 21.2122,44.5054 51.2122,44.5054" seed="42" /><polygon fill="rgb(91, 146, 229)" stroke="black" stroke-width="1" onmouseover="setChange(evt)" onmouseout="unhiliteChange(evt)" onclick="changeMe(evt)" transform="" points="89.9998,23.2924 59.9998,23.2924 81.2118,44.5064 111.214,44.5064" seed="43" /><polygon fill="rgb(91, 146, 229)" stroke="black" stroke-width="1" onmouseover="setChange(evt)" onmouseout="unhiliteChange(evt)" onclick="changeMe(evt)" transform="" points="184.168,54.9576 169.168,28.9774 161.404,57.9556 176.404,83.935" seed="44" /><polygon fill="rgb(147, 112, 219)" stroke="black" stroke-width="1" onmouseover="setChange(evt)" onmouseout="unhiliteChange(evt)" onclick="changeMe(evt)" points="153.638,86.933 161.404,57.9546 132.426,65.7196" seed="45" /><polygon fill="rgb(147, 112, 219)" stroke="black" stroke-width="1" onmouseover="setChange(evt)" onmouseout="unhiliteChange(evt)" onclick="changeMe(evt)" points="161.404,57.9546 140.19,36.7412 132.426,65.7196" seed="46" /><polygon fill="rgb(147, 112, 219)" stroke="black" stroke-width="1" onmouseover="setChange(evt)" onmouseout="unhiliteChange(evt)" onclick="changeMe(evt)" points="132.426,65.7196 140.19,36.7412 111.214,44.5054" seed="47" /><polygon fill="rgb(147, 112, 219)" stroke="black" stroke-width="1" onmouseover="setChange(evt)" onmouseout="unhiliteChange(evt)" onclick="changeMe(evt)" points="161.404,57.9546 169.168,28.9774 140.19,36.7424" seed="48" /><polygon fill="rgb(147, 112, 219)" stroke="black" stroke-width="1" onmouseover="setChange(evt)" onmouseout="unhiliteChange(evt)" onclick="changeMe(evt)" points="169.168,28.9774 147.954,7.76458 140.19,36.7424" seed="49" /><polygon fill="rgb(147, 112, 219)" stroke="black" stroke-width="1" onmouseover="setChange(evt)" onmouseout="unhiliteChange(evt)" onclick="changeMe(evt)" points="140.19,36.7412 118.978,15.5274 111.214,44.5054" seed="50" /><polygon fill="rgb(147, 112, 219)" stroke="black" stroke-width="1" onmouseover="setChange(evt)" onmouseout="unhiliteChange(evt)" onclick="changeMe(evt)" points="140.19,36.7424 147.954,7.76458 118.976,15.5302" seed="51" /><polygon fill="rgb(147, 112, 219)" stroke="black" stroke-width="1" onmouseover="setChange(evt)" onmouseout="unhiliteChange(evt)" onclick="changeMe(evt)" points="169.168,28.9774 176.932,-0.000423431 147.954,7.76458" seed="52" /><polygon fill="rgb(147, 112, 219)" stroke="black" stroke-width="1" onmouseover="setChange(evt)" onmouseout="unhiliteChange(evt)" onclick="changeMe(evt)" points="111.214,44.5054 118.978,15.5274 89.9998,23.2924" seed="53" /><polygon fill="rgb(147, 112, 219)" stroke="black" stroke-width="1" onmouseover="setChange(evt)" onmouseout="unhiliteChange(evt)" onclick="changeMe(evt)" points="227.618,157.111 206.404,135.899 198.638,164.877" seed="54" /><polygon fill="rgb(147, 112, 219)" stroke="black" stroke-width="1" onmouseover="setChange(evt)" onmouseout="unhiliteChange(evt)" onclick="changeMe(evt)" points="227.618,157.111 235.382,128.133 206.404,135.899" seed="55" /><polygon fill="rgb(147, 112, 219)" stroke="black" stroke-width="1" onmouseover="setChange(evt)" onmouseout="unhiliteChange(evt)" onclick="changeMe(evt)" points="235.382,128.133 214.168,106.921 206.404,135.899" seed="56" /><polygon fill="rgb(147, 112, 219)" stroke="black" stroke-width="1" onmouseover="setChange(evt)" onmouseout="unhiliteChange(evt)" onclick="changeMe(evt)" points="256.596,149.347 235.382,128.133 227.618,157.111" seed="57" /><polygon fill="rgb(147, 112, 219)" stroke="black" stroke-width="1" onmouseover="setChange(evt)" onmouseout="unhiliteChange(evt)" onclick="changeMe(evt)" points="256.596,149.347 264.36,120.369 235.382,128.133" seed="58" /><polygon fill="rgb(147, 112, 219)" stroke="black" stroke-width="1" onmouseover="setChange(evt)" onmouseout="unhiliteChange(evt)" onclick="changeMe(evt)" points="235.382,128.133 243.146,99.155 214.168,106.921" seed="59" /><polygon fill="rgb(147, 112, 219)" stroke="black" stroke-width="1" onmouseover="setChange(evt)" onmouseout="unhiliteChange(evt)" onclick="changeMe(evt)" points="243.146,99.153 221.934,77.9404 214.17,106.919" seed="60" /><polygon fill="rgb(147, 112, 219)" stroke="black" stroke-width="1" onmouseover="setChange(evt)" onmouseout="unhiliteChange(evt)" onclick="changeMe(evt)" points="285.574,141.583 264.362,120.371 256.596,149.347" seed="61" /><polygon fill="rgb(147, 112, 219)" stroke="black" stroke-width="1" onmouseover="setChange(evt)" onmouseout="unhiliteChange(evt)" onclick="changeMe(evt)" points="264.36,120.369 243.146,99.155 235.382,128.133" seed="62" /><polygon fill="rgb(100, 149, 237)" stroke="black" stroke-width="1" onmouseover="setChange(evt)" onmouseout="unhiliteChange(evt)" onclick="changeMe(evt)" transform="" points="191.404,109.917 183.638,138.895 168.638,112.915 176.404,83.937" seed="63" /></g></svg>
