<?xml version="1.0" encoding="utf-8" ?>

		<svg xmlns="http://www.w3.org/2000/svg" id="mainSVG" pointer-events="all" onkeyup="attachKey(evt)" width="261.743" height="284.019" EdgeLen="30" template="B30_18_8_R">

		<polygon id="BorderPoly" fill="none" pointer-events="none" stroke="red" stroke-width="4" transform="" points="185.192,7.76649 155.192,7.7645 125.192,7.76349 95.1905,7.76349 66.2115,0.000488281 51.2125,25.9805 36.2135,51.9615 21.2135,77.9425 0.000488281,99.1555 14.9985,125.135 29.9995,151.117 44.9995,177.097 52.7635,206.075 67.7665,232.057 82.7665,258.039 97.7665,284.019 112.766,258.037 127.766,232.057 142.764,206.075 171.743,213.839 201.743,213.839 231.743,213.839 261.743,213.839 246.743,187.859 231.743,161.878 216.743,135.898 237.955,114.684 222.955,88.7045 207.955,62.7235 192.956,36.7445" />
		<g id="mainPolyG" transform=""><polygon id="mainPoly" fill="rgb(252, 194, 0)" stroke="black" onmouseover="setChange(evt)" onmouseout="unhiliteChange(evt)" onclick="changeMe(evt)" points="133.977,132.9 118.977,106.92 103.977,132.902" seed="0" /><polygon fill="rgb(147, 112, 219)" stroke="black" stroke-width="1" onmouseover="setChange(evt)" onmouseout="unhiliteChange(evt)" onclick="changeMe(evt)" points="118.977,106.92 88.9775,106.92 103.977,132.9" seed="1" /><polygon fill="rgb(147, 112, 219)" stroke="black" stroke-width="1" onmouseover="setChange(evt)" onmouseout="unhiliteChange(evt)" onclick="changeMe(evt)" points="133.977,132.9 148.977,106.919 118.977,106.92" seed="2" /><polygon fill="rgb(147, 112, 219)" stroke="black" stroke-width="1" onmouseover="setChange(evt)" onmouseout="unhiliteChange(evt)" onclick="changeMe(evt)" points="118.977,106.92 103.977,80.9395 88.9775,106.92" seed="3" /><polygon fill="rgb(147, 112, 219)" stroke="black" stroke-width="1" onmouseover="setChange(evt)" onmouseout="unhiliteChange(evt)" onclick="changeMe(evt)" points="133.977,80.9395 103.979,80.9395 118.977,106.92" seed="4" /><polygon fill="rgb(147, 112, 219)" stroke="black" stroke-width="1" onmouseover="setChange(evt)" onmouseout="unhiliteChange(evt)" onclick="changeMe(evt)" points="148.977,106.92 133.977,80.9395 118.977,106.92" seed="5" /><polygon fill="rgb(91, 146, 229)" stroke="black" stroke-width="1" onmouseover="setChange(evt)" onmouseout="unhiliteChange(evt)" onclick="changeMe(evt)" transform="" points="155.192,59.7265 125.191,59.7265 103.979,80.9395 133.977,80.9395" seed="6" /><polygon fill="rgb(91, 146, 229)" stroke="black" stroke-width="1" onmouseover="setChange(evt)" onmouseout="unhiliteChange(evt)" onclick="changeMe(evt)" transform="" points="156.743,135.898 148.977,106.919 133.977,132.9 141.743,161.878" seed="7" /><polygon fill="rgb(91, 146, 229)" stroke="black" stroke-width="1" onmouseover="setChange(evt)" onmouseout="unhiliteChange(evt)" onclick="changeMe(evt)" transform="" points="88.9775,106.919 59.9995,99.1555 74.9995,125.136 103.977,132.9" seed="8" /><polygon fill="rgb(91, 146, 229)" stroke="black" stroke-width="1" onmouseover="setChange(evt)" onmouseout="unhiliteChange(evt)" onclick="changeMe(evt)" transform="" points="103.977,80.9395 96.2135,51.9615 81.2135,77.9425 88.9775,106.92" seed="9" /><polygon fill="rgb(91, 146, 229)" stroke="black" stroke-width="1" onmouseover="setChange(evt)" onmouseout="unhiliteChange(evt)" onclick="changeMe(evt)" transform="" points="162.955,88.7045 133.977,80.9395 148.977,106.92 177.955,114.686" seed="10" /><polygon fill="rgb(91, 146, 229)" stroke="black" stroke-width="1" onmouseover="setChange(evt)" onmouseout="unhiliteChange(evt)" onclick="changeMe(evt)" transform="" points="112.764,154.114 133.977,132.9 103.977,132.902 82.7645,154.114" seed="11" /><polygon fill="rgb(147, 112, 219)" stroke="black" stroke-width="1" onmouseover="setChange(evt)" onmouseout="unhiliteChange(evt)" onclick="changeMe(evt)" points="125.191,59.7255 96.2135,51.9615 103.977,80.9385" seed="12" /><polygon fill="rgb(147, 112, 219)" stroke="black" stroke-width="1" onmouseover="setChange(evt)" onmouseout="unhiliteChange(evt)" onclick="changeMe(evt)" points="162.955,88.7055 155.191,59.7275 133.977,80.9395" seed="13" /><polygon fill="rgb(147, 112, 219)" stroke="black" stroke-width="1" onmouseover="setChange(evt)" onmouseout="unhiliteChange(evt)" onclick="changeMe(evt)" points="177.955,114.684 148.977,106.92 156.743,135.898" seed="14" /><polygon fill="rgb(147, 112, 219)" stroke="black" stroke-width="1" onmouseover="setChange(evt)" onmouseout="unhiliteChange(evt)" onclick="changeMe(evt)" points="141.743,161.878 133.977,132.9 112.764,154.113" seed="15" /><polygon fill="rgb(147, 112, 219)" stroke="black" stroke-width="1" onmouseover="setChange(evt)" onmouseout="unhiliteChange(evt)" onclick="changeMe(evt)" points="103.977,132.899 74.9995,125.136 82.7635,154.114" seed="16" /><polygon fill="rgb(147, 112, 219)" stroke="black" stroke-width="1" onmouseover="setChange(evt)" onmouseout="unhiliteChange(evt)" onclick="changeMe(evt)" points="88.9775,106.919 81.2135,77.9415 60.0005,99.1555" seed="17" /><polygon fill="rgb(41, 171, 135)" stroke="black" stroke-width="1" onmouseover="setChange(evt)" onmouseout="unhiliteChange(evt)" onclick="changeMe(evt)" points="155.192,7.7645 125.192,7.76349 110.192,33.7455 125.192,59.7265 155.192,59.7265 170.192,33.7455" seed="18" /><polygon fill="rgb(41, 171, 135)" stroke="black" stroke-width="1" onmouseover="setChange(evt)" onmouseout="unhiliteChange(evt)" onclick="changeMe(evt)" points="207.955,62.7235 177.956,62.7235 162.955,88.7045 177.955,114.686 207.955,114.686 222.955,88.7045" seed="19" /><polygon fill="rgb(41, 171, 135)" stroke="black" stroke-width="1" onmouseover="setChange(evt)" onmouseout="unhiliteChange(evt)" onclick="changeMe(evt)" points="186.743,135.898 156.743,135.898 141.743,161.878 156.743,187.859 186.743,187.859 201.743,161.878" seed="20" /><polygon fill="rgb(41, 171, 135)" stroke="black" stroke-width="1" onmouseover="setChange(evt)" onmouseout="unhiliteChange(evt)" onclick="changeMe(evt)" points="127.765,180.094 112.764,154.114 82.7645,154.114 67.7655,180.096 82.7655,206.076 112.765,206.076" seed="21" /><polygon fill="rgb(41, 171, 135)" stroke="black" stroke-width="1" onmouseover="setChange(evt)" onmouseout="unhiliteChange(evt)" onclick="changeMe(evt)" points="59.9995,99.1555 29.9995,99.1555 14.9985,125.135 29.9995,151.117 59.9995,151.117 74.9995,125.136" seed="22" /><polygon fill="rgb(41, 171, 135)" stroke="black" stroke-width="1" onmouseover="setChange(evt)" onmouseout="unhiliteChange(evt)" onclick="changeMe(evt)" points="81.2125,25.9805 51.2125,25.9805 36.2135,51.9615 51.2135,77.9425 81.2135,77.9425 96.2135,51.9615" seed="23" /><polygon fill="rgb(91, 146, 229)" stroke="black" stroke-width="1" onmouseover="setChange(evt)" onmouseout="unhiliteChange(evt)" onclick="changeMe(evt)" transform="" points="110.19,33.7445 81.2125,25.9805 96.2135,51.9615 125.191,59.7245" seed="24" /><polygon fill="rgb(91, 146, 229)" stroke="black" stroke-width="1" onmouseover="setChange(evt)" onmouseout="unhiliteChange(evt)" onclick="changeMe(evt)" transform="" points="177.956,62.7245 170.192,33.7465 155.191,59.7275 162.955,88.7055" seed="25" /><polygon fill="rgb(91, 146, 229)" stroke="black" stroke-width="1" onmouseover="setChange(evt)" onmouseout="unhiliteChange(evt)" onclick="changeMe(evt)" transform="" points="207.955,114.684 177.955,114.684 156.742,135.898 186.743,135.898" seed="26" /><polygon fill="rgb(91, 146, 229)" stroke="black" stroke-width="1" onmouseover="setChange(evt)" onmouseout="unhiliteChange(evt)" onclick="changeMe(evt)" transform="" points="141.743,161.878 112.763,154.113 127.764,180.094 156.743,187.859" seed="27" /><polygon fill="rgb(91, 146, 229)" stroke="black" stroke-width="1" onmouseover="setChange(evt)" onmouseout="unhiliteChange(evt)" onclick="changeMe(evt)" transform="" points="82.7635,154.114 74.9995,125.136 60.0005,151.118 67.7635,180.094" seed="28" /><polygon fill="rgb(91, 146, 229)" stroke="black" stroke-width="1" onmouseover="setChange(evt)" onmouseout="unhiliteChange(evt)" onclick="changeMe(evt)" transform="" points="60.0005,99.1555 81.2135,77.9415 51.2135,77.9425 30.0005,99.1555" seed="29" /><polygon fill="rgb(91, 146, 229)" stroke="black" stroke-width="1" onmouseover="setChange(evt)" onmouseout="unhiliteChange(evt)" onclick="changeMe(evt)" transform="" points="192.956,36.7445 185.192,7.76649 170.192,33.7465 177.956,62.7245" seed="30" /><polygon fill="rgb(91, 146, 229)" stroke="black" stroke-width="1" onmouseover="setChange(evt)" onmouseout="unhiliteChange(evt)" onclick="changeMe(evt)" transform="" points="51.2135,77.9425 21.2135,77.9425 0.000488281,99.1555 30.0005,99.1555" seed="31" /><polygon fill="rgb(91, 146, 229)" stroke="black" stroke-width="1" onmouseover="setChange(evt)" onmouseout="unhiliteChange(evt)" onclick="changeMe(evt)" transform="" points="156.743,187.859 127.764,180.094 142.764,206.075 171.743,213.839" seed="32" /><polygon fill="rgb(91, 146, 229)" stroke="black" stroke-width="1" onmouseover="setChange(evt)" onmouseout="unhiliteChange(evt)" onclick="changeMe(evt)" transform="" points="95.1905,7.76349 66.2115,0.000488281 81.2125,25.9805 110.19,33.7445" seed="33" /><polygon fill="rgb(91, 146, 229)" stroke="black" stroke-width="1" onmouseover="setChange(evt)" onmouseout="unhiliteChange(evt)" onclick="changeMe(evt)" transform="" points="237.955,114.684 207.955,114.684 186.743,135.898 216.743,135.898" seed="34" /><polygon fill="rgb(91, 146, 229)" stroke="black" stroke-width="1" onmouseover="setChange(evt)" onmouseout="unhiliteChange(evt)" onclick="changeMe(evt)" transform="" points="67.7635,180.094 60.0005,151.118 44.9995,177.097 52.7635,206.075" seed="35" /><polygon fill="rgb(147, 112, 219)" stroke="black" stroke-width="1" onmouseover="setChange(evt)" onmouseout="unhiliteChange(evt)" onclick="changeMe(evt)" points="81.2125,25.9805 66.2125,-0.00050354 51.2125,25.9805" seed="36" /><polygon fill="rgb(147, 112, 219)" stroke="black" stroke-width="1" onmouseover="setChange(evt)" onmouseout="unhiliteChange(evt)" onclick="changeMe(evt)" points="110.192,33.7455 125.192,7.76349 95.1925,7.7645" seed="37" /><polygon fill="rgb(147, 112, 219)" stroke="black" stroke-width="1" onmouseover="setChange(evt)" onmouseout="unhiliteChange(evt)" onclick="changeMe(evt)" points="185.192,7.76649 155.192,7.76549 170.192,33.7465" seed="38" /><polygon fill="rgb(147, 112, 219)" stroke="black" stroke-width="1" onmouseover="setChange(evt)" onmouseout="unhiliteChange(evt)" onclick="changeMe(evt)" points="207.956,62.7245 192.956,36.7445 177.956,62.7245" seed="39" /><polygon fill="rgb(147, 112, 219)" stroke="black" stroke-width="1" onmouseover="setChange(evt)" onmouseout="unhiliteChange(evt)" onclick="changeMe(evt)" points="237.955,114.686 222.955,88.7055 207.955,114.686" seed="40" /><polygon fill="rgb(147, 112, 219)" stroke="black" stroke-width="1" onmouseover="setChange(evt)" onmouseout="unhiliteChange(evt)" onclick="changeMe(evt)" points="216.743,135.898 186.743,135.898 201.743,161.878" seed="41" /><polygon fill="rgb(147, 112, 219)" stroke="black" stroke-width="1" onmouseover="setChange(evt)" onmouseout="unhiliteChange(evt)" onclick="changeMe(evt)" points="186.743,187.859 156.743,187.859 171.743,213.84" seed="42" /><polygon fill="rgb(147, 112, 219)" stroke="black" stroke-width="1" onmouseover="setChange(evt)" onmouseout="unhiliteChange(evt)" onclick="changeMe(evt)" points="142.765,206.075 127.765,180.094 112.765,206.076" seed="43" /><polygon fill="rgb(147, 112, 219)" stroke="black" stroke-width="1" onmouseover="setChange(evt)" onmouseout="unhiliteChange(evt)" onclick="changeMe(evt)" points="82.7635,206.076 67.7635,180.094 52.7635,206.075" seed="44" /><polygon fill="rgb(147, 112, 219)" stroke="black" stroke-width="1" onmouseover="setChange(evt)" onmouseout="unhiliteChange(evt)" onclick="changeMe(evt)" points="59.9995,151.117 29.9995,151.117 44.9995,177.097" seed="45" /><polygon fill="rgb(147, 112, 219)" stroke="black" stroke-width="1" onmouseover="setChange(evt)" onmouseout="unhiliteChange(evt)" onclick="changeMe(evt)" points="15.0005,125.136 30.0005,99.1555 0.000488281,99.1555" seed="46" /><polygon fill="rgb(147, 112, 219)" stroke="black" stroke-width="1" onmouseover="setChange(evt)" onmouseout="unhiliteChange(evt)" onclick="changeMe(evt)" points="51.2135,77.9425 36.2135,51.9615 21.2135,77.9425" seed="47" /><polygon fill="rgb(41, 171, 135)" stroke="black" stroke-width="1" onmouseover="setChange(evt)" onmouseout="unhiliteChange(evt)" onclick="changeMe(evt)" points="127.766,232.057 112.765,206.076 82.7655,206.076 67.7665,232.057 82.7665,258.039 112.766,258.037" seed="48" /><polygon fill="rgb(41, 171, 135)" stroke="black" stroke-width="1" onmouseover="setChange(evt)" onmouseout="unhiliteChange(evt)" onclick="changeMe(evt)" points="231.743,161.878 201.743,161.878 186.743,187.859 201.743,213.839 231.743,213.839 246.743,187.859" seed="49" /><polygon fill="rgb(147, 112, 219)" stroke="black" stroke-width="1" onmouseover="setChange(evt)" onmouseout="unhiliteChange(evt)" onclick="changeMe(evt)" points="67.7665,232.057 82.7655,206.076 52.7655,206.076" seed="50" /><polygon fill="rgb(147, 112, 219)" stroke="black" stroke-width="1" onmouseover="setChange(evt)" onmouseout="unhiliteChange(evt)" onclick="changeMe(evt)" points="97.7665,284.019 112.766,258.037 82.7665,258.039" seed="51" /><polygon fill="rgb(147, 112, 219)" stroke="black" stroke-width="1" onmouseover="setChange(evt)" onmouseout="unhiliteChange(evt)" onclick="changeMe(evt)" points="127.766,232.057 142.765,206.075 112.765,206.076" seed="52" /><polygon fill="rgb(147, 112, 219)" stroke="black" stroke-width="1" onmouseover="setChange(evt)" onmouseout="unhiliteChange(evt)" onclick="changeMe(evt)" points="261.743,213.839 246.743,187.859 231.743,213.839" seed="53" /><polygon fill="rgb(147, 112, 219)" stroke="black" stroke-width="1" onmouseover="setChange(evt)" onmouseout="unhiliteChange(evt)" onclick="changeMe(evt)" points="201.743,213.839 186.743,187.859 171.743,213.839" seed="54" /><polygon fill="rgb(147, 112, 219)" stroke="black" stroke-width="1" onmouseover="setChange(evt)" onmouseout="unhiliteChange(evt)" onclick="changeMe(evt)" points="231.743,161.878 216.743,135.898 201.743,161.878" seed="55" /></g>


		</svg>
