<?xml version="1.0" encoding="utf-8" ?>

		<svg xmlns="http://www.w3.org/2000/svg" id="mainSVG" pointer-events="all" onkeyup="attachKey(evt)" width="249.889" height="204.305" EdgeLen="30" template="B36_18_1_R">

		<polygon id="BorderPoly" fill="none" pointer-events="none" stroke="red" stroke-width="4" transform="" points="160.382,0.000473022 145.383,25.9785 115.382,25.9795 86.4045,18.2155 65.1915,39.4285 50.1915,65.4095 28.9785,86.6225 -0.000495911,78.8585 15.0005,104.839 22.7655,133.817 30.5295,162.795 60.5285,162.794 75.5285,188.775 104.507,196.54 133.486,204.305 163.486,204.305 178.486,178.324 163.486,152.343 192.463,160.108 213.676,138.894 228.676,112.914 249.889,91.7005 220.911,83.9355 205.911,57.9555 175.911,57.9555 168.146,28.9775" />
		<g id="mainPolyG" transform=""><polygon id="mainPoly" fill="rgb(252, 194, 0)" stroke="black" onmouseover="setChange(evt)" onmouseout="unhiliteChange(evt)" onclick="changeMe(evt)" points="163.486,152.343 133.486,152.343 118.485,178.324 133.486,204.305 163.486,204.305 178.486,178.324" seed="0" /><polygon fill="rgb(91, 146, 229)" stroke="black" stroke-width="1" onmouseover="setChange(evt)" onmouseout="unhiliteChange(evt)" onclick="changeMe(evt)" transform="" points="133.486,152.343 125.72,123.365 110.72,149.346 118.485,178.324" seed="1" /><polygon fill="rgb(91, 146, 229)" stroke="black" stroke-width="1" onmouseover="setChange(evt)" onmouseout="unhiliteChange(evt)" onclick="changeMe(evt)" transform="" points="184.699,131.13 154.698,131.13 133.486,152.343 163.486,152.343" seed="2" /><polygon fill="rgb(91, 146, 229)" stroke="black" stroke-width="1" onmouseover="setChange(evt)" onmouseout="unhiliteChange(evt)" onclick="changeMe(evt)" transform="" points="118.485,178.324 89.5075,170.559 104.507,196.54 133.486,204.305" seed="3" /><polygon fill="rgb(91, 146, 229)" stroke="black" stroke-width="1" onmouseover="setChange(evt)" onmouseout="unhiliteChange(evt)" onclick="changeMe(evt)" transform="" points="205.911,109.917 175.911,109.917 154.698,131.13 184.698,131.13" seed="4" /><polygon fill="rgb(91, 146, 229)" stroke="black" stroke-width="1" onmouseover="setChange(evt)" onmouseout="unhiliteChange(evt)" onclick="changeMe(evt)" transform="" points="125.72,123.365 117.955,94.3875 102.955,120.368 110.72,149.346" seed="5" /><polygon fill="rgb(91, 146, 229)" stroke="black" stroke-width="1" onmouseover="setChange(evt)" onmouseout="unhiliteChange(evt)" onclick="changeMe(evt)" transform="" points="89.5075,170.559 60.5285,162.794 75.5285,188.775 104.507,196.54" seed="6" /><polygon fill="rgb(147, 112, 219)" stroke="black" stroke-width="1" onmouseover="setChange(evt)" onmouseout="unhiliteChange(evt)" onclick="changeMe(evt)" points="192.463,160.108 184.699,131.13 163.486,152.343" seed="7" /><polygon fill="rgb(147, 112, 219)" stroke="black" stroke-width="1" onmouseover="setChange(evt)" onmouseout="unhiliteChange(evt)" onclick="changeMe(evt)" points="213.676,138.894 205.911,109.917 184.698,131.13" seed="8" /><polygon fill="rgb(147, 112, 219)" stroke="black" stroke-width="1" onmouseover="setChange(evt)" onmouseout="unhiliteChange(evt)" onclick="changeMe(evt)" points="213.676,138.894 184.698,131.13 192.464,160.108" seed="9" /><polygon fill="rgb(147, 112, 219)" stroke="black" stroke-width="1" onmouseover="setChange(evt)" onmouseout="unhiliteChange(evt)" onclick="changeMe(evt)" points="154.698,131.129 125.72,123.365 133.486,152.342" seed="10" /><polygon fill="rgb(147, 112, 219)" stroke="black" stroke-width="1" onmouseover="setChange(evt)" onmouseout="unhiliteChange(evt)" onclick="changeMe(evt)" points="175.911,109.917 146.934,102.152 154.698,131.13" seed="11" /><polygon fill="rgb(147, 112, 219)" stroke="black" stroke-width="1" onmouseover="setChange(evt)" onmouseout="unhiliteChange(evt)" onclick="changeMe(evt)" points="154.698,131.13 146.934,102.152 125.72,123.365" seed="12" /><polygon fill="rgb(147, 112, 219)" stroke="black" stroke-width="1" onmouseover="setChange(evt)" onmouseout="unhiliteChange(evt)" onclick="changeMe(evt)" points="146.934,102.152 117.957,94.3875 125.72,123.365" seed="13" /><polygon fill="rgb(147, 112, 219)" stroke="black" stroke-width="1" onmouseover="setChange(evt)" onmouseout="unhiliteChange(evt)" onclick="changeMe(evt)" points="118.485,178.324 110.72,149.346 89.5075,170.559" seed="14" /><polygon fill="rgb(147, 112, 219)" stroke="black" stroke-width="1" onmouseover="setChange(evt)" onmouseout="unhiliteChange(evt)" onclick="changeMe(evt)" points="110.72,149.346 81.7425,141.581 89.5075,170.558" seed="15" /><polygon fill="rgb(147, 112, 219)" stroke="black" stroke-width="1" onmouseover="setChange(evt)" onmouseout="unhiliteChange(evt)" onclick="changeMe(evt)" points="89.5075,170.559 81.7425,141.581 60.5295,162.794" seed="16" /><polygon fill="rgb(147, 112, 219)" stroke="black" stroke-width="1" onmouseover="setChange(evt)" onmouseout="unhiliteChange(evt)" onclick="changeMe(evt)" points="110.72,149.346 102.955,120.368 81.7425,141.581" seed="17" /><polygon fill="rgb(147, 112, 219)" stroke="black" stroke-width="1" onmouseover="setChange(evt)" onmouseout="unhiliteChange(evt)" onclick="changeMe(evt)" points="117.955,94.3875 87.9555,94.3875 102.955,120.368" seed="18" /><polygon fill="rgb(147, 112, 219)" stroke="black" stroke-width="1" onmouseover="setChange(evt)" onmouseout="unhiliteChange(evt)" onclick="changeMe(evt)" points="102.955,120.368 87.9555,94.3875 72.9555,120.368" seed="19" /><polygon fill="rgb(147, 112, 219)" stroke="black" stroke-width="1" onmouseover="setChange(evt)" onmouseout="unhiliteChange(evt)" onclick="changeMe(evt)" points="117.955,94.3875 102.955,68.4065 87.9555,94.3875" seed="20" /><polygon fill="rgb(147, 112, 219)" stroke="black" stroke-width="1" onmouseover="setChange(evt)" onmouseout="unhiliteChange(evt)" onclick="changeMe(evt)" points="102.955,68.4065 72.9555,68.4065 87.9555,94.3875" seed="21" /><polygon fill="rgb(147, 112, 219)" stroke="black" stroke-width="1" onmouseover="setChange(evt)" onmouseout="unhiliteChange(evt)" onclick="changeMe(evt)" points="87.9555,94.3875 72.9555,68.4065 57.9555,94.3875" seed="22" /><polygon fill="rgb(147, 112, 219)" stroke="black" stroke-width="1" onmouseover="setChange(evt)" onmouseout="unhiliteChange(evt)" onclick="changeMe(evt)" points="87.9555,94.3875 57.9555,94.3875 72.9555,120.368" seed="23" /><polygon fill="rgb(147, 112, 219)" stroke="black" stroke-width="1" onmouseover="setChange(evt)" onmouseout="unhiliteChange(evt)" onclick="changeMe(evt)" points="205.911,109.917 190.911,83.9365 175.911,109.917" seed="24" /><polygon fill="rgb(147, 112, 219)" stroke="black" stroke-width="1" onmouseover="setChange(evt)" onmouseout="unhiliteChange(evt)" onclick="changeMe(evt)" points="175.911,109.917 190.911,83.9365 160.911,83.9365" seed="25" /><polygon fill="rgb(147, 112, 219)" stroke="black" stroke-width="1" onmouseover="setChange(evt)" onmouseout="unhiliteChange(evt)" onclick="changeMe(evt)" points="190.911,83.9365 175.911,57.9555 160.911,83.9365" seed="26" /><polygon fill="rgb(147, 112, 219)" stroke="black" stroke-width="1" onmouseover="setChange(evt)" onmouseout="unhiliteChange(evt)" onclick="changeMe(evt)" points="190.911,83.9365 205.911,57.9555 175.911,57.9555" seed="27" /><polygon fill="rgb(147, 112, 219)" stroke="black" stroke-width="1" onmouseover="setChange(evt)" onmouseout="unhiliteChange(evt)" onclick="changeMe(evt)" points="220.911,83.9355 205.911,57.9555 190.911,83.9365" seed="28" /><polygon fill="rgb(147, 112, 219)" stroke="black" stroke-width="1" onmouseover="setChange(evt)" onmouseout="unhiliteChange(evt)" onclick="changeMe(evt)" points="220.911,83.9365 190.911,83.9365 205.911,109.917" seed="29" /><polygon fill="rgb(91, 146, 229)" stroke="black" stroke-width="1" onmouseover="setChange(evt)" onmouseout="unhiliteChange(evt)" onclick="changeMe(evt)" transform="" points="228.676,112.914 220.911,83.9365 205.911,109.917 213.676,138.895" seed="30" /><polygon fill="rgb(147, 112, 219)" stroke="black" stroke-width="1" onmouseover="setChange(evt)" onmouseout="unhiliteChange(evt)" onclick="changeMe(evt)" points="249.889,91.7005 220.911,83.9365 228.676,112.914" seed="31" /><polygon fill="rgb(91, 146, 229)" stroke="black" stroke-width="1" onmouseover="setChange(evt)" onmouseout="unhiliteChange(evt)" onclick="changeMe(evt)" transform="" points="160.911,83.9365 131.934,76.1725 146.935,102.153 175.913,109.917" seed="32" /><polygon fill="rgb(91, 146, 229)" stroke="black" stroke-width="1" onmouseover="setChange(evt)" onmouseout="unhiliteChange(evt)" onclick="changeMe(evt)" transform="" points="131.935,76.1715 102.957,68.4065 117.957,94.3875 146.935,102.152" seed="33" /><polygon fill="rgb(91, 146, 229)" stroke="black" stroke-width="1" onmouseover="setChange(evt)" onmouseout="unhiliteChange(evt)" onclick="changeMe(evt)" transform="" points="102.955,120.368 72.9555,120.368 51.7425,141.581 81.7435,141.581" seed="34" /><polygon fill="rgb(91, 146, 229)" stroke="black" stroke-width="1" onmouseover="setChange(evt)" onmouseout="unhiliteChange(evt)" onclick="changeMe(evt)" transform="" points="60.5295,162.794 81.7425,141.581 51.7425,141.581 30.5295,162.795" seed="35" /><polygon fill="rgb(147, 112, 219)" stroke="black" stroke-width="1" onmouseover="setChange(evt)" onmouseout="unhiliteChange(evt)" onclick="changeMe(evt)" points="72.9555,120.368 43.9785,112.603 51.7425,141.581" seed="36" /><polygon fill="rgb(91, 146, 229)" stroke="black" stroke-width="1" onmouseover="setChange(evt)" onmouseout="unhiliteChange(evt)" onclick="changeMe(evt)" transform="" points="57.9555,94.3875 28.9785,86.6225 43.9785,112.603 72.9555,120.368" seed="37" /><polygon fill="rgb(147, 112, 219)" stroke="black" stroke-width="1" onmouseover="setChange(evt)" onmouseout="unhiliteChange(evt)" onclick="changeMe(evt)" points="57.9555,94.3875 50.1915,65.4095 28.9785,86.6225" seed="38" /><polygon fill="rgb(91, 146, 229)" stroke="black" stroke-width="1" onmouseover="setChange(evt)" onmouseout="unhiliteChange(evt)" onclick="changeMe(evt)" transform="" points="72.9555,68.4065 65.1915,39.4285 50.1915,65.4095 57.9555,94.3875" seed="39" /><polygon fill="rgb(91, 146, 229)" stroke="black" stroke-width="1" onmouseover="setChange(evt)" onmouseout="unhiliteChange(evt)" onclick="changeMe(evt)" transform="" points="102.955,68.4065 124.17,47.1925 94.1695,47.1935 72.9555,68.4065" seed="40" /><polygon fill="rgb(91, 146, 229)" stroke="black" stroke-width="1" onmouseover="setChange(evt)" onmouseout="unhiliteChange(evt)" onclick="changeMe(evt)" transform="" points="124.17,47.1925 145.383,25.9785 115.382,25.9795 94.1695,47.1935" seed="41" /><polygon fill="rgb(147, 112, 219)" stroke="black" stroke-width="1" onmouseover="setChange(evt)" onmouseout="unhiliteChange(evt)" onclick="changeMe(evt)" points="94.1685,47.1935 65.1915,39.4285 72.9555,68.4065" seed="42" /><polygon fill="rgb(147, 112, 219)" stroke="black" stroke-width="1" onmouseover="setChange(evt)" onmouseout="unhiliteChange(evt)" onclick="changeMe(evt)" points="94.1695,47.1935 86.4045,18.2155 65.1915,39.4285" seed="43" /><polygon fill="rgb(147, 112, 219)" stroke="black" stroke-width="1" onmouseover="setChange(evt)" onmouseout="unhiliteChange(evt)" onclick="changeMe(evt)" points="115.382,25.9795 86.4045,18.2155 94.1695,47.1935" seed="44" /><polygon fill="rgb(91, 146, 229)" stroke="black" stroke-width="1" onmouseover="setChange(evt)" onmouseout="unhiliteChange(evt)" onclick="changeMe(evt)" transform="" points="175.911,57.9555 168.146,28.9775 153.147,54.9595 160.911,83.9365" seed="45" /><polygon fill="rgb(91, 146, 229)" stroke="black" stroke-width="1" onmouseover="setChange(evt)" onmouseout="unhiliteChange(evt)" onclick="changeMe(evt)" transform="" points="168.146,28.9775 160.382,0.000473022 145.382,25.9815 153.147,54.9595" seed="46" /><polygon fill="rgb(147, 112, 219)" stroke="black" stroke-width="1" onmouseover="setChange(evt)" onmouseout="unhiliteChange(evt)" onclick="changeMe(evt)" points="153.148,54.9565 145.383,25.9785 124.17,47.1925" seed="47" /><polygon fill="rgb(147, 112, 219)" stroke="black" stroke-width="1" onmouseover="setChange(evt)" onmouseout="unhiliteChange(evt)" onclick="changeMe(evt)" points="131.935,76.1705 124.17,47.1925 102.955,68.4065" seed="48" /><polygon fill="rgb(147, 112, 219)" stroke="black" stroke-width="1" onmouseover="setChange(evt)" onmouseout="unhiliteChange(evt)" onclick="changeMe(evt)" points="153.147,54.9575 124.17,47.1925 131.935,76.1705" seed="49" /><polygon fill="rgb(147, 112, 219)" stroke="black" stroke-width="1" onmouseover="setChange(evt)" onmouseout="unhiliteChange(evt)" onclick="changeMe(evt)" points="160.911,83.9365 153.147,54.9595 131.934,76.1725" seed="50" /><polygon fill="rgb(91, 146, 229)" stroke="black" stroke-width="1" onmouseover="setChange(evt)" onmouseout="unhiliteChange(evt)" onclick="changeMe(evt)" transform="" points="28.9785,86.6225 -0.000495911,78.8585 15.0005,104.839 43.9785,112.603" seed="51" /><polygon fill="rgb(147, 112, 219)" stroke="black" stroke-width="1" onmouseover="setChange(evt)" onmouseout="unhiliteChange(evt)" onclick="changeMe(evt)" points="43.9785,112.603 15.0005,104.839 22.7655,133.817" seed="52" /><polygon fill="rgb(147, 112, 219)" stroke="black" stroke-width="1" onmouseover="setChange(evt)" onmouseout="unhiliteChange(evt)" onclick="changeMe(evt)" points="51.7425,141.581 22.7655,133.817 30.5295,162.795" seed="53" /><polygon fill="rgb(147, 112, 219)" stroke="black" stroke-width="1" onmouseover="setChange(evt)" onmouseout="unhiliteChange(evt)" onclick="changeMe(evt)" points="51.7425,141.581 43.9785,112.604 22.7655,133.817" seed="54" /></g>


		</svg>
