<?xml version="1.0" encoding="utf-8"?>
<svg xmlns="http://www.w3.org/2000/svg" id="mainSVG" pointer-events="all" width="293.829" height="317.942" EdgeLen="30" template="ark6_2_tu" code="B38_18_9_1" copyright="Francis Hemsher, 2012">
	<polygon id="BorderPoly" fill="none" pointer-events="none" stroke="red" stroke-width="4" transform="" points="133.926,-1.52588e-005 118.926,25.98 92.9445,40.98 92.9425,70.98 66.9615,85.98 40.9835,70.98 15.0025,85.98 0.00149536,111.961 0.00250244,141.961 25.9815,156.96 25.9815,186.96 0.000488281,201.96 0.00149536,231.961 15.0015,257.942 40.9815,272.941 66.9625,257.942 92.9435,272.941 92.9425,302.941 118.921,317.94 148.921,317.941 174.906,302.942 200.886,317.942 226.867,302.942 226.867,272.942 252.846,257.942 267.846,231.961 267.846,201.961 293.828,186.962 293.829,156.962 267.849,141.961 267.847,111.961 282.849,85.981 252.848,85.981 226.867,70.98 226.867,40.98 200.885,25.98 174.906,40.98 148.926,25.981"/>
	<g id="mainPolyG" transform=""><polygon id="mainPoly" fill="rgb(252, 194, 0)" stroke="black" onmouseover="setChange(evt)" onmouseout="unhiliteChange(evt)" onclick="changeMe(evt)" points="148.924,115.98 118.924,115.98 92.9435,130.98 77.9435,156.961 77.9435,186.961 92.9435,212.941 118.924,227.941 148.924,227.942 174.904,212.942 189.904,186.961 189.906,156.961 174.906,130.98" seed="0"/><polygon fill="rgb(41, 171, 135)" stroke="black" stroke-width="1" onmouseover="setChange(evt)" onmouseout="unhiliteChange(evt)" onclick="changeMe(evt)" points="200.885,85.98 174.906,70.98 148.924,85.98 148.924,115.98 174.906,130.98 200.885,115.98" seed="1"/><polygon fill="rgb(41, 171, 135)" stroke="black" stroke-width="1" onmouseover="setChange(evt)" onmouseout="unhiliteChange(evt)" onclick="changeMe(evt)" points="241.867,156.961 215.886,141.961 189.906,156.961 189.904,186.961 215.885,201.961 241.867,186.961" seed="2"/><polygon fill="rgb(41, 171, 135)" stroke="black" stroke-width="1" onmouseover="setChange(evt)" onmouseout="unhiliteChange(evt)" onclick="changeMe(evt)" points="200.886,227.942 174.904,212.942 148.924,227.942 148.924,257.942 174.906,272.942 200.886,257.942" seed="3"/><polygon fill="rgb(41, 171, 135)" stroke="black" stroke-width="1" onmouseover="setChange(evt)" onmouseout="unhiliteChange(evt)" onclick="changeMe(evt)" points="118.924,227.941 92.9435,212.941 66.9625,227.941 66.9625,257.942 92.9435,272.941 118.924,257.941" seed="4"/><polygon fill="rgb(41, 171, 135)" stroke="black" stroke-width="1" onmouseover="setChange(evt)" onmouseout="unhiliteChange(evt)" onclick="changeMe(evt)" points="77.9435,156.961 51.9635,141.96 25.9815,156.96 25.9815,186.96 51.9615,201.96 77.9435,186.961" seed="5"/><polygon fill="rgb(41, 171, 135)" stroke="black" stroke-width="1" onmouseover="setChange(evt)" onmouseout="unhiliteChange(evt)" onclick="changeMe(evt)" points="118.924,85.98 92.9425,70.98 66.9615,85.98 66.9615,115.98 92.9435,130.98 118.924,115.98" seed="6"/><polygon fill="rgb(224, 176, 255)" stroke="black" stroke-width="1" onmouseover="setChange(evt)" onmouseout="unhiliteChange(evt)" onclick="changeMe(evt)" points="148.924,85.981 118.924,85.98 118.924,115.98 148.924,115.98" seed="7"/><polygon fill="rgb(224, 176, 255)" stroke="black" stroke-width="1" onmouseover="setChange(evt)" onmouseout="unhiliteChange(evt)" onclick="changeMe(evt)" points="215.885,141.961 200.886,115.98 174.906,130.98 189.906,156.961" seed="8"/><polygon fill="rgb(224, 176, 255)" stroke="black" stroke-width="1" onmouseover="setChange(evt)" onmouseout="unhiliteChange(evt)" onclick="changeMe(evt)" points="215.885,201.961 189.904,186.961 174.904,212.942 200.885,227.941" seed="9"/><polygon fill="rgb(224, 176, 255)" stroke="black" stroke-width="1" onmouseover="setChange(evt)" onmouseout="unhiliteChange(evt)" onclick="changeMe(evt)" points="148.924,227.942 118.924,227.941 118.924,257.94 148.924,257.942" seed="10"/><polygon fill="rgb(224, 176, 255)" stroke="black" stroke-width="1" onmouseover="setChange(evt)" onmouseout="unhiliteChange(evt)" onclick="changeMe(evt)" points="92.9435,212.941 77.9435,186.961 51.9625,201.961 66.9625,227.942" seed="11"/><polygon fill="rgb(224, 176, 255)" stroke="black" stroke-width="1" onmouseover="setChange(evt)" onmouseout="unhiliteChange(evt)" onclick="changeMe(evt)" points="92.9435,130.98 66.9635,115.98 51.9625,141.961 77.9445,156.961" seed="12"/><polygon fill="rgb(224, 176, 255)" stroke="black" stroke-width="1" onmouseover="setChange(evt)" onmouseout="unhiliteChange(evt)" onclick="changeMe(evt)" points="148.925,55.981 118.925,55.98 118.924,85.98 148.924,85.981" seed="13"/><polygon fill="rgb(224, 176, 255)" stroke="black" stroke-width="1" onmouseover="setChange(evt)" onmouseout="unhiliteChange(evt)" onclick="changeMe(evt)" points="148.926,25.981 118.926,25.98 118.926,55.98 148.925,55.981" seed="14"/><polygon fill="rgb(224, 176, 255)" stroke="black" stroke-width="1" onmouseover="setChange(evt)" onmouseout="unhiliteChange(evt)" onclick="changeMe(evt)" points="241.867,126.961 226.867,100.98 200.886,115.98 215.885,141.961" seed="15"/><polygon fill="rgb(224, 176, 255)" stroke="black" stroke-width="1" onmouseover="setChange(evt)" onmouseout="unhiliteChange(evt)" onclick="changeMe(evt)" points="267.847,111.961 252.848,85.981 226.867,100.98 241.867,126.961" seed="16"/><polygon fill="rgb(224, 176, 255)" stroke="black" stroke-width="1" onmouseover="setChange(evt)" onmouseout="unhiliteChange(evt)" onclick="changeMe(evt)" points="241.865,216.961 215.885,201.961 200.885,227.94 226.865,242.942" seed="17"/><polygon fill="rgb(224, 176, 255)" stroke="black" stroke-width="1" onmouseover="setChange(evt)" onmouseout="unhiliteChange(evt)" onclick="changeMe(evt)" points="267.846,231.961 241.865,216.961 226.865,242.942 252.846,257.942" seed="18"/><polygon fill="rgb(224, 176, 255)" stroke="black" stroke-width="1" onmouseover="setChange(evt)" onmouseout="unhiliteChange(evt)" onclick="changeMe(evt)" points="148.924,257.942 118.924,257.94 118.923,287.94 148.923,287.941" seed="19"/><polygon fill="rgb(224, 176, 255)" stroke="black" stroke-width="1" onmouseover="setChange(evt)" onmouseout="unhiliteChange(evt)" onclick="changeMe(evt)" points="148.921,287.941 118.923,287.94 118.921,317.94 148.921,317.941" seed="20"/><polygon fill="rgb(224, 176, 255)" stroke="black" stroke-width="1" onmouseover="setChange(evt)" onmouseout="unhiliteChange(evt)" onclick="changeMe(evt)" points="66.9625,227.942 51.9625,201.961 25.9815,216.961 40.9815,242.941" seed="21"/><polygon fill="rgb(224, 176, 255)" stroke="black" stroke-width="1" onmouseover="setChange(evt)" onmouseout="unhiliteChange(evt)" onclick="changeMe(evt)" points="40.9815,242.941 25.9815,216.961 0.00149536,231.961 15.0015,257.942" seed="22"/><polygon fill="rgb(224, 176, 255)" stroke="black" stroke-width="1" onmouseover="setChange(evt)" onmouseout="unhiliteChange(evt)" onclick="changeMe(evt)" points="66.9635,115.981 40.9825,100.98 25.9825,126.96 51.9625,141.961" seed="23"/><polygon fill="rgb(224, 176, 255)" stroke="black" stroke-width="1" onmouseover="setChange(evt)" onmouseout="unhiliteChange(evt)" onclick="changeMe(evt)" points="40.9825,100.98 15.0025,85.98 0.00149536,111.961 25.9825,126.96" seed="24"/><polygon fill="rgb(41, 171, 135)" stroke="black" stroke-width="1" onmouseover="setChange(evt)" onmouseout="unhiliteChange(evt)" onclick="changeMe(evt)" points="226.867,40.98 200.885,25.98 174.906,40.98 174.906,70.98 200.886,85.98 226.867,70.98" seed="25"/><polygon fill="rgb(41, 171, 135)" stroke="black" stroke-width="1" onmouseover="setChange(evt)" onmouseout="unhiliteChange(evt)" onclick="changeMe(evt)" points="293.829,156.962 267.849,141.961 241.867,156.961 241.867,186.961 267.846,201.961 293.828,186.962" seed="26"/><polygon fill="rgb(41, 171, 135)" stroke="black" stroke-width="1" onmouseover="setChange(evt)" onmouseout="unhiliteChange(evt)" onclick="changeMe(evt)" points="226.867,272.942 200.886,257.942 174.906,272.942 174.906,302.942 200.886,317.942 226.867,302.942" seed="27"/><polygon fill="rgb(147, 112, 219)" stroke="black" stroke-width="1" onmouseover="setChange(evt)" onmouseout="unhiliteChange(evt)" onclick="changeMe(evt)" points="174.907,40.982 148.926,25.981 148.925,55.981" seed="28"/><polygon fill="rgb(147, 112, 219)" stroke="black" stroke-width="1" onmouseover="setChange(evt)" onmouseout="unhiliteChange(evt)" onclick="changeMe(evt)" points="174.906,70.982 174.907,40.981 148.925,55.981" seed="29"/><polygon fill="rgb(147, 112, 219)" stroke="black" stroke-width="1" onmouseover="setChange(evt)" onmouseout="unhiliteChange(evt)" onclick="changeMe(evt)" points="174.906,70.982 148.925,55.981 148.925,85.981" seed="30"/><polygon fill="rgb(147, 112, 219)" stroke="black" stroke-width="1" onmouseover="setChange(evt)" onmouseout="unhiliteChange(evt)" onclick="changeMe(evt)" points="118.924,85.98 118.925,55.98 92.9445,70.98" seed="31"/><polygon fill="rgb(147, 112, 219)" stroke="black" stroke-width="1" onmouseover="setChange(evt)" onmouseout="unhiliteChange(evt)" onclick="changeMe(evt)" points="118.925,55.98 92.9445,40.98 92.9445,70.98" seed="32"/><polygon fill="rgb(147, 112, 219)" stroke="black" stroke-width="1" onmouseover="setChange(evt)" onmouseout="unhiliteChange(evt)" onclick="changeMe(evt)" points="118.925,55.98 118.925,25.98 92.9445,40.98" seed="33"/><polygon fill="rgb(147, 112, 219)" stroke="black" stroke-width="1" onmouseover="setChange(evt)" onmouseout="unhiliteChange(evt)" onclick="changeMe(evt)" points="148.926,25.981 133.926,-1.52588e-005 118.926,25.98" seed="34"/><polygon fill="rgb(147, 112, 219)" stroke="black" stroke-width="1" onmouseover="setChange(evt)" onmouseout="unhiliteChange(evt)" onclick="changeMe(evt)" points="226.867,100.98 226.867,70.98 200.886,85.98" seed="35"/><polygon fill="rgb(147, 112, 219)" stroke="black" stroke-width="1" onmouseover="setChange(evt)" onmouseout="unhiliteChange(evt)" onclick="changeMe(evt)" points="226.867,100.98 200.886,85.98 200.886,115.98" seed="36"/><polygon fill="rgb(147, 112, 219)" stroke="black" stroke-width="1" onmouseover="setChange(evt)" onmouseout="unhiliteChange(evt)" onclick="changeMe(evt)" points="252.847,85.979 226.867,70.98 226.867,100.98" seed="37"/><polygon fill="rgb(147, 112, 219)" stroke="black" stroke-width="1" onmouseover="setChange(evt)" onmouseout="unhiliteChange(evt)" onclick="changeMe(evt)" points="267.846,141.961 267.847,111.961 241.867,126.961" seed="38"/><polygon fill="rgb(147, 112, 219)" stroke="black" stroke-width="1" onmouseover="setChange(evt)" onmouseout="unhiliteChange(evt)" onclick="changeMe(evt)" points="241.867,156.961 241.867,126.961 215.885,141.961" seed="39"/><polygon fill="rgb(147, 112, 219)" stroke="black" stroke-width="1" onmouseover="setChange(evt)" onmouseout="unhiliteChange(evt)" onclick="changeMe(evt)" points="267.846,141.961 241.867,126.961 241.867,156.961" seed="40"/><polygon fill="rgb(147, 112, 219)" stroke="black" stroke-width="1" onmouseover="setChange(evt)" onmouseout="unhiliteChange(evt)" onclick="changeMe(evt)" points="267.846,201.961 241.867,186.961 241.867,216.961" seed="41"/><polygon fill="rgb(147, 112, 219)" stroke="black" stroke-width="1" onmouseover="setChange(evt)" onmouseout="unhiliteChange(evt)" onclick="changeMe(evt)" points="267.846,231.961 267.846,201.961 241.867,216.961" seed="42"/><polygon fill="rgb(147, 112, 219)" stroke="black" stroke-width="1" onmouseover="setChange(evt)" onmouseout="unhiliteChange(evt)" onclick="changeMe(evt)" points="241.867,216.961 241.867,186.961 215.886,201.961" seed="43"/><polygon fill="rgb(147, 112, 219)" stroke="black" stroke-width="1" onmouseover="setChange(evt)" onmouseout="unhiliteChange(evt)" onclick="changeMe(evt)" points="226.865,242.942 200.885,227.94 200.885,257.94" seed="44"/><polygon fill="rgb(147, 112, 219)" stroke="black" stroke-width="1" onmouseover="setChange(evt)" onmouseout="unhiliteChange(evt)" onclick="changeMe(evt)" points="226.864,272.942 226.865,242.942 200.883,257.94" seed="45"/><polygon fill="rgb(147, 112, 219)" stroke="black" stroke-width="1" onmouseover="setChange(evt)" onmouseout="unhiliteChange(evt)" onclick="changeMe(evt)" points="252.846,257.942 226.865,242.942 226.865,272.942" seed="46"/><polygon fill="rgb(147, 112, 219)" stroke="black" stroke-width="1" onmouseover="setChange(evt)" onmouseout="unhiliteChange(evt)" onclick="changeMe(evt)" points="174.906,272.942 148.924,257.942 148.925,287.942" seed="47"/><polygon fill="rgb(147, 112, 219)" stroke="black" stroke-width="1" onmouseover="setChange(evt)" onmouseout="unhiliteChange(evt)" onclick="changeMe(evt)" points="174.906,302.942 174.906,272.942 148.925,287.942" seed="48"/><polygon fill="rgb(147, 112, 219)" stroke="black" stroke-width="1" onmouseover="setChange(evt)" onmouseout="unhiliteChange(evt)" onclick="changeMe(evt)" points="174.903,302.941 148.921,287.941 148.921,317.941" seed="49"/><polygon fill="rgb(147, 112, 219)" stroke="black" stroke-width="1" onmouseover="setChange(evt)" onmouseout="unhiliteChange(evt)" onclick="changeMe(evt)" points="118.924,287.941 118.924,257.941 92.9425,272.941" seed="50"/><polygon fill="rgb(147, 112, 219)" stroke="black" stroke-width="1" onmouseover="setChange(evt)" onmouseout="unhiliteChange(evt)" onclick="changeMe(evt)" points="118.924,287.941 92.9425,272.941 92.9425,302.941" seed="51"/><polygon fill="rgb(147, 112, 219)" stroke="black" stroke-width="1" onmouseover="setChange(evt)" onmouseout="unhiliteChange(evt)" onclick="changeMe(evt)" points="118.924,317.941 118.924,287.941 92.9425,302.941" seed="52"/><polygon fill="rgb(147, 112, 219)" stroke="black" stroke-width="1" onmouseover="setChange(evt)" onmouseout="unhiliteChange(evt)" onclick="changeMe(evt)" points="51.9615,201.96 25.9815,186.96 25.9805,216.96" seed="53"/><polygon fill="rgb(147, 112, 219)" stroke="black" stroke-width="1" onmouseover="setChange(evt)" onmouseout="unhiliteChange(evt)" onclick="changeMe(evt)" points="25.9805,216.96 25.9815,186.96 0.000488281,201.96" seed="54"/><polygon fill="rgb(147, 112, 219)" stroke="black" stroke-width="1" onmouseover="setChange(evt)" onmouseout="unhiliteChange(evt)" onclick="changeMe(evt)" points="25.9805,216.96 0.000488281,201.96 -0.00050354,231.96" seed="55"/><polygon fill="rgb(147, 112, 219)" stroke="black" stroke-width="1" onmouseover="setChange(evt)" onmouseout="unhiliteChange(evt)" onclick="changeMe(evt)" points="40.9815,272.941 40.9815,242.941 15.0015,257.942" seed="56"/><polygon fill="rgb(147, 112, 219)" stroke="black" stroke-width="1" onmouseover="setChange(evt)" onmouseout="unhiliteChange(evt)" onclick="changeMe(evt)" points="66.9625,257.94 40.9815,242.941 40.9815,272.941" seed="57"/><polygon fill="rgb(147, 112, 219)" stroke="black" stroke-width="1" onmouseover="setChange(evt)" onmouseout="unhiliteChange(evt)" onclick="changeMe(evt)" points="66.9625,257.94 66.9615,227.94 40.9815,242.941" seed="58"/><polygon fill="rgb(147, 112, 219)" stroke="black" stroke-width="1" onmouseover="setChange(evt)" onmouseout="unhiliteChange(evt)" onclick="changeMe(evt)" points="51.9625,141.961 25.9815,126.96 25.9815,156.96" seed="59"/><polygon fill="rgb(147, 112, 219)" stroke="black" stroke-width="1" onmouseover="setChange(evt)" onmouseout="unhiliteChange(evt)" onclick="changeMe(evt)" points="25.9825,126.96 0.00149536,111.961 0.00250244,141.961" seed="60"/><polygon fill="rgb(147, 112, 219)" stroke="black" stroke-width="1" onmouseover="setChange(evt)" onmouseout="unhiliteChange(evt)" onclick="changeMe(evt)" points="25.9835,156.96 25.9825,126.961 0.00250244,141.961" seed="61"/><polygon fill="rgb(147, 112, 219)" stroke="black" stroke-width="1" onmouseover="setChange(evt)" onmouseout="unhiliteChange(evt)" onclick="changeMe(evt)" points="40.9825,100.98 40.9835,70.98 15.0025,85.98" seed="62"/><polygon fill="rgb(147, 112, 219)" stroke="black" stroke-width="1" onmouseover="setChange(evt)" onmouseout="unhiliteChange(evt)" onclick="changeMe(evt)" points="66.9635,85.98 40.9835,70.98 40.9825,100.98" seed="63"/><polygon fill="rgb(147, 112, 219)" stroke="black" stroke-width="1" onmouseover="setChange(evt)" onmouseout="unhiliteChange(evt)" onclick="changeMe(evt)" points="66.9635,115.98 66.9635,85.98 40.9825,100.98" seed="64"/><polygon fill="rgb(147, 112, 219)" stroke="black" stroke-width="1" onmouseover="setChange(evt)" onmouseout="unhiliteChange(evt)" onclick="changeMe(evt)" points="282.849,85.981 252.848,85.981 267.847,111.962" seed="65"/></g>
</svg>
