<?xml version="1.0" encoding="utf-8"?>
<svg xmlns="http://www.w3.org/2000/svg" id="mainSVG" pointer-events="all" width="225.001" height="77.9425" EdgeLen="30" template="u5_19_tu" code="B4_0_4_0" copyright="Francis Hemsher, 2012">
	<polygon id="BorderPoly" fill="none" pointer-events="none" stroke="red" stroke-width="4" transform="" points="45.0005,0.00144577 15.0005,0.000549316 -0.000457764,25.981 15.0005,51.9625 45.0005,51.9625 75.0005,51.9625 105.001,51.9625 135.001,51.962 165.001,51.9615 180.001,77.9427 210.001,77.9427 225.001,51.9615 210.001,25.9805 180.001,25.9805 165.001,4.57764e-005 135.001,4.57764e-005 105.001,0.000549316 75.0005,0.000549316"/>
	<g id="mainPolyG" transform=""><polygon id="mainPoly" fill="rgb(252, 194, 0)" stroke="black" onmouseover="setChange(evt)" onmouseout="unhiliteChange(evt)" onclick="changeMe(evt)" points="210.001,25.9805 180.001,25.9805 165.001,51.9615 180.001,77.9427 210.001,77.9427 225.001,51.9615" seed="0"/><polygon fill="rgb(41, 171, 135)" stroke="black" stroke-width="1" onmouseover="setChange(evt)" onmouseout="unhiliteChange(evt)" onclick="changeMe(evt)" points="165.001,4.57764e-005 135.001,4.57764e-005 120.001,25.981 135.001,51.962 165.001,51.9615 180.001,25.9805" seed="1"/><polygon fill="rgb(147, 112, 219)" stroke="black" stroke-width="1" onmouseover="setChange(evt)" onmouseout="unhiliteChange(evt)" onclick="changeMe(evt)" points="120.001,25.981 135.001,4.57764e-005 105.001,0.000549316" seed="2"/><polygon fill="rgb(147, 112, 219)" stroke="black" stroke-width="1" onmouseover="setChange(evt)" onmouseout="unhiliteChange(evt)" onclick="changeMe(evt)" points="135.001,51.962 120.001,25.9815 105.001,51.9625" seed="3"/><polygon fill="rgb(41, 171, 135)" stroke="black" stroke-width="1" onmouseover="setChange(evt)" onmouseout="unhiliteChange(evt)" onclick="changeMe(evt)" points="105.001,0.000549316 75.0005,0.000549316 60.0005,25.982 75.0005,51.9625 105.001,51.9625 120.001,25.981" seed="4"/><polygon fill="rgb(147, 112, 219)" stroke="black" stroke-width="1" onmouseover="setChange(evt)" onmouseout="unhiliteChange(evt)" onclick="changeMe(evt)" points="60.0005,25.982 74.9995,0.000549316 45.0005,0.00144577" seed="5"/><polygon fill="rgb(147, 112, 219)" stroke="black" stroke-width="1" onmouseover="setChange(evt)" onmouseout="unhiliteChange(evt)" onclick="changeMe(evt)" points="75.0005,51.9625 60.0005,25.982 45.0005,51.9625" seed="6"/><polygon fill="rgb(41, 171, 135)" stroke="black" stroke-width="1" onmouseover="setChange(evt)" onmouseout="unhiliteChange(evt)" onclick="changeMe(evt)" points="45.0005,0.00104904 15.0005,0.000549316 -0.000457764,25.981 15.0005,51.9625 45.0005,51.9625 60.0005,25.982" seed="7"/></g>
</svg>
