<?xml version="1.0" encoding="utf-8"?>
<svg xmlns="http://www.w3.org/2000/svg" id="mainSVG" pointer-events="all" width="270.001" height="155.885" EdgeLen="30" template="u6_43_tu" code="B4_0_5_0" copyright="Francis Hemsher, 2012">
	<polygon id="BorderPoly" fill="none" pointer-events="none" stroke="red" stroke-width="4" transform="" points="255.001,0.000495911 225.001,-7.62939e-006 195.002,-7.62939e-006 180.001,25.9815 150.001,25.9815 135.001,51.9615 105.001,51.9615 90.0005,77.9425 59.9995,77.9425 44.9995,103.923 14.9995,103.923 -0.000488281,129.904 14.9995,155.884 44.9995,155.884 59.9995,129.904 90.0005,129.904 105.001,103.923 135.001,103.923 150.001,77.9425 180.001,77.9425 195.001,51.9625 225.001,51.9625 255.001,51.9625 270.001,25.9815"/>
	<g id="mainPolyG" transform=""><polygon id="mainPoly" fill="rgb(252, 194, 0)" stroke="black" onmouseover="setChange(evt)" onmouseout="unhiliteChange(evt)" onclick="changeMe(evt)" points="135.001,51.9615 105.001,51.9615 90.0005,77.9425 105.001,103.923 135.001,103.923 150.001,77.9425" seed="0"/><polygon fill="rgb(41, 171, 135)" stroke="black" stroke-width="1" onmouseover="setChange(evt)" onmouseout="unhiliteChange(evt)" onclick="changeMe(evt)" points="90.0005,77.9425 59.9995,77.9425 44.9995,103.923 59.9995,129.904 90.0005,129.904 105.001,103.923" seed="1"/><polygon fill="rgb(41, 171, 135)" stroke="black" stroke-width="1" onmouseover="setChange(evt)" onmouseout="unhiliteChange(evt)" onclick="changeMe(evt)" points="44.9995,103.923 14.9995,103.923 -0.000488281,129.904 14.9995,155.884 44.9995,155.884 59.9995,129.904" seed="2"/><polygon fill="rgb(41, 171, 135)" stroke="black" stroke-width="1" onmouseover="setChange(evt)" onmouseout="unhiliteChange(evt)" onclick="changeMe(evt)" points="180.001,25.9815 150.001,25.9815 135.001,51.9615 150.001,77.9425 180.001,77.9425 195.001,51.9625" seed="3"/><polygon fill="rgb(41, 171, 135)" stroke="black" stroke-width="1" onmouseover="setChange(evt)" onmouseout="unhiliteChange(evt)" onclick="changeMe(evt)" points="225.001,-7.62939e-006 195.002,-7.62939e-006 180.001,25.9815 195.001,51.9625 225.001,51.9625 240.001,25.9815" seed="4"/><polygon fill="rgb(147, 112, 219)" stroke="black" stroke-width="1" onmouseover="setChange(evt)" onmouseout="unhiliteChange(evt)" onclick="changeMe(evt)" points="255.001,0.000495911 225.001,-7.62939e-006 240.001,25.9815" seed="5"/><polygon fill="rgb(147, 112, 219)" stroke="black" stroke-width="1" onmouseover="setChange(evt)" onmouseout="unhiliteChange(evt)" onclick="changeMe(evt)" points="255.001,51.9625 240.001,25.9815 225.001,51.9625" seed="6"/><polygon fill="rgb(147, 112, 219)" stroke="black" stroke-width="1" onmouseover="setChange(evt)" onmouseout="unhiliteChange(evt)" onclick="changeMe(evt)" points="270.001,25.9815 255.001,0.000495911 240.001,25.9815" seed="7"/><polygon fill="rgb(147, 112, 219)" stroke="black" stroke-width="1" onmouseover="setChange(evt)" onmouseout="unhiliteChange(evt)" onclick="changeMe(evt)" points="270.001,25.9815 240.001,25.9815 255.001,51.9625" seed="8"/></g>
</svg>
