<?xml version="1.0" encoding="utf-8"?>
<svg xmlns="http://www.w3.org/2000/svg" id="mainSVG" pointer-events="all" width="115.981" height="170.885" EdgeLen="30" template="u3_30_tu" code="B4_2_2_0" copyright="Francis Hemsher, 2012">
	<polygon id="BorderPoly" fill="none" pointer-events="none" stroke="red" stroke-width="4" transform="" points="85.9805,0 60.0005,14.9995 45.0005,40.9805 30.0005,66.9615 15.0005,92.9415 0,118.923 14.9995,144.904 29.999,170.884 44.9995,144.905 60.0005,118.923 75.0005,92.9425 90.0005,66.9615 115.98,51.9615 100.981,25.9805"/>
	<g id="mainPolyG" transform=""><polygon id="mainPoly" fill="rgb(252, 194, 0)" stroke="black" onmouseover="setChange(evt)" onmouseout="unhiliteChange(evt)" onclick="changeMe(evt)" points="75.0005,40.9805 45.0005,40.9805 30.0005,66.9615 45.0005,92.9425 75.0005,92.9425 90.0005,66.9615" seed="0"/><polygon fill="rgb(147, 112, 219)" stroke="black" stroke-width="1" onmouseover="setChange(evt)" onmouseout="unhiliteChange(evt)" onclick="changeMe(evt)" points="45.0005,92.9425 30.0005,66.9615 15.0005,92.9415" seed="1"/><polygon fill="rgb(147, 112, 219)" stroke="black" stroke-width="1" onmouseover="setChange(evt)" onmouseout="unhiliteChange(evt)" onclick="changeMe(evt)" points="75.0005,92.9425 45.0005,92.9425 60.0005,118.923" seed="2"/><polygon fill="rgb(41, 171, 135)" stroke="black" stroke-width="1" onmouseover="setChange(evt)" onmouseout="unhiliteChange(evt)" onclick="changeMe(evt)" points="45.0005,92.9425 15.0005,92.9415 0,118.923 14.9995,144.904 44.9995,144.905 60.0005,118.924" seed="3"/><polygon fill="rgb(147, 112, 219)" stroke="black" stroke-width="1" onmouseover="setChange(evt)" onmouseout="unhiliteChange(evt)" onclick="changeMe(evt)" points="44.9995,144.905 14.9995,144.904 29.999,170.884" seed="4"/><polygon fill="rgb(147, 112, 219)" stroke="black" stroke-width="1" onmouseover="setChange(evt)" onmouseout="unhiliteChange(evt)" onclick="changeMe(evt)" points="75.0005,40.9805 60.0005,14.9995 45.0005,40.9805" seed="5"/><polygon fill="rgb(224, 176, 255)" stroke="black" stroke-width="1" onmouseover="setChange(evt)" onmouseout="unhiliteChange(evt)" onclick="changeMe(evt)" points="100.981,25.9805 85.9805,0 60.0005,14.9995 75.0005,40.9805" seed="6"/><polygon fill="rgb(224, 176, 255)" stroke="black" stroke-width="1" onmouseover="setChange(evt)" onmouseout="unhiliteChange(evt)" onclick="changeMe(evt)" points="115.98,51.9615 100.981,25.9805 75.0015,40.9805 90.0005,66.9615" seed="7"/></g>
</svg>
