<?xml version="1.0" encoding="utf-8"?>
<svg xmlns="http://www.w3.org/2000/svg" id="mainSVG" pointer-events="all" width="85.9805" height="148.921" EdgeLen="30" template="ark3_21_tu" code="B4_4_1_0" copyright="Francis Hemsher, 2012">
	<polygon id="BorderPoly" fill="none" pointer-events="none" stroke="red" stroke-width="4" transform="" points="29.9991,4.57764e-005 29.9999,30.0002 15,55.9792 -4.95911e-005,81.9603 15,107.941 29.9999,133.922 55.981,148.921 70.9808,122.941 85.9798,96.9612 85.9807,66.9612 70.9808,40.9792 55.9805,14.999"/>
	<g id="mainPolyG" transform=""><polygon id="mainPoly" fill="rgb(252, 194, 0)" stroke="black" onmouseover="setChange(evt)" onmouseout="unhiliteChange(evt)" onclick="changeMe(evt)" points="44.9999,55.9792 15,55.9792 -4.95911e-005,81.9603 15,107.941 44.9999,107.941 59.9997,81.9603" seed="0"/><polygon fill="rgb(224, 176, 255)" stroke="black" stroke-width="1" onmouseover="setChange(evt)" onmouseout="unhiliteChange(evt)" onclick="changeMe(evt)" points="85.9807,66.9612 70.9808,40.9792 45.0005,55.9802 59.9997,81.9603" seed="1"/><polygon fill="rgb(224, 176, 255)" stroke="black" stroke-width="1" onmouseover="setChange(evt)" onmouseout="unhiliteChange(evt)" onclick="changeMe(evt)" points="85.9807,96.9603 59.9997,81.9603 44.9999,107.941 70.9808,122.941" seed="2"/><polygon fill="rgb(224, 176, 255)" stroke="black" stroke-width="1" onmouseover="setChange(evt)" onmouseout="unhiliteChange(evt)" onclick="changeMe(evt)" points="70.9808,40.9792 55.9805,14.999 29.9999,30.0002 45.0005,55.9802" seed="3"/><polygon fill="rgb(224, 176, 255)" stroke="black" stroke-width="1" onmouseover="setChange(evt)" onmouseout="unhiliteChange(evt)" onclick="changeMe(evt)" points="70.9808,122.941 44.9999,107.941 29.9999,133.922 55.981,148.921" seed="4"/><polygon fill="rgb(147, 112, 219)" stroke="black" stroke-width="1" onmouseover="setChange(evt)" onmouseout="unhiliteChange(evt)" onclick="changeMe(evt)" points="85.9798,96.9612 85.9807,66.9612 59.9997,81.9603" seed="5"/><polygon fill="rgb(147, 112, 219)" stroke="black" stroke-width="1" onmouseover="setChange(evt)" onmouseout="unhiliteChange(evt)" onclick="changeMe(evt)" points="44.9999,55.9792 29.9999,29.9982 15,55.9792" seed="6"/><polygon fill="rgb(147, 112, 219)" stroke="black" stroke-width="1" onmouseover="setChange(evt)" onmouseout="unhiliteChange(evt)" onclick="changeMe(evt)" points="44.9999,107.941 15,107.941 29.9999,133.922" seed="7"/><polygon fill="rgb(147, 112, 219)" stroke="black" stroke-width="1" onmouseover="setChange(evt)" onmouseout="unhiliteChange(evt)" onclick="changeMe(evt)" points="55.9805,14.999 29.9991,4.57764e-005 29.9999,29.9992" seed="8"/></g>
</svg>
