<?xml version="1.0" encoding="utf-8"?>
<svg xmlns="http://www.w3.org/2000/svg" id="mainSVG" pointer-events="all" width="90.001" height="163.923" EdgeLen="30" template="u4_67_tu" code="B4_4_2_0" copyright="Francis Hemsher, 2012">
	<polygon id="BorderPoly" fill="none" pointer-events="none" stroke="red" stroke-width="4" transform="" points="15.0015,4.57764e-005 30.001,25.9812 15.0005,51.9622 15,81.9613 15.0005,111.961 -3.8147e-006,137.942 15,163.923 45,163.923 75.0005,163.923 60.0005,137.942 75.0005,111.962 74.9995,81.9632 75.0005,51.9632 90.0005,25.9822 75.0015,0.00104523 45.0015,0.000549316"/>
	<g id="mainPolyG" transform=""><polygon id="mainPoly" fill="rgb(252, 194, 0)" stroke="black" onmouseover="setChange(evt)" onmouseout="unhiliteChange(evt)" onclick="changeMe(evt)" points="45,111.961 15,111.961 -3.8147e-006,137.942 15,163.923 45,163.923 60.0005,137.942" seed="0"/><polygon fill="rgb(224, 176, 255)" stroke="black" stroke-width="1" onmouseover="setChange(evt)" onmouseout="unhiliteChange(evt)" onclick="changeMe(evt)" points="45,81.9622 15,81.9613 15.0005,111.961 45,111.961" seed="1"/><polygon fill="rgb(224, 176, 255)" stroke="black" stroke-width="1" onmouseover="setChange(evt)" onmouseout="unhiliteChange(evt)" onclick="changeMe(evt)" points="45.0005,51.9622 15.0005,51.9622 15,81.9613 44.9995,81.9622" seed="2"/><polygon fill="rgb(224, 176, 255)" stroke="black" stroke-width="1" onmouseover="setChange(evt)" onmouseout="unhiliteChange(evt)" onclick="changeMe(evt)" points="75.0005,51.9632 45.0005,51.9622 44.9995,81.9622 74.9995,81.9632" seed="3"/><polygon fill="rgb(224, 176, 255)" stroke="black" stroke-width="1" onmouseover="setChange(evt)" onmouseout="unhiliteChange(evt)" onclick="changeMe(evt)" points="74.9995,81.9622 45,81.9622 45,111.961 75.0005,111.962" seed="4"/><polygon fill="rgb(41, 171, 135)" stroke="black" stroke-width="1" onmouseover="setChange(evt)" onmouseout="unhiliteChange(evt)" onclick="changeMe(evt)" points="75.0015,0.00104523 45.0015,0.000549316 30.001,25.9812 45.0005,51.9622 75.0005,51.9632 90.0005,25.9822" seed="5"/><polygon fill="rgb(147, 112, 219)" stroke="black" stroke-width="1" onmouseover="setChange(evt)" onmouseout="unhiliteChange(evt)" onclick="changeMe(evt)" points="45.0015,0.000549316 15.0015,4.57764e-005 30.0015,25.9812" seed="6"/><polygon fill="rgb(147, 112, 219)" stroke="black" stroke-width="1" onmouseover="setChange(evt)" onmouseout="unhiliteChange(evt)" onclick="changeMe(evt)" points="45.0005,51.9622 30.001,25.9812 15.0005,51.9613" seed="7"/><polygon fill="rgb(147, 112, 219)" stroke="black" stroke-width="1" onmouseover="setChange(evt)" onmouseout="unhiliteChange(evt)" onclick="changeMe(evt)" points="75.0005,111.962 45,111.962 60.0005,137.942" seed="8"/><polygon fill="rgb(147, 112, 219)" stroke="black" stroke-width="1" onmouseover="setChange(evt)" onmouseout="unhiliteChange(evt)" onclick="changeMe(evt)" points="75.0005,163.923 59.9995,137.942 45,163.923" seed="9"/></g>
</svg>
