<?xml version="1.0" encoding="utf-8"?>
<svg xmlns="http://www.w3.org/2000/svg" id="mainSVG" pointer-events="all" width="160" height="200" EdgeLen="30" template="u4_50_tu" code="B4_6_2_0" copyright="Francis Hemsher, 2012">
	<polygon id="BorderPoly" fill="none" pointer-events="none" stroke="red" stroke-width="4" transform="" points="30.0005,0 0.000490393,0.000197014 15.001,25.9813 0.000549316,51.9622 15.001,77.9433 0.000549316,103.923 0.00104904,133.923 0,163.922 0.000549316,193.923 30,193.923 60,193.923 60,163.923 60.0005,133.924 60,103.924 75.0007,77.9433 60.0005,51.9622 75.0007,25.9813 60.0005,0"/><g id="mainPolyG" transform=""><polygon id="mainPoly" fill="rgb(252, 194, 0)" stroke="black" onmouseover="setChange(evt)" onmouseout="unhiliteChange(evt)" onclick="changeMe(evt)" points="60.0005,51.9622 30.0005,51.9622 15.0005,77.9433 30.0005,103.924 60.0005,103.924 75.0006,77.9433" seed="0"/><polygon fill="rgb(41, 171, 135)" stroke="black" stroke-width="1" onmouseover="setChange(evt)" onmouseout="unhiliteChange(evt)" onclick="changeMe(evt)" points="60.0005,0 30.0005,0 15.0005,25.9813 30.0005,51.9622 60.0005,51.9622 75.0006,25.9813" seed="1"/><polygon fill="rgb(224, 176, 255)" stroke="black" stroke-width="1" onmouseover="setChange(evt)" onmouseout="unhiliteChange(evt)" onclick="changeMe(evt)" points="60,103.924 30.0005,103.924 30.0005,133.923 60.0005,133.924" seed="2"/><polygon fill="rgb(224, 176, 255)" stroke="black" stroke-width="1" onmouseover="setChange(evt)" onmouseout="unhiliteChange(evt)" onclick="changeMe(evt)" points="60.0005,133.924 30.0009,133.923 30,163.923 60,163.923" seed="3"/><polygon fill="rgb(224, 176, 255)" stroke="black" stroke-width="1" onmouseover="setChange(evt)" onmouseout="unhiliteChange(evt)" onclick="changeMe(evt)" points="59.9995,163.923 30,163.923 30,193.923 60,193.923" seed="4"/><polygon fill="rgb(224, 176, 255)" stroke="black" stroke-width="1" onmouseover="setChange(evt)" onmouseout="unhiliteChange(evt)" onclick="changeMe(evt)" points="30.0005,103.924 0.000499725,103.923 0.000999449,133.923 30.0005,133.923" seed="5"/><polygon fill="rgb(224, 176, 255)" stroke="black" stroke-width="1" onmouseover="setChange(evt)" onmouseout="unhiliteChange(evt)" onclick="changeMe(evt)" points="30.0009,133.923 0.00149918,133.922 0,163.922 30,163.923" seed="6"/><polygon fill="rgb(224, 176, 255)" stroke="black" stroke-width="1" onmouseover="setChange(evt)" onmouseout="unhiliteChange(evt)" onclick="changeMe(evt)" points="30,163.923 0,163.923 0.000499725,193.923 30,193.923" seed="7"/><polygon fill="rgb(147, 112, 219)" stroke="black" stroke-width="1" onmouseover="setChange(evt)" onmouseout="unhiliteChange(evt)" onclick="changeMe(evt)" points="30.0005,51.9622 0.000499725,51.9622 15.001,77.9433" seed="8"/><polygon fill="rgb(147, 112, 219)" stroke="black" stroke-width="1" onmouseover="setChange(evt)" onmouseout="unhiliteChange(evt)" onclick="changeMe(evt)" points="30.0005,103.923 15.0005,77.9433 0.000499725,103.923" seed="9"/><polygon fill="rgb(147, 112, 219)" stroke="black" stroke-width="1" onmouseover="setChange(evt)" onmouseout="unhiliteChange(evt)" onclick="changeMe(evt)" points="30.0005,51.9622 15.001,25.9813 0.000499725,51.9622" seed="10"/><polygon fill="rgb(147, 112, 219)" stroke="black" stroke-width="1" onmouseover="setChange(evt)" onmouseout="unhiliteChange(evt)" onclick="changeMe(evt)" points="0.000440802,0.00024279 30.0005,4.55264e-005 15.0007,25.9809" seed="11"/></g></svg>
