<?xml version="1.0" encoding="utf-8"?>
<svg xmlns="http://www.w3.org/2000/svg" id="mainSVG" pointer-events="all" width="105.001" height="207.847" EdgeLen="30" template="u5_2_tu" code="B6_0_6_0" copyright="Francis Hemsher, 2012">
	<polygon id="BorderPoly" fill="none" pointer-events="none" stroke="red" stroke-width="4" transform="" points="45.0015,0.00125122 15.0015,0.00025177 0.00100327,25.9812 15.0005,51.9622 0.00050354,77.9433 15.0005,103.923 3.8147e-006,129.904 15.0005,155.885 0.00050354,181.866 15.0005,207.847 45.0005,207.847 60.0005,181.866 90.0005,181.866 105.001,155.886 90.0005,129.905 105.001,103.924 90.0005,77.9433 105.001,51.9622 90.0005,25.9812 60.0005,25.9823"/>
	<g id="mainPolyG" transform=""><polygon id="mainPoly" fill="rgb(252, 194, 0)" stroke="black" onmouseover="setChange(evt)" onmouseout="unhiliteChange(evt)" onclick="changeMe(evt)" points="45.0005,155.885 15.0005,155.885 0.00050354,181.866 15.0005,207.847 45.0005,207.847 60.0005,181.866" seed="0"/><polygon fill="rgb(41, 171, 135)" stroke="black" stroke-width="1" onmouseover="setChange(evt)" onmouseout="unhiliteChange(evt)" onclick="changeMe(evt)" points="90.0005,129.905 60.0005,129.905 45.0005,155.885 60.0005,181.866 90.0005,181.866 105.001,155.886" seed="1"/><polygon fill="rgb(41, 171, 135)" stroke="black" stroke-width="1" onmouseover="setChange(evt)" onmouseout="unhiliteChange(evt)" onclick="changeMe(evt)" points="90.0005,77.9433 60.0005,77.9433 45.0005,103.924 60.0005,129.905 90.0005,129.905 105.001,103.924" seed="2"/><polygon fill="rgb(41, 171, 135)" stroke="black" stroke-width="1" onmouseover="setChange(evt)" onmouseout="unhiliteChange(evt)" onclick="changeMe(evt)" points="90.0005,25.9812 60.0005,25.9812 45.0005,51.9622 60.0005,77.9433 90.0005,77.9433 105.001,51.9622" seed="3"/><polygon fill="rgb(41, 171, 135)" stroke="black" stroke-width="1" onmouseover="setChange(evt)" onmouseout="unhiliteChange(evt)" onclick="changeMe(evt)" points="45.0005,51.9622 15.0005,51.9622 0.00050354,77.9433 15.0005,103.923 45.0005,103.924 60.0005,77.9433" seed="4"/><polygon fill="rgb(41, 171, 135)" stroke="black" stroke-width="1" onmouseover="setChange(evt)" onmouseout="unhiliteChange(evt)" onclick="changeMe(evt)" points="45.0015,0.00125122 15.0015,0.00025177 0.00100327,25.9812 15.0005,51.9622 45.0005,51.9622 60.0005,25.9823" seed="5"/><polygon fill="rgb(147, 112, 219)" stroke="black" stroke-width="1" onmouseover="setChange(evt)" onmouseout="unhiliteChange(evt)" onclick="changeMe(evt)" points="45.0005,103.924 15.0005,103.923 30,129.904" seed="6"/><polygon fill="rgb(147, 112, 219)" stroke="black" stroke-width="1" onmouseover="setChange(evt)" onmouseout="unhiliteChange(evt)" onclick="changeMe(evt)" points="30,129.904 15.0005,103.923 3.8147e-006,129.904" seed="7"/><polygon fill="rgb(147, 112, 219)" stroke="black" stroke-width="1" onmouseover="setChange(evt)" onmouseout="unhiliteChange(evt)" onclick="changeMe(evt)" points="30,129.904 3.8147e-006,129.904 14.9995,155.885" seed="8"/><polygon fill="rgb(147, 112, 219)" stroke="black" stroke-width="1" onmouseover="setChange(evt)" onmouseout="unhiliteChange(evt)" onclick="changeMe(evt)" points="44.9995,155.885 30,129.904 14.9995,155.885" seed="9"/><polygon fill="rgb(147, 112, 219)" stroke="black" stroke-width="1" onmouseover="setChange(evt)" onmouseout="unhiliteChange(evt)" onclick="changeMe(evt)" points="59.9995,129.905 30,129.904 44.9995,155.886" seed="10"/><polygon fill="rgb(147, 112, 219)" stroke="black" stroke-width="1" onmouseover="setChange(evt)" onmouseout="unhiliteChange(evt)" onclick="changeMe(evt)" points="59.9995,129.905 45.0005,103.924 30,129.904" seed="11"/></g>
</svg>
