<svg xmlns="http://www.w3.org/2000/svg" id="mainSVG" pointer-events="all" width="165.001" height="103.924" EdgeLen="30" template="u4_21_tu" code="B6_0_4_0" copyright="Francis Hemsher, 2012">
	<polygon id="BorderPoly" fill="none" pointer-events="none" stroke="red" stroke-width="4" transform="" points="75.0008,-3.8147e-006 15,0.000495911 4.57764e-005,25.9815 15.0005,51.962 15.0005,51.963 0.000549316,77.943 15.0005,103.924 75.0008,103.924 90.0008,77.943 150.001,77.944 165.001,51.963 150.001,25.9815 90.0008,25.9815 90.0008,25.981"/>
	<g id="mainPolyG" transform=""><polygon id="mainPoly" fill="rgb(147, 112, 219)" stroke="none" stroke-width="1" onmouseover="setChange(evt)" onmouseout="unhiliteChange(evt)" onclick="changeMe(evt)" points="105.001,51.962 90.0008,25.981 60.0008,25.981 45.0007,51.962 60.0008,77.943 90.0008,77.943" seed="0"/><polygon fill="rgb(41, 171, 135)" stroke="black" stroke-width="1" onmouseover="setChange(evt)" onmouseout="unhiliteChange(evt)" onclick="changeMe(evt)" points="60.0008,25.981 75.0008,-3.8147e-006 90.0008,25.981" seed="1"/><polygon fill="rgb(41, 171, 135)" stroke="black" stroke-width="1" onmouseover="setChange(evt)" onmouseout="unhiliteChange(evt)" onclick="changeMe(evt)" points="90.0008,77.943 75.0008,103.924 60.0008,77.943" seed="2"/><polygon fill="rgb(41, 171, 135)" stroke="black" stroke-width="1" onmouseover="setChange(evt)" onmouseout="unhiliteChange(evt)" onclick="changeMe(evt)" points="90.0008,25.9815 120.001,25.9815 105.001,51.962" seed="3"/><polygon fill="rgb(41, 171, 135)" stroke="black" stroke-width="1" onmouseover="setChange(evt)" onmouseout="unhiliteChange(evt)" onclick="changeMe(evt)" points="105.001,51.963 120.001,77.943 90.0008,77.943" seed="4"/><polygon fill="rgb(147, 112, 219)" stroke="black" stroke-width="1" onmouseover="setChange(evt)" onmouseout="unhiliteChange(evt)" onclick="changeMe(evt)" points="165.001,51.963 150.001,25.9815 120.001,25.9815 105.001,51.963 120.001,77.944 150.001,77.944" seed="5"/><polygon fill="rgb(147, 112, 219)" stroke="black" stroke-width="1" onmouseover="setChange(evt)" onmouseout="unhiliteChange(evt)" onclick="changeMe(evt)" points="15,0.000495911 45.0007,0.000495911 60.0008,25.981 45.0007,51.962 15.0005,51.963 4.57764e-005,25.9815" seed="6"/><polygon fill="rgb(147, 112, 219)" stroke="black" stroke-width="1" onmouseover="setChange(evt)" onmouseout="unhiliteChange(evt)" onclick="changeMe(evt)" points="0.000549316,77.943 15.0005,51.962 45.0007,51.962 60.0008,77.943 44.9997,103.924 15.0005,103.924" seed="7"/><polygon fill="rgb(41, 171, 135)" stroke="black" stroke-width="1" onmouseover="setChange(evt)" onmouseout="unhiliteChange(evt)" onclick="changeMe(evt)" points="60.0008,25.981 75.0008,0.000495911 45.0007,0.000495911" seed="8"/><polygon fill="rgb(41, 171, 135)" stroke="black" stroke-width="1" onmouseover="setChange(evt)" onmouseout="unhiliteChange(evt)" onclick="changeMe(evt)" points="45.0007,103.923 74.9997,103.924 60.0008,77.943" seed="9"/></g>
</svg>
