<?xml version="1.0" encoding="utf-8"?>
<svg xmlns="http://www.w3.org/2000/svg" id="mainSVG" pointer-events="all" width="195" height="155.885" EdgeLen="30" template="u6_49_tu" code="B6_0_7_0" copyright="Francis Hemsher, 2012">
	<polygon id="BorderPoly" fill="none" pointer-events="none" stroke="red" stroke-width="4" transform="" points="90,-4.57764e-005 60,-4.57764e-005 45,25.9813 15,25.9813 -7.62939e-006,51.9622 15.001,77.9433 0.000495911,103.924 15.001,129.905 45.001,129.905 60.001,155.885 90.001,155.885 105.001,129.904 135.001,129.904 150,103.924 180.001,103.923 195,77.9433 180,51.9622 150,51.9622 135,25.9813 105,25.9813"/>
	<g id="mainPolyG" transform=""><polygon id="mainPoly" fill="rgb(252, 194, 0)" stroke="black" onmouseover="setChange(evt)" onmouseout="unhiliteChange(evt)" onclick="changeMe(evt)" points="90.001,103.923 60.001,103.923 45.001,129.904 60.001,155.885 90.001,155.885 105.001,129.904" seed="0"/><polygon fill="rgb(147, 112, 219)" stroke="black" stroke-width="1" onmouseover="setChange(evt)" onmouseout="unhiliteChange(evt)" onclick="changeMe(evt)" points="90.001,103.923 75.001,77.9422 60.001,103.923" seed="1"/><polygon fill="rgb(147, 112, 219)" stroke="black" stroke-width="1" onmouseover="setChange(evt)" onmouseout="unhiliteChange(evt)" onclick="changeMe(evt)" points="75,77.9433 45.001,77.9433 60.001,103.923" seed="2"/><polygon fill="rgb(147, 112, 219)" stroke="black" stroke-width="1" onmouseover="setChange(evt)" onmouseout="unhiliteChange(evt)" onclick="changeMe(evt)" points="75,77.9433 60,51.9622 45,77.9433" seed="3"/><polygon fill="rgb(147, 112, 219)" stroke="black" stroke-width="1" onmouseover="setChange(evt)" onmouseout="unhiliteChange(evt)" onclick="changeMe(evt)" points="90,51.9622 60,51.9622 75,77.9433" seed="4"/><polygon fill="rgb(147, 112, 219)" stroke="black" stroke-width="1" onmouseover="setChange(evt)" onmouseout="unhiliteChange(evt)" onclick="changeMe(evt)" points="105,77.9433 90,51.9622 75,77.9433" seed="5"/><polygon fill="rgb(147, 112, 219)" stroke="black" stroke-width="1" onmouseover="setChange(evt)" onmouseout="unhiliteChange(evt)" onclick="changeMe(evt)" points="105,77.9433 75,77.9433 90,103.924" seed="6"/><polygon fill="rgb(41, 171, 135)" stroke="black" stroke-width="1" onmouseover="setChange(evt)" onmouseout="unhiliteChange(evt)" onclick="changeMe(evt)" points="45.001,77.9433 15.001,77.9433 0.000495911,103.924 15.001,129.905 45.001,129.905 60.001,103.923" seed="7"/><polygon fill="rgb(41, 171, 135)" stroke="black" stroke-width="1" onmouseover="setChange(evt)" onmouseout="unhiliteChange(evt)" onclick="changeMe(evt)" points="45,25.9813 15,25.9813 -7.62939e-006,51.9622 15,77.9433 45,77.9433 60,51.9622" seed="8"/><polygon fill="rgb(41, 171, 135)" stroke="black" stroke-width="1" onmouseover="setChange(evt)" onmouseout="unhiliteChange(evt)" onclick="changeMe(evt)" points="90,-4.57764e-005 60,-4.57764e-005 45,25.9813 60,51.9622 90,51.9622 105,25.9813" seed="9"/><polygon fill="rgb(41, 171, 135)" stroke="black" stroke-width="1" onmouseover="setChange(evt)" onmouseout="unhiliteChange(evt)" onclick="changeMe(evt)" points="135,25.9813 105.001,25.9813 90,51.9622 105,77.9433 135,77.9433 150,51.9622" seed="10"/><polygon fill="rgb(41, 171, 135)" stroke="black" stroke-width="1" onmouseover="setChange(evt)" onmouseout="unhiliteChange(evt)" onclick="changeMe(evt)" points="135,77.9433 105,77.9433 90,103.924 105,129.904 135.001,129.904 150,103.924" seed="11"/><polygon fill="rgb(41, 171, 135)" stroke="black" stroke-width="1" onmouseover="setChange(evt)" onmouseout="unhiliteChange(evt)" onclick="changeMe(evt)" points="180,51.9622 150,51.9622 135,77.9433 150,103.923 180.001,103.923 195,77.9433" seed="12"/></g>
</svg>
