<svg xmlns="http://www.w3.org/2000/svg" id="mainSVG" pointer-events="all" width="150.001" height="155.885" EdgeLen="30" template="u5_14_tu" code="B6_0_8_0" copyright="Francis Hemsher, 2012">
	<polygon id="BorderPoly" fill="none" pointer-events="none" stroke="red" stroke-width="4" transform="" points="15,0.000549316 4.57764e-005,25.9813 15,51.9622 4.57764e-005,77.9433 15.0005,103.923 15.0005,103.924 0.000549316,129.904 15.0005,155.885 135.001,155.885 150.001,129.904 135.001,103.923 150.001,77.9422 135.001,51.9613 150.001,25.9802 135.001,-4.57764e-005"/><g id="mainPolyG" transform=""><polygon id="mainPoly" fill="rgb(252, 194, 0)" stroke="none" stroke-width="1" onmouseover="setChange(evt)" onmouseout="unhiliteChange(evt)" onclick="changeMe(evt)" points="105.001,103.923 90.0008,77.9422 60.0008,77.9422 45.0007,103.923 60.0008,129.904 90.0008,129.904" seed="0"/><polygon fill="rgb(224, 176, 255)" stroke="black" stroke-width="1" onmouseover="setChange(evt)" onmouseout="unhiliteChange(evt)" onclick="changeMe(evt)" points="90.0008,25.9813 105.001,51.9613 90.0008,77.9422 60.0008,77.9422 44.9997,51.9613 59.9997,25.9802" seed="1"/><polygon fill="rgb(224, 176, 255)" stroke="black" stroke-width="1" onmouseover="setChange(evt)" onmouseout="unhiliteChange(evt)" onclick="changeMe(evt)" points="15,51.9622 45.0007,51.9622 60.0008,77.9422 45.0007,103.923 15.0005,103.924 4.57764e-005,77.9433" seed="2"/><polygon fill="rgb(224, 176, 255)" stroke="black" stroke-width="1" onmouseover="setChange(evt)" onmouseout="unhiliteChange(evt)" onclick="changeMe(evt)" points="0.000549316,129.904 15.0005,103.923 45.0007,103.923 60.0008,129.904 44.9997,155.885 15.0005,155.885" seed="3"/><polygon fill="rgb(224, 176, 255)" stroke="black" stroke-width="1" onmouseover="setChange(evt)" onmouseout="unhiliteChange(evt)" onclick="changeMe(evt)" points="150.001,77.9422 135.001,51.9613 105.001,51.9613 90.0008,77.9422 105.001,103.923 135.001,103.923" seed="4"/><polygon fill="rgb(224, 176, 255)" stroke="black" stroke-width="1" onmouseover="setChange(evt)" onmouseout="unhiliteChange(evt)" onclick="changeMe(evt)" points="135.001,155.885 105.001,155.885 90.0008,129.904 105.001,103.923 135.001,103.923 150.001,129.904" seed="5"/><polygon fill="rgb(224, 176, 255)" stroke="black" stroke-width="1" onmouseover="setChange(evt)" onmouseout="unhiliteChange(evt)" onclick="changeMe(evt)" points="15,0.000549316 4.57764e-005,25.9813 15,51.9622 44.9997,51.9622 60.0008,25.9813 45.0007,-4.57764e-005" seed="6"/><polygon fill="rgb(224, 176, 255)" stroke="black" stroke-width="1" onmouseover="setChange(evt)" onmouseout="unhiliteChange(evt)" onclick="changeMe(evt)" points="135.001,-4.57764e-005 150.001,25.9802 135.001,51.9613 105.001,51.9613 89.9997,25.9802 105,-0.000549316" seed="7"/><polygon fill="rgb(41, 171, 135)" stroke="black" stroke-width="1" onmouseover="setChange(evt)" onmouseout="unhiliteChange(evt)" onclick="changeMe(evt)" points="45.0007,0.000549316 75.0008,0.000549316 60.0008,25.9813" seed="8"/><polygon fill="rgb(41, 171, 135)" stroke="black" stroke-width="1" onmouseover="setChange(evt)" onmouseout="unhiliteChange(evt)" onclick="changeMe(evt)" points="89.9997,25.9813 75.0008,-4.57764e-005 59.9997,25.9802" seed="9"/><polygon fill="rgb(41, 171, 135)" stroke="black" stroke-width="1" onmouseover="setChange(evt)" onmouseout="unhiliteChange(evt)" onclick="changeMe(evt)" points="105,-0.000549316 74.9997,-4.57764e-005 89.9997,25.9802" seed="10"/><polygon fill="rgb(41, 171, 135)" stroke="black" stroke-width="1" onmouseover="setChange(evt)" onmouseout="unhiliteChange(evt)" onclick="changeMe(evt)" points="45.0007,155.885 74.9997,155.885 60.0008,129.904" seed="11"/><polygon fill="rgb(41, 171, 135)" stroke="black" stroke-width="1" onmouseover="setChange(evt)" onmouseout="unhiliteChange(evt)" onclick="changeMe(evt)" points="90.0008,129.904 75.0008,155.885 60.0008,129.904" seed="12"/><polygon fill="rgb(41, 171, 135)" stroke="black" stroke-width="1" onmouseover="setChange(evt)" onmouseout="unhiliteChange(evt)" onclick="changeMe(evt)" points="75.0008,155.885 105.001,155.885 90.0008,129.904" seed="13"/></g></svg>
