<?xml version="1.0" encoding="utf-8"?>
<svg xmlns="http://www.w3.org/2000/svg" id="mainSVG" pointer-events="all" width="215.885" height="425.888" EdgeLen="30" template="u4_29_tu" code="B6_15_7_2" copyright="Francis Hemsher, 2012">
	<polygon id="BorderPoly" fill="none" pointer-events="none" stroke="red" stroke-width="4" transform="" points="92.9302,0.00172424 66.9512,15.0037 51.9522,40.9857 51.9552,70.9857 25.9752,85.9867 40.9762,111.967 40.9782,141.967 25.9812,167.946 0.000244141,182.948 0.00124359,212.948 25.9822,227.946 40.9822,253.927 40.9832,283.927 25.9832,309.908 51.9642,324.908 51.9632,354.908 66.9632,380.888 92.9442,395.888 92.9442,425.888 122.944,425.889 122.944,395.889 148.925,380.889 163.925,354.908 163.925,324.908 148.925,298.927 174.906,283.927 174.906,253.927 189.906,227.946 215.885,212.941 215.884,182.941 189.903,167.942 174.902,141.961 174.9,111.961 148.918,96.9617 163.916,70.9787 163.914,40.9777 148.912,14.9987 122.931,-0.000274658"/>
	<g id="mainPolyG" transform=""><polygon id="mainPoly" fill="rgb(252, 194, 0)" stroke="black" onmouseover="setChange(evt)" onmouseout="unhiliteChange(evt)" onclick="changeMe(evt)" points="122.944,283.927 92.9442,283.927 66.9642,298.927 51.9642,324.908 51.9632,354.908 66.9632,380.888 92.9442,395.888 122.944,395.889 148.925,380.889 163.925,354.908 163.925,324.908 148.925,298.927" seed="0"/><polygon fill="rgb(224, 176, 255)" stroke="black" stroke-width="1" onmouseover="setChange(evt)" onmouseout="unhiliteChange(evt)" onclick="changeMe(evt)" points="122.944,395.889 92.9442,395.888 92.9442,425.888 122.944,425.889" seed="1"/><polygon fill="rgb(224, 176, 255)" stroke="black" stroke-width="1" onmouseover="setChange(evt)" onmouseout="unhiliteChange(evt)" onclick="changeMe(evt)" points="122.945,253.928 92.9452,253.927 92.9452,283.927 122.944,283.927" seed="2"/><polygon fill="rgb(224, 176, 255)" stroke="black" stroke-width="1" onmouseover="setChange(evt)" onmouseout="unhiliteChange(evt)" onclick="changeMe(evt)" points="66.9642,298.927 40.9832,283.927 25.9832,309.908 51.9642,324.908" seed="3"/><polygon fill="rgb(41, 171, 135)" stroke="black" stroke-width="1" onmouseover="setChange(evt)" onmouseout="unhiliteChange(evt)" onclick="changeMe(evt)" points="92.9442,253.927 66.9632,238.927 40.9822,253.927 40.9822,283.927 66.9642,298.927 92.9442,283.927" seed="4"/><polygon fill="rgb(41, 171, 135)" stroke="black" stroke-width="1" onmouseover="setChange(evt)" onmouseout="unhiliteChange(evt)" onclick="changeMe(evt)" points="174.906,253.927 148.925,238.927 122.945,253.927 122.944,283.927 148.925,298.927 174.906,283.927" seed="5"/><polygon fill="rgb(224, 176, 255)" stroke="black" stroke-width="1" onmouseover="setChange(evt)" onmouseout="unhiliteChange(evt)" onclick="changeMe(evt)" points="66.9632,238.927 51.9632,212.946 25.9822,227.946 40.9822,253.927" seed="6"/><polygon fill="rgb(224, 176, 255)" stroke="black" stroke-width="1" onmouseover="setChange(evt)" onmouseout="unhiliteChange(evt)" onclick="changeMe(evt)" points="107.943,227.945 81.9622,212.946 66.9632,238.927 92.9432,253.926" seed="7"/><polygon fill="rgb(224, 176, 255)" stroke="black" stroke-width="1" onmouseover="setChange(evt)" onmouseout="unhiliteChange(evt)" onclick="changeMe(evt)" points="189.906,227.946 163.925,212.947 148.925,238.927 174.906,253.927" seed="8"/><polygon fill="rgb(224, 176, 255)" stroke="black" stroke-width="1" onmouseover="setChange(evt)" onmouseout="unhiliteChange(evt)" onclick="changeMe(evt)" points="148.925,238.927 133.925,212.946 107.945,227.947 122.945,253.927" seed="9"/><polygon fill="rgb(41, 171, 135)" stroke="black" stroke-width="1" onmouseover="setChange(evt)" onmouseout="unhiliteChange(evt)" onclick="changeMe(evt)" points="133.923,182.944 107.941,167.945 81.9613,182.946 81.9622,212.946 107.943,227.945 133.924,212.944" seed="10"/><polygon fill="rgb(147, 112, 219)" stroke="black" stroke-width="1" onmouseover="setChange(evt)" onmouseout="unhiliteChange(evt)" onclick="changeMe(evt)" points="122.944,253.926 107.943,227.945 92.9432,253.926" seed="11"/><polygon fill="rgb(147, 112, 219)" stroke="black" stroke-width="1" onmouseover="setChange(evt)" onmouseout="unhiliteChange(evt)" onclick="changeMe(evt)" points="81.9632,212.946 51.9632,212.946 66.9632,238.927" seed="12"/><polygon fill="rgb(147, 112, 219)" stroke="black" stroke-width="1" onmouseover="setChange(evt)" onmouseout="unhiliteChange(evt)" onclick="changeMe(evt)" points="163.925,212.947 133.925,212.946 148.925,238.927" seed="13"/><polygon fill="rgb(224, 176, 255)" stroke="black" stroke-width="1" onmouseover="setChange(evt)" onmouseout="unhiliteChange(evt)" onclick="changeMe(evt)" points="81.9613,182.946 51.9613,182.946 51.9622,212.946 81.9622,212.946" seed="14"/><polygon fill="rgb(224, 176, 255)" stroke="black" stroke-width="1" onmouseover="setChange(evt)" onmouseout="unhiliteChange(evt)" onclick="changeMe(evt)" points="107.941,167.945 92.9402,141.964 66.9602,156.966 81.9613,182.946" seed="15"/><polygon fill="rgb(224, 176, 255)" stroke="black" stroke-width="1" onmouseover="setChange(evt)" onmouseout="unhiliteChange(evt)" onclick="changeMe(evt)" points="148.922,156.962 122.94,141.964 107.941,167.945 133.922,182.944" seed="16"/><polygon fill="rgb(224, 176, 255)" stroke="black" stroke-width="1" onmouseover="setChange(evt)" onmouseout="unhiliteChange(evt)" onclick="changeMe(evt)" points="163.924,212.943 163.922,182.943 133.923,182.944 133.924,212.943" seed="17"/><polygon fill="rgb(147, 112, 219)" stroke="black" stroke-width="1" onmouseover="setChange(evt)" onmouseout="unhiliteChange(evt)" onclick="changeMe(evt)" points="81.9613,182.946 66.9613,156.965 51.9613,182.946" seed="18"/><polygon fill="rgb(147, 112, 219)" stroke="black" stroke-width="1" onmouseover="setChange(evt)" onmouseout="unhiliteChange(evt)" onclick="changeMe(evt)" points="107.941,167.945 122.94,141.963 92.9402,141.964" seed="19"/><polygon fill="rgb(147, 112, 219)" stroke="black" stroke-width="1" onmouseover="setChange(evt)" onmouseout="unhiliteChange(evt)" onclick="changeMe(evt)" points="163.923,182.943 148.922,156.963 133.922,182.944" seed="20"/><polygon fill="rgb(41, 171, 135)" stroke="black" stroke-width="1" onmouseover="setChange(evt)" onmouseout="unhiliteChange(evt)" onclick="changeMe(evt)" points="92.9392,111.964 66.9562,96.9657 40.9762,111.967 40.9782,141.967 66.9602,156.966 92.9402,141.964" seed="21"/><polygon fill="rgb(41, 171, 135)" stroke="black" stroke-width="1" onmouseover="setChange(evt)" onmouseout="unhiliteChange(evt)" onclick="changeMe(evt)" points="174.9,111.961 148.918,96.9617 122.938,111.963 122.94,141.963 148.922,156.962 174.902,141.961" seed="22"/><polygon fill="rgb(219, 112, 147)" stroke="black" stroke-width="1" onmouseover="setChange(evt)" onmouseout="unhiliteChange(evt)" onclick="changeMe(evt)" points="148.912,14.9987 122.931,-0.000274658 92.9302,0.00172424 66.9512,15.0037 51.9522,40.9857 51.9552,70.9857 66.9562,96.9657 92.9382,111.964 122.938,111.962 148.918,96.9597 163.916,70.9787 163.914,40.9777" seed="23"/><polygon fill="rgb(224, 176, 255)" stroke="black" stroke-width="1" onmouseover="setChange(evt)" onmouseout="unhiliteChange(evt)" onclick="changeMe(evt)" points="66.9562,96.9657 51.9552,70.9857 25.9752,85.9867 40.9762,111.967" seed="24"/><polygon fill="rgb(224, 176, 255)" stroke="black" stroke-width="1" onmouseover="setChange(evt)" onmouseout="unhiliteChange(evt)" onclick="changeMe(evt)" points="122.94,141.962 122.937,111.962 92.9382,111.964 92.9402,141.963" seed="25"/><polygon fill="rgb(224, 176, 255)" stroke="black" stroke-width="1" onmouseover="setChange(evt)" onmouseout="unhiliteChange(evt)" onclick="changeMe(evt)" points="66.9613,156.966 40.9802,141.965 25.9812,167.946 51.9613,182.946" seed="26"/><polygon fill="rgb(224, 176, 255)" stroke="black" stroke-width="1" onmouseover="setChange(evt)" onmouseout="unhiliteChange(evt)" onclick="changeMe(evt)" points="189.903,167.942 174.902,141.962 148.922,156.963 163.922,182.943" seed="27"/><polygon fill="rgb(41, 171, 135)" stroke="black" stroke-width="1" onmouseover="setChange(evt)" onmouseout="unhiliteChange(evt)" onclick="changeMe(evt)" points="51.9613,182.946 25.9802,167.947 0.000244141,182.948 0.00124359,212.948 25.9822,227.947 51.9622,212.946" seed="28"/><polygon fill="rgb(41, 171, 135)" stroke="black" stroke-width="1" onmouseover="setChange(evt)" onmouseout="unhiliteChange(evt)" onclick="changeMe(evt)" points="215.884,182.941 189.902,167.941 163.922,182.943 163.924,212.943 189.905,227.942 215.885,212.941" seed="29"/></g>
</svg>
