<?xml version="1.0" encoding="utf-8"?>
<svg xmlns="http://www.w3.org/2000/svg" id="mainSVG" pointer-events="all" width="286.866" height="369.907" EdgeLen="30" template="u5_41_tu" code="B6_18_9_3" copyright="Francis Hemsher, 2012">
	<polygon id="BorderPoly" fill="none" pointer-events="none" stroke="red" stroke-width="4" transform="" points="66.963,15 40.982,0 25.982,25.981 0.00100708,40.98 0.00100708,70.981 25.982,85.981 40.982,111.962 40.981,141.962 25.98,167.945 0,182.946 0.00100708,212.946 25.982,227.945 40.983,253.926 40.984,283.926 66.965,298.925 92.946,283.924 122.939,283.926 148.921,298.926 163.921,324.907 163.921,354.907 189.902,369.907 215.882,354.907 245.882,354.907 245.882,324.907 271.863,309.907 286.863,283.926 286.864,253.927 271.864,227.946 245.882,212.946 245.883,182.947 271.864,167.948 286.865,141.967 286.866,111.966 271.867,85.985 245.887,70.985 215.886,70.984 189.905,85.983 163.924,70.983 163.925,40.983 148.925,15.001 122.945,0.000991821 92.945,0.000991821"/>
	<g id="mainPolyG" transform=""><polygon id="mainPoly" fill="rgb(252, 194, 0)" stroke="black" onmouseover="setChange(evt)" onmouseout="unhiliteChange(evt)" onclick="changeMe(evt)" points="245.882,212.946 215.882,212.946 189.902,227.946 174.902,253.927 174.902,283.926 189.902,309.907 215.882,324.907 245.882,324.907 271.863,309.907 286.863,283.926 286.864,253.927 271.864,227.946" seed="0"/><polygon fill="rgb(224, 176, 255)" stroke="black" stroke-width="1" onmouseover="setChange(evt)" onmouseout="unhiliteChange(evt)" onclick="changeMe(evt)" points="245.882,324.907 215.882,324.907 215.882,354.907 245.882,354.907" seed="1"/><polygon fill="rgb(224, 176, 255)" stroke="black" stroke-width="1" onmouseover="setChange(evt)" onmouseout="unhiliteChange(evt)" onclick="changeMe(evt)" points="245.883,182.947 215.883,182.946 215.883,212.946 245.882,212.946" seed="2"/><polygon fill="rgb(224, 176, 255)" stroke="black" stroke-width="1" onmouseover="setChange(evt)" onmouseout="unhiliteChange(evt)" onclick="changeMe(evt)" points="189.902,309.907 174.902,283.926 148.921,298.926 163.921,324.907" seed="3"/><polygon fill="rgb(224, 176, 255)" stroke="black" stroke-width="1" onmouseover="setChange(evt)" onmouseout="unhiliteChange(evt)" onclick="changeMe(evt)" points="189.902,227.946 163.921,212.946 148.921,238.927 174.903,253.927" seed="4"/><polygon fill="rgb(0, 128, 128)" stroke="black" stroke-width="1" onmouseover="setChange(evt)" onmouseout="unhiliteChange(evt)" onclick="changeMe(evt)" points="245.887,70.9854 215.886,70.9844 189.905,85.9834 174.904,111.964 174.903,141.964 189.903,167.945 215.883,182.946 245.883,182.947 271.864,167.948 286.865,141.967 286.866,111.966 271.867,85.9854" seed="5"/><polygon fill="rgb(224, 176, 255)" stroke="black" stroke-width="1" onmouseover="setChange(evt)" onmouseout="unhiliteChange(evt)" onclick="changeMe(evt)" points="189.905,85.9834 163.924,70.9834 148.924,96.9634 174.904,111.964" seed="6"/><polygon fill="rgb(0, 128, 128)" stroke="black" stroke-width="1" onmouseover="setChange(evt)" onmouseout="unhiliteChange(evt)" onclick="changeMe(evt)" points="122.945,0.00135803 92.945,0.00135803 66.963,15.0004 51.963,40.9814 51.963,70.9814 66.963,96.9624 92.943,111.962 122.943,111.962 148.924,96.9634 163.924,70.9834 163.925,40.9834 148.925,15.0014" seed="7"/><polygon fill="rgb(224, 176, 255)" stroke="black" stroke-width="1" onmouseover="setChange(evt)" onmouseout="unhiliteChange(evt)" onclick="changeMe(evt)" points="66.963,15.0004 40.982,0.000366211 25.982,25.9814 51.963,40.9814" seed="8"/><polygon fill="rgb(224, 176, 255)" stroke="black" stroke-width="1" onmouseover="setChange(evt)" onmouseout="unhiliteChange(evt)" onclick="changeMe(evt)" points="66.962,96.9624 51.963,70.9814 25.982,85.9814 40.982,111.962" seed="9"/><polygon fill="rgb(224, 176, 255)" stroke="black" stroke-width="1" onmouseover="setChange(evt)" onmouseout="unhiliteChange(evt)" onclick="changeMe(evt)" points="122.942,111.962 92.943,111.962 92.943,141.962 122.943,141.962" seed="10"/><polygon fill="rgb(224, 176, 255)" stroke="black" stroke-width="1" onmouseover="setChange(evt)" onmouseout="unhiliteChange(evt)" onclick="changeMe(evt)" points="189.903,167.945 174.903,141.964 148.923,156.964 163.922,182.945" seed="11"/><polygon fill="rgb(41, 171, 135)" stroke="black" stroke-width="1" onmouseover="setChange(evt)" onmouseout="unhiliteChange(evt)" onclick="changeMe(evt)" points="174.905,111.963 148.924,96.9634 122.943,111.962 122.942,141.962 148.924,156.963 174.904,141.963" seed="12"/><polygon fill="rgb(41, 171, 135)" stroke="black" stroke-width="1" onmouseover="setChange(evt)" onmouseout="unhiliteChange(evt)" onclick="changeMe(evt)" points="215.883,182.945 189.903,167.945 163.922,182.945 163.921,212.945 189.903,227.945 215.883,212.945" seed="13"/><polygon fill="rgb(41, 171, 135)" stroke="black" stroke-width="1" onmouseover="setChange(evt)" onmouseout="unhiliteChange(evt)" onclick="changeMe(evt)" points="51.963,40.9814 25.982,25.9804 0.00100708,40.9804 0.00100708,70.9814 25.982,85.9814 51.963,70.9814" seed="14"/><polygon fill="rgb(41, 171, 135)" stroke="black" stroke-width="1" onmouseover="setChange(evt)" onmouseout="unhiliteChange(evt)" onclick="changeMe(evt)" points="92.943,111.962 66.963,96.9624 40.981,111.962 40.981,141.962 66.962,156.962 92.942,141.962" seed="15"/><polygon fill="rgb(147, 112, 219)" stroke="black" stroke-width="1" onmouseover="setChange(evt)" onmouseout="unhiliteChange(evt)" onclick="changeMe(evt)" points="122.943,141.962 92.943,141.962 107.942,167.943" seed="16"/><polygon fill="rgb(147, 112, 219)" stroke="black" stroke-width="1" onmouseover="setChange(evt)" onmouseout="unhiliteChange(evt)" onclick="changeMe(evt)" points="163.922,182.945 148.922,156.963 133.921,182.944" seed="17"/><polygon fill="rgb(147, 112, 219)" stroke="black" stroke-width="1" onmouseover="setChange(evt)" onmouseout="unhiliteChange(evt)" onclick="changeMe(evt)" points="163.921,212.947 133.921,212.946 148.921,238.927" seed="18"/><polygon fill="rgb(224, 176, 255)" stroke="black" stroke-width="1" onmouseover="setChange(evt)" onmouseout="unhiliteChange(evt)" onclick="changeMe(evt)" points="148.924,156.963 122.943,141.963 107.942,167.944 133.924,182.944" seed="19"/><polygon fill="rgb(224, 176, 255)" stroke="black" stroke-width="1" onmouseover="setChange(evt)" onmouseout="unhiliteChange(evt)" onclick="changeMe(evt)" points="163.921,182.945 133.921,182.944 133.921,212.943 163.921,212.945" seed="20"/><polygon fill="rgb(224, 176, 255)" stroke="black" stroke-width="1" onmouseover="setChange(evt)" onmouseout="unhiliteChange(evt)" onclick="changeMe(evt)" points="107.942,167.943 92.942,141.962 66.962,156.962 81.962,182.944" seed="21"/><polygon fill="rgb(41, 171, 135)" stroke="black" stroke-width="1" onmouseover="setChange(evt)" onmouseout="unhiliteChange(evt)" onclick="changeMe(evt)" points="133.924,182.943 107.942,167.943 81.962,182.944 81.963,212.944 107.944,227.944 133.924,212.943" seed="22"/><polygon fill="rgb(224, 176, 255)" stroke="black" stroke-width="1" onmouseover="setChange(evt)" onmouseout="unhiliteChange(evt)" onclick="changeMe(evt)" points="81.962,182.944 51.962,182.944 51.963,212.944 81.963,212.944" seed="23"/><polygon fill="rgb(224, 176, 255)" stroke="black" stroke-width="1" onmouseover="setChange(evt)" onmouseout="unhiliteChange(evt)" onclick="changeMe(evt)" points="107.944,227.944 81.963,212.944 66.963,238.925 92.945,253.924" seed="24"/><polygon fill="rgb(224, 176, 255)" stroke="black" stroke-width="1" onmouseover="setChange(evt)" onmouseout="unhiliteChange(evt)" onclick="changeMe(evt)" points="148.925,238.923 133.924,212.943 107.945,227.944 122.945,253.924" seed="25"/><polygon fill="rgb(41, 171, 135)" stroke="black" stroke-width="1" onmouseover="setChange(evt)" onmouseout="unhiliteChange(evt)" onclick="changeMe(evt)" points="51.962,182.944 25.98,167.945 0,182.946 0.00100708,212.946 25.982,227.945 51.963,212.944" seed="26"/><polygon fill="rgb(224, 176, 255)" stroke="black" stroke-width="1" onmouseover="setChange(evt)" onmouseout="unhiliteChange(evt)" onclick="changeMe(evt)" points="66.962,156.962 40.981,141.962 25.981,167.943 51.962,182.944" seed="27"/><polygon fill="rgb(41, 171, 135)" stroke="black" stroke-width="1" onmouseover="setChange(evt)" onmouseout="unhiliteChange(evt)" onclick="changeMe(evt)" points="174.902,253.927 148.921,238.926 122.94,253.926 122.939,283.926 148.92,298.926 174.902,283.926" seed="28"/><polygon fill="rgb(41, 171, 135)" stroke="black" stroke-width="1" onmouseover="setChange(evt)" onmouseout="unhiliteChange(evt)" onclick="changeMe(evt)" points="215.882,324.907 189.902,309.907 163.921,324.907 163.921,354.907 189.902,369.907 215.882,354.907" seed="29"/><polygon fill="rgb(147, 112, 219)" stroke="black" stroke-width="1" onmouseover="setChange(evt)" onmouseout="unhiliteChange(evt)" onclick="changeMe(evt)" points="81.963,182.944 66.962,156.962 51.962,182.944" seed="30"/><polygon fill="rgb(147, 112, 219)" stroke="black" stroke-width="1" onmouseover="setChange(evt)" onmouseout="unhiliteChange(evt)" onclick="changeMe(evt)" points="66.963,238.925 81.963,212.944 51.963,212.944" seed="31"/><polygon fill="rgb(147, 112, 219)" stroke="black" stroke-width="1" onmouseover="setChange(evt)" onmouseout="unhiliteChange(evt)" onclick="changeMe(evt)" points="122.945,253.924 107.945,227.944 92.945,253.924" seed="32"/><polygon fill="rgb(41, 171, 135)" stroke="black" stroke-width="1" onmouseover="setChange(evt)" onmouseout="unhiliteChange(evt)" onclick="changeMe(evt)" points="92.945,253.925 66.963,238.925 40.983,253.926 40.984,283.926 66.965,298.925 92.946,283.924" seed="33"/><polygon fill="rgb(224, 176, 255)" stroke="black" stroke-width="1" onmouseover="setChange(evt)" onmouseout="unhiliteChange(evt)" onclick="changeMe(evt)" points="66.963,238.925 51.963,212.945 25.982,227.945 40.984,253.925" seed="34"/><polygon fill="rgb(224, 176, 255)" stroke="black" stroke-width="1" onmouseover="setChange(evt)" onmouseout="unhiliteChange(evt)" onclick="changeMe(evt)" points="122.945,253.924 92.945,253.924 92.945,283.924 122.945,283.923" seed="35"/></g>
</svg>
