<?xml version="1.0" encoding="utf-8"?>
<svg xmlns="http://www.w3.org/2000/svg" id="mainSVG" pointer-events="all" width="137.943" height="178.923" EdgeLen="30" template="ark3_9_tu" code="B6_2_0_1" copyright="Francis Hemsher, 2012">
	<polygon id="BorderPoly" fill="none" pointer-events="none" stroke="red" stroke-width="4" transform="" points="55.9818,4.57764e-005 40.9808,25.9802 15.0005,40.9802 0.000457764,66.9613 -4.57764e-005,96.9613 15,122.942 40.9808,137.942 55.9808,163.923 81.9608,178.923 96.9618,152.942 122.942,137.942 137.943,111.961 137.942,81.9613 111.962,66.9613 96.9618,40.9812 70.9808,25.9812"/>
	<g id="mainPolyG" transform=""><polygon id="mainPoly" fill="rgb(252, 194, 0)" stroke="black" onmouseover="setChange(evt)" onmouseout="unhiliteChange(evt)" onclick="changeMe(evt)" points="70.9808,25.9812 40.9808,25.9802 15.0005,40.9802 0.000457764,66.9613 -4.57764e-005,96.9613 15,122.942 40.9808,137.942 70.9808,137.942 96.9618,122.942 111.962,96.9613 111.962,66.9613 96.9618,40.9812" seed="0"/><polygon fill="rgb(224, 176, 255)" stroke="black" stroke-width="1" onmouseover="setChange(evt)" onmouseout="unhiliteChange(evt)" onclick="changeMe(evt)" points="137.943,111.961 111.961,96.9613 96.9618,122.942 122.942,137.942" seed="1"/><polygon fill="rgb(147, 112, 219)" stroke="black" stroke-width="1" onmouseover="setChange(evt)" onmouseout="unhiliteChange(evt)" onclick="changeMe(evt)" points="70.9808,25.9812 55.9818,4.57764e-005 40.9808,25.9802" seed="2"/><polygon fill="rgb(147, 112, 219)" stroke="black" stroke-width="1" onmouseover="setChange(evt)" onmouseout="unhiliteChange(evt)" onclick="changeMe(evt)" points="137.943,81.9622 111.962,66.9613 111.962,96.9613" seed="3"/><polygon fill="rgb(147, 112, 219)" stroke="black" stroke-width="1" onmouseover="setChange(evt)" onmouseout="unhiliteChange(evt)" onclick="changeMe(evt)" points="137.942,111.961 137.942,81.9613 111.961,96.9613" seed="4"/><polygon fill="rgb(147, 112, 219)" stroke="black" stroke-width="1" onmouseover="setChange(evt)" onmouseout="unhiliteChange(evt)" onclick="changeMe(evt)" points="122.942,137.942 96.9608,122.942 96.9618,152.942" seed="5"/><polygon fill="rgb(147, 112, 219)" stroke="black" stroke-width="1" onmouseover="setChange(evt)" onmouseout="unhiliteChange(evt)" onclick="changeMe(evt)" points="96.9618,152.942 96.9618,122.942 70.9808,137.942" seed="6"/><polygon fill="rgb(147, 112, 219)" stroke="black" stroke-width="1" onmouseover="setChange(evt)" onmouseout="unhiliteChange(evt)" onclick="changeMe(evt)" points="70.9808,137.942 40.9808,137.942 55.9808,163.923" seed="7"/><polygon fill="rgb(224, 176, 255)" stroke="black" stroke-width="1" onmouseover="setChange(evt)" onmouseout="unhiliteChange(evt)" onclick="changeMe(evt)" points="96.9608,152.943 70.9808,137.942 55.9808,163.922 81.9608,178.923" seed="8"/></g>
</svg>
