<svg xmlns="http://www.w3.org/2000/svg" id="mainSVG" pointer-events="all" width="130.98" height="92.9425" EdgeLen="30" template="u5_193_tu" code="B6_2_1_0" copyright="Francis Hemsher, 2012">
	<polygon id="BorderPoly" fill="none" pointer-events="none" stroke="red" stroke-width="4" transform="" points="-5.34058e-005,40.9805 30.0005,92.9417 29.9999,92.9417 89.9998,92.9427 105,66.9617 130.981,51.962 100.981,4.57764e-005 74.9998,15 59.9997,40.9805"/><g id="mainPolyG" transform=""><polygon id="mainPoly" fill="rgb(252, 194, 0)" stroke="none" stroke-width="1" onmouseover="setChange(evt)" onmouseout="unhiliteChange(evt)" onclick="changeMe(evt)" points="89.9998,92.9427 105,66.9617 89.9998,40.9805 59.9997,40.9805 44.9997,66.9617 59.9997,92.9427" seed="0"/><polygon fill="rgb(41, 171, 135)" stroke="black" stroke-width="1" onmouseover="setChange(evt)" onmouseout="unhiliteChange(evt)" onclick="changeMe(evt)" points="44.9997,66.9607 29.9999,40.9805 59.9997,40.9805" seed="1"/><polygon fill="rgb(41, 171, 135)" stroke="black" stroke-width="1" onmouseover="setChange(evt)" onmouseout="unhiliteChange(evt)" onclick="changeMe(evt)" points="29.9999,40.9805 14.9999,66.9607 44.9997,66.9607" seed="2"/><polygon fill="rgb(41, 171, 135)" stroke="black" stroke-width="1" onmouseover="setChange(evt)" onmouseout="unhiliteChange(evt)" onclick="changeMe(evt)" points="14.9999,66.9607 -5.34058e-005,40.9805 29.9999,40.9805" seed="3"/><polygon fill="rgb(41, 171, 135)" stroke="black" stroke-width="1" onmouseover="setChange(evt)" onmouseout="unhiliteChange(evt)" onclick="changeMe(evt)" points="44.9997,66.9607 29.9999,92.9417 14.9999,66.9607" seed="4"/><polygon fill="rgb(41, 171, 135)" stroke="black" stroke-width="1" onmouseover="setChange(evt)" onmouseout="unhiliteChange(evt)" onclick="changeMe(evt)" points="30.0005,92.9417 59.9997,92.9417 44.9997,66.9607" seed="5"/><polygon fill="rgb(224, 176, 255)" stroke="black" stroke-width="1" onmouseover="setChange(evt)" onmouseout="unhiliteChange(evt)" onclick="changeMe(evt)" points="115.981,25.9805 130.981,51.962 105,66.9617 90.0007,40.981" seed="6"/><polygon fill="rgb(41, 171, 135)" stroke="black" stroke-width="1" onmouseover="setChange(evt)" onmouseout="unhiliteChange(evt)" onclick="changeMe(evt)" points="74.9998,15 89.9998,40.9805 59.9997,40.9805" seed="7"/><polygon fill="rgb(224, 176, 255)" stroke="black" stroke-width="1" onmouseover="setChange(evt)" onmouseout="unhiliteChange(evt)" onclick="changeMe(evt)" points="115.981,25.981 100.981,4.57764e-005 74.9998,15 89.9998,40.9805" seed="8"/></g></svg>
