<?xml version="1.0" encoding="utf-8"?>
<svg xmlns="http://www.w3.org/2000/svg" id="mainSVG" pointer-events="all" width="145.981" height="222.846" EdgeLen="30" template="u4_87_tu" code="B6_2_3_0" copyright="Francis Hemsher, 2012">
	<polygon id="BorderPoly" fill="none" pointer-events="none" stroke="red" stroke-width="4" transform="" points="100.982,25.9808 85.9805,51.9618 70.9805,77.9428 55.9805,103.924 40.9805,129.904 25.9805,155.885 7.62939e-006,170.885 14.9995,196.866 29.9995,222.847 55.9805,207.846 70.9805,181.866 85.9805,155.885 100.98,129.904 115.98,103.923 130.98,77.9428 145.98,51.9618 130.982,25.9808 115.983,-0.000244141"/>
	<g id="mainPolyG" transform=""><polygon id="mainPoly" fill="rgb(252, 194, 0)" stroke="black" onmouseover="setChange(evt)" onmouseout="unhiliteChange(evt)" onclick="changeMe(evt)" points="70.9805,129.904 40.9805,129.904 25.9805,155.885 40.9805,181.866 70.9805,181.866 85.9805,155.885" seed="0"/><polygon fill="rgb(224, 176, 255)" stroke="black" stroke-width="1" onmouseover="setChange(evt)" onmouseout="unhiliteChange(evt)" onclick="changeMe(evt)" points="40.9795,181.866 25.9805,155.885 7.62939e-006,170.885 14.9995,196.866" seed="1"/><polygon fill="rgb(224, 176, 255)" stroke="black" stroke-width="1" onmouseover="setChange(evt)" onmouseout="unhiliteChange(evt)" onclick="changeMe(evt)" points="55.9805,207.846 40.9795,181.866 15,196.866 29.9995,222.847" seed="2"/><polygon fill="rgb(147, 112, 219)" stroke="black" stroke-width="1" onmouseover="setChange(evt)" onmouseout="unhiliteChange(evt)" onclick="changeMe(evt)" points="55.9805,207.846 70.9795,181.865 40.9795,181.866" seed="3"/><polygon fill="rgb(147, 112, 219)" stroke="black" stroke-width="1" onmouseover="setChange(evt)" onmouseout="unhiliteChange(evt)" onclick="changeMe(evt)" points="70.9805,129.904 55.9805,103.924 40.9805,129.904" seed="4"/><polygon fill="rgb(147, 112, 219)" stroke="black" stroke-width="1" onmouseover="setChange(evt)" onmouseout="unhiliteChange(evt)" onclick="changeMe(evt)" points="100.98,129.905 70.9805,129.904 85.9805,155.885" seed="5"/><polygon fill="rgb(41, 171, 135)" stroke="black" stroke-width="1" onmouseover="setChange(evt)" onmouseout="unhiliteChange(evt)" onclick="changeMe(evt)" points="100.98,77.9428 70.9805,77.9428 55.9805,103.924 70.9805,129.904 100.98,129.904 115.98,103.923" seed="6"/><polygon fill="rgb(147, 112, 219)" stroke="black" stroke-width="1" onmouseover="setChange(evt)" onmouseout="unhiliteChange(evt)" onclick="changeMe(evt)" points="100.98,77.9428 85.9805,51.9618 70.9805,77.9428" seed="7"/><polygon fill="rgb(147, 112, 219)" stroke="black" stroke-width="1" onmouseover="setChange(evt)" onmouseout="unhiliteChange(evt)" onclick="changeMe(evt)" points="130.98,77.9428 100.98,77.9428 115.98,103.923" seed="8"/><polygon fill="rgb(41, 171, 135)" stroke="black" stroke-width="1" onmouseover="setChange(evt)" onmouseout="unhiliteChange(evt)" onclick="changeMe(evt)" points="130.982,25.9808 100.982,25.9808 85.9805,51.9618 100.98,77.9428 130.98,77.9428 145.98,51.9618" seed="9"/><polygon fill="rgb(147, 112, 219)" stroke="black" stroke-width="1" onmouseover="setChange(evt)" onmouseout="unhiliteChange(evt)" onclick="changeMe(evt)" points="130.982,25.9808 115.983,-0.000244141 100.982,25.9808" seed="10"/></g>
</svg>
