<?xml version="1.0" encoding="utf-8"?>
<svg xmlns="http://www.w3.org/2000/svg" id="mainSVG" pointer-events="all" width="105.002" height="185.885" EdgeLen="30" template="ark4_1_tu" code="B6_3_4_0" copyright="Francis Hemsher, 2012">
	<polygon id="BorderPoly" fill="none" pointer-events="none" stroke="red" stroke-width="4" transform="" points="90.0023,-4.57764e-005 60.0013,-4.57764e-005 45.001,25.9808 15.001,25.9798 0.000553131,51.9608 15,77.9418 15.0005,107.942 -4.57764e-005,133.923 15,159.904 45,159.904 60.0003,185.885 90.0003,185.885 105,159.904 90.0003,133.923 104.999,107.942 105,77.9427 90.0003,51.9618 105.001,25.9808"/>
	<g id="mainPolyG" transform=""><polygon id="mainPoly" fill="rgb(252, 194, 0)" stroke="black" onmouseover="setChange(evt)" onmouseout="unhiliteChange(evt)" onclick="changeMe(evt)" points="45,107.942 15,107.942 -4.57764e-005,133.923 15,159.904 45,159.904 60.0003,133.923" seed="0"/><polygon fill="rgb(41, 171, 135)" stroke="black" stroke-width="1" onmouseover="setChange(evt)" onmouseout="unhiliteChange(evt)" onclick="changeMe(evt)" points="105,159.904 90.0003,133.923 60.0003,133.923 45,159.904 60.0003,185.885 90.0003,185.885" seed="1"/><polygon fill="rgb(224, 176, 255)" stroke="black" stroke-width="1" onmouseover="setChange(evt)" onmouseout="unhiliteChange(evt)" onclick="changeMe(evt)" points="45,77.9427 15,77.9418 15.0005,107.942 45,107.942" seed="2"/><polygon fill="rgb(41, 171, 135)" stroke="black" stroke-width="1" onmouseover="setChange(evt)" onmouseout="unhiliteChange(evt)" onclick="changeMe(evt)" points="45.001,25.9808 15.001,25.9798 0.000553131,51.9608 15,77.9418 45,77.9427 60.0003,51.9618" seed="3"/><polygon fill="rgb(41, 171, 135)" stroke="black" stroke-width="1" onmouseover="setChange(evt)" onmouseout="unhiliteChange(evt)" onclick="changeMe(evt)" points="90.0023,-4.57764e-005 60.0013,-4.57764e-005 45.001,25.9808 60.0003,51.9618 90.0003,51.9618 105.001,25.9808" seed="4"/><polygon fill="rgb(147, 112, 219)" stroke="black" stroke-width="1" onmouseover="setChange(evt)" onmouseout="unhiliteChange(evt)" onclick="changeMe(evt)" points="75.0003,77.9427 60.0003,51.9618 45,77.9427" seed="5"/><polygon fill="rgb(147, 112, 219)" stroke="black" stroke-width="1" onmouseover="setChange(evt)" onmouseout="unhiliteChange(evt)" onclick="changeMe(evt)" points="90.0003,51.9618 60.0003,51.9618 75.0003,77.9427" seed="6"/><polygon fill="rgb(147, 112, 219)" stroke="black" stroke-width="1" onmouseover="setChange(evt)" onmouseout="unhiliteChange(evt)" onclick="changeMe(evt)" points="90.0003,133.923 74.9993,107.942 60.0003,133.923" seed="7"/><polygon fill="rgb(147, 112, 219)" stroke="black" stroke-width="1" onmouseover="setChange(evt)" onmouseout="unhiliteChange(evt)" onclick="changeMe(evt)" points="75.0003,107.943 45.0005,107.943 60.0003,133.923" seed="8"/><polygon fill="rgb(147, 112, 219)" stroke="black" stroke-width="1" onmouseover="setChange(evt)" onmouseout="unhiliteChange(evt)" onclick="changeMe(evt)" points="105,77.9427 90.0003,51.9618 75.0003,77.9427" seed="9"/><polygon fill="rgb(147, 112, 219)" stroke="black" stroke-width="1" onmouseover="setChange(evt)" onmouseout="unhiliteChange(evt)" onclick="changeMe(evt)" points="90.0003,133.923 104.999,107.942 75.0003,107.943" seed="10"/><polygon fill="rgb(224, 176, 255)" stroke="black" stroke-width="1" onmouseover="setChange(evt)" onmouseout="unhiliteChange(evt)" onclick="changeMe(evt)" points="74.9993,77.9427 45,77.9427 45,107.942 75.0003,107.943" seed="11"/><polygon fill="rgb(224, 176, 255)" stroke="black" stroke-width="1" onmouseover="setChange(evt)" onmouseout="unhiliteChange(evt)" onclick="changeMe(evt)" points="104.999,107.942 104.999,77.9418 74.9993,77.9427 75.0003,107.943" seed="12"/></g>
</svg>
