<?xml version="1.0" encoding="utf-8"?>
<svg xmlns="http://www.w3.org/2000/svg" id="mainSVG" pointer-events="all" width="105.001" height="159.905" EdgeLen="30" template="u6_64_tu" code="B6_3_3_0" copyright="Francis Hemsher, 2012">
	<polygon id="BorderPoly" fill="none" pointer-events="none" stroke="red" stroke-width="4" transform="" points="89.9997,0 59.9997,0 45,25.9815 15,25.9815 4.95911e-005,51.9625 15.0005,77.9435 15.0005,107.943 0.000549316,133.924 30.0005,133.924 45.0005,159.904 75.0007,159.904 90.0008,133.924 105.001,107.943 105,77.9425 90.0008,51.9615 105,25.9805"/>
	<g id="mainPolyG" transform=""><polygon id="mainPoly" fill="rgb(252, 194, 0)" stroke="black" onmouseover="setChange(evt)" onmouseout="unhiliteChange(evt)" onclick="changeMe(evt)" points="75.0007,107.943 45.0005,107.943 30.0005,133.924 45.0005,159.904 75.0007,159.904 90.0008,133.924" seed="0"/><polygon fill="rgb(147, 112, 219)" stroke="black" stroke-width="1" onmouseover="setChange(evt)" onmouseout="unhiliteChange(evt)" onclick="changeMe(evt)" points="45.0005,107.943 15.0005,107.943 30.0005,133.924" seed="1"/><polygon fill="rgb(147, 112, 219)" stroke="black" stroke-width="1" onmouseover="setChange(evt)" onmouseout="unhiliteChange(evt)" onclick="changeMe(evt)" points="30.0005,133.924 15.0005,107.943 0.000549316,133.924" seed="2"/><polygon fill="rgb(147, 112, 219)" stroke="black" stroke-width="1" onmouseover="setChange(evt)" onmouseout="unhiliteChange(evt)" onclick="changeMe(evt)" points="105.001,107.943 75.0007,107.943 90.0008,133.924" seed="3"/><polygon fill="rgb(224, 176, 255)" stroke="black" stroke-width="1" onmouseover="setChange(evt)" onmouseout="unhiliteChange(evt)" onclick="changeMe(evt)" points="45,107.943 45.0005,77.9435 15.0005,77.9435 15.0005,107.943" seed="4"/><polygon fill="rgb(224, 176, 255)" stroke="black" stroke-width="1" onmouseover="setChange(evt)" onmouseout="unhiliteChange(evt)" onclick="changeMe(evt)" points="75.0007,77.9435 45.0005,77.9435 45.001,107.943 75.0007,107.943" seed="5"/><polygon fill="rgb(224, 176, 255)" stroke="black" stroke-width="1" onmouseover="setChange(evt)" onmouseout="unhiliteChange(evt)" onclick="changeMe(evt)" points="105.001,107.943 105.001,77.9435 75.0007,77.9435 75.0007,107.943" seed="6"/><polygon fill="rgb(41, 171, 135)" stroke="black" stroke-width="1" onmouseover="setChange(evt)" onmouseout="unhiliteChange(evt)" onclick="changeMe(evt)" points="59.9997,51.9615 45,25.9815 15,25.9815 4.95911e-005,51.9625 15.0005,77.9435 45.0005,77.9435" seed="7"/><polygon fill="rgb(41, 171, 135)" stroke="black" stroke-width="1" onmouseover="setChange(evt)" onmouseout="unhiliteChange(evt)" onclick="changeMe(evt)" points="89.9997,0 59.9997,0 45,25.9815 59.9997,51.9615 90.0008,51.9615 105,25.9805" seed="8"/><polygon fill="rgb(147, 112, 219)" stroke="black" stroke-width="1" onmouseover="setChange(evt)" onmouseout="unhiliteChange(evt)" onclick="changeMe(evt)" points="75.0007,77.9425 59.9997,51.9615 45.0005,77.9435" seed="9"/><polygon fill="rgb(147, 112, 219)" stroke="black" stroke-width="1" onmouseover="setChange(evt)" onmouseout="unhiliteChange(evt)" onclick="changeMe(evt)" points="89.9997,51.9615 59.9997,51.9615 74.9997,77.9425" seed="10"/><polygon fill="rgb(147, 112, 219)" stroke="black" stroke-width="1" onmouseover="setChange(evt)" onmouseout="unhiliteChange(evt)" onclick="changeMe(evt)" points="105,77.9425 89.9997,51.9615 74.9997,77.9425" seed="11"/></g>
</svg>
