<?xml version="1.0" encoding="utf-8"?>
<svg xmlns="http://www.w3.org/2000/svg" id="mainSVG" pointer-events="all" width="163.924" height="156.962" EdgeLen="30" template="ark3_6_tu" code="B6_3_1_1" copyright="Francis Hemsher, 2012">
	<polygon id="BorderPoly" fill="none" pointer-events="none" stroke="red" stroke-width="4" transform="" points="122.943,44.9993 122.942,15 96.961,4.57764e-005 70.981,15 40.981,14.9995 40.981,44.9993 15.0005,59.9992 0.00050354,85.9802 0,115.98 15,141.961 40.981,156.961 70.981,156.961 96.961,141.961 122.942,156.961 137.942,130.981 163.923,115.981 163.924,85.9813 137.943,70.9813"/>
	<g id="mainPolyG" transform=""><polygon id="mainPoly" fill="rgb(252, 194, 0)" stroke="black" onmouseover="setChange(evt)" onmouseout="unhiliteChange(evt)" onclick="changeMe(evt)" points="70.981,45.0003 40.981,44.9993 15.0005,59.9992 0.00050354,85.9802 0,115.98 15,141.961 40.981,156.961 70.981,156.961 96.961,141.961 111.961,115.98 111.962,85.9802 96.962,60.0003" seed="0"/><polygon fill="rgb(224, 176, 255)" stroke="black" stroke-width="1" onmouseover="setChange(evt)" onmouseout="unhiliteChange(evt)" onclick="changeMe(evt)" points="70.981,15.0005 40.981,14.9995 40.981,44.9993 70.981,45.0003" seed="1"/><polygon fill="rgb(224, 176, 255)" stroke="black" stroke-width="1" onmouseover="setChange(evt)" onmouseout="unhiliteChange(evt)" onclick="changeMe(evt)" points="137.943,70.9802 122.943,44.9993 96.962,60.0003 111.962,85.9802" seed="2"/><polygon fill="rgb(224, 176, 255)" stroke="black" stroke-width="1" onmouseover="setChange(evt)" onmouseout="unhiliteChange(evt)" onclick="changeMe(evt)" points="137.943,130.98 111.961,115.98 96.961,141.961 122.942,156.961" seed="3"/><polygon fill="rgb(147, 112, 219)" stroke="black" stroke-width="1" onmouseover="setChange(evt)" onmouseout="unhiliteChange(evt)" onclick="changeMe(evt)" points="96.962,60.0003 96.962,30.0003 70.981,45.0003" seed="4"/><polygon fill="rgb(147, 112, 219)" stroke="black" stroke-width="1" onmouseover="setChange(evt)" onmouseout="unhiliteChange(evt)" onclick="changeMe(evt)" points="96.961,30.0003 70.981,15 70.981,45.0003" seed="5"/><polygon fill="rgb(147, 112, 219)" stroke="black" stroke-width="1" onmouseover="setChange(evt)" onmouseout="unhiliteChange(evt)" onclick="changeMe(evt)" points="96.961,30.0003 96.961,4.57764e-005 70.981,15" seed="6"/><polygon fill="rgb(147, 112, 219)" stroke="black" stroke-width="1" onmouseover="setChange(evt)" onmouseout="unhiliteChange(evt)" onclick="changeMe(evt)" points="122.942,15 96.961,4.57764e-005 96.961,30.0003" seed="7"/><polygon fill="rgb(147, 112, 219)" stroke="black" stroke-width="1" onmouseover="setChange(evt)" onmouseout="unhiliteChange(evt)" onclick="changeMe(evt)" points="122.942,45.0003 122.942,15.0005 96.961,30.0003" seed="8"/><polygon fill="rgb(147, 112, 219)" stroke="black" stroke-width="1" onmouseover="setChange(evt)" onmouseout="unhiliteChange(evt)" onclick="changeMe(evt)" points="122.942,45.0003 96.961,30.0003 96.961,60.0003" seed="9"/><polygon fill="rgb(41, 171, 135)" stroke="black" stroke-width="1" onmouseover="setChange(evt)" onmouseout="unhiliteChange(evt)" onclick="changeMe(evt)" points="163.924,85.9813 137.943,70.9813 111.962,85.9802 111.961,115.98 137.942,130.981 163.923,115.981" seed="10"/></g>
</svg>
