<?xml version="1.0" encoding="utf-8"?>
<svg xmlns="http://www.w3.org/2000/svg" id="mainSVG" pointer-events="all" width="150.001" height="215.885" EdgeLen="30" template="u5_119_tu" code="B6_4_3_0" copyright="Francis Hemsher, 2012">
	<polygon id="BorderPoly" fill="none" pointer-events="none" stroke="red" stroke-width="4" transform="" points="120.001,0.00025177 90.0008,0.00025177 75.0008,25.9812 60.0008,51.9622 45.0007,77.9433 30.0007,103.924 15.0005,129.905 0.000549316,155.885 0.00104523,185.885 4.57764e-005,215.884 29.9997,215.885 59.9997,215.885 60.0008,185.886 60.0008,155.886 75.0008,129.905 90.0008,103.924 105.001,77.9433 120.001,51.9622 135.001,25.9812 150.001,0.00025177"/>
	<g id="mainPolyG" transform=""><polygon id="mainPoly" fill="rgb(252, 194, 0)" stroke="black" onmouseover="setChange(evt)" onmouseout="unhiliteChange(evt)" onclick="changeMe(evt)" points="60.0008,103.924 30.0007,103.924 15.0005,129.905 30.0007,155.886 60.0008,155.886 75.0008,129.905" seed="0"/><polygon fill="rgb(224, 176, 255)" stroke="black" stroke-width="1" onmouseover="setChange(evt)" onmouseout="unhiliteChange(evt)" onclick="changeMe(evt)" points="59.9997,155.886 30.0007,155.886 30.0007,185.885 60.0008,185.886" seed="1"/><polygon fill="rgb(224, 176, 255)" stroke="black" stroke-width="1" onmouseover="setChange(evt)" onmouseout="unhiliteChange(evt)" onclick="changeMe(evt)" points="60.0008,185.886 30.0007,185.885 29.9997,215.885 59.9997,215.885" seed="2"/><polygon fill="rgb(224, 176, 255)" stroke="black" stroke-width="1" onmouseover="setChange(evt)" onmouseout="unhiliteChange(evt)" onclick="changeMe(evt)" points="30.0007,155.886 0.000549316,155.885 0.00104523,185.885 30.0007,185.885" seed="3"/><polygon fill="rgb(224, 176, 255)" stroke="black" stroke-width="1" onmouseover="setChange(evt)" onmouseout="unhiliteChange(evt)" onclick="changeMe(evt)" points="30.0007,185.885 0.00154877,185.884 4.57764e-005,215.884 29.9997,215.885" seed="4"/><polygon fill="rgb(147, 112, 219)" stroke="black" stroke-width="1" onmouseover="setChange(evt)" onmouseout="unhiliteChange(evt)" onclick="changeMe(evt)" points="29.9997,155.885 15.0005,129.905 0.000549316,155.885" seed="5"/><polygon fill="rgb(147, 112, 219)" stroke="black" stroke-width="1" onmouseover="setChange(evt)" onmouseout="unhiliteChange(evt)" onclick="changeMe(evt)" points="60.0008,103.924 45.0007,77.9433 30.0007,103.924" seed="6"/><polygon fill="rgb(147, 112, 219)" stroke="black" stroke-width="1" onmouseover="setChange(evt)" onmouseout="unhiliteChange(evt)" onclick="changeMe(evt)" points="90.0008,103.924 60.0008,103.924 75.0008,129.905" seed="7"/><polygon fill="rgb(41, 171, 135)" stroke="black" stroke-width="1" onmouseover="setChange(evt)" onmouseout="unhiliteChange(evt)" onclick="changeMe(evt)" points="90.0008,51.9622 60.0008,51.9622 45.0007,77.9433 60.0008,103.924 90.0008,103.924 105.001,77.9433" seed="8"/><polygon fill="rgb(147, 112, 219)" stroke="black" stroke-width="1" onmouseover="setChange(evt)" onmouseout="unhiliteChange(evt)" onclick="changeMe(evt)" points="90.0008,51.9622 75.0008,25.9812 60.0008,51.9622" seed="9"/><polygon fill="rgb(147, 112, 219)" stroke="black" stroke-width="1" onmouseover="setChange(evt)" onmouseout="unhiliteChange(evt)" onclick="changeMe(evt)" points="120.001,51.9622 90.0008,51.9622 105.001,77.9433" seed="10"/><polygon fill="rgb(41, 171, 135)" stroke="black" stroke-width="1" onmouseover="setChange(evt)" onmouseout="unhiliteChange(evt)" onclick="changeMe(evt)" points="120.001,0.00025177 90.0008,0.00025177 75.0008,25.9812 90.0008,51.9622 120.001,51.9622 135.001,25.9812" seed="11"/><polygon fill="rgb(147, 112, 219)" stroke="black" stroke-width="1" onmouseover="setChange(evt)" onmouseout="unhiliteChange(evt)" onclick="changeMe(evt)" points="150.001,0.00025177 120.001,0.00025177 135.001,25.9812" seed="12"/></g>
</svg>
