<?xml version="1.0" encoding="utf-8"?>
<svg xmlns="http://www.w3.org/2000/svg" id="mainSVG" pointer-events="all" width="105.001" height="215.885" EdgeLen="30" template="u6_14_tu" code="B6_6_4_0" copyright="Francis Hemsher, 2012">
	<polygon id="BorderPoly" fill="none" pointer-events="none" stroke="red" stroke-width="4" transform="" points="45.0005,-0.000495911 15.0005,-0.000495911 0.00050354,25.9805 3.8147e-006,55.9805 0.00050354,85.9805 15.0005,111.962 0.00050354,137.941 15.0005,163.923 0.00050354,189.904 15.0005,215.884 45.0005,215.884 60.0005,189.904 90.0005,189.904 105.001,163.923 90.0005,137.943 105.001,111.962 89.9995,85.9805 90.0005,55.9805 89.9995,25.9805 59.9995,25.9805"/>
	<g id="mainPolyG" transform=""><polygon id="mainPoly" fill="rgb(252, 194, 0)" stroke="black" onmouseover="setChange(evt)" onmouseout="unhiliteChange(evt)" onclick="changeMe(evt)" points="45.0005,111.962 15.0005,111.962 0.00050354,137.941 15.0005,163.923 45.0005,163.923 60.0005,137.941" seed="0"/><polygon fill="rgb(41, 171, 135)" stroke="black" stroke-width="1" onmouseover="setChange(evt)" onmouseout="unhiliteChange(evt)" onclick="changeMe(evt)" points="45.0005,163.923 15.0005,163.923 0.00050354,189.904 15.0005,215.884 45.0005,215.884 60.0005,189.904" seed="1"/><polygon fill="rgb(41, 171, 135)" stroke="black" stroke-width="1" onmouseover="setChange(evt)" onmouseout="unhiliteChange(evt)" onclick="changeMe(evt)" points="90.0005,85.9805 60.0005,85.9805 45.0005,111.962 60.0005,137.941 90.0005,137.941 105.001,111.962" seed="2"/><polygon fill="rgb(41, 171, 135)" stroke="black" stroke-width="1" onmouseover="setChange(evt)" onmouseout="unhiliteChange(evt)" onclick="changeMe(evt)" points="90.0005,137.943 60.0005,137.941 45.0005,163.923 60.0005,189.904 90.0005,189.904 105.001,163.923" seed="3"/><polygon fill="rgb(147, 112, 219)" stroke="black" stroke-width="1" onmouseover="setChange(evt)" onmouseout="unhiliteChange(evt)" onclick="changeMe(evt)" points="45.0005,111.962 30.0005,85.9805 15.0005,111.962" seed="4"/><polygon fill="rgb(147, 112, 219)" stroke="black" stroke-width="1" onmouseover="setChange(evt)" onmouseout="unhiliteChange(evt)" onclick="changeMe(evt)" points="60.0005,85.9805 30.0005,85.9805 45.0005,111.961" seed="5"/><polygon fill="rgb(147, 112, 219)" stroke="black" stroke-width="1" onmouseover="setChange(evt)" onmouseout="unhiliteChange(evt)" onclick="changeMe(evt)" points="30,85.9805 0.00050354,85.9805 15.0005,111.962" seed="6"/><polygon fill="rgb(224, 176, 255)" stroke="black" stroke-width="1" onmouseover="setChange(evt)" onmouseout="unhiliteChange(evt)" onclick="changeMe(evt)" points="30,55.9805 3.8147e-006,55.9805 0.00050354,85.9805 30,85.9805" seed="7"/><polygon fill="rgb(224, 176, 255)" stroke="black" stroke-width="1" onmouseover="setChange(evt)" onmouseout="unhiliteChange(evt)" onclick="changeMe(evt)" points="60.0005,55.9805 30.0005,55.9805 30.001,85.9805 60.0005,85.9805" seed="8"/><polygon fill="rgb(224, 176, 255)" stroke="black" stroke-width="1" onmouseover="setChange(evt)" onmouseout="unhiliteChange(evt)" onclick="changeMe(evt)" points="89.9995,85.9805 90.0005,55.9805 60.0005,55.9805 60.0005,85.9805" seed="9"/><polygon fill="rgb(224, 176, 255)" stroke="black" stroke-width="1" onmouseover="setChange(evt)" onmouseout="unhiliteChange(evt)" onclick="changeMe(evt)" points="30.0005,25.9805 0.00050354,25.9805 3.8147e-006,55.9805 29.9995,55.9805" seed="10"/><polygon fill="rgb(224, 176, 255)" stroke="black" stroke-width="1" onmouseover="setChange(evt)" onmouseout="unhiliteChange(evt)" onclick="changeMe(evt)" points="60.0005,25.9805 30.001,25.9805 30.0005,55.9805 59.9995,55.9805" seed="11"/><polygon fill="rgb(224, 176, 255)" stroke="black" stroke-width="1" onmouseover="setChange(evt)" onmouseout="unhiliteChange(evt)" onclick="changeMe(evt)" points="89.9995,25.9805 59.9995,25.9805 60.0005,55.9805 90.0005,55.9805" seed="12"/><polygon fill="rgb(147, 112, 219)" stroke="black" stroke-width="1" onmouseover="setChange(evt)" onmouseout="unhiliteChange(evt)" onclick="changeMe(evt)" points="30.0005,25.9805 15.0005,-0.000495911 0.00050354,25.9805" seed="13"/><polygon fill="rgb(147, 112, 219)" stroke="black" stroke-width="1" onmouseover="setChange(evt)" onmouseout="unhiliteChange(evt)" onclick="changeMe(evt)" points="45.0005,-0.000495911 15.0005,-0.000495911 30.0005,25.9805" seed="14"/><polygon fill="rgb(147, 112, 219)" stroke="black" stroke-width="1" onmouseover="setChange(evt)" onmouseout="unhiliteChange(evt)" onclick="changeMe(evt)" points="60.0005,25.9805 45.0005,-0.000495911 30.0005,25.9805" seed="15"/></g>
</svg>
