<?xml version="1.0" encoding="utf-8"?>
<svg xmlns="http://www.w3.org/2000/svg" id="mainSVG" pointer-events="all" width="156.963" height="163.923" EdgeLen="30" template="u5_151_tu" code="B6_9_3_0" copyright="Francis Hemsher, 2012">
	<polygon id="BorderPoly" fill="none" pointer-events="none" stroke="red" stroke-width="4" transform="" points="85.9817,0 70.9808,25.9798 40.9817,25.9808 15,40.9798 0.000541687,66.9608 0,96.9608 15.0005,122.942 40.9807,137.942 70.9808,137.941 85.9797,163.923 111.961,148.923 141.96,148.923 156.961,122.943 141.962,96.9617 141.962,66.9617 156.963,40.9808 141.963,14.9997 111.962,14.9997"/>
	<g id="mainPolyG" transform=""><polygon id="mainPoly" fill="rgb(252, 194, 0)" stroke="black" onmouseover="setChange(evt)" onmouseout="unhiliteChange(evt)" onclick="changeMe(evt)" points="81.9617,66.9608 55.9808,51.9608 29.9997,66.9608 29.9997,96.9608 55.9808,111.961 81.9617,96.9608" seed="0"/><polygon fill="rgb(224, 176, 255)" stroke="black" stroke-width="1" onmouseover="setChange(evt)" onmouseout="unhiliteChange(evt)" onclick="changeMe(evt)" points="96.9617,40.9808 70.9808,25.9798 55.9808,51.9617 81.9617,66.9608" seed="1"/><polygon fill="rgb(224, 176, 255)" stroke="black" stroke-width="1" onmouseover="setChange(evt)" onmouseout="unhiliteChange(evt)" onclick="changeMe(evt)" points="55.9808,51.9608 40.9817,25.9808 15,40.9798 30.0007,66.9608" seed="2"/><polygon fill="rgb(224, 176, 255)" stroke="black" stroke-width="1" onmouseover="setChange(evt)" onmouseout="unhiliteChange(evt)" onclick="changeMe(evt)" points="29.9997,66.9608 0.000495911,66.9608 3.27418e-011,96.9608 29.9997,96.9608" seed="3"/><polygon fill="rgb(224, 176, 255)" stroke="black" stroke-width="1" onmouseover="setChange(evt)" onmouseout="unhiliteChange(evt)" onclick="changeMe(evt)" points="55.9808,111.961 29.9997,96.9608 15.0005,122.942 40.9807,137.942" seed="4"/><polygon fill="rgb(224, 176, 255)" stroke="black" stroke-width="1" onmouseover="setChange(evt)" onmouseout="unhiliteChange(evt)" onclick="changeMe(evt)" points="96.9617,122.942 81.9617,96.9617 55.9808,111.961 70.9808,137.942" seed="5"/><polygon fill="rgb(224, 176, 255)" stroke="black" stroke-width="1" onmouseover="setChange(evt)" onmouseout="unhiliteChange(evt)" onclick="changeMe(evt)" points="111.962,96.9608 111.962,66.9608 81.9617,66.9617 81.9617,96.9608" seed="6"/><polygon fill="rgb(224, 176, 255)" stroke="black" stroke-width="1" onmouseover="setChange(evt)" onmouseout="unhiliteChange(evt)" onclick="changeMe(evt)" points="111.962,14.9997 85.9817,-3.27418e-011 70.9808,25.9798 96.9607,40.9808" seed="7"/><polygon fill="rgb(224, 176, 255)" stroke="black" stroke-width="1" onmouseover="setChange(evt)" onmouseout="unhiliteChange(evt)" onclick="changeMe(evt)" points="141.962,66.9617 111.962,66.9608 111.962,96.9608 141.962,96.9617" seed="8"/><polygon fill="rgb(224, 176, 255)" stroke="black" stroke-width="1" onmouseover="setChange(evt)" onmouseout="unhiliteChange(evt)" onclick="changeMe(evt)" points="111.961,148.923 96.9617,122.942 70.9808,137.941 85.9797,163.923" seed="9"/><polygon fill="rgb(147, 112, 219)" stroke="black" stroke-width="1" onmouseover="setChange(evt)" onmouseout="unhiliteChange(evt)" onclick="changeMe(evt)" points="70.9817,25.9808 40.9817,25.9808 55.9808,51.9617" seed="10"/><polygon fill="rgb(147, 112, 219)" stroke="black" stroke-width="1" onmouseover="setChange(evt)" onmouseout="unhiliteChange(evt)" onclick="changeMe(evt)" points="30.0007,66.9608 15,40.9798 0.000495911,66.9608" seed="11"/><polygon fill="rgb(147, 112, 219)" stroke="black" stroke-width="1" onmouseover="setChange(evt)" onmouseout="unhiliteChange(evt)" onclick="changeMe(evt)" points="15.0005,122.942 29.9997,96.9608 3.27418e-011,96.9608" seed="12"/><polygon fill="rgb(147, 112, 219)" stroke="black" stroke-width="1" onmouseover="setChange(evt)" onmouseout="unhiliteChange(evt)" onclick="changeMe(evt)" points="70.9808,137.941 55.9808,111.961 40.9817,137.942" seed="13"/><polygon fill="rgb(147, 112, 219)" stroke="black" stroke-width="1" onmouseover="setChange(evt)" onmouseout="unhiliteChange(evt)" onclick="changeMe(evt)" points="96.9617,122.942 111.962,96.9608 81.9617,96.9617" seed="14"/><polygon fill="rgb(147, 112, 219)" stroke="black" stroke-width="1" onmouseover="setChange(evt)" onmouseout="unhiliteChange(evt)" onclick="changeMe(evt)" points="111.962,66.9608 96.9617,40.9808 81.9617,66.9617" seed="15"/><polygon fill="rgb(41, 171, 135)" stroke="black" stroke-width="1" onmouseover="setChange(evt)" onmouseout="unhiliteChange(evt)" onclick="changeMe(evt)" points="141.963,14.9997 111.963,14.9997 96.9617,40.9798 111.962,66.9608 141.962,66.9617 156.963,40.9808" seed="16"/><polygon fill="rgb(41, 171, 135)" stroke="black" stroke-width="1" onmouseover="setChange(evt)" onmouseout="unhiliteChange(evt)" onclick="changeMe(evt)" points="141.962,96.9617 111.962,96.9608 96.9607,122.941 111.96,148.922 141.96,148.923 156.961,122.943" seed="17"/></g>
</svg>
