<?xml version="1.0" encoding="utf-8"?>
<svg xmlns="http://www.w3.org/2000/svg" id="mainSVG" pointer-events="all" width="250.982" height="144.903" EdgeLen="30" template="u5_163_tu" code="B8_2_4_0" copyright="Francis Hemsher, 2012">
	<polygon id="BorderPoly" fill="none" pointer-events="none" stroke="red" stroke-width="4" transform="" points="220.982,0 190.981,0 175.981,25.9805 145.981,25.981 115.982,25.981 85.9812,25.9805 55.9812,25.9805 40.9812,51.9605 25.9812,77.9415 0.000244141,92.9415 15.0002,118.922 30.0002,144.902 55.9812,129.904 70.9812,103.922 85.9812,77.9425 115.981,77.9425 145.981,77.9425 175.981,77.9425 205.981,77.9425 220.981,51.9615 250.981,51.9615 235.982,25.981"/>
	<g id="mainPolyG" transform=""><polygon id="mainPoly" fill="rgb(252, 194, 0)" stroke="black" onmouseover="setChange(evt)" onmouseout="unhiliteChange(evt)" onclick="changeMe(evt)" points="115.981,25.9805 85.9812,25.9805 70.9812,51.9615 85.9812,77.9425 115.981,77.9425 130.981,51.9615" seed="0"/><polygon fill="rgb(41, 171, 135)" stroke="black" stroke-width="1" onmouseover="setChange(evt)" onmouseout="unhiliteChange(evt)" onclick="changeMe(evt)" points="70.9812,51.9615 40.9812,51.9605 25.9812,77.9415 40.9812,103.922 70.9812,103.922 85.9812,77.9425" seed="1"/><polygon fill="rgb(147, 112, 219)" stroke="black" stroke-width="1" onmouseover="setChange(evt)" onmouseout="unhiliteChange(evt)" onclick="changeMe(evt)" points="70.9812,103.922 40.9812,103.922 55.9812,129.904" seed="2"/><polygon fill="rgb(224, 176, 255)" stroke="black" stroke-width="1" onmouseover="setChange(evt)" onmouseout="unhiliteChange(evt)" onclick="changeMe(evt)" points="40.9812,103.922 25.9812,77.9425 0.000244141,92.9415 15.0002,118.922" seed="3"/><polygon fill="rgb(224, 176, 255)" stroke="black" stroke-width="1" onmouseover="setChange(evt)" onmouseout="unhiliteChange(evt)" onclick="changeMe(evt)" points="55.9812,129.904 40.9812,103.922 15.0002,118.922 30.0002,144.902" seed="4"/><polygon fill="rgb(147, 112, 219)" stroke="black" stroke-width="1" onmouseover="setChange(evt)" onmouseout="unhiliteChange(evt)" onclick="changeMe(evt)" points="70.9812,51.9615 55.9823,25.9805 40.9812,51.9605" seed="5"/><polygon fill="rgb(147, 112, 219)" stroke="black" stroke-width="1" onmouseover="setChange(evt)" onmouseout="unhiliteChange(evt)" onclick="changeMe(evt)" points="85.9812,25.9805 55.9812,25.9805 70.9812,51.9605" seed="6"/><polygon fill="rgb(147, 112, 219)" stroke="black" stroke-width="1" onmouseover="setChange(evt)" onmouseout="unhiliteChange(evt)" onclick="changeMe(evt)" points="145.981,25.981 115.982,25.981 130.981,51.9615" seed="7"/><polygon fill="rgb(147, 112, 219)" stroke="black" stroke-width="1" onmouseover="setChange(evt)" onmouseout="unhiliteChange(evt)" onclick="changeMe(evt)" points="145.981,77.9425 130.981,51.9615 115.981,77.9425" seed="8"/><polygon fill="rgb(41, 171, 135)" stroke="black" stroke-width="1" onmouseover="setChange(evt)" onmouseout="unhiliteChange(evt)" onclick="changeMe(evt)" points="190.981,51.9615 175.981,25.9805 145.981,25.981 130.981,51.9615 145.981,77.9435 175.981,77.9425" seed="9"/><polygon fill="rgb(41, 171, 135)" stroke="black" stroke-width="1" onmouseover="setChange(evt)" onmouseout="unhiliteChange(evt)" onclick="changeMe(evt)" points="220.982,0 190.981,0 175.981,25.9805 190.981,51.9615 220.981,51.9615 235.982,25.981" seed="10"/><polygon fill="rgb(147, 112, 219)" stroke="black" stroke-width="1" onmouseover="setChange(evt)" onmouseout="unhiliteChange(evt)" onclick="changeMe(evt)" points="205.981,77.9425 190.981,51.9615 175.981,77.9425" seed="11"/><polygon fill="rgb(147, 112, 219)" stroke="black" stroke-width="1" onmouseover="setChange(evt)" onmouseout="unhiliteChange(evt)" onclick="changeMe(evt)" points="220.981,51.9615 190.981,51.9615 205.981,77.9425" seed="12"/><polygon fill="rgb(147, 112, 219)" stroke="black" stroke-width="1" onmouseover="setChange(evt)" onmouseout="unhiliteChange(evt)" onclick="changeMe(evt)" points="250.981,51.9615 235.982,25.981 220.981,51.9615" seed="13"/></g>
</svg>
