<?xml version="1.0" encoding="utf-8"?>
<svg xmlns="http://www.w3.org/2000/svg" id="mainSVG" pointer-events="all" width="173.866" height="137.124" EdgeLen="30" template="ark4_15_tu" code="B8_3_0_1" copyright="Francis Hemsher, 2012">
	<polygon id="BorderPoly" fill="none" pointer-events="none" stroke="red" stroke-width="4" transform="" points="137.124,4.57764e-005 115.911,21.213 86.9337,28.978 57.9557,21.2135 36.7427,0.000541687 28.9777,28.978 7.76454,50.1907 3.8147e-005,79.1687 7.76454,108.147 28.9777,129.36 57.9557,137.125 86.9337,129.36 108.147,108.147 137.124,115.911 144.889,86.9337 166.102,65.7188 173.867,36.7417 166.102,7.76454"/>
	<g id="mainPolyG" transform=""><polygon id="mainPoly" fill="rgb(252, 194, 0)" stroke="black" onmouseover="setChange(evt)" onmouseout="unhiliteChange(evt)" onclick="changeMe(evt)" points="86.9337,28.978 57.9557,21.2135 28.9777,28.978 7.76454,50.1907 3.8147e-005,79.1687 7.76454,108.147 28.9777,129.36 57.9557,137.125 86.9337,129.36 108.147,108.147 115.911,79.1687 108.147,50.1907" seed="0"/><polygon fill="rgb(224, 176, 255)" stroke="black" stroke-width="1" onmouseover="setChange(evt)" onmouseout="unhiliteChange(evt)" onclick="changeMe(evt)" points="144.889,86.9337 115.911,79.1697 108.147,108.147 137.124,115.911" seed="1"/><polygon fill="rgb(147, 112, 219)" stroke="black" stroke-width="1" onmouseover="setChange(evt)" onmouseout="unhiliteChange(evt)" onclick="changeMe(evt)" points="57.9557,21.2135 36.7427,0.000541687 28.9777,28.9775" seed="2"/><polygon fill="rgb(147, 112, 219)" stroke="black" stroke-width="1" onmouseover="setChange(evt)" onmouseout="unhiliteChange(evt)" onclick="changeMe(evt)" points="108.147,50.1907 115.911,21.213 86.9327,28.9775" seed="3"/><polygon fill="rgb(224, 176, 255)" stroke="black" stroke-width="1" onmouseover="setChange(evt)" onmouseout="unhiliteChange(evt)" onclick="changeMe(evt)" points="144.889,28.9775 115.911,21.213 108.147,50.1907 137.125,57.9557" seed="4"/><polygon fill="rgb(224, 176, 255)" stroke="black" stroke-width="1" onmouseover="setChange(evt)" onmouseout="unhiliteChange(evt)" onclick="changeMe(evt)" points="173.867,36.7417 144.888,28.978 137.125,57.9557 166.102,65.7188" seed="5"/><polygon fill="rgb(147, 112, 219)" stroke="black" stroke-width="1" onmouseover="setChange(evt)" onmouseout="unhiliteChange(evt)" onclick="changeMe(evt)" points="144.889,28.9775 137.124,4.57764e-005 115.911,21.213" seed="6"/><polygon fill="rgb(147, 112, 219)" stroke="black" stroke-width="1" onmouseover="setChange(evt)" onmouseout="unhiliteChange(evt)" onclick="changeMe(evt)" points="166.102,7.76454 137.124,4.57764e-005 144.889,28.978" seed="7"/><polygon fill="rgb(147, 112, 219)" stroke="black" stroke-width="1" onmouseover="setChange(evt)" onmouseout="unhiliteChange(evt)" onclick="changeMe(evt)" points="173.867,36.7427 166.102,7.76454 144.889,28.978" seed="8"/><polygon fill="rgb(147, 112, 219)" stroke="black" stroke-width="1" onmouseover="setChange(evt)" onmouseout="unhiliteChange(evt)" onclick="changeMe(evt)" points="137.125,57.9557 108.147,50.1907 115.911,79.1687" seed="9"/><polygon fill="rgb(147, 112, 219)" stroke="black" stroke-width="1" onmouseover="setChange(evt)" onmouseout="unhiliteChange(evt)" onclick="changeMe(evt)" points="166.102,65.7188 137.124,57.9557 144.89,86.9327" seed="10"/><polygon fill="rgb(147, 112, 219)" stroke="black" stroke-width="1" onmouseover="setChange(evt)" onmouseout="unhiliteChange(evt)" onclick="changeMe(evt)" points="144.889,86.9337 137.125,57.9557 115.911,79.1677" seed="11"/></g>
</svg>
