<?xml version="1.0" encoding="utf-8"?>
<svg xmlns="http://www.w3.org/2000/svg" id="mainSVG" pointer-events="all" width="216.962" height="107.942" EdgeLen="30" template="u6_458_tu" code="B8_4_2_0" copyright="Francis Hemsher, 2012">
	<polygon id="BorderPoly" fill="none" pointer-events="none" stroke="red" stroke-width="4" transform="" points="186.961,0.000541687 156.961,0.000541687 126.962,0.000541687 96.9613,4.19617e-005 81.9613,25.981 55.9813,40.9805 25.9813,40.98 0.00025177,55.9792 14.9993,81.9602 29.9983,107.941 55.9813,92.9432 85.9813,92.9422 111.961,77.9412 126.961,51.9622 156.961,51.9622 186.961,51.9622 216.961,51.9622 201.962,25.9815"/>
	<g id="mainPolyG" transform=""><polygon id="mainPoly" fill="rgb(252, 194, 0)" stroke="black" onmouseover="setChange(evt)" onmouseout="unhiliteChange(evt)" onclick="changeMe(evt)" points="126.961,4.19617e-005 96.9613,4.19617e-005 81.9613,25.981 96.9613,51.9622 126.961,51.9622 141.961,25.981" seed="0"/><polygon fill="rgb(224, 176, 255)" stroke="black" stroke-width="1" onmouseover="setChange(evt)" onmouseout="unhiliteChange(evt)" onclick="changeMe(evt)" points="96.9613,51.9612 81.9613,25.981 55.9813,40.9805 70.9802,66.9622" seed="1"/><polygon fill="rgb(224, 176, 255)" stroke="black" stroke-width="1" onmouseover="setChange(evt)" onmouseout="unhiliteChange(evt)" onclick="changeMe(evt)" points="111.961,77.9412 96.9613,51.9612 70.9813,66.9622 85.9813,92.9422" seed="2"/><polygon fill="rgb(147, 112, 219)" stroke="black" stroke-width="1" onmouseover="setChange(evt)" onmouseout="unhiliteChange(evt)" onclick="changeMe(evt)" points="126.961,51.9622 96.9613,51.9622 111.961,77.9432" seed="3"/><polygon fill="rgb(147, 112, 219)" stroke="black" stroke-width="1" onmouseover="setChange(evt)" onmouseout="unhiliteChange(evt)" onclick="changeMe(evt)" points="156.961,51.9622 141.961,25.9815 126.961,51.9622" seed="4"/><polygon fill="rgb(147, 112, 219)" stroke="black" stroke-width="1" onmouseover="setChange(evt)" onmouseout="unhiliteChange(evt)" onclick="changeMe(evt)" points="156.961,0.000541687 126.962,0.000541687 141.961,25.981" seed="5"/><polygon fill="rgb(41, 171, 135)" stroke="black" stroke-width="1" onmouseover="setChange(evt)" onmouseout="unhiliteChange(evt)" onclick="changeMe(evt)" points="186.961,0.000541687 156.961,0.000541687 141.961,25.981 156.961,51.9622 186.961,51.9622 201.962,25.9815" seed="6"/><polygon fill="rgb(147, 112, 219)" stroke="black" stroke-width="1" onmouseover="setChange(evt)" onmouseout="unhiliteChange(evt)" onclick="changeMe(evt)" points="216.961,51.9622 201.962,25.982 186.961,51.9622" seed="7"/><polygon fill="rgb(147, 112, 219)" stroke="black" stroke-width="1" onmouseover="setChange(evt)" onmouseout="unhiliteChange(evt)" onclick="changeMe(evt)" points="70.9802,66.9622 55.9813,40.9805 40.9802,66.9612" seed="8"/><polygon fill="rgb(147, 112, 219)" stroke="black" stroke-width="1" onmouseover="setChange(evt)" onmouseout="unhiliteChange(evt)" onclick="changeMe(evt)" points="85.9813,92.9422 70.9813,66.9622 55.9813,92.9432" seed="9"/><polygon fill="rgb(147, 112, 219)" stroke="black" stroke-width="1" onmouseover="setChange(evt)" onmouseout="unhiliteChange(evt)" onclick="changeMe(evt)" points="70.9802,66.9622 40.9802,66.9612 55.9802,92.9422" seed="10"/><polygon fill="rgb(147, 112, 219)" stroke="black" stroke-width="1" onmouseover="setChange(evt)" onmouseout="unhiliteChange(evt)" onclick="changeMe(evt)" points="55.9813,40.9805 25.9813,40.98 40.9802,66.9612" seed="11"/><polygon fill="rgb(224, 176, 255)" stroke="black" stroke-width="1" onmouseover="setChange(evt)" onmouseout="unhiliteChange(evt)" onclick="changeMe(evt)" points="40.9802,66.9612 25.9813,40.98 0.00025177,55.9792 14.9993,81.9602" seed="12"/><polygon fill="rgb(224, 176, 255)" stroke="black" stroke-width="1" onmouseover="setChange(evt)" onmouseout="unhiliteChange(evt)" onclick="changeMe(evt)" points="55.9802,92.9422 40.9813,66.9612 14.9993,81.9602 29.9983,107.941" seed="13"/></g>
</svg>
