<?xml version="1.0" encoding="utf-8"?>
<svg xmlns="http://www.w3.org/2000/svg" id="mainSVG" pointer-events="all" width="75.0005" height="111.962" EdgeLen="30" template="u3_20_tu" code="B8_4_0_0" copyright="Francis Hemsher, 2012">
	<polygon id="BorderPoly" fill="none" pointer-events="none" stroke="red" stroke-width="4" transform="" points="15.0005,4.95911e-005 4.95911e-005,25.9806 14.9995,51.9613 15,81.9613 14.9995,111.961 44.9995,111.961 74.9987,111.961 74.9997,81.9613 74.9987,51.9622 60,25.9814 75.0007,0.00104904 45.0005,0.000549316"/>
	<g id="mainPolyG" transform=""><polygon id="mainPoly" fill="rgb(41, 171, 135)" stroke="black" onmouseover="setChange(evt)" onmouseout="unhiliteChange(evt)" onclick="changeMe(evt)" points="44.9995,81.9613 14.9995,81.9613 14.9995,111.961 44.9995,111.961" seed="0"/><polygon fill="rgb(41, 171, 135)" stroke="black" stroke-width="1" onmouseover="setChange(evt)" onmouseout="unhiliteChange(evt)" onclick="changeMe(evt)" points="44.9995,51.9622 14.9995,51.9613 15,81.9613 44.9995,81.9613" seed="1"/><polygon fill="rgb(41, 171, 135)" stroke="black" stroke-width="1" onmouseover="setChange(evt)" onmouseout="unhiliteChange(evt)" onclick="changeMe(evt)" points="74.9987,111.961 74.9997,81.9613 44.9995,81.9622 44.9995,111.961" seed="2"/><polygon fill="rgb(41, 171, 135)" stroke="black" stroke-width="1" onmouseover="setChange(evt)" onmouseout="unhiliteChange(evt)" onclick="changeMe(evt)" points="74.9987,81.9613 74.9987,51.9613 44.999,51.9622 44.9995,81.9622" seed="3"/><polygon fill="rgb(224, 176, 255)" stroke="black" stroke-width="1" onmouseover="setChange(evt)" onmouseout="unhiliteChange(evt)" onclick="changeMe(evt)" points="44.9995,51.9622 30,25.981 14.9995,51.9613" seed="4"/><polygon fill="rgb(224, 176, 255)" stroke="black" stroke-width="1" onmouseover="setChange(evt)" onmouseout="unhiliteChange(evt)" onclick="changeMe(evt)" points="30,25.981 4.95911e-005,25.9806 14.9995,51.9613" seed="5"/><polygon fill="rgb(224, 176, 255)" stroke="black" stroke-width="1" onmouseover="setChange(evt)" onmouseout="unhiliteChange(evt)" onclick="changeMe(evt)" points="30,25.981 15.0005,4.95911e-005 4.95911e-005,25.9806" seed="6"/><polygon fill="rgb(224, 176, 255)" stroke="black" stroke-width="1" onmouseover="setChange(evt)" onmouseout="unhiliteChange(evt)" onclick="changeMe(evt)" points="45.0005,0.000549316 15.0005,4.95911e-005 30,25.981" seed="7"/><polygon fill="rgb(224, 176, 255)" stroke="black" stroke-width="1" onmouseover="setChange(evt)" onmouseout="unhiliteChange(evt)" onclick="changeMe(evt)" points="60,25.9814 45.0005,0.000549316 30,25.981" seed="8"/><polygon fill="rgb(224, 176, 255)" stroke="black" stroke-width="1" onmouseover="setChange(evt)" onmouseout="unhiliteChange(evt)" onclick="changeMe(evt)" points="60,25.9814 30,25.981 44.9995,51.9613" seed="9"/><polygon fill="rgb(224, 176, 255)" stroke="black" stroke-width="1" onmouseover="setChange(evt)" onmouseout="unhiliteChange(evt)" onclick="changeMe(evt)" points="74.9987,51.9622 60,25.9814 44.9995,51.9622" seed="10"/><polygon fill="rgb(224, 176, 255)" stroke="black" stroke-width="1" onmouseover="setChange(evt)" onmouseout="unhiliteChange(evt)" onclick="changeMe(evt)" points="75.0007,0.00104904 45.0005,0.000549316 60,25.9814" seed="11"/></g>
</svg>
