<?xml version="1.0" encoding="utf-8"?>
<svg xmlns="http://www.w3.org/2000/svg" id="mainSVG" pointer-events="all" width="126.962" height="111.962" EdgeLen="30" template="u2_9_tu" code="B8_6_1_0" copyright="Francis Hemsher, 2012">
	<polygon id="BorderPoly" fill="none" pointer-events="none" stroke="red" stroke-width="4" transform="" points="126.962,15.0005 96.962,15 70.981,0.000495911 40.981,-3.8147e-006 15.0005,15.0005 3.8147e-006,40.981 0.00050354,70.981 15,96.962 40.981,111.962 70.981,111.962 96.962,96.962 126.962,96.962 111.961,70.982 111.962,40.981"/>
	<g id="mainPolyG" transform=""><polygon id="mainPoly" fill="rgb(252, 194, 0)" stroke="black" onmouseover="setChange(evt)" onmouseout="unhiliteChange(evt)" onclick="changeMe(evt)" points="70.981,30 40.981,30 25.981,55.981 40.981,81.962 70.981,81.962 85.981,55.981" seed="0"/><polygon fill="rgb(41, 171, 135)" stroke="black" stroke-width="1" onmouseover="setChange(evt)" onmouseout="unhiliteChange(evt)" onclick="changeMe(evt)" points="111.962,40.9815 96.962,15 70.981,30.0005 85.981,55.981" seed="1"/><polygon fill="rgb(41, 171, 135)" stroke="black" stroke-width="1" onmouseover="setChange(evt)" onmouseout="unhiliteChange(evt)" onclick="changeMe(evt)" points="111.962,70.981 85.98,55.981 70.981,81.962 96.962,96.962" seed="2"/><polygon fill="rgb(41, 171, 135)" stroke="black" stroke-width="1" onmouseover="setChange(evt)" onmouseout="unhiliteChange(evt)" onclick="changeMe(evt)" points="70.98,81.962 40.981,81.962 40.981,111.962 70.981,111.962" seed="3"/><polygon fill="rgb(41, 171, 135)" stroke="black" stroke-width="1" onmouseover="setChange(evt)" onmouseout="unhiliteChange(evt)" onclick="changeMe(evt)" points="40.98,81.962 25.981,55.981 0.00050354,70.981 15,96.962" seed="4"/><polygon fill="rgb(41, 171, 135)" stroke="black" stroke-width="1" onmouseover="setChange(evt)" onmouseout="unhiliteChange(evt)" onclick="changeMe(evt)" points="40.981,30 15.0005,15.0005 3.8147e-006,40.981 25.9815,55.981" seed="5"/><polygon fill="rgb(41, 171, 135)" stroke="black" stroke-width="1" onmouseover="setChange(evt)" onmouseout="unhiliteChange(evt)" onclick="changeMe(evt)" points="70.981,0.000495911 40.981,-3.8147e-006 40.981,30 70.981,30" seed="6"/><polygon fill="rgb(224, 176, 255)" stroke="black" stroke-width="1" onmouseover="setChange(evt)" onmouseout="unhiliteChange(evt)" onclick="changeMe(evt)" points="40.981,30 40.981,0.000495911 15.0005,15.0005" seed="7"/><polygon fill="rgb(224, 176, 255)" stroke="black" stroke-width="1" onmouseover="setChange(evt)" onmouseout="unhiliteChange(evt)" onclick="changeMe(evt)" points="96.962,15.0005 70.981,0.000495911 70.981,30.0005" seed="8"/><polygon fill="rgb(224, 176, 255)" stroke="black" stroke-width="1" onmouseover="setChange(evt)" onmouseout="unhiliteChange(evt)" onclick="changeMe(evt)" points="111.961,70.982 111.962,40.9815 85.98,55.981" seed="9"/><polygon fill="rgb(224, 176, 255)" stroke="black" stroke-width="1" onmouseover="setChange(evt)" onmouseout="unhiliteChange(evt)" onclick="changeMe(evt)" points="96.962,96.962 70.98,81.962 70.981,111.962" seed="10"/><polygon fill="rgb(224, 176, 255)" stroke="black" stroke-width="1" onmouseover="setChange(evt)" onmouseout="unhiliteChange(evt)" onclick="changeMe(evt)" points="40.981,111.962 40.981,81.962 15.0005,96.962" seed="11"/><polygon fill="rgb(224, 176, 255)" stroke="black" stroke-width="1" onmouseover="setChange(evt)" onmouseout="unhiliteChange(evt)" onclick="changeMe(evt)" points="25.9815,55.981 0.00100327,40.9805 0.00050354,70.981" seed="12"/><polygon fill="rgb(224, 176, 255)" stroke="black" stroke-width="1" onmouseover="setChange(evt)" onmouseout="unhiliteChange(evt)" onclick="changeMe(evt)" points="126.962,15.0005 96.962,15 111.962,40.981" seed="13"/><polygon fill="rgb(224, 176, 255)" stroke="black" stroke-width="1" onmouseover="setChange(evt)" onmouseout="unhiliteChange(evt)" onclick="changeMe(evt)" points="126.962,96.962 111.962,70.981 96.962,96.962" seed="14"/></g>
</svg>
