<?xml version="1.0" encoding="utf-8"?>
<svg xmlns="http://www.w3.org/2000/svg" id="mainSVG" pointer-events="all" width="189.905" height="156.962" EdgeLen="30" template="u6_96_tu" code="B8_6_2_1" copyright="Francis Hemsher, 2012">
	<polygon id="BorderPoly" fill="none" pointer-events="none" stroke="red" stroke-width="4" transform="" points="189.905,15.0015 163.924,0.00150299 133.924,0.00050354 107.943,15.0005 81.9618,0.00050354 51.9618,7.62939e-006 25.9808,15 10.9808,40.981 10.9808,70.981 25.9808,96.962 -4.57764e-005,111.962 -4.57764e-005,141.962 25.9808,156.962 51.9607,141.961 81.9607,141.962 107.943,156.962 133.924,141.962 163.924,141.962 163.923,111.962 189.904,96.962 174.903,70.981 174.904,40.982"/>
	<g id="mainPolyG" transform=""><polygon id="mainPoly" fill="rgb(252, 194, 0)" stroke="black" onmouseover="setChange(evt)" onmouseout="unhiliteChange(evt)" onclick="changeMe(evt)" points="81.9618,0.00050354 51.9618,7.62939e-006 25.9808,15 10.9808,40.981 10.9808,70.981 25.9808,96.962 51.9618,111.962 81.9618,111.962 107.942,96.962 122.942,70.981 122.943,40.981 107.943,15.0005" seed="0"/><polygon fill="rgb(224, 176, 255)" stroke="black" stroke-width="1" onmouseover="setChange(evt)" onmouseout="unhiliteChange(evt)" onclick="changeMe(evt)" points="81.9607,111.962 51.9618,111.962 51.9607,141.961 81.9607,141.962" seed="1"/><polygon fill="rgb(41, 171, 135)" stroke="black" stroke-width="1" onmouseover="setChange(evt)" onmouseout="unhiliteChange(evt)" onclick="changeMe(evt)" points="51.9618,111.962 25.9808,96.962 -4.57764e-005,111.962 -4.57764e-005,141.962 25.9808,156.962 51.9607,141.962" seed="2"/><polygon fill="rgb(41, 171, 135)" stroke="black" stroke-width="1" onmouseover="setChange(evt)" onmouseout="unhiliteChange(evt)" onclick="changeMe(evt)" points="133.924,111.962 107.942,96.962 81.9618,111.962 81.9618,141.962 107.943,156.962 133.924,141.962" seed="3"/><polygon fill="rgb(224, 176, 255)" stroke="black" stroke-width="1" onmouseover="setChange(evt)" onmouseout="unhiliteChange(evt)" onclick="changeMe(evt)" points="148.923,85.98 122.942,70.981 107.942,96.962 133.923,111.962" seed="4"/><polygon fill="rgb(224, 176, 255)" stroke="black" stroke-width="1" onmouseover="setChange(evt)" onmouseout="unhiliteChange(evt)" onclick="changeMe(evt)" points="163.923,111.962 133.924,111.962 133.924,141.962 163.924,141.962" seed="5"/><polygon fill="rgb(147, 112, 219)" stroke="black" stroke-width="1" onmouseover="setChange(evt)" onmouseout="unhiliteChange(evt)" onclick="changeMe(evt)" points="148.923,55.981 122.943,40.981 122.942,70.981" seed="6"/><polygon fill="rgb(147, 112, 219)" stroke="black" stroke-width="1" onmouseover="setChange(evt)" onmouseout="unhiliteChange(evt)" onclick="changeMe(evt)" points="148.923,85.981 148.923,55.981 122.942,70.981" seed="7"/><polygon fill="rgb(147, 112, 219)" stroke="black" stroke-width="1" onmouseover="setChange(evt)" onmouseout="unhiliteChange(evt)" onclick="changeMe(evt)" points="174.904,70.982 148.923,55.981 148.923,85.981" seed="8"/><polygon fill="rgb(147, 112, 219)" stroke="black" stroke-width="1" onmouseover="setChange(evt)" onmouseout="unhiliteChange(evt)" onclick="changeMe(evt)" points="174.904,70.982 174.904,40.982 148.923,55.981" seed="9"/><polygon fill="rgb(147, 112, 219)" stroke="black" stroke-width="1" onmouseover="setChange(evt)" onmouseout="unhiliteChange(evt)" onclick="changeMe(evt)" points="174.904,40.982 148.924,25.981 148.923,55.981" seed="10"/><polygon fill="rgb(147, 112, 219)" stroke="black" stroke-width="1" onmouseover="setChange(evt)" onmouseout="unhiliteChange(evt)" onclick="changeMe(evt)" points="148.923,55.981 148.924,25.981 122.943,40.981" seed="11"/><polygon fill="rgb(147, 112, 219)" stroke="black" stroke-width="1" onmouseover="setChange(evt)" onmouseout="unhiliteChange(evt)" onclick="changeMe(evt)" points="163.923,111.962 148.923,85.981 133.923,111.962" seed="12"/><polygon fill="rgb(224, 176, 255)" stroke="black" stroke-width="1" onmouseover="setChange(evt)" onmouseout="unhiliteChange(evt)" onclick="changeMe(evt)" points="189.904,96.962 174.903,70.981 148.923,85.981 163.923,111.962" seed="13"/><polygon fill="rgb(224, 176, 255)" stroke="black" stroke-width="1" onmouseover="setChange(evt)" onmouseout="unhiliteChange(evt)" onclick="changeMe(evt)" points="148.924,25.981 133.924,0.00050354 107.943,15 122.943,40.981" seed="14"/><polygon fill="rgb(224, 176, 255)" stroke="black" stroke-width="1" onmouseover="setChange(evt)" onmouseout="unhiliteChange(evt)" onclick="changeMe(evt)" points="189.905,15.0015 163.924,0.00150299 148.924,25.981 174.904,40.982" seed="15"/><polygon fill="rgb(147, 112, 219)" stroke="black" stroke-width="1" onmouseover="setChange(evt)" onmouseout="unhiliteChange(evt)" onclick="changeMe(evt)" points="163.924,0.00100708 133.924,0.00050354 148.924,25.981" seed="16"/></g>
</svg>
