<?xml version="1.0" encoding="utf-8" ?>

		<svg xmlns="http://www.w3.org/2000/svg" id="mainSVG" pointer-events="all" onkeyup="attachKey(evt)" width="148.977" height="132.902" EdgeLen="30" template="B8_6_3_R">

		<polygon id="BorderPoly" fill="none" pointer-events="none" stroke="red" stroke-width="4" transform="" points="118.978,7.76546 90.0002,0.000457764 60.0002,-4.57764e-005 29.9992,0.000457764 14.9995,25.9815 4.57764e-005,51.9623 15,77.9423 30.0002,103.923 8.78605,125.136 38.7862,125.136 68.7862,125.136 97.7632,132.901 112.764,106.921 127.764,80.9403 148.977,59.7273 133.978,33.7463" />
		<g id="mainPolyG" transform=""><polygon id="mainPoly" fill="rgb(252, 194, 0)" stroke="black" onmouseover="setChange(evt)" onmouseout="unhiliteChange(evt)" onclick="changeMe(evt)" points="90.0002,51.9623 60.0002,51.9623 45.0002,77.9433 60.0002,103.924 90.0002,103.924 105,77.9433" seed="0" /><polygon fill="rgb(41, 171, 135)" stroke="black" stroke-width="1" onmouseover="setChange(evt)" onmouseout="unhiliteChange(evt)" onclick="changeMe(evt)" points="90.0002,-4.57764e-005 60.0002,-4.57764e-005 45.0002,25.981 60.0002,51.9623 90.0002,51.9623 105,25.981" seed="1" /><polygon fill="rgb(41, 171, 135)" stroke="black" stroke-width="1" onmouseover="setChange(evt)" onmouseout="unhiliteChange(evt)" onclick="changeMe(evt)" points="45.0002,25.9815 14.9995,25.9815 4.57764e-005,51.9623 15,77.9423 45.0002,77.9433 60.0002,51.9623" seed="2" /><polygon fill="rgb(147, 112, 219)" stroke="black" stroke-width="1" onmouseover="setChange(evt)" onmouseout="unhiliteChange(evt)" onclick="changeMe(evt)" points="44.9992,25.9815 29.9992,0.000457764 14.9995,25.9815" seed="3" /><polygon fill="rgb(147, 112, 219)" stroke="black" stroke-width="1" onmouseover="setChange(evt)" onmouseout="unhiliteChange(evt)" onclick="changeMe(evt)" points="59.9993,0.000457764 30.0002,0.000457764 45.0002,25.981" seed="4" /><polygon fill="rgb(147, 112, 219)" stroke="black" stroke-width="1" onmouseover="setChange(evt)" onmouseout="unhiliteChange(evt)" onclick="changeMe(evt)" points="59.9993,103.923 45.0002,77.9433 30.0002,103.923" seed="5" /><polygon fill="rgb(147, 112, 219)" stroke="black" stroke-width="1" onmouseover="setChange(evt)" onmouseout="unhiliteChange(evt)" onclick="changeMe(evt)" points="45.0002,77.9433 15,77.9423 30.0002,103.923" seed="6" /><polygon fill="rgb(147, 112, 219)" stroke="black" stroke-width="1" onmouseover="setChange(evt)" onmouseout="unhiliteChange(evt)" onclick="changeMe(evt)" points="120,51.9623 90.0002,51.9623 105,77.9433" seed="7" /><polygon fill="rgb(147, 112, 219)" stroke="black" stroke-width="1" onmouseover="setChange(evt)" onmouseout="unhiliteChange(evt)" onclick="changeMe(evt)" points="120,51.9623 105,25.9815 90.0002,51.9623" seed="8" /><polygon fill="rgb(91, 146, 229)" stroke="black" stroke-width="1" onmouseover="setChange(evt)" onmouseout="unhiliteChange(evt)" onclick="changeMe(evt)" transform="" points="59.9993,103.923 29.9992,103.923 8.78605,125.136 38.7862,125.136" seed="9" /><polygon fill="rgb(91, 146, 229)" stroke="black" stroke-width="1" onmouseover="setChange(evt)" onmouseout="unhiliteChange(evt)" onclick="changeMe(evt)" transform="" points="89.9993,103.923 59.9993,103.923 38.7862,125.136 68.7862,125.136" seed="10" /><polygon fill="rgb(147, 112, 219)" stroke="black" stroke-width="1" onmouseover="setChange(evt)" onmouseout="unhiliteChange(evt)" onclick="changeMe(evt)" points="97.7632,132.901 89.9993,103.923 68.7862,125.136" seed="11" /><polygon fill="rgb(91, 146, 229)" stroke="black" stroke-width="1" onmouseover="setChange(evt)" onmouseout="unhiliteChange(evt)" onclick="changeMe(evt)" transform="" points="112.764,106.921 105,77.9433 90.0002,103.924 97.7643,132.902" seed="12" /><polygon fill="rgb(91, 146, 229)" stroke="black" stroke-width="1" onmouseover="setChange(evt)" onmouseout="unhiliteChange(evt)" onclick="changeMe(evt)" transform="" points="127.764,80.9403 120,51.9623 105,77.9433 112.764,106.921" seed="13" /><polygon fill="rgb(147, 112, 219)" stroke="black" stroke-width="1" onmouseover="setChange(evt)" onmouseout="unhiliteChange(evt)" onclick="changeMe(evt)" points="148.977,59.7273 120,51.9623 127.764,80.9403" seed="14" /><polygon fill="rgb(91, 146, 229)" stroke="black" stroke-width="1" onmouseover="setChange(evt)" onmouseout="unhiliteChange(evt)" onclick="changeMe(evt)" transform="" points="133.978,33.7463 105,25.9815 120,51.9623 148.978,59.7273" seed="15" /><polygon fill="rgb(91, 146, 229)" stroke="black" stroke-width="1" onmouseover="setChange(evt)" onmouseout="unhiliteChange(evt)" onclick="changeMe(evt)" transform="" points="118.978,7.76546 90.0002,0.000457764 105,25.9815 133.978,33.7463" seed="16" /></g>


		</svg>
