<?xml version="1.0" encoding="utf-8"?>
<svg xmlns="http://www.w3.org/2000/svg" id="mainSVG" pointer-events="all" width="215.886" height="216.962" EdgeLen="30" template="ark3_5_tu" code="B8_9_6_1" copyright="Francis Hemsher, 2012">
	<polygon id="BorderPoly" fill="none" pointer-events="none" stroke="red" stroke-width="4" transform="" points="174.904,0.00075531 148.924,15.0008 122.944,0.00175476 92.942,-0.000244141 66.961,15.0008 40.981,0.00075531 40.981,30.0007 40.981,60.0007 25.982,85.9808 7.62939e-006,100.981 7.62939e-006,130.981 25.98,145.981 40.981,171.962 40.981,201.963 66.962,216.962 92.942,201.962 122.943,201.963 148.924,216.963 174.905,201.963 200.885,186.963 215.885,160.982 215.885,130.982 215.886,100.982 215.885,70.9818 200.886,45.0007 174.904,30.0007"/>
	<g id="mainPolyG" transform=""><polygon id="mainPoly" fill="rgb(252, 194, 0)" stroke="black" onmouseover="setChange(evt)" onmouseout="unhiliteChange(evt)" onclick="changeMe(evt)" points="122.943,60.0007 92.943,60.0007 66.962,75.0007 51.962,100.982 51.962,130.982 66.962,156.962 92.943,171.962 122.943,171.963 148.923,156.963 163.923,130.982 163.924,100.982 148.924,75.0007" seed="0"/><polygon fill="rgb(41, 171, 135)" stroke="black" stroke-width="1" onmouseover="setChange(evt)" onmouseout="unhiliteChange(evt)" onclick="changeMe(evt)" points="174.904,30.0007 148.924,15.0008 122.943,30.0007 122.943,60.0007 148.924,75.0007 174.904,60.0007" seed="1"/><polygon fill="rgb(41, 171, 135)" stroke="black" stroke-width="1" onmouseover="setChange(evt)" onmouseout="unhiliteChange(evt)" onclick="changeMe(evt)" points="215.886,100.982 189.906,85.9818 163.924,100.982 163.923,130.982 189.904,145.982 215.885,130.982" seed="2"/><polygon fill="rgb(41, 171, 135)" stroke="black" stroke-width="1" onmouseover="setChange(evt)" onmouseout="unhiliteChange(evt)" onclick="changeMe(evt)" points="174.905,171.963 148.923,156.963 122.943,171.963 122.943,201.963 148.924,216.963 174.905,201.963" seed="3"/><polygon fill="rgb(41, 171, 135)" stroke="black" stroke-width="1" onmouseover="setChange(evt)" onmouseout="unhiliteChange(evt)" onclick="changeMe(evt)" points="92.943,171.962 66.962,156.962 40.981,171.962 40.981,201.963 66.962,216.962 92.942,201.962" seed="4"/><polygon fill="rgb(41, 171, 135)" stroke="black" stroke-width="1" onmouseover="setChange(evt)" onmouseout="unhiliteChange(evt)" onclick="changeMe(evt)" points="51.962,100.982 25.982,85.9808 7.62939e-006,100.981 7.62939e-006,130.981 25.98,145.981 51.962,130.982" seed="5"/><polygon fill="rgb(41, 171, 135)" stroke="black" stroke-width="1" onmouseover="setChange(evt)" onmouseout="unhiliteChange(evt)" onclick="changeMe(evt)" points="92.943,30.0007 66.961,15.0008 40.981,30.0007 40.981,60.0007 66.962,75.0007 92.943,60.0007" seed="6"/><polygon fill="rgb(224, 176, 255)" stroke="black" stroke-width="1" onmouseover="setChange(evt)" onmouseout="unhiliteChange(evt)" onclick="changeMe(evt)" points="122.943,30.0018 92.943,30.0007 92.943,60.0007 122.943,60.0007" seed="7"/><polygon fill="rgb(224, 176, 255)" stroke="black" stroke-width="1" onmouseover="setChange(evt)" onmouseout="unhiliteChange(evt)" onclick="changeMe(evt)" points="189.904,85.9818 174.905,60.0007 148.924,75.0007 163.924,100.982" seed="8"/><polygon fill="rgb(224, 176, 255)" stroke="black" stroke-width="1" onmouseover="setChange(evt)" onmouseout="unhiliteChange(evt)" onclick="changeMe(evt)" points="189.904,145.982 163.923,130.982 148.923,156.963 174.904,171.962" seed="9"/><polygon fill="rgb(224, 176, 255)" stroke="black" stroke-width="1" onmouseover="setChange(evt)" onmouseout="unhiliteChange(evt)" onclick="changeMe(evt)" points="122.942,171.963 92.943,171.962 92.942,201.962 122.942,201.963" seed="10"/><polygon fill="rgb(224, 176, 255)" stroke="black" stroke-width="1" onmouseover="setChange(evt)" onmouseout="unhiliteChange(evt)" onclick="changeMe(evt)" points="66.962,156.962 51.962,130.982 25.981,145.982 40.981,171.963" seed="11"/><polygon fill="rgb(224, 176, 255)" stroke="black" stroke-width="1" onmouseover="setChange(evt)" onmouseout="unhiliteChange(evt)" onclick="changeMe(evt)" points="66.962,75.0007 40.982,60.0007 25.981,85.9818 51.963,100.982" seed="12"/><polygon fill="rgb(224, 176, 255)" stroke="black" stroke-width="1" onmouseover="setChange(evt)" onmouseout="unhiliteChange(evt)" onclick="changeMe(evt)" points="122.944,0.00175476 92.944,0.00075531 92.943,30.0007 122.943,30.0018" seed="13"/><polygon fill="rgb(224, 176, 255)" stroke="black" stroke-width="1" onmouseover="setChange(evt)" onmouseout="unhiliteChange(evt)" onclick="changeMe(evt)" points="215.885,70.9818 200.886,45.0007 174.905,60.0007 189.904,85.9818" seed="14"/><polygon fill="rgb(224, 176, 255)" stroke="black" stroke-width="1" onmouseover="setChange(evt)" onmouseout="unhiliteChange(evt)" onclick="changeMe(evt)" points="215.885,160.982 189.904,145.982 174.904,171.962 200.885,186.963" seed="15"/><polygon fill="rgb(147, 112, 219)" stroke="black" stroke-width="1" onmouseover="setChange(evt)" onmouseout="unhiliteChange(evt)" onclick="changeMe(evt)" points="66.962,15.0008 40.981,0.00075531 40.981,30.0007" seed="16"/><polygon fill="rgb(147, 112, 219)" stroke="black" stroke-width="1" onmouseover="setChange(evt)" onmouseout="unhiliteChange(evt)" onclick="changeMe(evt)" points="174.905,30.0007 174.904,0.00075531 148.924,15.0008" seed="17"/><polygon fill="rgb(147, 112, 219)" stroke="black" stroke-width="1" onmouseover="setChange(evt)" onmouseout="unhiliteChange(evt)" onclick="changeMe(evt)" points="92.942,30.0007 92.942,-0.000244141 66.961,15.0008" seed="18"/><polygon fill="rgb(147, 112, 219)" stroke="black" stroke-width="1" onmouseover="setChange(evt)" onmouseout="unhiliteChange(evt)" onclick="changeMe(evt)" points="148.924,15.0008 122.943,0.00075531 122.943,30.0007" seed="19"/><polygon fill="rgb(147, 112, 219)" stroke="black" stroke-width="1" onmouseover="setChange(evt)" onmouseout="unhiliteChange(evt)" onclick="changeMe(evt)" points="200.885,45.0007 174.904,30.0007 174.904,60.0007" seed="20"/><polygon fill="rgb(147, 112, 219)" stroke="black" stroke-width="1" onmouseover="setChange(evt)" onmouseout="unhiliteChange(evt)" onclick="changeMe(evt)" points="215.885,100.982 215.885,70.9818 189.904,85.9818" seed="21"/><polygon fill="rgb(147, 112, 219)" stroke="black" stroke-width="1" onmouseover="setChange(evt)" onmouseout="unhiliteChange(evt)" onclick="changeMe(evt)" points="215.885,160.982 215.885,130.982 189.905,145.982" seed="22"/><polygon fill="rgb(147, 112, 219)" stroke="black" stroke-width="1" onmouseover="setChange(evt)" onmouseout="unhiliteChange(evt)" onclick="changeMe(evt)" points="200.884,186.963 174.904,171.962 174.903,201.962" seed="23"/></g>
</svg>
