<?xml version="1.0" encoding="utf-8" ?>

		<svg xmlns="http://www.w3.org/2000/svg" id="mainSVG" pointer-events="all" onkeyup="attachKey(evt)" width="138.895" height="170.229" EdgeLen="30" template="C12_9_2_R">

		<polygon id="BorderPoly" fill="none" pointer-events="none" stroke="red" stroke-width="4" transform="" points="115.602,38.2938 86.6243,30.5298 57.6463,22.7648 28.667,14.9998 2.68605,-4.57764e-005 10.451,28.9778 18.216,57.9558 25.981,86.9338 -4.57764e-005,101.934 -4.57764e-005,131.934 25.981,146.934 54.9593,154.699 83.9363,162.464 112.914,170.229 138.895,155.23 131.13,126.251 123.366,97.2728 115.602,68.2948" />
		<g id="mainPolyG" transform=""><polygon id="mainPoly" fill="rgb(252, 194, 0)" stroke="black" onmouseover="setChange(evt)" onmouseout="unhiliteChange(evt)" onclick="changeMe(evt)" points="51.9623,101.934 25.981,86.9338 -4.57764e-005,101.934 -4.57764e-005,131.934 25.981,146.934 51.9623,131.934" seed="0" /><polygon fill="rgb(91, 146, 229)" stroke="black" stroke-width="1" onmouseover="setChange(evt)" onmouseout="unhiliteChange(evt)" onclick="changeMe(evt)" transform="" points="44.1973,72.9558 18.216,57.9558 25.981,86.9338 51.9623,101.934" seed="1" /><polygon fill="rgb(91, 146, 229)" stroke="black" stroke-width="1" onmouseover="setChange(evt)" onmouseout="unhiliteChange(evt)" onclick="changeMe(evt)" transform="" points="73.1753,110.721 73.1753,80.7208 51.9623,101.934 51.9623,131.934" seed="2" /><polygon fill="rgb(91, 146, 229)" stroke="black" stroke-width="1" onmouseover="setChange(evt)" onmouseout="unhiliteChange(evt)" onclick="changeMe(evt)" transform="" points="80.9403,139.699 51.9623,131.934 25.981,146.934 54.9593,154.699" seed="3" /><polygon fill="rgb(91, 146, 229)" stroke="black" stroke-width="1" onmouseover="setChange(evt)" onmouseout="unhiliteChange(evt)" onclick="changeMe(evt)" transform="" points="36.4323,43.9778 10.451,28.9778 18.216,57.9558 44.1973,72.9558" seed="4" /><polygon fill="rgb(91, 146, 229)" stroke="black" stroke-width="1" onmouseover="setChange(evt)" onmouseout="unhiliteChange(evt)" onclick="changeMe(evt)" transform="" points="94.3883,89.5078 94.3893,59.5078 73.1753,80.7208 73.1753,110.721" seed="5" /><polygon fill="rgb(91, 146, 229)" stroke="black" stroke-width="1" onmouseover="setChange(evt)" onmouseout="unhiliteChange(evt)" onclick="changeMe(evt)" transform="" points="109.918,147.464 80.9403,139.699 54.9593,154.699 83.9363,162.464" seed="6" /><polygon fill="rgb(91, 146, 229)" stroke="black" stroke-width="1" onmouseover="setChange(evt)" onmouseout="unhiliteChange(evt)" onclick="changeMe(evt)" transform="" points="28.667,14.9998 2.68605,-4.57764e-005 10.451,28.9778 36.4323,43.9778" seed="7" /><polygon fill="rgb(91, 146, 229)" stroke="black" stroke-width="1" onmouseover="setChange(evt)" onmouseout="unhiliteChange(evt)" onclick="changeMe(evt)" transform="" points="115.602,68.2948 115.602,38.2938 94.3893,59.5078 94.3883,89.5078" seed="8" /><polygon fill="rgb(91, 146, 229)" stroke="black" stroke-width="1" onmouseover="setChange(evt)" onmouseout="unhiliteChange(evt)" onclick="changeMe(evt)" transform="" points="138.895,155.23 109.917,147.465 83.9363,162.464 112.914,170.229" seed="9" /><polygon fill="rgb(41, 171, 135)" stroke="black" stroke-width="1" onmouseover="setChange(evt)" onmouseout="unhiliteChange(evt)" onclick="changeMe(evt)" points="123.366,97.2728 94.3883,89.5078 73.1753,110.721 80.9392,139.699 109.917,147.464 131.13,126.251" seed="10" /><polygon fill="rgb(147, 112, 219)" stroke="black" stroke-width="1" onmouseover="setChange(evt)" onmouseout="unhiliteChange(evt)" onclick="changeMe(evt)" points="80.9403,139.698 73.1753,110.721 51.9623,131.934" seed="11" /><polygon fill="rgb(147, 112, 219)" stroke="black" stroke-width="1" onmouseover="setChange(evt)" onmouseout="unhiliteChange(evt)" onclick="changeMe(evt)" points="138.894,155.229 131.13,126.251 109.917,147.464" seed="12" /><polygon fill="rgb(147, 112, 219)" stroke="black" stroke-width="1" onmouseover="setChange(evt)" onmouseout="unhiliteChange(evt)" onclick="changeMe(evt)" points="123.366,97.2728 115.602,68.2948 94.3883,89.5078" seed="13" /><polygon fill="rgb(147, 112, 219)" stroke="black" stroke-width="1" onmouseover="setChange(evt)" onmouseout="unhiliteChange(evt)" onclick="changeMe(evt)" points="73.1753,80.7208 44.1973,72.9558 51.9623,101.934" seed="14" /><polygon fill="rgb(147, 112, 219)" stroke="black" stroke-width="1" onmouseover="setChange(evt)" onmouseout="unhiliteChange(evt)" onclick="changeMe(evt)" points="65.4103,51.7428 36.4323,43.9788 44.1973,72.9558" seed="15" /><polygon fill="rgb(147, 112, 219)" stroke="black" stroke-width="1" onmouseover="setChange(evt)" onmouseout="unhiliteChange(evt)" onclick="changeMe(evt)" points="94.3893,59.5078 65.4112,51.7428 73.1753,80.7208" seed="16" /><polygon fill="rgb(147, 112, 219)" stroke="black" stroke-width="1" onmouseover="setChange(evt)" onmouseout="unhiliteChange(evt)" onclick="changeMe(evt)" points="73.1753,80.7208 65.4112,51.7428 44.1973,72.9558" seed="17" /><polygon fill="rgb(147, 112, 219)" stroke="black" stroke-width="1" onmouseover="setChange(evt)" onmouseout="unhiliteChange(evt)" onclick="changeMe(evt)" points="115.602,38.2938 86.6243,30.5298 94.3893,59.5078" seed="18" /><polygon fill="rgb(147, 112, 219)" stroke="black" stroke-width="1" onmouseover="setChange(evt)" onmouseout="unhiliteChange(evt)" onclick="changeMe(evt)" points="94.3883,59.5078 86.6243,30.5298 65.4112,51.7428" seed="19" /><polygon fill="rgb(147, 112, 219)" stroke="black" stroke-width="1" onmouseover="setChange(evt)" onmouseout="unhiliteChange(evt)" onclick="changeMe(evt)" points="86.6243,30.5298 57.6463,22.7648 65.4112,51.7428" seed="20" /><polygon fill="rgb(147, 112, 219)" stroke="black" stroke-width="1" onmouseover="setChange(evt)" onmouseout="unhiliteChange(evt)" onclick="changeMe(evt)" points="65.4092,51.7428 57.6453,22.7648 36.4323,43.9788" seed="21" /><polygon fill="rgb(147, 112, 219)" stroke="black" stroke-width="1" onmouseover="setChange(evt)" onmouseout="unhiliteChange(evt)" onclick="changeMe(evt)" points="57.6453,22.7638 28.667,14.9998 36.4323,43.9778" seed="22" /></g>


		</svg>
