<?xml version="1.0" encoding="utf-8"?>
<svg xmlns="http://www.w3.org/2000/svg" id="mainSVG" pointer-events="all" width="223.927" height="305.884" EdgeLen="30" template="ark3_7_tu" code="C12_6_1_2" copyright="Francis Hemsher, 2012">
	<polygon id="BorderPoly" fill="none" pointer-events="none" stroke="red" stroke-width="4" transform="" points="182.948,0.00100708 152.947,1.52588e-005 126.966,14.999 111.965,40.979 111.964,70.98 96.9636,96.961 70.9826,111.96 40.9826,111.96 55.9816,137.941 55.9806,167.942 40.9806,193.922 15.0006,208.922 0.000564575,234.903 -0.000434875,264.903 14.9996,290.884 40.9806,305.884 70.9806,305.884 96.9616,290.884 111.962,264.903 111.962,234.903 126.962,208.922 152.942,193.923 182.941,193.925 167.942,167.943 167.944,137.943 182.944,111.962 208.925,96.963 223.926,70.983 223.927,40.983 208.928,15.002"/>
	<g id="mainPolyG" transform=""><polygon id="mainPoly" fill="rgb(252, 194, 0)" stroke="black" onmouseover="setChange(evt)" onmouseout="unhiliteChange(evt)" onclick="changeMe(evt)" points="70.9806,193.923 40.9806,193.922 15.0006,208.922 0.000564575,234.903 -0.000434875,264.903 14.9996,290.884 40.9806,305.884 70.9806,305.884 96.9616,290.884 111.962,264.903 111.962,234.903 96.9616,208.923" seed="0"/><polygon fill="rgb(224, 176, 255)" stroke="black" stroke-width="1" onmouseover="setChange(evt)" onmouseout="unhiliteChange(evt)" onclick="changeMe(evt)" points="111.962,182.942 85.9806,167.941 70.9816,193.923 96.9616,208.923" seed="1"/><polygon fill="rgb(147, 112, 219)" stroke="black" stroke-width="1" onmouseover="setChange(evt)" onmouseout="unhiliteChange(evt)" onclick="changeMe(evt)" points="70.9806,193.923 55.9816,167.941 40.9806,193.922" seed="2"/><polygon fill="rgb(147, 112, 219)" stroke="black" stroke-width="1" onmouseover="setChange(evt)" onmouseout="unhiliteChange(evt)" onclick="changeMe(evt)" points="111.962,234.903 126.962,208.922 96.9616,208.923" seed="3"/><polygon fill="rgb(147, 112, 219)" stroke="black" stroke-width="1" onmouseover="setChange(evt)" onmouseout="unhiliteChange(evt)" onclick="changeMe(evt)" points="70.9816,193.923 85.9806,167.942 55.9806,167.942" seed="4"/><polygon fill="rgb(147, 112, 219)" stroke="black" stroke-width="1" onmouseover="setChange(evt)" onmouseout="unhiliteChange(evt)" onclick="changeMe(evt)" points="126.962,208.923 111.962,182.942 96.9616,208.923" seed="5"/><polygon fill="rgb(41, 171, 135)" stroke="black" stroke-width="1" onmouseover="setChange(evt)" onmouseout="unhiliteChange(evt)" onclick="changeMe(evt)" points="137.944,137.942 111.963,122.941 85.9816,137.941 85.9806,167.941 111.962,182.942 137.943,167.942" seed="6"/><polygon fill="rgb(224, 176, 255)" stroke="black" stroke-width="1" onmouseover="setChange(evt)" onmouseout="unhiliteChange(evt)" onclick="changeMe(evt)" points="85.9816,137.941 55.9816,137.941 55.9806,167.941 85.9806,167.941" seed="7"/><polygon fill="rgb(224, 176, 255)" stroke="black" stroke-width="1" onmouseover="setChange(evt)" onmouseout="unhiliteChange(evt)" onclick="changeMe(evt)" points="111.963,122.941 96.9636,96.961 70.9826,111.96 85.9826,137.941" seed="8"/><polygon fill="rgb(224, 176, 255)" stroke="black" stroke-width="1" onmouseover="setChange(evt)" onmouseout="unhiliteChange(evt)" onclick="changeMe(evt)" points="152.944,111.962 126.964,96.961 111.964,122.942 137.944,137.942" seed="9"/><polygon fill="rgb(224, 176, 255)" stroke="black" stroke-width="1" onmouseover="setChange(evt)" onmouseout="unhiliteChange(evt)" onclick="changeMe(evt)" points="167.944,137.943 137.944,137.943 137.943,167.942 167.942,167.943" seed="10"/><polygon fill="rgb(224, 176, 255)" stroke="black" stroke-width="1" onmouseover="setChange(evt)" onmouseout="unhiliteChange(evt)" onclick="changeMe(evt)" points="152.942,193.923 137.943,167.942 111.962,182.942 126.961,208.923" seed="11"/><polygon fill="rgb(147, 112, 219)" stroke="black" stroke-width="1" onmouseover="setChange(evt)" onmouseout="unhiliteChange(evt)" onclick="changeMe(evt)" points="85.9816,137.941 70.9826,111.96 55.9816,137.941" seed="12"/><polygon fill="rgb(147, 112, 219)" stroke="black" stroke-width="1" onmouseover="setChange(evt)" onmouseout="unhiliteChange(evt)" onclick="changeMe(evt)" points="126.964,96.961 96.9636,96.961 111.963,122.942" seed="13"/><polygon fill="rgb(147, 112, 219)" stroke="black" stroke-width="1" onmouseover="setChange(evt)" onmouseout="unhiliteChange(evt)" onclick="changeMe(evt)" points="167.944,137.942 152.944,111.962 137.943,137.942" seed="14"/><polygon fill="rgb(147, 112, 219)" stroke="black" stroke-width="1" onmouseover="setChange(evt)" onmouseout="unhiliteChange(evt)" onclick="changeMe(evt)" points="167.942,167.943 137.942,167.942 152.941,193.924" seed="15"/><polygon fill="rgb(147, 112, 219)" stroke="black" stroke-width="1" onmouseover="setChange(evt)" onmouseout="unhiliteChange(evt)" onclick="changeMe(evt)" points="70.9826,111.96 40.9826,111.96 55.9816,137.941" seed="16"/><polygon fill="rgb(147, 112, 219)" stroke="black" stroke-width="1" onmouseover="setChange(evt)" onmouseout="unhiliteChange(evt)" onclick="changeMe(evt)" points="182.941,193.925 167.942,167.943 152.941,193.924" seed="17"/><polygon fill="rgb(147, 112, 219)" stroke="black" stroke-width="1" onmouseover="setChange(evt)" onmouseout="unhiliteChange(evt)" onclick="changeMe(evt)" points="126.964,96.961 111.964,70.98 96.9636,96.961" seed="18"/><polygon fill="rgb(147, 112, 219)" stroke="black" stroke-width="1" onmouseover="setChange(evt)" onmouseout="unhiliteChange(evt)" onclick="changeMe(evt)" points="182.944,111.962 152.944,111.962 167.944,137.942" seed="19"/><polygon fill="rgb(64, 130, 109)" stroke="black" stroke-width="1" onmouseover="setChange(evt)" onmouseout="unhiliteChange(evt)" onclick="changeMe(evt)" points="182.948,0.00100708 152.947,1.52588e-005 126.966,14.999 111.965,40.979 111.965,70.98 126.964,96.961 152.944,111.962 182.945,111.963 208.925,96.963 223.926,70.983 223.927,40.983 208.928,15.002" seed="20"/></g>
</svg>
