<?xml version="1.0" encoding="utf-8"?>
<svg xmlns="http://www.w3.org/2000/svg" id="mainSVG" pointer-events="all" width="225.002" height="233.828" EdgeLen="30" template="u6_26_tu" code="C18_0_13_0" copyright="Francis Hemsher, 2012">
	<polygon id="BorderPoly" fill="none" pointer-events="none" stroke="red" stroke-width="4" transform="" points="180.001,-0.000244141 150.001,-0.000244141 120.001,0.00075531 90.0013,0.00075531 75.0013,25.9818 45.0003,25.9818 30.0013,51.9628 15.0013,77.9427 0.00025177,103.924 14.9993,129.905 0.00025177,155.886 15.0003,181.867 30.0003,207.848 45.0003,233.829 75.0003,233.829 90.0013,207.848 120.001,207.848 150.002,207.848 180.001,207.848 195.002,181.867 210.001,155.886 225.001,129.906 210.002,103.925 195.001,77.9438 180.001,51.9618 195.001,25.9808"/>
	<g id="mainPolyG" transform=""><polygon id="mainPoly" fill="rgb(252, 194, 0)" stroke="black" onmouseover="setChange(evt)" onmouseout="unhiliteChange(evt)" onclick="changeMe(evt)" points="150.001,103.924 120.001,103.924 105.001,129.905 120.001,155.886 150.001,155.886 165.001,129.905" seed="0"/><polygon fill="rgb(41, 171, 135)" stroke="black" stroke-width="1" onmouseover="setChange(evt)" onmouseout="unhiliteChange(evt)" onclick="changeMe(evt)" points="105.001,77.9438 75.0013,77.9438 60.0013,103.924 75.0013,129.905 105.001,129.905 120.001,103.924" seed="1"/><polygon fill="rgb(41, 171, 135)" stroke="black" stroke-width="1" onmouseover="setChange(evt)" onmouseout="unhiliteChange(evt)" onclick="changeMe(evt)" points="150.001,51.9618 120.001,51.9618 105.001,77.9427 120.001,103.924 150.001,103.924 165.001,77.9427" seed="2"/><polygon fill="rgb(41, 171, 135)" stroke="black" stroke-width="1" onmouseover="setChange(evt)" onmouseout="unhiliteChange(evt)" onclick="changeMe(evt)" points="195.002,77.9438 165.001,77.9438 150.001,103.924 165.001,129.905 195.002,129.905 210.002,103.925" seed="3"/><polygon fill="rgb(41, 171, 135)" stroke="black" stroke-width="1" onmouseover="setChange(evt)" onmouseout="unhiliteChange(evt)" onclick="changeMe(evt)" points="195.001,129.906 165.001,129.905 150.001,155.886 165.001,181.867 195.002,181.867 210.001,155.886" seed="4"/><polygon fill="rgb(41, 171, 135)" stroke="black" stroke-width="1" onmouseover="setChange(evt)" onmouseout="unhiliteChange(evt)" onclick="changeMe(evt)" points="150.001,155.886 120.001,155.886 105.001,181.867 120.001,207.848 150.001,207.848 165.001,181.867" seed="5"/><polygon fill="rgb(41, 171, 135)" stroke="black" stroke-width="1" onmouseover="setChange(evt)" onmouseout="unhiliteChange(evt)" onclick="changeMe(evt)" points="105.001,129.905 75.0013,129.905 60.0013,155.886 75.0013,181.867 105.001,181.867 120.001,155.886" seed="6"/><polygon fill="rgb(147, 112, 219)" stroke="black" stroke-width="1" onmouseover="setChange(evt)" onmouseout="unhiliteChange(evt)" onclick="changeMe(evt)" points="105.001,77.9438 90.0013,51.9628 75.0013,77.9438" seed="7"/><polygon fill="rgb(147, 112, 219)" stroke="black" stroke-width="1" onmouseover="setChange(evt)" onmouseout="unhiliteChange(evt)" onclick="changeMe(evt)" points="120.001,51.9628 90.0013,51.9628 105.001,77.9427" seed="8"/><polygon fill="rgb(147, 112, 219)" stroke="black" stroke-width="1" onmouseover="setChange(evt)" onmouseout="unhiliteChange(evt)" onclick="changeMe(evt)" points="180.001,51.9618 150.001,51.9618 165.001,77.9427" seed="9"/><polygon fill="rgb(147, 112, 219)" stroke="black" stroke-width="1" onmouseover="setChange(evt)" onmouseout="unhiliteChange(evt)" onclick="changeMe(evt)" points="195.001,77.9438 180.001,51.9628 165.001,77.9438" seed="10"/><polygon fill="rgb(147, 112, 219)" stroke="black" stroke-width="1" onmouseover="setChange(evt)" onmouseout="unhiliteChange(evt)" onclick="changeMe(evt)" points="225.002,129.906 210.002,103.925 195.001,129.905" seed="11"/><polygon fill="rgb(147, 112, 219)" stroke="black" stroke-width="1" onmouseover="setChange(evt)" onmouseout="unhiliteChange(evt)" onclick="changeMe(evt)" points="225.001,129.906 195.001,129.906 210.001,155.886" seed="12"/><polygon fill="rgb(147, 112, 219)" stroke="black" stroke-width="1" onmouseover="setChange(evt)" onmouseout="unhiliteChange(evt)" onclick="changeMe(evt)" points="195.002,181.867 165.002,181.867 180.002,207.848" seed="13"/><polygon fill="rgb(147, 112, 219)" stroke="black" stroke-width="1" onmouseover="setChange(evt)" onmouseout="unhiliteChange(evt)" onclick="changeMe(evt)" points="180.001,207.848 165.001,181.867 150.002,207.848" seed="14"/><polygon fill="rgb(147, 112, 219)" stroke="black" stroke-width="1" onmouseover="setChange(evt)" onmouseout="unhiliteChange(evt)" onclick="changeMe(evt)" points="105.001,181.867 75.0013,181.867 90.0013,207.848" seed="15"/><polygon fill="rgb(147, 112, 219)" stroke="black" stroke-width="1" onmouseover="setChange(evt)" onmouseout="unhiliteChange(evt)" onclick="changeMe(evt)" points="120.001,207.848 105.001,181.868 90.0013,207.848" seed="16"/><polygon fill="rgb(147, 112, 219)" stroke="black" stroke-width="1" onmouseover="setChange(evt)" onmouseout="unhiliteChange(evt)" onclick="changeMe(evt)" points="75.0013,129.905 45.0013,129.905 60.0013,155.886" seed="17"/><polygon fill="rgb(147, 112, 219)" stroke="black" stroke-width="1" onmouseover="setChange(evt)" onmouseout="unhiliteChange(evt)" onclick="changeMe(evt)" points="75.0013,129.905 60.0013,103.924 45.0013,129.905" seed="18"/><polygon fill="rgb(147, 112, 219)" stroke="black" stroke-width="1" onmouseover="setChange(evt)" onmouseout="unhiliteChange(evt)" onclick="changeMe(evt)" points="150.001,51.9618 135.001,25.9808 120.001,51.9618" seed="19"/><polygon fill="rgb(41, 171, 135)" stroke="black" stroke-width="1" onmouseover="setChange(evt)" onmouseout="unhiliteChange(evt)" onclick="changeMe(evt)" points="120.001,0.00075531 90.0013,0.00075531 75.0013,25.9818 90.0013,51.9628 120.001,51.9628 135.001,25.9818" seed="20"/><polygon fill="rgb(41, 171, 135)" stroke="black" stroke-width="1" onmouseover="setChange(evt)" onmouseout="unhiliteChange(evt)" onclick="changeMe(evt)" points="180.001,-0.000244141 150.001,-0.000244141 135.001,25.9808 150.001,51.9618 180.001,51.9618 195.001,25.9808" seed="21"/><polygon fill="rgb(41, 171, 135)" stroke="black" stroke-width="1" onmouseover="setChange(evt)" onmouseout="unhiliteChange(evt)" onclick="changeMe(evt)" points="75.0013,25.9818 45.0003,25.9818 30.0013,51.9628 45.0013,77.9427 75.0013,77.9438 90.0013,51.9628" seed="22"/><polygon fill="rgb(147, 112, 219)" stroke="black" stroke-width="1" onmouseover="setChange(evt)" onmouseout="unhiliteChange(evt)" onclick="changeMe(evt)" points="75.0013,77.9438 45.0013,77.9427 60.0003,103.924" seed="23"/><polygon fill="rgb(147, 112, 219)" stroke="black" stroke-width="1" onmouseover="setChange(evt)" onmouseout="unhiliteChange(evt)" onclick="changeMe(evt)" points="45.0013,77.9427 30.0013,51.9618 15.0013,77.9427" seed="24"/><polygon fill="rgb(41, 171, 135)" stroke="black" stroke-width="1" onmouseover="setChange(evt)" onmouseout="unhiliteChange(evt)" onclick="changeMe(evt)" points="45.0013,77.9427 15.0013,77.9427 0.00025177,103.924 14.9993,129.905 45.0003,129.905 60.0003,103.924" seed="25"/><polygon fill="rgb(41, 171, 135)" stroke="black" stroke-width="1" onmouseover="setChange(evt)" onmouseout="unhiliteChange(evt)" onclick="changeMe(evt)" points="45.0003,129.905 15.0003,129.905 0.00025177,155.886 15.0003,181.867 45.0003,181.867 60.0003,155.886" seed="26"/><polygon fill="rgb(147, 112, 219)" stroke="black" stroke-width="1" onmouseover="setChange(evt)" onmouseout="unhiliteChange(evt)" onclick="changeMe(evt)" points="75.0003,181.867 60.0003,155.886 45.0003,181.867" seed="27"/><polygon fill="rgb(41, 171, 135)" stroke="black" stroke-width="1" onmouseover="setChange(evt)" onmouseout="unhiliteChange(evt)" onclick="changeMe(evt)" points="75.0003,181.867 45.0003,181.867 30.0003,207.848 45.0003,233.829 75.0003,233.829 90.0003,207.848" seed="28"/><polygon fill="rgb(147, 112, 219)" stroke="black" stroke-width="1" onmouseover="setChange(evt)" onmouseout="unhiliteChange(evt)" onclick="changeMe(evt)" points="45.0003,181.867 15.0003,181.867 30.0003,207.848" seed="29"/><polygon fill="rgb(147, 112, 219)" stroke="black" stroke-width="1" onmouseover="setChange(evt)" onmouseout="unhiliteChange(evt)" onclick="changeMe(evt)" points="150.001,0.00075531 120.001,0.00075531 135.001,25.9818" seed="30"/></g>
</svg>
