<?xml version="1.0" encoding="utf-8"?>
<svg xmlns="http://www.w3.org/2000/svg" id="mainSVG" pointer-events="all" width="223.923" height="208.924" EdgeLen="30" template="ark4_13_tu" code="C18_6_0_2" copyright="Francis Hemsher, 2012">
	<polygon id="BorderPoly" fill="none" pointer-events="none" stroke="red" stroke-width="4" transform="" points="182.944,15.0021 152.944,15.0011 126.963,9.91821e-005 96.9632,9.91821e-005 70.9822,14.9991 40.9822,14.9991 55.9812,40.9801 55.9812,70.9801 40.9812,96.9611 15.0002,111.961 0.000244141,137.942 0.000244141,167.942 15.0002,193.922 40.9812,208.922 70.9812,208.923 96.9613,193.923 126.961,193.922 152.941,208.923 182.942,208.924 208.922,193.924 223.923,167.943 223.923,137.943 208.924,111.962 182.943,96.9621 167.942,70.9821 167.943,40.9821"/>
	<g id="mainPolyG" transform=""><polygon id="mainPoly" fill="rgb(252, 194, 0)" stroke="black" onmouseover="setChange(evt)" onmouseout="unhiliteChange(evt)" onclick="changeMe(evt)" points="70.9812,96.9611 40.9812,96.9611 15.0002,111.961 0.000244141,137.942 0.000244141,167.942 15.0002,193.922 40.9812,208.922 70.9812,208.923 96.9613,193.923 111.961,167.942 111.962,137.942 96.9622,111.961" seed="0"/><polygon fill="rgb(0, 128, 128)" stroke="black" stroke-width="1" onmouseover="setChange(evt)" onmouseout="unhiliteChange(evt)" onclick="changeMe(evt)" points="182.943,96.9621 152.943,96.9611 126.962,111.961 111.962,137.942 111.961,167.942 126.961,193.922 152.941,208.923 182.942,208.924 208.922,193.924 223.923,167.943 223.923,137.943 208.924,111.962" seed="1"/><polygon fill="rgb(224, 176, 255)" stroke="black" stroke-width="1" onmouseover="setChange(evt)" onmouseout="unhiliteChange(evt)" onclick="changeMe(evt)" points="111.961,85.9811 85.9812,70.9801 70.9812,96.9621 96.9622,111.961" seed="2"/><polygon fill="rgb(224, 176, 255)" stroke="black" stroke-width="1" onmouseover="setChange(evt)" onmouseout="unhiliteChange(evt)" onclick="changeMe(evt)" points="152.943,96.9611 137.944,70.9801 111.963,85.9801 126.962,111.961" seed="3"/><polygon fill="rgb(147, 112, 219)" stroke="black" stroke-width="1" onmouseover="setChange(evt)" onmouseout="unhiliteChange(evt)" onclick="changeMe(evt)" points="111.961,85.9811 111.962,55.9811 85.9812,70.9801" seed="4"/><polygon fill="rgb(147, 112, 219)" stroke="black" stroke-width="1" onmouseover="setChange(evt)" onmouseout="unhiliteChange(evt)" onclick="changeMe(evt)" points="111.962,55.9811 85.9812,40.9801 85.9812,70.9801" seed="5"/><polygon fill="rgb(147, 112, 219)" stroke="black" stroke-width="1" onmouseover="setChange(evt)" onmouseout="unhiliteChange(evt)" onclick="changeMe(evt)" points="111.962,55.9811 111.963,25.9811 85.9812,40.9801" seed="6"/><polygon fill="rgb(147, 112, 219)" stroke="black" stroke-width="1" onmouseover="setChange(evt)" onmouseout="unhiliteChange(evt)" onclick="changeMe(evt)" points="137.943,40.9811 111.963,25.9811 111.962,55.9811" seed="7"/><polygon fill="rgb(147, 112, 219)" stroke="black" stroke-width="1" onmouseover="setChange(evt)" onmouseout="unhiliteChange(evt)" onclick="changeMe(evt)" points="137.943,70.9811 137.943,40.9811 111.962,55.9801" seed="8"/><polygon fill="rgb(147, 112, 219)" stroke="black" stroke-width="1" onmouseover="setChange(evt)" onmouseout="unhiliteChange(evt)" onclick="changeMe(evt)" points="137.942,70.9811 111.962,55.9801 111.961,85.9811" seed="9"/><polygon fill="rgb(147, 112, 219)" stroke="black" stroke-width="1" onmouseover="setChange(evt)" onmouseout="unhiliteChange(evt)" onclick="changeMe(evt)" points="126.962,111.961 111.961,85.9811 96.9622,111.961" seed="10"/><polygon fill="rgb(147, 112, 219)" stroke="black" stroke-width="1" onmouseover="setChange(evt)" onmouseout="unhiliteChange(evt)" onclick="changeMe(evt)" points="126.962,111.961 96.9622,111.961 111.962,137.942" seed="11"/><polygon fill="rgb(147, 112, 219)" stroke="black" stroke-width="1" onmouseover="setChange(evt)" onmouseout="unhiliteChange(evt)" onclick="changeMe(evt)" points="126.961,193.923 111.961,167.942 96.9613,193.923" seed="12"/><polygon fill="rgb(224, 176, 255)" stroke="black" stroke-width="1" onmouseover="setChange(evt)" onmouseout="unhiliteChange(evt)" onclick="changeMe(evt)" points="85.9812,40.9811 55.9812,40.9801 55.9812,70.9801 85.9812,70.9801" seed="13"/><polygon fill="rgb(224, 176, 255)" stroke="black" stroke-width="1" onmouseover="setChange(evt)" onmouseout="unhiliteChange(evt)" onclick="changeMe(evt)" points="111.963,25.9811 96.9632,9.91821e-005 70.9822,14.9991 85.9822,40.9801" seed="14"/><polygon fill="rgb(224, 176, 255)" stroke="black" stroke-width="1" onmouseover="setChange(evt)" onmouseout="unhiliteChange(evt)" onclick="changeMe(evt)" points="152.944,15.0011 126.963,9.91821e-005 111.963,25.9811 137.943,40.9811" seed="15"/><polygon fill="rgb(224, 176, 255)" stroke="black" stroke-width="1" onmouseover="setChange(evt)" onmouseout="unhiliteChange(evt)" onclick="changeMe(evt)" points="167.943,40.9821 137.943,40.9821 137.943,70.9811 167.942,70.9821" seed="16"/><polygon fill="rgb(147, 112, 219)" stroke="black" stroke-width="1" onmouseover="setChange(evt)" onmouseout="unhiliteChange(evt)" onclick="changeMe(evt)" points="85.9822,40.9801 70.9822,14.9991 55.9822,40.9801" seed="17"/><polygon fill="rgb(147, 112, 219)" stroke="black" stroke-width="1" onmouseover="setChange(evt)" onmouseout="unhiliteChange(evt)" onclick="changeMe(evt)" points="126.963,9.91821e-005 96.9632,9.91821e-005 111.963,25.9801" seed="18"/><polygon fill="rgb(147, 112, 219)" stroke="black" stroke-width="1" onmouseover="setChange(evt)" onmouseout="unhiliteChange(evt)" onclick="changeMe(evt)" points="167.943,40.9821 152.944,15.0011 137.943,40.9811" seed="19"/><polygon fill="rgb(147, 112, 219)" stroke="black" stroke-width="1" onmouseover="setChange(evt)" onmouseout="unhiliteChange(evt)" onclick="changeMe(evt)" points="167.942,70.9821 137.942,70.9811 152.942,96.9621" seed="20"/><polygon fill="rgb(147, 112, 219)" stroke="black" stroke-width="1" onmouseover="setChange(evt)" onmouseout="unhiliteChange(evt)" onclick="changeMe(evt)" points="85.9812,70.9801 55.9812,70.9801 70.9812,96.9611" seed="21"/><polygon fill="rgb(147, 112, 219)" stroke="black" stroke-width="1" onmouseover="setChange(evt)" onmouseout="unhiliteChange(evt)" onclick="changeMe(evt)" points="70.9822,14.9991 40.9822,14.9991 55.9822,40.9801" seed="22"/><polygon fill="rgb(147, 112, 219)" stroke="black" stroke-width="1" onmouseover="setChange(evt)" onmouseout="unhiliteChange(evt)" onclick="changeMe(evt)" points="182.944,15.0021 152.944,15.0011 167.943,40.9821" seed="23"/><polygon fill="rgb(147, 112, 219)" stroke="black" stroke-width="1" onmouseover="setChange(evt)" onmouseout="unhiliteChange(evt)" onclick="changeMe(evt)" points="70.9812,96.9611 55.9822,70.9801 40.9812,96.9611" seed="24"/><polygon fill="rgb(147, 112, 219)" stroke="black" stroke-width="1" onmouseover="setChange(evt)" onmouseout="unhiliteChange(evt)" onclick="changeMe(evt)" points="182.943,96.9621 167.943,70.9811 152.943,96.9611" seed="25"/></g>
</svg>
