<?xml version="1.0" encoding="utf-8"?>
<svg xmlns="http://www.w3.org/2000/svg" id="mainSVG" pointer-events="all" width="100.981" height="92.943" EdgeLen="30" template="u3_28_tu" code="C2_2_1_0" copyright="Francis Hemsher, 2012">
	<polygon id="BorderPoly" fill="none" pointer-events="none" stroke="red" stroke-width="4" transform="" points="45.0005,15.0005 15,15 7.62939e-006,40.981 15,66.9625 30,92.9435 45,66.9625 74.9995,66.9625 100.98,51.962 85.9805,25.9815 70.9805,-3.8147e-006"/>
	<g id="mainPolyG" transform=""><polygon id="mainPoly" fill="rgb(252, 194, 0)" stroke="black" onmouseover="setChange(evt)" onmouseout="unhiliteChange(evt)" onclick="changeMe(evt)" points="45,15 15,15 7.62939e-006,40.981 15,66.9625 45,66.9625 59.9995,40.981" seed="0"/><polygon fill="rgb(41, 171, 135)" stroke="black" stroke-width="1" onmouseover="setChange(evt)" onmouseout="unhiliteChange(evt)" onclick="changeMe(evt)" points="85.9805,25.9815 70.9805,-3.8147e-006 45.0005,15.0005 59.9995,40.981" seed="1"/><polygon fill="rgb(224, 176, 255)" stroke="black" stroke-width="1" onmouseover="setChange(evt)" onmouseout="unhiliteChange(evt)" onclick="changeMe(evt)" points="74.9995,66.9625 59.9995,40.9815 45,66.9625" seed="2"/><polygon fill="rgb(224, 176, 255)" stroke="black" stroke-width="1" onmouseover="setChange(evt)" onmouseout="unhiliteChange(evt)" onclick="changeMe(evt)" points="45,66.9625 15,66.9625 30,92.9435" seed="3"/><polygon fill="rgb(41, 171, 135)" stroke="black" stroke-width="1" onmouseover="setChange(evt)" onmouseout="unhiliteChange(evt)" onclick="changeMe(evt)" points="100.98,51.962 85.9805,25.9815 59.9995,40.9815 74.9995,66.9625" seed="4"/></g>
</svg>
