<?xml version="1.0" encoding="utf-8"?>
<svg xmlns="http://www.w3.org/2000/svg" id="mainSVG" pointer-events="all" width="120" height="103.924" EdgeLen="30" template="ark3_3_tu" code="C4_0_2_0" copyright="Francis Hemsher, 2012">
	<polygon id="BorderPoly" fill="none" pointer-events="none" stroke="red" stroke-width="4" transform="" points="105,0.000450134 75.001,4.95911e-005 60,25.981 45,51.9612 15,51.9612 0,77.9423 15,103.923 45,103.923 60,77.9423 90.001,77.9423 105.001,51.9623 120,25.9815"/>
	<g id="mainPolyG" transform=""><polygon id="mainPoly" fill="rgb(252, 194, 0)" stroke="black" onmouseover="setChange(evt)" onmouseout="unhiliteChange(evt)" onclick="changeMe(evt)" points="45,51.9612 15,51.9612 0,77.9423 15,103.923 45,103.923 60,77.9423" seed="0"/><polygon fill="rgb(41, 171, 135)" stroke="black" stroke-width="1" onmouseover="setChange(evt)" onmouseout="unhiliteChange(evt)" onclick="changeMe(evt)" points="90.001,25.981 60,25.981 45,51.9612 60,77.9423 90.001,77.9423 105.001,51.9623" seed="1"/><polygon fill="rgb(147, 112, 219)" stroke="black" stroke-width="1" onmouseover="setChange(evt)" onmouseout="unhiliteChange(evt)" onclick="changeMe(evt)" points="90,25.981 75,4.95911e-005 60,25.981" seed="2"/><polygon fill="rgb(147, 112, 219)" stroke="black" stroke-width="1" onmouseover="setChange(evt)" onmouseout="unhiliteChange(evt)" onclick="changeMe(evt)" points="120.001,25.981 90.001,25.981 105.001,51.9623" seed="3"/><polygon fill="rgb(147, 112, 219)" stroke="black" stroke-width="1" onmouseover="setChange(evt)" onmouseout="unhiliteChange(evt)" onclick="changeMe(evt)" points="105,0.000450134 75.001,4.95911e-005 90,25.981" seed="4"/><polygon fill="rgb(147, 112, 219)" stroke="black" stroke-width="1" onmouseover="setChange(evt)" onmouseout="unhiliteChange(evt)" onclick="changeMe(evt)" points="120,25.9815 105,0.000450134 90,25.981" seed="5"/></g>
</svg>
