<?xml version="1.0" encoding="utf-8"?>
<svg xmlns="http://www.w3.org/2000/svg" id="mainSVG" pointer-events="all" width="145.981" height="118.923" EdgeLen="30" template="u3_31_tu" code="C4_2_2_0" copyright="Francis Hemsher, 2012">
	<polygon id="BorderPoly" fill="none" pointer-events="none" stroke="red" stroke-width="4" transform="" points="59.9995,14.9995 44.9995,40.9798 15,40.9798 7.62939e-006,66.9607 15,92.9417 29.9995,118.923 44.9995,92.9417 74.9995,92.9417 89.9995,66.9607 120.001,66.9617 145.98,51.9617 130.982,25.9805 115.982,4.95911e-005 90.0005,14.9995"/>
	<g id="mainPolyG" transform=""><polygon id="mainPoly" fill="rgb(252, 194, 0)" stroke="black" onmouseover="setChange(evt)" onmouseout="unhiliteChange(evt)" onclick="changeMe(evt)" points="44.9995,40.9798 15,40.9798 7.62939e-006,66.9607 15,92.9417 44.9995,92.9417 59.9995,66.9607" seed="0"/><polygon fill="rgb(41, 171, 135)" stroke="black" stroke-width="1" onmouseover="setChange(evt)" onmouseout="unhiliteChange(evt)" onclick="changeMe(evt)" points="90.0005,14.9995 59.9995,14.9995 44.9995,40.9798 59.9995,66.9607 89.9995,66.9617 105.001,40.9808" seed="1"/><polygon fill="rgb(147, 112, 219)" stroke="black" stroke-width="1" onmouseover="setChange(evt)" onmouseout="unhiliteChange(evt)" onclick="changeMe(evt)" points="44.9995,92.9417 15,92.9417 29.9995,118.923" seed="2"/><polygon fill="rgb(147, 112, 219)" stroke="black" stroke-width="1" onmouseover="setChange(evt)" onmouseout="unhiliteChange(evt)" onclick="changeMe(evt)" points="74.9995,92.9417 59.9995,66.9607 44.9995,92.9417" seed="3"/><polygon fill="rgb(147, 112, 219)" stroke="black" stroke-width="1" onmouseover="setChange(evt)" onmouseout="unhiliteChange(evt)" onclick="changeMe(evt)" points="89.9995,66.9617 59.9995,66.9607 74.9995,92.9417" seed="4"/><polygon fill="rgb(147, 112, 219)" stroke="black" stroke-width="1" onmouseover="setChange(evt)" onmouseout="unhiliteChange(evt)" onclick="changeMe(evt)" points="120.001,66.9617 105.001,40.9808 89.9995,66.9607" seed="5"/><polygon fill="rgb(224, 176, 255)" stroke="black" stroke-width="1" onmouseover="setChange(evt)" onmouseout="unhiliteChange(evt)" onclick="changeMe(evt)" points="145.98,51.9617 130.982,25.9805 105.001,40.9808 120.001,66.9617" seed="6"/><polygon fill="rgb(224, 176, 255)" stroke="black" stroke-width="1" onmouseover="setChange(evt)" onmouseout="unhiliteChange(evt)" onclick="changeMe(evt)" points="130.982,25.9805 115.982,4.95911e-005 90.0005,14.9995 105,40.9808" seed="7"/></g>
</svg>
