<?xml version="1.0" encoding="utf-8"?>
<svg xmlns="http://www.w3.org/2000/svg" id="mainSVG" pointer-events="all" width="306.961" height="278.829" EdgeLen="30" template="ark6_9_tu" code="C56_15_6_1" copyright="Francis Hemsher, 2012">
	<polygon id="BorderPoly" fill="none" pointer-events="none" stroke="red" stroke-width="4" transform="" points="160.98,0.000991821 145.981,25.982 130.981,51.961 100.981,51.961 85.98,25.98 60,40.98 30,40.981 0,40.9811 15,66.962 30,92.943 45,118.922 30.001,144.902 30,174.902 45,200.883 30.001,226.866 60.001,226.865 75,252.845 100.98,267.845 130.98,267.845 160.98,267.846 190.98,267.846 216.961,252.846 231.958,278.828 261.958,278.829 276.959,252.848 291.959,226.867 306.96,200.886 291.96,174.905 291.961,144.905 306.961,118.924 291.961,92.943 276.962,66.962 261.962,40.981 231.962,40.981 205.981,25.981 190.98,0"/><g id="mainPolyG" transform=""><polygon id="mainPoly" fill="rgb(252, 194, 0)" stroke="black" onmouseover="setChange(evt)" onmouseout="unhiliteChange(evt)" onclick="changeMe(evt)" points="160.981,103.923 130.981,103.922 105,118.922 89.9997,144.903 89.9997,174.903 105,200.884 130.981,215.884 160.981,215.884 186.961,200.884 201.961,174.903 201.962,144.903 186.962,118.923" seed="0"/><polygon fill="rgb(147, 112, 219)" stroke="black" stroke-width="1" onmouseover="setChange(evt)" onmouseout="unhiliteChange(evt)" onclick="changeMe(evt)" points="160.981,103.923 145.981,77.9422 130.981,103.922" seed="1"/><polygon fill="rgb(147, 112, 219)" stroke="black" stroke-width="1" onmouseover="setChange(evt)" onmouseout="unhiliteChange(evt)" onclick="changeMe(evt)" points="145.981,77.9422 115.981,77.9412 130.981,103.922" seed="2"/><polygon fill="rgb(147, 112, 219)" stroke="black" stroke-width="1" onmouseover="setChange(evt)" onmouseout="unhiliteChange(evt)" onclick="changeMe(evt)" points="145.981,77.9422 130.982,51.9612 115.981,77.9412" seed="3"/><polygon fill="rgb(147, 112, 219)" stroke="black" stroke-width="1" onmouseover="setChange(evt)" onmouseout="unhiliteChange(evt)" onclick="changeMe(evt)" points="160.982,51.9612 130.982,51.9612 145.981,77.9422" seed="4"/><polygon fill="rgb(147, 112, 219)" stroke="black" stroke-width="1" onmouseover="setChange(evt)" onmouseout="unhiliteChange(evt)" onclick="changeMe(evt)" points="175.981,77.9432 160.982,51.9622 145.981,77.9422" seed="5"/><polygon fill="rgb(147, 112, 219)" stroke="black" stroke-width="1" onmouseover="setChange(evt)" onmouseout="unhiliteChange(evt)" onclick="changeMe(evt)" points="175.981,77.9432 145.981,77.9422 160.98,103.924" seed="6"/><polygon fill="rgb(147, 112, 219)" stroke="black" stroke-width="1" onmouseover="setChange(evt)" onmouseout="unhiliteChange(evt)" onclick="changeMe(evt)" points="105,118.922 74.9997,118.922 89.9997,144.903" seed="7"/><polygon fill="rgb(147, 112, 219)" stroke="black" stroke-width="1" onmouseover="setChange(evt)" onmouseout="unhiliteChange(evt)" onclick="changeMe(evt)" points="105,118.922 89.9997,92.9412 74.9997,118.922" seed="8"/><polygon fill="rgb(147, 112, 219)" stroke="black" stroke-width="1" onmouseover="setChange(evt)" onmouseout="unhiliteChange(evt)" onclick="changeMe(evt)" points="89.9997,92.9412 59.9997,92.9412 74.9997,118.922" seed="9"/><polygon fill="rgb(147, 112, 219)" stroke="black" stroke-width="1" onmouseover="setChange(evt)" onmouseout="unhiliteChange(evt)" onclick="changeMe(evt)" points="74.9997,118.922 59.9997,92.9412 44.9997,118.922" seed="10"/><polygon fill="rgb(147, 112, 219)" stroke="black" stroke-width="1" onmouseover="setChange(evt)" onmouseout="unhiliteChange(evt)" onclick="changeMe(evt)" points="74.9997,118.922 44.9997,118.922 59.9997,144.903" seed="11"/><polygon fill="rgb(147, 112, 219)" stroke="black" stroke-width="1" onmouseover="setChange(evt)" onmouseout="unhiliteChange(evt)" onclick="changeMe(evt)" points="89.9997,144.902 74.9997,118.922 60.0007,144.903" seed="12"/><polygon fill="rgb(147, 112, 219)" stroke="black" stroke-width="1" onmouseover="setChange(evt)" onmouseout="unhiliteChange(evt)" onclick="changeMe(evt)" points="105,200.884 89.9997,174.903 74.9997,200.884" seed="13"/><polygon fill="rgb(147, 112, 219)" stroke="black" stroke-width="1" onmouseover="setChange(evt)" onmouseout="unhiliteChange(evt)" onclick="changeMe(evt)" points="74.9997,200.884 89.9997,174.903 59.9997,174.904" seed="14"/><polygon fill="rgb(147, 112, 219)" stroke="black" stroke-width="1" onmouseover="setChange(evt)" onmouseout="unhiliteChange(evt)" onclick="changeMe(evt)" points="74.9997,200.884 59.9997,174.904 44.9997,200.885" seed="15"/><polygon fill="rgb(147, 112, 219)" stroke="black" stroke-width="1" onmouseover="setChange(evt)" onmouseout="unhiliteChange(evt)" onclick="changeMe(evt)" points="60.0007,226.865 74.9997,200.884 44.9997,200.885" seed="16"/><polygon fill="rgb(147, 112, 219)" stroke="black" stroke-width="1" onmouseover="setChange(evt)" onmouseout="unhiliteChange(evt)" onclick="changeMe(evt)" points="90.0007,226.865 74.9997,200.884 60.0007,226.865" seed="17"/><polygon fill="rgb(147, 112, 219)" stroke="black" stroke-width="1" onmouseover="setChange(evt)" onmouseout="unhiliteChange(evt)" onclick="changeMe(evt)" points="90.0007,226.865 105,200.884 74.9997,200.884" seed="18"/><polygon fill="rgb(147, 112, 219)" stroke="black" stroke-width="1" onmouseover="setChange(evt)" onmouseout="unhiliteChange(evt)" onclick="changeMe(evt)" points="160.981,215.884 130.981,215.884 145.98,241.865" seed="19"/><polygon fill="rgb(147, 112, 219)" stroke="black" stroke-width="1" onmouseover="setChange(evt)" onmouseout="unhiliteChange(evt)" onclick="changeMe(evt)" points="145.98,241.865 130.981,215.883 115.98,241.864" seed="20"/><polygon fill="rgb(147, 112, 219)" stroke="black" stroke-width="1" onmouseover="setChange(evt)" onmouseout="unhiliteChange(evt)" onclick="changeMe(evt)" points="145.98,241.865 115.98,241.864 130.98,267.845" seed="21"/><polygon fill="rgb(147, 112, 219)" stroke="black" stroke-width="1" onmouseover="setChange(evt)" onmouseout="unhiliteChange(evt)" onclick="changeMe(evt)" points="160.98,267.846 145.98,241.865 130.98,267.845" seed="22"/><polygon fill="rgb(147, 112, 219)" stroke="black" stroke-width="1" onmouseover="setChange(evt)" onmouseout="unhiliteChange(evt)" onclick="changeMe(evt)" points="175.98,241.865 145.98,241.864 160.98,267.846" seed="23"/><polygon fill="rgb(147, 112, 219)" stroke="black" stroke-width="1" onmouseover="setChange(evt)" onmouseout="unhiliteChange(evt)" onclick="changeMe(evt)" points="175.98,241.865 160.981,215.884 145.98,241.864" seed="24"/><polygon fill="rgb(147, 112, 219)" stroke="black" stroke-width="1" onmouseover="setChange(evt)" onmouseout="unhiliteChange(evt)" onclick="changeMe(evt)" points="216.961,200.884 201.961,174.904 186.961,200.884" seed="25"/><polygon fill="rgb(147, 112, 219)" stroke="black" stroke-width="1" onmouseover="setChange(evt)" onmouseout="unhiliteChange(evt)" onclick="changeMe(evt)" points="216.961,200.884 186.961,200.884 201.961,226.865" seed="26"/><polygon fill="rgb(147, 112, 219)" stroke="black" stroke-width="1" onmouseover="setChange(evt)" onmouseout="unhiliteChange(evt)" onclick="changeMe(evt)" points="231.961,226.865 216.961,200.885 201.961,226.865" seed="27"/><polygon fill="rgb(147, 112, 219)" stroke="black" stroke-width="1" onmouseover="setChange(evt)" onmouseout="unhiliteChange(evt)" onclick="changeMe(evt)" points="246.961,200.885 216.961,200.885 231.961,226.865" seed="28"/><polygon fill="rgb(147, 112, 219)" stroke="black" stroke-width="1" onmouseover="setChange(evt)" onmouseout="unhiliteChange(evt)" onclick="changeMe(evt)" points="246.961,200.885 231.961,174.904 216.961,200.885" seed="29"/><polygon fill="rgb(147, 112, 219)" stroke="black" stroke-width="1" onmouseover="setChange(evt)" onmouseout="unhiliteChange(evt)" onclick="changeMe(evt)" points="231.961,174.904 201.961,174.904 216.961,200.885" seed="30"/><polygon fill="rgb(147, 112, 219)" stroke="black" stroke-width="1" onmouseover="setChange(evt)" onmouseout="unhiliteChange(evt)" onclick="changeMe(evt)" points="201.962,144.903 216.962,118.922 186.961,118.923" seed="31"/><polygon fill="rgb(147, 112, 219)" stroke="black" stroke-width="1" onmouseover="setChange(evt)" onmouseout="unhiliteChange(evt)" onclick="changeMe(evt)" points="216.961,118.922 201.961,92.9422 186.961,118.923" seed="32"/><polygon fill="rgb(147, 112, 219)" stroke="black" stroke-width="1" onmouseover="setChange(evt)" onmouseout="unhiliteChange(evt)" onclick="changeMe(evt)" points="216.961,118.922 231.961,92.9412 201.961,92.9422" seed="33"/><polygon fill="rgb(147, 112, 219)" stroke="black" stroke-width="1" onmouseover="setChange(evt)" onmouseout="unhiliteChange(evt)" onclick="changeMe(evt)" points="246.961,118.922 231.961,92.9412 216.961,118.922" seed="34"/><polygon fill="rgb(147, 112, 219)" stroke="black" stroke-width="1" onmouseover="setChange(evt)" onmouseout="unhiliteChange(evt)" onclick="changeMe(evt)" points="231.962,144.903 246.961,118.922 216.961,118.922" seed="35"/><polygon fill="rgb(147, 112, 219)" stroke="black" stroke-width="1" onmouseover="setChange(evt)" onmouseout="unhiliteChange(evt)" onclick="changeMe(evt)" points="231.962,144.903 216.961,118.922 201.962,144.903" seed="36"/><polygon fill="rgb(224, 176, 255)" stroke="black" stroke-width="1" onmouseover="setChange(evt)" onmouseout="unhiliteChange(evt)" onclick="changeMe(evt)" points="130.981,103.922 115.981,77.9422 89.9997,92.9422 105,118.922" seed="37"/><polygon fill="rgb(224, 176, 255)" stroke="black" stroke-width="1" onmouseover="setChange(evt)" onmouseout="unhiliteChange(evt)" onclick="changeMe(evt)" points="201.961,92.9422 175.981,77.9422 160.981,103.923 186.962,118.923" seed="38"/><polygon fill="rgb(224, 176, 255)" stroke="black" stroke-width="1" onmouseover="setChange(evt)" onmouseout="unhiliteChange(evt)" onclick="changeMe(evt)" points="231.962,144.904 201.962,144.904 201.961,174.903 231.961,174.904" seed="39"/><polygon fill="rgb(224, 176, 255)" stroke="black" stroke-width="1" onmouseover="setChange(evt)" onmouseout="unhiliteChange(evt)" onclick="changeMe(evt)" points="201.962,226.865 186.961,200.884 160.981,215.884 175.981,241.865" seed="40"/><polygon fill="rgb(224, 176, 255)" stroke="black" stroke-width="1" onmouseover="setChange(evt)" onmouseout="unhiliteChange(evt)" onclick="changeMe(evt)" points="130.981,215.883 105,200.884 89.9997,226.864 115.981,241.865" seed="41"/><polygon fill="rgb(224, 176, 255)" stroke="black" stroke-width="1" onmouseover="setChange(evt)" onmouseout="unhiliteChange(evt)" onclick="changeMe(evt)" points="89.9997,144.903 60.0007,144.903 59.9997,174.903 89.9997,174.903" seed="42"/><polygon fill="rgb(224, 176, 255)" stroke="black" stroke-width="1" onmouseover="setChange(evt)" onmouseout="unhiliteChange(evt)" onclick="changeMe(evt)" points="115.98,77.9422 100.981,51.9612 74.9997,66.9612 89.9997,92.9422" seed="43"/><polygon fill="rgb(224, 176, 255)" stroke="black" stroke-width="1" onmouseover="setChange(evt)" onmouseout="unhiliteChange(evt)" onclick="changeMe(evt)" points="100.981,51.9612 85.9797,25.9802 59.9997,40.9802 74.9997,66.9612" seed="44"/><polygon fill="rgb(224, 176, 255)" stroke="black" stroke-width="1" onmouseover="setChange(evt)" onmouseout="unhiliteChange(evt)" onclick="changeMe(evt)" points="216.962,66.9622 190.981,51.9622 175.981,77.9422 201.961,92.9422" seed="45"/><polygon fill="rgb(224, 176, 255)" stroke="black" stroke-width="1" onmouseover="setChange(evt)" onmouseout="unhiliteChange(evt)" onclick="changeMe(evt)" points="231.962,40.9812 205.981,25.9812 190.981,51.9622 216.962,66.9622" seed="46"/><polygon fill="rgb(224, 176, 255)" stroke="black" stroke-width="1" onmouseover="setChange(evt)" onmouseout="unhiliteChange(evt)" onclick="changeMe(evt)" points="261.961,144.905 231.962,144.904 231.961,174.903 261.961,174.905" seed="47"/><polygon fill="rgb(224, 176, 255)" stroke="black" stroke-width="1" onmouseover="setChange(evt)" onmouseout="unhiliteChange(evt)" onclick="changeMe(evt)" points="291.961,144.905 261.961,144.905 261.961,174.905 291.96,174.905" seed="48"/><polygon fill="rgb(224, 176, 255)" stroke="black" stroke-width="1" onmouseover="setChange(evt)" onmouseout="unhiliteChange(evt)" onclick="changeMe(evt)" points="216.961,252.846 201.962,226.865 175.981,241.865 190.98,267.846" seed="49"/><polygon fill="rgb(224, 176, 255)" stroke="black" stroke-width="1" onmouseover="setChange(evt)" onmouseout="unhiliteChange(evt)" onclick="changeMe(evt)" points="115.981,241.865 90.0007,226.864 74.9997,252.845 100.98,267.845" seed="50"/><polygon fill="rgb(224, 176, 255)" stroke="black" stroke-width="1" onmouseover="setChange(evt)" onmouseout="unhiliteChange(evt)" onclick="changeMe(evt)" points="60.0007,144.903 30.0007,144.902 29.9997,174.902 59.9997,174.903" seed="51"/><polygon fill="rgb(41, 171, 135)" stroke="black" stroke-width="1" onmouseover="setChange(evt)" onmouseout="unhiliteChange(evt)" onclick="changeMe(evt)" points="74.9997,66.9612 59.9997,40.9812 29.9997,40.9812 14.9997,66.9622 29.9997,92.9432 59.9997,92.9422" seed="52"/><polygon fill="rgb(41, 171, 135)" stroke="black" stroke-width="1" onmouseover="setChange(evt)" onmouseout="unhiliteChange(evt)" onclick="changeMe(evt)" points="205.981,25.9812 190.98,0.000228882 160.98,0.0012207 145.981,25.9822 160.981,51.9622 190.981,51.9622" seed="53"/><polygon fill="rgb(41, 171, 135)" stroke="black" stroke-width="1" onmouseover="setChange(evt)" onmouseout="unhiliteChange(evt)" onclick="changeMe(evt)" points="261.962,40.9812 231.962,40.9812 216.962,66.9622 231.962,92.9432 261.962,92.9432 276.962,66.9622" seed="54"/><polygon fill="rgb(41, 171, 135)" stroke="black" stroke-width="1" onmouseover="setChange(evt)" onmouseout="unhiliteChange(evt)" onclick="changeMe(evt)" points="291.961,92.9432 261.961,92.9432 246.961,118.924 261.961,144.905 291.961,144.905 306.961,118.924" seed="55"/><polygon fill="rgb(41, 171, 135)" stroke="black" stroke-width="1" onmouseover="setChange(evt)" onmouseout="unhiliteChange(evt)" onclick="changeMe(evt)" points="291.96,174.905 261.96,174.905 246.96,200.886 261.959,226.867 291.959,226.867 306.96,200.886" seed="56"/><polygon fill="rgb(147, 112, 219)" stroke="black" stroke-width="1" onmouseover="setChange(evt)" onmouseout="unhiliteChange(evt)" onclick="changeMe(evt)" points="261.959,226.867 246.96,200.886 231.959,226.866" seed="57"/><polygon fill="rgb(147, 112, 219)" stroke="black" stroke-width="1" onmouseover="setChange(evt)" onmouseout="unhiliteChange(evt)" onclick="changeMe(evt)" points="291.959,226.867 261.959,226.867 276.959,252.848" seed="58"/><polygon fill="rgb(41, 171, 135)" stroke="black" stroke-width="1" onmouseover="setChange(evt)" onmouseout="unhiliteChange(evt)" onclick="changeMe(evt)" points="261.959,226.867 231.959,226.866 216.959,252.847 231.958,278.828 261.958,278.829 276.959,252.848" seed="59"/><polygon fill="rgb(147, 112, 219)" stroke="black" stroke-width="1" onmouseover="setChange(evt)" onmouseout="unhiliteChange(evt)" onclick="changeMe(evt)" points="59.9997,144.903 44.9997,118.922 29.9997,144.903" seed="60"/><polygon fill="rgb(147, 112, 219)" stroke="black" stroke-width="1" onmouseover="setChange(evt)" onmouseout="unhiliteChange(evt)" onclick="changeMe(evt)" points="45.0007,118.923 59.9997,92.9422 29.9997,92.9432" seed="61"/><polygon fill="rgb(147, 112, 219)" stroke="black" stroke-width="1" onmouseover="setChange(evt)" onmouseout="unhiliteChange(evt)" onclick="changeMe(evt)" points="89.9997,92.9422 74.9997,66.9622 59.9997,92.9422" seed="62"/><polygon fill="rgb(147, 112, 219)" stroke="black" stroke-width="1" onmouseover="setChange(evt)" onmouseout="unhiliteChange(evt)" onclick="changeMe(evt)" points="130.981,51.9612 100.98,51.9612 115.98,77.9422" seed="63"/><polygon fill="rgb(147, 112, 219)" stroke="black" stroke-width="1" onmouseover="setChange(evt)" onmouseout="unhiliteChange(evt)" onclick="changeMe(evt)" points="160.982,51.9612 145.982,25.9802 130.982,51.9612" seed="64"/><polygon fill="rgb(147, 112, 219)" stroke="black" stroke-width="1" onmouseover="setChange(evt)" onmouseout="unhiliteChange(evt)" onclick="changeMe(evt)" points="175.982,77.9432 190.981,51.9622 160.981,51.9622" seed="65"/><polygon fill="rgb(147, 112, 219)" stroke="black" stroke-width="1" onmouseover="setChange(evt)" onmouseout="unhiliteChange(evt)" onclick="changeMe(evt)" points="291.962,92.9432 276.962,66.9622 261.962,92.9432" seed="66"/><polygon fill="rgb(147, 112, 219)" stroke="black" stroke-width="1" onmouseover="setChange(evt)" onmouseout="unhiliteChange(evt)" onclick="changeMe(evt)" points="231.962,92.9432 216.962,66.9622 201.962,92.9422" seed="67"/><polygon fill="rgb(147, 112, 219)" stroke="black" stroke-width="1" onmouseover="setChange(evt)" onmouseout="unhiliteChange(evt)" onclick="changeMe(evt)" points="261.962,92.9432 231.962,92.9432 246.961,118.924" seed="68"/><polygon fill="rgb(147, 112, 219)" stroke="black" stroke-width="1" onmouseover="setChange(evt)" onmouseout="unhiliteChange(evt)" onclick="changeMe(evt)" points="261.962,144.902 246.961,118.922 231.962,144.903" seed="69"/><polygon fill="rgb(147, 112, 219)" stroke="black" stroke-width="1" onmouseover="setChange(evt)" onmouseout="unhiliteChange(evt)" onclick="changeMe(evt)" points="261.961,174.905 231.961,174.903 246.96,200.885" seed="70"/><polygon fill="rgb(147, 112, 219)" stroke="black" stroke-width="1" onmouseover="setChange(evt)" onmouseout="unhiliteChange(evt)" onclick="changeMe(evt)" points="231.961,226.865 201.961,226.865 216.961,252.846" seed="71"/><polygon fill="rgb(147, 112, 219)" stroke="black" stroke-width="1" onmouseover="setChange(evt)" onmouseout="unhiliteChange(evt)" onclick="changeMe(evt)" points="190.98,267.846 175.98,241.865 160.98,267.846" seed="72"/><polygon fill="rgb(147, 112, 219)" stroke="black" stroke-width="1" onmouseover="setChange(evt)" onmouseout="unhiliteChange(evt)" onclick="changeMe(evt)" points="130.98,267.846 115.981,241.864 100.98,267.845" seed="73"/><polygon fill="rgb(147, 112, 219)" stroke="black" stroke-width="1" onmouseover="setChange(evt)" onmouseout="unhiliteChange(evt)" onclick="changeMe(evt)" points="75.0007,252.846 90.0007,226.865 60.0007,226.865" seed="74"/><polygon fill="rgb(147, 112, 219)" stroke="black" stroke-width="1" onmouseover="setChange(evt)" onmouseout="unhiliteChange(evt)" onclick="changeMe(evt)" points="59.9997,174.903 29.9997,174.902 44.9997,200.883" seed="75"/><polygon fill="rgb(147, 112, 219)" stroke="black" stroke-width="1" onmouseover="setChange(evt)" onmouseout="unhiliteChange(evt)" onclick="changeMe(evt)" points="60.0007,226.865 44.9997,200.885 30.0007,226.866" seed="76"/><polygon fill="rgb(147, 112, 219)" stroke="black" stroke-width="1" onmouseover="setChange(evt)" onmouseout="unhiliteChange(evt)" onclick="changeMe(evt)" points="14.9998,66.962 -0.000300407,40.9813 29.9997,40.9812" seed="77"/></g></svg>
