<?xml version="1.0" encoding="utf-8"?>
<svg xmlns="http://www.w3.org/2000/svg" id="mainSVG" pointer-events="all" width="115.98" height="170.885" EdgeLen="30" template="ark3_22_tu" code="C6_3_2_0" copyright="Francis Hemsher, 2012">
	<polygon id="BorderPoly" fill="none" pointer-events="none" stroke="red" stroke-width="4" transform="" points="70.9807,-4.57764e-005 44.9997,14.9993 29.9999,40.9802 14.9999,66.9613 -4.95911e-005,92.9422 14.9999,118.923 29.9999,144.904 44.9997,170.885 59.9997,144.904 74.9998,118.923 89.9998,92.9422 115.981,77.9422 100.981,51.9613 85.9807,25.9802"/>
	<g id="mainPolyG" transform=""><polygon id="mainPoly" fill="rgb(252, 194, 0)" stroke="black" onmouseover="setChange(evt)" onmouseout="unhiliteChange(evt)" onclick="changeMe(evt)" points="59.9997,92.9422 29.9999,92.9422 14.9999,118.923 29.9999,144.904 59.9997,144.904 74.9998,118.923" seed="0"/><polygon fill="rgb(41, 171, 135)" stroke="black" stroke-width="1" onmouseover="setChange(evt)" onmouseout="unhiliteChange(evt)" onclick="changeMe(evt)" points="59.9997,40.9802 29.9999,40.9802 14.9999,66.9613 29.9999,92.9422 59.9997,92.9422 74.9998,66.9613" seed="1"/><polygon fill="rgb(224, 176, 255)" stroke="black" stroke-width="1" onmouseover="setChange(evt)" onmouseout="unhiliteChange(evt)" onclick="changeMe(evt)" points="100.981,51.9613 85.9807,25.9802 59.9997,40.9802 74.9998,66.9613" seed="2"/><polygon fill="rgb(224, 176, 255)" stroke="black" stroke-width="1" onmouseover="setChange(evt)" onmouseout="unhiliteChange(evt)" onclick="changeMe(evt)" points="85.9807,25.9802 70.9807,-4.57764e-005 44.9997,14.9993 59.9997,40.9802" seed="3"/><polygon fill="rgb(224, 176, 255)" stroke="black" stroke-width="1" onmouseover="setChange(evt)" onmouseout="unhiliteChange(evt)" onclick="changeMe(evt)" points="115.981,77.9422 100.981,51.9613 74.9998,66.9613 89.9998,92.9422" seed="4"/><polygon fill="rgb(147, 112, 219)" stroke="black" stroke-width="1" onmouseover="setChange(evt)" onmouseout="unhiliteChange(evt)" onclick="changeMe(evt)" points="59.9997,40.9802 44.9997,15.0003 29.9999,40.9813" seed="5"/><polygon fill="rgb(147, 112, 219)" stroke="black" stroke-width="1" onmouseover="setChange(evt)" onmouseout="unhiliteChange(evt)" onclick="changeMe(evt)" points="89.9998,92.9422 74.9998,66.9603 59.9997,92.9413" seed="6"/><polygon fill="rgb(147, 112, 219)" stroke="black" stroke-width="1" onmouseover="setChange(evt)" onmouseout="unhiliteChange(evt)" onclick="changeMe(evt)" points="29.9999,92.9422 14.9999,66.9622 -4.95911e-005,92.9422" seed="7"/><polygon fill="rgb(147, 112, 219)" stroke="black" stroke-width="1" onmouseover="setChange(evt)" onmouseout="unhiliteChange(evt)" onclick="changeMe(evt)" points="29.9999,92.9422 -4.95911e-005,92.9422 14.9999,118.923" seed="8"/><polygon fill="rgb(147, 112, 219)" stroke="black" stroke-width="1" onmouseover="setChange(evt)" onmouseout="unhiliteChange(evt)" onclick="changeMe(evt)" points="89.9998,92.9433 60.0007,92.9433 74.9998,118.923" seed="9"/><polygon fill="rgb(147, 112, 219)" stroke="black" stroke-width="1" onmouseover="setChange(evt)" onmouseout="unhiliteChange(evt)" onclick="changeMe(evt)" points="59.9997,144.904 29.9999,144.904 44.9997,170.885" seed="10"/></g>
</svg>
