<?xml version="1.0" encoding="utf-8"?>
<svg xmlns="http://www.w3.org/2000/svg" id="mainSVG" pointer-events="all" width="115.98" height="118.923" EdgeLen="30" template="u5_205_tu" code="C6_3_1_0" copyright="Francis Hemsher, 2012">
	<polygon id="BorderPoly" fill="none" pointer-events="none" stroke="red" stroke-width="4" transform="" points="70.9798,4.95911e-005 44.9997,15.0005 29.9999,40.9798 -4.95911e-005,40.9808 14.9999,66.9607 30.0005,92.9417 44.9997,118.923 74.9998,118.923 89.9998,92.9417 115.981,77.9417 100.981,51.9607 85.9807,25.98"/>
	<g id="mainPolyG" transform=""><polygon id="mainPoly" fill="rgb(252, 194, 0)" stroke="black" onmouseover="setChange(evt)" onmouseout="unhiliteChange(evt)" onclick="changeMe(evt)" points="74.9998,66.9607 44.9997,66.9607 29.9999,92.9417 44.9997,118.923 74.9998,118.923 89.9998,92.9417" seed="0"/><polygon fill="rgb(224, 176, 255)" stroke="black" stroke-width="1" onmouseover="setChange(evt)" onmouseout="unhiliteChange(evt)" onclick="changeMe(evt)" points="115.981,77.9417 100.981,51.9607 75.0007,66.9607 89.9998,92.9417" seed="1"/><polygon fill="rgb(224, 176, 255)" stroke="black" stroke-width="1" onmouseover="setChange(evt)" onmouseout="unhiliteChange(evt)" onclick="changeMe(evt)" points="100.981,51.9607 85.9807,25.98 59.9997,40.9808 75.0007,66.9607" seed="2"/><polygon fill="rgb(224, 176, 255)" stroke="black" stroke-width="1" onmouseover="setChange(evt)" onmouseout="unhiliteChange(evt)" onclick="changeMe(evt)" points="85.9807,25.98 70.9798,4.95911e-005 44.9997,15.0005 60.0007,40.9808" seed="3"/><polygon fill="rgb(147, 112, 219)" stroke="black" stroke-width="1" onmouseover="setChange(evt)" onmouseout="unhiliteChange(evt)" onclick="changeMe(evt)" points="74.9998,66.9607 59.9997,40.9798 44.9997,66.9607" seed="4"/><polygon fill="rgb(147, 112, 219)" stroke="black" stroke-width="1" onmouseover="setChange(evt)" onmouseout="unhiliteChange(evt)" onclick="changeMe(evt)" points="59.9997,40.9798 29.9999,40.9798 44.9997,66.9607" seed="5"/><polygon fill="rgb(147, 112, 219)" stroke="black" stroke-width="1" onmouseover="setChange(evt)" onmouseout="unhiliteChange(evt)" onclick="changeMe(evt)" points="59.9997,40.9798 44.9997,14.999 29.9995,40.9798" seed="6"/><polygon fill="rgb(147, 112, 219)" stroke="black" stroke-width="1" onmouseover="setChange(evt)" onmouseout="unhiliteChange(evt)" onclick="changeMe(evt)" points="44.9997,66.9607 29.9999,40.9798 14.9999,66.9607" seed="7"/><polygon fill="rgb(147, 112, 219)" stroke="black" stroke-width="1" onmouseover="setChange(evt)" onmouseout="unhiliteChange(evt)" onclick="changeMe(evt)" points="30.0005,92.9417 44.9997,66.9607 14.9999,66.9607" seed="8"/><polygon fill="rgb(147, 112, 219)" stroke="black" stroke-width="1" onmouseover="setChange(evt)" onmouseout="unhiliteChange(evt)" onclick="changeMe(evt)" points="29.9995,40.9808 -4.95911e-005,40.9808 14.9999,66.9607" seed="9"/></g>
</svg>
