<?xml version="1.0" encoding="utf-8"?>
<svg xmlns="http://www.w3.org/2000/svg" id="mainSVG" pointer-events="all" width="105.001" height="159.905" EdgeLen="30" template="ark4_7_tu" code="C6_3_3_0" copyright="Francis Hemsher, 2012">
	<polygon id="BorderPoly" fill="none" pointer-events="none" stroke="red" stroke-width="4" transform="" points="90.0008,-4.57764e-005 59.9998,-4.57764e-005 45,25.9808 15,25.9808 -4.57764e-005,51.9618 15,77.9428 -4.57764e-005,103.924 -4.57764e-005,133.923 14.9995,159.904 44.9995,159.905 59.9998,133.924 90.0008,133.923 90.0008,103.923 105,77.9428 89.9998,51.9618 105.001,25.9808"/>
	<g id="mainPolyG" transform=""><polygon id="mainPoly" fill="rgb(252, 194, 0)" stroke="black" onmouseover="setChange(evt)" onmouseout="unhiliteChange(evt)" onclick="changeMe(evt)" points="45,25.9808 15,25.9808 -4.57764e-005,51.9618 15,77.9428 45,77.9428 59.9998,51.9618" seed="0"/><polygon fill="rgb(41, 171, 135)" stroke="black" stroke-width="1" onmouseover="setChange(evt)" onmouseout="unhiliteChange(evt)" onclick="changeMe(evt)" points="90.0008,-4.57764e-005 59.9998,-4.57764e-005 45,25.9808 59.9998,51.9618 90.0008,51.9618 105.001,25.9808" seed="1"/><polygon fill="rgb(41, 171, 135)" stroke="black" stroke-width="1" onmouseover="setChange(evt)" onmouseout="unhiliteChange(evt)" onclick="changeMe(evt)" points="89.9998,51.9618 59.9998,51.9618 45,77.9428 59.9998,103.923 90.0008,103.923 105,77.9428" seed="2"/><polygon fill="rgb(147, 112, 219)" stroke="black" stroke-width="1" onmouseover="setChange(evt)" onmouseout="unhiliteChange(evt)" onclick="changeMe(evt)" points="45,77.9428 15,77.9428 30,103.924" seed="3"/><polygon fill="rgb(147, 112, 219)" stroke="black" stroke-width="1" onmouseover="setChange(evt)" onmouseout="unhiliteChange(evt)" onclick="changeMe(evt)" points="30,103.924 15,77.9428 -4.57764e-005,103.924" seed="4"/><polygon fill="rgb(147, 112, 219)" stroke="black" stroke-width="1" onmouseover="setChange(evt)" onmouseout="unhiliteChange(evt)" onclick="changeMe(evt)" points="59.9998,103.923 45,77.9428 30.0005,103.923" seed="5"/><polygon fill="rgb(224, 176, 255)" stroke="black" stroke-width="1" onmouseover="setChange(evt)" onmouseout="unhiliteChange(evt)" onclick="changeMe(evt)" points="90.0008,103.923 60.0008,103.923 60.0008,133.923 90.0008,133.923" seed="6"/><polygon fill="rgb(224, 176, 255)" stroke="black" stroke-width="1" onmouseover="setChange(evt)" onmouseout="unhiliteChange(evt)" onclick="changeMe(evt)" points="59.9998,103.923 30.0005,103.923 30.0005,133.923 60.0008,133.923" seed="7"/><polygon fill="rgb(224, 176, 255)" stroke="black" stroke-width="1" onmouseover="setChange(evt)" onmouseout="unhiliteChange(evt)" onclick="changeMe(evt)" points="29.9995,103.924 -4.57764e-005,103.924 -4.57764e-005,133.923 30,133.924" seed="8"/><polygon fill="rgb(147, 112, 219)" stroke="black" stroke-width="1" onmouseover="setChange(evt)" onmouseout="unhiliteChange(evt)" onclick="changeMe(evt)" points="30,133.924 -4.57764e-005,133.923 14.9995,159.904" seed="9"/><polygon fill="rgb(147, 112, 219)" stroke="black" stroke-width="1" onmouseover="setChange(evt)" onmouseout="unhiliteChange(evt)" onclick="changeMe(evt)" points="44.9995,159.905 30,133.924 14.9995,159.904" seed="10"/><polygon fill="rgb(147, 112, 219)" stroke="black" stroke-width="1" onmouseover="setChange(evt)" onmouseout="unhiliteChange(evt)" onclick="changeMe(evt)" points="59.9998,133.924 30,133.924 44.9995,159.905" seed="11"/></g>
</svg>
