<?xml version="1.0" encoding="utf-8"?>
<svg xmlns="http://www.w3.org/2000/svg" id="mainSVG" pointer-events="all" width="152.943" height="186.961" EdgeLen="30" template="ark4_12_tu" code="C6_4_1_1" copyright="Francis Hemsher, 2012">
	<polygon id="BorderPoly" fill="none" pointer-events="none" stroke="red" stroke-width="4" transform="" points="96.962,0 70.981,15.0003 70.981,45.0003 40.981,44.9993 15.0005,59.9993 0.000495911,85.9803 0,115.98 15,141.961 40.981,156.961 40.98,186.96 70.981,186.961 96.962,171.961 126.961,171.961 126.961,141.961 152.942,126.962 137.943,100.98 137.943,70.9803 152.943,44.9996 122.943,44.9993 122.942,14.9993"/><g id="mainPolyG" transform=""><polygon id="mainPoly" fill="rgb(252, 194, 0)" stroke="black" onmouseover="setChange(evt)" onmouseout="unhiliteChange(evt)" onclick="changeMe(evt)" points="70.981,45.0003 40.981,44.9993 15.0005,59.9993 0.000495911,85.9803 0,115.98 15,141.961 40.981,156.961 70.981,156.961 96.961,141.961 111.961,115.98 111.962,85.9803 96.962,60.0003" seed="0"/><polygon fill="rgb(41, 171, 135)" stroke="black" stroke-width="1" onmouseover="setChange(evt)" onmouseout="unhiliteChange(evt)" onclick="changeMe(evt)" points="122.942,14.9993 96.962,0 70.981,15.0003 70.981,45.0003 96.962,60.0003 122.942,45.0003" seed="1"/><polygon fill="rgb(224, 176, 255)" stroke="black" stroke-width="1" onmouseover="setChange(evt)" onmouseout="unhiliteChange(evt)" onclick="changeMe(evt)" points="137.943,70.9803 122.943,44.9993 96.962,60.0003 111.962,85.9803" seed="2"/><polygon fill="rgb(224, 176, 255)" stroke="black" stroke-width="1" onmouseover="setChange(evt)" onmouseout="unhiliteChange(evt)" onclick="changeMe(evt)" points="70.981,156.961 40.981,156.961 40.98,186.96 70.981,186.961" seed="3"/><polygon fill="rgb(147, 112, 219)" stroke="black" stroke-width="1" onmouseover="setChange(evt)" onmouseout="unhiliteChange(evt)" onclick="changeMe(evt)" points="137.943,100.98 137.943,70.9803 111.961,85.9803" seed="4"/><polygon fill="rgb(147, 112, 219)" stroke="black" stroke-width="1" onmouseover="setChange(evt)" onmouseout="unhiliteChange(evt)" onclick="changeMe(evt)" points="137.943,100.981 111.962,85.9803 111.961,115.98" seed="5"/><polygon fill="rgb(147, 112, 219)" stroke="black" stroke-width="1" onmouseover="setChange(evt)" onmouseout="unhiliteChange(evt)" onclick="changeMe(evt)" points="126.961,141.961 111.961,115.981 96.961,141.961" seed="6"/><polygon fill="rgb(147, 112, 219)" stroke="black" stroke-width="1" onmouseover="setChange(evt)" onmouseout="unhiliteChange(evt)" onclick="changeMe(evt)" points="96.962,171.961 96.961,141.961 70.981,156.961" seed="7"/><polygon fill="rgb(147, 112, 219)" stroke="black" stroke-width="1" onmouseover="setChange(evt)" onmouseout="unhiliteChange(evt)" onclick="changeMe(evt)" points="96.962,171.961 70.981,156.961 70.981,186.961" seed="8"/><polygon fill="rgb(224, 176, 255)" stroke="black" stroke-width="1" onmouseover="setChange(evt)" onmouseout="unhiliteChange(evt)" onclick="changeMe(evt)" points="152.942,126.962 137.943,100.981 111.961,115.98 126.961,141.961" seed="9"/><polygon fill="rgb(224, 176, 255)" stroke="black" stroke-width="1" onmouseover="setChange(evt)" onmouseout="unhiliteChange(evt)" onclick="changeMe(evt)" points="126.961,141.961 96.962,141.961 96.961,171.961 126.961,171.961" seed="10"/><polygon fill="rgb(147, 112, 219)" stroke="black" stroke-width="1" onmouseover="setChange(evt)" onmouseout="unhiliteChange(evt)" onclick="changeMe(evt)" points="122.943,44.9993 152.943,44.9996 137.943,70.9803" seed="11"/></g></svg>
