<?xml version="1.0" encoding="utf-8"?>
<svg xmlns="http://www.w3.org/2000/svg" id="mainSVG" pointer-events="all" width="210.001" height="77.9425" EdgeLen="30" template="u5_21_tu" code="C8_0_3_0" copyright="Francis Hemsher, 2012">
	<polygon id="BorderPoly" fill="none" pointer-events="none" stroke="red" stroke-width="4" transform="" points="120.001,4.57764e-005 105.001,25.981 74.9997,25.981 44.9997,25.9805 14.9997,25.9799 -0.00025177,51.9604 14.9987,77.9417 44.9997,77.9427 74.9997,77.9427 105.001,77.9427 120.001,51.962 150.001,51.962 165.001,77.9427 195.001,77.9427 210.001,51.962 195.001,25.9815 165.001,25.981 150.001,4.57764e-005"/>
	<g id="mainPolyG" transform=""><polygon id="mainPoly" fill="rgb(252, 194, 0)" stroke="black" onmouseover="setChange(evt)" onmouseout="unhiliteChange(evt)" onclick="changeMe(evt)" points="150.001,4.57764e-005 120.001,4.57764e-005 105.001,25.981 120.001,51.962 150.001,51.962 165.001,25.981" seed="0"/><polygon fill="rgb(41, 171, 135)" stroke="black" stroke-width="1" onmouseover="setChange(evt)" onmouseout="unhiliteChange(evt)" onclick="changeMe(evt)" points="195.001,25.9815 165.001,25.981 150.001,51.962 165.001,77.9427 195.001,77.9427 210.001,51.962" seed="1"/><polygon fill="rgb(41, 171, 135)" stroke="black" stroke-width="1" onmouseover="setChange(evt)" onmouseout="unhiliteChange(evt)" onclick="changeMe(evt)" points="105.001,25.981 74.9997,25.981 59.9997,51.9615 74.9997,77.9427 105.001,77.9427 120.001,51.962" seed="2"/><polygon fill="rgb(147, 112, 219)" stroke="black" stroke-width="1" onmouseover="setChange(evt)" onmouseout="unhiliteChange(evt)" onclick="changeMe(evt)" points="75.0008,25.981 44.9997,25.9805 59.9997,51.9615" seed="3"/><polygon fill="rgb(147, 112, 219)" stroke="black" stroke-width="1" onmouseover="setChange(evt)" onmouseout="unhiliteChange(evt)" onclick="changeMe(evt)" points="74.9997,77.9427 59.9997,51.9615 44.9997,77.9427" seed="4"/><polygon fill="rgb(147, 112, 219)" stroke="black" stroke-width="1" onmouseover="setChange(evt)" onmouseout="unhiliteChange(evt)" onclick="changeMe(evt)" points="59.9997,51.9615 44.9997,25.9805 29.9997,51.961" seed="5"/><polygon fill="rgb(147, 112, 219)" stroke="black" stroke-width="1" onmouseover="setChange(evt)" onmouseout="unhiliteChange(evt)" onclick="changeMe(evt)" points="59.9997,51.9615 29.9997,51.961 44.9997,77.9417" seed="6"/><polygon fill="rgb(147, 112, 219)" stroke="black" stroke-width="1" onmouseover="setChange(evt)" onmouseout="unhiliteChange(evt)" onclick="changeMe(evt)" points="44.9997,25.9805 14.9997,25.9799 29.9997,51.961" seed="7"/><polygon fill="rgb(147, 112, 219)" stroke="black" stroke-width="1" onmouseover="setChange(evt)" onmouseout="unhiliteChange(evt)" onclick="changeMe(evt)" points="29.9997,51.961 14.9997,25.9799 -0.00025177,51.9604" seed="8"/><polygon fill="rgb(147, 112, 219)" stroke="black" stroke-width="1" onmouseover="setChange(evt)" onmouseout="unhiliteChange(evt)" onclick="changeMe(evt)" points="29.9997,51.961 -0.00025177,51.9604 14.9987,77.9417" seed="9"/><polygon fill="rgb(147, 112, 219)" stroke="black" stroke-width="1" onmouseover="setChange(evt)" onmouseout="unhiliteChange(evt)" onclick="changeMe(evt)" points="44.9987,77.9417 29.9997,51.961 14.9987,77.9417" seed="10"/></g>
</svg>
