<?xml version="1.0" encoding="utf-8"?>
<svg xmlns="http://www.w3.org/2000/svg" id="mainSVG" pointer-events="all" width="195.001" height="181.866" EdgeLen="30" template="u5_239_tu" code="C8_0_4_0" copyright="Francis Hemsher, 2012">
	<polygon id="BorderPoly" fill="none" pointer-events="none" stroke="red" stroke-width="4" transform="" points="165.001,0.000541687 135.001,0.000541687 105.001,3.8147e-005 90.0005,25.9807 75.0005,51.9617 60.0005,77.9427 45.0005,103.924 30.0005,129.905 14.9995,155.886 7.62939e-006,181.866 29.9995,181.867 59.9995,181.867 75.0005,155.886 90.0005,129.905 105.001,103.924 120.001,77.9437 135.001,51.9617 165.001,51.9617 180.001,25.9817 195.001,0.000541687"/><g id="mainPolyG" transform=""><polygon id="mainPoly" fill="rgb(252, 194, 0)" stroke="black" onmouseover="setChange(evt)" onmouseout="unhiliteChange(evt)" onclick="changeMe(evt)" points="90.0005,77.9427 60.0005,77.9427 45.0005,103.924 60.0005,129.905 90.0005,129.905 105.001,103.924" seed="0"/><polygon fill="rgb(147, 112, 219)" stroke="black" stroke-width="1" onmouseover="setChange(evt)" onmouseout="unhiliteChange(evt)" onclick="changeMe(evt)" points="59.9995,129.905 45.0005,103.924 30.0005,129.905" seed="1"/><polygon fill="rgb(147, 112, 219)" stroke="black" stroke-width="1" onmouseover="setChange(evt)" onmouseout="unhiliteChange(evt)" onclick="changeMe(evt)" points="90.0005,129.905 60.0005,129.905 75.0005,155.886" seed="2"/><polygon fill="rgb(147, 112, 219)" stroke="black" stroke-width="1" onmouseover="setChange(evt)" onmouseout="unhiliteChange(evt)" onclick="changeMe(evt)" points="90.0005,77.9427 75.0005,51.9617 60.0005,77.9427" seed="3"/><polygon fill="rgb(147, 112, 219)" stroke="black" stroke-width="1" onmouseover="setChange(evt)" onmouseout="unhiliteChange(evt)" onclick="changeMe(evt)" points="120.001,77.9437 90.0005,77.9437 105.001,103.924" seed="4"/><polygon fill="rgb(41, 171, 135)" stroke="black" stroke-width="1" onmouseover="setChange(evt)" onmouseout="unhiliteChange(evt)" onclick="changeMe(evt)" points="59.9995,129.905 29.9995,129.905 14.9995,155.886 29.9995,181.867 59.9995,181.867 74.9995,155.886" seed="5"/><polygon fill="rgb(41, 171, 135)" stroke="black" stroke-width="1" onmouseover="setChange(evt)" onmouseout="unhiliteChange(evt)" onclick="changeMe(evt)" points="120.001,25.9807 90.0005,25.9807 75.0005,51.9617 90.0005,77.9427 120.001,77.9427 135.001,51.9617" seed="6"/><polygon fill="rgb(41, 171, 135)" stroke="black" stroke-width="1" onmouseover="setChange(evt)" onmouseout="unhiliteChange(evt)" onclick="changeMe(evt)" points="165.001,0.000541687 135.001,0.000541687 120.001,25.9807 135.001,51.9617 165.001,51.9617 180.001,25.9817" seed="7"/><polygon fill="rgb(147, 112, 219)" stroke="black" stroke-width="1" onmouseover="setChange(evt)" onmouseout="unhiliteChange(evt)" onclick="changeMe(evt)" points="120.001,25.9807 105.001,3.8147e-005 90.0005,25.9807" seed="8"/><polygon fill="rgb(147, 112, 219)" stroke="black" stroke-width="1" onmouseover="setChange(evt)" onmouseout="unhiliteChange(evt)" onclick="changeMe(evt)" points="135.001,0.000541687 105.001,3.8147e-005 120.001,25.9807" seed="9"/><polygon fill="rgb(147, 112, 219)" stroke="black" stroke-width="1" onmouseover="setChange(evt)" onmouseout="unhiliteChange(evt)" onclick="changeMe(evt)" points="29.9995,181.867 14.9995,155.886 7.62939e-006,181.866" seed="10"/><polygon fill="rgb(147, 112, 219)" stroke="black" stroke-width="1" onmouseover="setChange(evt)" onmouseout="unhiliteChange(evt)" onclick="changeMe(evt)" points="195.001,0.000541687 165.001,0.000541687 180.001,25.9817" seed="11"/></g></svg>
