<?xml version="1.0" encoding="utf-8"?>
<svg xmlns="http://www.w3.org/2000/svg" id="mainSVG" pointer-events="all" width="235.982" height="170.885" EdgeLen="30" template="u5_165_tu" code="C8_2_4_0" copyright="Francis Hemsher, 2012">
	<polygon id="BorderPoly" fill="none" pointer-events="none" stroke="red" stroke-width="4" transform="" points="205.982,0.00050354 175.982,0.00050354 145.983,0.00050354 115.982,0 85.982,0 70.982,25.9805 55.982,51.9615 40.982,77.9425 25.981,103.924 0,118.924 15.001,144.904 30.001,170.884 55.982,155.884 70.982,129.904 85.982,103.924 100.982,77.9425 115.982,51.9615 145.982,51.9615 175.982,51.9615 205.982,51.9615 235.982,51.9615 220.982,25.9815"/>
	<g id="mainPolyG" transform=""><polygon id="mainPoly" fill="rgb(252, 194, 0)" stroke="black" onmouseover="setChange(evt)" onmouseout="unhiliteChange(evt)" onclick="changeMe(evt)" points="145.982,0 115.982,0 100.982,25.9815 115.982,51.9615 145.982,51.9615 160.982,25.9815" seed="0"/><polygon fill="rgb(41, 171, 135)" stroke="black" stroke-width="1" onmouseover="setChange(evt)" onmouseout="unhiliteChange(evt)" onclick="changeMe(evt)" points="100.982,25.9815 70.982,25.9805 55.982,51.9615 70.982,77.9425 100.982,77.9425 115.982,51.9615" seed="1"/><polygon fill="rgb(147, 112, 219)" stroke="black" stroke-width="1" onmouseover="setChange(evt)" onmouseout="unhiliteChange(evt)" onclick="changeMe(evt)" points="70.982,77.9425 55.982,51.9615 40.982,77.9425" seed="2"/><polygon fill="rgb(147, 112, 219)" stroke="black" stroke-width="1" onmouseover="setChange(evt)" onmouseout="unhiliteChange(evt)" onclick="changeMe(evt)" points="100.982,77.9425 70.982,77.9425 85.982,103.924" seed="3"/><polygon fill="rgb(41, 171, 135)" stroke="black" stroke-width="1" onmouseover="setChange(evt)" onmouseout="unhiliteChange(evt)" onclick="changeMe(evt)" points="70.982,77.9425 40.982,77.9425 25.981,103.924 40.981,129.904 70.982,129.904 85.982,103.924" seed="4"/><polygon fill="rgb(147, 112, 219)" stroke="black" stroke-width="1" onmouseover="setChange(evt)" onmouseout="unhiliteChange(evt)" onclick="changeMe(evt)" points="70.982,129.904 40.982,129.904 55.982,155.884" seed="5"/><polygon fill="rgb(224, 176, 255)" stroke="black" stroke-width="1" onmouseover="setChange(evt)" onmouseout="unhiliteChange(evt)" onclick="changeMe(evt)" points="40.981,129.904 25.981,103.924 0,118.924 15.001,144.904" seed="6"/><polygon fill="rgb(224, 176, 255)" stroke="black" stroke-width="1" onmouseover="setChange(evt)" onmouseout="unhiliteChange(evt)" onclick="changeMe(evt)" points="55.982,155.884 40.982,129.904 15.001,144.904 30.001,170.884" seed="7"/><polygon fill="rgb(147, 112, 219)" stroke="black" stroke-width="1" onmouseover="setChange(evt)" onmouseout="unhiliteChange(evt)" onclick="changeMe(evt)" points="100.982,25.9815 85.982,0 70.982,25.9805" seed="8"/><polygon fill="rgb(147, 112, 219)" stroke="black" stroke-width="1" onmouseover="setChange(evt)" onmouseout="unhiliteChange(evt)" onclick="changeMe(evt)" points="115.982,0 85.982,0 100.982,25.9805" seed="9"/><polygon fill="rgb(147, 112, 219)" stroke="black" stroke-width="1" onmouseover="setChange(evt)" onmouseout="unhiliteChange(evt)" onclick="changeMe(evt)" points="175.982,0.00050354 145.983,0.00050354 160.982,25.9815" seed="10"/><polygon fill="rgb(147, 112, 219)" stroke="black" stroke-width="1" onmouseover="setChange(evt)" onmouseout="unhiliteChange(evt)" onclick="changeMe(evt)" points="175.982,51.9615 160.982,25.9815 145.982,51.9615" seed="11"/><polygon fill="rgb(41, 171, 135)" stroke="black" stroke-width="1" onmouseover="setChange(evt)" onmouseout="unhiliteChange(evt)" onclick="changeMe(evt)" points="205.982,0.00050354 175.982,0.00050354 160.982,25.9815 175.982,51.9615 205.982,51.9615 220.982,25.9815" seed="12"/><polygon fill="rgb(147, 112, 219)" stroke="black" stroke-width="1" onmouseover="setChange(evt)" onmouseout="unhiliteChange(evt)" onclick="changeMe(evt)" points="235.982,51.9615 220.982,25.9815 205.982,51.9615" seed="13"/></g>
</svg>
