<?xml version="1.0" encoding="utf-8"?>
<svg xmlns="http://www.w3.org/2000/svg" id="mainSVG" pointer-events="all" width="126.962" height="141.962" EdgeLen="30" template="u6_367_tu" code="D10_8_1_0" copyright="Francis Hemsher, 2012">
	<polygon id="BorderPoly" fill="none" pointer-events="none" stroke="red" stroke-width="4" transform="" points="126.962,0.00100708 96.962,0.00050354 66.962,7.62939e-006 40.981,15.0005 15,30 0.00050354,55.981 3.8147e-006,85.981 0.00050354,115.981 15.0005,141.962 45,141.962 70.98,126.962 96.962,111.962 126.962,111.962 111.962,85.981 111.962,55.981 111.962,25.9815"/>
	<g id="mainPolyG" transform=""><polygon id="mainPoly" fill="rgb(252, 194, 0)" stroke="black" onmouseover="setChange(evt)" onmouseout="unhiliteChange(evt)" onclick="changeMe(evt)" points="81.962,55.981 55.981,40.981 30,55.981 30,85.981 55.981,100.981 81.962,85.981" seed="0"/><polygon fill="rgb(224, 176, 255)" stroke="black" stroke-width="1" onmouseover="setChange(evt)" onmouseout="unhiliteChange(evt)" onclick="changeMe(evt)" points="55.981,40.981 40.981,15.0005 15,30 30.0005,55.98" seed="1"/><polygon fill="rgb(224, 176, 255)" stroke="black" stroke-width="1" onmouseover="setChange(evt)" onmouseout="unhiliteChange(evt)" onclick="changeMe(evt)" points="96.962,111.962 81.962,85.981 55.981,100.981 70.98,126.962" seed="2"/><polygon fill="rgb(224, 176, 255)" stroke="black" stroke-width="1" onmouseover="setChange(evt)" onmouseout="unhiliteChange(evt)" onclick="changeMe(evt)" points="111.962,85.981 111.962,55.981 81.962,55.981 81.962,85.981" seed="3"/><polygon fill="rgb(224, 176, 255)" stroke="black" stroke-width="1" onmouseover="setChange(evt)" onmouseout="unhiliteChange(evt)" onclick="changeMe(evt)" points="30,55.981 0.00050354,55.981 3.8147e-006,85.981 30,85.98" seed="4"/><polygon fill="rgb(147, 112, 219)" stroke="black" stroke-width="1" onmouseover="setChange(evt)" onmouseout="unhiliteChange(evt)" onclick="changeMe(evt)" points="81.962,55.981 81.962,25.981 55.981,40.981" seed="5"/><polygon fill="rgb(147, 112, 219)" stroke="black" stroke-width="1" onmouseover="setChange(evt)" onmouseout="unhiliteChange(evt)" onclick="changeMe(evt)" points="55.981,100.981 30,85.981 30,115.981" seed="6"/><polygon fill="rgb(224, 176, 255)" stroke="black" stroke-width="1" onmouseover="setChange(evt)" onmouseout="unhiliteChange(evt)" onclick="changeMe(evt)" points="111.962,25.981 81.962,25.981 81.962,55.98 111.962,55.981" seed="7"/><polygon fill="rgb(224, 176, 255)" stroke="black" stroke-width="1" onmouseover="setChange(evt)" onmouseout="unhiliteChange(evt)" onclick="changeMe(evt)" points="70.981,126.962 55.981,100.981 30.0005,115.981 45,141.962" seed="8"/><polygon fill="rgb(224, 176, 255)" stroke="black" stroke-width="1" onmouseover="setChange(evt)" onmouseout="unhiliteChange(evt)" onclick="changeMe(evt)" points="30,85.981 3.8147e-006,85.981 0.00050354,115.981 30,115.981" seed="9"/><polygon fill="rgb(224, 176, 255)" stroke="black" stroke-width="1" onmouseover="setChange(evt)" onmouseout="unhiliteChange(evt)" onclick="changeMe(evt)" points="81.962,25.981 66.962,7.62939e-006 40.981,15.0005 55.981,40.981" seed="10"/><polygon fill="rgb(147, 112, 219)" stroke="black" stroke-width="1" onmouseover="setChange(evt)" onmouseout="unhiliteChange(evt)" onclick="changeMe(evt)" points="30.0005,55.981 15.0005,30 0.00050354,55.981" seed="11"/><polygon fill="rgb(147, 112, 219)" stroke="black" stroke-width="1" onmouseover="setChange(evt)" onmouseout="unhiliteChange(evt)" onclick="changeMe(evt)" points="30.0005,115.981 0.00050354,115.981 15.0005,141.962" seed="12"/><polygon fill="rgb(147, 112, 219)" stroke="black" stroke-width="1" onmouseover="setChange(evt)" onmouseout="unhiliteChange(evt)" onclick="changeMe(evt)" points="45,141.962 30.0005,115.981 15,141.962" seed="13"/><polygon fill="rgb(147, 112, 219)" stroke="black" stroke-width="1" onmouseover="setChange(evt)" onmouseout="unhiliteChange(evt)" onclick="changeMe(evt)" points="96.962,111.962 111.962,85.981 81.962,85.981" seed="14"/><polygon fill="rgb(147, 112, 219)" stroke="black" stroke-width="1" onmouseover="setChange(evt)" onmouseout="unhiliteChange(evt)" onclick="changeMe(evt)" points="126.962,111.962 111.962,85.98 96.962,111.962" seed="15"/><polygon fill="rgb(147, 112, 219)" stroke="black" stroke-width="1" onmouseover="setChange(evt)" onmouseout="unhiliteChange(evt)" onclick="changeMe(evt)" points="96.962,0.00050354 66.962,0.00050354 81.962,25.981" seed="16"/><polygon fill="rgb(147, 112, 219)" stroke="black" stroke-width="1" onmouseover="setChange(evt)" onmouseout="unhiliteChange(evt)" onclick="changeMe(evt)" points="111.962,25.9815 96.962,0.00050354 81.962,25.981" seed="17"/><polygon fill="rgb(147, 112, 219)" stroke="black" stroke-width="1" onmouseover="setChange(evt)" onmouseout="unhiliteChange(evt)" onclick="changeMe(evt)" points="126.962,0.00100708 96.962,0.00050354 111.962,25.9815" seed="18"/></g>
</svg>
