<?xml version="1.0" encoding="utf-8"?>
<svg xmlns="http://www.w3.org/2000/svg" id="mainSVG" pointer-events="all" width="300.001" height="103.924" EdgeLen="30" template="u6_530_tu" code="D10_0_5_0" copyright="Francis Hemsher, 2012">
	<polygon id="BorderPoly" fill="none" pointer-events="none" stroke="red" stroke-width="4" transform="" points="270.001,0.000545502 240.001,0.000545502 210,0.000545502 180,0.000545502 150.001,0.000545502 120,4.57764e-005 90.0002,4.57764e-005 60.0002,4.57764e-005 30.0002,4.57764e-005 15.0002,25.981 0.000244141,51.9622 15.0002,77.9432 30.0002,103.923 45.0002,77.9432 60.0002,51.9612 90.0002,51.9612 120,51.9622 150,51.9622 180,51.9622 210,51.9622 240.001,51.9622 270.001,51.9622 300.001,51.9622 285.001,25.981"/>
	<g id="mainPolyG" transform=""><polygon id="mainPoly" fill="rgb(252, 194, 0)" stroke="black" onmouseover="setChange(evt)" onmouseout="unhiliteChange(evt)" onclick="changeMe(evt)" points="150,4.57764e-005 120,4.57764e-005 105,25.981 120,51.9622 150,51.9622 165,25.981" seed="0"/><polygon fill="rgb(147, 112, 219)" stroke="black" stroke-width="1" onmouseover="setChange(evt)" onmouseout="unhiliteChange(evt)" onclick="changeMe(evt)" points="120,4.57764e-005 90.0002,4.57764e-005 105,25.9805" seed="1"/><polygon fill="rgb(147, 112, 219)" stroke="black" stroke-width="1" onmouseover="setChange(evt)" onmouseout="unhiliteChange(evt)" onclick="changeMe(evt)" points="120,51.9612 105,25.981 90.0002,51.9612" seed="2"/><polygon fill="rgb(147, 112, 219)" stroke="black" stroke-width="1" onmouseover="setChange(evt)" onmouseout="unhiliteChange(evt)" onclick="changeMe(evt)" points="180,0.000545502 150.001,0.000545502 165,25.981" seed="3"/><polygon fill="rgb(147, 112, 219)" stroke="black" stroke-width="1" onmouseover="setChange(evt)" onmouseout="unhiliteChange(evt)" onclick="changeMe(evt)" points="180,51.9622 165,25.9815 150,51.9622" seed="4"/><polygon fill="rgb(41, 171, 135)" stroke="black" stroke-width="1" onmouseover="setChange(evt)" onmouseout="unhiliteChange(evt)" onclick="changeMe(evt)" points="90.0002,4.57764e-005 60.0002,4.57764e-005 45.0002,25.981 60.0002,51.9612 90.0002,51.9612 105,25.9805" seed="5"/><polygon fill="rgb(41, 171, 135)" stroke="black" stroke-width="1" onmouseover="setChange(evt)" onmouseout="unhiliteChange(evt)" onclick="changeMe(evt)" points="210,0.000545502 180,0.000545502 165,25.981 180,51.9622 210,51.9622 225.001,25.9815" seed="6"/><polygon fill="rgb(147, 112, 219)" stroke="black" stroke-width="1" onmouseover="setChange(evt)" onmouseout="unhiliteChange(evt)" onclick="changeMe(evt)" points="240.001,0.000545502 210,0.000545502 225.001,25.9815" seed="7"/><polygon fill="rgb(147, 112, 219)" stroke="black" stroke-width="1" onmouseover="setChange(evt)" onmouseout="unhiliteChange(evt)" onclick="changeMe(evt)" points="240,51.9622 225.001,25.982 210,51.9622" seed="8"/><polygon fill="rgb(41, 171, 135)" stroke="black" stroke-width="1" onmouseover="setChange(evt)" onmouseout="unhiliteChange(evt)" onclick="changeMe(evt)" points="270.001,0.000545502 240.001,0.000545502 225.001,25.9815 240.001,51.9622 270.001,51.9622 285.001,25.9815" seed="9"/><polygon fill="rgb(147, 112, 219)" stroke="black" stroke-width="1" onmouseover="setChange(evt)" onmouseout="unhiliteChange(evt)" onclick="changeMe(evt)" points="300.001,51.9622 285.001,25.981 270.001,51.9622" seed="10"/><polygon fill="rgb(41, 171, 135)" stroke="black" stroke-width="1" onmouseover="setChange(evt)" onmouseout="unhiliteChange(evt)" onclick="changeMe(evt)" points="45.0002,25.981 15.0002,25.981 0.000244141,51.9622 15.0002,77.9432 45.0002,77.9432 60.0002,51.9612" seed="11"/><polygon fill="rgb(147, 112, 219)" stroke="black" stroke-width="1" onmouseover="setChange(evt)" onmouseout="unhiliteChange(evt)" onclick="changeMe(evt)" points="45.0002,77.9432 15.0002,77.9432 30.0002,103.923" seed="12"/><polygon fill="rgb(147, 112, 219)" stroke="black" stroke-width="1" onmouseover="setChange(evt)" onmouseout="unhiliteChange(evt)" onclick="changeMe(evt)" points="45.0002,25.981 30.0002,4.57764e-005 15.0002,25.981" seed="13"/><polygon fill="rgb(147, 112, 219)" stroke="black" stroke-width="1" onmouseover="setChange(evt)" onmouseout="unhiliteChange(evt)" onclick="changeMe(evt)" points="60.0002,4.57764e-005 30.0002,4.57764e-005 45.0002,25.981" seed="14"/></g>
</svg>
