<?xml version="1.0" encoding="utf-8"?>
<svg xmlns="http://www.w3.org/2000/svg" id="mainSVG" pointer-events="all" width="105.001" height="259.81" EdgeLen="30" template="u6_5_tu" code="D12_0_7_0" copyright="Francis Hemsher, 2012">
	<polygon id="BorderPoly" fill="none" pointer-events="none" stroke="red" stroke-width="4" transform="" points="45,0.000244141 15,0.000244141 3.8147e-006,25.9812 15.0005,51.9622 0.00050354,77.9433 15.001,103.923 0.00050354,129.904 15.0005,155.885 0.00050354,181.866 15.0005,207.847 0.00050354,233.828 15.0005,259.809 45.0005,259.809 60.0005,233.828 90.0005,233.828 105.001,207.847 90.0005,181.866 105.001,155.885 90.0005,129.904 105.001,103.924 90.0005,77.9433 105.001,51.9622 90.0005,25.9812 60.0005,25.9812"/>
	<g id="mainPolyG" transform=""><polygon id="mainPoly" fill="rgb(252, 194, 0)" stroke="black" onmouseover="setChange(evt)" onmouseout="unhiliteChange(evt)" onclick="changeMe(evt)" points="45.0005,103.923 15.0005,103.923 0.00050354,129.904 15.0005,155.885 45.0005,155.885 60.0005,129.904" seed="0"/><polygon fill="rgb(41, 171, 135)" stroke="black" stroke-width="1" onmouseover="setChange(evt)" onmouseout="unhiliteChange(evt)" onclick="changeMe(evt)" points="45.0005,155.885 15.0005,155.885 0.00050354,181.866 15.0005,207.847 45.0005,207.847 60.0005,181.866" seed="1"/><polygon fill="rgb(41, 171, 135)" stroke="black" stroke-width="1" onmouseover="setChange(evt)" onmouseout="unhiliteChange(evt)" onclick="changeMe(evt)" points="45.0005,207.847 15.0005,207.847 0.00050354,233.828 15.0005,259.809 45.0005,259.809 60.0005,233.828" seed="2"/><polygon fill="rgb(41, 171, 135)" stroke="black" stroke-width="1" onmouseover="setChange(evt)" onmouseout="unhiliteChange(evt)" onclick="changeMe(evt)" points="90.0005,181.866 60.0005,181.866 45.0005,207.847 60.0005,233.828 90.0005,233.828 105.001,207.847" seed="3"/><polygon fill="rgb(41, 171, 135)" stroke="black" stroke-width="1" onmouseover="setChange(evt)" onmouseout="unhiliteChange(evt)" onclick="changeMe(evt)" points="90.0005,129.904 60.0005,129.904 45.0005,155.885 60.0005,181.866 90.0005,181.866 105.001,155.885" seed="4"/><polygon fill="rgb(41, 171, 135)" stroke="black" stroke-width="1" onmouseover="setChange(evt)" onmouseout="unhiliteChange(evt)" onclick="changeMe(evt)" points="90.0005,77.9433 60.0005,77.9433 45.0005,103.923 60.0005,129.904 90.0005,129.904 105.001,103.924" seed="5"/><polygon fill="rgb(41, 171, 135)" stroke="black" stroke-width="1" onmouseover="setChange(evt)" onmouseout="unhiliteChange(evt)" onclick="changeMe(evt)" points="90.0005,25.9812 60.0005,25.9812 45.0005,51.9622 60.0005,77.9433 90.0005,77.9433 105.001,51.9622" seed="6"/><polygon fill="rgb(147, 112, 219)" stroke="black" stroke-width="1" onmouseover="setChange(evt)" onmouseout="unhiliteChange(evt)" onclick="changeMe(evt)" points="45.0005,103.923 30.0005,77.9422 15.0005,103.923" seed="7"/><polygon fill="rgb(147, 112, 219)" stroke="black" stroke-width="1" onmouseover="setChange(evt)" onmouseout="unhiliteChange(evt)" onclick="changeMe(evt)" points="60.0005,77.9422 30.0005,77.9422 45.0005,103.923" seed="8"/><polygon fill="rgb(147, 112, 219)" stroke="black" stroke-width="1" onmouseover="setChange(evt)" onmouseout="unhiliteChange(evt)" onclick="changeMe(evt)" points="60.0005,77.9422 45.0005,51.9612 30.0005,77.9422" seed="9"/><polygon fill="rgb(147, 112, 219)" stroke="black" stroke-width="1" onmouseover="setChange(evt)" onmouseout="unhiliteChange(evt)" onclick="changeMe(evt)" points="45,51.9622 15.0005,51.9622 30.0005,77.9422" seed="10"/><polygon fill="rgb(147, 112, 219)" stroke="black" stroke-width="1" onmouseover="setChange(evt)" onmouseout="unhiliteChange(evt)" onclick="changeMe(evt)" points="30.0005,77.9422 15.0005,51.9622 0.00050354,77.9433" seed="11"/><polygon fill="rgb(147, 112, 219)" stroke="black" stroke-width="1" onmouseover="setChange(evt)" onmouseout="unhiliteChange(evt)" onclick="changeMe(evt)" points="15.001,103.923 30.0005,77.9422 0.00050354,77.9433" seed="12"/><polygon fill="rgb(147, 112, 219)" stroke="black" stroke-width="1" onmouseover="setChange(evt)" onmouseout="unhiliteChange(evt)" onclick="changeMe(evt)" points="45,51.9622 30,25.9812 15,51.9622" seed="13"/><polygon fill="rgb(147, 112, 219)" stroke="black" stroke-width="1" onmouseover="setChange(evt)" onmouseout="unhiliteChange(evt)" onclick="changeMe(evt)" points="59.9995,25.9812 30,25.9812 45,51.9622" seed="14"/><polygon fill="rgb(147, 112, 219)" stroke="black" stroke-width="1" onmouseover="setChange(evt)" onmouseout="unhiliteChange(evt)" onclick="changeMe(evt)" points="59.9995,25.9812 45,0.000244141 30,25.9812" seed="15"/><polygon fill="rgb(147, 112, 219)" stroke="black" stroke-width="1" onmouseover="setChange(evt)" onmouseout="unhiliteChange(evt)" onclick="changeMe(evt)" points="30,25.9812 45,0.000244141 15,0.000244141" seed="16"/><polygon fill="rgb(147, 112, 219)" stroke="black" stroke-width="1" onmouseover="setChange(evt)" onmouseout="unhiliteChange(evt)" onclick="changeMe(evt)" points="30.0005,25.9812 15,0.000244141 3.8147e-006,25.9812" seed="17"/><polygon fill="rgb(147, 112, 219)" stroke="black" stroke-width="1" onmouseover="setChange(evt)" onmouseout="unhiliteChange(evt)" onclick="changeMe(evt)" points="30.0005,25.9812 0.00050354,25.9812 15.0005,51.9622" seed="18"/></g>
</svg>
