<?xml version="1.0" encoding="utf-8"?>
<svg xmlns="http://www.w3.org/2000/svg" id="mainSVG" pointer-events="all" width="197.942" height="252.847" EdgeLen="30" template="u5_160_tu" code="D12_6_2_0" copyright="Francis Hemsher, 2012">
	<polygon id="BorderPoly" fill="none" pointer-events="none" stroke="red" stroke-width="4" transform="" points="167.941,0.000495911 152.942,25.9815 137.942,51.9625 111.961,66.9635 96.961,92.9435 81.961,118.924 55.981,133.924 40.981,159.904 25.981,185.886 0,200.886 15,226.867 30,252.847 55.981,237.847 70.981,211.867 85.981,185.885 111.961,170.885 126.961,144.904 141.961,118.924 167.943,103.923 182.943,77.9425 197.942,51.9615 182.942,25.9815"/>
	<g id="mainPolyG" transform=""><polygon id="mainPoly" fill="rgb(252, 194, 0)" stroke="black" onmouseover="setChange(evt)" onmouseout="unhiliteChange(evt)" onclick="changeMe(evt)" points="126.961,92.9435 96.961,92.9435 81.961,118.924 96.961,144.904 126.961,144.904 141.961,118.924" seed="0"/><polygon fill="rgb(224, 176, 255)" stroke="black" stroke-width="1" onmouseover="setChange(evt)" onmouseout="unhiliteChange(evt)" onclick="changeMe(evt)" points="167.942,103.924 152.943,77.9435 126.962,92.9435 141.961,118.924" seed="1"/><polygon fill="rgb(224, 176, 255)" stroke="black" stroke-width="1" onmouseover="setChange(evt)" onmouseout="unhiliteChange(evt)" onclick="changeMe(evt)" points="152.942,77.9435 137.942,51.9625 111.961,66.9635 126.962,92.9435" seed="2"/><polygon fill="rgb(147, 112, 219)" stroke="black" stroke-width="1" onmouseover="setChange(evt)" onmouseout="unhiliteChange(evt)" onclick="changeMe(evt)" points="126.961,92.9435 111.961,66.9615 96.961,92.9435" seed="3"/><polygon fill="rgb(224, 176, 255)" stroke="black" stroke-width="1" onmouseover="setChange(evt)" onmouseout="unhiliteChange(evt)" onclick="changeMe(evt)" points="96.961,144.904 81.961,118.924 55.981,133.923 70.981,159.904" seed="4"/><polygon fill="rgb(224, 176, 255)" stroke="black" stroke-width="1" onmouseover="setChange(evt)" onmouseout="unhiliteChange(evt)" onclick="changeMe(evt)" points="111.961,170.885 96.961,144.904 70.981,159.904 85.981,185.885" seed="5"/><polygon fill="rgb(41, 171, 135)" stroke="black" stroke-width="1" onmouseover="setChange(evt)" onmouseout="unhiliteChange(evt)" onclick="changeMe(evt)" points="70.981,159.904 40.981,159.904 25.981,185.886 40.981,211.867 70.981,211.867 85.981,185.886" seed="6"/><polygon fill="rgb(224, 176, 255)" stroke="black" stroke-width="1" onmouseover="setChange(evt)" onmouseout="unhiliteChange(evt)" onclick="changeMe(evt)" points="40.981,211.867 25.981,185.886 0,200.886 15,226.867" seed="7"/><polygon fill="rgb(224, 176, 255)" stroke="black" stroke-width="1" onmouseover="setChange(evt)" onmouseout="unhiliteChange(evt)" onclick="changeMe(evt)" points="55.981,237.847 40.981,211.867 15,226.867 30,252.847" seed="8"/><polygon fill="rgb(147, 112, 219)" stroke="black" stroke-width="1" onmouseover="setChange(evt)" onmouseout="unhiliteChange(evt)" onclick="changeMe(evt)" points="70.981,159.904 55.981,133.924 40.981,159.904" seed="9"/><polygon fill="rgb(147, 112, 219)" stroke="black" stroke-width="1" onmouseover="setChange(evt)" onmouseout="unhiliteChange(evt)" onclick="changeMe(evt)" points="111.961,170.885 126.961,144.903 96.961,144.904" seed="10"/><polygon fill="rgb(147, 112, 219)" stroke="black" stroke-width="1" onmouseover="setChange(evt)" onmouseout="unhiliteChange(evt)" onclick="changeMe(evt)" points="55.981,237.847 70.981,211.865 40.981,211.867" seed="11"/><polygon fill="rgb(147, 112, 219)" stroke="black" stroke-width="1" onmouseover="setChange(evt)" onmouseout="unhiliteChange(evt)" onclick="changeMe(evt)" points="152.942,77.9435 167.942,51.9625 137.942,51.9625" seed="12"/><polygon fill="rgb(147, 112, 219)" stroke="black" stroke-width="1" onmouseover="setChange(evt)" onmouseout="unhiliteChange(evt)" onclick="changeMe(evt)" points="167.942,51.9625 152.942,25.9815 137.942,51.9625" seed="13"/><polygon fill="rgb(147, 112, 219)" stroke="black" stroke-width="1" onmouseover="setChange(evt)" onmouseout="unhiliteChange(evt)" onclick="changeMe(evt)" points="167.942,51.9625 182.942,25.9815 152.942,25.9815" seed="14"/><polygon fill="rgb(147, 112, 219)" stroke="black" stroke-width="1" onmouseover="setChange(evt)" onmouseout="unhiliteChange(evt)" onclick="changeMe(evt)" points="182.942,25.9815 167.941,0.000495911 152.942,25.9815" seed="15"/><polygon fill="rgb(147, 112, 219)" stroke="black" stroke-width="1" onmouseover="setChange(evt)" onmouseout="unhiliteChange(evt)" onclick="changeMe(evt)" points="197.942,51.9615 182.942,25.9815 167.942,51.9625" seed="16"/><polygon fill="rgb(147, 112, 219)" stroke="black" stroke-width="1" onmouseover="setChange(evt)" onmouseout="unhiliteChange(evt)" onclick="changeMe(evt)" points="182.943,77.9425 197.942,51.9615 167.942,51.9625" seed="17"/><polygon fill="rgb(147, 112, 219)" stroke="black" stroke-width="1" onmouseover="setChange(evt)" onmouseout="unhiliteChange(evt)" onclick="changeMe(evt)" points="182.943,77.9425 167.942,51.9615 152.943,77.9435" seed="18"/><polygon fill="rgb(147, 112, 219)" stroke="black" stroke-width="1" onmouseover="setChange(evt)" onmouseout="unhiliteChange(evt)" onclick="changeMe(evt)" points="167.943,103.923 182.943,77.9425 152.943,77.9435" seed="19"/></g>
</svg>
