<?xml version="1.0" encoding="utf-8"?>
<svg xmlns="http://www.w3.org/2000/svg" id="mainSVG" pointer-events="all" width="195.001" height="129.905" EdgeLen="30" template="u6_47_tu" code="D12_0_6_0" copyright="Francis Hemsher, 2012">
	<polygon id="BorderPoly" fill="none" pointer-events="none" stroke="red" stroke-width="4" transform="" points="180.001,0 150.001,0 135.001,25.981 105.001,25.981 90.0008,0.000999451 60.0008,0.000999451 45.0008,25.9815 14.9997,25.9815 4.57764e-005,51.9625 14.9997,77.9435 0.000549316,103.924 15.0007,129.904 44.9997,129.904 60.0008,103.924 90.0008,103.924 105.001,129.904 135.001,129.904 150.001,103.924 180.001,103.924 195.001,77.9435 180.001,51.9625 195.001,25.981"/>
	<g id="mainPolyG" transform=""><polygon id="mainPoly" fill="rgb(252, 194, 0)" stroke="black" onmouseover="setChange(evt)" onmouseout="unhiliteChange(evt)" onclick="changeMe(evt)" points="135.001,77.9435 105.001,77.9435 90.0008,103.924 105.001,129.904 135.001,129.904 150.001,103.924" seed="0"/><polygon fill="rgb(41, 171, 135)" stroke="black" stroke-width="1" onmouseover="setChange(evt)" onmouseout="unhiliteChange(evt)" onclick="changeMe(evt)" points="135.001,25.981 105.001,25.981 90.0008,51.9625 105.001,77.9435 135.001,77.9435 150.001,51.9625" seed="1"/><polygon fill="rgb(41, 171, 135)" stroke="black" stroke-width="1" onmouseover="setChange(evt)" onmouseout="unhiliteChange(evt)" onclick="changeMe(evt)" points="180.001,0 150.001,0 135.001,25.981 150.001,51.9625 180.001,51.9625 195.001,25.981" seed="2"/><polygon fill="rgb(41, 171, 135)" stroke="black" stroke-width="1" onmouseover="setChange(evt)" onmouseout="unhiliteChange(evt)" onclick="changeMe(evt)" points="180.001,51.9625 150.001,51.9625 135.001,77.9435 150.001,103.924 180.001,103.924 195.001,77.9435" seed="3"/><polygon fill="rgb(147, 112, 219)" stroke="black" stroke-width="1" onmouseover="setChange(evt)" onmouseout="unhiliteChange(evt)" onclick="changeMe(evt)" points="105.001,77.9435 90.0008,51.9625 75.0008,77.9435" seed="4"/><polygon fill="rgb(147, 112, 219)" stroke="black" stroke-width="1" onmouseover="setChange(evt)" onmouseout="unhiliteChange(evt)" onclick="changeMe(evt)" points="105.001,77.9435 75.0008,77.9435 90.0008,103.924" seed="5"/><polygon fill="rgb(147, 112, 219)" stroke="black" stroke-width="1" onmouseover="setChange(evt)" onmouseout="unhiliteChange(evt)" onclick="changeMe(evt)" points="90.0008,51.9625 60.0008,51.9625 75.0008,77.9435" seed="6"/><polygon fill="rgb(147, 112, 219)" stroke="black" stroke-width="1" onmouseover="setChange(evt)" onmouseout="unhiliteChange(evt)" onclick="changeMe(evt)" points="75.0008,77.9435 60.0008,51.9625 45.0008,77.9435" seed="7"/><polygon fill="rgb(147, 112, 219)" stroke="black" stroke-width="1" onmouseover="setChange(evt)" onmouseout="unhiliteChange(evt)" onclick="changeMe(evt)" points="75.0008,77.9435 45.0008,77.9435 60.0008,103.924" seed="8"/><polygon fill="rgb(147, 112, 219)" stroke="black" stroke-width="1" onmouseover="setChange(evt)" onmouseout="unhiliteChange(evt)" onclick="changeMe(evt)" points="90.0008,103.924 75.0008,77.9435 60.0008,103.924" seed="9"/><polygon fill="rgb(147, 112, 219)" stroke="black" stroke-width="1" onmouseover="setChange(evt)" onmouseout="unhiliteChange(evt)" onclick="changeMe(evt)" points="90.0008,51.9625 75.0008,25.9815 60.0008,51.9625" seed="10"/><polygon fill="rgb(147, 112, 219)" stroke="black" stroke-width="1" onmouseover="setChange(evt)" onmouseout="unhiliteChange(evt)" onclick="changeMe(evt)" points="75.0008,25.9815 45.0008,25.9815 60.0008,51.9625" seed="11"/><polygon fill="rgb(147, 112, 219)" stroke="black" stroke-width="1" onmouseover="setChange(evt)" onmouseout="unhiliteChange(evt)" onclick="changeMe(evt)" points="75.0008,25.9815 60.0008,0.00050354 45.0008,25.9815" seed="12"/><polygon fill="rgb(147, 112, 219)" stroke="black" stroke-width="1" onmouseover="setChange(evt)" onmouseout="unhiliteChange(evt)" onclick="changeMe(evt)" points="90.0008,0.000999451 60.0008,0.000999451 75.0008,25.9815" seed="13"/><polygon fill="rgb(147, 112, 219)" stroke="black" stroke-width="1" onmouseover="setChange(evt)" onmouseout="unhiliteChange(evt)" onclick="changeMe(evt)" points="105.001,25.982 90.0008,0.000999451 75.0008,25.9815" seed="14"/><polygon fill="rgb(147, 112, 219)" stroke="black" stroke-width="1" onmouseover="setChange(evt)" onmouseout="unhiliteChange(evt)" onclick="changeMe(evt)" points="105.001,25.982 75.0008,25.9815 89.9997,51.9625" seed="15"/><polygon fill="rgb(41, 171, 135)" stroke="black" stroke-width="1" onmouseover="setChange(evt)" onmouseout="unhiliteChange(evt)" onclick="changeMe(evt)" points="45.0008,25.9815 14.9997,25.9815 4.57764e-005,51.9625 14.9997,77.9435 45.0008,77.9435 60.0008,51.9625" seed="16"/><polygon fill="rgb(41, 171, 135)" stroke="black" stroke-width="1" onmouseover="setChange(evt)" onmouseout="unhiliteChange(evt)" onclick="changeMe(evt)" points="45.0008,77.9435 15.0007,77.9435 0.000549316,103.924 15.0007,129.904 44.9997,129.904 60.0008,103.924" seed="17"/></g>
</svg>
