<?xml version="1.0" encoding="utf-8"?>
<svg xmlns="http://www.w3.org/2000/svg" id="mainSVG" pointer-events="all" width="223.923" height="208.925" EdgeLen="30" template="ark3_8_tu" code="D12_6_1_2" copyright="Francis Hemsher, 2012">
	<polygon id="BorderPoly" fill="none" pointer-events="none" stroke="red" stroke-width="4" transform="" points="182.942,14.9995 152.942,14.9995 126.961,-0.000495911 96.9613,0.00050354 70.9803,15.0015 40.9793,15.0025 55.9813,40.9825 55.9813,70.9825 40.9823,96.9635 15.0003,111.962 0.000320435,137.943 0.000320435,167.943 15.0003,193.923 40.9813,208.923 70.9813,208.923 96.9613,193.923 126.961,193.923 152.942,208.924 182.941,208.926 208.922,193.924 223.923,167.944 223.923,137.945 208.924,111.964 182.943,96.9625 167.942,70.9795 167.942,40.9805"/>
	<g id="mainPolyG" transform=""><polygon id="mainPoly" fill="rgb(252, 194, 0)" stroke="black" onmouseover="setChange(evt)" onmouseout="unhiliteChange(evt)" onclick="changeMe(evt)" points="70.9813,96.9625 40.9813,96.9615 15.0003,111.962 0.000320435,137.943 0.000320435,167.943 15.0003,193.923 40.9813,208.923 70.9813,208.923 96.9613,193.923 111.961,167.943 111.962,137.943 96.9623,111.963" seed="0"/><polygon fill="rgb(64, 130, 109)" stroke="black" stroke-width="1" onmouseover="setChange(evt)" onmouseout="unhiliteChange(evt)" onclick="changeMe(evt)" points="182.943,96.9625 152.943,96.9625 126.962,111.963 111.962,137.944 111.961,167.943 126.961,193.923 152.942,208.924 182.941,208.926 208.922,193.924 223.923,167.944 223.923,137.945 208.924,111.964" seed="1"/><polygon fill="rgb(147, 112, 219)" stroke="black" stroke-width="1" onmouseover="setChange(evt)" onmouseout="unhiliteChange(evt)" onclick="changeMe(evt)" points="96.9623,111.963 96.9623,81.9625 70.9813,96.9625" seed="2"/><polygon fill="rgb(147, 112, 219)" stroke="black" stroke-width="1" onmouseover="setChange(evt)" onmouseout="unhiliteChange(evt)" onclick="changeMe(evt)" points="126.962,111.962 96.9623,111.962 111.962,137.943" seed="3"/><polygon fill="rgb(147, 112, 219)" stroke="black" stroke-width="1" onmouseover="setChange(evt)" onmouseout="unhiliteChange(evt)" onclick="changeMe(evt)" points="152.943,96.9625 126.963,81.9625 126.962,111.963" seed="4"/><polygon fill="rgb(224, 176, 255)" stroke="black" stroke-width="1" onmouseover="setChange(evt)" onmouseout="unhiliteChange(evt)" onclick="changeMe(evt)" points="126.961,111.962 126.962,81.9615 96.9623,81.9625 96.9623,111.962" seed="5"/><polygon fill="rgb(41, 171, 135)" stroke="black" stroke-width="1" onmouseover="setChange(evt)" onmouseout="unhiliteChange(evt)" onclick="changeMe(evt)" points="141.961,55.9805 126.961,29.9995 96.9613,30.0005 81.9613,55.9815 96.9623,81.9625 126.962,81.9615" seed="6"/><polygon fill="rgb(224, 176, 255)" stroke="black" stroke-width="1" onmouseover="setChange(evt)" onmouseout="unhiliteChange(evt)" onclick="changeMe(evt)" points="96.9623,81.9625 81.9613,55.9825 55.9813,70.9825 70.9823,96.9625" seed="7"/><polygon fill="rgb(224, 176, 255)" stroke="black" stroke-width="1" onmouseover="setChange(evt)" onmouseout="unhiliteChange(evt)" onclick="changeMe(evt)" points="96.9613,30.0015 70.9803,15.0015 55.9813,40.9825 81.9613,55.9815" seed="8"/><polygon fill="rgb(224, 176, 255)" stroke="black" stroke-width="1" onmouseover="setChange(evt)" onmouseout="unhiliteChange(evt)" onclick="changeMe(evt)" points="126.961,29.9995 126.961,-0.000495911 96.9613,0.00050354 96.9613,30.0005" seed="9"/><polygon fill="rgb(224, 176, 255)" stroke="black" stroke-width="1" onmouseover="setChange(evt)" onmouseout="unhiliteChange(evt)" onclick="changeMe(evt)" points="167.942,40.9805 152.942,14.9995 126.961,29.9995 141.961,55.9805" seed="10"/><polygon fill="rgb(224, 176, 255)" stroke="black" stroke-width="1" onmouseover="setChange(evt)" onmouseout="unhiliteChange(evt)" onclick="changeMe(evt)" points="167.942,70.9795 141.961,55.9805 126.962,81.9615 152.943,96.9605" seed="11"/><polygon fill="rgb(147, 112, 219)" stroke="black" stroke-width="1" onmouseover="setChange(evt)" onmouseout="unhiliteChange(evt)" onclick="changeMe(evt)" points="81.9613,55.9825 55.9803,40.9825 55.9803,70.9825" seed="12"/><polygon fill="rgb(147, 112, 219)" stroke="black" stroke-width="1" onmouseover="setChange(evt)" onmouseout="unhiliteChange(evt)" onclick="changeMe(evt)" points="96.9613,30.0015 96.9613,0.00150299 70.9803,15.0015" seed="13"/><polygon fill="rgb(147, 112, 219)" stroke="black" stroke-width="1" onmouseover="setChange(evt)" onmouseout="unhiliteChange(evt)" onclick="changeMe(evt)" points="152.941,14.9995 126.961,-0.000495911 126.961,29.9995" seed="14"/><polygon fill="rgb(147, 112, 219)" stroke="black" stroke-width="1" onmouseover="setChange(evt)" onmouseout="unhiliteChange(evt)" onclick="changeMe(evt)" points="167.942,70.9805 167.942,40.9805 141.961,55.9805" seed="15"/><polygon fill="rgb(147, 112, 219)" stroke="black" stroke-width="1" onmouseover="setChange(evt)" onmouseout="unhiliteChange(evt)" onclick="changeMe(evt)" points="55.9803,40.9825 70.9803,15.0015 40.9793,15.0025" seed="16"/><polygon fill="rgb(147, 112, 219)" stroke="black" stroke-width="1" onmouseover="setChange(evt)" onmouseout="unhiliteChange(evt)" onclick="changeMe(evt)" points="167.942,40.9805 182.942,14.9995 152.942,15.0005" seed="17"/><polygon fill="rgb(147, 112, 219)" stroke="black" stroke-width="1" onmouseover="setChange(evt)" onmouseout="unhiliteChange(evt)" onclick="changeMe(evt)" points="182.943,96.9595 167.942,70.9795 152.943,96.9605" seed="18"/><polygon fill="rgb(147, 112, 219)" stroke="black" stroke-width="1" onmouseover="setChange(evt)" onmouseout="unhiliteChange(evt)" onclick="changeMe(evt)" points="70.9823,96.9625 55.9813,70.9825 40.9823,96.9635" seed="19"/><polygon fill="rgb(147, 112, 219)" stroke="black" stroke-width="1" onmouseover="setChange(evt)" onmouseout="unhiliteChange(evt)" onclick="changeMe(evt)" points="126.961,193.923 111.961,167.943 96.9613,193.923" seed="20"/></g>
</svg>
