<?xml version="1.0" encoding="utf-8"?>
<svg xmlns="http://www.w3.org/2000/svg" id="mainSVG" pointer-events="all" width="223.927" height="305.883" EdgeLen="30" template="ark4_14_tu" code="D18_6_0_2" copyright="Francis Hemsher, 2012">
	<polygon id="BorderPoly" fill="none" pointer-events="none" stroke="red" stroke-width="4" transform="" points="182.947,0.00050354 152.947,-0.00050354 126.966,14.9985 111.965,40.9795 111.964,70.9805 96.9638,96.9605 70.9828,111.961 40.9828,111.96 55.9818,137.94 55.9818,167.94 40.9808,193.921 15.0008,208.921 -0.000175476,234.902 -0.000175476,264.902 14.9998,290.883 40.9808,305.883 70.9808,305.883 96.9618,290.883 111.962,264.902 111.962,234.902 126.962,208.921 152.943,193.923 182.943,193.923 167.943,167.943 167.944,137.943 182.944,111.962 208.926,96.9625 223.926,70.9825 223.927,40.9815 208.927,15.0015"/>
	<g id="mainPolyG" transform=""><polygon id="mainPoly" fill="rgb(252, 194, 0)" stroke="black" onmouseover="setChange(evt)" onmouseout="unhiliteChange(evt)" onclick="changeMe(evt)" points="70.9808,193.922 40.9808,193.921 15.0008,208.921 -0.000175476,234.902 -0.000175476,264.902 14.9998,290.883 40.9808,305.883 70.9808,305.883 96.9618,290.883 111.962,264.902 111.962,234.902 96.9618,208.922" seed="0"/><polygon fill="rgb(147, 112, 219)" stroke="black" stroke-width="1" onmouseover="setChange(evt)" onmouseout="unhiliteChange(evt)" onclick="changeMe(evt)" points="70.9808,193.922 55.9818,167.94 40.9808,193.921" seed="1"/><polygon fill="rgb(147, 112, 219)" stroke="black" stroke-width="1" onmouseover="setChange(evt)" onmouseout="unhiliteChange(evt)" onclick="changeMe(evt)" points="96.9618,208.922 96.9618,178.922 70.9818,193.922" seed="2"/><polygon fill="rgb(147, 112, 219)" stroke="black" stroke-width="1" onmouseover="setChange(evt)" onmouseout="unhiliteChange(evt)" onclick="changeMe(evt)" points="111.962,234.902 126.962,208.921 96.9618,208.922" seed="3"/><polygon fill="rgb(224, 176, 255)" stroke="black" stroke-width="1" onmouseover="setChange(evt)" onmouseout="unhiliteChange(evt)" onclick="changeMe(evt)" points="96.9618,178.922 81.9628,152.941 55.9818,167.94 70.9808,193.922" seed="4"/><polygon fill="rgb(224, 176, 255)" stroke="black" stroke-width="1" onmouseover="setChange(evt)" onmouseout="unhiliteChange(evt)" onclick="changeMe(evt)" points="126.962,178.922 96.9618,178.922 96.9618,208.921 126.962,208.922" seed="5"/><polygon fill="rgb(147, 112, 219)" stroke="black" stroke-width="1" onmouseover="setChange(evt)" onmouseout="unhiliteChange(evt)" onclick="changeMe(evt)" points="111.963,152.941 81.9628,152.941 96.9618,178.922" seed="6"/><polygon fill="rgb(147, 112, 219)" stroke="black" stroke-width="1" onmouseover="setChange(evt)" onmouseout="unhiliteChange(evt)" onclick="changeMe(evt)" points="126.962,178.923 111.963,152.941 96.9618,178.922" seed="7"/><polygon fill="rgb(147, 112, 219)" stroke="black" stroke-width="1" onmouseover="setChange(evt)" onmouseout="unhiliteChange(evt)" onclick="changeMe(evt)" points="141.963,152.941 111.963,152.941 126.962,178.923" seed="8"/><polygon fill="rgb(147, 112, 219)" stroke="black" stroke-width="1" onmouseover="setChange(evt)" onmouseout="unhiliteChange(evt)" onclick="changeMe(evt)" points="141.963,152.941 126.963,126.961 111.963,152.941" seed="9"/><polygon fill="rgb(147, 112, 219)" stroke="black" stroke-width="1" onmouseover="setChange(evt)" onmouseout="unhiliteChange(evt)" onclick="changeMe(evt)" points="126.963,126.961 96.9628,126.961 111.963,152.941" seed="10"/><polygon fill="rgb(147, 112, 219)" stroke="black" stroke-width="1" onmouseover="setChange(evt)" onmouseout="unhiliteChange(evt)" onclick="changeMe(evt)" points="111.963,152.941 96.9628,126.961 81.9628,152.941" seed="11"/><polygon fill="rgb(224, 176, 255)" stroke="black" stroke-width="1" onmouseover="setChange(evt)" onmouseout="unhiliteChange(evt)" onclick="changeMe(evt)" points="96.9628,126.961 70.9828,111.961 55.9818,137.94 81.9628,152.941" seed="12"/><polygon fill="rgb(224, 176, 255)" stroke="black" stroke-width="1" onmouseover="setChange(evt)" onmouseout="unhiliteChange(evt)" onclick="changeMe(evt)" points="126.964,96.9605 96.9638,96.9605 96.9628,126.961 126.963,126.961" seed="13"/><polygon fill="rgb(224, 176, 255)" stroke="black" stroke-width="1" onmouseover="setChange(evt)" onmouseout="unhiliteChange(evt)" onclick="changeMe(evt)" points="167.944,137.943 152.944,111.962 126.963,126.961 141.963,152.941" seed="14"/><polygon fill="rgb(224, 176, 255)" stroke="black" stroke-width="1" onmouseover="setChange(evt)" onmouseout="unhiliteChange(evt)" onclick="changeMe(evt)" points="167.943,167.943 141.963,152.941 126.962,178.922 152.943,193.923" seed="15"/><polygon fill="rgb(147, 112, 219)" stroke="black" stroke-width="1" onmouseover="setChange(evt)" onmouseout="unhiliteChange(evt)" onclick="changeMe(evt)" points="81.9628,152.941 55.9828,137.94 55.9818,167.94" seed="16"/><polygon fill="rgb(147, 112, 219)" stroke="black" stroke-width="1" onmouseover="setChange(evt)" onmouseout="unhiliteChange(evt)" onclick="changeMe(evt)" points="96.9628,126.961 96.9638,96.9605 70.9828,111.961" seed="17"/><polygon fill="rgb(147, 112, 219)" stroke="black" stroke-width="1" onmouseover="setChange(evt)" onmouseout="unhiliteChange(evt)" onclick="changeMe(evt)" points="152.944,111.962 126.964,96.9605 126.963,126.961" seed="18"/><polygon fill="rgb(147, 112, 219)" stroke="black" stroke-width="1" onmouseover="setChange(evt)" onmouseout="unhiliteChange(evt)" onclick="changeMe(evt)" points="167.943,167.943 167.944,137.943 141.962,152.941" seed="19"/><polygon fill="rgb(147, 112, 219)" stroke="black" stroke-width="1" onmouseover="setChange(evt)" onmouseout="unhiliteChange(evt)" onclick="changeMe(evt)" points="152.942,193.923 126.962,178.922 126.961,208.922" seed="20"/><polygon fill="rgb(147, 112, 219)" stroke="black" stroke-width="1" onmouseover="setChange(evt)" onmouseout="unhiliteChange(evt)" onclick="changeMe(evt)" points="182.943,193.923 167.943,167.943 152.943,193.923" seed="21"/><polygon fill="rgb(147, 112, 219)" stroke="black" stroke-width="1" onmouseover="setChange(evt)" onmouseout="unhiliteChange(evt)" onclick="changeMe(evt)" points="70.9828,111.96 40.9828,111.96 55.9818,137.94" seed="22"/><polygon fill="rgb(147, 112, 219)" stroke="black" stroke-width="1" onmouseover="setChange(evt)" onmouseout="unhiliteChange(evt)" onclick="changeMe(evt)" points="126.964,96.9605 111.964,70.9805 96.9638,96.9605" seed="23"/><polygon fill="rgb(147, 112, 219)" stroke="black" stroke-width="1" onmouseover="setChange(evt)" onmouseout="unhiliteChange(evt)" onclick="changeMe(evt)" points="182.944,111.962 152.944,111.962 167.944,137.943" seed="24"/><polygon fill="rgb(64, 130, 109)" stroke="black" stroke-width="1" onmouseover="setChange(evt)" onmouseout="unhiliteChange(evt)" onclick="changeMe(evt)" points="182.947,0.00050354 152.947,-0.00050354 126.966,14.9985 111.965,40.9795 111.964,70.9805 126.964,96.9605 152.944,111.962 182.945,111.962 208.926,96.9625 223.926,70.9825 223.927,40.9815 208.927,15.0015" seed="25"/></g>
</svg>
