<?xml version="1.0" encoding="utf-8"?>
<svg xmlns="http://www.w3.org/2000/svg" id="mainSVG" pointer-events="all" width="280" height="220" EdgeLen="30" template="u6_67_tu" code="D18_0_13_0" copyright="Francis Hemsher, 2012">
	<polygon id="BorderPoly" fill="none" pointer-events="none" stroke="red" stroke-width="4" transform="" points="195.001,0.00025177 165.001,0.00025177 135.001,0.00025177 105.001,0.00025177 75.0005,0.00025177 90.0005,25.9812 75.0005,51.9612 45.0005,51.9612 29.9995,77.9422 -0.000488281,77.9433 15.0005,103.923 29.9995,129.904 15.0005,155.885 0.000518799,181.865 30.0005,181.866 45.0005,207.847 74.9995,207.847 105.001,207.847 135.001,207.847 165.001,207.847 195.001,207.847 180.001,181.867 210.001,181.866 225.001,155.884 255.002,155.885 270.001,129.904 255.001,103.923 225.001,103.923 210.001,77.9433 180.001,77.9422 195.001,51.9622 210.001,25.9812"/><g id="mainPolyG" transform=""><polygon id="mainPoly" fill="rgb(41, 171, 135)" stroke="black" onmouseover="setChange(evt)" onmouseout="unhiliteChange(evt)" onclick="changeMe(evt)" points="165.001,155.885 135.001,155.885 120.001,181.866 135.001,207.847 165.001,207.847 180.001,181.866" seed="0"/><polygon fill="rgb(147, 112, 219)" stroke="black" stroke-width="1" onmouseover="setChange(evt)" onmouseout="unhiliteChange(evt)" onclick="changeMe(evt)" points="135.001,155.885 105.001,155.885 120.001,181.866" seed="1"/><polygon fill="rgb(147, 112, 219)" stroke="black" stroke-width="1" onmouseover="setChange(evt)" onmouseout="unhiliteChange(evt)" onclick="changeMe(evt)" points="135,207.847 120.001,181.866 105.001,207.847" seed="2"/><polygon fill="rgb(41, 171, 135)" stroke="black" stroke-width="1" onmouseover="setChange(evt)" onmouseout="unhiliteChange(evt)" onclick="changeMe(evt)" points="105.001,155.885 74.9995,155.885 59.9995,181.866 74.9995,207.847 105.001,207.847 120.001,181.866" seed="3"/><polygon fill="rgb(41, 171, 135)" stroke="black" stroke-width="1" onmouseover="setChange(evt)" onmouseout="unhiliteChange(evt)" onclick="changeMe(evt)" points="105.001,103.923 75.0005,103.923 60.0005,129.904 75.0005,155.885 105.001,155.885 120.001,129.904" seed="4"/><polygon fill="rgb(41, 171, 135)" stroke="black" stroke-width="1" onmouseover="setChange(evt)" onmouseout="unhiliteChange(evt)" onclick="changeMe(evt)" points="165.001,103.923 135.001,103.923 120.001,129.904 135.001,155.885 165.001,155.885 180.001,129.904" seed="5"/><polygon fill="rgb(41, 171, 135)" stroke="black" stroke-width="1" onmouseover="setChange(evt)" onmouseout="unhiliteChange(evt)" onclick="changeMe(evt)" points="105.001,51.9612 75.0005,51.9612 60.0005,77.9422 75.0005,103.923 105.001,103.923 120.001,77.9422" seed="6"/><polygon fill="rgb(41, 171, 135)" stroke="black" stroke-width="1" onmouseover="setChange(evt)" onmouseout="unhiliteChange(evt)" onclick="changeMe(evt)" points="165.001,51.9612 135.001,51.9612 120.001,77.9422 135.001,103.923 165.001,103.923 180.001,77.9422" seed="7"/><polygon fill="rgb(147, 112, 219)" stroke="black" stroke-width="1" onmouseover="setChange(evt)" onmouseout="unhiliteChange(evt)" onclick="changeMe(evt)" points="135.001,51.9622 105.001,51.9622 120.001,77.9422" seed="8"/><polygon fill="rgb(147, 112, 219)" stroke="black" stroke-width="1" onmouseover="setChange(evt)" onmouseout="unhiliteChange(evt)" onclick="changeMe(evt)" points="135.001,103.923 120.001,77.9433 105.001,103.923" seed="9"/><polygon fill="rgb(255, 191, 0)" stroke="black" stroke-width="1" onmouseover="setChange(evt)" onmouseout="unhiliteChange(evt)" onclick="changeMe(evt)" points="135.001,0.00025177 105.001,0.00025177 90.0005,25.9812 105.001,51.9622 135.001,51.9622 150.001,25.9812" seed="10"/><polygon fill="rgb(147, 112, 219)" stroke="black" stroke-width="1" onmouseover="setChange(evt)" onmouseout="unhiliteChange(evt)" onclick="changeMe(evt)" points="195.001,51.9622 165.001,51.9622 180.001,77.9422" seed="11"/><polygon fill="rgb(41, 171, 135)" stroke="black" stroke-width="1" onmouseover="setChange(evt)" onmouseout="unhiliteChange(evt)" onclick="changeMe(evt)" points="195.001,0.00025177 165.001,0.00025177 150.001,25.9812 165.001,51.9622 195.001,51.9622 210.001,25.9812" seed="12"/><polygon fill="rgb(41, 171, 135)" stroke="black" stroke-width="1" onmouseover="setChange(evt)" onmouseout="unhiliteChange(evt)" onclick="changeMe(evt)" points="60.0005,77.9422 29.9995,77.9422 15.0005,103.923 29.9995,129.904 60.0005,129.904 75.0005,103.923" seed="13"/><polygon fill="rgb(41, 171, 135)" stroke="black" stroke-width="1" onmouseover="setChange(evt)" onmouseout="unhiliteChange(evt)" onclick="changeMe(evt)" points="60.0005,129.904 30.0005,129.904 15.0005,155.885 30.0005,181.866 60.0005,181.866 75.0005,155.885" seed="14"/><polygon fill="rgb(41, 171, 135)" stroke="black" stroke-width="1" onmouseover="setChange(evt)" onmouseout="unhiliteChange(evt)" onclick="changeMe(evt)" points="210.001,77.9433 180.001,77.9422 165.001,103.923 180.001,129.904 210.001,129.904 225.001,103.923" seed="15"/><polygon fill="rgb(41, 171, 135)" stroke="black" stroke-width="1" onmouseover="setChange(evt)" onmouseout="unhiliteChange(evt)" onclick="changeMe(evt)" points="210.001,129.904 180.001,129.904 165.001,155.885 180.001,181.866 210.001,181.866 225.001,155.885" seed="16"/><polygon fill="rgb(41, 171, 135)" stroke="black" stroke-width="1" onmouseover="setChange(evt)" onmouseout="unhiliteChange(evt)" onclick="changeMe(evt)" points="255.001,103.923 225.001,103.923 210.001,129.904 225.001,155.884 255.002,155.885 270.001,129.904" seed="17"/><polygon fill="rgb(147, 112, 219)" stroke="black" stroke-width="1" onmouseover="setChange(evt)" onmouseout="unhiliteChange(evt)" onclick="changeMe(evt)" points="90.0005,25.9803 105.001,0.00025177 75.0005,0.00025177" seed="18"/><polygon fill="rgb(147, 112, 219)" stroke="black" stroke-width="1" onmouseover="setChange(evt)" onmouseout="unhiliteChange(evt)" onclick="changeMe(evt)" points="105.001,51.9622 90.0005,25.9812 75.0005,51.9612" seed="19"/><polygon fill="rgb(147, 112, 219)" stroke="black" stroke-width="1" onmouseover="setChange(evt)" onmouseout="unhiliteChange(evt)" onclick="changeMe(evt)" points="165.001,0.00025177 135.002,0.00025177 150.001,25.9812" seed="20"/><polygon fill="rgb(147, 112, 219)" stroke="black" stroke-width="1" onmouseover="setChange(evt)" onmouseout="unhiliteChange(evt)" onclick="changeMe(evt)" points="165.001,51.9622 150.001,25.9812 135.001,51.9622" seed="21"/><polygon fill="rgb(147, 112, 219)" stroke="black" stroke-width="1" onmouseover="setChange(evt)" onmouseout="unhiliteChange(evt)" onclick="changeMe(evt)" points="75.0005,51.9612 45.0005,51.9612 60.0005,77.9422" seed="22"/><polygon fill="rgb(147, 112, 219)" stroke="black" stroke-width="1" onmouseover="setChange(evt)" onmouseout="unhiliteChange(evt)" onclick="changeMe(evt)" points="59.9995,77.9422 44.9995,51.9612 29.9995,77.9422" seed="23"/><polygon fill="rgb(147, 112, 219)" stroke="black" stroke-width="1" onmouseover="setChange(evt)" onmouseout="unhiliteChange(evt)" onclick="changeMe(evt)" points="15.0005,103.923 29.9995,77.9422 -0.000488281,77.9433" seed="24"/><polygon fill="rgb(147, 112, 219)" stroke="black" stroke-width="1" onmouseover="setChange(evt)" onmouseout="unhiliteChange(evt)" onclick="changeMe(evt)" points="30.0005,181.866 15.0005,155.885 0.000518799,181.865" seed="25"/><polygon fill="rgb(147, 112, 219)" stroke="black" stroke-width="1" onmouseover="setChange(evt)" onmouseout="unhiliteChange(evt)" onclick="changeMe(evt)" points="135.001,103.923 105.001,103.923 120.001,129.904" seed="26"/><polygon fill="rgb(147, 112, 219)" stroke="black" stroke-width="1" onmouseover="setChange(evt)" onmouseout="unhiliteChange(evt)" onclick="changeMe(evt)" points="135.001,155.885 120.001,129.904 105.001,155.885" seed="27"/><polygon fill="rgb(147, 112, 219)" stroke="black" stroke-width="1" onmouseover="setChange(evt)" onmouseout="unhiliteChange(evt)" onclick="changeMe(evt)" points="195.001,207.847 180.001,181.867 165.001,207.847" seed="28"/><polygon fill="rgb(147, 112, 219)" stroke="black" stroke-width="1" onmouseover="setChange(evt)" onmouseout="unhiliteChange(evt)" onclick="changeMe(evt)" points="60.0005,181.866 30.0005,181.866 45.0005,207.847" seed="29"/><polygon fill="rgb(147, 112, 219)" stroke="black" stroke-width="1" onmouseover="setChange(evt)" onmouseout="unhiliteChange(evt)" onclick="changeMe(evt)" points="75.0005,207.847 59.9995,181.866 44.9995,207.847" seed="30"/></g></svg>
