<?xml version="1.0" encoding="utf-8"?>
<svg xmlns="http://www.w3.org/2000/svg" id="mainSVG" pointer-events="all" width="85.9805" height="118.924" EdgeLen="30" template="u5_159_tu" code="D2_2_1_0" copyright="Francis Hemsher, 2012">
	<polygon id="BorderPoly" fill="none" pointer-events="none" stroke="red" stroke-width="4" transform="" points="55.9805,4.57764e-005 29.9999,14.9995 15,40.9802 -4.95911e-005,66.9612 15,92.9423 29.9999,118.923 44.9999,92.9423 59.9997,66.9612 85.9807,51.9622 70.9808,25.9805"/>
	<g id="mainPolyG" transform=""><polygon id="mainPoly" fill="rgb(252, 194, 0)" stroke="black" onmouseover="setChange(evt)" onmouseout="unhiliteChange(evt)" onclick="changeMe(evt)" points="44.9999,40.9802 15,40.9802 -4.95911e-005,66.9612 15,92.9423 44.9999,92.9423 59.9997,66.9612" seed="0"/><polygon fill="rgb(147, 112, 219)" stroke="black" stroke-width="1" onmouseover="setChange(evt)" onmouseout="unhiliteChange(evt)" onclick="changeMe(evt)" points="44.9999,92.9423 15,92.9423 29.9999,118.923" seed="1"/><polygon fill="rgb(147, 112, 219)" stroke="black" stroke-width="1" onmouseover="setChange(evt)" onmouseout="unhiliteChange(evt)" onclick="changeMe(evt)" points="44.9999,40.9802 29.9999,14.9995 15,40.9802" seed="2"/><polygon fill="rgb(224, 176, 255)" stroke="black" stroke-width="1" onmouseover="setChange(evt)" onmouseout="unhiliteChange(evt)" onclick="changeMe(evt)" points="70.9808,25.9805 55.9805,4.57764e-005 29.9999,14.9995 44.9999,40.9802" seed="3"/><polygon fill="rgb(224, 176, 255)" stroke="black" stroke-width="1" onmouseover="setChange(evt)" onmouseout="unhiliteChange(evt)" onclick="changeMe(evt)" points="85.9807,51.9622 70.9808,25.9805 45.0005,40.9812 59.9997,66.9612" seed="4"/></g>
</svg>
