<?xml version="1.0" encoding="utf-8"?>
<svg xmlns="http://www.w3.org/2000/svg" id="mainSVG" pointer-events="all" width="105.001" height="163.923" EdgeLen="30" template="u4_71_tu" code="D4_4_2_0" copyright="Francis Hemsher, 2012">
	<polygon id="BorderPoly" fill="none" pointer-events="none" stroke="red" stroke-width="4" transform="" points="75.0008,-4.57764e-005 45,-4.57764e-005 30,25.9813 15,51.9613 -4.57764e-005,77.9423 15,103.923 15.0005,133.923 14.9995,163.923 44.9995,163.923 74.9988,163.923 74.9998,133.923 74.9988,103.923 59.9998,77.9423 75.0008,51.9613 90.0008,25.9803 105.001,-4.57764e-005"/>
	<g id="mainPolyG" transform=""><polygon id="mainPoly" fill="rgb(252, 194, 0)" stroke="black" onmouseover="setChange(evt)" onmouseout="unhiliteChange(evt)" onclick="changeMe(evt)" points="45,51.9613 15,51.9613 -4.57764e-005,77.9423 15,103.923 45,103.923 59.9998,77.9423" seed="0"/><polygon fill="rgb(224, 176, 255)" stroke="black" stroke-width="1" onmouseover="setChange(evt)" onmouseout="unhiliteChange(evt)" onclick="changeMe(evt)" points="44.9995,103.923 15,103.923 15,133.923 45,133.923" seed="1"/><polygon fill="rgb(224, 176, 255)" stroke="black" stroke-width="1" onmouseover="setChange(evt)" onmouseout="unhiliteChange(evt)" onclick="changeMe(evt)" points="45,133.923 15.0005,133.923 14.9995,163.923 44.9995,163.923" seed="2"/><polygon fill="rgb(224, 176, 255)" stroke="black" stroke-width="1" onmouseover="setChange(evt)" onmouseout="unhiliteChange(evt)" onclick="changeMe(evt)" points="74.9998,133.923 74.9988,103.923 44.9995,103.923 45,133.923" seed="3"/><polygon fill="rgb(224, 176, 255)" stroke="black" stroke-width="1" onmouseover="setChange(evt)" onmouseout="unhiliteChange(evt)" onclick="changeMe(evt)" points="74.9998,133.923 45,133.923 44.9995,163.923 74.9988,163.923" seed="4"/><polygon fill="rgb(147, 112, 219)" stroke="black" stroke-width="1" onmouseover="setChange(evt)" onmouseout="unhiliteChange(evt)" onclick="changeMe(evt)" points="74.9998,103.923 59.9998,77.9423 45,103.923" seed="5"/><polygon fill="rgb(147, 112, 219)" stroke="black" stroke-width="1" onmouseover="setChange(evt)" onmouseout="unhiliteChange(evt)" onclick="changeMe(evt)" points="74.9998,51.9622 45,51.9613 59.9998,77.9423" seed="6"/><polygon fill="rgb(147, 112, 219)" stroke="black" stroke-width="1" onmouseover="setChange(evt)" onmouseout="unhiliteChange(evt)" onclick="changeMe(evt)" points="45,51.9613 30,25.9813 15,51.9613" seed="7"/><polygon fill="rgb(41, 171, 135)" stroke="black" stroke-width="1" onmouseover="setChange(evt)" onmouseout="unhiliteChange(evt)" onclick="changeMe(evt)" points="75.0008,-4.57764e-005 45,-4.57764e-005 30,25.9813 45,51.9613 75.0008,51.9613 90.0008,25.9803" seed="8"/><polygon fill="rgb(147, 112, 219)" stroke="black" stroke-width="1" onmouseover="setChange(evt)" onmouseout="unhiliteChange(evt)" onclick="changeMe(evt)" points="105.001,-4.57764e-005 75.0008,-4.57764e-005 90.0008,25.9803" seed="9"/></g>
</svg>
