<?xml version="1.0" encoding="utf-8"?>
<svg xmlns="http://www.w3.org/2000/svg" id="mainSVG" pointer-events="all" width="90.001" height="193.923" EdgeLen="30" template="u4_64_tu" code="D4_6_2_0" copyright="Francis Hemsher, 2012">
	<polygon id="BorderPoly" fill="none" pointer-events="none" stroke="red" stroke-width="4" transform="" points="15.002,4.57764e-005 15.0015,30.0002 30.001,55.9812 15.0005,81.9622 15,111.961 15.0005,141.961 -3.8147e-006,167.942 15,193.923 45,193.923 75.0005,193.923 59.9975,167.943 74.9985,141.962 74.9995,111.963 75.0005,81.9632 90.0005,55.9822 75.0015,30.0012 75.0025,0.00104523 45.002,0.000549316"/>
	<g id="mainPolyG" transform=""><polygon id="mainPoly" fill="rgb(252, 194, 0)" stroke="black" onmouseover="setChange(evt)" onmouseout="unhiliteChange(evt)" onclick="changeMe(evt)" points="45,141.961 15,141.961 -3.8147e-006,167.942 15,193.923 45,193.923 60.0005,167.942" seed="0"/><polygon fill="rgb(224, 176, 255)" stroke="black" stroke-width="1" onmouseover="setChange(evt)" onmouseout="unhiliteChange(evt)" onclick="changeMe(evt)" points="45,111.962 15,111.961 15.0005,141.961 45,141.961" seed="1"/><polygon fill="rgb(224, 176, 255)" stroke="black" stroke-width="1" onmouseover="setChange(evt)" onmouseout="unhiliteChange(evt)" onclick="changeMe(evt)" points="45.0005,81.9622 15.0005,81.9622 15,111.961 44.9995,111.962" seed="2"/><polygon fill="rgb(224, 176, 255)" stroke="black" stroke-width="1" onmouseover="setChange(evt)" onmouseout="unhiliteChange(evt)" onclick="changeMe(evt)" points="75.0005,81.9632 45.0005,81.9622 44.9995,111.962 74.9995,111.963" seed="3"/><polygon fill="rgb(224, 176, 255)" stroke="black" stroke-width="1" onmouseover="setChange(evt)" onmouseout="unhiliteChange(evt)" onclick="changeMe(evt)" points="74.9995,111.963 44.9995,111.962 44.998,141.962 74.9985,141.962" seed="4"/><polygon fill="rgb(41, 171, 135)" stroke="black" stroke-width="1" onmouseover="setChange(evt)" onmouseout="unhiliteChange(evt)" onclick="changeMe(evt)" points="75.0015,30.0012 45.0015,30.0002 30.001,55.9812 45.0005,81.9622 75.0005,81.9632 90.0005,55.9822" seed="5"/><polygon fill="rgb(147, 112, 219)" stroke="black" stroke-width="1" onmouseover="setChange(evt)" onmouseout="unhiliteChange(evt)" onclick="changeMe(evt)" points="45.0005,81.9622 30.0005,55.9812 15.0005,81.9622" seed="6"/><polygon fill="rgb(147, 112, 219)" stroke="black" stroke-width="1" onmouseover="setChange(evt)" onmouseout="unhiliteChange(evt)" onclick="changeMe(evt)" points="45.0015,30.0002 15.0015,30.0002 30.001,55.9812" seed="7"/><polygon fill="rgb(224, 176, 255)" stroke="black" stroke-width="1" onmouseover="setChange(evt)" onmouseout="unhiliteChange(evt)" onclick="changeMe(evt)" points="45.002,0.000549316 15.002,4.57764e-005 15.0015,30.0002 45.0015,30.0002" seed="8"/><polygon fill="rgb(224, 176, 255)" stroke="black" stroke-width="1" onmouseover="setChange(evt)" onmouseout="unhiliteChange(evt)" onclick="changeMe(evt)" points="75.0025,0.00104523 45.002,0.000549316 45.0015,30.0002 75.0015,30.0012" seed="9"/><polygon fill="rgb(147, 112, 219)" stroke="black" stroke-width="1" onmouseover="setChange(evt)" onmouseout="unhiliteChange(evt)" onclick="changeMe(evt)" points="74.9985,141.962 44.998,141.962 59.9975,167.943" seed="10"/><polygon fill="rgb(147, 112, 219)" stroke="black" stroke-width="1" onmouseover="setChange(evt)" onmouseout="unhiliteChange(evt)" onclick="changeMe(evt)" points="75.0005,193.923 60.0005,167.943 45,193.923" seed="11"/></g>
</svg>
