<?xml version="1.0" encoding="utf-8"?>
<svg xmlns="http://www.w3.org/2000/svg" id="mainSVG" pointer-events="all" width="135.001" height="77.9425" EdgeLen="30" template="u4_113_tu" code="D6_0_2_0" copyright="Francis Hemsher, 2012">
	<polygon id="BorderPoly" fill="none" pointer-events="none" stroke="red" stroke-width="4" transform="" points="75.0008,4.57764e-005 45.0007,0.000549316 30.0005,25.9805 15,51.9615 4.57764e-005,77.9427 30,77.9427 60.0007,77.9427 89.9997,77.9427 105.001,51.962 120.001,25.981 135.001,0.000549316 105.001,4.57764e-005"/><g id="mainPolyG" transform=""><polygon id="mainPoly" fill="rgb(252, 194, 0)" stroke="black" onmouseover="setChange(evt)" onmouseout="unhiliteChange(evt)" onclick="changeMe(evt)" points="105.001,4.57764e-005 75.0008,4.57764e-005 60.0007,25.981 75.0008,51.962 105.001,51.962 120.001,25.981" seed="0"/><polygon fill="rgb(41, 171, 135)" stroke="black" stroke-width="1" onmouseover="setChange(evt)" onmouseout="unhiliteChange(evt)" onclick="changeMe(evt)" points="60.0007,25.981 30.0005,25.9805 15,51.9615 30,77.9427 60.0007,77.9427 75.0008,51.962" seed="1"/><polygon fill="rgb(147, 112, 219)" stroke="black" stroke-width="1" onmouseover="setChange(evt)" onmouseout="unhiliteChange(evt)" onclick="changeMe(evt)" points="60.0007,25.981 45.0007,0.000549316 30.0005,25.9805" seed="2"/><polygon fill="rgb(147, 112, 219)" stroke="black" stroke-width="1" onmouseover="setChange(evt)" onmouseout="unhiliteChange(evt)" onclick="changeMe(evt)" points="75.0008,0.000549316 45.0007,0.000549316 60.0007,25.981" seed="3"/><polygon fill="rgb(147, 112, 219)" stroke="black" stroke-width="1" onmouseover="setChange(evt)" onmouseout="unhiliteChange(evt)" onclick="changeMe(evt)" points="89.9997,77.9427 75.0008,51.962 60.0007,77.9427" seed="4"/><polygon fill="rgb(147, 112, 219)" stroke="black" stroke-width="1" onmouseover="setChange(evt)" onmouseout="unhiliteChange(evt)" onclick="changeMe(evt)" points="105.001,51.962 74.9997,51.9615 89.9997,77.9427" seed="5"/><polygon fill="rgb(147, 112, 219)" stroke="black" stroke-width="1" onmouseover="setChange(evt)" onmouseout="unhiliteChange(evt)" onclick="changeMe(evt)" points="135.001,0.000549316 105.001,4.57764e-005 120.001,25.981" seed="6"/><polygon fill="rgb(147, 112, 219)" stroke="black" stroke-width="1" onmouseover="setChange(evt)" onmouseout="unhiliteChange(evt)" onclick="changeMe(evt)" points="30,77.9427 15,51.9615 4.57764e-005,77.9427" seed="7"/></g></svg>
