<?xml version="1.0" encoding="utf-8"?>
<svg xmlns="http://www.w3.org/2000/svg" id="mainSVG" pointer-events="all" width="145.98" height="222.847" EdgeLen="30" template="u4_90_tu" code="D6_2_3_0" copyright="Francis Hemsher, 2012">
	<polygon id="BorderPoly" fill="none" pointer-events="none" stroke="red" stroke-width="4" transform="" points="115.981,-0.000495911 100.981,25.9805 85.9807,51.9615 70.9807,77.9425 55.9807,103.924 40.9808,129.905 25.9805,155.885 -5.34058e-005,170.885 14.9995,196.867 29.9997,222.848 55.9807,207.846 70.9807,181.867 85.9807,155.885 100.981,129.905 115.981,103.924 130.981,77.9425 145.981,51.9615 130.981,25.9805"/>
	<g id="mainPolyG" transform=""><polygon id="mainPoly" fill="rgb(252, 194, 0)" stroke="black" onmouseover="setChange(evt)" onmouseout="unhiliteChange(evt)" onclick="changeMe(evt)" points="70.9807,129.905 40.9808,129.905 25.9805,155.885 40.9808,181.867 70.9807,181.867 85.9807,155.885" seed="0"/><polygon fill="rgb(224, 176, 255)" stroke="black" stroke-width="1" onmouseover="setChange(evt)" onmouseout="unhiliteChange(evt)" onclick="changeMe(evt)" points="40.9798,181.866 25.9805,155.885 -5.34058e-005,170.885 14.9995,196.867" seed="1"/><polygon fill="rgb(224, 176, 255)" stroke="black" stroke-width="1" onmouseover="setChange(evt)" onmouseout="unhiliteChange(evt)" onclick="changeMe(evt)" points="55.9807,207.846 40.9798,181.866 14.9999,196.867 29.9997,222.848" seed="2"/><polygon fill="rgb(147, 112, 219)" stroke="black" stroke-width="1" onmouseover="setChange(evt)" onmouseout="unhiliteChange(evt)" onclick="changeMe(evt)" points="70.9807,181.867 40.9808,181.867 55.9807,207.848" seed="3"/><polygon fill="rgb(147, 112, 219)" stroke="black" stroke-width="1" onmouseover="setChange(evt)" onmouseout="unhiliteChange(evt)" onclick="changeMe(evt)" points="70.9807,129.905 55.9807,103.924 40.9808,129.905" seed="4"/><polygon fill="rgb(147, 112, 219)" stroke="black" stroke-width="1" onmouseover="setChange(evt)" onmouseout="unhiliteChange(evt)" onclick="changeMe(evt)" points="100.981,129.905 70.9807,129.905 85.9807,155.885" seed="5"/><polygon fill="rgb(41, 171, 135)" stroke="black" stroke-width="1" onmouseover="setChange(evt)" onmouseout="unhiliteChange(evt)" onclick="changeMe(evt)" points="100.981,77.9425 70.9807,77.9425 55.9807,103.924 70.9807,129.905 100.981,129.905 115.981,103.924" seed="6"/><polygon fill="rgb(147, 112, 219)" stroke="black" stroke-width="1" onmouseover="setChange(evt)" onmouseout="unhiliteChange(evt)" onclick="changeMe(evt)" points="100.981,77.9425 85.9807,51.9615 70.9807,77.9425" seed="7"/><polygon fill="rgb(147, 112, 219)" stroke="black" stroke-width="1" onmouseover="setChange(evt)" onmouseout="unhiliteChange(evt)" onclick="changeMe(evt)" points="130.981,77.9425 100.981,77.9425 115.981,103.924" seed="8"/><polygon fill="rgb(41, 171, 135)" stroke="black" stroke-width="1" onmouseover="setChange(evt)" onmouseout="unhiliteChange(evt)" onclick="changeMe(evt)" points="130.981,25.9805 100.981,25.9805 85.9807,51.9615 100.981,77.9425 130.981,77.9425 145.981,51.9615" seed="9"/><polygon fill="rgb(147, 112, 219)" stroke="black" stroke-width="1" onmouseover="setChange(evt)" onmouseout="unhiliteChange(evt)" onclick="changeMe(evt)" points="130.981,25.9805 115.981,-0.000495911 100.981,25.9805" seed="10"/></g>
</svg>
