<?xml version="1.0" encoding="utf-8"?>
<svg xmlns="http://www.w3.org/2000/svg" id="mainSVG" pointer-events="all" width="137.943" height="212.942" EdgeLen="30" template="ark5_4_tu" code="D6_4_1_1" copyright="Francis Hemsher, 2012">
	<polygon id="BorderPoly" fill="none" pointer-events="none" stroke="red" stroke-width="4" transform="" points="122.943,14.999 96.9618,7.62939e-006 70.9818,15 40.9818,14.999 40.9818,44.999 15.0005,59.999 0.000457764,85.98 -4.57764e-005,115.98 15,141.961 40.9808,156.961 40.9808,186.96 55.9798,212.942 85.9818,212.942 111.963,197.943 96.9618,171.961 96.9618,141.961 111.962,115.98 137.943,100.981 137.943,70.98 122.943,45"/>
	<g id="mainPolyG" transform=""><polygon id="mainPoly" fill="rgb(252, 194, 0)" stroke="black" onmouseover="setChange(evt)" onmouseout="unhiliteChange(evt)" onclick="changeMe(evt)" points="70.9808,45 40.9808,44.999 15.0005,59.999 0.000457764,85.98 -4.57764e-005,115.98 15,141.961 40.9808,156.961 70.9808,156.961 96.9618,141.961 111.962,115.98 111.962,85.98 96.9618,60" seed="0"/><polygon fill="rgb(224, 176, 255)" stroke="black" stroke-width="1" onmouseover="setChange(evt)" onmouseout="unhiliteChange(evt)" onclick="changeMe(evt)" points="70.9818,15 40.9818,14.999 40.9818,44.999 70.9808,45" seed="1"/><polygon fill="rgb(41, 171, 135)" stroke="black" stroke-width="1" onmouseover="setChange(evt)" onmouseout="unhiliteChange(evt)" onclick="changeMe(evt)" points="122.943,14.999 96.9618,7.62939e-006 70.9818,15 70.9808,45 96.9618,60 122.943,45" seed="2"/><polygon fill="rgb(224, 176, 255)" stroke="black" stroke-width="1" onmouseover="setChange(evt)" onmouseout="unhiliteChange(evt)" onclick="changeMe(evt)" points="137.943,70.98 122.943,44.999 96.9618,60 111.962,85.98" seed="3"/><polygon fill="rgb(224, 176, 255)" stroke="black" stroke-width="1" onmouseover="setChange(evt)" onmouseout="unhiliteChange(evt)" onclick="changeMe(evt)" points="70.9808,156.961 40.9808,156.961 40.9808,186.96 70.9808,186.961" seed="4"/><polygon fill="rgb(147, 112, 219)" stroke="black" stroke-width="1" onmouseover="setChange(evt)" onmouseout="unhiliteChange(evt)" onclick="changeMe(evt)" points="137.943,100.98 137.943,70.98 111.962,85.98" seed="5"/><polygon fill="rgb(147, 112, 219)" stroke="black" stroke-width="1" onmouseover="setChange(evt)" onmouseout="unhiliteChange(evt)" onclick="changeMe(evt)" points="137.943,100.981 111.962,85.98 111.962,115.98" seed="6"/><polygon fill="rgb(147, 112, 219)" stroke="black" stroke-width="1" onmouseover="setChange(evt)" onmouseout="unhiliteChange(evt)" onclick="changeMe(evt)" points="96.9618,171.961 96.9618,141.961 70.9808,156.961" seed="7"/><polygon fill="rgb(147, 112, 219)" stroke="black" stroke-width="1" onmouseover="setChange(evt)" onmouseout="unhiliteChange(evt)" onclick="changeMe(evt)" points="96.9618,171.961 70.9808,156.961 70.9818,186.961" seed="8"/><polygon fill="rgb(147, 112, 219)" stroke="black" stroke-width="1" onmouseover="setChange(evt)" onmouseout="unhiliteChange(evt)" onclick="changeMe(evt)" points="70.9808,186.961 40.9808,186.96 55.9798,212.942" seed="9"/><polygon fill="rgb(147, 112, 219)" stroke="black" stroke-width="1" onmouseover="setChange(evt)" onmouseout="unhiliteChange(evt)" onclick="changeMe(evt)" points="85.9798,212.943 70.9808,186.962 55.9798,212.942" seed="10"/><polygon fill="rgb(224, 176, 255)" stroke="black" stroke-width="1" onmouseover="setChange(evt)" onmouseout="unhiliteChange(evt)" onclick="changeMe(evt)" points="111.963,197.943 96.9618,171.961 70.9818,186.961 85.9818,212.942" seed="11"/></g>
</svg>
