<?xml version="1.0" encoding="utf-8"?>
<svg xmlns="http://www.w3.org/2000/svg" id="mainSVG" pointer-events="all" width="175.981" height="274.809" EdgeLen="30" template="u5_166_tu" code="D8_2_4_0" copyright="Francis Hemsher, 2012">
	<polygon id="BorderPoly" fill="none" pointer-events="none" stroke="red" stroke-width="4" transform="" points="145.98,0.000488281 130.98,25.9815 115.98,51.9625 100.98,77.9435 85.9805,103.924 70.9805,129.905 55.9805,155.886 40.9805,181.866 25.9805,207.848 0,222.848 14.9995,248.828 30.0005,274.809 55.9805,259.809 70.9805,233.828 85.9805,207.848 100.98,181.867 115.98,155.886 130.98,129.905 145.98,103.924 160.98,77.9435 175.98,51.9625 160.98,25.9815"/>
	<g id="mainPolyG" transform=""><polygon id="mainPoly" fill="rgb(252, 194, 0)" stroke="black" onmouseover="setChange(evt)" onmouseout="unhiliteChange(evt)" onclick="changeMe(evt)" points="100.98,129.905 70.9805,129.905 55.9805,155.886 70.9805,181.867 100.98,181.867 115.98,155.886" seed="0"/><polygon fill="rgb(147, 112, 219)" stroke="black" stroke-width="1" onmouseover="setChange(evt)" onmouseout="unhiliteChange(evt)" onclick="changeMe(evt)" points="70.9805,181.866 55.9805,155.886 40.9805,181.866" seed="1"/><polygon fill="rgb(147, 112, 219)" stroke="black" stroke-width="1" onmouseover="setChange(evt)" onmouseout="unhiliteChange(evt)" onclick="changeMe(evt)" points="100.98,181.867 70.9805,181.867 85.9805,207.848" seed="2"/><polygon fill="rgb(41, 171, 135)" stroke="black" stroke-width="1" onmouseover="setChange(evt)" onmouseout="unhiliteChange(evt)" onclick="changeMe(evt)" points="70.9805,181.866 40.9805,181.866 25.9805,207.848 40.9805,233.828 70.9805,233.828 85.9805,207.848" seed="3"/><polygon fill="rgb(147, 112, 219)" stroke="black" stroke-width="1" onmouseover="setChange(evt)" onmouseout="unhiliteChange(evt)" onclick="changeMe(evt)" points="70.9805,233.828 40.9805,233.828 55.9805,259.809" seed="4"/><polygon fill="rgb(224, 176, 255)" stroke="black" stroke-width="1" onmouseover="setChange(evt)" onmouseout="unhiliteChange(evt)" onclick="changeMe(evt)" points="40.9805,233.828 25.9805,207.848 0,222.848 14.9995,248.828" seed="5"/><polygon fill="rgb(224, 176, 255)" stroke="black" stroke-width="1" onmouseover="setChange(evt)" onmouseout="unhiliteChange(evt)" onclick="changeMe(evt)" points="55.9805,259.809 40.9805,233.829 14.9995,248.828 30.0005,274.809" seed="6"/><polygon fill="rgb(147, 112, 219)" stroke="black" stroke-width="1" onmouseover="setChange(evt)" onmouseout="unhiliteChange(evt)" onclick="changeMe(evt)" points="100.98,129.905 85.9805,103.924 70.9805,129.905" seed="7"/><polygon fill="rgb(147, 112, 219)" stroke="black" stroke-width="1" onmouseover="setChange(evt)" onmouseout="unhiliteChange(evt)" onclick="changeMe(evt)" points="130.98,129.905 100.981,129.905 115.98,155.886" seed="8"/><polygon fill="rgb(41, 171, 135)" stroke="black" stroke-width="1" onmouseover="setChange(evt)" onmouseout="unhiliteChange(evt)" onclick="changeMe(evt)" points="130.98,77.9435 100.98,77.9435 85.9805,103.924 100.98,129.905 130.98,129.905 145.98,103.924" seed="9"/><polygon fill="rgb(147, 112, 219)" stroke="black" stroke-width="1" onmouseover="setChange(evt)" onmouseout="unhiliteChange(evt)" onclick="changeMe(evt)" points="130.98,77.9435 115.98,51.9625 100.98,77.9435" seed="10"/><polygon fill="rgb(147, 112, 219)" stroke="black" stroke-width="1" onmouseover="setChange(evt)" onmouseout="unhiliteChange(evt)" onclick="changeMe(evt)" points="160.98,77.9435 130.982,77.9435 145.98,103.924" seed="11"/><polygon fill="rgb(41, 171, 135)" stroke="black" stroke-width="1" onmouseover="setChange(evt)" onmouseout="unhiliteChange(evt)" onclick="changeMe(evt)" points="160.98,25.9815 130.98,25.9815 115.98,51.9625 130.98,77.9435 160.98,77.9435 175.98,51.9625" seed="12"/><polygon fill="rgb(147, 112, 219)" stroke="black" stroke-width="1" onmouseover="setChange(evt)" onmouseout="unhiliteChange(evt)" onclick="changeMe(evt)" points="160.98,25.9815 145.98,0.000488281 130.98,25.9815" seed="13"/></g>
</svg>
