<?xml version="1.0" encoding="utf-8"?>
<svg xmlns="http://www.w3.org/2000/svg" id="mainSVG" pointer-events="all" width="315.001" height="77.9425" EdgeLen="30" template="u6_534_tu" code="E10_0_5_0" copyright="Francis Hemsher, 2012">
	<polygon id="BorderPoly" fill="none" pointer-events="none" stroke="red" stroke-width="4" transform="" points="285.001,0.000549316 255.001,4.57764e-005 225.001,4.57764e-005 195,4.57764e-005 180,25.9805 150,25.9805 120,25.9805 90.0002,25.9805 60.0002,25.9805 30.0002,25.9805 0.000152588,25.9805 15.0002,51.9615 30.0002,77.9427 60.0002,77.9427 90.0002,77.9417 120,77.9417 150,77.9427 180,77.9427 210.001,77.9427 225,51.9615 255.001,51.9615 285.001,51.9615 315.001,51.9615 300.001,25.981"/>
	<g id="mainPolyG" transform=""><polygon id="mainPoly" fill="rgb(252, 194, 0)" stroke="black" onmouseover="setChange(evt)" onmouseout="unhiliteChange(evt)" onclick="changeMe(evt)" points="180,25.9805 150,25.9805 135,51.9615 150,77.9427 180,77.9427 195,51.9615" seed="0"/><polygon fill="rgb(41, 171, 135)" stroke="black" stroke-width="1" onmouseover="setChange(evt)" onmouseout="unhiliteChange(evt)" onclick="changeMe(evt)" points="225.001,4.57764e-005 195,4.57764e-005 180,25.9805 195,51.9615 225.001,51.9615 240.001,25.981" seed="1"/><polygon fill="rgb(147, 112, 219)" stroke="black" stroke-width="1" onmouseover="setChange(evt)" onmouseout="unhiliteChange(evt)" onclick="changeMe(evt)" points="150,25.9805 120,25.9805 135,51.961" seed="2"/><polygon fill="rgb(147, 112, 219)" stroke="black" stroke-width="1" onmouseover="setChange(evt)" onmouseout="unhiliteChange(evt)" onclick="changeMe(evt)" points="150,77.9417 135,51.9615 120,77.9417" seed="3"/><polygon fill="rgb(41, 171, 135)" stroke="black" stroke-width="1" onmouseover="setChange(evt)" onmouseout="unhiliteChange(evt)" onclick="changeMe(evt)" points="120,25.9805 90.0002,25.9805 75.0002,51.9615 90.0002,77.9417 120,77.9417 135,51.961" seed="4"/><polygon fill="rgb(147, 112, 219)" stroke="black" stroke-width="1" onmouseover="setChange(evt)" onmouseout="unhiliteChange(evt)" onclick="changeMe(evt)" points="90.0002,25.9805 60.0002,25.9805 75.0002,51.9615" seed="5"/><polygon fill="rgb(147, 112, 219)" stroke="black" stroke-width="1" onmouseover="setChange(evt)" onmouseout="unhiliteChange(evt)" onclick="changeMe(evt)" points="90.0002,77.9417 75.0002,51.9615 60.0002,77.9427" seed="6"/><polygon fill="rgb(41, 171, 135)" stroke="black" stroke-width="1" onmouseover="setChange(evt)" onmouseout="unhiliteChange(evt)" onclick="changeMe(evt)" points="60.0002,25.9805 30.0002,25.9805 15.0002,51.9615 30.0002,77.9427 59.9991,77.9427 75.0002,51.9615" seed="7"/><polygon fill="rgb(147, 112, 219)" stroke="black" stroke-width="1" onmouseover="setChange(evt)" onmouseout="unhiliteChange(evt)" onclick="changeMe(evt)" points="30.0002,25.9805 0.000152588,25.9805 15.0002,51.961" seed="8"/><polygon fill="rgb(147, 112, 219)" stroke="black" stroke-width="1" onmouseover="setChange(evt)" onmouseout="unhiliteChange(evt)" onclick="changeMe(evt)" points="210,77.9427 195,51.962 180,77.9427" seed="9"/><polygon fill="rgb(147, 112, 219)" stroke="black" stroke-width="1" onmouseover="setChange(evt)" onmouseout="unhiliteChange(evt)" onclick="changeMe(evt)" points="225.001,51.9615 195.001,51.9615 210.001,77.9427" seed="10"/><polygon fill="rgb(147, 112, 219)" stroke="black" stroke-width="1" onmouseover="setChange(evt)" onmouseout="unhiliteChange(evt)" onclick="changeMe(evt)" points="255.001,4.57764e-005 225.001,4.57764e-005 240.001,25.981" seed="11"/><polygon fill="rgb(147, 112, 219)" stroke="black" stroke-width="1" onmouseover="setChange(evt)" onmouseout="unhiliteChange(evt)" onclick="changeMe(evt)" points="255.001,51.962 240.001,25.981 225,51.9615" seed="12"/><polygon fill="rgb(41, 171, 135)" stroke="black" stroke-width="1" onmouseover="setChange(evt)" onmouseout="unhiliteChange(evt)" onclick="changeMe(evt)" points="285.001,0.000549316 255.001,4.57764e-005 240.001,25.981 255.001,51.9615 285.001,51.9615 300.001,25.981" seed="13"/><polygon fill="rgb(147, 112, 219)" stroke="black" stroke-width="1" onmouseover="setChange(evt)" onmouseout="unhiliteChange(evt)" onclick="changeMe(evt)" points="315.001,51.9615 300.001,25.981 285.001,51.9615" seed="14"/></g>
</svg>
