<?xml version="1.0" encoding="utf-8"?>
<svg xmlns="http://www.w3.org/2000/svg" id="mainSVG" pointer-events="all" width="85.9805" height="118.924" EdgeLen="30" template="u5_170_tu" code="E2_2_1_0" copyright="Francis Hemsher, 2012">
	<polygon id="BorderPoly" fill="none" pointer-events="none" stroke="red" stroke-width="4" transform="" points="55.9805,-4.57764e-005 40.9805,25.981 25.9805,51.9623 -4.95911e-005,66.9613 14.9995,92.9433 29.9999,118.923 55.9805,103.922 70.9808,77.9433 85.9807,51.9623 70.9808,25.981"/>
	<g id="mainPolyG" transform=""><polygon id="mainPoly" fill="rgb(252, 194, 0)" stroke="black" onmouseover="setChange(evt)" onmouseout="unhiliteChange(evt)" onclick="changeMe(evt)" points="70.9808,25.981 40.9805,25.981 25.9805,51.9623 40.9805,77.9433 70.9808,77.9433 85.9807,51.9623" seed="0"/><polygon fill="rgb(224, 176, 255)" stroke="black" stroke-width="1" onmouseover="setChange(evt)" onmouseout="unhiliteChange(evt)" onclick="changeMe(evt)" points="40.9799,77.9423 25.9805,51.9623 -4.95911e-005,66.9613 14.9995,92.9433" seed="1"/><polygon fill="rgb(224, 176, 255)" stroke="black" stroke-width="1" onmouseover="setChange(evt)" onmouseout="unhiliteChange(evt)" onclick="changeMe(evt)" points="55.9805,103.922 40.9799,77.9423 15,92.9433 29.9999,118.923" seed="2"/><polygon fill="rgb(147, 112, 219)" stroke="black" stroke-width="1" onmouseover="setChange(evt)" onmouseout="unhiliteChange(evt)" onclick="changeMe(evt)" points="70.9808,77.9433 40.9805,77.9433 55.9805,103.924" seed="3"/><polygon fill="rgb(147, 112, 219)" stroke="black" stroke-width="1" onmouseover="setChange(evt)" onmouseout="unhiliteChange(evt)" onclick="changeMe(evt)" points="70.9808,25.981 55.9805,-4.57764e-005 40.9805,25.981" seed="4"/></g>
</svg>
