<?xml version="1.0" encoding="utf-8"?>
<svg xmlns="http://www.w3.org/2000/svg" id="mainSVG" pointer-events="all" width="145.98" height="118.923" EdgeLen="30" template="u5_161_tu" code="E4_2_2_0" copyright="Francis Hemsher, 2012">
	<polygon id="BorderPoly" fill="none" pointer-events="none" stroke="red" stroke-width="4" transform="" points="115.981,-3.8147e-006 89.9998,14.9995 74.9998,40.9805 44.9997,40.9805 29.9997,66.9615 -5.34058e-005,66.9615 14.9995,92.9425 29.9997,118.923 59.9998,118.923 74.9998,92.9425 105,92.9425 120,66.9615 145.981,51.9625 130.981,25.9805"/>
	<g id="mainPolyG" transform=""><polygon id="mainPoly" fill="rgb(252, 194, 0)" stroke="black" onmouseover="setChange(evt)" onmouseout="unhiliteChange(evt)" onclick="changeMe(evt)" points="105,40.9805 74.9998,40.9805 59.9998,66.9615 74.9998,92.9425 105,92.9425 120,66.9615" seed="0"/><polygon fill="rgb(41, 171, 135)" stroke="black" stroke-width="1" onmouseover="setChange(evt)" onmouseout="unhiliteChange(evt)" onclick="changeMe(evt)" points="59.9998,66.9615 29.9997,66.9615 14.9995,92.9425 29.9997,118.923 59.9998,118.923 74.9998,92.9425" seed="1"/><polygon fill="rgb(147, 112, 219)" stroke="black" stroke-width="1" onmouseover="setChange(evt)" onmouseout="unhiliteChange(evt)" onclick="changeMe(evt)" points="29.9997,66.9615 -5.34058e-005,66.9615 14.9995,92.9425" seed="2"/><polygon fill="rgb(147, 112, 219)" stroke="black" stroke-width="1" onmouseover="setChange(evt)" onmouseout="unhiliteChange(evt)" onclick="changeMe(evt)" points="59.9998,66.9615 45.0007,40.9805 29.9997,66.9615" seed="3"/><polygon fill="rgb(147, 112, 219)" stroke="black" stroke-width="1" onmouseover="setChange(evt)" onmouseout="unhiliteChange(evt)" onclick="changeMe(evt)" points="74.9998,40.9805 44.9997,40.9805 59.9998,66.9615" seed="4"/><polygon fill="rgb(147, 112, 219)" stroke="black" stroke-width="1" onmouseover="setChange(evt)" onmouseout="unhiliteChange(evt)" onclick="changeMe(evt)" points="105,40.9805 89.9998,14.9995 74.9998,40.9805" seed="5"/><polygon fill="rgb(224, 176, 255)" stroke="black" stroke-width="1" onmouseover="setChange(evt)" onmouseout="unhiliteChange(evt)" onclick="changeMe(evt)" points="130.981,25.9805 115.981,-3.8147e-006 89.9998,14.9995 105,40.9795" seed="6"/><polygon fill="rgb(224, 176, 255)" stroke="black" stroke-width="1" onmouseover="setChange(evt)" onmouseout="unhiliteChange(evt)" onclick="changeMe(evt)" points="145.981,51.9625 130.981,25.9805 105.001,40.9815 120,66.9615" seed="7"/></g>
</svg>
