<?xml version="1.0" encoding="utf-8"?>
<svg xmlns="http://www.w3.org/2000/svg" id="mainSVG" pointer-events="all" width="75.0005" height="193.923" EdgeLen="30" template="u4_68_tu" code="E4_6_2_0" copyright="Francis Hemsher, 2012">
	<polygon id="BorderPoly" fill="none" pointer-events="none" stroke="red" stroke-width="4" transform="" points="30.0005,4.57764e-005 0.000549316,0.000549316 0.000549316,30.0002 15.001,55.9812 0.000549316,81.9613 0.00104904,111.961 4.95911e-005,141.96 15,167.942 4.95911e-005,193.923 30,193.923 60,193.923 74.9997,167.942 60,141.961 60.0005,111.962 60.0005,81.9622 75.0007,55.9812 60.0005,30.0002 60.0005,0.000549316"/>
	<g id="mainPolyG" transform=""><polygon id="mainPoly" fill="rgb(252, 194, 0)" stroke="black" onmouseover="setChange(evt)" onmouseout="unhiliteChange(evt)" onclick="changeMe(evt)" points="60.0005,30.0002 30.0005,30.0002 15.0005,55.9812 30.0005,81.9622 60.0005,81.9622 75.0007,55.9812" seed="0"/><polygon fill="rgb(224, 176, 255)" stroke="black" stroke-width="1" onmouseover="setChange(evt)" onmouseout="unhiliteChange(evt)" onclick="changeMe(evt)" points="60,81.9622 30.0005,81.9622 30.0005,111.961 60.0005,111.962" seed="1"/><polygon fill="rgb(224, 176, 255)" stroke="black" stroke-width="1" onmouseover="setChange(evt)" onmouseout="unhiliteChange(evt)" onclick="changeMe(evt)" points="60.0005,111.962 30.001,111.961 30,141.961 60,141.961" seed="2"/><polygon fill="rgb(224, 176, 255)" stroke="black" stroke-width="1" onmouseover="setChange(evt)" onmouseout="unhiliteChange(evt)" onclick="changeMe(evt)" points="30.0005,81.9622 0.000549316,81.9613 0.00104904,111.961 30.0005,111.961" seed="3"/><polygon fill="rgb(224, 176, 255)" stroke="black" stroke-width="1" onmouseover="setChange(evt)" onmouseout="unhiliteChange(evt)" onclick="changeMe(evt)" points="30.001,111.961 0.00154877,111.96 4.95911e-005,141.96 30,141.961" seed="4"/><polygon fill="rgb(147, 112, 219)" stroke="black" stroke-width="1" onmouseover="setChange(evt)" onmouseout="unhiliteChange(evt)" onclick="changeMe(evt)" points="30.0005,81.9622 15.001,55.9812 0.000549316,81.9613" seed="5"/><polygon fill="rgb(147, 112, 219)" stroke="black" stroke-width="1" onmouseover="setChange(evt)" onmouseout="unhiliteChange(evt)" onclick="changeMe(evt)" points="30.0005,30.0002 0.000549316,30.0002 15.0005,55.9802" seed="6"/><polygon fill="rgb(224, 176, 255)" stroke="black" stroke-width="1" onmouseover="setChange(evt)" onmouseout="unhiliteChange(evt)" onclick="changeMe(evt)" points="30,30.0002 30.0005,4.57764e-005 0.000549316,0.000549316 0.000549316,30.0002" seed="7"/><polygon fill="rgb(224, 176, 255)" stroke="black" stroke-width="1" onmouseover="setChange(evt)" onmouseout="unhiliteChange(evt)" onclick="changeMe(evt)" points="60.0005,0.000549316 30.0005,4.57764e-005 30.001,30.0002 60.0005,30.0002" seed="8"/><polygon fill="rgb(41, 171, 135)" stroke="black" stroke-width="1" onmouseover="setChange(evt)" onmouseout="unhiliteChange(evt)" onclick="changeMe(evt)" points="60,141.961 30,141.961 15,167.942 30,193.923 60,193.923 74.9997,167.942" seed="9"/><polygon fill="rgb(147, 112, 219)" stroke="black" stroke-width="1" onmouseover="setChange(evt)" onmouseout="unhiliteChange(evt)" onclick="changeMe(evt)" points="30,141.961 4.95911e-005,141.96 14.9995,167.941" seed="10"/><polygon fill="rgb(147, 112, 219)" stroke="black" stroke-width="1" onmouseover="setChange(evt)" onmouseout="unhiliteChange(evt)" onclick="changeMe(evt)" points="30,193.923 15,167.942 4.95911e-005,193.923" seed="11"/></g>
</svg>
