<?xml version="1.0" encoding="utf-8"?>
<svg xmlns="http://www.w3.org/2000/svg" id="mainSVG" pointer-events="all" width="195.001" height="77.9425" EdgeLen="30" template="u5_20_tu" code="E6_0_3_0" copyright="Francis Hemsher, 2012">
	<polygon id="BorderPoly" fill="none" pointer-events="none" stroke="red" stroke-width="4" transform="" points="15.0004,25.9799 3.05176e-005,51.9604 15.0004,77.9417 45.0004,77.9417 75.0004,77.9427 105,77.9427 135.001,77.9427 150.001,51.962 180.001,51.962 195.001,25.981 180.001,4.57764e-005 150.001,4.57764e-005 135.001,25.981 105,25.981 75.0004,25.9805 45.0004,25.9799"/>
	<g id="mainPolyG" transform=""><polygon id="mainPoly" fill="rgb(252, 194, 0)" stroke="black" onmouseover="setChange(evt)" onmouseout="unhiliteChange(evt)" onclick="changeMe(evt)" points="180.001,4.57764e-005 150.001,4.57764e-005 135.001,25.981 150.001,51.962 180.001,51.962 195.001,25.981" seed="0"/><polygon fill="rgb(41, 171, 135)" stroke="black" stroke-width="1" onmouseover="setChange(evt)" onmouseout="unhiliteChange(evt)" onclick="changeMe(evt)" points="135.001,25.981 105,25.981 90.0004,51.9615 105,77.9427 135.001,77.9427 150.001,51.962" seed="1"/><polygon fill="rgb(147, 112, 219)" stroke="black" stroke-width="1" onmouseover="setChange(evt)" onmouseout="unhiliteChange(evt)" onclick="changeMe(evt)" points="105.001,25.981 75.0004,25.9805 90.0004,51.9615" seed="2"/><polygon fill="rgb(147, 112, 219)" stroke="black" stroke-width="1" onmouseover="setChange(evt)" onmouseout="unhiliteChange(evt)" onclick="changeMe(evt)" points="105,77.9427 90.0004,51.9615 75.0004,77.9427" seed="3"/><polygon fill="rgb(147, 112, 219)" stroke="black" stroke-width="1" onmouseover="setChange(evt)" onmouseout="unhiliteChange(evt)" onclick="changeMe(evt)" points="90.0004,51.9615 75.0004,25.9805 60.0004,51.961" seed="4"/><polygon fill="rgb(147, 112, 219)" stroke="black" stroke-width="1" onmouseover="setChange(evt)" onmouseout="unhiliteChange(evt)" onclick="changeMe(evt)" points="90.0004,51.9615 60.0004,51.961 75.0004,77.9417" seed="5"/><polygon fill="rgb(147, 112, 219)" stroke="black" stroke-width="1" onmouseover="setChange(evt)" onmouseout="unhiliteChange(evt)" onclick="changeMe(evt)" points="75.0004,25.9805 45.0004,25.9799 60.0004,51.961" seed="6"/><polygon fill="rgb(147, 112, 219)" stroke="black" stroke-width="1" onmouseover="setChange(evt)" onmouseout="unhiliteChange(evt)" onclick="changeMe(evt)" points="75.0004,77.9417 60.0004,51.961 45.0004,77.9417" seed="7"/><polygon fill="rgb(41, 171, 135)" stroke="black" stroke-width="1" onmouseover="setChange(evt)" onmouseout="unhiliteChange(evt)" onclick="changeMe(evt)" points="45.0004,25.9799 15.0004,25.9799 3.05176e-005,51.9604 15.0004,77.9417 45.0004,77.9417 60.0004,51.961" seed="8"/></g>
</svg>
