<?xml version="1.0" encoding="utf-8"?>
<svg xmlns="http://www.w3.org/2000/svg" id="mainSVG" pointer-events="all" width="120.001" height="129.904" EdgeLen="30" template="u6_69_tu" code="E6_0_4_0" copyright="Francis Hemsher, 2012">
	<polygon id="BorderPoly" fill="none" pointer-events="none" stroke="red" stroke-width="4" transform="" points="120.001,4.57764e-005 90.0008,4.57764e-005 60.0007,4.57764e-005 30,0.000541687 15,25.9815 0.000549316,51.9617 15.0005,77.9427 4.95911e-005,103.924 15,129.905 45.0007,129.905 75.0008,129.905 105.001,129.905 90.0008,103.924 105.001,77.9427 90.0008,51.9617 105.001,25.981"/>
	<g id="mainPolyG" transform=""><polygon id="mainPoly" fill="rgb(252, 194, 0)" stroke="black" onmouseover="setChange(evt)" onmouseout="unhiliteChange(evt)" onclick="changeMe(evt)" points="90.0008,51.9617 60.0007,51.9617 45.0007,77.9427 60.0007,103.924 90.0008,103.924 105.001,77.9427" seed="0"/><polygon fill="rgb(41, 171, 135)" stroke="black" stroke-width="1" onmouseover="setChange(evt)" onmouseout="unhiliteChange(evt)" onclick="changeMe(evt)" points="45.0007,25.9815 15,25.9815 0.000549316,51.9617 15.0005,77.9427 45.0007,77.9427 60.0007,51.9617" seed="1"/><polygon fill="rgb(41, 171, 135)" stroke="black" stroke-width="1" onmouseover="setChange(evt)" onmouseout="unhiliteChange(evt)" onclick="changeMe(evt)" points="45.0007,77.9427 15,77.9427 4.95911e-005,103.924 15,129.905 45.0007,129.905 60.0007,103.924" seed="2"/><polygon fill="rgb(41, 171, 135)" stroke="black" stroke-width="1" onmouseover="setChange(evt)" onmouseout="unhiliteChange(evt)" onclick="changeMe(evt)" points="90.0008,4.57764e-005 60.0007,4.57764e-005 45.0007,25.981 60.0007,51.9617 90.0008,51.9617 105.001,25.981" seed="3"/><polygon fill="rgb(147, 112, 219)" stroke="black" stroke-width="1" onmouseover="setChange(evt)" onmouseout="unhiliteChange(evt)" onclick="changeMe(evt)" points="44.9997,25.9815 30,0.000541687 15,25.9815" seed="4"/><polygon fill="rgb(147, 112, 219)" stroke="black" stroke-width="1" onmouseover="setChange(evt)" onmouseout="unhiliteChange(evt)" onclick="changeMe(evt)" points="59.9997,0.000541687 30.0005,0.000541687 45.0007,25.981" seed="5"/><polygon fill="rgb(147, 112, 219)" stroke="black" stroke-width="1" onmouseover="setChange(evt)" onmouseout="unhiliteChange(evt)" onclick="changeMe(evt)" points="120.001,4.57764e-005 90.0008,4.57764e-005 105.001,25.9805" seed="6"/><polygon fill="rgb(147, 112, 219)" stroke="black" stroke-width="1" onmouseover="setChange(evt)" onmouseout="unhiliteChange(evt)" onclick="changeMe(evt)" points="75.0008,129.905 60.0007,103.924 45.0007,129.905" seed="7"/><polygon fill="rgb(147, 112, 219)" stroke="black" stroke-width="1" onmouseover="setChange(evt)" onmouseout="unhiliteChange(evt)" onclick="changeMe(evt)" points="90.0008,103.924 60.0007,103.924 75.0008,129.905" seed="8"/><polygon fill="rgb(147, 112, 219)" stroke="black" stroke-width="1" onmouseover="setChange(evt)" onmouseout="unhiliteChange(evt)" onclick="changeMe(evt)" points="105.001,129.905 90.0008,103.924 75.0008,129.905" seed="9"/></g>
</svg>
