<?xml version="1.0" encoding="utf-8"?>
<svg xmlns="http://www.w3.org/2000/svg" id="mainSVG" pointer-events="all" width="216.962" height="159.904" EdgeLen="30" template="u5_180_tu" code="E6_4_3_0" copyright="Francis Hemsher, 2012">
	<polygon id="BorderPoly" fill="none" pointer-events="none" stroke="red" stroke-width="4" transform="" points="186.961,0 171.962,25.981 141.963,25.981 115.982,40.981 85.9818,40.981 55.9818,40.981 40.9818,66.961 25.9808,92.942 -0.000244141,107.942 15.0008,133.923 30.0007,159.904 55.9818,144.904 70.9818,118.923 85.9818,92.943 115.982,92.943 145.982,92.943 171.963,77.943 201.963,77.942 216.963,51.961 201.962,25.981"/>
	<g id="mainPolyG" transform=""><polygon id="mainPoly" fill="rgb(252, 194, 0)" stroke="black" onmouseover="setChange(evt)" onmouseout="unhiliteChange(evt)" onclick="changeMe(evt)" points="115.982,40.981 85.9818,40.981 70.9818,66.962 85.9818,92.943 115.982,92.943 130.982,66.962" seed="0"/><polygon fill="rgb(41, 171, 135)" stroke="black" stroke-width="1" onmouseover="setChange(evt)" onmouseout="unhiliteChange(evt)" onclick="changeMe(evt)" points="70.9818,66.962 40.9818,66.961 25.9808,92.942 40.9808,118.923 70.9818,118.923 85.9818,92.943" seed="1"/><polygon fill="rgb(147, 112, 219)" stroke="black" stroke-width="1" onmouseover="setChange(evt)" onmouseout="unhiliteChange(evt)" onclick="changeMe(evt)" points="85.9818,40.981 55.9818,40.981 70.9818,66.961" seed="2"/><polygon fill="rgb(147, 112, 219)" stroke="black" stroke-width="1" onmouseover="setChange(evt)" onmouseout="unhiliteChange(evt)" onclick="changeMe(evt)" points="70.9818,66.962 55.9818,40.981 40.9818,66.961" seed="3"/><polygon fill="rgb(147, 112, 219)" stroke="black" stroke-width="1" onmouseover="setChange(evt)" onmouseout="unhiliteChange(evt)" onclick="changeMe(evt)" points="70.9818,118.923 40.9818,118.923 55.9818,144.904" seed="4"/><polygon fill="rgb(224, 176, 255)" stroke="black" stroke-width="1" onmouseover="setChange(evt)" onmouseout="unhiliteChange(evt)" onclick="changeMe(evt)" points="40.9808,118.923 25.9808,92.943 -0.000244141,107.942 15.0008,133.923" seed="5"/><polygon fill="rgb(224, 176, 255)" stroke="black" stroke-width="1" onmouseover="setChange(evt)" onmouseout="unhiliteChange(evt)" onclick="changeMe(evt)" points="55.9808,144.904 40.9818,118.923 15.0008,133.923 30.0007,159.904" seed="6"/><polygon fill="rgb(147, 112, 219)" stroke="black" stroke-width="1" onmouseover="setChange(evt)" onmouseout="unhiliteChange(evt)" onclick="changeMe(evt)" points="145.982,92.943 130.982,66.962 115.982,92.943" seed="7"/><polygon fill="rgb(224, 176, 255)" stroke="black" stroke-width="1" onmouseover="setChange(evt)" onmouseout="unhiliteChange(evt)" onclick="changeMe(evt)" points="156.962,51.962 141.963,25.981 115.982,40.981 130.982,66.962" seed="8"/><polygon fill="rgb(224, 176, 255)" stroke="black" stroke-width="1" onmouseover="setChange(evt)" onmouseout="unhiliteChange(evt)" onclick="changeMe(evt)" points="171.963,77.943 156.962,51.962 130.982,66.962 145.982,92.943" seed="9"/><polygon fill="rgb(41, 171, 135)" stroke="black" stroke-width="1" onmouseover="setChange(evt)" onmouseout="unhiliteChange(evt)" onclick="changeMe(evt)" points="216.963,51.961 201.962,25.981 171.962,25.981 156.962,51.962 171.963,77.943 201.963,77.942" seed="10"/><polygon fill="rgb(147, 112, 219)" stroke="black" stroke-width="1" onmouseover="setChange(evt)" onmouseout="unhiliteChange(evt)" onclick="changeMe(evt)" points="171.963,25.982 141.963,25.981 156.962,51.962" seed="11"/><polygon fill="rgb(147, 112, 219)" stroke="black" stroke-width="1" onmouseover="setChange(evt)" onmouseout="unhiliteChange(evt)" onclick="changeMe(evt)" points="201.962,25.981 186.961,0 171.962,25.981" seed="12"/></g>
</svg>
