<?xml version="1.0" encoding="utf-8"?>
<svg xmlns="http://www.w3.org/2000/svg" id="mainSVG" pointer-events="all" width="235.982" height="170.885" EdgeLen="30" template="u5_172_tu" code="E8_2_4_0" copyright="Francis Hemsher, 2012">
	<polygon id="BorderPoly" fill="none" pointer-events="none" stroke="red" stroke-width="4" transform="" points="205.981,-4.57764e-005 190.981,25.9808 160.981,25.9808 145.981,51.9618 115.981,51.9618 100.981,77.9427 70.9813,77.9427 55.9813,103.924 25.9813,103.924 0.00025177,118.923 14.9993,144.904 30.0003,170.885 55.9802,155.885 85.9813,155.885 100.981,129.905 130.981,129.905 145.981,103.924 175.981,103.924 190.981,77.9427 220.981,77.9427 235.981,51.9618 220.981,25.9808"/>
	<g id="mainPolyG" transform=""><polygon id="mainPoly" fill="rgb(252, 194, 0)" stroke="black" onmouseover="setChange(evt)" onmouseout="unhiliteChange(evt)" onclick="changeMe(evt)" points="130.981,77.9427 100.981,77.9427 85.9813,103.924 100.981,129.905 130.981,129.905 145.981,103.924" seed="0"/><polygon fill="rgb(41, 171, 135)" stroke="black" stroke-width="1" onmouseover="setChange(evt)" onmouseout="unhiliteChange(evt)" onclick="changeMe(evt)" points="85.9813,103.924 55.9813,103.923 40.9802,129.904 55.9802,155.885 85.9813,155.885 100.981,129.905" seed="1"/><polygon fill="rgb(41, 171, 135)" stroke="black" stroke-width="1" onmouseover="setChange(evt)" onmouseout="unhiliteChange(evt)" onclick="changeMe(evt)" points="175.981,51.9618 145.981,51.9618 130.981,77.9427 145.981,103.924 175.981,103.924 190.981,77.9427" seed="2"/><polygon fill="rgb(41, 171, 135)" stroke="black" stroke-width="1" onmouseover="setChange(evt)" onmouseout="unhiliteChange(evt)" onclick="changeMe(evt)" points="220.981,25.9808 190.981,25.9808 175.981,51.9618 190.981,77.9427 220.981,77.9427 235.981,51.9618" seed="3"/><polygon fill="rgb(224, 176, 255)" stroke="black" stroke-width="1" onmouseover="setChange(evt)" onmouseout="unhiliteChange(evt)" onclick="changeMe(evt)" points="55.9802,155.885 40.9802,129.905 14.9993,144.904 30.0003,170.885" seed="4"/><polygon fill="rgb(224, 176, 255)" stroke="black" stroke-width="1" onmouseover="setChange(evt)" onmouseout="unhiliteChange(evt)" onclick="changeMe(evt)" points="40.9802,129.905 25.9813,103.924 0.00025177,118.923 14.9993,144.904" seed="5"/><polygon fill="rgb(147, 112, 219)" stroke="black" stroke-width="1" onmouseover="setChange(evt)" onmouseout="unhiliteChange(evt)" onclick="changeMe(evt)" points="55.9813,103.924 25.9813,103.924 40.9802,129.905" seed="6"/><polygon fill="rgb(147, 112, 219)" stroke="black" stroke-width="1" onmouseover="setChange(evt)" onmouseout="unhiliteChange(evt)" onclick="changeMe(evt)" points="85.9813,103.924 70.9813,77.9427 55.9813,103.923" seed="7"/><polygon fill="rgb(147, 112, 219)" stroke="black" stroke-width="1" onmouseover="setChange(evt)" onmouseout="unhiliteChange(evt)" onclick="changeMe(evt)" points="100.981,77.9427 70.9813,77.9427 85.9813,103.923" seed="8"/><polygon fill="rgb(147, 112, 219)" stroke="black" stroke-width="1" onmouseover="setChange(evt)" onmouseout="unhiliteChange(evt)" onclick="changeMe(evt)" points="130.981,77.9427 115.981,51.9618 100.981,77.9427" seed="9"/><polygon fill="rgb(147, 112, 219)" stroke="black" stroke-width="1" onmouseover="setChange(evt)" onmouseout="unhiliteChange(evt)" onclick="changeMe(evt)" points="145.981,51.9618 115.981,51.9618 130.981,77.9427" seed="10"/><polygon fill="rgb(147, 112, 219)" stroke="black" stroke-width="1" onmouseover="setChange(evt)" onmouseout="unhiliteChange(evt)" onclick="changeMe(evt)" points="175.981,51.9618 160.981,25.9808 145.981,51.9618" seed="11"/><polygon fill="rgb(147, 112, 219)" stroke="black" stroke-width="1" onmouseover="setChange(evt)" onmouseout="unhiliteChange(evt)" onclick="changeMe(evt)" points="190.981,25.9808 160.981,25.9808 175.981,51.9618" seed="12"/><polygon fill="rgb(147, 112, 219)" stroke="black" stroke-width="1" onmouseover="setChange(evt)" onmouseout="unhiliteChange(evt)" onclick="changeMe(evt)" points="220.981,25.9808 205.981,-4.57764e-005 190.981,25.9808" seed="13"/></g>
</svg>
