<?xml version="1.0" encoding="utf-8"?>
<svg xmlns="http://www.w3.org/2000/svg" id="mainSVG" pointer-events="all" width="240.001" height="103.924" EdgeLen="30" template="u6_46_tu" code="F12_0_3_0" copyright="Francis Hemsher, 2012">
	<polygon id="BorderPoly" fill="none" pointer-events="none" stroke="red" stroke-width="4" transform="" points="225.001,0.00144577 195.001,0.00104523 165.001,0.000545502 135.001,0.000545502 105.001,4.57764e-005 90.0008,25.981 59.9997,25.981 44.9997,51.9612 14.9997,51.9612 -0.00025177,77.9423 14.9997,103.923 44.9997,103.923 59.9997,77.9423 90.0008,77.9423 105.001,51.9622 135.001,51.9622 165.001,51.9622 195.001,51.9622 225.001,51.9622 240.001,25.9825"/><g id="mainPolyG" transform=""><polygon id="mainPoly" fill="rgb(252, 194, 0)" stroke="black" onmouseover="setChange(evt)" onmouseout="unhiliteChange(evt)" onclick="changeMe(evt)" points="135.001,4.57764e-005 105.001,4.57764e-005 90.0008,25.981 105.001,51.9622 135.001,51.9622 150.001,25.981" seed="0"/><polygon fill="rgb(41, 171, 135)" stroke="black" stroke-width="1" onmouseover="setChange(evt)" onmouseout="unhiliteChange(evt)" onclick="changeMe(evt)" points="90.0008,25.981 59.9997,25.981 44.9997,51.9612 59.9997,77.9423 90.0008,77.9423 105.001,51.9622" seed="1"/><polygon fill="rgb(41, 171, 135)" stroke="black" stroke-width="1" onmouseover="setChange(evt)" onmouseout="unhiliteChange(evt)" onclick="changeMe(evt)" points="44.9997,51.9612 14.9997,51.9612 -0.00025177,77.9423 14.9997,103.923 44.9997,103.923 59.9997,77.9423" seed="2"/><polygon fill="rgb(147, 112, 219)" stroke="black" stroke-width="1" onmouseover="setChange(evt)" onmouseout="unhiliteChange(evt)" onclick="changeMe(evt)" points="165.001,0.000545502 135.001,0.000545502 150.001,25.981" seed="3"/><polygon fill="rgb(147, 112, 219)" stroke="black" stroke-width="1" onmouseover="setChange(evt)" onmouseout="unhiliteChange(evt)" onclick="changeMe(evt)" points="165.001,51.9622 150.001,25.9815 135.001,51.9622" seed="4"/><polygon fill="rgb(147, 112, 219)" stroke="black" stroke-width="1" onmouseover="setChange(evt)" onmouseout="unhiliteChange(evt)" onclick="changeMe(evt)" points="180.001,25.9815 165.001,0.000545502 150.001,25.981" seed="5"/><polygon fill="rgb(147, 112, 219)" stroke="black" stroke-width="1" onmouseover="setChange(evt)" onmouseout="unhiliteChange(evt)" onclick="changeMe(evt)" points="180.001,25.9815 150.001,25.9815 165.001,51.9622" seed="6"/><polygon fill="rgb(147, 112, 219)" stroke="black" stroke-width="1" onmouseover="setChange(evt)" onmouseout="unhiliteChange(evt)" onclick="changeMe(evt)" points="195.001,0.00104523 165.001,0.000545502 180.001,25.9815" seed="7"/><polygon fill="rgb(147, 112, 219)" stroke="black" stroke-width="1" onmouseover="setChange(evt)" onmouseout="unhiliteChange(evt)" onclick="changeMe(evt)" points="195.001,51.9622 180.001,25.9815 165.001,51.9622" seed="8"/><polygon fill="rgb(147, 112, 219)" stroke="black" stroke-width="1" onmouseover="setChange(evt)" onmouseout="unhiliteChange(evt)" onclick="changeMe(evt)" points="210.001,25.982 195.001,0.00104523 180.001,25.9815" seed="9"/><polygon fill="rgb(147, 112, 219)" stroke="black" stroke-width="1" onmouseover="setChange(evt)" onmouseout="unhiliteChange(evt)" onclick="changeMe(evt)" points="210.001,25.9815 180.001,25.9815 195.001,51.9622" seed="10"/><polygon fill="rgb(147, 112, 219)" stroke="black" stroke-width="1" onmouseover="setChange(evt)" onmouseout="unhiliteChange(evt)" onclick="changeMe(evt)" points="225.001,0.00144577 195.001,0.00104523 210.001,25.982" seed="11"/><polygon fill="rgb(147, 112, 219)" stroke="black" stroke-width="1" onmouseover="setChange(evt)" onmouseout="unhiliteChange(evt)" onclick="changeMe(evt)" points="225.001,51.9622 210.001,25.9815 195.001,51.9622" seed="12"/><polygon fill="rgb(147, 112, 219)" stroke="black" stroke-width="1" onmouseover="setChange(evt)" onmouseout="unhiliteChange(evt)" onclick="changeMe(evt)" points="240.001,25.9825 225.001,0.00144577 210.001,25.982" seed="13"/><polygon fill="rgb(147, 112, 219)" stroke="black" stroke-width="1" onmouseover="setChange(evt)" onmouseout="unhiliteChange(evt)" onclick="changeMe(evt)" points="240.001,25.9815 210.001,25.9815 225.001,51.9622" seed="14"/></g></svg>
