<?xml version="1.0" encoding="utf-8"?>
<svg xmlns="http://www.w3.org/2000/svg" id="mainSVG" pointer-events="all" width="115.98" height="170.885" EdgeLen="30" template="u5_164_tu" code="F4_2_2_0" copyright="Francis Hemsher, 2012">
	<polygon id="BorderPoly" fill="none" pointer-events="none" stroke="red" stroke-width="4" transform="" points="85.9807,-4.57764e-005 70.9807,25.9813 55.9808,51.9622 40.9805,77.9433 25.9805,103.924 -4.95911e-005,118.923 14.9995,144.905 29.9999,170.885 55.9808,155.884 70.9807,129.905 85.9807,103.924 100.981,77.9433 115.981,51.9622 100.981,25.9813"/>
	<g id="mainPolyG" transform=""><polygon id="mainPoly" fill="rgb(252, 194, 0)" stroke="black" onmouseover="setChange(evt)" onmouseout="unhiliteChange(evt)" onclick="changeMe(evt)" points="70.9807,77.9433 40.9805,77.9433 25.9805,103.924 40.9805,129.905 70.9807,129.905 85.9807,103.924" seed="0"/><polygon fill="rgb(224, 176, 255)" stroke="black" stroke-width="1" onmouseover="setChange(evt)" onmouseout="unhiliteChange(evt)" onclick="changeMe(evt)" points="40.9799,129.904 25.9805,103.924 -4.95911e-005,118.923 14.9995,144.905" seed="1"/><polygon fill="rgb(224, 176, 255)" stroke="black" stroke-width="1" onmouseover="setChange(evt)" onmouseout="unhiliteChange(evt)" onclick="changeMe(evt)" points="55.9808,155.884 40.9799,129.904 14.9999,144.905 29.9999,170.885" seed="2"/><polygon fill="rgb(147, 112, 219)" stroke="black" stroke-width="1" onmouseover="setChange(evt)" onmouseout="unhiliteChange(evt)" onclick="changeMe(evt)" points="70.9807,77.9433 55.9808,51.9622 40.9805,77.9433" seed="3"/><polygon fill="rgb(147, 112, 219)" stroke="black" stroke-width="1" onmouseover="setChange(evt)" onmouseout="unhiliteChange(evt)" onclick="changeMe(evt)" points="100.981,77.9433 70.9807,77.9433 85.9807,103.924" seed="4"/><polygon fill="rgb(41, 171, 135)" stroke="black" stroke-width="1" onmouseover="setChange(evt)" onmouseout="unhiliteChange(evt)" onclick="changeMe(evt)" points="100.981,25.9813 70.9807,25.9813 55.9808,51.9622 70.9807,77.9433 100.981,77.9433 115.981,51.9622" seed="5"/><polygon fill="rgb(147, 112, 219)" stroke="black" stroke-width="1" onmouseover="setChange(evt)" onmouseout="unhiliteChange(evt)" onclick="changeMe(evt)" points="100.981,25.9813 85.9807,-4.57764e-005 70.9807,25.9813" seed="6"/><polygon fill="rgb(147, 112, 219)" stroke="black" stroke-width="1" onmouseover="setChange(evt)" onmouseout="unhiliteChange(evt)" onclick="changeMe(evt)" points="70.9807,129.905 40.9805,129.905 55.9808,155.886" seed="7"/></g>
</svg>
