<?xml version="1.0" encoding="utf-8"?>
<svg xmlns="http://www.w3.org/2000/svg" id="mainSVG" pointer-events="all" width="75.001" height="223.923" EdgeLen="30" template="u5_103_tu" code="F4_8_2_0" copyright="Francis Hemsher, 2012">
	<polygon id="BorderPoly" fill="none" pointer-events="none" stroke="red" stroke-width="4" transform="" points="45.0005,0.00050354 15,-0.000495911 -3.8147e-006,25.9805 15,51.9615 -3.8147e-006,77.9425 15.0005,103.924 15,133.923 15.0005,163.924 15.0005,193.924 15.001,223.923 45.001,223.923 75.0015,223.922 75.0005,193.923 75.0005,163.923 74.9995,133.923 75.0005,103.924 60,77.9425 75.0005,51.9615 75.0005,51.9615 60,25.9815 75.0005,0.00050354"/>
	<g id="mainPolyG" transform=""><polygon id="mainPoly" fill="rgb(252, 194, 0)" stroke="black" onmouseover="setChange(evt)" onmouseout="unhiliteChange(evt)" onclick="changeMe(evt)" points="45,-0.000495911 15,-0.000495911 -3.8147e-006,25.9805 15,51.9615 45,51.9615 60,25.9805" seed="0"/><polygon fill="rgb(41, 171, 135)" stroke="black" stroke-width="1" onmouseover="setChange(evt)" onmouseout="unhiliteChange(evt)" onclick="changeMe(evt)" points="45,51.9615 15,51.9615 -3.8147e-006,77.9425 15,103.924 45,103.924 60,77.9425" seed="1"/><polygon fill="rgb(224, 176, 255)" stroke="black" stroke-width="1" onmouseover="setChange(evt)" onmouseout="unhiliteChange(evt)" onclick="changeMe(evt)" points="45,103.924 15.0005,103.924 15,133.923 45,133.923" seed="2"/><polygon fill="rgb(224, 176, 255)" stroke="black" stroke-width="1" onmouseover="setChange(evt)" onmouseout="unhiliteChange(evt)" onclick="changeMe(evt)" points="45.0005,163.924 44.9995,133.923 15,133.923 15.0005,163.924" seed="3"/><polygon fill="rgb(224, 176, 255)" stroke="black" stroke-width="1" onmouseover="setChange(evt)" onmouseout="unhiliteChange(evt)" onclick="changeMe(evt)" points="45.0005,163.924 15.001,163.924 15.0005,193.924 45.0005,193.923" seed="4"/><polygon fill="rgb(224, 176, 255)" stroke="black" stroke-width="1" onmouseover="setChange(evt)" onmouseout="unhiliteChange(evt)" onclick="changeMe(evt)" points="45.001,223.923 45,193.923 15.0005,193.924 15.001,223.923" seed="5"/><polygon fill="rgb(224, 176, 255)" stroke="black" stroke-width="1" onmouseover="setChange(evt)" onmouseout="unhiliteChange(evt)" onclick="changeMe(evt)" points="74.9995,133.923 75.0005,103.924 45,103.924 45,133.923" seed="6"/><polygon fill="rgb(224, 176, 255)" stroke="black" stroke-width="1" onmouseover="setChange(evt)" onmouseout="unhiliteChange(evt)" onclick="changeMe(evt)" points="75.0005,163.923 74.9995,133.923 44.9995,133.923 45.0005,163.923" seed="7"/><polygon fill="rgb(224, 176, 255)" stroke="black" stroke-width="1" onmouseover="setChange(evt)" onmouseout="unhiliteChange(evt)" onclick="changeMe(evt)" points="75.0005,193.923 75.0005,163.923 45.0005,163.924 45.0005,193.923" seed="8"/><polygon fill="rgb(224, 176, 255)" stroke="black" stroke-width="1" onmouseover="setChange(evt)" onmouseout="unhiliteChange(evt)" onclick="changeMe(evt)" points="75.0015,223.922 74.9995,193.922 45,193.923 45.001,223.923" seed="9"/><polygon fill="rgb(147, 112, 219)" stroke="black" stroke-width="1" onmouseover="setChange(evt)" onmouseout="unhiliteChange(evt)" onclick="changeMe(evt)" points="75.0005,0.00050354 45.0005,0.00050354 60,25.9805" seed="10"/><polygon fill="rgb(147, 112, 219)" stroke="black" stroke-width="1" onmouseover="setChange(evt)" onmouseout="unhiliteChange(evt)" onclick="changeMe(evt)" points="75.0005,51.9615 60,25.9815 45,51.9615" seed="11"/><polygon fill="rgb(147, 112, 219)" stroke="black" stroke-width="1" onmouseover="setChange(evt)" onmouseout="unhiliteChange(evt)" onclick="changeMe(evt)" points="75.0005,51.9615 45,51.9615 60,77.9425" seed="12"/><polygon fill="rgb(147, 112, 219)" stroke="black" stroke-width="1" onmouseover="setChange(evt)" onmouseout="unhiliteChange(evt)" onclick="changeMe(evt)" points="75.0005,103.924 60,77.9425 45.0005,103.924" seed="13"/></g>
</svg>
