<?xml version="1.0" encoding="utf-8"?>
<svg xmlns="http://www.w3.org/2000/svg" id="mainSVG" pointer-events="all" width="120.001" height="103.924" EdgeLen="30" template="u5_22_tu" code="F6_0_3_0" copyright="Francis Hemsher, 2012">
	<polygon id="BorderPoly" fill="none" pointer-events="none" stroke="red" stroke-width="4" transform="" points="60.0007,4.57764e-005 30,4.57764e-005 4.95911e-005,4.57764e-005 15.0005,25.9805 30.0005,51.9612 15,77.9423 4.95911e-005,103.923 30,103.923 60.0007,103.923 90.0008,103.923 105.001,77.9423 120.001,51.9612 105.001,25.9805 90.0008,4.57764e-005"/>
	<g id="mainPolyG" transform=""><polygon id="mainPoly" fill="rgb(252, 194, 0)" stroke="black" onmouseover="setChange(evt)" onmouseout="unhiliteChange(evt)" onclick="changeMe(evt)" points="105.001,25.9805 75.0008,25.9805 60.0007,51.9612 75.0008,77.9423 105.001,77.9423 120.001,51.9612" seed="0"/><polygon fill="rgb(41, 171, 135)" stroke="black" stroke-width="1" onmouseover="setChange(evt)" onmouseout="unhiliteChange(evt)" onclick="changeMe(evt)" points="60.0007,4.57764e-005 30,4.57764e-005 15.0005,25.9805 30.0005,51.9612 60.0007,51.9612 75.0008,25.9805" seed="1"/><polygon fill="rgb(41, 171, 135)" stroke="black" stroke-width="1" onmouseover="setChange(evt)" onmouseout="unhiliteChange(evt)" onclick="changeMe(evt)" points="60.0007,51.9612 30,51.9612 15,77.9423 30,103.923 60.0007,103.923 75.0008,77.9423" seed="2"/><polygon fill="rgb(147, 112, 219)" stroke="black" stroke-width="1" onmouseover="setChange(evt)" onmouseout="unhiliteChange(evt)" onclick="changeMe(evt)" points="90.0008,4.57764e-005 60.0007,4.57764e-005 75.0008,25.9805" seed="3"/><polygon fill="rgb(147, 112, 219)" stroke="black" stroke-width="1" onmouseover="setChange(evt)" onmouseout="unhiliteChange(evt)" onclick="changeMe(evt)" points="105.001,25.9805 90.0008,4.57764e-005 75.0008,25.9805" seed="4"/><polygon fill="rgb(147, 112, 219)" stroke="black" stroke-width="1" onmouseover="setChange(evt)" onmouseout="unhiliteChange(evt)" onclick="changeMe(evt)" points="15.0005,25.9805 30,-0.000453949 4.95911e-005,4.57764e-005" seed="5"/><polygon fill="rgb(147, 112, 219)" stroke="black" stroke-width="1" onmouseover="setChange(evt)" onmouseout="unhiliteChange(evt)" onclick="changeMe(evt)" points="30,103.923 15,77.9423 4.95911e-005,103.923" seed="6"/><polygon fill="rgb(147, 112, 219)" stroke="black" stroke-width="1" onmouseover="setChange(evt)" onmouseout="unhiliteChange(evt)" onclick="changeMe(evt)" points="90.0008,103.923 75.0008,77.9423 60.0007,103.923" seed="7"/><polygon fill="rgb(147, 112, 219)" stroke="black" stroke-width="1" onmouseover="setChange(evt)" onmouseout="unhiliteChange(evt)" onclick="changeMe(evt)" points="105.001,77.9423 75.0008,77.9423 90.0008,103.923" seed="8"/></g>
</svg>
