<?xml version="1.0" encoding="utf-8"?>
<svg xmlns="http://www.w3.org/2000/svg" id="mainSVG" pointer-events="all" width="180.001" height="207.846" EdgeLen="30" template="u6_33_tu" code="F8_0_4_0" copyright="Francis Hemsher, 2012">
	<polygon id="BorderPoly" fill="none" pointer-events="none" stroke="red" stroke-width="4" transform="" points="165.001,-0.00025177 135.001,-0.00025177 120.001,25.9808 105.001,51.9617 90.0005,77.9418 60.0005,77.9418 45.0005,103.923 30.0005,129.904 14.9995,155.885 7.62939e-006,181.865 14.9995,207.846 44.9995,207.847 59.9995,181.866 75.0005,155.885 90.0005,129.904 105.001,103.923 135.001,103.923 150.001,77.9427 165.001,51.9617 180.001,25.9808"/><g id="mainPolyG" transform=""><polygon id="mainPoly" fill="rgb(252, 194, 0)" stroke="black" onmouseover="setChange(evt)" onmouseout="unhiliteChange(evt)" onclick="changeMe(evt)" points="90.0005,77.9418 60.0005,77.9418 45.0005,103.923 60.0005,129.904 90.0005,129.904 105.001,103.923" seed="0"/><polygon fill="rgb(41, 171, 135)" stroke="black" stroke-width="1" onmouseover="setChange(evt)" onmouseout="unhiliteChange(evt)" onclick="changeMe(evt)" points="135.001,51.9617 105.001,51.9617 90.0005,77.9418 105.001,103.923 135.001,103.923 150.001,77.9427" seed="1"/><polygon fill="rgb(147, 112, 219)" stroke="black" stroke-width="1" onmouseover="setChange(evt)" onmouseout="unhiliteChange(evt)" onclick="changeMe(evt)" points="135.001,51.9617 120.001,25.9808 105.001,51.9617" seed="2"/><polygon fill="rgb(147, 112, 219)" stroke="black" stroke-width="1" onmouseover="setChange(evt)" onmouseout="unhiliteChange(evt)" onclick="changeMe(evt)" points="165.001,51.9617 135.001,51.9617 150.001,77.9427" seed="3"/><polygon fill="rgb(41, 171, 135)" stroke="black" stroke-width="1" onmouseover="setChange(evt)" onmouseout="unhiliteChange(evt)" onclick="changeMe(evt)" points="165.001,-0.00025177 135.001,-0.00025177 120.001,25.9808 135.001,51.9617 165.001,51.9617 180.001,25.9808" seed="4"/><polygon fill="rgb(147, 112, 219)" stroke="black" stroke-width="1" onmouseover="setChange(evt)" onmouseout="unhiliteChange(evt)" onclick="changeMe(evt)" points="59.9995,129.904 45.0005,103.923 30.0005,129.904" seed="5"/><polygon fill="rgb(147, 112, 219)" stroke="black" stroke-width="1" onmouseover="setChange(evt)" onmouseout="unhiliteChange(evt)" onclick="changeMe(evt)" points="90.0005,129.904 60.0005,129.904 75.0005,155.885" seed="6"/><polygon fill="rgb(41, 171, 135)" stroke="black" stroke-width="1" onmouseover="setChange(evt)" onmouseout="unhiliteChange(evt)" onclick="changeMe(evt)" points="59.9995,129.904 29.9995,129.904 14.9995,155.885 29.9995,181.866 59.9995,181.866 74.9995,155.885" seed="7"/><polygon fill="rgb(147, 112, 219)" stroke="black" stroke-width="1" onmouseover="setChange(evt)" onmouseout="unhiliteChange(evt)" onclick="changeMe(evt)" points="29.9995,181.866 14.9995,155.885 7.62939e-006,181.865" seed="8"/><polygon fill="rgb(147, 112, 219)" stroke="black" stroke-width="1" onmouseover="setChange(evt)" onmouseout="unhiliteChange(evt)" onclick="changeMe(evt)" points="59.9995,181.866 29.9995,181.866 44.9995,207.847" seed="9"/><polygon fill="rgb(147, 112, 219)" stroke="black" stroke-width="1" onmouseover="setChange(evt)" onmouseout="unhiliteChange(evt)" onclick="changeMe(evt)" points="29.9995,181.866 7.62939e-006,181.865 14.9995,207.846" seed="10"/><polygon fill="rgb(147, 112, 219)" stroke="black" stroke-width="1" onmouseover="setChange(evt)" onmouseout="unhiliteChange(evt)" onclick="changeMe(evt)" points="44.9995,207.847 29.9995,181.866 14.9995,207.847" seed="11"/></g></svg>
