<svg xmlns="http://www.w3.org/2000/svg" id="flourette" width="175.88430786132812" height="170.00030517578125" template="flourette" code="flourette"><g id="mainPolyG"><polygon id="mainPoly" fill="lime" stroke="black" stroke-width="1" points="77.9423 75 77.9423 15 103.923 0 129.903 15 129.903 45" seed="seed0"/><polygon xmlns="http://www.w3.org/2000/svg" stroke-width="1" stroke="black" fill="lime" points="77.942 75.0002 129.904 105 155.884 89.9998 155.884 59.9999 129.903 45" seed="seed1"/><polygon xmlns="http://www.w3.org/2000/svg" stroke-width="1" stroke="black" fill="lime" points="77.942 75.0002 129.904 105 129.904 135 103.923 150 77.9423 135" seed="seed2"/><polygon xmlns="http://www.w3.org/2000/svg" stroke-width="1" stroke="black" fill="lime" points="77.9423 75 77.9424 15 51.9615 0 25.9809 15 25.9808 45" seed="seed3"/><polygon xmlns="http://www.w3.org/2000/svg" stroke-width="1" stroke="black" fill="lime" points="77.9423 75 25.9807 105 0 89.9999 0.0000610352 59.9999 25.9808 45" seed="seed4"/><polygon xmlns="http://www.w3.org/2000/svg" stroke-width="1" stroke="black" fill="lime" points="77.942 75.0002 25.9806 105 25.9808 135.001 51.9616 150 77.9423 135" seed="seed5"/></g><polygon id="BorderPoly" stroke="red" stroke-width="3" fill="none" points="77.94235229492188,15,51.9615478515625,0,25.980865478515625,14.999969482421875,25.9808349609375,44.999969482421875,0.00006103515625,59.99993896484375,0,89.99990844726562,25.9805908203125,105.00048828125,25.98077392578125,135.00054931640625,51.961578369140625,150.00030517578125,77.9422607421875,135.00018310546875,103.923095703125,150.00006103515625,129.90374755859375,135,129.90362548828125,104.99996948242188,155.88430786132812,89.99981689453125,155.8841552734375,59.9998779296875,129.9033203125,45,129.9033203125,15,103.92330932617188,0"/></svg>