<?xml version="1.0" encoding="utf-8"?>
<svg xmlns="http://www.w3.org/2000/svg" id="mainSVG" pointer-events="all" width="285.001" height="233.828" EdgeLen="30" template="u6_529_tu" code="G12_0_6_0" copyright="Francis Hemsher, 2012">
	<polygon id="BorderPoly" fill="none" pointer-events="none" stroke="red" stroke-width="4" transform="" points="285.001,51.9622 270.002,25.9812 255.002,0.000244141 225.001,0.000244141 210.001,25.9802 180.001,25.9802 165.001,51.9612 135.001,51.9612 120.001,77.9422 90.0005,77.9422 75.0005,103.923 45.0005,103.922 29.9995,129.903 14.9995,155.884 -0.000488281,181.865 14.9995,207.846 29.9995,233.827 44.9995,207.846 60.0005,181.865 75.0005,155.884 105.001,155.885 120.001,129.904 150.001,129.904 165.001,103.923 195.001,103.923 210.001,77.9422 240.001,77.9422 255.001,51.9612"/>
	<g id="mainPolyG" transform=""><polygon id="mainPoly" fill="rgb(252, 194, 0)" stroke="black" onmouseover="setChange(evt)" onmouseout="unhiliteChange(evt)" onclick="changeMe(evt)" points="120.001,77.9422 90.0005,77.9422 75.0005,103.923 90.0005,129.904 120.001,129.904 135.001,103.923" seed="0"/><polygon fill="rgb(41, 171, 135)" stroke="black" stroke-width="1" onmouseover="setChange(evt)" onmouseout="unhiliteChange(evt)" onclick="changeMe(evt)" points="75.0005,103.923 45.0005,103.922 29.9995,129.903 44.9995,155.884 75.0005,155.884 90.0005,129.904" seed="1"/><polygon fill="rgb(41, 171, 135)" stroke="black" stroke-width="1" onmouseover="setChange(evt)" onmouseout="unhiliteChange(evt)" onclick="changeMe(evt)" points="165.001,51.9612 135.001,51.9612 120.001,77.9422 135.001,103.923 165.001,103.923 180.001,77.9422" seed="2"/><polygon fill="rgb(41, 171, 135)" stroke="black" stroke-width="1" onmouseover="setChange(evt)" onmouseout="unhiliteChange(evt)" onclick="changeMe(evt)" points="210.001,25.9802 180.001,25.9802 165.001,51.9612 180.001,77.9422 210.001,77.9422 225.001,51.9612" seed="3"/><polygon fill="rgb(41, 171, 135)" stroke="black" stroke-width="1" onmouseover="setChange(evt)" onmouseout="unhiliteChange(evt)" onclick="changeMe(evt)" points="255.002,0.000244141 225.001,0.000244141 210.001,25.9802 225.001,51.9612 255.001,51.9622 270.002,25.9812" seed="4"/><polygon fill="rgb(147, 112, 219)" stroke="black" stroke-width="1" onmouseover="setChange(evt)" onmouseout="unhiliteChange(evt)" onclick="changeMe(evt)" points="44.9995,155.884 29.9995,129.903 14.9995,155.884" seed="5"/><polygon fill="rgb(147, 112, 219)" stroke="black" stroke-width="1" onmouseover="setChange(evt)" onmouseout="unhiliteChange(evt)" onclick="changeMe(evt)" points="75.0005,155.884 45.0005,155.884 60.0005,181.865" seed="6"/><polygon fill="rgb(41, 171, 135)" stroke="black" stroke-width="1" onmouseover="setChange(evt)" onmouseout="unhiliteChange(evt)" onclick="changeMe(evt)" points="44.9995,155.884 14.9995,155.884 -0.000488281,181.865 14.9995,207.846 44.9995,207.846 59.9995,181.865" seed="7"/><polygon fill="rgb(147, 112, 219)" stroke="black" stroke-width="1" onmouseover="setChange(evt)" onmouseout="unhiliteChange(evt)" onclick="changeMe(evt)" points="44.9995,207.846 14.9995,207.846 29.9995,233.827" seed="8"/><polygon fill="rgb(147, 112, 219)" stroke="black" stroke-width="1" onmouseover="setChange(evt)" onmouseout="unhiliteChange(evt)" onclick="changeMe(evt)" points="105.001,155.885 90.0005,129.904 75.0005,155.884" seed="9"/><polygon fill="rgb(147, 112, 219)" stroke="black" stroke-width="1" onmouseover="setChange(evt)" onmouseout="unhiliteChange(evt)" onclick="changeMe(evt)" points="120.001,129.904 90.0005,129.904 105.001,155.885" seed="10"/><polygon fill="rgb(147, 112, 219)" stroke="black" stroke-width="1" onmouseover="setChange(evt)" onmouseout="unhiliteChange(evt)" onclick="changeMe(evt)" points="150.001,129.904 135.001,103.923 120.001,129.904" seed="11"/><polygon fill="rgb(147, 112, 219)" stroke="black" stroke-width="1" onmouseover="setChange(evt)" onmouseout="unhiliteChange(evt)" onclick="changeMe(evt)" points="165.001,103.923 135.001,103.923 150,129.904" seed="12"/><polygon fill="rgb(147, 112, 219)" stroke="black" stroke-width="1" onmouseover="setChange(evt)" onmouseout="unhiliteChange(evt)" onclick="changeMe(evt)" points="195.001,103.923 180.001,77.9422 165.001,103.923" seed="13"/><polygon fill="rgb(147, 112, 219)" stroke="black" stroke-width="1" onmouseover="setChange(evt)" onmouseout="unhiliteChange(evt)" onclick="changeMe(evt)" points="210.001,77.9422 180.001,77.9422 195.001,103.923" seed="14"/><polygon fill="rgb(147, 112, 219)" stroke="black" stroke-width="1" onmouseover="setChange(evt)" onmouseout="unhiliteChange(evt)" onclick="changeMe(evt)" points="240.001,77.9422 225.001,51.9612 210.001,77.9422" seed="15"/><polygon fill="rgb(147, 112, 219)" stroke="black" stroke-width="1" onmouseover="setChange(evt)" onmouseout="unhiliteChange(evt)" onclick="changeMe(evt)" points="255.001,51.9622 225.001,51.9612 240.001,77.9422" seed="16"/><polygon fill="rgb(147, 112, 219)" stroke="black" stroke-width="1" onmouseover="setChange(evt)" onmouseout="unhiliteChange(evt)" onclick="changeMe(evt)" points="285.001,51.9622 270.002,25.9812 255.001,51.9612" seed="17"/></g>
</svg>
