<?xml version="1.0" encoding="utf-8"?>
<svg xmlns="http://www.w3.org/2000/svg" id="mainSVG" pointer-events="all" width="120.001" height="223.923" EdgeLen="30" template="u5_104_tu" code="G4_8_2_0" copyright="Francis Hemsher, 2012">
	<polygon id="BorderPoly" fill="none" pointer-events="none" stroke="red" stroke-width="4" transform="" points="90.0015,0.000495911 60.0015,0.000495911 45.0015,25.9815 30.001,51.9625 15.0015,77.9435 0.000995636,103.923 0.00149536,133.923 0.000495911,163.923 0.00149536,193.921 -3.8147e-006,223.921 30,223.924 60.0005,223.924 60.0005,193.924 60.0005,163.924 60.0015,133.923 60.0015,103.923 75.0005,77.9435 90.0005,51.9625 105.001,25.9815 120.001,0.000495911"/><g id="mainPolyG" transform=""><polygon id="mainPoly" fill="rgb(252, 194, 0)" stroke="black" onmouseover="setChange(evt)" onmouseout="unhiliteChange(evt)" onclick="changeMe(evt)" points="60.0015,51.9625 30.001,51.9625 15.001,77.9435 30.001,103.923 60.0015,103.923 75.0005,77.9435" seed="0"/><polygon fill="rgb(224, 176, 255)" stroke="black" stroke-width="1" onmouseover="setChange(evt)" onmouseout="unhiliteChange(evt)" onclick="changeMe(evt)" points="60.0005,103.923 30.001,103.923 30.001,133.923 60.0015,133.923" seed="1"/><polygon fill="rgb(224, 176, 255)" stroke="black" stroke-width="1" onmouseover="setChange(evt)" onmouseout="unhiliteChange(evt)" onclick="changeMe(evt)" points="60.0015,133.923 30.0015,133.923 30.0005,163.924 60.0005,163.924" seed="2"/><polygon fill="rgb(224, 176, 255)" stroke="black" stroke-width="1" onmouseover="setChange(evt)" onmouseout="unhiliteChange(evt)" onclick="changeMe(evt)" points="60.0005,163.924 30.0005,163.924 30.0005,193.924 60.0005,193.924" seed="3"/><polygon fill="rgb(224, 176, 255)" stroke="black" stroke-width="1" onmouseover="setChange(evt)" onmouseout="unhiliteChange(evt)" onclick="changeMe(evt)" points="60.0005,193.924 30.001,193.924 30,223.924 60.0005,223.924" seed="4"/><polygon fill="rgb(224, 176, 255)" stroke="black" stroke-width="1" onmouseover="setChange(evt)" onmouseout="unhiliteChange(evt)" onclick="changeMe(evt)" points="30.001,103.923 0.000995636,103.923 0.00149536,133.923 30.001,133.923" seed="5"/><polygon fill="rgb(224, 176, 255)" stroke="black" stroke-width="1" onmouseover="setChange(evt)" onmouseout="unhiliteChange(evt)" onclick="changeMe(evt)" points="30.0015,133.923 0.00199509,133.923 0.000495911,163.923 30.0005,163.924" seed="6"/><polygon fill="rgb(224, 176, 255)" stroke="black" stroke-width="1" onmouseover="setChange(evt)" onmouseout="unhiliteChange(evt)" onclick="changeMe(evt)" points="30.0005,163.924 0.000495911,163.924 0.000995636,193.924 30.0005,193.924" seed="7"/><polygon fill="rgb(224, 176, 255)" stroke="black" stroke-width="1" onmouseover="setChange(evt)" onmouseout="unhiliteChange(evt)" onclick="changeMe(evt)" points="30.001,193.924 0.00149536,193.921 -3.8147e-006,223.921 30,223.923" seed="8"/><polygon fill="rgb(147, 112, 219)" stroke="black" stroke-width="1" onmouseover="setChange(evt)" onmouseout="unhiliteChange(evt)" onclick="changeMe(evt)" points="30.001,103.923 15.0015,77.9435 0.000995636,103.923" seed="9"/><polygon fill="rgb(147, 112, 219)" stroke="black" stroke-width="1" onmouseover="setChange(evt)" onmouseout="unhiliteChange(evt)" onclick="changeMe(evt)" points="60.0015,51.9625 45.0015,25.9815 30.001,51.9625" seed="10"/><polygon fill="rgb(147, 112, 219)" stroke="black" stroke-width="1" onmouseover="setChange(evt)" onmouseout="unhiliteChange(evt)" onclick="changeMe(evt)" points="90.0005,51.9625 60.0015,51.9625 75.0005,77.9435" seed="11"/><polygon fill="rgb(41, 171, 135)" stroke="black" stroke-width="1" onmouseover="setChange(evt)" onmouseout="unhiliteChange(evt)" onclick="changeMe(evt)" points="90.0005,0.000495911 60.0015,0.000495911 45.0015,25.9815 60.0015,51.9625 90.0005,51.9625 105.001,25.9815" seed="12"/><polygon fill="rgb(147, 112, 219)" stroke="black" stroke-width="1" onmouseover="setChange(evt)" onmouseout="unhiliteChange(evt)" onclick="changeMe(evt)" points="120.001,0.000495911 90.0015,0.000495911 105.001,25.9815" seed="13"/></g></svg>
