<?xml version="1.0" encoding="utf-8"?>
<svg xmlns="http://www.w3.org/2000/svg" id="mainSVG" pointer-events="all" width="201.962" height="185.884" EdgeLen="30" template="u5_182_tu" code="G6_4_3_0" copyright="Francis Hemsher, 2012">
	<polygon id="BorderPoly" fill="none" pointer-events="none" stroke="red" stroke-width="4" transform="" points="171.964,4.57764e-005 156.962,25.9797 126.962,25.9807 100.982,40.9817 85.9818,66.9607 55.9818,66.9607 40.9818,92.9417 25.9808,118.923 -0.000244141,133.923 15.0008,159.903 30.0007,185.885 55.9818,170.885 70.9818,144.904 85.9818,118.923 115.982,118.923 130.982,92.9417 156.962,77.9427 186.962,77.9427 201.963,51.9627 186.963,25.9807"/>
	<g id="mainPolyG" transform=""><polygon id="mainPoly" fill="rgb(252, 194, 0)" stroke="black" onmouseover="setChange(evt)" onmouseout="unhiliteChange(evt)" onclick="changeMe(evt)" points="115.982,66.9607 85.9818,66.9607 70.9818,92.9417 85.9818,118.923 115.982,118.923 130.982,92.9417" seed="0"/><polygon fill="rgb(41, 171, 135)" stroke="black" stroke-width="1" onmouseover="setChange(evt)" onmouseout="unhiliteChange(evt)" onclick="changeMe(evt)" points="70.9818,92.9417 40.9818,92.9417 25.9808,118.923 40.9808,144.904 70.9818,144.904 85.9818,118.923" seed="1"/><polygon fill="rgb(147, 112, 219)" stroke="black" stroke-width="1" onmouseover="setChange(evt)" onmouseout="unhiliteChange(evt)" onclick="changeMe(evt)" points="85.9818,66.9607 55.9818,66.9607 70.9818,92.9417" seed="2"/><polygon fill="rgb(147, 112, 219)" stroke="black" stroke-width="1" onmouseover="setChange(evt)" onmouseout="unhiliteChange(evt)" onclick="changeMe(evt)" points="70.9818,92.9417 55.9818,66.9607 40.9818,92.9417" seed="3"/><polygon fill="rgb(147, 112, 219)" stroke="black" stroke-width="1" onmouseover="setChange(evt)" onmouseout="unhiliteChange(evt)" onclick="changeMe(evt)" points="70.9818,144.904 40.9818,144.904 55.9818,170.885" seed="4"/><polygon fill="rgb(224, 176, 255)" stroke="black" stroke-width="1" onmouseover="setChange(evt)" onmouseout="unhiliteChange(evt)" onclick="changeMe(evt)" points="40.9808,144.904 25.9808,118.923 -0.000244141,133.923 15.0008,159.903" seed="5"/><polygon fill="rgb(224, 176, 255)" stroke="black" stroke-width="1" onmouseover="setChange(evt)" onmouseout="unhiliteChange(evt)" onclick="changeMe(evt)" points="55.9808,170.885 40.9818,144.904 15.0008,159.903 30.0007,185.885" seed="6"/><polygon fill="rgb(224, 176, 255)" stroke="black" stroke-width="1" onmouseover="setChange(evt)" onmouseout="unhiliteChange(evt)" onclick="changeMe(evt)" points="156.962,77.9427 141.963,51.9607 115.982,66.9618 130.982,92.9417" seed="7"/><polygon fill="rgb(224, 176, 255)" stroke="black" stroke-width="1" onmouseover="setChange(evt)" onmouseout="unhiliteChange(evt)" onclick="changeMe(evt)" points="141.962,51.9607 126.962,25.9807 100.982,40.9817 115.982,66.9618" seed="8"/><polygon fill="rgb(147, 112, 219)" stroke="black" stroke-width="1" onmouseover="setChange(evt)" onmouseout="unhiliteChange(evt)" onclick="changeMe(evt)" points="115.982,66.9607 100.982,40.9797 85.9818,66.9607" seed="9"/><polygon fill="rgb(147, 112, 219)" stroke="black" stroke-width="1" onmouseover="setChange(evt)" onmouseout="unhiliteChange(evt)" onclick="changeMe(evt)" points="141.962,51.9607 156.962,25.9797 126.962,25.9807" seed="10"/><polygon fill="rgb(41, 171, 135)" stroke="black" stroke-width="1" onmouseover="setChange(evt)" onmouseout="unhiliteChange(evt)" onclick="changeMe(evt)" points="186.963,25.9807 156.963,25.9807 141.963,51.9607 156.962,77.9427 186.962,77.9427 201.963,51.9627" seed="11"/><polygon fill="rgb(147, 112, 219)" stroke="black" stroke-width="1" onmouseover="setChange(evt)" onmouseout="unhiliteChange(evt)" onclick="changeMe(evt)" points="186.963,25.9807 171.964,4.57764e-005 156.963,25.9807" seed="12"/></g>
</svg>
