<?xml version="1.0" encoding="utf-8"?>
<svg xmlns="http://www.w3.org/2000/svg" id="mainSVG" pointer-events="all" width="255.001" height="129.904" EdgeLen="30" template="u6_44_tu" code="G8_0_4_0" copyright="Francis Hemsher, 2012">
	<polygon id="BorderPoly" fill="none" pointer-events="none" stroke="red" stroke-width="4" transform="" points="240.001,4.57764e-005 210.001,4.57764e-005 180.001,4.57764e-005 165.001,25.9805 135.001,25.9805 105.001,25.9799 90.0005,51.9613 59.9995,51.9613 44.9995,77.9413 14.9995,77.9413 -0.000495911,103.922 14.9995,129.903 44.9995,129.903 59.9995,103.922 90.0005,103.922 105.001,77.9422 135.001,77.9422 165.001,77.9422 180.001,51.9613 210.001,51.9613 240.001,51.9622 255.001,25.981"/>
	<g id="mainPolyG" transform=""><polygon id="mainPoly" fill="rgb(252, 194, 0)" stroke="black" onmouseover="setChange(evt)" onmouseout="unhiliteChange(evt)" onclick="changeMe(evt)" points="135.001,25.9799 105.001,25.9799 90.0005,51.9613 105.001,77.9422 135.001,77.9422 150.001,51.9613" seed="0"/><polygon fill="rgb(41, 171, 135)" stroke="black" stroke-width="1" onmouseover="setChange(evt)" onmouseout="unhiliteChange(evt)" onclick="changeMe(evt)" points="90.0005,51.9613 59.9995,51.9613 44.9995,77.9413 59.9995,103.922 90.0005,103.922 105.001,77.9422" seed="1"/><polygon fill="rgb(41, 171, 135)" stroke="black" stroke-width="1" onmouseover="setChange(evt)" onmouseout="unhiliteChange(evt)" onclick="changeMe(evt)" points="44.9995,77.9413 14.9995,77.9413 -0.000495911,103.922 14.9995,129.903 44.9995,129.903 59.9995,103.922" seed="2"/><polygon fill="rgb(147, 112, 219)" stroke="black" stroke-width="1" onmouseover="setChange(evt)" onmouseout="unhiliteChange(evt)" onclick="changeMe(evt)" points="165.001,25.9805 135.001,25.9805 150.001,51.9613" seed="3"/><polygon fill="rgb(147, 112, 219)" stroke="black" stroke-width="1" onmouseover="setChange(evt)" onmouseout="unhiliteChange(evt)" onclick="changeMe(evt)" points="165.001,77.9422 150.001,51.9613 135.001,77.9422" seed="4"/><polygon fill="rgb(147, 112, 219)" stroke="black" stroke-width="1" onmouseover="setChange(evt)" onmouseout="unhiliteChange(evt)" onclick="changeMe(evt)" points="180.001,51.9613 165.001,25.9805 150.001,51.9613" seed="5"/><polygon fill="rgb(147, 112, 219)" stroke="black" stroke-width="1" onmouseover="setChange(evt)" onmouseout="unhiliteChange(evt)" onclick="changeMe(evt)" points="180.001,51.9613 150.001,51.9613 165.001,77.9422" seed="6"/><polygon fill="rgb(41, 171, 135)" stroke="black" stroke-width="1" onmouseover="setChange(evt)" onmouseout="unhiliteChange(evt)" onclick="changeMe(evt)" points="210.001,4.57764e-005 180.001,4.57764e-005 165.001,25.9805 180.001,51.9613 210.001,51.9613 225.001,25.981" seed="7"/><polygon fill="rgb(147, 112, 219)" stroke="black" stroke-width="1" onmouseover="setChange(evt)" onmouseout="unhiliteChange(evt)" onclick="changeMe(evt)" points="240.001,4.57764e-005 210.001,4.57764e-005 225.001,25.981" seed="8"/><polygon fill="rgb(147, 112, 219)" stroke="black" stroke-width="1" onmouseover="setChange(evt)" onmouseout="unhiliteChange(evt)" onclick="changeMe(evt)" points="240.001,51.9622 225.001,25.981 210.001,51.9613" seed="9"/><polygon fill="rgb(147, 112, 219)" stroke="black" stroke-width="1" onmouseover="setChange(evt)" onmouseout="unhiliteChange(evt)" onclick="changeMe(evt)" points="255.001,25.981 240.001,4.57764e-005 225.001,25.981" seed="10"/><polygon fill="rgb(147, 112, 219)" stroke="black" stroke-width="1" onmouseover="setChange(evt)" onmouseout="unhiliteChange(evt)" onclick="changeMe(evt)" points="255.001,25.981 225.001,25.981 240.001,51.9622" seed="11"/></g>
</svg>
