<?xml version="1.0" encoding="utf-8"?>
<svg xmlns="http://www.w3.org/2000/svg" id="mainSVG" pointer-events="all" width="235.983" height="170.885" EdgeLen="30" template="u5_174_tu" code="G8_2_4_0" copyright="Francis Hemsher, 2012">
	<polygon id="BorderPoly" fill="none" pointer-events="none" stroke="red" stroke-width="4" transform="" points="205.983,0.000999451 175.983,0.00050354 145.983,0 115.982,0 100.982,25.9805 70.9818,25.9805 55.9818,51.9615 40.9818,77.9415 25.9808,103.923 -0.000244141,118.923 14.9998,144.904 30.0018,170.884 55.9818,155.884 70.9818,129.904 85.9818,103.924 100.982,77.9425 130.982,77.9425 145.982,51.9615 175.982,51.9615 205.983,51.9635 235.983,51.9635 220.983,25.9825"/>
	<g id="mainPolyG" transform=""><polygon id="mainPoly" fill="rgb(252, 194, 0)" stroke="black" onmouseover="setChange(evt)" onmouseout="unhiliteChange(evt)" onclick="changeMe(evt)" points="100.982,25.9805 70.9818,25.9805 55.9818,51.9615 70.9818,77.9425 100.982,77.9425 115.982,51.9615" seed="0"/><polygon fill="rgb(147, 112, 219)" stroke="black" stroke-width="1" onmouseover="setChange(evt)" onmouseout="unhiliteChange(evt)" onclick="changeMe(evt)" points="100.982,77.9425 70.9818,77.9425 85.9818,103.924" seed="1"/><polygon fill="rgb(147, 112, 219)" stroke="black" stroke-width="1" onmouseover="setChange(evt)" onmouseout="unhiliteChange(evt)" onclick="changeMe(evt)" points="70.9818,77.9415 55.9818,51.9615 40.9818,77.9415" seed="2"/><polygon fill="rgb(41, 171, 135)" stroke="black" stroke-width="1" onmouseover="setChange(evt)" onmouseout="unhiliteChange(evt)" onclick="changeMe(evt)" points="70.9818,77.9415 40.9818,77.9415 25.9808,103.923 40.9808,129.904 70.9818,129.904 85.9818,103.923" seed="3"/><polygon fill="rgb(147, 112, 219)" stroke="black" stroke-width="1" onmouseover="setChange(evt)" onmouseout="unhiliteChange(evt)" onclick="changeMe(evt)" points="55.9818,155.884 70.9808,129.904 40.9808,129.904" seed="4"/><polygon fill="rgb(224, 176, 255)" stroke="black" stroke-width="1" onmouseover="setChange(evt)" onmouseout="unhiliteChange(evt)" onclick="changeMe(evt)" points="40.9808,129.904 25.9808,103.923 -0.000244141,118.923 14.9998,144.904" seed="5"/><polygon fill="rgb(224, 176, 255)" stroke="black" stroke-width="1" onmouseover="setChange(evt)" onmouseout="unhiliteChange(evt)" onclick="changeMe(evt)" points="55.9818,155.884 40.9808,129.905 15.0008,144.905 30.0018,170.884" seed="6"/><polygon fill="rgb(41, 171, 135)" stroke="black" stroke-width="1" onmouseover="setChange(evt)" onmouseout="unhiliteChange(evt)" onclick="changeMe(evt)" points="145.983,0 115.982,0 100.982,25.9805 115.982,51.9615 145.982,51.9615 160.983,25.9815" seed="7"/><polygon fill="rgb(147, 112, 219)" stroke="black" stroke-width="1" onmouseover="setChange(evt)" onmouseout="unhiliteChange(evt)" onclick="changeMe(evt)" points="130.982,77.9425 115.982,51.9615 100.982,77.9425" seed="8"/><polygon fill="rgb(147, 112, 219)" stroke="black" stroke-width="1" onmouseover="setChange(evt)" onmouseout="unhiliteChange(evt)" onclick="changeMe(evt)" points="145.982,51.9615 115.982,51.9615 130.982,77.9425" seed="9"/><polygon fill="rgb(147, 112, 219)" stroke="black" stroke-width="1" onmouseover="setChange(evt)" onmouseout="unhiliteChange(evt)" onclick="changeMe(evt)" points="175.982,51.9615 160.983,25.9815 145.982,51.9615" seed="10"/><polygon fill="rgb(41, 171, 135)" stroke="black" stroke-width="1" onmouseover="setChange(evt)" onmouseout="unhiliteChange(evt)" onclick="changeMe(evt)" points="205.983,0.000999451 175.983,0.00050354 160.983,25.9815 175.982,51.9615 205.983,51.9635 220.983,25.9825" seed="11"/><polygon fill="rgb(147, 112, 219)" stroke="black" stroke-width="1" onmouseover="setChange(evt)" onmouseout="unhiliteChange(evt)" onclick="changeMe(evt)" points="175.983,0 145.983,0 160.983,25.9815" seed="12"/><polygon fill="rgb(147, 112, 219)" stroke="black" stroke-width="1" onmouseover="setChange(evt)" onmouseout="unhiliteChange(evt)" onclick="changeMe(evt)" points="235.983,51.9635 220.983,25.9825 205.983,51.9635" seed="13"/></g>
</svg>
