<?xml version="1.0" encoding="utf-8"?>
<svg xmlns="http://www.w3.org/2000/svg" id="mainSVG" pointer-events="all" width="201.961" height="185.885" EdgeLen="30" template="u5_183_tu" code="H6_4_3_0" copyright="Francis Hemsher, 2012">
	<polygon id="BorderPoly" fill="none" pointer-events="none" stroke="red" stroke-width="4" transform="" points="171.962,0.00105286 141.962,-4.57764e-005 111.96,-4.57764e-005 85.9805,15.0003 70.9805,40.9812 55.9805,66.9622 40.9805,92.9433 25.9805,118.924 -0.000495911,133.923 14.9995,159.905 29.9995,185.885 55.9805,170.884 70.9805,144.905 85.9805,118.924 100.98,92.9433 115.98,66.9622 141.96,51.9622 171.961,51.9633 201.961,51.9633 186.961,25.9823"/>
	<g id="mainPolyG" transform=""><polygon id="mainPoly" fill="rgb(252, 194, 0)" stroke="black" onmouseover="setChange(evt)" onmouseout="unhiliteChange(evt)" onclick="changeMe(evt)" points="70.9805,92.9433 40.9805,92.9433 25.9805,118.924 40.9805,144.905 70.9805,144.905 85.9805,118.924" seed="0"/><polygon fill="rgb(224, 176, 255)" stroke="black" stroke-width="1" onmouseover="setChange(evt)" onmouseout="unhiliteChange(evt)" onclick="changeMe(evt)" points="40.9795,144.904 25.9805,118.924 -0.000495911,133.923 14.9995,159.905" seed="1"/><polygon fill="rgb(224, 176, 255)" stroke="black" stroke-width="1" onmouseover="setChange(evt)" onmouseout="unhiliteChange(evt)" onclick="changeMe(evt)" points="55.9805,170.884 40.9795,144.904 14.9995,159.905 29.9995,185.885" seed="2"/><polygon fill="rgb(147, 112, 219)" stroke="black" stroke-width="1" onmouseover="setChange(evt)" onmouseout="unhiliteChange(evt)" onclick="changeMe(evt)" points="70.9805,144.905 40.9805,144.905 55.9805,170.886" seed="3"/><polygon fill="rgb(147, 112, 219)" stroke="black" stroke-width="1" onmouseover="setChange(evt)" onmouseout="unhiliteChange(evt)" onclick="changeMe(evt)" points="70.9805,92.9433 55.9805,66.9622 40.9805,92.9433" seed="4"/><polygon fill="rgb(147, 112, 219)" stroke="black" stroke-width="1" onmouseover="setChange(evt)" onmouseout="unhiliteChange(evt)" onclick="changeMe(evt)" points="100.98,92.9433 70.9815,92.9433 85.9805,118.924" seed="5"/><polygon fill="rgb(41, 171, 135)" stroke="black" stroke-width="1" onmouseover="setChange(evt)" onmouseout="unhiliteChange(evt)" onclick="changeMe(evt)" points="100.98,40.9812 70.9815,40.9812 55.9805,66.9622 70.9805,92.9433 100.98,92.9433 115.98,66.9622" seed="6"/><polygon fill="rgb(147, 112, 219)" stroke="black" stroke-width="1" onmouseover="setChange(evt)" onmouseout="unhiliteChange(evt)" onclick="changeMe(evt)" points="100.98,40.9812 85.9805,15.0003 70.9805,40.9812" seed="7"/><polygon fill="rgb(224, 176, 255)" stroke="black" stroke-width="1" onmouseover="setChange(evt)" onmouseout="unhiliteChange(evt)" onclick="changeMe(evt)" points="126.962,25.9813 111.96,-4.57764e-005 85.9805,15.0003 100.98,40.9803" seed="8"/><polygon fill="rgb(224, 176, 255)" stroke="black" stroke-width="1" onmouseover="setChange(evt)" onmouseout="unhiliteChange(evt)" onclick="changeMe(evt)" points="141.96,51.9622 126.962,25.9813 100.982,40.9812 115.98,66.9622" seed="9"/><polygon fill="rgb(147, 112, 219)" stroke="black" stroke-width="1" onmouseover="setChange(evt)" onmouseout="unhiliteChange(evt)" onclick="changeMe(evt)" points="141.962,-4.57764e-005 111.96,-4.57764e-005 126.962,25.9813" seed="10"/><polygon fill="rgb(41, 171, 135)" stroke="black" stroke-width="1" onmouseover="setChange(evt)" onmouseout="unhiliteChange(evt)" onclick="changeMe(evt)" points="171.962,0.00105286 141.962,0.000549316 126.962,25.9813 141.96,51.9622 171.961,51.9633 186.961,25.9823" seed="11"/><polygon fill="rgb(147, 112, 219)" stroke="black" stroke-width="1" onmouseover="setChange(evt)" onmouseout="unhiliteChange(evt)" onclick="changeMe(evt)" points="201.961,51.9633 186.961,25.9823 171.961,51.9633" seed="12"/></g>
</svg>
