<?xml version="1.0" encoding="utf-8"?>
<svg xmlns="http://www.w3.org/2000/svg" id="mainSVG" pointer-events="all" width="165.001" height="129.904" EdgeLen="30" template="u6_66_tu" code="H8_0_4_0" copyright="Francis Hemsher, 2012">
	<polygon id="BorderPoly" fill="none" pointer-events="none" stroke="red" stroke-width="4" transform="" points="120.001,25.98 105.001,7.62939e-006 74.9997,7.62939e-006 59.9997,25.9805 29.9997,25.981 15,51.962 4.57764e-005,77.943 29.9997,77.943 45.0007,103.923 75.0008,103.923 90.0008,129.904 120.001,129.904 135.001,103.923 150.001,77.943 165.001,51.961 150.001,25.98"/>
	<g id="mainPolyG" transform=""><polygon id="mainPoly" fill="rgb(252, 194, 0)" stroke="black" onmouseover="setChange(evt)" onmouseout="unhiliteChange(evt)" onclick="changeMe(evt)" points="120.001,77.942 90.0008,77.942 75.0008,103.923 90.0008,129.904 120.001,129.904 135.001,103.923" seed="0"/><polygon fill="rgb(41, 171, 135)" stroke="black" stroke-width="1" onmouseover="setChange(evt)" onmouseout="unhiliteChange(evt)" onclick="changeMe(evt)" points="75.0008,51.961 44.9997,51.961 29.9997,77.943 45.0007,103.923 75.0008,103.923 90.0008,77.942" seed="1"/><polygon fill="rgb(147, 112, 219)" stroke="black" stroke-width="1" onmouseover="setChange(evt)" onmouseout="unhiliteChange(evt)" onclick="changeMe(evt)" points="74.9997,51.961 59.9997,25.9805 44.9997,51.961" seed="2"/><polygon fill="rgb(147, 112, 219)" stroke="black" stroke-width="1" onmouseover="setChange(evt)" onmouseout="unhiliteChange(evt)" onclick="changeMe(evt)" points="105.001,51.961 75.0008,51.961 90.0008,77.942" seed="3"/><polygon fill="rgb(147, 112, 219)" stroke="black" stroke-width="1" onmouseover="setChange(evt)" onmouseout="unhiliteChange(evt)" onclick="changeMe(evt)" points="120.001,77.942 105.001,51.961 90.0008,77.942" seed="4"/><polygon fill="rgb(147, 112, 219)" stroke="black" stroke-width="1" onmouseover="setChange(evt)" onmouseout="unhiliteChange(evt)" onclick="changeMe(evt)" points="150.001,77.943 120.001,77.943 135.001,103.923" seed="5"/><polygon fill="rgb(41, 171, 135)" stroke="black" stroke-width="1" onmouseover="setChange(evt)" onmouseout="unhiliteChange(evt)" onclick="changeMe(evt)" points="105.001,7.62939e-006 74.9997,7.62939e-006 59.9997,25.9805 74.9997,51.961 105.001,51.961 120.001,25.981" seed="6"/><polygon fill="rgb(41, 171, 135)" stroke="black" stroke-width="1" onmouseover="setChange(evt)" onmouseout="unhiliteChange(evt)" onclick="changeMe(evt)" points="150.001,25.98 120.001,25.98 105.001,51.961 120.001,77.942 150.001,77.942 165.001,51.961" seed="7"/><polygon fill="rgb(147, 112, 219)" stroke="black" stroke-width="1" onmouseover="setChange(evt)" onmouseout="unhiliteChange(evt)" onclick="changeMe(evt)" points="29.9997,77.943 44.9997,51.961 15,51.962" seed="8"/><polygon fill="rgb(147, 112, 219)" stroke="black" stroke-width="1" onmouseover="setChange(evt)" onmouseout="unhiliteChange(evt)" onclick="changeMe(evt)" points="30.0007,77.943 15,51.962 4.57764e-005,77.943" seed="9"/><polygon fill="rgb(147, 112, 219)" stroke="black" stroke-width="1" onmouseover="setChange(evt)" onmouseout="unhiliteChange(evt)" onclick="changeMe(evt)" points="44.9997,51.961 29.9997,25.981 15,51.962" seed="10"/><polygon fill="rgb(147, 112, 219)" stroke="black" stroke-width="1" onmouseover="setChange(evt)" onmouseout="unhiliteChange(evt)" onclick="changeMe(evt)" points="44.9997,51.961 59.9997,25.9805 29.9997,25.981" seed="11"/></g>
</svg>
