<?xml version="1.0" encoding="utf-8"?>
<svg xmlns="http://www.w3.org/2000/svg" id="mainSVG" pointer-events="all" width="175.979" height="274.809" EdgeLen="30" template="u5_175_tu" code="H8_2_4_0" copyright="Francis Hemsher, 2012">
	<polygon id="BorderPoly" fill="none" pointer-events="none" stroke="red" stroke-width="4" transform="" points="145.977,0.000427246 130.979,25.9814 115.979,51.9624 100.979,77.9434 85.9805,103.924 70.9805,129.905 55.9805,155.886 40.9805,181.866 25.9815,207.847 0,222.847 14.9995,248.828 30.0005,274.809 55.9805,259.809 70.9805,233.828 85.9805,207.847 100.98,181.867 115.98,155.885 130.98,129.905 145.979,103.923 160.979,77.9424 175.979,51.9614 160.979,25.9804"/>
	<g id="mainPolyG" transform=""><polygon id="mainPoly" fill="rgb(252, 194, 0)" stroke="black" onmouseover="setChange(evt)" onmouseout="unhiliteChange(evt)" onclick="changeMe(evt)" points="70.9805,181.866 40.9805,181.866 25.9805,207.847 40.9805,233.828 70.9805,233.828 85.9805,207.847" seed="0"/><polygon fill="rgb(147, 112, 219)" stroke="black" stroke-width="1" onmouseover="setChange(evt)" onmouseout="unhiliteChange(evt)" onclick="changeMe(evt)" points="70.9805,233.828 40.9805,233.828 55.9805,259.809" seed="1"/><polygon fill="rgb(224, 176, 255)" stroke="black" stroke-width="1" onmouseover="setChange(evt)" onmouseout="unhiliteChange(evt)" onclick="changeMe(evt)" points="55.9805,259.809 40.9805,233.828 14.9995,248.828 30.0005,274.809" seed="2"/><polygon fill="rgb(224, 176, 255)" stroke="black" stroke-width="1" onmouseover="setChange(evt)" onmouseout="unhiliteChange(evt)" onclick="changeMe(evt)" points="40.9805,233.828 25.9815,207.847 0,222.847 14.9995,248.828" seed="3"/><polygon fill="rgb(147, 112, 219)" stroke="black" stroke-width="1" onmouseover="setChange(evt)" onmouseout="unhiliteChange(evt)" onclick="changeMe(evt)" points="70.9805,181.866 55.9805,155.886 40.9805,181.866" seed="4"/><polygon fill="rgb(147, 112, 219)" stroke="black" stroke-width="1" onmouseover="setChange(evt)" onmouseout="unhiliteChange(evt)" onclick="changeMe(evt)" points="100.98,181.867 70.9805,181.866 85.9805,207.847" seed="5"/><polygon fill="rgb(41, 171, 135)" stroke="black" stroke-width="1" onmouseover="setChange(evt)" onmouseout="unhiliteChange(evt)" onclick="changeMe(evt)" points="115.98,155.885 100.98,129.904 70.9805,129.905 55.9805,155.886 70.9805,181.867 100.98,181.866" seed="6"/><polygon fill="rgb(147, 112, 219)" stroke="black" stroke-width="1" onmouseover="setChange(evt)" onmouseout="unhiliteChange(evt)" onclick="changeMe(evt)" points="100.98,129.904 85.9805,103.924 70.9805,129.905" seed="7"/><polygon fill="rgb(147, 112, 219)" stroke="black" stroke-width="1" onmouseover="setChange(evt)" onmouseout="unhiliteChange(evt)" onclick="changeMe(evt)" points="130.98,129.905 100.981,129.905 115.98,155.885" seed="8"/><polygon fill="rgb(41, 171, 135)" stroke="black" stroke-width="1" onmouseover="setChange(evt)" onmouseout="unhiliteChange(evt)" onclick="changeMe(evt)" points="145.979,103.923 130.979,77.9424 100.979,77.9434 85.9805,103.924 100.98,129.904 130.98,129.904" seed="9"/><polygon fill="rgb(147, 112, 219)" stroke="black" stroke-width="1" onmouseover="setChange(evt)" onmouseout="unhiliteChange(evt)" onclick="changeMe(evt)" points="130.979,77.9424 115.979,51.9624 100.979,77.9434" seed="10"/><polygon fill="rgb(147, 112, 219)" stroke="black" stroke-width="1" onmouseover="setChange(evt)" onmouseout="unhiliteChange(evt)" onclick="changeMe(evt)" points="145.979,103.923 160.979,77.9424 130.979,77.9424" seed="11"/><polygon fill="rgb(41, 171, 135)" stroke="black" stroke-width="1" onmouseover="setChange(evt)" onmouseout="unhiliteChange(evt)" onclick="changeMe(evt)" points="175.979,51.9614 160.979,25.9804 130.979,25.9814 115.979,51.9624 130.979,77.9424 160.979,77.9424" seed="12"/><polygon fill="rgb(147, 112, 219)" stroke="black" stroke-width="1" onmouseover="setChange(evt)" onmouseout="unhiliteChange(evt)" onclick="changeMe(evt)" points="160.979,25.9804 145.977,0.000427246 130.979,25.9814" seed="13"/></g>
</svg>
