<svg xmlns="http://www.w3.org/2000/svg" id="Hex2_rh2_60" width="200.00003051757812" height="279.8075866699219" template="Hex2_rh2_60" code="Hex2_rh2_60"><g id="mainPolyG"><polygon id="mainPoly" fill="gold" stroke="black" stroke-width="1" points="150 51.9615 120 0 60 0 30 51.9615 60 103.923 120 103.923" seed="seed0"/><polygon fill="gold" stroke="black" stroke-width="1" points="150 155.885 120 207.846 60 207.846 30 155.885 60 103.923 120 103.923" seed="seed1"/><polygon fill="lime" stroke="black" stroke-width="1" points="120 103.923 150 51.9615 180 103.923 150 155.885" seed="seed2"/><polygon fill="lime" stroke="black" stroke-width="1" points="60 207.846 30 155.885 0 207.846 30 259.808" seed="seed3"/></g><polygon id="BorderPoly" stroke="red" stroke-width="3" fill="none" points="60.000030517578125,0,30.000030517578125,51.961517333984375,60.000030517578125,103.92303466796875,0,207.84609985351562,30,259.8075866699219,60,207.84609985351562,120,207.84609985351562,180.00003051757812,103.92303466796875,120.00003051757812,0"/></svg>