<?xml version="1.0" encoding="utf-8"?>
<svg xmlns="http://www.w3.org/2000/svg" id="mainSVG" pointer-events="all" width="240.001" height="51.9625" EdgeLen="30" template="u6_591_tu" code="J10_0_3_0" copyright="Francis Hemsher, 2012">
	<polygon id="BorderPoly" fill="none" pointer-events="none" stroke="red" stroke-width="4" transform="" points="240.001,0.000545502 210.001,0.00104523 180.001,0.00104523 150.001,0.00104523 120.001,0.000545502 90.0005,0.000545502 60.0005,4.57764e-005 30.0005,4.57764e-005 14.9995,25.98 -0.000495911,51.9625 29.9995,51.962 60.0005,51.962 90.0005,51.962 120.001,51.9625 150.001,51.9625 180.001,51.9625 210.001,51.9625 225.001,25.9815"/>
	<g id="mainPolyG" transform=""><polygon id="mainPoly" fill="rgb(252, 194, 0)" stroke="black" onmouseover="setChange(evt)" onmouseout="unhiliteChange(evt)" onclick="changeMe(evt)" points="150.001,0.000545502 120.001,0.000545502 105.001,25.9815 120.001,51.9625 150.001,51.9625 165.001,25.9815" seed="0"/><polygon fill="rgb(147, 112, 219)" stroke="black" stroke-width="1" onmouseover="setChange(evt)" onmouseout="unhiliteChange(evt)" onclick="changeMe(evt)" points="120.001,0.000545502 90.0005,0.000545502 105.001,25.981" seed="1"/><polygon fill="rgb(147, 112, 219)" stroke="black" stroke-width="1" onmouseover="setChange(evt)" onmouseout="unhiliteChange(evt)" onclick="changeMe(evt)" points="120,51.962 105.001,25.9815 90.0005,51.962" seed="2"/><polygon fill="rgb(147, 112, 219)" stroke="black" stroke-width="1" onmouseover="setChange(evt)" onmouseout="unhiliteChange(evt)" onclick="changeMe(evt)" points="180.001,0.00104523 150.001,0.00104523 165.001,25.9815" seed="3"/><polygon fill="rgb(147, 112, 219)" stroke="black" stroke-width="1" onmouseover="setChange(evt)" onmouseout="unhiliteChange(evt)" onclick="changeMe(evt)" points="180.001,51.9625 165.001,25.982 150.001,51.9625" seed="4"/><polygon fill="rgb(41, 171, 135)" stroke="black" stroke-width="1" onmouseover="setChange(evt)" onmouseout="unhiliteChange(evt)" onclick="changeMe(evt)" points="210.001,0.00104523 180.001,0.00104523 165.001,25.982 180.001,51.9625 210.001,51.9625 225.001,25.9815" seed="5"/><polygon fill="rgb(41, 171, 135)" stroke="black" stroke-width="1" onmouseover="setChange(evt)" onmouseout="unhiliteChange(evt)" onclick="changeMe(evt)" points="90.0005,0.000545502 60.0005,4.57764e-005 44.9995,25.981 60.0005,51.962 90.0005,51.962 105.001,25.9815" seed="6"/><polygon fill="rgb(147, 112, 219)" stroke="black" stroke-width="1" onmouseover="setChange(evt)" onmouseout="unhiliteChange(evt)" onclick="changeMe(evt)" points="225.001,25.9815 240.001,0.000545502 210.001,0.00104523" seed="7"/><polygon fill="rgb(147, 112, 219)" stroke="black" stroke-width="1" onmouseover="setChange(evt)" onmouseout="unhiliteChange(evt)" onclick="changeMe(evt)" points="60.0005,4.57764e-005 30.0005,4.57764e-005 44.9995,25.9805" seed="8"/><polygon fill="rgb(147, 112, 219)" stroke="black" stroke-width="1" onmouseover="setChange(evt)" onmouseout="unhiliteChange(evt)" onclick="changeMe(evt)" points="60.0005,51.962 44.9995,25.981 29.9995,51.962" seed="9"/><polygon fill="rgb(147, 112, 219)" stroke="black" stroke-width="1" onmouseover="setChange(evt)" onmouseout="unhiliteChange(evt)" onclick="changeMe(evt)" points="44.9995,25.9805 30.0005,-0.000453949 14.9995,25.98" seed="10"/><polygon fill="rgb(147, 112, 219)" stroke="black" stroke-width="1" onmouseover="setChange(evt)" onmouseout="unhiliteChange(evt)" onclick="changeMe(evt)" points="44.9995,25.9815 14.9995,25.9815 29.9995,51.962" seed="11"/><polygon fill="rgb(147, 112, 219)" stroke="black" stroke-width="1" onmouseover="setChange(evt)" onmouseout="unhiliteChange(evt)" onclick="changeMe(evt)" points="29.9995,51.962 14.9995,25.9815 -0.000495911,51.9625" seed="12"/></g>
</svg>
