<?xml version="1.0" encoding="utf-8"?>
<svg xmlns="http://www.w3.org/2000/svg" id="mainSVG" pointer-events="all" width="195" height="77.943" EdgeLen="30" template="u6_519_tu" code="J6_0_3_0" copyright="Francis Hemsher, 2012">
	<polygon id="BorderPoly" fill="none" pointer-events="none" stroke="red" stroke-width="4" transform="" points="165.001,-3.8147e-006 135.001,0.000495911 105.001,-3.8147e-006 89.9998,25.981 60.0008,25.981 29.9998,25.9805 -4.57764e-005,25.9805 14.9998,51.9615 29.9998,77.9425 59.9998,77.9425 89.9998,77.9425 120,77.9435 135.001,51.962 165.001,51.9615 195.001,51.961 180.001,25.9805"/>
	<g id="mainPolyG" transform=""><polygon id="mainPoly" fill="rgb(252, 194, 0)" stroke="black" onmouseover="setChange(evt)" onmouseout="unhiliteChange(evt)" onclick="changeMe(evt)" points="59.9998,25.9805 29.9998,25.9805 14.9998,51.9615 29.9998,77.9425 59.9998,77.9425 74.9998,51.9615" seed="0"/><polygon fill="rgb(147, 112, 219)" stroke="black" stroke-width="1" onmouseover="setChange(evt)" onmouseout="unhiliteChange(evt)" onclick="changeMe(evt)" points="89.9998,25.981 60.0008,25.981 74.9998,51.9615" seed="1"/><polygon fill="rgb(147, 112, 219)" stroke="black" stroke-width="1" onmouseover="setChange(evt)" onmouseout="unhiliteChange(evt)" onclick="changeMe(evt)" points="89.9998,77.9425 74.9998,51.962 59.9998,77.9425" seed="2"/><polygon fill="rgb(147, 112, 219)" stroke="black" stroke-width="1" onmouseover="setChange(evt)" onmouseout="unhiliteChange(evt)" onclick="changeMe(evt)" points="29.9998,25.9805 -4.57764e-005,25.9805 14.9998,51.961" seed="3"/><polygon fill="rgb(41, 171, 135)" stroke="black" stroke-width="1" onmouseover="setChange(evt)" onmouseout="unhiliteChange(evt)" onclick="changeMe(evt)" points="120,25.981 89.9998,25.981 74.9998,51.9615 89.9998,77.9425 120,77.9435 135.001,51.962" seed="4"/><polygon fill="rgb(41, 171, 135)" stroke="black" stroke-width="1" onmouseover="setChange(evt)" onmouseout="unhiliteChange(evt)" onclick="changeMe(evt)" points="180.001,25.9805 165.001,-3.8147e-006 135.001,0.000495911 120.001,25.981 135.001,51.962 165.001,51.9615" seed="5"/><polygon fill="rgb(147, 112, 219)" stroke="black" stroke-width="1" onmouseover="setChange(evt)" onmouseout="unhiliteChange(evt)" onclick="changeMe(evt)" points="120,25.981 105,-3.8147e-006 89.9998,25.981" seed="6"/><polygon fill="rgb(147, 112, 219)" stroke="black" stroke-width="1" onmouseover="setChange(evt)" onmouseout="unhiliteChange(evt)" onclick="changeMe(evt)" points="135.001,0.000495911 105.001,-3.8147e-006 120.001,25.981" seed="7"/><polygon fill="rgb(147, 112, 219)" stroke="black" stroke-width="1" onmouseover="setChange(evt)" onmouseout="unhiliteChange(evt)" onclick="changeMe(evt)" points="195.001,51.961 180.001,25.9805 165.001,51.9615" seed="8"/></g>
</svg>
