<svg xmlns="http://www.w3.org/2000/svg" id="Rhomb" width="261.7247009277344" height="322.7052307128906" template="Rhomb" code="Rhomb"><g id="mainPolyG"><polygon id="mainPoly" fill="Red" stroke="black" stroke-width="1" points="149.394 157.082 92.331 175.623 149.394 194.164 206.457 175.623" seed="seed0"/><polygon fill="lime" stroke="black" stroke-width="1" points="149.394 194.164 206.457 175.623 206.457 235.623 149.394 254.164" classloc="0"  seed="seed1"/><polygon fill="lime" stroke="black" stroke-width="1" points="149.394 194.164 149.394 254.164 92.3309 235.623 92.331 175.623" classloc="1"  seed="seed2"/><polygon fill="lime" stroke="black" stroke-width="1" points="114.127 108.541 149.394 157.082 92.3307 175.623 57.0635 127.082" classloc="5"  seed="seed3"/><polygon fill="lime" stroke="black" stroke-width="1" points="92.3307 175.623 57.0635 127.082 21.7964 175.623 57.0636 224.164" classloc="9"  seed="seed4"/><polygon fill="Red" stroke="black" stroke-width="1" points="57.0636 224.164 92.3307 175.623 92.3307 235.623 57.0637 284.164" classloc="10"  seed="seed5"/><polygon fill="Red" stroke="black" stroke-width="1" points="21.7965 235.623 57.0637 284.164 57.0636 224.164 21.7964 175.623" classloc="21"  seed="seed6"/><polygon fill="lime" stroke="black" stroke-width="1" points="92.3307 235.623 57.0637 284.164 114.127 302.705 149.394 254.164" classloc="22"  seed="seed7"/><polygon fill="lime" stroke="black" stroke-width="1" points="206.457 235.623 149.394 254.164 184.661 302.705 241.725 284.164" classloc="23"  seed="seed8"/><polygon fill="lime" stroke="black" stroke-width="1" points="206.457 175.623 149.394 157.082 184.661 108.541 241.724 127.082" classloc="24"  seed="seed9"/><polygon fill="lime" stroke="black" stroke-width="1" points="184.661 108.541 149.394 60 114.127 108.541 149.394 157.082" classloc="26"  seed="seed10"/><polygon fill="Red" stroke="black" stroke-width="1" points="184.661 48.541 184.661 108.541 149.394 60 149.394 0.0000305176" classloc="29"  seed="seed11"/><polygon fill="Red" stroke="black" stroke-width="1" points="149.394 60 149.394 0 114.127 48.541 114.127 108.541" classloc="33"  seed="seed12"/><polygon fill="lime" stroke="black" stroke-width="1" points="57.0632 90 57.0632 30 114.127 48.541 114.127 108.541" classloc="43"  seed="seed13"/><polygon fill="Red" stroke="black" stroke-width="1" points="57.0634 90.0002 0.0000610352 108.541 57.0635 127.082 114.127 108.541" classloc="44"  seed="seed14"/><polygon fill="lime" stroke="black" stroke-width="1" points="0 48.5413 57.0634 30.0002 57.0634 90.0002 0.0000610352 108.541" classLoc="45"  seed="seed15"/></g><polygon id="BorderPoly" stroke="red" stroke-width="3" fill="none" points="149.39370727539062,0,114.1265869140625,48.541015625,57.063385009765625,30.000244140625,0,48.54132080078125,0.00006103515625,108.54132080078125,57.0634765625,127.082275390625,21.796417236328125,175.62326049804688,21.7965087890625,235.623291015625,57.06365966796875,284.1642761230469,114.12704467773438,302.7052307128906,149.39410400390625,254.16412353515625,184.66128540039062,302.7051086425781,241.72470092773438,284.1639709472656,206.45745849609375,235.62301635742188,206.45700073242188,175.62313842773438,241.72421264648438,127.08218383789062,184.66079711914062,108.54104614257812,184.66082763671875,48.541015625"/></svg>