<svg xmlns="http://www.w3.org/2000/svg" id="Rhomb_5_10" width="389.78717041015625" height="389.3218078613281" template="Rhomb_5_10" code="Rhomb_5_10"><g id="mainPolyG"><polygon id="mainPoly" fill="Gold" stroke="black" stroke-width="1" points="194.164 0 145.623 35.267 194.164 70.534 242.705 35.267" seed="seed0"/><polygon fill="Gold" stroke="black" stroke-width="1" points="194.164 70.534 242.705 35.267 261.246 92.3304 212.705 127.597" seed="seed1"/><polygon fill="Gold" stroke="black" stroke-width="1" points="194.164 70.5341 175.623 127.597 127.082 92.3304 145.623 35.267" seed="seed2"/><polygon fill="lime" stroke="black" stroke-width="1" points="212.705 127.597 194.164 70.534 175.623 127.597 194.164 184.661" seed="seed3"/><polygon fill="lime" stroke="black" stroke-width="1" points="175.623 127.597 194.164 184.661 145.623 149.394 127.082 92.3302" seed="seed4"/><polygon fill="lime" stroke="black" stroke-width="1" points="145.623 149.394 85.6231 149.393 134.164 184.661 194.164 184.661" seed="seed5"/><polygon fill="lime" stroke="black" stroke-width="1" points="134.164 184.661 194.164 184.661 145.623 219.928 85.6229 219.928" seed="seed6"/><polygon fill="lime" stroke="black" stroke-width="1" points="242.705 149.394 194.164 184.661 212.705 127.598 261.246 92.3304" seed="seed7"/><polygon fill="lime" stroke="black" stroke-width="1" points="175.623 241.724 194.164 184.661 145.623 219.928 127.082 276.991" seed="seed8"/><polygon fill="lime" stroke="black" stroke-width="1" points="175.623 241.724 194.164 184.661 212.705 241.724 194.164 298.788" seed="seed9"/><polygon fill="lime" stroke="black" stroke-width="1" points="242.705 219.928 194.164 184.661 212.705 241.724 261.246 276.991" seed="seed10"/><polygon fill="lime" stroke="black" stroke-width="1" points="254.164 184.661 302.705 219.928 242.705 219.928 194.164 184.661" seed="seed11"/><polygon fill="lime" stroke="black" stroke-width="1" points="254.164 184.661 302.705 149.394 242.705 149.394 194.164 184.661" seed="seed12"/><polygon fill="Gold" stroke="black" stroke-width="1" points="127.082 92.3301 67.0822 92.33 85.6231 149.393 145.623 149.394" seed="seed13"/><polygon fill="Gold" stroke="black" stroke-width="1" points="85.623 219.928 37.082 184.66 85.6231 149.393 134.164 184.661" seed="seed14"/><polygon fill="Gold" stroke="black" stroke-width="1" points="85.623 219.928 67.0818 276.991 127.082 276.991 145.623 219.928" seed="seed15"/><polygon fill="Gold" stroke="black" stroke-width="1" points="194.164 298.788 242.705 334.055 261.246 276.991 212.705 241.724" seed="seed16"/><polygon fill="Gold" stroke="black" stroke-width="1" points="302.705 149.394 351.246 184.661 302.705 219.928 254.164 184.661" seed="seed17"/><polygon fill="Gold" stroke="black" stroke-width="1" points="194.164 298.788 145.623 334.055 127.082 276.991 175.623 241.724" seed="seed18"/><polygon fill="Gold" stroke="black" stroke-width="1" points="261.246 276.991 321.246 276.992 302.705 219.928 242.705 219.928" seed="seed19"/><polygon fill="Gold" stroke="black" stroke-width="1" points="261.246 92.3305 321.246 92.3306 302.705 149.394 242.705 149.394" seed="seed20"/><polygon fill="Gold" stroke="black" stroke-width="1" points="85.6227 334.054 67.0818 276.991 127.082 276.991 145.623 334.055" seed="seed21"/><polygon fill="Gold" stroke="black" stroke-width="1" points="194.164 369.322 242.705 334.055 194.164 298.788 145.623 334.055" seed="seed22"/><polygon fill="Gold" stroke="black" stroke-width="1" points="302.705 334.055 242.705 334.055 261.246 276.991 321.246 276.992" seed="seed23"/><polygon fill="Gold" stroke="black" stroke-width="1" points="369.787 241.725 321.246 276.992 302.705 219.928 351.246 184.661" seed="seed24"/><polygon fill="Gold" stroke="black" stroke-width="1" points="369.787 127.598 321.246 92.3306 302.705 149.394 351.246 184.661" seed="seed25"/><polygon fill="Gold" stroke="black" stroke-width="1" points="18.5408 241.724 37.0821 184.66 85.623 219.928 67.0818 276.991" seed="seed26"/><polygon fill="Gold" stroke="black" stroke-width="1" points="85.6231 149.393 67.0822 92.33 18.5412 127.597 37.082 184.66" seed="seed27"/><polygon fill="lime" stroke="black" stroke-width="1" points="37.082 184.66 18.5412 127.597 0 184.66 18.5408 241.724" seed="seed28"/></g><polygon id="BorderPoly" stroke="red" stroke-width="3" fill="none" points="194.16419982910156,0,145.6232147216797,35.266998291015625,127.08222961425781,92.33013916015625,67.08216857910156,92.33004760742188,18.541183471679688,127.59707641601562,0,184.66043090820312,18.540847778320312,241.72384643554688,67.08183288574219,276.9909973144531,85.62269592285156,334.0544738769531,145.6227264404297,334.0545349121094,194.1636505126953,369.3218078613281,242.70469665527344,334.0547790527344,302.7047119140625,334.0549011230469,321.245849609375,276.9915466308594,369.78692626953125,241.72451782226562,351.24603271484375,184.66116333007812,369.78717041015625,127.59780883789062,321.2462158203125,92.33059692382812,261.2462158203125,92.33047485351562,242.7052764892578,35.2669677734375"/></svg>