<svg xmlns="http://www.w3.org/2000/svg" id="Rhomb8_sq" width="412.1322021484375" height="412.1322326660156" template="Rhomb8_sq" code="Rhomb8_sq"><g id="mainPolyG"><polygon id="mainPoly" fill="Red" stroke="black" stroke-width="1" points="204.853 144.853 144.853 144.853 144.853 204.853 204.853 204.853" seed="seed0"/><polygon fill="Blue" stroke="black" stroke-width="1" points="102.427 162.427 102.427 102.427 144.853 144.853 144.853 204.853" classloc="1"  seed="seed1"/><polygon fill="Blue" stroke="black" stroke-width="1" points="144.853 144.853 204.853 144.853 162.427 102.427 102.427 102.427" classloc="5"  seed="seed2"/><polygon fill="Blue" stroke="black" stroke-width="1" points="162.426 247.279 102.426 247.279 144.853 204.853 204.853 204.853" classloc="7"  seed="seed3"/><polygon fill="Blue" stroke="black" stroke-width="1" points="204.853 144.853 247.279 102.427 247.279 162.427 204.853 204.853" classloc="12"  seed="seed4"/><polygon fill="Red" stroke="black" stroke-width="1" points="204.853 204.853 162.426 247.279 204.853 289.706 247.279 247.279" classloc="13"  seed="seed5"/><polygon fill="Red" stroke="black" stroke-width="1" points="247.279 247.279 204.853 204.853 247.279 162.427 289.706 204.853" classloc="14"  seed="seed6"/><polygon fill="Blue" stroke="black" stroke-width="1" points="307.279 247.279 349.706 204.853 289.706 204.853 247.279 247.279" classloc="19"  seed="seed7"/><polygon fill="Blue" stroke="black" stroke-width="1" points="247.279 307.279 204.853 349.706 204.853 289.706 247.279 247.279" classloc="20"  seed="seed8"/><polygon fill="Red" stroke="black" stroke-width="1" points="247.279 247.279 307.279 247.279 307.279 307.279 247.279 307.279" classloc="21"  seed="seed9"/><polygon fill="Blue" stroke="black" stroke-width="1" points="307.279 307.279 247.279 307.279 289.706 349.706 349.706 349.706" classloc="22"  seed="seed10"/><polygon fill="Blue" stroke="black" stroke-width="1" points="349.706 289.706 349.706 349.706 307.279 307.279 307.279 247.279" classloc="26"  seed="seed11"/><polygon fill="Red" stroke="black" stroke-width="1" points="289.706 349.706 247.279 392.132 204.853 349.706 247.279 307.279" classloc="27"  seed="seed12"/><polygon fill="Red" stroke="black" stroke-width="1" points="349.706 204.853 392.132 247.28 349.706 289.706 307.279 247.279" classloc="28"  seed="seed13"/><polygon fill="Red" stroke="black" stroke-width="1" points="204.853 289.706 144.853 289.706 144.853 349.706 204.853 349.706" classloc="29"  seed="seed14"/><polygon fill="Blue" stroke="black" stroke-width="1" points="162.426 247.279 204.853 289.706 144.853 289.706 102.426 247.279" classloc="32"  seed="seed15"/><polygon fill="Blue" stroke="black" stroke-width="1" points="144.853 289.706 102.426 247.279 102.426 307.279 144.853 349.706" classloc="37"  seed="seed16"/><polygon fill="Red" stroke="black" stroke-width="1" points="144.853 349.706 102.426 392.132 60 349.706 102.426 307.279" classloc="38"  seed="seed17"/><polygon fill="Red" stroke="black" stroke-width="1" points="102.426 307.279 42.4265 307.279 42.4265 247.279 102.426 247.279" classloc="39"  seed="seed18"/><polygon fill="Blue" stroke="black" stroke-width="1" points="42.4265 307.279 0 349.706 60 349.706 102.427 307.279" classloc="40"  seed="seed19"/><polygon fill="Blue" stroke="black" stroke-width="1" points="0.000137329 289.705 42.4266 247.279 42.4265 307.279 0 349.706" classloc="41"  seed="seed20"/><polygon fill="Red" stroke="black" stroke-width="1" points="60.0001 204.853 102.427 247.279 144.853 204.853 102.427 162.427" classloc="42"  seed="seed21"/><polygon fill="Blue" stroke="black" stroke-width="1" points="60.0001 204.853 0.0000915527 204.853 42.4265 247.279 102.426 247.279" classloc="43"  seed="seed22"/><polygon fill="Red" stroke="black" stroke-width="1" points="0.0000762939 144.853 60.0001 144.853 60.0001 204.853 0.0000915527 204.853" classloc="44"  seed="seed23"/><polygon fill="Blue" stroke="black" stroke-width="1" points="60.0001 144.853 60.0001 204.853 102.427 162.427 102.427 102.427" classloc="46"  seed="seed24"/><polygon fill="Blue" stroke="black" stroke-width="1" points="42.4265 102.426 0.0000762939 144.853 60.0001 144.853 102.426 102.426" classloc="49"  seed="seed25"/><polygon fill="Red" stroke="black" stroke-width="1" points="42.4265 42.4265 102.426 42.4264 102.426 102.426 42.4265 102.426" classloc="50"  seed="seed26"/><polygon fill="Blue" stroke="black" stroke-width="1" points="60 0.0000457764 0.0000305176 0.0000762939 42.4265 42.4265 102.426 42.4264" classloc="52"  seed="seed27"/><polygon fill="Blue" stroke="black" stroke-width="1" points="0.0000457764 60.0001 42.4265 102.426 42.4265 42.4265 0.0000152588 0.0000762939" classloc="63"  seed="seed28"/><polygon fill="Red" stroke="black" stroke-width="1" points="289.706 144.853 349.706 144.853 349.706 204.853 289.706 204.853" classloc="64"  seed="seed29"/><polygon fill="Blue" stroke="black" stroke-width="1" points="307.279 102.427 247.279 102.427 289.706 144.853 349.706 144.853" classloc="65"  seed="seed30"/><polygon fill="Blue" stroke="black" stroke-width="1" points="144.853 60.0001 204.853 60.0002 162.427 102.427 102.427 102.427" classloc="68"  seed="seed31"/><polygon fill="Blue" stroke="black" stroke-width="1" points="144.853 60 144.853 0 102.426 42.4264 102.426 102.426" classloc="69"  seed="seed32"/><polygon fill="Red" stroke="black" stroke-width="1" points="204.853 144.853 247.279 102.427 204.853 60.0002 162.427 102.427" classloc="70"  seed="seed33"/><polygon fill="Red" stroke="black" stroke-width="1" points="247.279 42.4266 307.279 42.4266 307.279 102.427 247.279 102.427" classloc="71"  seed="seed34"/><polygon fill="Red" stroke="black" stroke-width="1" points="204.853 0.000152588 144.853 0.00012207 144.853 60.0001 204.853 60.0002" classloc="72"  seed="seed35"/><polygon fill="Blue" stroke="black" stroke-width="1" points="247.279 42.4266 247.279 102.427 204.853 60.0002 204.853 0.000152588" classloc="73"  seed="seed36"/><polygon fill="Blue" stroke="black" stroke-width="1" points="349.706 60.0003 349.706 0.000274658 307.279 42.4266 307.279 102.427" classLoc="75"  seed="seed37"/><polygon fill="Blue" stroke="black" stroke-width="1" points="289.706 0.000213623 349.706 0.000274658 307.279 42.4266 247.279 42.4266" classLoc="76"  seed="seed38"/><polygon fill="Blue" stroke="black" stroke-width="1" points="289.706 144.853 247.279 102.427 247.279 162.427 289.706 204.853" classLoc="77"  seed="seed39"/><polygon fill="Red" stroke="black" stroke-width="1" points="349.706 60.0003 392.132 102.427 349.706 144.853 307.279 102.427" classLoc="78"  seed="seed40"/></g><polygon id="BorderPoly" stroke="red" stroke-width="3" fill="none" points="144.85296630859375,0.0001220703125,102.42645263671875,42.426422119140625,60.000030517578125,0.0000457763671875,0.0000152587890625,0.0000762939453125,0.0000457763671875,60.00006103515625,42.426483154296875,102.42645263671875,0.0000762939453125,144.85287475585938,0.000091552734375,204.85287475585938,42.426483154296875,247.27923583984375,0.0001373291015625,289.7054748535156,0,349.7055358886719,60,349.7055969238281,102.42633056640625,392.1321105957031,144.85281372070312,349.7057189941406,204.85281372070312,349.7057800292969,247.27923583984375,392.1322326660156,289.7056884765625,349.7058410644531,349.7056884765625,349.7059020996094,349.70556640625,289.7058410644531,392.132080078125,247.279541015625,349.7056884765625,204.85305786132812,349.70574951171875,144.85308837890625,392.1322021484375,102.42669677734375,349.705810546875,60.000274658203125,349.70587158203125,0.000274658203125,289.705810546875,0.000213623046875,247.2794189453125,42.42657470703125,204.85296630859375,0.000152587890625"/></svg>