<svg xmlns="http://www.w3.org/2000/svg" id="Star_Hex2_sq" width="251.82199096679688" height="251.82183837890625" template="Star_Hex2_sq" code="Star_Hex2_sq"><g id="mainPolyG"><polygon id="mainPoly" fill="lime" stroke="black" stroke-width="1" points="115.911 84.8528 100.382 142.809 42.4259 158.338 100.382 173.867 115.911 231.822 131.44 173.867 189.395 158.338 131.44 142.809" seed="seed0"/><polygon fill="gold" stroke="black" stroke-width="1" points="100.382 142.808 42.4265 158.338 0 115.912 15.5288 57.956 73.4843 42.4266 115.911 84.8528" seed="seed1"/><polygon fill="seagreen" stroke="black" stroke-width="1" points="158.337 42.4262 115.911 0 73.4843 42.4266 115.911 84.8528" seed="seed2"/><polygon fill="gold" stroke="black" stroke-width="1" points="158.338 42.4269 216.293 57.9563 231.822 115.912 189.395 158.338 131.44 142.809 115.911 84.8532" seed="seed3"/></g><polygon id="BorderPoly" stroke="red" stroke-width="3" fill="none" points="115.9105224609375,0,73.48431396484375,42.426605224609375,15.528839111328125,57.95599365234375,0,115.91162109375,42.426544189453125,158.33786010742188,100.38192749023438,173.86685180664062,115.91091918945312,231.82183837890625,131.43994140625,173.86685180664062,189.39541625976562,158.33819580078125,231.82199096679688,115.91195678710938,216.29306030273438,57.956298828125,158.33755493164062,42.42694091796875"/></svg>