<svg xmlns="http://www.w3.org/2000/svg" id="Star_5_5" width="371.24627685546875" height="503.4494323730469" template="Star_5_5" code="Star_5_5"><g id="mainPolyG"><polygon id="mainPoly" fill="OrangeRed" stroke="black" stroke-width="1" points="175.623 92.3309 194.164 149.394 254.164 149.394 205.623 184.662 224.164 241.725 175.623 206.458 127.082 241.725 145.623 184.662 97.0823 149.394 157.082 149.394" seed="seed0"/><polygon fill="Gold" stroke="black" stroke-width="1" points="157.082 149.394 175.623 92.3305 127.082 57.0634 78.5413 92.3305 97.0823 149.394" classloc="1"  seed="seed1"/><polygon fill="Gold" stroke="black" stroke-width="1" points="127.082 57.0634 145.623 0 205.623 0 224.164 57.0634 175.623 92.3305" classloc="2"  seed="seed2"/><polygon fill="Gold" stroke="black" stroke-width="1" points="175.623 92.3305 194.164 149.394 254.164 149.394 272.705 92.3305 224.164 57.0634" classloc="3"  seed="seed3"/><polygon fill="Gold" stroke="black" stroke-width="1" points="205.624 184.662 224.165 241.725 284.165 241.724 302.706 184.66 254.164 149.394" classloc="4"  seed="seed4"/><polygon fill="Gold" stroke="black" stroke-width="1" points="127.082 241.725 145.623 298.788 205.623 298.788 224.164 241.725 175.623 206.458" classloc="5"  seed="seed5"/><polygon fill="Gold" stroke="black" stroke-width="1" points="48.5411 298.788 67.0822 241.725 127.082 241.725 145.623 298.788 97.0821 334.055" classloc="6"  seed="seed6"/><polygon fill="Gold" stroke="black" stroke-width="1" points="18.541 391.119 78.541 391.119 97.0821 334.055 48.5411 298.788 0 334.055" classloc="7"  seed="seed7"/><polygon fill="Gold" stroke="black" stroke-width="1" points="302.705 298.789 254.164 334.056 205.623 298.788 224.164 241.725 284.164 241.725" classloc="8"  seed="seed8"/><polygon fill="Gold" stroke="black" stroke-width="1" points="332.705 391.119 351.246 334.056 302.705 298.789 254.164 334.056 272.705 391.119" classloc="9"  seed="seed9"/><polygon fill="Gold" stroke="black" stroke-width="1" points="351.246 149.394 302.705 184.661 254.164 149.394 272.705 92.3306 332.705 92.3306" classloc="10"  seed="seed10"/><polygon fill="Blue" stroke="black" stroke-width="1" points="332.705 206.457 351.246 149.394 302.705 184.661 284.164 241.724" classloc="11"  seed="seed11"/><polygon fill="Blue" stroke="black" stroke-width="1" points="254.164 334.056 272.705 391.119 224.164 355.852 205.623 298.788" classloc="17"  seed="seed12"/><polygon fill="Blue" stroke="black" stroke-width="1" points="145.623 298.788 97.0821 334.055 157.082 334.056 205.623 298.788" classloc="18"  seed="seed13"/><polygon fill="Blue" stroke="black" stroke-width="1" points="78.541 391.119 97.0821 334.055 115.623 391.119 97.0819 448.182" classloc="19"  seed="seed14"/><polygon xmlns="http://www.w3.org/2000/svg" stroke-width="1" stroke="black" fill="DodgerBlue" points="205.623 298.788 157.082 334.055 97.0821 334.055 115.623 391.119 97.082 448.182 157.082 448.182 205.623 483.449 224.164 426.386 272.705 391.119 224.164 355.852" classloc="22"  seed="seed15"/><polygon fill="Blue" stroke="black" stroke-width="1" points="157.082 448.182 205.623 483.449 145.623 483.449 97.082 448.182" classloc="24"  seed="seed16"/><polygon fill="Blue" stroke="black" stroke-width="1" points="224.164 426.386 272.705 391.119 254.164 448.182 205.623 483.449" classLoc="26"  seed="seed17"/></g><polygon id="BorderPoly" stroke="red" stroke-width="3" fill="none" points="145.623291015625,0,127.08230590820312,57.063385009765625,78.541259765625,92.33053588867188,97.082275390625,149.39389038085938,145.62326049804688,184.66189575195312,127.08218383789062,241.72494506835938,67.08221435546875,241.72488403320312,48.541107177734375,298.7881774902344,0,334.0552673339844,18.540985107421875,391.1186828613281,78.54098510742188,391.1187438964844,97.08197021484375,448.1821594238281,145.62295532226562,483.4493103027344,205.6229248046875,483.4494323730469,254.1639404296875,448.1822814941406,272.705078125,391.1189270019531,332.7049560546875,391.1192321777344,351.24609375,334.0558776855469,302.70513916015625,298.7886657714844,284.16424560546875,241.72445678710938,332.70526123046875,206.45736694335938,351.24627685546875,149.39398193359375,332.70538330078125,92.33059692382812,272.705322265625,92.33056640625,224.164306640625,57.06341552734375,205.62332153320312,0"/></svg>