<svg xmlns="http://www.w3.org/2000/svg" id="Tess_C" width="213.92303466796875" height="273.9231872558594" template="Tess_C" code="Tess_C"><g id="mainPolyG"><polygon id="mainPoly" fill="lime" stroke="black" stroke-width="1" points="0 60.0004 30 111.961 0 163.923 51.961 133.923 103.923 163.923 73.923 111.961 103.923 60.0004 51.961 90.0004" seed="seed0"/><polygon fill="gold" stroke="black" stroke-width="1" points="51.9619 253.923 0.000274658 223.923 0 163.923 51.9614 133.923 103.923 163.923 103.923 223.923" classLoc="0"  seed="seed1"/><polygon fill="gold" stroke="black" stroke-width="1" points="163.923 163.923 103.923 163.923 73.923 111.961 103.923 60 163.923 60.0003 193.923 111.962" classLoc="1"  seed="seed2"/><polygon fill="Red" stroke="black" stroke-width="1" points="163.923 0.000274658 103.924 0 103.923 60 163.923 60.0003" classLoc="2"  seed="seed3"/></g><polygon id="BorderPoly" stroke="red" stroke-width="3" fill="none" points="103.92352294921875,0,103.92324829101562,60,51.96099853515625,90.00039672851562,0,60.000396728515625,30,111.96139526367188,0,163.92340087890625,0.000274658203125,223.92343139648438,51.9619140625,253.92318725585938,103.92330932617188,223.92294311523438,103.92279052734375,163.92306518554688,163.92279052734375,163.92333984375,193.92303466796875,111.96194458007812,163.9232177734375,60.000274658203125,163.9234619140625,0.000274658203125"/></svg>