<svg xmlns="http://www.w3.org/2000/svg" id="publishSVG" width="300" height="300" viewBox="0 0 300 300" style="cursor: default; touch-action: none; -webkit-tap-highlight-color: rgba(0, 0, 0, 0);"><style xmlns="http://www.w3.org/1999/xhtml"></style><defs xmlns="http://www.w3.org/1999/xhtml"></defs>
    
<g id="publishG"><g id="publishElemG" shape-rendering="geometricPrecision" text-rendering="geometricPrecision"><g xmlns="http://www.w3.org/2000/svg" transform="matrix(1 0 0 1 -558 -211)" parentid="component1529146484602"><defs><radialGradient id="fill15291464605600" cx="50%" cy="50%" r="75%" fx="50%" fy="50%"><stop offset="0%" stop-color="#3CB371" stop-opacity="1"/><stop offset="100%" stop-color="#000000" stop-opacity="1"/></radialGradient></defs><circle stroke="#3CB371" stroke-width="2" fill="url(#fill15291464605600)" transform="translate(629 287)" r="20"/><text font-family="Arial" font-size="20" font-weight="bold" font-style="normal" stroke="none" stroke-width="0" fill="#FFFFFF" transform="matrix(1 0 0 1 617 293)">Bi</text><rect width="40" height="40" stroke="none" fill="white" fill-opacity="0" transform="translate(609,267)" style="cursor: default;"/></g><g xmlns="http://www.w3.org/2000/svg" transform="matrix(1 0 0 1 -564 -125)" parentid="component1529149103078"><defs><radialGradient id="fill15291490812960" cx="50%" cy="50%" r="75%" fx="50%" fy="50%"><stop offset="0%" stop-color="#6A5ACD" stop-opacity="1"/><stop offset="100%" stop-color="#000000" stop-opacity="1"/></radialGradient></defs><circle stroke="#6A5ACD" stroke-width="2" fill="url(#fill15291490812960)" transform="translate(712 203)" r="20"/><text font-family="Arial" font-size="20" font-weight="bold" font-style="normal" stroke="none" stroke-width="0" fill="#FFFFFF" transform="matrix(1 0 0 1 701 208)">Br</text><rect width="40" height="40" stroke="none" fill="white" fill-opacity="0" transform="translate(692,183)" style="cursor: default;"/></g><g xmlns="http://www.w3.org/2000/svg" transform="matrix(1 0 0 1 -175 -309)" parentid="component1529151617894"><defs><radialGradient id="fill15291515772140" cx="50%" cy="50%" r="75%" fx="50%" fy="50%"><stop offset="0%" stop-color="#FF00FF" stop-opacity="1"/><stop offset="100%" stop-color="#000000" stop-opacity="1"/></radialGradient></defs><circle stroke="#FF00FF" stroke-width="2" fill="url(#fill15291515772140)" transform="matrix(1 0 0 1 395 383)" r="20"/><text font-family="Arial" font-size="20" font-weight="bold" font-style="normal" stroke="none" stroke-width="0" fill="#FFFFFF" transform="matrix(1 0 0 1 382 390)">Eu</text><rect width="40" height="40" stroke="none" fill="white" fill-opacity="0" transform="translate(375,363)" style="cursor: default;"/></g><g xmlns="http://www.w3.org/2000/svg" transform="matrix(0.5 0 0 0.5 -114.058 5.49995)" parentid="component1529502832725"><polygon stroke="#000000" stroke-width="3" fill="white" fill-opacity="0" vcnt="6" length="60" transform="matrix(0.866025 0.5 -0.5 0.866025 400 279)" points="60 0 30 -51.9615 -30 -51.9615 -60 -7.34788e-15 -30 51.9615 30 51.9615" size="radius"/><path fill="none" fill-opacity="1.0" stroke="#000000" stroke-width="4" d="M 401 235 L 362 257" type="linear"/><path fill="none" fill-opacity="1.0" stroke="#000000" stroke-width="4" d="M 360 300 L 397 323" type="linear"/><path fill="none" fill-opacity="1.0" stroke="#000000" stroke-width="4" d="M 439 256 L 439 302" type="linear"/><rect width="155.884521484375" height="149.9999237060547" stroke="none" fill="white" fill-opacity="0" transform="translate(322.0577392578125,204.0000457763672)" style="cursor: default;"/></g><g xmlns="http://www.w3.org/2000/svg" transform="matrix(0.5 0 0 0.5 76.75 76.25)" parentid="component1529504660418"><path fill="#000000" fill-opacity="1.0" stroke="#000000" stroke-width="1" d="M 139 111 L 160 112 L 148 170 z" type="linear" stroke-opacity="1.0"/><rect width="21" height="59" stroke="none" fill="white" fill-opacity="0" transform="translate(139,111)" style="cursor: default;"/></g><g xmlns="http://www.w3.org/2000/svg" transform="matrix(0.5 0 0 0.5 115.75 79)" parentid="component1529504845712"><defs><pattern id="fill15295048212190" patternUnits="userSpaceOnUse" width="3" height="3" addto="fill"><path d="M 0,1.5 l 3,0" stroke-width="1" shape-rendering="auto" stroke="#000000" stroke-linecap="square"/></pattern></defs><path fill="url(#fill15295048212190)" stroke="#000000" stroke-width="1" d="M 197 111 L 218 111 L 206 169 z" type="linear" stroke-opacity="1.0" fill-opacity="null"/><rect width="21" height="58" stroke="none" fill="white" fill-opacity="0" transform="translate(197,111)" style="cursor: default;"/></g><g xmlns="http://www.w3.org/2000/svg" transform="matrix(0.5 0 0 0.5 -51.5 87)" parentid="component1529500650048"><path fill="none" fill-opacity="1.0" stroke="#000000" stroke-width="3" d="M 280 279 L 326 251 L 373 281 L 429 250 L 478 282 L 530 251" type="linear" stroke-opacity="1.0"/><rect width="250" height="32" stroke="none" fill="white" fill-opacity="0" transform="translate(280,250)" style="cursor: default;"/></g></g></g><rect id="schematicRect" stroke="none" fill="#c9a0dc" fill-opacity=".4"/></svg>